<svg width="97" height="115" viewBox="0 0 97 115" fill="none" xmlns="http://www.w3.org/2000/svg">
<path d="M39.4381 115H84.6536V108.987H39.4381V115Z" fill="#0A0B0B"/>
<path d="M31.4893 70.415C30.2826 70.4464 29.4755 69.1899 30.0115 68.1139L38.4381 51.2058C38.6171 50.7799 38.8221 50.3674 39.0533 49.9715L39.0543 49.9693V49.9695C40.792 46.9973 43.9493 44.9336 47.6408 44.7271L71.5113 43.3929L71.5191 43.3823L71.6964 43.3855L71.7349 43.384C71.7608 43.384 71.7859 43.3877 71.8118 43.388L75.7669 43.4627C82.6781 43.5935 88.9072 48.0429 90.8172 54.6484C90.8943 54.9147 90.9644 55.1843 91.0278 55.457L95.9776 72.1565C96.3174 73.3027 95.4899 74.4628 94.2896 74.5228L82.3986 75.1191L86.2259 106.709C86.3761 107.947 85.4039 109.036 84.1499 109.036H39.1031C38.0842 109.036 37.2622 108.208 37.2771 107.195L37.2938 70.2515L31.4893 70.415Z" fill="#7D75FF"/>
<path d="M71.7394 43.5077L71.766 43.5094L71.8105 43.5117L75.7644 43.5863C82.7057 43.7177 88.8466 48.2805 90.6978 54.6825C90.7738 54.9456 90.8439 55.2155 90.9067 55.4848L95.8584 72.1916C96.0095 72.7013 95.9188 73.2421 95.6097 73.6756C95.3008 74.1089 94.8171 74.3727 94.2835 74.3995L82.3921 74.9957C82.3578 74.9972 82.3257 75.0132 82.3033 75.0392C82.2812 75.0657 82.271 75.0996 82.2752 75.1337L86.1025 106.723C86.1699 107.278 85.9946 107.836 85.6215 108.255C85.2487 108.673 84.712 108.913 84.1499 108.913H39.1031C38.6437 108.913 38.2132 108.734 37.8909 108.409C37.5686 108.083 37.3947 107.653 37.4015 107.196L37.4181 70.2516C37.4181 70.2182 37.4047 70.186 37.3806 70.163C37.3564 70.1395 37.3261 70.1264 37.2903 70.1279L31.4863 70.2914C30.9623 70.3131 30.4833 70.0515 30.2017 69.6133C29.9202 69.1748 29.8909 68.6352 30.1229 68.1691L38.5495 51.2609C38.7308 50.8304 38.9352 50.4199 39.1608 50.0336C40.943 46.9849 44.1154 45.0481 47.6478 44.8505L71.5185 43.5164L71.5601 43.5067L71.6941 43.5092L71.7394 43.5077ZM39.1031 109.16H84.1499C84.7834 109.16 85.3875 108.89 85.8078 108.419C86.2276 107.948 86.4251 107.319 86.3492 106.694L82.5378 75.2358L94.2961 74.6463C94.9062 74.6158 95.4591 74.3141 95.8124 73.8186C96.1661 73.323 96.2697 72.7045 96.0968 72.1216L91.1471 55.4219C91.0853 55.1556 91.0139 54.8816 90.9368 54.6145C89.0557 48.1089 82.8186 43.4723 75.7691 43.3391L71.7837 43.2626L71.7349 43.2604L71.6919 43.2621L71.5213 43.2587L71.4631 43.2718L47.6338 44.6037C44.0177 44.8058 40.7701 46.7886 38.9469 49.9072C38.7146 50.3051 38.5052 50.7253 38.3234 51.1581L29.9001 68.0595C29.6287 68.6038 29.6633 69.2344 29.9921 69.7463C30.3209 70.2582 30.8872 70.5589 31.4925 70.5387H31.493L37.1694 70.3789L37.1527 107.195C37.1453 107.716 37.3442 108.209 37.7138 108.582C38.0831 108.955 38.5766 109.16 39.1031 109.16Z" fill="#0A0B0B"/>
<path d="M24.3361 55.1157C22.877 52.4563 22.3796 49.2422 23.6912 46.422L25.3705 47.0309C25.3705 47.0309 26.9781 42.426 27.2377 39.0635C27.8831 37.9198 32.5528 40.3326 32.5528 40.3326C32.5528 40.3326 32.0892 39.0773 31.8574 38.4497C31.6117 37.7845 31.3622 37.0755 31.5092 36.3821C31.656 35.6886 32.3715 35.0652 33.0489 35.2856C33.7157 35.5024 34.9781 38.2496 35.3761 38.8961C37.7713 42.788 37.7422 47.8789 37.3214 52.279C37.0968 54.6241 38.164 78.7714 37.7571 79.8436C35.2985 86.3166 26.1362 86.4479 23.493 80.0472C23.157 78.7879 22.9643 77.5003 22.9153 76.2089C22.8489 74.4627 25.7587 58.8447 25.8037 58.3148C25.8669 57.5719 25.5127 56.918 25.1029 56.2956C24.8383 55.8942 24.5503 55.5062 24.3361 55.1157Z" fill="#FFE5E5"/>
<path d="M32.764 35.364C32.8426 35.364 32.9249 35.3756 33.0102 35.403C33.4649 35.5512 34.3579 37.2518 34.8374 38.1653C35.0232 38.519 35.17 38.7984 35.2699 38.9609C37.7249 42.9498 37.5896 48.1675 37.1974 52.2674C37.0957 53.33 37.2563 58.8037 37.4265 64.5988C37.6277 71.4583 37.8557 79.2328 37.6406 79.7999C36.5214 82.7462 33.8588 84.6046 30.6913 84.6496C27.5226 84.6832 24.8107 82.9126 23.608 80.0004C23.2812 78.7721 23.0882 77.4899 23.0395 76.2042C22.9912 74.9348 24.5541 66.1348 25.3939 61.4067C25.7076 59.6393 25.915 58.4716 25.9274 58.3252C25.9938 57.5445 25.6203 56.8557 25.2067 56.2278C25.1266 56.1062 25.044 55.9855 24.9622 55.8658C24.7717 55.5871 24.5916 55.324 24.4449 55.0567C22.8731 52.1915 22.6244 49.1082 23.7567 46.5776L25.3278 47.1469C25.3586 47.158 25.3934 47.1568 25.4238 47.1424C25.4539 47.1283 25.477 47.1026 25.488 47.0715C25.5039 47.0252 27.0943 42.4398 27.3592 39.1023C27.8312 38.3896 30.7485 39.5398 32.4952 40.4422C32.5402 40.4657 32.5964 40.4593 32.6347 40.4254C32.6732 40.3915 32.6869 40.3378 32.6695 40.2899L31.9739 38.4072C31.7568 37.8191 31.4864 37.0871 31.6307 36.4076C31.708 36.0416 31.9674 35.685 32.291 35.4992C32.4094 35.4312 32.5745 35.364 32.764 35.364ZM30.5742 84.8976C30.6145 84.8976 30.6545 84.8974 30.6948 84.8969C33.9665 84.8504 36.7171 82.9307 37.8731 79.8874C38.0897 79.3172 37.935 73.4609 37.6752 64.5914C37.505 58.8044 37.3446 53.3382 37.4451 52.2909C37.841 48.1526 37.9756 42.883 35.4821 38.8316C35.3863 38.6765 35.2344 38.3864 35.0581 38.0511C34.31 36.6262 33.5964 35.3335 33.0873 35.1681C32.7929 35.0717 32.4653 35.1137 32.1666 35.2851C31.7789 35.5076 31.4802 35.9182 31.3872 36.3566C31.2285 37.1054 31.512 37.8745 31.7401 38.4925L32.3268 40.0799C31.2318 39.5383 27.7392 37.9205 27.1289 39.0032L27.1135 39.0541C26.8812 42.064 25.5447 46.128 25.2935 46.8714L23.7336 46.3058C23.6737 46.2841 23.6053 46.3118 23.5782 46.3701C22.3588 48.992 22.595 52.2011 24.2268 55.1749C24.3792 55.4528 24.571 55.7335 24.7565 56.005C24.8376 56.1235 24.9192 56.2429 24.9988 56.3636C25.4484 57.0464 25.7364 57.6377 25.6797 58.3044C25.6683 58.4394 25.4504 59.666 25.1487 61.3639C24.3076 66.1007 22.7418 74.9178 22.7908 76.2133C22.8403 77.5173 23.036 78.8181 23.3727 80.0788C24.6051 83.0654 27.3552 84.8976 30.5742 84.8976Z" fill="#0A0B0B"/>
<path d="M33.479 42.9129L29.1324 47.2201L25.8846 40.9467L26.5772 38.0963L32.48 40.276L33.479 42.9129Z" fill="#0A0B0B"/>
<path d="M26.5827 49.4166C27.7456 49.6164 28.8511 48.8409 29.0521 47.6845L31.0148 36.3779C31.2158 35.2215 30.4356 34.1223 29.2727 33.9227C28.11 33.7231 27.0043 34.4987 26.8038 35.655L24.8405 46.9617C24.6398 48.118 25.4198 49.217 26.5827 49.4166Z" fill="#F57E27"/>
<path d="M28.9049 34.015C29.0201 34.015 29.1357 34.0249 29.2514 34.0447C29.7811 34.1357 30.2437 34.4262 30.5536 34.8627C30.8634 35.2997 30.9836 35.8304 30.8921 36.3569L28.9293 47.6635C28.8378 48.1903 28.5455 48.65 28.1063 48.9581C27.6669 49.2662 27.1341 49.3859 26.6037 49.2949C25.5101 49.1072 24.7742 48.0701 24.963 46.9827L26.9262 35.6761C27.0175 35.1493 27.3097 34.6896 27.7487 34.3815C28.0921 34.1406 28.4933 34.015 28.9049 34.015ZM26.9509 49.5719C27.4134 49.5719 27.8638 49.4307 28.2496 49.1602C28.743 48.8139 29.0715 48.2973 29.1745 47.7056L31.1373 36.3989C31.2402 35.8071 31.1049 35.2112 30.7565 34.7203C30.4086 34.2296 29.889 33.9032 29.2936 33.8008C28.699 33.6987 28.0991 33.8332 27.6054 34.1794C27.112 34.5257 26.7837 35.0423 26.681 35.634L24.7177 46.9407C24.5059 48.1623 25.333 49.3278 26.5614 49.5385C26.6912 49.5608 26.8218 49.5719 26.9509 49.5719Z" fill="#0A0B0B"/>
<path d="M26.9181 35.7003L30.8578 36.3766C31.683 36.5181 32.4672 35.9679 32.6097 35.1473L32.7614 34.2741C32.9037 33.4538 32.3503 32.6739 31.5253 32.5322L27.5854 31.8558C26.7604 31.7144 25.9763 32.2646 25.8335 33.0849L25.6821 33.9583C25.5398 34.7786 26.0929 35.5586 26.9181 35.7003Z" fill="#FEF7EE"/>
<path d="M27.3267 31.9574C27.4053 31.9574 27.4843 31.9641 27.5642 31.9777L31.5041 32.6541C32.2602 32.7839 32.7693 33.5013 32.6387 34.2531L32.487 35.1263C32.3564 35.8781 31.6354 36.3838 30.8789 36.2545L26.9392 35.5783C26.1831 35.4485 25.674 34.7311 25.8046 33.9793L25.9561 33.1059C26.073 32.4335 26.6626 31.9574 27.3267 31.9574ZM31.1164 36.522C31.8996 36.522 32.5944 35.9612 32.7325 35.1683L32.8839 34.2951C33.0376 33.4088 32.4375 32.5633 31.5464 32.4102L27.6065 31.7341C26.7151 31.5811 25.865 32.1778 25.7108 33.0641L25.5594 33.9373C25.4057 34.8236 26.0058 35.6691 26.8969 35.8219L30.8366 36.4983C30.9306 36.5144 31.0241 36.522 31.1164 36.522Z" fill="#0A0B0B"/>
<path d="M37.5683 30.4737L38.716 30.6705C39.2769 30.767 39.8101 30.3928 39.9066 29.8352L39.9434 29.625C40.0399 29.0675 39.6641 28.5373 39.1033 28.4411L37.9555 28.2441L37.5683 30.4737Z" fill="#F5E9D7"/>
<path d="M38.0566 28.387L39.082 28.5631C39.5739 28.6476 39.9054 29.1145 39.8206 29.6042L39.7841 29.8141C39.7428 30.0513 39.6115 30.2583 39.4135 30.397C39.2158 30.536 38.9753 30.5899 38.737 30.5489L37.7119 30.3728L38.0566 28.387ZM38.8937 30.8095C39.1297 30.8095 39.36 30.7373 39.557 30.5991C39.8092 30.4222 39.9766 30.1584 40.0291 29.8562L40.0656 29.6462C40.1738 29.0223 39.7515 28.4271 39.1243 28.3192L37.9763 28.1224C37.9442 28.1167 37.9106 28.1244 37.8835 28.1432C37.8566 28.162 37.8385 28.1906 37.8325 28.223L37.4455 30.4527C37.4398 30.4848 37.4475 30.5182 37.4667 30.5449C37.4856 30.5716 37.5144 30.5899 37.547 30.5956L38.6948 30.7924C38.7612 30.8038 38.8276 30.8095 38.8937 30.8095Z" fill="#0A0B0B"/>
<path d="M25.7919 33.3253L31.812 34.3587C34.7534 34.8634 37.5496 32.9019 38.0574 29.9774L38.2487 28.8747C38.7565 25.9501 36.7838 23.1698 33.8424 22.6651L27.8221 21.6316L25.7919 33.3253Z" fill="#F57E27"/>
<path d="M27.9236 21.7746L33.8213 22.7868C36.6904 23.2794 38.6213 26.0009 38.1261 28.8537L37.9349 29.9564C37.4395 32.8089 34.7035 34.7292 31.8332 34.2368L25.9357 33.2244L27.9236 21.7746ZM32.7342 34.5613C35.3737 34.5613 37.716 32.6707 38.1801 29.9984L38.3713 28.8957C38.8896 25.9086 36.8677 23.0588 33.8636 22.5432L27.8432 21.5097C27.7766 21.4986 27.7112 21.5431 27.6995 21.6106L25.6693 33.3043C25.6639 33.3367 25.6713 33.3698 25.6905 33.3965C25.7094 33.4235 25.7382 33.4415 25.7708 33.4472L31.7909 34.4807C32.1078 34.5351 32.4231 34.5613 32.7342 34.5613Z" fill="#0A0B0B"/>
<path d="M27.8223 21.6316L25.7921 33.3253C21.1314 32.5253 16.3287 33.2118 12.0343 35.292L2.52965 39.8964L8.122 7.6856L15.5239 15.192C18.8682 18.5834 23.1616 20.8316 27.8223 21.6316Z" fill="#F5E9D7"/>
<path d="M27.8223 21.6316L27.9449 21.6527L25.9148 33.3463C25.9093 33.3785 25.8907 33.4076 25.864 33.4264C25.8372 33.4452 25.8034 33.4526 25.771 33.4472C24.5133 33.2313 23.2449 33.1242 21.9793 33.1242C18.581 33.1242 15.2009 33.8958 12.0889 35.4033L2.58418 40.0075C2.54215 40.028 2.49241 40.0233 2.4551 39.9954C2.41755 39.9674 2.39915 39.9212 2.40711 39.8754L7.99969 7.6646C8.00765 7.6186 8.04049 7.5815 8.08525 7.56766C8.12977 7.55356 8.17826 7.56568 8.21084 7.59906L15.6127 15.1055C18.9391 18.4786 23.2086 20.7142 27.8435 21.5097C27.9114 21.5213 27.9566 21.5854 27.9449 21.6527L27.8223 21.6316L27.8012 21.7536C23.1146 20.9489 18.7976 18.6883 15.4352 15.2786L8.20339 7.94454L2.69362 39.6796L11.9799 35.181C15.1255 33.6572 18.5432 32.8769 21.9793 32.8769C23.2591 32.8769 24.5414 32.9853 25.8133 33.2034L25.7922 33.3253L25.6698 33.3043L27.7 21.6106L27.8223 21.6316Z" fill="#0A0B0B"/>
<path d="M1.0221 23.0523C-0.529809 31.9901 -0.0192251 39.5393 2.16215 39.9137C4.34328 40.2881 7.3695 33.346 8.92115 24.4082C10.4731 15.4702 9.96272 7.92099 7.78135 7.54658C5.60022 7.17218 2.57401 14.1143 1.0221 23.0523Z" fill="#FEF7EE"/>
<path d="M1.02213 23.0523L1.14449 23.0733C0.539394 26.5592 0.24866 29.8332 0.24866 32.5475C0.248411 34.6636 0.425992 36.4404 0.764975 37.7056C0.934093 38.3379 1.14425 38.8419 1.38574 39.1938C1.62847 39.547 1.89483 39.7423 2.18332 39.7918C2.23257 39.8002 2.28231 39.8044 2.3328 39.8044C2.56981 39.8046 2.82796 39.7109 3.10402 39.5173C3.587 39.1797 4.11152 38.5392 4.63628 37.6502C6.21455 34.9816 7.80949 30.0901 8.79883 24.387C9.40392 20.9011 9.6949 17.6266 9.69466 14.9123C9.6949 12.7962 9.51758 11.0196 9.1786 9.75445C9.00948 9.12212 8.79933 8.61812 8.55784 8.26622C8.3151 7.91333 8.04874 7.71796 7.76025 7.66851C7.71101 7.6601 7.66126 7.65589 7.61077 7.65589C7.37376 7.65564 7.11561 7.74937 6.83955 7.94301C6.35657 8.28057 5.83229 8.92106 5.30728 9.81009C3.72901 12.4787 2.13408 17.3702 1.14449 23.0733L1.02213 23.0523L0.899514 23.0313C1.65706 18.6697 2.76405 14.7827 3.95658 11.9789C4.55322 10.5767 5.1705 9.44533 5.78181 8.6572C6.08771 8.26325 6.39213 7.95438 6.69605 7.74097C6.99971 7.52805 7.30636 7.40884 7.61077 7.40859C7.67519 7.40859 7.73935 7.41404 7.80252 7.42492C8.17856 7.48946 8.49914 7.74121 8.76326 8.127C9.16019 8.70765 9.45043 9.60335 9.64741 10.7553C9.84363 11.9069 9.94336 13.3148 9.94336 14.9123C9.94336 17.6439 9.65114 20.9305 9.0438 24.4293C8.2865 28.7906 7.17927 32.6776 5.98699 35.4814C5.39035 36.8836 4.77308 38.015 4.16176 38.8031C3.85586 39.197 3.55144 39.5059 3.24752 39.7193C2.94386 39.9325 2.63721 40.0517 2.3328 40.0517C2.26839 40.0517 2.20422 40.0463 2.14105 40.0354C1.76501 39.9708 1.44442 39.7191 1.1803 39.3333C0.783371 38.7526 0.493139 37.8569 0.296166 36.7048C0.0996904 35.5529 -4.29153e-05 34.145 -4.29153e-05 32.5475C-4.29153e-05 29.8159 0.292181 26.5295 0.899514 23.0313L1.02213 23.0523Z" fill="#0A0B0B"/>
<path d="M1.79768 22.8762C0.550434 30.0595 0.960783 36.1266 2.71364 36.4276C4.46675 36.7285 6.89882 31.1493 8.14607 23.9658C9.39332 16.7826 8.98295 10.7154 7.23009 10.4147C5.47699 10.1135 3.04468 15.6928 1.79768 22.8762Z" fill="#F5E9D7"/>
<mask id="mask0_1595_4053" style="mask-type:luminance" maskUnits="userSpaceOnUse" x="1" y="10" width="8" height="27">
<path d="M1.79768 22.8762C0.550435 30.0595 0.960791 36.1266 2.7139 36.4276C4.46676 36.7285 6.89882 31.1493 8.14607 23.9658C9.39332 16.7826 8.98295 10.7154 7.23009 10.4147C5.47699 10.1135 3.04468 15.6928 1.79768 22.8762Z" fill="white"/>
</mask>
<g mask="url(#mask0_1595_4053)">
<path d="M11.7366 21.6999L7.5218 20.9766C5.80027 20.6808 4.16406 21.829 3.86686 23.5405C3.56965 25.2523 4.72413 26.8793 6.44566 27.1748L10.6604 27.8984L11.7366 21.6999Z" fill="#F57E27"/>
<path d="M11.7366 21.6999L11.7155 21.8218L7.50073 21.0982C7.32565 21.0683 7.15154 21.0537 6.97994 21.0537C5.52925 21.0537 4.24471 22.0911 3.98954 23.5615C3.9592 23.7356 3.94476 23.9087 3.94476 24.0794C3.94476 25.5221 4.98808 26.7994 6.46687 27.0528L10.559 27.7554L11.614 21.6789L11.7366 21.6999L11.859 21.7209L10.7829 27.9194C10.7712 27.9866 10.707 28.0319 10.6391 28.0203L6.42459 27.2967C4.82469 27.0217 3.69606 25.641 3.69606 24.0794C3.69606 23.8946 3.71174 23.7077 3.74432 23.5195C4.02088 21.9289 5.40938 20.8064 6.97994 20.8064C7.16572 20.8064 7.35399 20.8222 7.543 20.8546L11.7578 21.578C11.8254 21.5896 11.8707 21.6536 11.859 21.7209L11.7366 21.6999Z" fill="#0A0B0B"/>
</g>
<path d="M1.79771 22.8763L1.92031 22.8973C1.43385 25.6977 1.20032 28.3279 1.20032 30.5078C1.20032 32.207 1.34282 33.6334 1.61466 34.6468C1.74995 35.1535 1.91808 35.5561 2.11008 35.8356C2.30283 36.116 2.51173 36.2676 2.73482 36.3057C2.77312 36.3124 2.81166 36.3156 2.85096 36.3156C3.035 36.3158 3.2377 36.2429 3.45681 36.0893C3.84006 35.8215 4.26037 35.3091 4.68117 34.5961C5.94707 32.456 7.22888 28.5262 8.02348 23.9448C8.50995 21.1444 8.74348 18.5142 8.74348 16.3343C8.74348 14.6351 8.60097 13.2087 8.32914 12.1953C8.19385 11.6888 8.02573 11.286 7.83373 11.0068C7.64098 10.7261 7.43207 10.5747 7.20898 10.5364C7.17068 10.53 7.13213 10.5268 7.09284 10.5268C6.9088 10.5265 6.70611 10.5992 6.487 10.7531C6.10375 11.0209 5.68319 11.5333 5.26264 12.246C3.99674 14.3861 2.71492 18.3161 1.92031 22.8973L1.79771 22.8763L1.67509 22.8552C2.28417 19.3483 3.17428 16.223 4.13353 13.9674C4.61352 12.839 5.11019 11.9285 5.60336 11.2924C5.85033 10.9744 6.09654 10.7246 6.34375 10.551C6.59047 10.3777 6.84165 10.2795 7.09284 10.2795C7.14581 10.2795 7.19879 10.2839 7.25127 10.2928C7.5619 10.3463 7.82503 10.554 8.03916 10.8673C8.36173 11.3391 8.59501 12.0615 8.75369 12.9894C8.91186 13.917 8.99194 15.0493 8.99219 16.3343C8.99194 18.5315 8.75717 21.1739 8.26871 23.9871C7.65964 27.4938 6.76953 30.6191 5.81028 32.8749C5.33028 34.0031 4.83363 34.9136 4.3402 35.5499C4.09349 35.868 3.84727 36.1177 3.60005 36.2913C3.35334 36.4644 3.10215 36.5626 2.85096 36.5629C2.79774 36.5629 2.74502 36.5584 2.69254 36.5495C2.38191 36.4961 2.11878 36.2884 1.90465 35.9748C1.58208 35.503 1.3488 34.7806 1.19012 33.853C1.03195 32.9254 0.95187 31.7928 0.951621 30.5078C0.95187 28.3106 1.18664 25.6682 1.67509 22.8552L1.79771 22.8763Z" fill="#0A0B0B"/>
<path d="M26.5774 21.3816L24.6069 33.1544L26.5774 21.3816Z" fill="#F5E9D7"/>
<path d="M24.6071 33.278C24.6666 33.278 24.7193 33.2352 24.7295 33.1746L26.7002 21.4019C26.7114 21.3343 26.6657 21.2708 26.598 21.2597C26.5314 21.2478 26.4662 21.2938 26.4548 21.3613L24.484 33.1341C24.4731 33.2016 24.5186 33.2652 24.5865 33.2763L24.6071 33.278Z" fill="#0A0B0B"/>
<path d="M22.2192 40.1575L22.204 40.2053C21.9645 40.9556 22.3856 41.7642 23.1399 42.0024L27.4335 43.3581C28.1878 43.5964 29.0013 43.1775 29.2406 42.4275L29.256 42.3795C29.4955 41.6295 29.0745 40.8208 28.3199 40.5826L24.0265 39.2267C23.272 38.9886 22.459 39.4075 22.2192 40.1575Z" fill="#F5E9D7"/>
<path d="M23.592 39.2831C23.7236 39.2831 23.8572 39.3032 23.989 39.3447L28.2826 40.7004C28.9735 40.9188 29.357 41.6552 29.1376 42.3422L29.1225 42.3899C29.0168 42.7213 28.786 42.9926 28.4733 43.1536C28.1602 43.3148 27.8043 43.3455 27.4713 43.2404L23.178 41.8845C22.4868 41.6663 22.1033 40.9299 22.3227 40.2429L22.3381 40.1949C22.5154 39.639 23.0345 39.2831 23.592 39.2831ZM27.868 43.5493C28.1152 43.5493 28.3609 43.4902 28.5877 43.3734C28.9596 43.1818 29.2336 42.8591 29.3595 42.4649L29.3749 42.4171C29.6355 41.6001 29.1794 40.7244 28.3579 40.4647L24.0643 39.1091C23.2421 38.8494 22.362 39.3032 22.1008 40.1202L22.0856 40.168C21.8248 40.985 22.2809 41.8607 23.1026 42.1204L27.3962 43.4761C27.5509 43.525 27.7096 43.5493 27.868 43.5493Z" fill="#0A0B0B"/>
<path d="M23.067 37.2744L23.0519 37.3223C22.8121 38.0724 23.2334 38.8811 23.9877 39.1192L28.2811 40.4751C29.0357 40.7135 29.8489 40.2946 30.0884 39.5445L30.1036 39.4966C30.3433 38.7465 29.922 37.9379 29.1677 37.6997L24.8744 36.3438C24.1198 36.1056 23.3065 36.5243 23.067 37.2744Z" fill="#F5E9D7"/>
<path d="M24.4397 36.4002C24.5713 36.4002 24.7048 36.4199 24.8366 36.4615L29.13 37.8174C29.4632 37.9225 29.7361 38.152 29.898 38.4631C30.0601 38.7739 30.091 39.1278 29.9853 39.459L29.9699 39.5069C29.8642 39.8383 29.6336 40.1096 29.3207 40.2706C29.0074 40.4318 28.6515 40.4625 28.3187 40.3574L24.0256 39.0015C23.6923 38.8961 23.4195 38.6669 23.2576 38.3558C23.0955 38.0449 23.0646 37.691 23.1703 37.3597L23.1857 37.3119C23.3633 36.756 23.8821 36.4002 24.4397 36.4002ZM28.7154 40.666C28.9626 40.6663 29.2083 40.6069 29.4351 40.4902C29.807 40.2988 30.081 39.9761 30.2069 39.5819L30.2223 39.5339C30.3484 39.1397 30.3116 38.719 30.1188 38.3493C29.9261 37.9794 29.602 37.7069 29.2053 37.5817L24.912 36.2258C24.0905 35.9661 23.2096 36.4202 22.9487 37.237L22.9333 37.2847C22.8072 37.6792 22.844 38.0998 23.0365 38.4695C23.2293 38.8395 23.5536 39.112 23.9502 39.2371L28.2436 40.5931C28.3983 40.642 28.557 40.666 28.7154 40.666Z" fill="#0A0B0B"/>
<path d="M22.2044 43.1145L22.2001 43.1271C21.9634 43.868 22.3794 44.6665 23.1243 44.9017L26.0533 45.8266C26.7981 46.062 27.6015 45.6483 27.8377 44.9076L27.8417 44.8945C28.0785 44.1539 27.6626 43.3554 26.9175 43.1202L23.989 42.1953C23.2439 41.9601 22.4409 42.3736 22.2044 43.1145Z" fill="#F5E9D7"/>
<path d="M23.5606 42.2526C23.6916 42.2526 23.8232 42.2727 23.9515 42.3132L26.8797 43.2379C27.5614 43.453 27.9397 44.1796 27.7234 44.8572C27.5028 45.5476 26.7721 45.9237 26.0906 45.7088L23.1619 44.7839C22.8334 44.6801 22.5643 44.4541 22.4043 44.1472C22.2447 43.8403 22.2143 43.4913 22.3185 43.1647L22.3228 43.1518C22.4272 42.8249 22.6545 42.5575 22.9632 42.3985C23.1514 42.3016 23.3554 42.2526 23.5606 42.2526ZM26.4823 46.0167C27.1377 46.0167 27.7477 45.5985 27.9561 44.9449C28.2183 44.1244 27.7674 43.2586 26.9551 43.0022L24.0269 42.0775C23.6347 41.9536 23.2161 41.9898 22.8488 42.1789C22.4812 42.3684 22.2101 42.6871 22.0857 43.0769L22.0815 43.0895C21.9569 43.4795 21.9932 43.8954 22.1835 44.2609C22.374 44.6264 22.6946 44.8957 23.0865 45.0196L26.0155 45.9445C26.1704 45.9935 26.3276 46.0167 26.4823 46.0167Z" fill="#0A0B0B"/>
<path d="M21.4041 45.8484L21.3889 45.8964C21.1492 46.6464 21.5705 47.4551 22.3248 47.6932L23.7747 48.1512C24.5291 48.3893 25.3426 47.9704 25.5821 47.2204L25.5972 47.1724C25.837 46.4223 25.4157 45.6139 24.6611 45.3755L23.2114 44.9178C22.4569 44.6794 21.6439 45.0983 21.4041 45.8484Z" fill="#F5E9D7"/>
<path d="M22.7769 44.9742C22.9087 44.9742 23.0422 44.994 23.1741 45.0355L24.6237 45.4935C24.957 45.5986 25.2298 45.8278 25.3917 46.1389C25.5539 46.45 25.5847 46.8039 25.479 47.135L25.4636 47.183C25.3579 47.5144 25.1271 47.7854 24.8145 47.9467C24.5011 48.1079 24.1452 48.1386 23.8125 48.0332L22.3625 47.5755C22.0293 47.4701 21.7567 47.2409 21.5945 46.9298C21.4326 46.6189 21.4018 46.2651 21.5077 45.9337L21.5227 45.886C21.7002 45.33 22.2193 44.9742 22.7769 44.9742ZM24.2092 48.3421C24.4564 48.3421 24.7018 48.283 24.9289 48.1663C25.3007 47.9746 25.5748 47.6521 25.7006 47.258L25.716 47.21C25.8419 46.8158 25.8053 46.3949 25.6126 46.0252C25.4198 45.6555 25.0958 45.383 24.6991 45.2578L23.2494 44.7998C22.4274 44.5402 21.5468 44.994 21.2857 45.811L21.2854 45.8115L21.2705 45.8593C21.1446 46.2532 21.1812 46.6738 21.3739 47.0435C21.5664 47.4133 21.8907 47.6858 22.2874 47.8112L23.7374 48.2689C23.8921 48.3179 24.0507 48.3421 24.2092 48.3421Z" fill="#0A0B0B"/>
<path d="M32.6181 40.5757C32.6181 40.5757 32.0891 39.0774 31.8573 38.4497C31.6116 37.7845 31.3622 37.0755 31.5091 36.3821C31.6559 35.6887 32.3714 35.0652 33.0489 35.2856C33.7156 35.5025 34.9781 38.2497 35.376 38.8961" fill="#F5E9D7"/>
<path d="M32.5008 40.6166L32.7353 40.5347C32.7353 40.5347 32.2058 39.0354 31.974 38.4072C31.7569 37.8192 31.4865 37.0872 31.6308 36.4076C31.7081 36.0416 31.9675 35.685 32.2911 35.4993C32.4582 35.4031 32.7186 35.3089 33.0103 35.4031C33.465 35.5512 34.3581 37.2519 34.8376 38.1654C35.0233 38.519 35.1701 38.7985 35.2701 38.9609C35.3061 39.0193 35.3835 39.0366 35.4409 39.0017C35.4996 38.9661 35.518 38.89 35.4822 38.8316C35.3865 38.6765 35.2345 38.3865 35.0582 38.0511C34.3101 36.6262 33.5965 35.3336 33.0874 35.1681C32.793 35.0717 32.4654 35.1137 32.1667 35.2851C31.779 35.5077 31.4803 35.9182 31.3873 36.3567C31.2286 37.1055 31.5122 37.8746 31.7402 38.4925C31.9723 39.1194 32.5008 40.6166 32.5008 40.6166Z" fill="#0A0B0B"/>
<path d="M33.7946 44.6996H33.7961C33.8647 44.6989 33.9197 44.643 33.9189 44.5745C33.9035 43.2144 32.7796 40.6353 32.7319 40.5263C32.704 40.4635 32.6307 40.4355 32.568 40.4622C32.5051 40.4894 32.4765 40.5624 32.5041 40.6249C32.5153 40.6514 33.6553 43.2671 33.6702 44.5775C33.671 44.6452 33.7267 44.6996 33.7946 44.6996Z" fill="#0A0B0B"/>
<path d="M42.3853 12.3924C42.3274 12.3135 42.2761 12.2307 42.2406 12.1384C41.5696 11.3839 41.1236 10.4202 41.0227 9.34001C40.77 6.6284 42.7755 4.22593 45.5028 3.97443C45.7329 3.95316 45.9594 3.95366 46.1838 3.96355C48.5887 1.89838 50.266 -0.335447 54.4822 0.204153C56.1075 0.412128 57.6179 1.24502 58.5426 2.59056C58.6711 2.77776 58.784 2.97881 58.887 3.18604C58.9698 3.35272 61.1201 3.59235 61.4061 3.67124C63.4156 4.22419 65.986 5.0472 66.9885 7.02606C67.432 7.90124 67.572 8.88771 67.6088 9.87368C69.1241 11.0701 69.7412 13.1867 69.1296 15.1025L67.5498 20.0512C67.2191 19.9686 66.8749 19.9198 66.519 19.9198H64.5045C64.3811 20.1288 64.2578 20.3388 64.1366 20.5519C63.5111 21.6509 63.1063 22.8191 63.1545 24.0972C60.5486 20.474 48.0766 21.4189 45.3086 21.4189C42.5405 21.4189 40.2964 19.1876 40.2964 16.4352C40.2964 14.7687 41.1221 13.2972 42.3853 12.3924Z" fill="#0A0B0B"/>
<path d="M66.5191 19.7962H64.5046C64.4606 19.7962 64.4198 19.8192 64.3974 19.8573C64.2738 20.0667 64.1502 20.2774 64.0284 20.4911C63.3855 21.6215 63.0562 22.6898 63.0283 23.7453C60.3849 20.8432 51.2958 21.1225 46.8576 21.2587C46.1946 21.2792 45.6711 21.2953 45.3087 21.2953C42.6135 21.2953 40.421 19.1149 40.421 16.4352C40.421 14.8802 41.1825 13.4066 42.4581 12.4928C42.485 12.4735 42.5031 12.4443 42.5083 12.4117C42.5136 12.3793 42.5053 12.3459 42.4857 12.3194C42.4253 12.2371 42.3842 12.1656 42.3569 12.0942L42.334 12.0566C41.6523 11.2902 41.2417 10.347 41.1469 9.3284C41.0276 8.04988 41.4163 6.80177 42.2412 5.81357C43.0659 4.82562 44.2286 4.21629 45.5144 4.09759C45.7139 4.07929 45.9248 4.07607 46.1784 4.08695C46.2113 4.08992 46.2409 4.0778 46.2655 4.05703C46.6042 3.76621 46.9308 3.46995 47.2466 3.18333C49.2066 1.40577 50.8983 -0.130184 54.4665 0.326818C56.1179 0.538258 57.5661 1.38871 58.44 2.6603C58.5544 2.82649 58.6641 3.01641 58.7755 3.24071C58.8399 3.37054 59.106 3.44696 60.644 3.67249C60.9745 3.72096 61.2869 3.76671 61.3732 3.79045C63.6886 4.42773 65.9583 5.2673 66.8777 7.08171C67.2481 7.81272 67.4408 8.70126 67.4846 9.87814C67.4861 9.91449 67.503 9.94812 67.5316 9.97038C69.0154 11.1421 69.61 13.1892 69.0114 15.0652L67.4664 19.9043C67.1456 19.8326 66.8273 19.7962 66.5191 19.7962ZM63.1547 24.2208L63.1947 24.2141C63.2467 24.1966 63.281 24.1471 63.279 24.0925C63.2365 22.9678 63.5526 21.8295 64.2452 20.6128C64.3542 20.4211 64.4648 20.2317 64.576 20.0435H66.5191C66.8437 20.0435 67.1799 20.0863 67.5197 20.1711C67.5836 20.1869 67.6485 20.1508 67.6684 20.0885L69.2484 15.1399C69.8721 13.1857 69.2623 11.0528 67.731 9.81261C67.6997 9.05019 67.5958 7.94947 67.0996 6.97043C66.1369 5.07021 63.8102 4.20442 61.4396 3.55206C61.3384 3.52411 61.0479 3.48157 60.6803 3.42766C60.1426 3.34902 59.1525 3.20361 58.9889 3.11186C58.8755 2.88534 58.7631 2.69196 58.6454 2.52058C57.7314 1.19112 56.2201 0.302092 54.4981 0.0815029C50.8182 -0.389101 49.0012 1.25714 47.079 3.00083C46.7758 3.27558 46.4632 3.55947 46.1399 3.83793C45.8969 3.82928 45.6887 3.83323 45.4915 3.85129C44.1396 3.97617 42.9172 4.61691 42.0497 5.65556C41.1825 6.69445 40.7739 8.00709 40.899 9.35139C40.9984 10.4153 41.425 11.401 42.133 12.204C42.1549 12.2569 42.182 12.3091 42.2156 12.3635C40.9338 13.3277 40.1723 14.8409 40.1723 16.4352C40.1723 19.2514 42.4762 21.5426 45.3087 21.5426C45.6751 21.5426 46.2003 21.5263 46.8656 21.506C51.0441 21.3769 60.8293 21.0765 63.0537 24.1691C63.0773 24.2023 63.1154 24.2208 63.1547 24.2208Z" fill="#0A0B0B"/>
<path d="M52.2287 12.8843C52.747 12.6095 53.266 12.3004 53.8472 12.2161C55.282 12.0076 56.5961 13.2055 58.0456 13.1662C59.0879 13.138 60.071 12.3902 60.3715 11.3973C59.5179 15.7697 60.5488 20.474 63.1547 24.0972C63.1064 22.8192 63.5113 21.6509 64.1368 20.5519C64.2579 20.3388 64.3813 20.1288 64.5047 19.9198H66.5192C66.875 19.9198 67.2193 19.9686 67.55 20.0512C69.4016 20.5134 70.7852 22.1826 70.7852 24.1617V24.5757C70.7852 26.9087 68.8657 28.8178 66.5192 28.8178H65.3808L66.5206 42.9792C66.8539 47.1197 63.7484 50.7448 59.5843 51.0762L58.8487 51.1348C54.6846 51.4662 51.0389 48.3782 50.7056 44.2377L50.2764 38.9035C46.5127 38.8415 43.4795 35.7933 43.4795 32.0361V15.4611C43.4795 14.74 43.5974 14.0478 43.8061 13.3954C44.1421 13.598 44.4975 13.7661 44.8658 13.892C47.2767 14.715 49.9792 14.0767 52.2287 12.8843Z" fill="#FFE5E5"/>
<path d="M66.5191 20.0434C66.8436 20.0434 67.1799 20.0862 67.5196 20.1711C69.369 20.6325 70.6607 22.2736 70.6607 24.1617V24.5756C70.6607 26.8466 68.8029 28.6941 66.5191 28.6941H65.3808C65.3459 28.6941 65.3129 28.7085 65.2895 28.7337C65.2659 28.7592 65.2539 28.793 65.2569 28.8277L66.3967 42.9891C66.5551 44.9585 65.9329 46.8716 64.6443 48.3759C63.3556 49.8802 61.5552 50.7952 59.5743 50.9528L58.8386 51.0114C56.8584 51.1701 54.934 50.5504 53.4211 49.2692C51.9085 47.9879 50.9881 46.1975 50.8294 44.2278L50.4001 38.8936C50.3949 38.8303 50.3422 38.7811 50.278 38.7799C46.598 38.7193 43.6038 35.6938 43.6038 32.0361V15.461C43.6038 14.8312 43.6963 14.1993 43.8789 13.5814C44.186 13.7557 44.5039 13.8991 44.8254 14.0089C47.7601 15.0107 50.7602 13.8027 52.287 12.9933L52.4686 12.8961C52.9133 12.6572 53.3734 12.4099 53.8651 12.3382C54.593 12.2331 55.2852 12.5039 56.0183 12.7907C56.6692 13.0455 57.3449 13.3078 58.0487 13.2898C58.8632 13.2678 59.6382 12.8328 60.1135 12.1829C59.5283 16.3367 60.6019 20.7609 63.0536 24.1691C63.0852 24.2134 63.1427 24.2317 63.1947 24.2141C63.2466 24.1965 63.281 24.1471 63.279 24.0924C63.2364 22.9677 63.5525 21.8294 64.2452 20.6127C64.3541 20.4211 64.4648 20.2316 64.576 20.0434H66.5191ZM58.2325 51.2829C58.4404 51.2829 58.6491 51.2747 58.8585 51.2579L59.5942 51.1993C61.6413 51.0366 63.5018 50.0907 64.8336 48.5362C66.1652 46.9817 66.8083 45.0048 66.6444 42.9693L65.5156 28.9414H66.5191C68.9399 28.9414 70.9094 26.9828 70.9094 24.5756V24.1617C70.9094 22.1601 69.5406 20.4203 67.5803 19.9312C67.2207 19.8414 66.8638 19.7962 66.5191 19.7962H64.5046C64.4606 19.7962 64.4198 19.8191 64.3974 19.8572C64.2738 20.0667 64.1502 20.2774 64.0283 20.4911C63.3941 21.6061 63.0653 22.6606 63.0298 23.7022C60.6236 20.1681 59.676 15.6079 60.4937 11.4207C60.5062 11.3562 60.4656 11.2929 60.4012 11.277C60.3363 11.2612 60.2714 11.2988 60.2525 11.3614C59.9657 12.3088 59.0361 13.0158 58.042 13.0425C57.3797 13.0605 56.7368 12.8063 56.1096 12.5608C55.3779 12.2744 54.6221 11.9786 53.8292 12.0936C53.2935 12.1713 52.814 12.4292 52.35 12.6787L52.1701 12.7749C50.6789 13.5658 47.7522 14.7471 44.906 13.775C44.5531 13.6545 44.2047 13.4913 43.8707 13.2895C43.8373 13.27 43.7978 13.2665 43.7622 13.2794C43.7267 13.2928 43.6991 13.3217 43.6874 13.358C43.467 14.0473 43.3551 14.755 43.3551 15.461V32.0361C43.3551 35.7905 46.398 38.902 50.1611 39.0244L50.5817 44.2476C50.7453 46.2831 51.6964 48.1333 53.26 49.4574C54.6631 50.6459 56.4093 51.2829 58.2325 51.2829Z" fill="#0A0B0B"/>
<path d="M64.3681 28.8279L65.7116 32.482L66.5537 28.8148L64.3681 28.8279Z" fill="#0A0B0B"/>
<path d="M66.3978 28.9395L65.6843 32.047L64.546 28.9506L66.3978 28.9395ZM65.7119 32.6057H65.7196C65.7748 32.6019 65.8208 32.5631 65.833 32.5097L66.6751 28.8423C66.6836 28.8055 66.6746 28.7669 66.6507 28.7374C66.6271 28.708 66.5818 28.6932 66.5532 28.6912L64.3676 28.7043C64.3271 28.7046 64.2893 28.7243 64.2662 28.7575C64.243 28.7906 64.2376 28.8327 64.2515 28.8705L65.595 32.5245C65.6131 32.5735 65.6599 32.6057 65.7119 32.6057Z" fill="#0A0B0B"/>
<path d="M67.1121 23.0056L65.5475 24.7367L67.0116 25.6858" fill="#F5E9D7"/>
<path d="M67.0112 25.8094C67.0517 25.8094 67.0915 25.7897 67.1154 25.7533C67.1527 25.6962 67.1365 25.6195 67.0791 25.5822L65.7368 24.7119L67.2044 23.0882C67.2504 23.0375 67.2462 22.9591 67.195 22.9136C67.1442 22.8681 67.0651 22.8718 67.0194 22.923L65.4548 24.6541C65.4304 24.681 65.4192 24.7171 65.4239 24.7527C65.4287 24.7886 65.4488 24.8205 65.4792 24.8403L66.943 25.7894C66.9642 25.803 66.9878 25.8094 67.0112 25.8094Z" fill="#0A0B0B"/>
<path d="M50.3112 26.4759H51.507C51.5756 26.4759 51.6313 26.4205 51.6313 26.3522C51.6313 26.284 51.5756 26.2286 51.507 26.2286H50.3112C49.9173 26.2286 49.5462 26.0565 49.293 25.7565C49.0399 25.4565 48.9337 25.0631 49.0021 24.6773L49.7405 20.5044C49.7524 20.4374 49.7071 20.3734 49.6397 20.3615C49.5741 20.3489 49.5074 20.3944 49.4957 20.4619L48.7571 24.6348C48.676 25.0925 48.8019 25.5594 49.1025 25.9155C49.4032 26.2716 49.8437 26.4759 50.3112 26.4759Z" fill="#0A0B0B"/>
<path d="M46.3992 22.6957C46.3137 23.1653 46.6273 23.6152 47.0993 23.7C47.5718 23.7853 48.024 23.4735 48.1095 23.0038C48.1948 22.5342 47.8815 22.0847 47.4092 21.9996C46.9369 21.9145 46.4845 22.2261 46.3992 22.6957Z" fill="#0A0B0B"/>
<path d="M51.0668 34.3708C51.1059 34.381 51.1482 34.3782 51.1882 34.3607C51.2283 34.3426 52.1853 33.9249 52.8956 34.6725C52.9639 34.7445 53.0781 34.7479 53.1512 34.6797C53.2238 34.6114 53.2273 34.4977 53.1587 34.4255C52.2671 33.4882 51.0499 34.0281 51.0375 34.0335C50.9472 34.0748 50.9074 34.1814 50.949 34.2714C50.9718 34.3223 51.0164 34.3572 51.0668 34.3708Z" fill="#0A0B0B"/>
<path d="M58.0322 19.4977C57.5992 19.5469 57.1177 19.3501 56.6417 19.1863C56.1654 19.0115 55.6835 18.848 55.2592 18.7204C54.8341 18.5921 54.3407 18.4618 53.8473 18.3445C53.3598 18.2174 52.8467 18.1146 52.5197 17.8366C52.2019 17.5732 52.1872 17.0893 52.7838 16.6792C53.3494 16.2757 54.5844 16.0234 55.9916 16.4438C57.3953 16.8707 58.2642 17.757 58.4938 18.3999C58.7433 19.0652 58.4483 19.4556 58.0322 19.4977Z" fill="#0A0B0B"/>
<path d="M44.5831 18.7917C44.9057 18.8525 45.2626 18.7106 45.616 18.5958C45.9691 18.4719 46.3273 18.3577 46.6421 18.2706C46.9575 18.1833 47.3236 18.0973 47.6902 18.0221C48.0523 17.9388 48.433 17.8764 48.675 17.6593C48.9098 17.4546 48.9178 17.0517 48.4713 16.682C48.0478 16.3195 47.1268 16.0526 46.0823 16.3385C45.0402 16.6298 44.3993 17.3289 44.2329 17.8549C44.0509 18.3982 44.2732 18.7375 44.5831 18.7917Z" fill="#0A0B0B"/>
<path d="M53.9644 22.9952C54.0037 23.516 54.4604 23.9062 54.9839 23.8672C55.5079 23.8281 55.9004 23.3741 55.8611 22.8533C55.8213 22.3325 55.3649 21.9422 54.8414 21.9815C54.3179 22.0206 53.9249 22.4747 53.9644 22.9952Z" fill="#0A0B0B"/>
<path d="M55.8936 23.9159C55.8936 23.9159 55.0445 23.3088 54.221 24.0323L55.8936 23.9159Z" fill="#F5E9D7"/>
<path d="M54.2209 24.156C54.2502 24.156 54.2796 24.1459 54.3032 24.1251C55.0394 23.4784 55.7895 23.994 55.821 24.0163C55.877 24.0559 55.9549 24.043 55.9946 23.9876C56.0344 23.932 56.0218 23.855 55.966 23.8155C55.9568 23.8086 55.0254 23.1601 54.1386 23.9399C54.0871 23.9849 54.0821 24.063 54.1276 24.1142C54.1523 24.1419 54.1866 24.156 54.2209 24.156Z" fill="#0A0B0B"/>
<path d="M47.9304 23.8547C47.9304 23.8547 47.1612 23.5102 46.4519 23.8699L47.9304 23.8547Z" fill="#F5E9D7"/>
<path d="M46.4521 23.9935L46.5083 23.9802C47.1569 23.653 47.8727 23.9643 47.8799 23.9676C47.9426 23.995 48.0162 23.9676 48.044 23.9052C48.0721 23.8429 48.044 23.77 47.9814 23.7418C47.9478 23.7269 47.1504 23.379 46.3956 23.7596C46.3344 23.7905 46.3098 23.8649 46.3409 23.9258C46.363 23.9688 46.4068 23.9935 46.4521 23.9935Z" fill="#0A0B0B"/>
<path d="M56.1495 26.6678C55.8202 26.45 55.3825 26.5036 55.0907 26.7692C54.5593 27.2529 53.403 28.1113 51.7464 28.279C51.3398 28.3203 51.1296 28.7906 51.3042 29.1583C51.6882 29.9665 52.7164 31.2126 54.8567 30.2145C57.4641 28.9988 57.0077 27.2354 56.1495 26.6678Z" fill="#FEF7EE"/>
<path d="M56.0804 26.7707C56.3925 26.977 56.7402 27.4379 56.694 28.0584C56.6358 28.8354 55.9648 29.5614 54.8041 30.1025C52.6498 31.107 51.7177 29.7395 51.4167 29.1054C51.3444 28.9531 51.3516 28.7674 51.4351 28.6202C51.507 28.4934 51.6222 28.416 51.759 28.4021C53.4454 28.2312 54.623 27.3627 55.1749 26.8605C55.4328 26.6253 55.8051 26.5884 56.0807 26.7707H56.0804ZM53.3952 30.7059C53.8254 30.7059 54.3276 30.5979 54.9093 30.3266C56.59 29.5429 56.9044 28.5807 56.9419 28.0767C56.9867 27.4785 56.7024 26.885 56.2185 26.5647H56.2182C55.8479 26.3196 55.3492 26.3661 55.0068 26.678C54.4778 27.1599 53.3489 27.9923 51.7338 28.1561C51.5175 28.1781 51.3297 28.303 51.2185 28.4988C51.0942 28.7177 51.0842 28.984 51.1919 29.211C51.3894 29.6267 52.035 30.7059 53.3952 30.7059Z" fill="#0A0B0B"/>
<path d="M50.3205 38.9428C50.3205 38.9428 58.0935 39.4416 60.012 36.3109C60.012 36.3109 58.2842 41.4737 50.6689 43.269L50.3205 38.9428Z" fill="#0A0B0B"/>
<path d="M59.484 37.1292C58.629 38.6491 56.2598 41.7798 50.7814 43.115L50.4558 39.0744C51.4574 39.1236 57.0853 39.2972 59.484 37.1292ZM50.669 43.3927L50.6976 43.3892C58.2925 41.5988 60.1125 36.4021 60.1301 36.35C60.15 36.2901 60.1217 36.2251 60.0642 36.1986C60.0078 36.1729 59.9386 36.1927 59.9058 36.2466C58.0485 39.2777 50.4056 38.8251 50.3285 38.8195C50.2924 38.8177 50.2574 38.8306 50.232 38.8563C50.2066 38.8818 50.1937 38.9169 50.1967 38.953L50.5451 43.2789C50.5479 43.3148 50.5665 43.3477 50.5959 43.369C50.6173 43.3845 50.6429 43.3927 50.669 43.3927Z" fill="#0A0B0B"/>
<path d="M94.0356 92.3927L93.3441 74.5849L74.5427 75.1856C74.5494 75.2937 72.753 61.9577 72.7612 62.0655L74.5427 75.1856L77.0456 75.1089L77.2966 81.0337C77.2966 81.0337 60.2514 72.3664 58.7925 70.6188C58.7925 70.6188 53.8593 65.727 51.8898 64.3995C51.6784 64.2573 51.4595 64.1166 51.2126 64.0531C50.9654 63.989 50.6823 64.013 50.4854 64.1745C50.2295 64.3844 50.1864 64.7559 50.2011 65.0855C50.2464 66.1098 50.6542 67.0706 51.0611 68.0194C50.9412 67.9809 38.4834 63.8772 37.7978 63.7054C36.6177 63.4096 36.6744 65.0296 37.5105 65.9085C38.578 67.0308 43.5391 69.6286 43.8089 69.6914C42.6112 69.6472 41.4661 69.4063 41.1794 71.3458C40.9819 72.6842 42.173 73.0561 43.3819 73.1949C42.6191 73.2228 41.9648 73.476 41.8944 74.3774C41.594 75.901 42.8673 76.519 44.137 76.6751C44.175 76.6798 44.1812 76.7297 44.1454 76.7436C43.1039 77.1496 43.8243 79.0536 45.3576 79.607L53.9267 83.2C54.8061 83.5947 77.7497 100.949 77.7497 100.949C80.4073 102.799 83.4925 103.212 86.2648 102.509C90.8666 101.342 94.0172 97.1154 94.0356 92.3927Z" fill="#FFF0F0"/>
<path d="M93.9115 92.3949C93.8918 97.1381 90.7351 101.247 86.2341 102.389C83.3049 103.132 80.3167 102.585 77.8212 100.848C76.8881 100.142 54.8602 83.4831 53.9781 83.0872L45.4063 79.493C44.4107 79.1334 43.7887 78.1927 43.7802 77.5263C43.7775 77.2958 43.8461 76.9931 44.1911 76.8588C44.2597 76.8316 44.3013 76.7626 44.2923 76.6904C44.2834 76.6184 44.2259 76.5618 44.1528 76.5522C43.257 76.4421 42.5778 76.1263 42.24 75.6629C41.9936 75.3246 41.9182 74.9002 42.0167 74.4012C42.0729 73.69 42.5076 73.3504 43.3865 73.3185C43.4514 73.3163 43.5037 73.2646 43.5064 73.1998C43.5089 73.1353 43.4609 73.0796 43.3962 73.072C42.4096 72.9587 41.8093 72.7235 41.5066 72.3321C41.3106 72.0786 41.244 71.7615 41.3027 71.3636C41.5484 69.7011 42.4071 69.7441 43.4982 69.801C43.5994 69.8059 43.7016 69.8114 43.8044 69.8151C43.8723 69.8133 43.9237 69.7711 43.9322 69.708C43.9409 69.6449 43.8996 69.5858 43.8374 69.571C43.5116 69.4832 38.6366 66.9121 37.6012 65.8237C37.0541 65.2487 36.8956 64.3936 37.1197 64.0133C37.2393 63.8107 37.4577 63.7479 37.7676 63.8253C38.0409 63.8938 40.4715 64.6676 50.4965 67.9641C50.8198 68.0704 51.0088 68.1325 51.023 68.1369C51.069 68.152 51.12 68.1384 51.153 68.1028C51.1859 68.0669 51.1948 68.0155 51.1757 67.9707C50.7797 67.0476 50.3701 66.0928 50.3254 65.0801C50.3079 64.6817 50.386 64.4164 50.5649 64.27C50.7136 64.1475 50.9446 64.1119 51.1814 64.1725C51.4057 64.2304 51.6116 64.3615 51.8203 64.5019C53.7575 65.8076 58.6557 70.6576 58.7047 70.7066C60.1553 72.4448 76.5431 80.7891 77.2403 81.1437C77.2793 81.1632 77.3263 81.1615 77.3639 81.1375C77.4012 81.114 77.4228 81.0722 77.4211 81.0282L77.1753 75.2252L93.2246 74.7125L93.9115 92.3949ZM83.6722 102.96C84.5427 102.96 85.4213 102.85 86.2958 102.629C90.9071 101.459 94.1413 97.2501 94.1602 92.3932V92.388L93.4686 74.5802C93.4658 74.5125 93.4143 74.4618 93.3403 74.4613L74.651 75.0582L72.9551 62.5572C72.9365 62.4209 72.9218 62.3143 72.9091 62.2307L72.8845 62.049L72.8765 62.0502C72.8474 61.9318 72.8178 61.9355 72.7482 61.9419C72.6813 61.9491 72.632 62.0084 72.6373 62.0752L73.3597 67.3965C73.3928 67.6406 73.4261 67.8857 73.459 68.13L74.3332 74.5822C74.3575 74.7598 74.3759 74.8948 74.3916 74.9972L74.4197 75.2022C74.4232 75.2301 74.4361 75.2544 74.4548 75.2731C74.4787 75.3169 74.5073 75.3142 74.555 75.3093L74.5592 75.3088L76.9269 75.2361L77.1634 80.8267C75.2887 79.8691 60.2322 72.1495 58.8882 70.5399C58.831 70.4825 53.9161 65.616 51.9596 64.2972C51.7323 64.1441 51.5065 64.0011 51.2441 63.9331C50.93 63.8525 50.6173 63.9067 50.4064 64.079C50.1634 64.2786 50.0558 64.6097 50.0769 65.091C50.1197 66.0547 50.4711 66.9506 50.8392 67.8162C50.7653 67.7919 50.6768 67.763 50.5746 67.7294C40.5426 64.4304 38.1058 63.6549 37.8283 63.5854C37.2652 63.443 37.0078 63.7143 36.9051 63.8886C36.5969 64.4119 36.8327 65.3759 37.4204 65.9936C38.2881 66.9059 41.7588 68.8256 43.1838 69.5391C42.2236 69.5072 41.3069 69.6343 41.0564 71.328C40.9885 71.789 41.0736 72.1775 41.3094 72.4827C41.6113 72.8734 42.1254 73.0796 42.6317 73.1964C42.1007 73.3813 41.8175 73.7691 41.7707 74.3678C41.6605 74.9227 41.7498 75.4119 42.0386 75.8081C42.4653 76.3934 43.2241 76.6496 43.865 76.7599C43.6442 76.9313 43.5273 77.1966 43.5315 77.5295C43.5412 78.2946 44.2112 79.3246 45.3152 79.7232L53.8786 83.314C54.5613 83.6204 69.7429 95.0479 77.6747 101.047C79.4888 102.311 81.5545 102.96 83.6722 102.96Z" fill="#0A0B0B"/>
<path d="M77.2621 77.9756L84.6536 84.9036L77.2967 81.1632L77.2621 77.9756Z" fill="#0A0B0B"/>
<path d="M51.1689 68.1767L55.804 70.3257C55.804 70.3257 51.4581 66.8953 50.5842 66.6208L51.1689 68.1767Z" fill="#0A0B0B"/>
<path d="M46.3923 70.4838C46.3923 70.4838 43.574 69.5552 43.0851 69.5339L46.3923 70.4838Z" fill="#F5E9D7"/>
<path d="M46.3924 70.6074C46.4446 70.6074 46.4933 70.5748 46.5105 70.5228C46.5321 70.4581 46.4966 70.3881 46.4317 70.3666C46.316 70.3285 43.5912 69.4323 43.0906 69.4103C43.0242 69.407 42.9642 69.4605 42.9608 69.5285C42.958 69.5967 43.0113 69.6543 43.0799 69.6576C43.4669 69.6741 45.5739 70.3443 46.3533 70.6012L46.3924 70.6074Z" fill="#0A0B0B"/>
<path d="M43.13 73.1565L45.7476 73.9689L43.13 73.1565Z" fill="#F5E9D7"/>
<path d="M45.7473 74.0925C45.8 74.0925 45.8493 74.0586 45.8659 74.006C45.8863 73.9407 45.8498 73.8714 45.7844 73.8509L43.167 73.0386C43.1001 73.018 43.0317 73.0546 43.0111 73.1197C42.9907 73.1847 43.0272 73.2542 43.0926 73.2747L45.71 74.0871L45.7473 74.0925Z" fill="#0A0B0B"/>
<path d="M44.3158 76.6941L45.7354 77.1004L44.3158 76.6941Z" fill="#F5E9D7"/>
<path d="M45.7354 77.2241C45.7896 77.2241 45.8391 77.1889 45.8548 77.1348C45.8737 77.069 45.8356 77.0005 45.7697 76.9817L44.3501 76.5752C44.2832 76.5556 44.2153 76.5942 44.1962 76.6597C44.1773 76.7255 44.2153 76.794 44.2812 76.8128L45.7008 77.2194L45.7354 77.2241Z" fill="#0A0B0B"/>
</svg>
