<svg width="27" height="27" viewBox="0 0 27 27" fill="none" xmlns="http://www.w3.org/2000/svg">
<rect x="0.5" y="3.5" width="23" height="21" rx="1.5" stroke="black"/>
<path d="M2 3.5H22C22.8284 3.5 23.5 4.17157 23.5 5V23C23.5 23.8284 22.8284 24.5 22 24.5H2C1.17157 24.5 0.5 23.8284 0.5 23V5C0.5 4.17157 1.17157 3.5 2 3.5Z" stroke="black"/>
<rect y="6" width="24" height="1" fill="black"/>
<path d="M1 7H23V23C23 23.5523 22.5523 24 22 24H2C1.44772 24 1 23.5523 1 23V7Z" fill="white"/>
<mask id="path-5-inside-1_2005_2430" fill="white">
<rect x="3" y="17" width="4" height="4" rx="0.5"/>
</mask>
<rect x="3" y="17" width="4" height="4" rx="0.5" fill="#146CA3" stroke="black" stroke-width="1.4" mask="url(#path-5-inside-1_2005_2430)"/>
<mask id="path-6-inside-2_2005_2430" fill="white">
<rect x="10" y="17" width="4" height="4" rx="0.5"/>
</mask>
<rect x="10" y="17" width="4" height="4" rx="0.5" fill="#146CA3" stroke="black" stroke-width="1.4" mask="url(#path-6-inside-2_2005_2430)"/>
<mask id="path-7-inside-3_2005_2430" fill="white">
<rect x="3" y="10" width="4" height="4" rx="0.5"/>
</mask>
<rect x="3" y="10" width="4" height="4" rx="0.5" fill="#146CA3" stroke="black" stroke-width="1.4" mask="url(#path-7-inside-3_2005_2430)"/>
<mask id="path-8-inside-4_2005_2430" fill="white">
<rect x="10" y="10" width="4" height="4" rx="0.5"/>
</mask>
<rect x="10" y="10" width="4" height="4" rx="0.5" fill="#146CA3" stroke="black" stroke-width="1.4" mask="url(#path-8-inside-4_2005_2430)"/>
<mask id="path-9-inside-5_2005_2430" fill="white">
<rect x="17" y="10" width="4" height="4" rx="0.5"/>
</mask>
<rect x="17" y="10" width="4" height="4" rx="0.5" fill="#146CA3" stroke="black" stroke-width="1.4" mask="url(#path-9-inside-5_2005_2430)"/>
<mask id="path-10-inside-6_2005_2430" fill="white">
<rect x="17" y="17" width="4" height="4" rx="0.5"/>
</mask>
<rect x="17" y="17" width="4" height="4" rx="0.5" fill="#146CA3" stroke="black" stroke-width="1.4" mask="url(#path-10-inside-6_2005_2430)"/>
<path d="M2 3H22C22.8284 3 23.5 3.67157 23.5 4.5V6.5H0.5V4.5C0.5 3.67157 1.17157 3 2 3Z" fill="#FF5D5D" stroke="black"/>
<path d="M5 2.5V2.5C5 1.86399 4.75994 1.13953 4.13635 1.01445C4.09008 1.00517 4.04438 1 4 1V1C3.2766 1 3 1.914 3 2.63739V3.33221C3 4.08327 3.28748 5.23751 4 5V5C4.26197 4.91268 4.5 4.5 4.5 4.5" stroke="black" stroke-linecap="round"/>
<path d="M10.5 2.5V2.5C10.5 1.86399 10.2599 1.13953 9.63635 1.01445C9.59008 1.00517 9.54438 1 9.5 1V1C8.7766 1 8.5 1.914 8.5 2.63739V3.33221C8.5 4.08327 8.78748 5.23751 9.5 5V5C9.76197 4.91268 10 4.5 10 4.5" stroke="black" stroke-linecap="round"/>
<path d="M16 2.5V2.5C16 1.86399 15.7599 1.13953 15.1364 1.01445C15.0901 1.00517 15.0444 1 15 1V1C14.2766 1 14 1.914 14 2.63739V3.33221C14 4.08327 14.2875 5.23751 15 5V5C15.262 4.91268 15.5 4.5 15.5 4.5" stroke="black" stroke-linecap="round"/>
<path d="M21.5 2.5V2.5C21.5 1.86399 21.2599 1.13953 20.6364 1.01445C20.5901 1.00517 20.5444 1 20.5 1V1C19.7766 1 19.5 1.914 19.5 2.63739V3.33221C19.5 4.08327 19.7875 5.23751 20.5 5V5C20.762 4.91268 21 4.5 21 4.5" stroke="black" stroke-linecap="round"/>
<circle cx="22" cy="22" r="4.5" fill="white" stroke="black"/>
<circle cx="22" cy="22" r="2.65" fill="#146CA3" stroke="black" stroke-width="0.7"/>
</svg>
