<?xml version="1.0" encoding="iso-8859-1"?>
<!-- Generator: Adobe Illustrator 19.0.0, SVG Export Plug-In . SVG Version: 6.00 Build 0)  -->
<svg version="1.1" id="Capa_1" xmlns="http://www.w3.org/2000/svg" xmlns:xlink="http://www.w3.org/1999/xlink" x="0px" y="0px"
	 viewBox="0 0 512.12 512.12" style="enable-background:new 0 0 512.12 512.12;" xml:space="preserve">
<g>
	<path style="fill:#455A64;" d="M213.357,512.12h-192c-5.891,0.002-10.668-4.772-10.67-10.663c0-1.423,0.284-2.831,0.836-4.142
		l85.333-202.667c2.292-5.432,8.552-7.977,13.984-5.685c5.432,2.292,7.977,8.552,5.685,13.984l0,0l-79.104,187.84h161.152
		l-38.016-113.963c-1.862-5.591,1.161-11.632,6.752-13.493c5.591-1.862,11.632,1.161,13.493,6.752l42.667,128
		c1.862,5.589-1.16,11.629-6.749,13.491C215.635,511.935,214.5,512.119,213.357,512.12z"/>
	<path style="fill:#455A64;" d="M213.357,512.12c-1.36-0.001-2.706-0.261-3.968-0.768l-160-64
		c-5.467-2.194-8.121-8.405-5.927-13.872c1.164-2.9,3.541-5.144,6.503-6.139l128-42.667c5.591-1.862,11.632,1.161,13.493,6.752
		c1.862,5.591-1.161,11.632-6.752,13.493L84.354,438.371l132.949,53.184c5.467,2.195,8.119,8.406,5.925,13.873
		C221.609,509.461,217.704,512.109,213.357,512.12z"/>
</g>
<ellipse transform="matrix(-0.7071 -0.7071 0.7071 -0.7071 340.7538 568.0567)" style="fill:#ECEFF1;" cx="288.025" cy="213.456" rx="248.705" ry="142.358"/>
<g>
	<path style="fill:#90A4AE;" d="M390.999,426.787c-17.793-0.182-35.483-2.721-52.608-7.552
		c-60.308-18.519-114.893-52.119-158.592-97.621c-45.485-43.683-79.077-98.245-97.6-158.528
		C66.946,107,74.925,59.853,104.557,29.987S181.549-7.645,237.655,7.629c60.308,18.519,114.893,52.119,158.592,97.621
		c45.502,43.699,79.102,98.284,97.621,158.592c15.253,56.085,7.275,103.317-22.443,133.013
		C449.768,417.298,420.753,428.096,390.999,426.787z M185.111,21.453c-24.102-1.238-47.684,7.3-65.408,23.68
		c-24.064,24.064-30.08,64-16.939,112.341c17.536,56.721,49.239,108.035,92.117,149.099c41.063,42.878,92.378,74.582,149.099,92.117
		c48.405,13.099,88.256,7.147,112.341-16.939c24.085-24.085,30.08-64,16.939-112.341c-17.536-56.721-49.239-108.035-92.117-149.099
		C340.08,77.434,288.765,45.73,232.045,28.195C216.764,23.897,200.984,21.63,185.111,21.453z"/>
	<path style="fill:#90A4AE;" d="M397.207,405.155c-60.629,2.816-138.667-34.837-202.304-98.581S93.399,165.325,96.322,104.291
		c0.3-5.883-4.227-10.896-10.11-11.196c-4.899-0.25-9.336,2.874-10.754,7.569c-28.511,92.008-3.115,192.234,65.771,259.563
		c48.24,49.184,114.17,76.997,183.061,77.227c25.919-0.04,51.691-3.907,76.48-11.477c5.15-1.558,8.333-6.708,7.424-12.011
		c-0.551-5.427-5.398-9.38-10.825-8.828C397.315,405.143,397.261,405.148,397.207,405.155z"/>
</g>
<path style="fill:#2196F3;" d="M224.023,288.12c-5.891,0.011-10.675-4.757-10.686-10.648c-0.005-2.84,1.123-5.565,3.134-7.571
	l224-224c4.093-4.237,10.845-4.354,15.083-0.262c4.237,4.093,4.354,10.845,0.262,15.083c-0.086,0.089-0.173,0.176-0.262,0.262
	l-224,224C229.559,286.986,226.85,288.114,224.023,288.12z"/>
<circle style="fill:#1976D2;" cx="469.357" cy="32.12" r="32"/>
<g>
</g>
<g>
</g>
<g>
</g>
<g>
</g>
<g>
</g>
<g>
</g>
<g>
</g>
<g>
</g>
<g>
</g>
<g>
</g>
<g>
</g>
<g>
</g>
<g>
</g>
<g>
</g>
<g>
</g>
</svg>
