<?xml version="1.0"?>
<svg xmlns="http://www.w3.org/2000/svg" xmlns:xlink="http://www.w3.org/1999/xlink" xmlns:svgjs="http://svgjs.com/svgjs" version="1.1" width="512" height="512" x="0" y="0" viewBox="0 0 512 512" style="enable-background:new 0 0 512 512" xml:space="preserve" class=""><g>
<g xmlns="http://www.w3.org/2000/svg">
	<g>
		<g>
			<path d="M492,352c11.046,0,20-8.954,20-20V120c0-44.112-35.888-80-80-80h-26V20c0-11.046-8.954-20-20-20     c-11.046,0-20,8.954-20,20v20h-91V20c0-11.046-8.954-20-20-20c-11.046,0-20,8.954-20,20v20h-90V20c0-11.046-8.954-20-20-20     s-20,8.954-20,20v20H80C35.888,40,0,75.888,0,120v312c0,44.112,35.888,80,80,80h352c44.112,0,80-35.888,80-80     c0-11.046-8.954-20-20-20c-11.046,0-20,8.954-20,20c0,22.056-17.944,40-40,40H80c-22.056,0-40-17.944-40-40V120     c0-22.056,17.944-40,40-40h25v20c0,11.046,8.954,20,20,20s20-8.954,20-20V80h90v20c0,11.046,8.954,20,20,20s20-8.954,20-20V80h91     v20c0,11.046,8.954,20,20,20c11.046,0,20-8.954,20-20V80h26c22.056,0,40,17.944,40,40v212C472,343.046,480.954,352,492,352z" fill="#ce1b1b" data-original="#000000" style="" class=""/>
			<path d="M176.858,375.142C180.763,379.047,185.881,381,191,381s10.237-1.953,14.142-5.858L256,324.284l50.858,50.858     C310.763,379.047,315.881,381,321,381c5.119,0,10.237-1.953,14.142-5.858c7.811-7.81,7.811-20.473,0-28.284L284.284,296     l50.858-50.858c7.811-7.81,7.81-20.473,0-28.284c-7.81-7.811-20.473-7.811-28.284,0L256,267.716l-50.858-50.858     c-7.81-7.811-20.473-7.81-28.284,0c-7.811,7.81-7.811,20.473,0,28.284L227.716,296l-50.858,50.858     C169.047,354.668,169.047,367.331,176.858,375.142z" fill="#ce1b1b" data-original="#000000" style="" class=""/>
		</g>
	</g>
</g>
<g xmlns="http://www.w3.org/2000/svg">
</g>
<g xmlns="http://www.w3.org/2000/svg">
</g>
<g xmlns="http://www.w3.org/2000/svg">
</g>
<g xmlns="http://www.w3.org/2000/svg">
</g>
<g xmlns="http://www.w3.org/2000/svg">
</g>
<g xmlns="http://www.w3.org/2000/svg">
</g>
<g xmlns="http://www.w3.org/2000/svg">
</g>
<g xmlns="http://www.w3.org/2000/svg">
</g>
<g xmlns="http://www.w3.org/2000/svg">
</g>
<g xmlns="http://www.w3.org/2000/svg">
</g>
<g xmlns="http://www.w3.org/2000/svg">
</g>
<g xmlns="http://www.w3.org/2000/svg">
</g>
<g xmlns="http://www.w3.org/2000/svg">
</g>
<g xmlns="http://www.w3.org/2000/svg">
</g>
<g xmlns="http://www.w3.org/2000/svg">
</g>
</g></svg>
