<svg width="96" height="64" viewBox="0 0 96 64" fill="none" xmlns="http://www.w3.org/2000/svg">
<g clip-path="url(#clip0_5_182)">
<path d="M70.6856 0.0399323H0.0301514V45.1547H70.6856V0.0399323Z" fill="#E6E6E6"/>
<path d="M68.6652 5.69846H2.05054V22.8966H68.6652V5.69846Z" fill="white"/>
<path d="M32.7078 8.18263H18.6203V8.98888H32.7078V8.18263Z" fill="#E6E6E6"/>
<path d="M40.3745 11.1236H18.6203V11.9298H40.3745V11.1236Z" fill="#146BA2"/>
<path d="M36.3495 13.8944H18.6203V14.7006H36.3495V13.8944Z" fill="#E6E6E6"/>
<path d="M28.9703 16.6547H18.6203V17.461H28.9703V16.6547Z" fill="#E6E6E6"/>
<path d="M34.2412 19.4151H18.6203V20.2213H34.2412V19.4151Z" fill="#E6E6E6"/>
<path d="M13.9245 7.896H12.1995V9.61581H13.9245V7.896Z" fill="#E6E6E6"/>
<path d="M13.9245 10.6668H12.1995V12.3866H13.9245V10.6668Z" fill="#146BA2"/>
<path d="M13.9245 13.4376H12.1995V15.1574H13.9245V13.4376Z" fill="#E6E6E6"/>
<path d="M13.9245 16.2084H12.1995V17.9282H13.9245V16.2084Z" fill="#E6E6E6"/>
<path d="M13.9245 18.9792H12.1995V20.699H13.9245V18.9792Z" fill="#E6E6E6"/>
<path d="M59.3495 11.8134H53.5995V17.5461H59.3495V11.8134Z" fill="#E6E6E6"/>
<path d="M68.6652 25.2852H2.05054V42.4834H68.6652V25.2852Z" fill="white"/>
<path d="M16.8953 26.8137H15.1703V28.5335H16.8953V26.8137Z" fill="#E6E6E6"/>
<path d="M13.9245 26.8137H12.1995V28.5335H13.9245V26.8137Z" fill="#146BA2"/>
<path d="M41.4471 30.5746C40.9214 29.6872 40.1919 28.9368 39.3186 28.3852C38.4453 27.8337 37.4532 27.4966 36.4237 27.4018C35.3943 27.307 34.3571 27.4571 33.3972 27.8399C32.4373 28.2226 31.5823 28.827 30.9024 29.6034L30.482 29.2372C31.2199 28.3943 32.1479 27.7381 33.1898 27.3225C34.2317 26.907 35.3576 26.7439 36.475 26.8468C37.5924 26.9497 38.6694 27.3156 39.6173 27.9144C40.5652 28.5131 41.357 29.3277 41.9275 30.2911L41.4471 30.5746Z" fill="#E6E6E6"/>
<path d="M41.7102 37.8252L41.2469 37.5147C41.9331 36.4943 42.316 35.3014 42.3514 34.0734C42.3868 32.8455 42.0734 31.6326 41.4471 30.5746L41.9275 30.2911C42.6075 31.4396 42.9479 32.7563 42.9095 34.0894C42.871 35.4225 42.4553 36.7176 41.7102 37.8252Z" fill="#146BA2"/>
<path d="M30.5402 38.6006C29.3862 37.3158 28.7433 35.6545 28.7326 33.9299C28.7219 32.2052 29.3441 30.5362 30.482 29.2372L30.9024 29.6034C29.8542 30.8001 29.281 32.3377 29.2909 33.9265C29.3007 35.5153 29.893 37.0456 30.956 38.2293L30.5402 38.6006Z" fill="#146BA2"/>
<path d="M35.8224 40.9549C34.8255 40.9541 33.84 40.7441 32.9299 40.3385C32.0198 39.9329 31.2055 39.3407 30.5402 38.6006L30.956 38.2293C31.6197 38.9686 32.4442 39.547 33.3663 39.9202C34.2885 40.2933 35.284 40.4515 36.2768 40.3826C37.2697 40.3136 38.2336 40.0194 39.0949 39.5223C39.9563 39.0253 40.6924 38.3386 41.2469 37.5146L41.7102 37.8252C41.0621 38.7888 40.1859 39.5784 39.159 40.1243C38.1321 40.6701 36.9861 40.9554 35.8224 40.9549Z" fill="#146BA2"/>
<path d="M59.3495 30.5402H53.5995V36.2729H59.3495V30.5402Z" fill="#E6E6E6"/>
<path d="M17.7099 34.2665H11.9599V39.9992H17.7099V34.2665Z" fill="#E6E6E6"/>
<path d="M70.6554 0H0V2.99267H70.6554V0Z" fill="#146BA2"/>
<path d="M2.2306 2.08468C2.53786 2.08468 2.78694 1.83635 2.78694 1.53001C2.78694 1.22368 2.53786 0.975342 2.2306 0.975342C1.92334 0.975342 1.67426 1.22368 1.67426 1.53001C1.67426 1.83635 1.92334 2.08468 2.2306 2.08468Z" fill="white"/>
<path d="M4.34235 2.08468C4.64961 2.08468 4.8987 1.83635 4.8987 1.53001C4.8987 1.22368 4.64961 0.975342 4.34235 0.975342C4.03509 0.975342 3.78601 1.22368 3.78601 1.53001C3.78601 1.83635 4.03509 2.08468 4.34235 2.08468Z" fill="white"/>
<path d="M6.45411 2.08468C6.76137 2.08468 7.01045 1.83635 7.01045 1.53001C7.01045 1.22368 6.76137 0.975342 6.45411 0.975342C6.14685 0.975342 5.89777 1.22368 5.89777 1.53001C5.89777 1.83635 6.14685 2.08468 6.45411 2.08468Z" fill="white"/>
<path d="M82.0628 56.0485H83.4931L84.1737 50.5479L82.0625 50.548L82.0628 56.0485Z" fill="#FFB8B8"/>
<path d="M81.6978 55.5831L84.5147 55.583H84.5148C84.9909 55.583 85.4475 55.7716 85.7842 56.1072C86.1208 56.4429 86.31 56.8981 86.31 57.3728V57.4309L81.6978 57.4311L81.6978 55.5831Z" fill="#2F2E41"/>
<path d="M78.5005 50.6482L79.556 51.6107L83.7818 48.0095L82.2239 46.5891L78.5005 50.6482Z" fill="#FFB8B8"/>
<path d="M78.5463 50.0593L80.625 51.9547L80.6251 51.9548C80.9764 52.2751 81.1857 52.7215 81.2069 53.1957C81.2281 53.6699 81.0596 54.1331 80.7383 54.4834L80.6989 54.5263L77.2954 51.423L78.5463 50.0593Z" fill="#2F2E41"/>
<path d="M84.311 36.7321L83.9056 44.8158L84.9191 53.6069L81.8785 54.0111L79.9529 42.896L79.3447 35.3174L84.311 36.7321Z" fill="#2F2E41"/>
<path d="M89.0745 33.8016C89.0745 33.8016 90.2907 41.7843 87.7569 44.4115C85.2231 47.0388 81.7772 51.6869 81.7772 51.6869L79.3447 48.6555L85.5272 42.0875L84.311 37.6414L79.3447 35.3173L80.1555 29.7597L87.4529 29.6587L89.0745 33.8016Z" fill="#2F2E41"/>
<path d="M83.4934 15.3101C84.8643 15.3101 85.9756 14.2021 85.9756 12.8353C85.9756 11.4686 84.8643 10.3606 83.4934 10.3606C82.1225 10.3606 81.0112 11.4686 81.0112 12.8353C81.0112 14.2021 82.1225 15.3101 83.4934 15.3101Z" fill="#FFB8B8"/>
<path d="M85.5524 16.3525L85.9326 16.9268L86.9461 19.7562L86.1353 30.7702L81.3717 30.8713L80.7637 18.2404L82.0375 16.6529L85.5524 16.3525Z" fill="#CCCCCC"/>
<path d="M78.8382 18.5434L78.0274 18.4424C78.0274 18.4424 77.8247 18.5434 77.7233 19.2508C77.622 19.9581 76.4058 26.223 76.4058 26.223L78.0274 33.9026L79.8517 31.4774L78.7369 27.2335L79.8517 22.9895L78.8382 18.5434Z" fill="#2F2E41"/>
<path d="M89.1757 18.4426H89.7838L91.3041 26.6273L89.8852 32.9934L88.4662 30.6692L88.8716 28.1431L88.669 25.9201L87.9595 24.6064L89.1757 18.4426Z" fill="#2F2E41"/>
<path d="M84.9603 12.8354L84.509 12.7229C84.509 12.7229 84.1706 10.8106 83.3808 11.0355C82.591 11.2605 80.5601 11.4855 80.5601 10.5856C80.5601 9.68567 82.4781 8.89826 83.6064 9.01075C84.7347 9.12323 86.1757 9.49641 86.5399 11.148C87.1239 13.7956 85.3351 14.4644 85.3351 14.4644L85.3649 14.368C85.4476 14.1003 85.4535 13.8149 85.382 13.5441C85.3105 13.2733 85.1644 13.0278 84.9603 12.8354Z" fill="#2F2E41"/>
<path d="M78.1284 18.4425L81.3717 17.1289L82.1318 16.5732L84.4122 26.6273L85.9325 22.0802L85.4764 16.27L89.6825 18.4425L88.2636 25.3137L88.0609 27.9409L88.669 30.0629C88.669 30.0629 90.7974 31.5786 90.0879 33.1954C89.3785 34.8121 88.5676 34.9132 88.5676 34.9132C88.5676 34.9132 85.1217 31.6797 84.919 30.8713C84.7163 30.0629 84.4122 28.6483 84.4122 28.6483C84.4122 28.6483 82.6892 35.1153 80.6622 35.0142C78.6352 34.9132 78.6352 32.7912 78.6352 32.7912L79.1419 30.5682L79.9528 28.2441L79.5474 24.4043L78.1284 18.4425Z" fill="#2F2E41"/>
<path d="M95.8996 57.6026H68.9862C68.9595 57.6026 68.934 57.592 68.9152 57.5733C68.8963 57.5545 68.8857 57.529 68.8857 57.5025C68.8857 57.4759 68.8963 57.4504 68.9152 57.4317C68.934 57.4129 68.9595 57.4023 68.9862 57.4023H95.8996C95.9263 57.4023 95.9518 57.4129 95.9706 57.4317C95.9895 57.4504 96.0001 57.4759 96.0001 57.5025C96.0001 57.529 95.9895 57.5545 95.9706 57.5733C95.9518 57.592 95.9263 57.6026 95.8996 57.6026Z" fill="#CCCCCC"/>
</g>
<defs>
<clipPath id="clip0_5_182">
<rect width="96" height="64" fill="white"/>
</clipPath>
</defs>
</svg>
