<svg width="212" height="214" viewBox="0 0 212 214" fill="none" xmlns="http://www.w3.org/2000/svg">
<path d="M205.482 173.121C205.482 175.816 163.849 178 112.492 178C61.134 178 19.5009 175.816 19.5009 173.121C19.5009 170.426 61.134 168.242 112.492 168.242C163.849 168.242 205.482 170.426 205.482 173.121Z" fill="#EFF4FF"/>
<path d="M94.5885 44.3609C87.6245 19.0981 56.2421 10.9595 38.257 29.8399C37.9987 30.1114 37.7409 30.3871 37.4831 30.6669C11.6989 58.6955 23.8795 127.765 77.69 145.272C131.501 162.778 187.471 130.81 190.616 102.233C193.76 73.6552 168.935 64.6759 130.408 72.667C108.641 77.1816 98.9236 60.0876 94.5885 44.3609Z" fill="#EFF4FF"/>
<path d="M156.224 142.472C149.88 146.072 150.225 152.746 157.009 155.059C159.251 155.823 162.144 156.077 165.865 155.36C180.039 152.628 184.936 144.095 176.746 138.418C171.691 134.915 162.511 138.904 156.224 142.472Z" fill="#C2D3F9"/>
<path d="M177.795 130.356C175.752 133.24 177.34 136.667 180.851 136.797C182.012 136.84 183.35 136.513 184.849 135.549C190.557 131.876 190.897 126.648 186.039 124.986C183.039 123.96 179.82 127.497 177.795 130.356Z" fill="#C2D3F9"/>
<path d="M125.428 19.3727C124.195 20.2011 122.519 19.8718 121.69 18.6391C120.862 17.4059 121.191 15.7295 122.424 14.9011C123.657 14.0732 125.334 14.402 126.162 15.6347C126.99 16.8679 126.661 18.5443 125.428 19.3727ZM132.67 20.5275L133.236 17.644L130.534 17.1138C130.533 16.4036 130.411 15.6919 130.177 15.0032L132.403 13.5077L130.764 11.0679L128.633 12.4998C127.999 11.8555 127.254 11.3601 126.446 11.0281L126.977 8.32589L124.093 7.76036L123.547 10.5454C122.955 10.5784 122.366 10.691 121.792 10.887L120.296 8.66018L117.857 10.299L119.289 12.4297C118.645 13.064 118.149 13.8099 117.817 14.6167L115.455 14.1534L114.889 17.0364L117.334 17.5163C117.376 18.2709 117.545 19.0233 117.853 19.7413L115.722 21.1728L117.361 23.6121L119.588 22.1165C120.226 22.6734 120.956 23.091 121.736 23.3648L121.202 26.083L124.086 26.6485L124.664 23.7018C125.298 23.6318 125.926 23.4692 126.531 23.2091L127.962 25.3407L130.401 23.7018L128.906 21.4759C129.304 21.0184 129.631 20.5156 129.885 19.9803L132.67 20.5275Z" fill="#C2D3F9"/>
<path d="M108.262 6.34581C107.587 6.79824 106.671 6.61873 106.219 5.94514C105.766 5.27108 105.946 4.35523 106.619 3.90235C107.293 3.44947 108.21 3.62945 108.662 4.3035C109.115 4.9771 108.935 5.89339 108.262 6.34581ZM112.219 6.97681L112.528 5.40111L111.052 5.11127C111.051 4.72342 110.984 4.33417 110.857 3.95776L112.073 3.14084L111.177 1.80738L110.013 2.58998C109.666 2.23784 109.259 1.96721 108.818 1.78587L109.108 0.309091L107.532 -3.8147e-06L107.233 1.52165C106.91 1.53997 106.588 1.60133 106.274 1.70849L105.457 0.491788L104.124 1.38703L104.906 2.5515C104.554 2.89814 104.283 3.3057 104.102 3.74713L102.811 3.49345L102.502 5.06912L103.838 5.33151C103.861 5.74409 103.953 6.1553 104.122 6.54774L102.957 7.32987L103.853 8.66286L105.069 7.84549C105.419 8.15001 105.818 8.37803 106.243 8.52731L105.952 10.0133L107.527 10.3224L107.844 8.71187C108.191 8.67386 108.534 8.58457 108.864 8.44262L109.646 9.60756L110.979 8.71187L110.161 7.49517C110.379 7.2456 110.558 6.97086 110.697 6.67825L112.219 6.97681Z" fill="#C2D3F9"/>
<path d="M33.0853 148.977C32.0701 150.061 30.3626 150.118 29.2781 149.103C28.194 148.088 28.1373 146.381 29.1524 145.296C30.1675 144.212 31.875 144.155 32.9591 145.17C34.0435 146.185 34.1002 147.893 33.0853 148.977ZM40.4014 148.473L40.3039 145.536L37.5522 145.627C37.3906 144.936 37.1126 144.269 36.7294 143.652L38.5615 141.693L36.4161 139.686L34.662 141.559C33.8993 141.074 33.0613 140.759 32.1998 140.618L32.1092 137.865L29.1722 137.963L29.2661 140.799C28.6969 140.965 28.1485 141.207 27.6334 141.527L25.6754 139.694L23.6674 141.84L25.5414 143.593C25.0565 144.356 24.7415 145.194 24.5997 146.056L22.1942 146.135L22.291 149.072L24.7812 148.989C24.9921 149.715 25.3259 150.41 25.7879 151.041L24.0334 152.914L26.1789 154.923L28.0119 152.965C28.7594 153.364 29.5647 153.606 30.3855 153.697L30.4767 156.466L33.4137 156.368L33.3146 153.368C33.9167 153.157 34.4921 152.857 35.0225 152.467L36.8965 154.222L38.9049 152.076L36.9469 150.244C37.2317 149.709 37.4373 149.146 37.5651 148.566L40.4014 148.473Z" fill="#C2D3F9"/>
<path d="M71.8983 155.287C71.3438 155.879 70.4106 155.91 69.818 155.355C69.2255 154.8 69.1948 153.867 69.7489 153.275C70.3039 152.682 71.2371 152.651 71.8296 153.206C72.4222 153.761 72.4533 154.694 71.8983 155.287ZM75.8969 155.011L75.8437 153.406L74.3399 153.456C74.2516 153.078 74.0995 152.714 73.8898 152.376L74.8913 151.306L73.7185 150.208L72.7606 151.233C72.3434 150.968 71.8855 150.795 71.4148 150.718L71.3653 149.214L69.7599 149.267L69.8116 150.817C69.5002 150.908 69.2007 151.04 68.9191 151.215L67.8494 150.213L66.7518 151.386L67.7757 152.344C67.511 152.761 67.3388 153.219 67.261 153.69L65.9468 153.733L65.9994 155.338L67.3604 155.294C67.4758 155.69 67.658 156.07 67.9103 156.414L66.9519 157.438L68.1242 158.536L69.1261 157.466C69.5346 157.683 69.9746 157.816 70.4234 157.866L70.4728 159.379L72.0783 159.326L72.0238 157.686C72.3526 157.57 72.6672 157.407 72.9575 157.194L73.9814 158.153L75.079 156.98L74.0089 155.979C74.1646 155.686 74.2772 155.379 74.3464 155.062L75.8969 155.011Z" fill="#C2D3F9"/>
<path d="M108.441 39.8303C108.608 39.7877 108.721 39.6265 108.698 39.4516C108.61 38.7638 108.506 38.076 108.389 37.407C108.356 37.2192 108.177 37.0933 107.989 37.1263C107.799 37.1606 107.675 37.3383 107.708 37.526C107.824 38.1845 107.926 38.8618 108.013 39.539C108.037 39.7286 108.211 39.8623 108.4 39.8381L108.441 39.8303Z" fill="#C5E0E3"/>
<path d="M107.053 33.1309C106.87 33.1827 106.762 33.3732 106.814 33.5568C106.898 33.8604 106.98 34.1672 107.056 34.4699C107.145 34.8184 107.23 35.1751 107.31 35.5295C107.352 35.7159 107.537 35.8326 107.723 35.791L107.732 35.7887C107.913 35.7429 108.025 35.5611 107.984 35.3779C107.903 35.0171 107.816 34.6544 107.726 34.3C107.649 33.9923 107.565 33.68 107.479 33.3709C107.429 33.19 107.243 33.0829 107.062 33.1291L107.053 33.1309Z" fill="#C5E0E3"/>
<path d="M147.939 18.0323H142.676C142.484 18.0323 142.329 17.8776 142.329 17.6861C142.329 17.4947 142.484 17.3395 142.676 17.3395H147.939C148.131 17.3395 148.286 17.4947 148.286 17.6861C148.286 17.8776 148.131 18.0323 147.939 18.0323Z" fill="#C2D3F9"/>
<path d="M147.939 21.4322H142.676C142.484 21.4322 142.329 21.277 142.329 21.0856C142.329 20.8942 142.484 20.7389 142.676 20.7389H147.939C148.131 20.7389 148.286 20.8942 148.286 21.0856C148.286 21.277 148.131 21.4322 147.939 21.4322Z" fill="#C2D3F9"/>
<path d="M147.939 24.8311H142.676C142.484 24.8311 142.329 24.6759 142.329 24.4845C142.329 24.2931 142.484 24.1379 142.676 24.1379H147.939C148.131 24.1379 148.286 24.2931 148.286 24.4845C148.286 24.6759 148.131 24.8311 147.939 24.8311Z" fill="#C2D3F9"/>
<path d="M49.3381 56.8054C49.3381 56.8054 49.9179 58.5812 51.7298 58.6173C53.5418 58.6535 51.7298 56.3703 51.7298 56.3703C51.7298 56.3703 53.0564 57.9932 53.8468 57.7478C54.6376 57.5019 52.2193 55.3016 51.0956 55.2654C49.9724 55.2292 49.3381 56.8054 49.3381 56.8054Z" fill="#F03F33"/>
<path d="M180.143 34.3475V130.509C180.143 132.118 178.839 133.422 177.23 133.422H31.2534C29.6445 133.422 28.3406 132.118 28.3406 130.509V34.3475C28.3406 32.7384 29.6445 31.4347 31.2534 31.4347H177.23C178.839 31.4347 180.143 32.7384 180.143 34.3475Z" fill="#2C375C"/>
<path d="M176.117 38.4691V126.389C176.117 128.024 174.794 129.347 173.159 129.347H35.3212C34.9593 129.347 34.6159 129.283 34.2955 129.16C33.1692 128.747 32.3678 127.662 32.3678 126.389V38.4691C32.3678 36.8343 33.691 35.5109 35.3212 35.5109H173.159C173.553 35.5109 173.933 35.5888 174.276 35.7307C175.357 36.1703 176.117 37.2327 176.117 38.4691Z" fill="white"/>
<path d="M176.117 38.4676V42.8443H32.3664V38.4676C32.3664 36.8342 33.6897 35.5113 35.3228 35.5113H173.161C174.794 35.5113 176.117 36.8342 176.117 38.4676Z" fill="#C5E0E3"/>
<path d="M164.839 39.1769C164.839 39.97 164.196 40.6134 163.403 40.6134C162.61 40.6134 161.967 39.97 161.967 39.1769C161.967 38.3838 162.61 37.7413 163.403 37.7413C164.196 37.7413 164.839 38.3838 164.839 39.1769Z" fill="#F68A85"/>
<path d="M159.525 39.1769C159.525 39.97 158.882 40.6134 158.089 40.6134C157.296 40.6134 156.654 39.97 156.654 39.1769C156.654 38.3838 157.296 37.7413 158.089 37.7413C158.882 37.7413 159.525 38.3838 159.525 39.1769Z" fill="#3566BA"/>
<path d="M170.153 39.1769C170.153 39.97 169.51 40.6134 168.716 40.6134C167.923 40.6134 167.281 39.97 167.281 39.1769C167.281 38.3838 167.923 37.7413 168.716 37.7413C169.51 37.7413 170.153 38.3838 170.153 39.1769Z" fill="#F03F33"/>
<path d="M151.664 135.181H145.748C144.873 135.181 144.164 134.471 144.164 133.597V133.423H153.247V133.597C153.247 134.471 152.538 135.181 151.664 135.181Z" fill="#1E1D33"/>
<path d="M165.593 135.181H159.677C158.803 135.181 158.094 134.471 158.094 133.597V133.423H167.176V133.597C167.176 134.471 166.467 135.181 165.593 135.181Z" fill="#1E1D33"/>
<path d="M137.734 135.181H131.819C130.944 135.181 130.235 134.471 130.235 133.597V133.423H139.318V133.597C139.318 134.471 138.609 135.181 137.734 135.181Z" fill="#1E1D33"/>
<path d="M153.692 59.0631C153.692 61.7598 151.506 63.9459 148.809 63.9459H64.1618C61.4651 63.9459 59.2791 61.7598 59.2791 59.0631C59.2791 56.3664 61.4651 54.1808 64.1618 54.1808H148.809C151.506 54.1808 153.692 56.3664 153.692 59.0631Z" fill="#C4D6FE"/>
<path d="M148.809 54.1808H135.392V63.9459H148.809C151.506 63.9459 153.692 61.7598 153.692 59.0631C153.692 56.3664 151.506 54.1808 148.809 54.1808Z" fill="#C4D6FE"/>
<path d="M148.003 57.2052C147.379 56.6291 146.402 56.6685 145.825 57.2927C145.249 57.9173 145.288 58.894 145.913 59.4705C146.537 60.047 147.514 60.0076 148.09 59.383C148.667 58.7589 148.627 57.7817 148.003 57.2052ZM145.399 60.0283C144.466 59.1678 144.408 57.7103 145.268 56.778C146.128 55.8466 147.586 55.7879 148.518 56.6479C149.45 57.5079 149.508 58.9659 148.648 59.8977C147.788 60.8296 146.33 60.8882 145.399 60.0283Z" fill="white"/>
<path d="M142.858 62.781C142.704 62.639 142.694 62.3991 142.836 62.2447L145.377 59.4922C145.519 59.3384 145.759 59.3287 145.913 59.4707C146.067 59.6126 146.076 59.8526 145.934 60.0069L143.394 62.7594C143.251 62.9133 143.012 62.9229 142.858 62.781Z" fill="white"/>
<path d="M59.2791 75.6192C59.2791 76.7534 60.1985 77.6729 61.3333 77.6729H151.638C152.772 77.6729 153.692 76.7534 153.692 75.6192C153.692 74.4849 152.772 73.5654 151.638 73.5654H61.3333C60.1985 73.5654 59.2791 74.4849 59.2791 75.6192Z" fill="#C4D6FE"/>
<path d="M59.2791 84.5171C59.2791 85.6514 60.1985 86.5709 61.3333 86.5709H151.638C152.772 86.5709 153.692 85.6514 153.692 84.5171C153.692 83.3829 152.772 82.4634 151.638 82.4634H61.3333C60.1985 82.4634 59.2791 83.3829 59.2791 84.5171Z" fill="#C4D6FE"/>
<path d="M59.2791 93.4146C59.2791 94.5489 60.1985 95.4684 61.3333 95.4684H151.638C152.772 95.4684 153.692 94.5489 153.692 93.4146C153.692 92.2803 152.772 91.3608 151.638 91.3608H61.3333C60.1985 91.3608 59.2791 92.2803 59.2791 93.4146Z" fill="#C4D6FE"/>
<path d="M150.035 119.514H141.558C139.538 119.514 137.901 117.877 137.901 115.857V107.38C137.901 105.36 139.538 103.723 141.558 103.723H150.035C152.055 103.723 153.692 105.36 153.692 107.38V115.857C153.692 117.877 152.055 119.514 150.035 119.514Z" fill="#C5E0E3"/>
<path d="M131.12 119.514H122.642C120.623 119.514 118.985 117.877 118.985 115.857V107.38C118.985 105.36 120.623 103.723 122.642 103.723H131.12C133.14 103.723 134.777 105.36 134.777 107.38V115.857C134.777 117.877 133.14 119.514 131.12 119.514Z" fill="#C5E0E3"/>
<path d="M90.4348 119.514H81.9573C79.9379 119.514 78.3004 117.877 78.3004 115.857V107.38C78.3004 105.36 79.9379 103.723 81.9573 103.723H90.4348C92.4546 103.723 94.0917 105.36 94.0917 107.38V115.857C94.0917 117.877 92.4546 119.514 90.4348 119.514Z" fill="#C5E0E3"/>
<path d="M71.5196 119.514H63.0422C61.0228 119.514 59.3857 117.877 59.3857 115.857V107.38C59.3857 105.36 61.0228 103.723 63.0422 103.723H71.5196C73.5395 103.723 75.1766 105.36 75.1766 107.38V115.857C75.1766 117.877 73.5395 119.514 71.5196 119.514Z" fill="#C4D6FE"/>
<path d="M173.159 129.347H35.3212C34.9593 129.347 34.6159 129.283 34.2955 129.16L59.3857 112.413V115.857C59.3857 117.877 61.0228 119.514 63.0422 119.514H71.5196C73.5395 119.514 75.1765 117.877 75.1765 115.857V107.381C75.1765 105.623 73.9374 104.156 72.2852 103.804L84.7731 95.4687H151.638C152.772 95.4687 153.692 94.5492 153.692 93.415C153.692 92.2807 152.772 91.3612 151.638 91.3612H90.927L98.104 86.5709H151.638C152.772 86.5709 153.692 85.6514 153.692 84.5172C153.692 83.3829 152.772 82.4634 151.638 82.4634H128.655C129.289 82.0692 129.907 81.6387 130.51 81.1712C131.863 80.123 133.058 78.9466 134.091 77.6732H151.638C152.772 77.6732 153.692 76.7537 153.692 75.6194C153.692 74.4851 152.772 73.5656 151.638 73.5656H136.716C138.188 70.5599 138.941 67.2624 138.938 63.9462H148.809C151.506 63.9462 153.692 61.7601 153.692 59.0634C153.692 56.3667 151.506 54.1811 148.809 54.1811H146.633L163.618 42.8445H176.117L176.117 126.389C176.117 128.024 174.794 129.347 173.159 129.347ZM141.558 103.723C139.538 103.723 137.901 105.361 137.901 107.381V115.857C137.901 117.877 139.538 119.514 141.558 119.514H150.035C152.055 119.514 153.692 117.877 153.692 115.857V107.381C153.692 105.361 152.055 103.723 150.035 103.723H141.558ZM122.642 103.723C120.623 103.723 118.985 105.361 118.985 107.381V115.857C118.985 117.877 120.623 119.514 122.642 119.514H131.12C133.14 119.514 134.777 117.877 134.777 115.857V107.381C134.777 105.361 133.14 103.723 131.12 103.723H122.642ZM81.9574 103.723C79.938 103.723 78.3004 105.361 78.3004 107.381V115.857C78.3004 117.877 79.938 119.514 81.9574 119.514H90.4348C92.4547 119.514 94.0917 117.877 94.0917 115.857V107.381C94.0917 105.361 92.4547 103.723 90.4348 103.723H81.9574Z" fill="white"/>
<path d="M176.117 42.8443H163.618L167.658 40.1481C167.92 40.4343 168.298 40.6138 168.716 40.6138C169.51 40.6138 170.153 39.9704 170.153 39.1773C170.153 38.9612 170.105 38.756 170.019 38.572L174.276 35.7306C175.357 36.1702 176.117 37.2326 176.117 38.4689V42.8443" fill="#D4E9EA"/>
<path d="M168.716 40.6134C168.298 40.6134 167.92 40.4339 167.658 40.1477L170.019 38.5715C170.105 38.7556 170.153 38.9607 170.153 39.1769C170.153 39.97 169.51 40.6134 168.716 40.6134Z" fill="#F46C5C"/>
<path d="M146.957 60.6368C146.519 60.6368 146.08 60.5127 145.699 60.2622L145.934 60.0067C146.076 59.8524 146.067 59.6125 145.913 59.4705C145.84 59.4032 145.748 59.3697 145.655 59.3697C145.553 59.3697 145.452 59.411 145.377 59.492L145.141 59.7475C144.464 58.8761 144.496 57.615 145.268 56.7779C145.72 56.288 146.339 56.0393 146.959 56.0393C147.517 56.0393 148.076 56.2403 148.518 56.6479C149.45 57.5079 149.508 58.9659 148.648 59.8977C148.196 60.3882 147.577 60.6368 146.957 60.6368ZM146.959 56.7976C146.543 56.7976 146.129 56.9643 145.825 57.2926C145.249 57.9172 145.288 58.894 145.913 59.4705C146.209 59.7434 146.584 59.8785 146.957 59.8785C147.373 59.8785 147.787 59.7118 148.09 59.383C148.667 58.7589 148.627 57.7817 148.003 57.2052C147.707 56.9323 147.333 56.7976 146.959 56.7976Z" fill="white"/>
<path d="M105.702 82.463H104.259L104.97 81.9877C105.212 82.1516 105.455 82.3096 105.702 82.463Z" fill="white"/>
<path d="M143.115 62.8819C143.023 62.8819 142.93 62.8485 142.858 62.7812C142.704 62.6392 142.694 62.3993 142.836 62.245L145.141 59.7479L145.377 59.4924C145.452 59.4114 145.553 59.3702 145.655 59.3702C145.748 59.3702 145.84 59.4036 145.913 59.4709C146.067 59.6129 146.076 59.8528 145.934 60.0071L145.699 60.2626L143.394 62.7597C143.319 62.8407 143.217 62.8819 143.115 62.8819Z" fill="white"/>
<path d="M151.638 77.6729H134.091C135.13 76.3921 136.006 75.0124 136.716 73.5654H151.638C152.772 73.5654 153.692 74.4849 153.692 75.6192C153.692 76.7534 152.772 77.6729 151.638 77.6729Z" fill="#AFC8FE"/>
<path d="M151.638 86.5709H98.104L104.259 82.4634H105.702C109.18 84.622 113.176 85.7329 117.198 85.7329C121.146 85.7334 125.12 84.6628 128.655 82.4634H151.638C152.772 82.4634 153.692 83.3829 153.692 84.5171C153.692 85.6514 152.772 86.5709 151.638 86.5709Z" fill="#AFC8FE"/>
<path d="M151.638 95.4684H84.7731L90.9271 91.3608H151.638C152.772 91.3608 153.692 92.2803 153.692 93.4146C153.692 94.5489 152.772 95.4684 151.638 95.4684Z" fill="#AFC8FE"/>
<path d="M150.035 119.514H141.558C139.538 119.514 137.901 117.877 137.901 115.857V107.38C137.901 105.36 139.538 103.723 141.558 103.723H150.035C152.055 103.723 153.692 105.36 153.692 107.38V115.857C153.692 117.877 152.055 119.514 150.035 119.514Z" fill="#AFC8FE"/>
<path d="M131.12 119.514H122.642C120.623 119.514 118.985 117.877 118.985 115.857V107.38C118.985 105.36 120.623 103.723 122.642 103.723H131.12C133.14 103.723 134.777 105.36 134.777 107.38V115.857C134.777 117.877 133.14 119.514 131.12 119.514Z" fill="#AFC8FE"/>
<path d="M90.4348 119.514H81.9573C79.9379 119.514 78.3004 117.877 78.3004 115.857V107.38C78.3004 105.36 79.9379 103.723 81.9573 103.723H90.4348C92.4546 103.723 94.0917 105.36 94.0917 107.38V115.857C94.0917 117.877 92.4546 119.514 90.4348 119.514Z" fill="#AFC8FE"/>
<path d="M71.5196 119.514H63.0422C61.0228 119.514 59.3857 117.877 59.3857 115.857V112.413L72.2853 103.803C73.9374 104.155 75.1766 105.622 75.1766 107.38V115.857C75.1766 117.877 73.5395 119.514 71.5196 119.514Z" fill="#AFC8FE"/>
<path d="M122.044 81.7428C123.177 81.4328 124.256 81.0229 125.274 80.5252C124.228 81.0371 123.145 81.4428 122.044 81.7428ZM111.379 81.452C110.218 81.0687 109.092 80.5687 108.018 79.9546L108.027 79.9487C109.089 80.5581 110.213 81.0628 111.379 81.452ZM128.423 78.5685C128.792 78.2827 129.15 77.9842 129.494 77.6733H129.498C129.167 77.9705 128.823 78.258 128.466 78.5346C128.452 78.546 128.437 78.557 128.423 78.5685ZM132.909 73.5657H132.898C133.62 72.3811 134.209 71.1168 134.651 69.7966C134.218 71.1054 133.636 72.371 132.909 73.5657Z" fill="white"/>
<path d="M129.498 77.6729H129.494C130.827 76.4705 131.972 75.0839 132.898 73.5654H132.909C131.998 75.0642 130.858 76.4517 129.498 77.6729Z" fill="#D4E9EA"/>
<path d="M94.2236 66.188L95.1468 69.0133C92.2335 70.7209 84.8853 74.7373 81.6094 75.9416C80.6368 76.2992 79.2754 76.7434 77.7281 77.2237C77.1378 77.4069 76.5205 77.5965 75.8859 77.7874C75.3396 77.9514 74.7818 78.1167 74.2191 78.2829L74.1435 78.3049C73.3976 78.3919 72.4515 78.4977 71.3777 78.6085L71.3873 74.1062L73.1567 73.6158L74.198 73.3282L75.6674 72.9221L78.8839 72.0323C81.2911 70.5487 91.7701 67.4806 94.2236 66.188Z" fill="#F68A85"/>
<path d="M98.364 64.4717C98.4437 64.4415 99.4063 64.0857 99.6893 64.4864C99.9846 64.9035 99.6453 65.3244 99.6453 65.3244C99.6453 65.3244 100.352 65.7228 100.371 66.134C100.388 66.5452 100.052 66.8268 100.052 66.8268C100.052 66.8268 100.506 67.0498 100.492 67.439C100.479 67.8283 99.9443 68.3979 99.1517 68.6072C98.4483 68.7917 98.0985 68.6429 98.0302 68.6081L98.0174 68.5999C98.0174 68.5999 97.8869 68.6489 97.6584 68.7249C97.2769 68.8522 96.6221 69.055 95.8565 69.2263C94.6329 69.5001 93.1186 67.8164 93.0073 66.7297C93.0073 66.7297 93.4556 65.2731 93.9699 64.4346C94.4841 63.5971 94.8569 63.3997 95.4796 63.4817C96.1024 63.5637 96.7133 63.7725 96.8474 63.7487C96.9816 63.7253 100.158 62.0759 100.887 62.2884C101.6 62.4963 98.5019 64.3875 98.364 64.4717Z" fill="#F68A85"/>
<path d="M94.9224 65.9347L94.84 65.9141C94.7562 65.8683 94.7246 65.7629 94.7704 65.6791L95.155 64.9666C95.1784 64.9236 95.2182 64.8924 95.2654 64.8805C95.3125 64.8686 95.3624 64.8773 95.4027 64.9043C95.4105 64.9089 96.1981 65.4177 96.9212 65.2373C97.1424 65.1814 97.2912 65.0898 97.3512 64.9712C97.4194 64.8375 97.3626 64.6937 97.3617 64.6923C97.326 64.6044 97.3672 64.5032 97.4551 64.4661C97.5421 64.4295 97.6429 64.4693 97.6809 64.5563C97.6932 64.5852 97.799 64.8471 97.6635 65.1214C97.5568 65.3389 97.3352 65.4905 97.0055 65.5729C96.3438 65.7387 95.6757 65.4483 95.3753 65.2881L95.0749 65.844C95.0437 65.9017 94.9837 65.9347 94.9224 65.9347Z" fill="#F3665C"/>
<path d="M98.0303 68.6079L98.0175 68.5997C98.0175 68.5997 97.887 68.6487 97.6585 68.7247C97.3544 68.3666 97.3324 67.938 97.3127 67.5776C97.2967 67.2644 97.2816 66.9933 97.1168 66.7955C96.946 66.5922 96.8764 66.3669 96.8635 66.1521C96.8489 65.9451 96.8878 65.7469 96.9386 65.5861C96.9569 65.5261 96.9766 65.4707 96.9963 65.4231C97.0472 65.2986 97.0948 65.2189 97.1003 65.2084C97.1502 65.1264 97.2564 65.0985 97.3384 65.1484C97.4204 65.1969 97.4469 65.3031 97.3984 65.3851L97.3787 65.4222C97.3292 65.5165 97.2093 65.7817 97.2093 66.0669C97.2093 66.2391 97.2528 66.4191 97.3823 66.5739C97.6214 66.8591 97.6411 67.215 97.6594 67.5593C97.6805 67.9494 97.7001 68.3213 98.0303 68.6079Z" fill="#F3665C"/>
<path d="M95.6203 67.3224C95.5553 67.3224 95.493 67.2857 95.4637 67.2225C95.4229 67.1364 95.46 67.033 95.5466 66.9927C95.5571 66.9876 96.5847 66.4899 96.6882 65.5108C96.6982 65.4156 96.7843 65.3464 96.8787 65.3565C96.9739 65.3666 97.0426 65.4522 97.0325 65.547C96.9084 66.7229 95.7439 67.2825 95.694 67.3059L95.6203 67.3224Z" fill="#F3665C"/>
<path d="M74.2186 78.2838C75.4357 77.9243 76.6286 77.5658 77.7281 77.2246C77.5142 75.1809 76.5036 73.7651 75.667 72.922L73.1567 73.6162L74.2186 78.2838Z" fill="#F3665C"/>
<path d="M74.8418 79.0831C74.8418 79.0831 71.3071 80.5223 67.9098 80.8424C66.7243 80.956 65.5566 80.9312 64.5606 80.6624L63.9544 79.5479L60.5443 73.2808C60.5443 73.2808 68.5656 74.8867 73.7726 73.0381C73.7726 73.0381 74.9192 76.2728 74.8418 79.0831Z" fill="#146BA2"/>
<path d="M67.9098 80.8424C66.7243 80.956 65.5566 80.9312 64.5606 80.6624L63.9543 79.5479C64.0812 78.9883 64.4049 78.5299 65.0355 78.284C65.0355 78.284 65.8364 79.9124 67.9098 80.8424Z" fill="#3550AA"/>
<path d="M41.3562 159.094L38.6948 162.654C38.6948 162.654 39.1811 164.245 41.1515 165.472L44.3345 161.376L41.3562 159.094Z" fill="#F68A85"/>
<path d="M40.7096 164.369C40.7096 164.369 41.9551 164.101 42.381 164.531C42.8068 164.962 43.8756 170.819 44.8762 172.1C45.8767 173.381 44.8693 174.062 44.2538 174.321C43.6379 174.581 34.8162 165.768 34.8162 165.768C34.8162 165.768 36.9972 162.755 38.0486 162.169C39.1004 161.584 39.5936 163.749 40.7096 164.369Z" fill="#146BA2"/>
<path d="M40.9468 168.011C40.8932 167.986 40.8493 167.941 40.8287 167.881C40.7879 167.764 40.8497 167.637 40.966 167.597C41.0049 167.582 41.9295 167.266 42.6415 167.449C43.589 167.692 43.7763 168.512 43.784 168.547C43.8101 168.667 43.7332 168.786 43.6128 168.812C43.4924 168.839 43.3728 168.762 43.3467 168.641C43.3417 168.619 43.2039 168.056 42.5298 167.883C41.9501 167.733 41.1213 168.016 41.113 168.019C41.0562 168.038 40.9972 168.034 40.9468 168.011Z" fill="white"/>
<path d="M40.8598 167.098C40.8062 167.073 40.7623 167.028 40.7412 166.968C40.7009 166.851 40.7623 166.724 40.879 166.683C40.9179 166.67 41.8425 166.353 42.5541 166.536C43.5024 166.78 43.6893 167.599 43.6966 167.634C43.7231 167.754 43.6467 167.873 43.5258 167.899C43.4049 167.926 43.2858 167.849 43.2597 167.728C43.2547 167.706 43.1169 167.143 42.4428 166.97C41.8603 166.819 41.0343 167.103 41.026 167.105C40.9692 167.125 40.9102 167.121 40.8598 167.098Z" fill="white"/>
<path d="M41.2907 168.991C41.2371 168.966 41.1932 168.92 41.1721 168.861C41.1318 168.744 41.1932 168.616 41.3099 168.576C41.3489 168.562 42.2734 168.246 42.985 168.429C43.9333 168.671 44.1202 169.491 44.1279 169.526C44.154 169.646 44.0771 169.766 43.9567 169.792C43.8363 169.818 43.7167 169.741 43.6906 169.621C43.6856 169.598 43.5478 169.035 42.8737 168.862C42.2912 168.712 41.4652 168.995 41.4569 168.998C41.4001 169.018 41.3411 169.013 41.2907 168.991Z" fill="white"/>
<path d="M57.6804 165.207L58.0843 169.634C58.0843 169.634 59.5103 170.491 61.7953 170.084L61.4207 164.911L57.6804 165.207Z" fill="#F68A85"/>
<path d="M60.9889 169.462C60.9889 169.462 61.7673 168.384 62.3983 168.421C63.0298 168.457 67.9488 172.254 69.6197 172.549C71.2906 172.845 70.9847 174.076 70.6885 174.708C70.3922 175.339 57.4574 174.977 57.4574 174.977C57.4574 174.977 56.9807 170.802 57.3878 169.613C57.7949 168.425 59.6898 169.76 60.9889 169.462Z" fill="#146BA2"/>
<path d="M63.7162 172.121C63.6571 172.14 63.5912 172.135 63.533 172.104C63.4204 172.041 63.3792 171.899 63.4415 171.786C63.4621 171.748 63.958 170.858 64.6385 170.502C65.5428 170.029 66.2609 170.534 66.2911 170.556C66.3955 170.631 66.4193 170.777 66.3437 170.882C66.2686 170.986 66.1226 171.01 66.0177 170.935C65.9985 170.921 65.4989 170.58 64.8541 170.916C64.3005 171.206 63.8545 172.004 63.8504 172.012C63.8202 172.066 63.7712 172.104 63.7162 172.121Z" fill="white"/>
<path d="M63.011 171.475C62.952 171.493 62.8865 171.488 62.8279 171.456C62.7152 171.394 62.674 171.252 62.7358 171.139C62.7569 171.102 63.2528 170.21 63.9328 169.855C64.8386 169.382 65.5557 169.887 65.5859 169.909C65.6903 169.984 65.7141 170.13 65.6386 170.235C65.5635 170.339 65.4174 170.363 65.3125 170.287C65.2928 170.273 64.7932 169.933 64.149 170.269C63.5926 170.559 63.1493 171.357 63.1452 171.364C63.115 171.419 63.066 171.457 63.011 171.475Z" fill="white"/>
<path d="M64.6664 172.641C64.6078 172.659 64.5423 172.655 64.4837 172.623C64.3711 172.561 64.3299 172.419 64.3921 172.306C64.4128 172.268 64.9091 171.377 65.5891 171.022C66.4944 170.548 67.2115 171.054 67.2418 171.075C67.3462 171.151 67.37 171.297 67.2949 171.401C67.2198 171.505 67.0733 171.53 66.9688 171.454C66.9492 171.44 66.4491 171.1 65.8053 171.436C65.2485 171.726 64.8056 172.523 64.8011 172.531C64.7708 172.586 64.7218 172.624 64.6664 172.641Z" fill="white"/>
<path d="M55.1999 117.161L52.5119 139.408C52.5119 139.408 50.1005 142.68 47.8018 146.868C45.8721 150.382 40.7307 159.501 40.7307 159.501L43.8404 161.872L60.8717 144.222L65.406 116.945L55.1999 117.161Z" fill="#333333"/>
<path d="M44.6069 161.815C44.3276 162.516 43.8056 162.993 43.1956 163.395L39.5845 160.345C39.8872 159.705 40.3016 159.151 40.8149 158.674L44.6069 161.815Z" fill="#333333"/>
<path d="M41.4454 118.08C41.4454 118.08 46.2417 129.872 52.4748 139.068C52.4748 139.068 53.4058 148.017 54.9979 152.781C55.6949 154.867 57.0448 164.75 57.0448 164.75L61.7737 164.535L60.5534 137.056L55.5511 117.154L41.4454 118.08Z" fill="#333333"/>
<path d="M62.2133 164.373C62.5137 165.195 62.4308 166.01 62.2133 166.827L56.7408 166.98C56.5081 166.193 56.4394 165.395 56.5145 164.587L62.2133 164.373Z" fill="#333333"/>
<path d="M66.118 116.55C66.118 117.517 66.1157 118.283 66.1088 118.801C63.8179 119.418 61.5288 119.865 59.2392 120.139C59.1787 120.146 59.1178 120.153 59.0565 120.161C58.9539 120.173 58.8531 120.185 58.7515 120.197L58.6755 120.204C58.278 120.247 57.8828 120.285 57.4844 120.318C55.5158 120.48 53.5477 120.515 51.5791 120.424C51.406 120.416 51.2348 120.407 51.0617 120.397C50.9078 120.388 50.7521 120.379 50.596 120.367C50.5268 120.364 50.4563 120.36 50.3858 120.354C50.2544 120.344 50.1248 120.334 49.9934 120.325C47.1007 120.09 44.2085 119.584 41.3168 118.801C41.3016 117.662 41.2879 115.342 41.2833 112.348C41.2833 112.184 41.282 112.018 41.2833 111.85C41.2801 108.548 41.2925 104.496 41.3319 100.323C41.3355 99.9928 41.3387 99.6635 41.3433 99.3325C41.347 98.9501 41.3502 98.5654 41.3552 98.1794C41.3561 98.1144 41.3561 98.0489 41.357 97.9839C41.3593 97.8941 41.3607 97.8039 41.3621 97.7123C41.363 97.5315 41.3653 97.3492 41.369 97.1688C41.3722 96.9041 41.3758 96.6408 41.3804 96.3784C41.3827 96.1788 41.3859 95.9787 41.3882 95.779C41.3941 95.3815 41.401 94.9841 41.407 94.5889C41.5466 86.3056 41.8264 78.6932 42.3585 76.7558C42.4084 76.5767 42.4606 76.4462 42.5124 76.3688C42.5687 76.2823 42.6397 76.1957 42.718 76.1055C42.8174 75.9924 42.9327 75.8756 43.0623 75.758C43.9493 74.941 45.4879 73.9927 47.049 73.0929C47.2303 72.9876 47.4139 72.8836 47.5939 72.7797L51.8612 71.3276L56.2677 71.6363C56.7971 71.9467 60.966 73.3644 61.4775 73.6831C61.629 73.7779 61.7783 73.8727 61.9249 73.9661C63.1237 74.7391 64.1425 75.507 64.5872 76.16C65.2283 77.1024 65.6166 85.5592 65.841 94.7601C65.8465 94.9726 65.851 95.1842 65.857 95.3953C65.8799 96.3693 65.9009 97.3478 65.9206 98.326C65.9403 99.2917 65.9573 100.255 65.9738 101.212C65.9989 102.777 66.0223 104.318 66.0406 105.802C66.0429 105.971 66.0443 106.138 66.0466 106.306C66.064 107.753 66.0777 109.141 66.0878 110.437C66.0891 110.607 66.0905 110.774 66.0914 110.94C66.1065 112.885 66.1157 114.608 66.1166 115.991V115.991C66.118 116.186 66.118 116.37 66.118 116.55Z" fill="#146BA2"/>
<path d="M33.404 123.68C33.296 124.856 34.728 124.218 34.3229 121.835C33.919 119.452 35.0668 117.294 35.5618 117.363C36.058 117.433 35.1516 119.965 35.5925 120.878C36.0324 121.79 36.6011 120.017 37.168 118.942C37.7551 117.825 37.7207 115.388 37.4533 113.649C37.1864 111.909 40.3391 101.343 40.3551 98.2819L40.7393 96.9838L42.1456 92.2315L44.3477 84.789C44.3477 84.789 43.0285 79.1561 40.8044 79.6401C40.8044 79.6401 39.627 83.564 38.3687 87.9889C38.1553 88.7399 37.9401 89.506 37.7267 90.2693C36.8306 93.4775 35.988 96.6449 35.5965 98.5246C34.5618 103.486 34.4817 113.8 34.4817 113.8C34.4817 113.8 32.6567 117.59 32.6136 119.276C32.5681 121.074 33.5115 122.503 33.404 123.68Z" fill="#F68A85"/>
<path d="M37.7267 90.269L40.7393 96.9835L42.1456 92.2312L38.3687 87.9886C38.1553 88.7396 37.9401 89.5057 37.7267 90.269Z" fill="#F3665C"/>
<path d="M37.5775 88.2693C38.899 90.5355 40.2425 92.7889 41.5815 95.046C42.0225 93.5697 42.479 92.1524 42.9076 90.8492L42.9113 90.8396C43.0825 90.3184 43.2501 89.8161 43.4099 89.3358L43.4186 89.311C43.4745 89.1425 43.5285 88.9758 43.5839 88.8133V88.8124C44.2227 86.88 44.7177 85.3446 44.8597 84.4489C45.2411 82.0389 44.2008 77.3173 42.7354 76.3863C42.697 76.471 42.5816 76.2091 42.5124 76.3689C42.2551 76.9638 41.1121 78.4328 40.5466 79.8637C40.4742 80.046 40.4005 80.2356 40.324 80.4293C39.5048 82.5339 38.5038 85.2718 37.5775 88.2693Z" fill="#146BA2"/>
<path d="M34.2077 109.886C34.2077 109.886 37.0664 109.674 38.279 110.54L38.0253 112.213C38.0253 112.213 34.6842 111.839 33.9045 111.883C33.9045 111.883 33.8278 110.23 34.2077 109.886Z" fill="#1E1D33"/>
<path d="M35.6478 111.014C35.6478 111.781 35.1316 112.403 34.4946 112.403C33.8578 112.403 33.3416 111.781 33.3416 111.014C33.3416 110.248 33.8578 109.626 34.4946 109.626C35.1316 109.626 35.6478 110.248 35.6478 111.014Z" fill="#2C375C"/>
<path d="M35.1421 110.966C35.1421 111.526 34.7643 111.982 34.2987 111.982C33.8328 111.982 33.455 111.526 33.455 110.966C33.455 110.404 33.8328 109.95 34.2987 109.95C34.7643 109.95 35.1421 110.404 35.1421 110.966Z" fill="#305D80"/>
<path d="M47.2867 60.0526C47.2867 63.8785 49.6418 66.5147 53.4672 66.5147C57.2931 66.5147 59.9595 63.6802 59.9595 59.8543C59.9595 56.0289 57.6938 53.1307 53.8683 53.1307C49.28 53.1307 47.2867 56.2272 47.2867 60.0526Z" fill="#2C375C"/>
<path d="M47.7212 62.3399C47.7212 62.3399 46.8819 61.3343 46.9908 58.7522C47.0994 56.1704 47.969 55.4364 47.969 55.4364C47.969 55.4364 46.8819 53.5882 47.8874 53.0447C48.8935 52.5011 49.7631 53.0447 49.7631 53.0447C49.7631 53.0447 49.029 51.9031 49.7631 51.7401C50.4967 51.5771 51.5531 52.2566 51.5531 52.2566C51.5531 52.2566 56.7747 50.2995 58.4058 51.4415C60.0364 52.5826 58.948 55.9822 58.518 56.3641L47.7212 62.3399Z" fill="#2C375C"/>
<path d="M48.1462 61.7C48.1462 61.7 47.0829 60.2832 46.2925 61.455C45.5022 62.6268 46.6199 66.0877 48.5546 65.2433L48.1462 61.7Z" fill="#F3665C"/>
<path d="M48.132 64.1734C48.061 64.1734 47.9951 64.1258 47.9749 64.0539C47.675 62.9856 46.5678 62.5519 46.5568 62.5478C46.4725 62.5158 46.4299 62.4214 46.462 62.3372C46.494 62.2525 46.5884 62.2103 46.6726 62.2419C46.7244 62.2616 47.9442 62.7351 48.29 63.9655C48.3142 64.0525 48.2634 64.1427 48.1764 64.167L48.132 64.1734Z" fill="#CE4045"/>
<path d="M47.0147 63.6349L46.9263 63.6088C46.8507 63.5598 46.8288 63.4586 46.8773 63.383C46.8855 63.3702 47.0815 63.0716 47.4914 62.888C47.5733 62.8514 47.6704 62.888 47.707 62.9704C47.7441 63.0533 47.707 63.1495 47.6246 63.1866C47.3077 63.3285 47.1539 63.5579 47.1525 63.5598C47.1209 63.6083 47.0687 63.6349 47.0147 63.6349Z" fill="#CE4045"/>
<path d="M59.1 61.7C59.1 61.7 60.1624 60.2832 60.9528 61.455C61.7436 62.6268 60.6263 66.0877 58.6911 65.2433L59.1 61.7Z" fill="#F3665C"/>
<path d="M59.1133 64.1734C59.1852 64.1734 59.2506 64.1258 59.2708 64.0539C59.5707 62.9856 60.6775 62.5519 60.689 62.5478C60.7732 62.5158 60.8158 62.4214 60.7837 62.3372C60.7517 62.2525 60.6574 62.2103 60.5731 62.2419C60.5214 62.2616 59.3015 62.7351 58.9562 63.9655C58.9315 64.0525 58.9823 64.1427 59.0693 64.167L59.1133 64.1734Z" fill="#CE4045"/>
<path d="M60.2311 63.6349L60.3194 63.6088C60.3955 63.5598 60.4174 63.4586 60.3684 63.383C60.3602 63.3702 60.1642 63.0716 59.7544 62.888C59.6729 62.8514 59.5753 62.888 59.5387 62.9704C59.5016 63.0533 59.5387 63.1495 59.6211 63.1866C59.938 63.3285 60.0919 63.5579 60.0932 63.5598C60.1244 63.6083 60.1775 63.6349 60.2311 63.6349Z" fill="#CE4045"/>
<path d="M56.2394 68.1785V71.6202C56.2394 71.6202 55.2127 73.3736 53.8248 73.4927C52.4378 73.614 51.2055 71.9834 51.2055 71.9834V68.4203L56.2394 68.1785Z" fill="#F68A85"/>
<path d="M56.2394 68.1791V69.7063C55.308 70.7398 53.6535 70.998 51.2055 70.6368V68.4209L56.2394 68.1791Z" fill="#F3665C"/>
<path d="M59.8684 59.339C59.8047 60.6765 59.677 62.3493 59.4219 63.6869C59.3583 64.0207 59.2859 64.3344 59.2062 64.616C58.4814 67.152 56.6698 71.5017 51.5975 69.6897C49.3574 68.8902 48.3188 66.395 47.8559 63.8568C47.5422 62.1336 47.4946 60.3922 47.5174 59.1476C47.5422 57.8768 48.2355 56.716 49.3409 56.0896C52.3347 54.3921 55.4944 55.0254 57.5742 55.8249C59.018 56.379 59.9417 57.7972 59.8684 59.339Z" fill="#F68A85"/>
<path d="M51.7555 61.9021C51.7555 62.2693 51.5659 62.567 51.3324 62.567C51.0984 62.567 50.9092 62.2693 50.9092 61.9021C50.9092 61.5348 51.0984 61.2367 51.3324 61.2367C51.5659 61.2367 51.7555 61.5348 51.7555 61.9021Z" fill="#2C375C"/>
<path d="M56.6621 61.9021C56.6621 62.2693 56.4729 62.567 56.2394 62.567C56.0059 62.567 55.8163 62.2693 55.8163 61.9021C55.8163 61.5348 56.0059 61.2367 56.2394 61.2367C56.4729 61.2367 56.6621 61.5348 56.6621 61.9021Z" fill="#2C375C"/>
<path d="M57.3892 59.8491C57.3892 59.8491 56.0548 59.3216 55.0273 59.7653L55.1299 60.3368C55.1299 60.3368 56.6382 60.2095 57.3979 60.5172C57.4661 60.2974 57.4758 60.0753 57.3892 59.8491Z" fill="#2C375C"/>
<path d="M49.6133 59.8491C49.6133 59.8491 50.9481 59.3216 51.9757 59.7653L51.8727 60.3368C51.8727 60.3368 50.3648 60.2095 49.6051 60.5172C49.5368 60.2974 49.5268 60.0753 49.6133 59.8491Z" fill="#2C375C"/>
<path d="M53.7886 64.7864C53.5148 64.8198 53.2304 64.7465 53.1864 64.7346C53.099 64.7108 53.0477 64.621 53.0715 64.5336C53.0949 64.4466 53.1851 64.3953 53.2721 64.4191C53.4259 64.4603 53.7891 64.5107 53.9306 64.4008C53.958 64.3793 53.9937 64.3399 53.9919 64.2401C53.9814 63.6658 53.594 61.7847 53.5899 61.7659C53.5715 61.6776 53.6288 61.5915 53.7172 61.5732C53.806 61.5544 53.8921 61.6116 53.9104 61.7C53.9264 61.7783 54.3079 63.6297 54.3193 64.2341C54.323 64.4612 54.2195 64.5904 54.1311 64.659C54.0354 64.7337 53.9131 64.7712 53.7886 64.7864Z" fill="#F3665C"/>
<path d="M51.5531 65.7673C51.6868 66.44 52.131 67.6768 53.6275 67.6768C55.1276 67.6768 55.548 66.5463 55.6927 65.7673H51.5531Z" fill="white"/>
<path d="M53.502 68.6905C53.9251 68.6905 54.2836 68.4762 54.2992 68.4671C54.3761 68.4204 54.4008 68.3196 54.3541 68.2427C54.3074 68.1653 54.2071 68.1406 54.1298 68.1873C54.127 68.1891 53.8317 68.3636 53.502 68.3636C53.1993 68.3636 52.9099 68.19 52.9067 68.1882C52.8302 68.141 52.729 68.1644 52.6818 68.2413C52.6342 68.3182 52.658 68.419 52.7349 68.4661C52.7496 68.4758 53.1027 68.6905 53.502 68.6905Z" fill="#F3665C"/>
<path d="M59.6953 61.7291H58.9544C59.0359 60.985 58.7657 60.0861 58.5427 59.4867C58.0362 58.1285 59.1137 57.5291 58.2423 56.8491C57.3709 56.1668 55.2013 56.4594 53.6924 56.4104C52.1749 56.3614 49.7347 56.3829 49.143 56.5198C48.5496 56.6558 48.8747 57.6413 49.0922 58.4051C49.3115 59.1671 48.3646 60.0105 48.2061 60.8009C48.1603 61.0271 48.17 61.3641 48.2061 61.7291H47.5884C47.5151 60.7675 47.5041 59.8727 47.5174 59.1474C47.5421 57.8766 48.2354 56.7158 49.3409 56.0894C52.3347 54.3919 55.4943 55.0252 57.5742 55.8247C59.018 56.3788 59.9416 57.797 59.8684 59.3388C59.8336 60.0714 59.7791 60.9053 59.6953 61.7291Z" fill="#2C375C"/>
<path d="M19.598 61.1943C18.665 61.1943 17.9059 61.953 17.9059 62.8863C17.9059 63.8195 18.665 64.5787 19.598 64.5787C20.5312 64.5787 21.2901 63.8195 21.2901 62.8863C21.2901 61.953 20.5312 61.1943 19.598 61.1943ZM19.598 65.3521C18.2384 65.3521 17.1322 64.2463 17.1322 62.8863C17.1322 61.5267 18.2384 60.4208 19.598 60.4208C20.9574 60.4208 22.0636 61.5267 22.0636 62.8863C22.0636 64.2463 20.9574 65.3521 19.598 65.3521Z" fill="#F03D5F"/>
<path d="M14.8652 48.9814C13.9322 48.9814 13.173 49.7406 13.173 50.6734C13.173 51.6066 13.9322 52.3658 14.8652 52.3658C15.7983 52.3658 16.5575 51.6066 16.5575 50.6734C16.5575 49.7406 15.7983 48.9814 14.8652 48.9814ZM14.8652 53.1393C13.5059 53.1393 12.3996 52.0334 12.3996 50.6734C12.3996 49.3138 13.5059 48.2079 14.8652 48.2079C16.225 48.2079 17.331 49.3138 17.331 50.6734C17.331 52.0334 16.225 53.1393 14.8652 53.1393Z" fill="#146BA2"/>
<path d="M21.4887 77.0987C21.2753 77.0987 21.1022 76.9261 21.1022 76.7122V75.0065C21.1022 74.7926 21.2753 74.6196 21.4887 74.6196C21.7025 74.6196 21.8756 74.7926 21.8756 75.0065V76.7122C21.8756 76.9261 21.7025 77.0987 21.4887 77.0987Z" fill="#146BA2"/>
<path d="M21.4887 80.0836C21.2753 80.0836 21.1022 79.9105 21.1022 79.6966V77.9914C21.1022 77.7775 21.2753 77.6044 21.4887 77.6044C21.7025 77.6044 21.8756 77.7775 21.8756 77.9914V79.6966C21.8756 79.9105 21.7025 80.0836 21.4887 80.0836Z" fill="#146BA2"/>
<path d="M23.8829 77.7384H22.3506C22.1371 77.7384 21.9641 77.5653 21.9641 77.3519C21.9641 77.138 22.1371 76.9649 22.3506 76.9649H23.8829C24.0964 76.9649 24.2698 77.138 24.2698 77.3519C24.2698 77.5653 24.0964 77.7384 23.8829 77.7384Z" fill="#146BA2"/>
<path d="M20.6269 77.7384H19.0948C18.8813 77.7384 18.7079 77.5653 18.7079 77.3519C18.7079 77.138 18.8813 76.9649 19.0948 76.9649H20.6269C20.8406 76.9649 21.0136 77.138 21.0136 77.3519C21.0136 77.5653 20.8406 77.7384 20.6269 77.7384Z" fill="#146BA2"/>
<path d="M6.78098 63.4063C6.56755 63.4063 6.39423 63.2328 6.39423 63.0194V61.3137C6.39423 61.0998 6.56755 60.9267 6.78098 60.9267C6.99455 60.9267 7.16769 61.0998 7.16769 61.3137V63.0194C7.16769 63.2328 6.99455 63.4063 6.78098 63.4063Z" fill="#F03D5F"/>
<path d="M6.78098 66.3912C6.56755 66.3912 6.39423 66.2181 6.39423 66.0043V64.2985C6.39423 64.0851 6.56755 63.912 6.78098 63.912C6.99455 63.912 7.16769 64.0851 7.16769 64.2985V66.0043C7.16769 66.2181 6.99455 66.3912 6.78098 66.3912Z" fill="#F03D5F"/>
<path d="M9.17503 64.0455H7.64298C7.42923 64.0455 7.25623 63.8724 7.25623 63.659C7.25623 63.4452 7.42923 63.2721 7.64298 63.2721H9.17503C9.38861 63.2721 9.56193 63.4452 9.56193 63.659C9.56193 63.8724 9.38861 64.0455 9.17503 64.0455Z" fill="#F03D5F"/>
<path d="M5.91913 64.0455H4.38671C4.17332 64.0455 4 63.8724 4 63.659C4 63.4452 4.17332 63.2721 4.38671 63.2721H5.91913C6.13252 63.2721 6.3057 63.4452 6.3057 63.659C6.3057 63.8724 6.13252 64.0455 5.91913 64.0455Z" fill="#F03D5F"/>
<path d="M178.927 12.6762C177.995 12.6762 177.235 13.4354 177.235 14.3682C177.235 15.3014 177.995 16.0606 178.927 16.0606C179.861 16.0606 180.619 15.3014 180.619 14.3682C180.619 13.4354 179.861 12.6762 178.927 12.6762ZM178.927 16.8341C177.568 16.8341 176.461 15.7277 176.461 14.3682C176.461 13.0086 177.568 11.9028 178.927 11.9028C180.287 11.9028 181.393 13.0086 181.393 14.3682C181.393 15.7277 180.287 16.8341 178.927 16.8341Z" fill="#146BA2"/>
<path d="M183.171 24.5165C182.238 24.5165 181.479 25.2757 181.479 26.209C181.479 27.1418 182.238 27.901 183.171 27.901C184.104 27.901 184.863 27.1418 184.863 26.209C184.863 25.2757 184.104 24.5165 183.171 24.5165ZM183.171 28.6744C181.812 28.6744 180.705 27.5685 180.705 26.209C180.705 24.849 181.812 23.7431 183.171 23.7431C184.531 23.7431 185.637 24.849 185.637 26.209C185.637 27.5685 184.531 28.6744 183.171 28.6744Z" fill="#146BA2"/>
<path d="M184.863 37.9308C184.649 37.9308 184.476 37.7577 184.476 37.5438V35.8381C184.476 35.6247 184.649 35.4516 184.863 35.4516C185.077 35.4516 185.25 35.6247 185.25 35.8381V37.5438C185.25 37.7577 185.077 37.9308 184.863 37.9308Z" fill="#F03D5F"/>
<path d="M184.863 40.9156C184.649 40.9156 184.476 40.7421 184.476 40.5287V38.8229C184.476 38.6091 184.649 38.436 184.863 38.436C185.077 38.436 185.25 38.6091 185.25 38.8229V40.5287C185.25 40.7421 185.077 40.9156 184.863 40.9156Z" fill="#F03D5F"/>
<path d="M187.258 38.5704H185.725C185.512 38.5704 185.339 38.3973 185.339 38.1835C185.339 37.9696 185.512 37.7965 185.725 37.7965H187.258C187.471 37.7965 187.644 37.9696 187.644 38.1835C187.644 38.3973 187.471 38.5704 187.258 38.5704Z" fill="#F03D5F"/>
<path d="M184.001 38.5704H182.469C182.255 38.5704 182.082 38.3973 182.082 38.1835C182.082 37.9696 182.255 37.7965 182.469 37.7965H184.001C184.215 37.7965 184.388 37.9696 184.388 38.1835C184.388 38.3973 184.215 38.5704 184.001 38.5704Z" fill="#F03D5F"/>
<path d="M170.155 24.2379C169.942 24.2379 169.769 24.0653 169.769 23.8514V22.1457C169.769 21.9323 169.942 21.7587 170.155 21.7587C170.369 21.7587 170.542 21.9323 170.542 22.1457V23.8514C170.542 24.0653 170.369 24.2379 170.155 24.2379Z" fill="#F03D5F"/>
<path d="M170.155 27.2232C169.942 27.2232 169.769 27.0501 169.769 26.8363V25.131C169.769 24.9176 169.942 24.7441 170.155 24.7441C170.369 24.7441 170.542 24.9176 170.542 25.131V26.8363C170.542 27.0501 170.369 27.2232 170.155 27.2232Z" fill="#F03D5F"/>
<path d="M172.549 24.878H171.017C170.804 24.878 170.631 24.7049 170.631 24.4911C170.631 24.2772 170.804 24.1046 171.017 24.1046H172.549C172.763 24.1046 172.936 24.2772 172.936 24.4911C172.936 24.7049 172.763 24.878 172.549 24.878Z" fill="#F03D5F"/>
<path d="M169.293 24.878H167.761C167.548 24.878 167.375 24.7049 167.375 24.4911C167.375 24.2772 167.548 24.1046 167.761 24.1046H169.293C169.507 24.1046 169.68 24.2772 169.68 24.4911C169.68 24.7049 169.507 24.878 169.293 24.878Z" fill="#F03D5F"/>
<path d="M197.392 174.209H186.514C185.034 174.209 183.723 173.078 183.266 171.406L178.653 154.536C178.465 153.846 178.87 153.128 179.478 153.072C187.878 152.299 196.195 152.298 204.43 153.07C205.038 153.127 205.442 153.844 205.253 154.533L200.639 171.406C200.182 173.078 198.871 174.209 197.392 174.209Z" fill="#F03D5F"/>
<path d="M204.287 154.297C204.287 154.745 198.798 155.109 192.027 155.109C185.257 155.109 179.767 154.745 179.767 154.297C179.767 153.848 185.257 153.484 192.027 153.484C198.798 153.484 204.287 153.848 204.287 154.297Z" fill="#2C375C"/>
<path d="M205.912 131.497C201.5 130.335 194.759 139.492 192.712 148.42V135.412C193.741 133.587 195.703 130.841 199.265 127.94C204.805 123.429 209.905 117.638 205.485 116.474C201.343 115.383 195.149 123.388 192.712 131.759V115.054C193.425 113.946 194.595 112.492 196.464 110.97C199.955 108.127 203.169 104.477 200.384 103.744C197.967 103.107 194.44 107.386 192.712 112.212V106.798C192.998 105.123 193.402 102.731 194.51 100.285C197.077 94.6192 198.464 88.7808 195.079 89.2149C191.69 89.6499 189.493 99.7415 191.346 107.489V110.275C190.094 104.605 185.799 98.7336 182.996 99.4722C180.211 100.206 183.425 103.855 186.917 106.699C189.574 108.863 190.818 110.889 191.346 111.979V125.138C189.338 116.165 182.549 106.904 178.114 108.072C173.695 109.236 178.794 115.026 184.334 119.538C188.52 122.948 190.497 126.142 191.346 127.88V143.66C189.2 134.852 182.585 125.962 178.234 127.108C173.815 128.272 177.605 132.504 183.831 137.621C188.062 141.1 190.328 144.77 191.346 146.766V154.199C191.84 154.337 192.302 154.337 192.712 154.199V151.241C193.578 149.49 195.557 146.331 199.692 142.963C205.232 138.451 210.331 132.661 205.912 131.497Z" fill="#3C8E8B"/>
<path d="M153.489 166.904V170.195L156.499 170.147L156.695 166.659L153.489 166.904Z" fill="#F68A85"/>
<path d="M154.014 169.89C154.014 169.89 153.259 168.899 152.668 168.948C152.078 168.998 147.56 172.674 146.002 172.991C144.444 173.308 144.76 174.455 145.053 175.039C145.346 175.624 157.423 174.885 157.423 174.885C157.423 174.885 157.802 171.048 157.391 169.945C156.981 168.842 155.238 170.138 154.014 169.89Z" fill="#146BA2"/>
<path d="M151.523 172.448C151.579 172.464 151.64 172.458 151.694 172.426C151.798 172.365 151.833 172.231 151.772 172.127C151.752 172.092 151.265 171.269 150.62 170.953C149.761 170.531 149.1 171.022 149.072 171.043C148.976 171.116 148.958 171.253 149.031 171.35C149.104 171.446 149.241 171.464 149.338 171.391C149.355 171.378 149.816 171.047 150.427 171.346C150.953 171.604 151.39 172.34 151.394 172.348C151.424 172.399 151.471 172.432 151.523 172.448Z" fill="white"/>
<path d="M152.168 171.823C152.223 171.839 152.285 171.834 152.339 171.802C152.443 171.742 152.478 171.607 152.418 171.503C152.397 171.468 151.911 170.645 151.265 170.329C150.405 169.907 149.746 170.397 149.718 170.419C149.622 170.492 149.603 170.629 149.676 170.725C149.749 170.822 149.886 170.84 149.982 170.767C150.001 170.754 150.461 170.423 151.072 170.722C151.601 170.98 152.035 171.716 152.039 171.724C152.069 171.774 152.116 171.809 152.168 171.823Z" fill="white"/>
<path d="M150.645 172.957C150.7 172.973 150.762 172.967 150.816 172.936C150.92 172.875 150.955 172.741 150.895 172.637C150.874 172.601 150.387 171.779 149.742 171.463C148.882 171.04 148.223 171.531 148.195 171.552C148.098 171.626 148.08 171.763 148.152 171.859C148.226 171.955 148.363 171.974 148.459 171.9C148.478 171.887 148.938 171.556 149.549 171.856C150.078 172.114 150.512 172.85 150.516 172.857C150.546 172.908 150.593 172.943 150.645 172.957Z" fill="white"/>
<path d="M150.834 111.778C151.118 121.823 152.1 155.972 152.631 166.954H157.429C157.429 166.954 157.476 153.735 158.377 145.012C158.913 139.82 160.06 121.291 160.633 111.778H150.834Z" fill="#333333"/>
<path d="M152.101 165.221L152.317 167.418H158.073L158.246 165.221H152.101Z" fill="#333333"/>
<path d="M163.865 166.703L163.987 169.991L166.994 169.831L167.06 166.338L163.865 166.703Z" fill="#F68A85"/>
<path d="M165.343 169.104C165.343 169.104 166.946 168.752 167.384 168.78C167.822 168.808 170.611 172.222 171.592 172.459C173.369 172.89 173.246 175.69 172.149 175.78C168.976 176.041 163.637 174.468 163.637 174.468C163.637 174.468 163.3 170.854 163.566 169.736C163.832 168.618 164.446 169.396 165.343 169.104Z" fill="#146BA2"/>
<path d="M167.819 172.287C167.761 172.296 167.701 172.284 167.651 172.247C167.553 172.175 167.533 172.038 167.605 171.941C167.629 171.909 168.2 171.142 168.876 170.897C169.775 170.569 170.379 171.127 170.405 171.151C170.492 171.234 170.497 171.372 170.413 171.46C170.331 171.548 170.192 171.552 170.105 171.469C170.088 171.454 169.666 171.075 169.025 171.308C168.475 171.508 167.962 172.194 167.957 172.201C167.922 172.248 167.872 172.277 167.819 172.287Z" fill="white"/>
<path d="M167.244 171.598C167.187 171.608 167.126 171.595 167.076 171.558C166.979 171.487 166.959 171.35 167.03 171.252C167.054 171.22 167.625 170.453 168.301 170.208C169.201 169.88 169.804 170.438 169.83 170.462C169.918 170.545 169.921 170.684 169.839 170.771C169.756 170.859 169.617 170.863 169.529 170.78C169.513 170.765 169.091 170.387 168.451 170.619C167.897 170.82 167.387 171.505 167.382 171.513C167.347 171.559 167.297 171.589 167.244 171.598Z" fill="white"/>
<path d="M168.637 172.887C168.581 172.897 168.52 172.885 168.47 172.848C168.372 172.775 168.352 172.639 168.424 172.542C168.448 172.509 169.019 171.742 169.695 171.497C170.595 171.17 171.198 171.727 171.224 171.752C171.311 171.834 171.315 171.973 171.232 172.061C171.15 172.148 171.011 172.152 170.923 172.069C170.907 172.054 170.484 171.676 169.844 171.909C169.291 172.109 168.781 172.794 168.776 172.802C168.741 172.848 168.691 172.878 168.637 172.887Z" fill="white"/>
<path d="M160.011 111.778C160.584 121.291 161.731 139.82 162.266 145.012C163.168 153.735 163.214 166.954 163.214 166.954H168.012C168.543 155.972 169.525 121.823 169.81 111.778H160.011Z" fill="#333333"/>
<path d="M168.543 165.221L168.326 167.418H162.571L162.398 165.221H168.543Z" fill="#333333"/>
<path d="M154.619 86.7844C151.641 91.1552 143.591 94.9679 143.591 94.9679C140.632 94.3401 138.756 93.4512 136.893 92.4255C137.445 91.104 137.685 89.7623 137.991 88.0185C140.74 88.7837 143.114 89.1922 143.114 89.1922C148.918 86.5023 155.731 72.9356 155.731 72.9356C157.611 76.8018 154.619 86.7844 154.619 86.7844Z" fill="#146BA2"/>
<path d="M154.619 86.7844C151.641 91.1552 143.591 94.9679 143.591 94.9679C140.632 94.3401 138.756 93.4512 136.893 92.4255C137.445 91.104 137.685 89.7623 137.991 88.0185C140.74 88.7837 143.114 89.1922 143.114 89.1922C148.918 86.5023 155.731 72.9356 155.731 72.9356C157.611 76.8018 154.619 86.7844 154.619 86.7844Z" fill="black" fill-opacity="0.2"/>
<path d="M172.92 79.6708C170.508 81.8134 167.679 80.8527 164.077 79.0211C160.473 77.1899 162.783 80.7918 159.248 81.405C155.713 82.0186 156.127 73.2682 155.887 68.897C155.737 66.1554 154.649 62.7059 154.649 61.3189V61.3001C154.631 61.0698 154.621 60.8399 154.619 60.6133C154.592 57.286 156.643 51.209 163.858 52.1748C163.858 52.1748 169.845 52.858 170.527 58.7088C170.527 58.7088 170.811 61.4077 170.999 63.3626C171.534 68.897 173.575 66.0121 172.92 72.7572C172.704 74.9882 175.742 77.1656 172.92 79.6708Z" fill="#2C375C"/>
<path d="M150.884 112.768C156.772 117.108 170.394 112.997 170.394 112.997C171.928 111.123 169.799 106.84 169.174 101.826C168.647 97.6039 169.254 91.8776 170.032 87.6423C170.177 86.8501 170.329 86.1088 170.481 85.4393C171.438 81.1985 171.534 74.1164 171.534 74.1164C170.794 73.7363 169.603 73.2267 168.395 72.7362C167.644 72.4312 166.885 72.1331 166.225 71.8758C165.051 71.4193 164.177 71.0955 164.177 71.0955L159.319 71.8401L158.362 72.1331L156.782 72.6153L155.731 72.9354C155.731 72.9354 154.985 77.7316 154.274 80.6435C154.079 81.4408 153.886 82.0983 153.713 82.4766C152.901 84.2363 153.103 85.0885 153.954 87.4175C154.155 87.9693 154.289 88.5554 154.358 89.1928C154.377 89.3513 154.39 89.5129 154.401 89.6782C154.525 91.6459 154.138 94.0875 153.5 97.3928C152.753 101.249 150.932 108.689 150.307 111.218C150.161 111.805 150.398 112.409 150.884 112.768Z" fill="#146BA2"/>
<path d="M157.1 61.7029C157.1 61.7029 156.069 60.3974 155.302 61.4772C154.536 62.5569 155.62 65.7459 157.496 64.9674L157.1 61.7029Z" fill="#F3665C"/>
<path d="M156.656 64.7459C156.656 64.9351 156.503 65.0885 156.313 65.0885C156.124 65.0885 155.97 64.9351 155.97 64.7459C155.97 64.5564 156.124 64.403 156.313 64.403C156.503 64.403 156.656 64.5564 156.656 64.7459Z" fill="white"/>
<path d="M157.086 63.982C157.017 63.982 156.954 63.9385 156.934 63.8721C156.643 62.8876 155.569 62.4883 155.559 62.4842C155.477 62.4544 155.436 62.3679 155.467 62.29C155.497 62.2122 155.589 62.1732 155.671 62.2026C155.721 62.2204 156.904 62.6568 157.239 63.7906C157.263 63.8707 157.213 63.9536 157.13 63.9765L157.086 63.982Z" fill="#CE4045"/>
<path d="M156.003 63.4859L155.917 63.4621C155.843 63.4168 155.822 63.3234 155.87 63.2538C155.877 63.2419 156.067 62.9667 156.465 62.7977C156.544 62.7638 156.638 62.7977 156.674 62.8737C156.71 62.9497 156.674 63.0385 156.594 63.0724C156.287 63.2034 156.138 63.415 156.136 63.4168C156.106 63.4617 156.055 63.4859 156.003 63.4859Z" fill="#CE4045"/>
<path d="M165.045 68.3746V71.8918C165.045 71.8918 163.226 73.6896 161.808 73.8114C160.391 73.9351 159.9 72.2628 159.9 72.2628V68.6219L165.045 68.3746Z" fill="#F68A85"/>
<path d="M165.045 68.7577V70.3183C164.093 71.3747 162.403 71.7488 159.901 71.3797L159.9 69.005L165.045 68.7577Z" fill="#F3665C"/>
<path d="M156.48 63.1903C156.525 63.5681 156.579 63.9523 156.647 64.3351C157.096 66.8793 158.705 69.6272 160.737 70.0884C165.125 71.0843 166.947 67.638 167.648 65.0957C167.726 64.8132 167.581 64.4899 167.642 64.1556C167.787 63.3634 168.107 62.4631 168.18 61.5757C168.23 60.9607 168.266 60.354 168.292 59.8058C168.363 58.2594 167.467 56.839 166.068 56.284C164.05 55.4817 160.988 54.8466 158.087 56.5478C157.015 57.1765 156.343 58.34 156.319 59.6135C156.301 60.5861 156.325 61.8582 156.48 63.1903Z" fill="#F68A85"/>
<path d="M161.835 65.1588C161.916 65.1588 161.988 65.1002 162.002 65.0168C162.018 64.9239 161.955 64.8359 161.863 64.8204L161.277 64.7219L162.084 62.5747C162.117 62.4864 162.072 62.3879 161.984 62.3554C161.896 62.3224 161.798 62.3664 161.765 62.4548L160.813 64.9898L161.806 65.1565L161.835 65.1588Z" fill="#F3665C"/>
<path d="M158.17 58.9049C156.454 59.687 156.999 61.7248 156.42 62.7473C156.383 62.8137 156.344 62.8251 156.302 62.7912C156.139 61.4335 156.113 60.1367 156.132 59.1453C156.158 57.8471 156.867 56.6616 157.996 56.0205C161.054 54.2864 164.283 54.9339 166.409 55.7512C167.885 56.3172 168.829 57.7651 168.753 59.3413C168.726 59.9 168.689 60.5186 168.636 61.1455C168.351 61.3149 167.656 61.3923 167.627 61.8498C167.55 63.06 167.491 63.888 167.238 63.8161C166.812 63.6929 166.547 62.2271 167.035 61.2801C167.035 61.2801 166.643 60.6418 165.045 60.0263C162.995 59.2364 161.022 58.0669 161.022 58.0669C161.022 58.0669 160.244 57.598 159.945 57.087C159.945 57.087 159.476 58.3092 158.17 58.9049Z" fill="#2C375C"/>
<path d="M159.839 62.3171C159.839 62.6926 159.645 62.9967 159.406 62.9967C159.167 62.9967 158.974 62.6926 158.974 62.3171C158.974 61.9416 159.167 61.6371 159.406 61.6371C159.645 61.6371 159.839 61.9416 159.839 62.3171Z" fill="#2C375C"/>
<path d="M164.509 62.3171C164.509 62.6926 164.316 62.9967 164.077 62.9967C163.838 62.9967 163.645 62.6926 163.645 62.3171C163.645 61.9416 163.838 61.6371 164.077 61.6371C164.316 61.6371 164.509 61.9416 164.509 62.3171Z" fill="#2C375C"/>
<path d="M158.242 60.5343C158.589 60.4665 159.292 60.3547 160.04 60.3813C160.238 60.3882 160.396 60.5365 160.368 60.6931L160.367 60.6973C160.346 60.8223 160.212 60.9065 160.054 60.8946C159.544 60.8562 158.21 60.8644 157.589 61.0494C157.572 60.9597 157.632 60.8639 157.72 60.7806C157.853 60.6538 158.039 60.5736 158.242 60.5343Z" fill="#2C375C"/>
<path d="M165.191 60.6164C164.844 60.544 164.143 60.4222 163.394 60.4387C163.197 60.4428 163.038 60.5889 163.063 60.746L163.063 60.7501C163.083 60.8756 163.216 60.9616 163.373 60.9516C163.884 60.9204 165.218 60.9465 165.836 61.1402C165.855 61.0505 165.796 60.9543 165.71 60.8691C165.579 60.7409 165.393 60.6585 165.191 60.6164Z" fill="#2C375C"/>
<path d="M159.945 66.1736C160.072 66.7712 160.491 67.8702 161.906 67.8702C163.324 67.8702 163.721 66.8655 163.858 66.1736H159.945Z" fill="white"/>
<path d="M161.885 68.8971C161.477 68.8971 161.117 68.6773 161.102 68.6676C161.023 68.6191 160.999 68.5165 161.047 68.4378C161.096 68.3595 161.198 68.3352 161.277 68.3833C161.28 68.3851 161.574 68.5628 161.885 68.5628C162.222 68.5628 162.524 68.3847 162.527 68.3828C162.607 68.3352 162.709 68.3608 162.756 68.4396C162.804 68.5188 162.779 68.6209 162.7 68.6686C162.685 68.6782 162.318 68.8971 161.885 68.8971Z" fill="#F3665C"/>
<path d="M167.668 61.6922C167.668 61.6922 168.867 60.2378 169.574 61.2865C170.281 62.3351 169.281 65.432 167.55 64.676L167.668 61.6922Z" fill="#F68A85"/>
<path d="M168.638 64.7459C168.638 64.9351 168.485 65.0885 168.295 65.0885C168.106 65.0885 167.952 64.9351 167.952 64.7459C167.952 64.5564 168.106 64.403 168.295 64.403C168.485 64.403 168.638 64.5564 168.638 64.7459Z" fill="white"/>
<path d="M167.928 63.7193C167.992 63.7193 168.05 63.6772 168.069 63.6126C168.337 62.6565 169.327 62.2686 169.338 62.265C169.413 62.2361 169.451 62.1519 169.422 62.0763C169.394 62.0008 169.309 61.9627 169.234 61.9916C169.188 62.009 168.096 62.4326 167.787 63.5334C167.765 63.6113 167.81 63.6923 167.888 63.7138L167.928 63.7193Z" fill="#F3665C"/>
<path d="M168.928 63.2374L169.007 63.2145C169.075 63.1705 169.094 63.0799 169.05 63.0121C169.043 63.0006 168.868 62.7332 168.501 62.5693C168.428 62.5363 168.341 62.5693 168.308 62.643C168.275 62.7167 168.308 62.8033 168.382 62.8363C168.665 62.9631 168.803 63.1682 168.805 63.1705C168.833 63.214 168.88 63.2374 168.928 63.2374Z" fill="#F3665C"/>
<path d="M143.519 93.9534L139.308 97.1831C138.776 97.5911 138.014 97.4903 137.606 96.9578L129.425 86.2924L126.042 81.8822L132.179 77.1735L134.183 79.7864L143.743 92.2509C144.152 92.782 144.051 93.5445 143.519 93.9534Z" fill="#3566BA"/>
<path d="M134.183 79.7865C133.33 81.7958 131.864 84.3208 129.425 86.2926L126.042 81.8824L132.179 77.1736L134.183 79.7865Z" fill="#3550AA"/>
<path d="M156.124 114.356L155.747 114.646C154.799 115.373 153.441 115.194 152.714 114.246L139.508 97.0291L143.319 94.1062L156.524 111.324C157.251 112.271 157.072 113.629 156.124 114.356Z" fill="#2C375C"/>
<path d="M128.466 78.5339C120.439 84.756 108.846 83.287 102.625 75.2607C96.4023 67.2334 97.87 55.6403 105.897 49.4181C113.925 43.196 125.517 44.665 131.739 52.6922C137.961 60.7186 136.493 72.3112 128.466 78.5339ZM103.854 46.7814C94.3568 54.1425 92.6268 67.8081 99.9878 77.3048C107.348 86.8002 121.014 88.532 130.51 81.1706C140.007 73.8095 141.737 60.1439 134.376 50.6486C127.015 41.1518 113.35 39.4204 103.854 46.7814Z" fill="#2C375C"/>
<path d="M108.027 79.9483C107.678 79.7482 107.336 79.5371 107.001 79.315L107.951 77.6729H111.436L108.027 79.9483ZM117.59 73.5654H110.326L115.889 63.946H123.396L117.987 73.3008L117.59 73.5654ZM128.742 66.122L130 63.946H132.002L128.742 66.122ZM129.042 54.1809H121.536L125.398 47.5017C127.355 48.478 129.137 49.8005 130.644 51.4105L129.042 54.1809Z" fill="white"/>
<path d="M132.002 63.9459H130L134.14 56.7859C134.471 57.5671 134.752 58.3799 134.976 59.2216C134.985 59.2536 134.993 59.2861 135.002 59.3186C135.166 59.9519 135.296 60.5907 135.392 61.2337V61.6833L132.002 63.9459ZM123.396 63.9459H115.889L121.536 54.1808H129.042L123.396 63.9459Z" fill="#DEF0F1"/>
<path d="M135.392 61.6827V61.233C135.413 61.37 135.432 61.5078 135.449 61.6447L135.392 61.6827Z" fill="#71ADE0"/>
<path d="M111.436 77.6729H107.951L110.326 73.5654H117.59L111.436 77.6729Z" fill="#DEF0F1"/>
<path d="M119.413 82.2555L122.063 77.6726H129.494C129.15 77.9836 128.792 78.2821 128.423 78.5679C127.423 79.3381 126.368 79.9897 125.275 80.5245C124.256 81.0223 123.177 81.4321 122.044 81.7421C121.177 81.9784 120.297 82.1492 119.413 82.2555ZM113.009 81.9084C112.46 81.7811 111.916 81.6286 111.379 81.4514C110.213 81.0621 109.089 80.5575 108.027 79.948L111.436 77.6726H115.459L113.009 81.9084ZM132.898 73.5651H124.438L128.742 66.1217L132.002 63.9457H135.392H135.594C135.595 65.9307 135.277 67.908 134.651 69.796C134.209 71.1162 133.62 72.3805 132.898 73.5651ZM117.833 73.5651H117.59L117.987 73.3004L117.833 73.5651Z" fill="white"/>
<path d="M135.392 63.9459H132.002L135.392 61.6833V63.9459Z" fill="#E8F2F4"/>
<path d="M135.594 63.9459H135.392V61.6833L135.449 61.6453C135.545 62.41 135.593 63.1784 135.594 63.9459Z" fill="#97C2E8"/>
<path d="M129.494 77.6729H122.063L124.438 73.5654H132.898C131.972 75.0839 130.827 76.4705 129.494 77.6729ZM115.459 77.6729H111.436L117.59 73.5654H117.833L115.459 77.6729Z" fill="#E8F2F4"/>
<path d="M100.337 71.4308C99.9567 70.5708 99.638 69.6692 99.388 68.7323C99.3802 68.7048 99.3733 68.6778 99.366 68.6503C99.3573 68.6164 99.3486 68.583 99.3399 68.5491C100.028 68.3064 100.48 67.7967 100.492 67.4391C100.506 67.0499 100.052 66.8269 100.052 66.8269C100.052 66.8269 100.388 66.5452 100.371 66.134C100.352 65.7228 99.6453 65.3244 99.6453 65.3244C99.6453 65.3244 99.9846 64.9036 99.6893 64.4864C99.5885 64.3445 99.4026 64.2973 99.2007 64.2973C99.0578 64.2973 98.9072 64.3207 98.7734 64.3509C98.7725 64.3065 98.7721 64.2616 98.7716 64.2172C98.8943 64.1389 99.0372 64.0468 99.1906 63.9456H104.665L100.337 71.4308ZM110.312 54.1806H101.594C102.746 52.3448 104.221 50.7086 105.964 49.3669C106.944 48.6146 107.975 47.9763 109.044 47.4496C110.083 46.9386 111.186 46.5187 112.343 46.2037C113.296 45.9458 114.264 45.7663 115.236 45.6647L110.312 54.1806Z" fill="white"/>
<path d="M104.665 63.9459H99.1906C100.1 63.3451 101.37 62.4297 100.887 62.2887C100.843 62.2759 100.79 62.2699 100.729 62.2699C100.317 62.2699 99.5496 62.5469 98.8046 62.8615C98.9007 61.2941 99.1956 59.7399 99.6838 58.2421C100.155 56.8138 100.797 55.4497 101.594 54.1808H110.312L104.665 63.9459Z" fill="#DEF0F1"/>
<path d="M99.3399 68.5494C98.9882 67.1688 98.8005 65.7589 98.7735 64.3512C98.9072 64.321 99.0578 64.2976 99.2007 64.2976C99.4026 64.2976 99.5886 64.3448 99.6893 64.4868C99.9847 64.9039 99.6453 65.3247 99.6453 65.3247C99.6453 65.3247 100.352 65.7231 100.371 66.1344C100.388 66.5456 100.052 66.8272 100.052 66.8272C100.052 66.8272 100.506 67.0502 100.492 67.4394C100.48 67.7971 100.028 68.3067 99.3399 68.5494ZM98.7716 64.2175C98.7661 63.7646 98.7771 63.3131 98.8046 62.8616C99.5496 62.547 100.317 62.27 100.729 62.27C100.79 62.27 100.843 62.2759 100.887 62.2888C101.37 62.4298 100.101 63.3452 99.1906 63.946C99.0372 64.0472 98.8944 64.1392 98.7716 64.2175Z" fill="#FAC0B8"/>
<path d="M119.409 82.2613L119.413 82.2554C120.297 82.1491 121.177 81.9783 122.044 81.742C122.009 81.7517 121.973 81.7613 121.937 81.7709C121.096 81.9957 120.252 82.1587 119.409 82.2613ZM113.006 81.9128C112.456 81.7837 111.913 81.6299 111.379 81.4513C111.916 81.6285 112.46 81.781 113.009 81.9083L113.006 81.9128ZM125.274 80.5244C126.368 79.9896 127.423 79.338 128.423 78.5678C127.453 79.3165 126.401 79.974 125.274 80.5244ZM134.651 69.7959C135.277 67.9079 135.595 65.9306 135.594 63.9456C135.593 63.1781 135.545 62.4097 135.449 61.645C135.432 61.5081 135.413 61.3702 135.392 61.2333C135.296 60.5904 135.166 59.9516 135.002 59.3183C135.938 62.9001 135.748 66.5191 134.651 69.7959ZM99.366 68.6502C98.4332 65.0945 98.6104 61.5007 99.6838 58.2417C99.1956 59.7396 98.9007 61.2938 98.8046 62.8612C98.7771 63.3127 98.7661 63.7642 98.7716 64.2171C98.7721 64.2615 98.7725 64.3064 98.7734 64.3508C98.8005 65.7584 98.9882 67.1684 99.3399 68.549C99.3486 68.5829 99.3573 68.6163 99.366 68.6502ZM105.964 49.3668C106.914 48.6351 107.944 47.9913 109.044 47.4496C107.975 47.9762 106.944 48.6145 105.964 49.3668ZM117.177 45.5542C116.535 45.5542 115.889 45.5881 115.24 45.6573L115.236 45.6646C114.264 45.7663 113.296 45.9458 112.343 46.2036C112.371 46.1962 112.398 46.1884 112.426 46.1811C113.364 45.9306 114.303 45.7571 115.24 45.6573C115.889 45.5881 116.535 45.5542 117.177 45.5542Z" fill="#7694A6"/>
<path d="M107.001 79.3145C106.255 78.82 105.544 78.2714 104.875 77.6725H107.951L107.001 79.3145ZM110.326 73.5649H101.455C101.119 73.0154 100.815 72.4531 100.544 71.8812C100.473 71.7324 100.404 71.5822 100.337 71.4306L104.666 63.9455H115.889L110.326 73.5649ZM121.536 54.1804H110.312L115.236 45.6645C115.877 45.5977 116.519 45.5642 117.161 45.5642C119.164 45.5642 121.159 45.8884 123.062 46.5268C123.863 46.7983 124.644 47.1244 125.398 47.5012L121.536 54.1804Z" fill="white"/>
<path d="M115.889 63.9459H104.665L110.312 54.1808H121.536L115.889 63.9459Z" fill="#EEF7F7"/>
<path d="M107.951 77.6729H104.875C104.09 76.97 103.362 76.1971 102.703 75.3614C102.677 75.328 102.651 75.295 102.625 75.2611C102.199 74.7111 101.809 74.1456 101.455 73.5654H110.326L107.951 77.6729Z" fill="#EEF7F7"/>
<path d="M102.703 75.3609C101.866 74.299 101.139 73.135 100.544 71.8812C100.815 72.4532 101.119 73.0155 101.455 73.565C101.809 74.1452 102.199 74.7107 102.625 75.2606C102.651 75.2945 102.677 75.3275 102.703 75.3609ZM123.062 46.5268C121.159 45.8885 119.164 45.5643 117.161 45.5643C116.519 45.5643 115.877 45.5977 115.236 45.6646L115.24 45.6572C115.889 45.5881 116.535 45.5542 117.177 45.5542C119.204 45.5542 121.189 45.8921 123.062 46.5268Z" fill="#B7C2CA"/>
<path d="M117.987 73.3004L123.396 63.9456H130L128.742 66.1216L117.987 73.3004ZM132.781 54.1805H129.042L130.644 51.4101C131.134 51.9331 131.595 52.4871 132.024 53.0692C132.292 53.4327 132.544 53.8041 132.781 54.1805Z" fill="white"/>
<path d="M130 63.9459H123.396L129.042 54.1808H132.781C132.92 54.4015 133.053 54.6236 133.182 54.8489C133.536 55.4698 133.856 56.116 134.14 56.7859L130 63.9459Z" fill="#EEF7F7"/>
<path d="M117.203 82.3878C115.791 82.3878 114.383 82.2271 113.009 81.9083L115.459 77.6726H122.063L119.413 82.2554C118.678 82.3438 117.94 82.3878 117.203 82.3878ZM124.438 73.5651H117.833L117.987 73.3004L128.742 66.1217L124.438 73.5651Z" fill="white"/>
<path d="M122.063 77.6729H115.459L117.833 73.5654H124.438L122.063 77.6729Z" fill="#F5F8F9"/>
<path d="M117.186 82.3976C115.764 82.3976 114.363 82.2313 113.006 81.9131L113.009 81.9085C114.383 82.2272 115.791 82.3879 117.203 82.3879C117.94 82.3879 118.678 82.344 119.413 82.2556L119.409 82.2616C118.665 82.3527 117.923 82.3976 117.186 82.3976ZM133.182 54.8488C133.053 54.6235 132.92 54.4014 132.781 54.1807C132.544 53.8043 132.292 53.4329 132.024 53.0693C132.442 53.6362 132.828 54.2297 133.182 54.8488Z" fill="#B7C2CA"/>
<path d="M152.468 103.13H151.727C151.065 103.13 150.562 102.74 150.264 102.148C150.132 101.887 149.954 101.408 149.831 101.243C149.484 100.781 148.539 100.006 148.185 99.9823C147.831 99.9585 147.896 100.617 148.147 100.906C148.397 101.195 148.791 101.563 149.003 101.971C149.215 102.379 147.27 103.207 146.481 103.399C145.692 103.592 144.305 103.169 144.171 103.823C144.036 104.478 145.075 104.574 145.075 104.574C145.075 104.574 144.771 105.164 145.634 105.652C145.634 105.652 145.48 106.23 146.038 106.538C146.038 106.538 145.975 107.27 146.623 107.462C147.27 107.654 149.292 108.241 153.258 105.834L152.468 103.13Z" fill="#F68A85"/>
<path d="M166.46 86.3921C165.757 91.1682 163.524 94.6767 163.524 94.6767C163.524 94.6767 161.432 97.0199 157.979 99.4487C155.581 101.136 151.727 103.13 151.727 103.13C152.392 103.994 152.861 105.703 152.605 106.214C159.947 104.567 167.285 98.3822 167.285 98.3822C173.022 91.7287 172.912 76.8784 172.912 76.8784C172.912 76.8784 172.725 74.6758 171.534 74.1163C171.534 74.1163 169.131 75.0115 168.295 77.8309C167.46 80.6503 166.46 86.3921 166.46 86.3921Z" fill="#146BA2"/>
<path d="M166.46 86.3921C165.757 91.1682 163.524 94.6767 163.524 94.6767C163.524 94.6767 161.432 97.0199 157.979 99.4487C155.581 101.136 151.727 103.13 151.727 103.13C152.392 103.994 152.861 105.703 152.605 106.214C159.947 104.567 167.285 98.3822 167.285 98.3822C173.022 91.7287 172.912 76.8784 172.912 76.8784C172.912 76.8784 172.725 74.6758 171.534 74.1163C171.534 74.1163 169.131 75.0115 168.295 77.8309C167.46 80.6503 166.46 86.3921 166.46 86.3921Z" fill="black" fill-opacity="0.2"/>
<path d="M129.792 87.2371C129.792 87.2371 131.574 86.6075 132.393 86.9482C133.212 87.2888 130.943 88.5184 130.943 88.5184C130.943 88.5184 133.694 87.0539 134.169 87.6442C134.644 88.2345 132.012 89.7332 132.012 89.7332C132.012 89.7332 134.028 89.0248 134.436 89.4406C134.846 89.8569 132.967 91.0314 132.967 91.0314C132.967 91.0314 134.621 90.6321 134.966 90.9128C135.311 91.194 133.845 92.3713 132.915 92.6836C131.984 92.9954 131.834 91.6849 131.834 91.6849C131.834 91.6849 130.959 90.9142 131.075 90.3793C131.075 90.3793 130.167 89.7666 130.103 89.1407C130.103 89.1407 128.821 88.0124 129.792 87.2371Z" fill="#F68A85"/>
<path d="M4.91699 201.929L1.62207 211H0.275391L4.06934 201.047H4.9375L4.91699 201.929ZM7.67871 211L4.37695 201.929L4.35645 201.047H5.22461L9.03223 211H7.67871ZM7.50781 207.315V208.396H1.91602V207.315H7.50781ZM14.8359 209.564V200.5H16.1074V211H14.9453L14.8359 209.564ZM9.85938 207.384V207.24C9.85938 206.675 9.92773 206.162 10.0645 205.702C10.2057 205.237 10.404 204.839 10.6592 204.506C10.9189 204.173 11.2266 203.918 11.582 203.74C11.9421 203.558 12.3431 203.467 12.7852 203.467C13.25 203.467 13.6556 203.549 14.002 203.713C14.3529 203.872 14.6491 204.107 14.8906 204.417C15.1367 204.722 15.3304 205.091 15.4717 205.524C15.613 205.957 15.7109 206.447 15.7656 206.994V207.623C15.7155 208.165 15.6175 208.653 15.4717 209.086C15.3304 209.519 15.1367 209.888 14.8906 210.193C14.6491 210.499 14.3529 210.733 14.002 210.897C13.651 211.057 13.2409 211.137 12.7715 211.137C12.3385 211.137 11.9421 211.043 11.582 210.856C11.2266 210.67 10.9189 210.408 10.6592 210.07C10.404 209.733 10.2057 209.337 10.0645 208.881C9.92773 208.421 9.85938 207.922 9.85938 207.384ZM11.1309 207.24V207.384C11.1309 207.753 11.1673 208.099 11.2402 208.423C11.3177 208.746 11.4362 209.031 11.5957 209.277C11.7552 209.523 11.958 209.717 12.2041 209.858C12.4502 209.995 12.7441 210.063 13.0859 210.063C13.5052 210.063 13.8493 209.975 14.1182 209.797C14.3916 209.619 14.6104 209.384 14.7744 209.093C14.9385 208.801 15.0661 208.484 15.1572 208.143V206.495C15.1025 206.244 15.0228 206.003 14.918 205.771C14.8177 205.534 14.6855 205.324 14.5215 205.142C14.362 204.955 14.1637 204.807 13.9268 204.697C13.6943 204.588 13.4186 204.533 13.0996 204.533C12.7533 204.533 12.4548 204.606 12.2041 204.752C11.958 204.893 11.7552 205.089 11.5957 205.34C11.4362 205.586 11.3177 205.873 11.2402 206.201C11.1673 206.525 11.1309 206.871 11.1309 207.24ZM18.1104 203.604H19.3818V211.882C19.3818 212.333 19.3089 212.716 19.1631 213.03C19.0218 213.345 18.8076 213.582 18.5205 213.741C18.238 213.905 17.8802 213.987 17.4473 213.987C17.3333 213.987 17.2012 213.976 17.0508 213.953C16.8958 213.93 16.766 213.903 16.6611 213.871L16.668 212.853C16.7546 212.871 16.8525 212.884 16.9619 212.894C17.0713 212.907 17.167 212.914 17.249 212.914C17.4359 212.914 17.5931 212.88 17.7207 212.812C17.8483 212.743 17.944 212.634 18.0078 212.483C18.0762 212.333 18.1104 212.132 18.1104 211.882V203.604ZM17.9805 201.642C17.9805 201.437 18.0443 201.263 18.1719 201.122C18.2995 200.981 18.484 200.91 18.7256 200.91C18.9717 200.91 19.1585 200.981 19.2861 201.122C19.4137 201.263 19.4775 201.437 19.4775 201.642C19.4775 201.838 19.4137 202.006 19.2861 202.147C19.1585 202.284 18.9717 202.353 18.7256 202.353C18.484 202.353 18.2995 202.284 18.1719 202.147C18.0443 202.006 17.9805 201.838 17.9805 201.642ZM25.9512 209.291V203.604H27.2227V211H26.0127L25.9512 209.291ZM26.1904 207.732L26.7168 207.719C26.7168 208.211 26.6644 208.667 26.5596 209.086C26.4593 209.501 26.2952 209.861 26.0674 210.166C25.8395 210.471 25.541 210.711 25.1719 210.884C24.8027 211.052 24.3538 211.137 23.8252 211.137C23.4652 211.137 23.1348 211.084 22.834 210.979C22.5378 210.875 22.2826 210.713 22.0684 210.494C21.8542 210.275 21.6878 209.991 21.5693 209.64C21.4554 209.289 21.3984 208.867 21.3984 208.375V203.604H22.6631V208.389C22.6631 208.721 22.6995 208.997 22.7725 209.216C22.8499 209.43 22.9525 209.601 23.0801 209.729C23.2122 209.852 23.3581 209.938 23.5176 209.988C23.6816 210.038 23.8503 210.063 24.0234 210.063C24.5612 210.063 24.9873 209.961 25.3018 209.756C25.6162 209.546 25.8418 209.266 25.9785 208.915C26.1198 208.56 26.1904 208.165 26.1904 207.732ZM33.457 209.038C33.457 208.856 33.416 208.687 33.334 208.532C33.2565 208.373 33.0947 208.229 32.8486 208.102C32.6071 207.969 32.2425 207.855 31.7549 207.76C31.3447 207.673 30.9733 207.571 30.6406 207.452C30.3125 207.334 30.0322 207.19 29.7998 207.021C29.5719 206.853 29.3965 206.655 29.2734 206.427C29.1504 206.199 29.0889 205.932 29.0889 205.627C29.0889 205.335 29.1527 205.06 29.2803 204.8C29.4124 204.54 29.597 204.31 29.834 204.109C30.0755 203.909 30.3649 203.752 30.7021 203.638C31.0394 203.524 31.4154 203.467 31.8301 203.467C32.4225 203.467 32.9284 203.572 33.3477 203.781C33.7669 203.991 34.0882 204.271 34.3115 204.622C34.5348 204.968 34.6465 205.354 34.6465 205.777H33.3818C33.3818 205.572 33.3203 205.374 33.1973 205.183C33.0788 204.987 32.9033 204.825 32.6709 204.697C32.443 204.57 32.1628 204.506 31.8301 204.506C31.4792 204.506 31.1943 204.561 30.9756 204.67C30.7614 204.775 30.6042 204.909 30.5039 205.073C30.4082 205.237 30.3604 205.41 30.3604 205.593C30.3604 205.729 30.3831 205.853 30.4287 205.962C30.4788 206.067 30.5654 206.165 30.6885 206.256C30.8115 206.342 30.9847 206.424 31.208 206.502C31.4313 206.579 31.7161 206.657 32.0625 206.734C32.6686 206.871 33.1676 207.035 33.5596 207.227C33.9515 207.418 34.2432 207.653 34.4346 207.931C34.626 208.209 34.7217 208.546 34.7217 208.942C34.7217 209.266 34.6533 209.562 34.5166 209.831C34.3844 210.1 34.1908 210.332 33.9355 210.528C33.6849 210.72 33.3841 210.87 33.0332 210.979C32.6868 211.084 32.2972 211.137 31.8643 211.137C31.2126 211.137 30.6611 211.021 30.21 210.788C29.7588 210.556 29.417 210.255 29.1846 209.886C28.9521 209.517 28.8359 209.127 28.8359 208.717H30.1074C30.1257 209.063 30.2259 209.339 30.4082 209.544C30.5905 209.744 30.8138 209.888 31.0781 209.975C31.3424 210.057 31.6045 210.098 31.8643 210.098C32.2106 210.098 32.5 210.052 32.7324 209.961C32.9694 209.87 33.1494 209.744 33.2725 209.585C33.3955 209.425 33.457 209.243 33.457 209.038ZM39.4795 203.604V204.574H35.4805V203.604H39.4795ZM36.834 201.806H38.0986V209.168C38.0986 209.419 38.1374 209.608 38.2148 209.735C38.2923 209.863 38.3926 209.947 38.5156 209.988C38.6387 210.029 38.7708 210.05 38.9121 210.05C39.0169 210.05 39.1263 210.041 39.2402 210.022C39.3587 210 39.4476 209.981 39.5068 209.968L39.5137 211C39.4134 211.032 39.2812 211.062 39.1172 211.089C38.9577 211.121 38.764 211.137 38.5361 211.137C38.2262 211.137 37.9414 211.075 37.6816 210.952C37.4219 210.829 37.2145 210.624 37.0596 210.337C36.9092 210.045 36.834 209.653 36.834 209.161V201.806ZM48.7969 209.735V205.928C48.7969 205.636 48.7376 205.383 48.6191 205.169C48.5052 204.95 48.332 204.782 48.0996 204.663C47.8672 204.545 47.5801 204.485 47.2383 204.485C46.9193 204.485 46.639 204.54 46.3975 204.649C46.1605 204.759 45.9736 204.902 45.8369 205.08C45.7048 205.258 45.6387 205.449 45.6387 205.654H44.374C44.374 205.39 44.4424 205.128 44.5791 204.868C44.7158 204.608 44.9118 204.374 45.167 204.164C45.4268 203.95 45.7367 203.781 46.0967 203.658C46.4613 203.531 46.8669 203.467 47.3135 203.467C47.8512 203.467 48.3252 203.558 48.7354 203.74C49.1501 203.923 49.4736 204.198 49.7061 204.567C49.943 204.932 50.0615 205.39 50.0615 205.941V209.387C50.0615 209.633 50.082 209.895 50.123 210.173C50.1686 210.451 50.2347 210.69 50.3213 210.891V211H49.002C48.9382 210.854 48.888 210.66 48.8516 210.419C48.8151 210.173 48.7969 209.945 48.7969 209.735ZM49.0156 206.516L49.0293 207.404H47.751C47.391 207.404 47.0697 207.434 46.7871 207.493C46.5046 207.548 46.2676 207.632 46.0762 207.746C45.8848 207.86 45.7389 208.004 45.6387 208.177C45.5384 208.345 45.4883 208.544 45.4883 208.771C45.4883 209.004 45.5407 209.216 45.6455 209.407C45.7503 209.599 45.9076 209.751 46.1172 209.865C46.3314 209.975 46.5934 210.029 46.9033 210.029C47.2907 210.029 47.6325 209.947 47.9287 209.783C48.2249 209.619 48.4596 209.419 48.6328 209.182C48.8105 208.945 48.9062 208.715 48.9199 208.491L49.46 209.1C49.4281 209.291 49.3415 209.503 49.2002 209.735C49.0589 209.968 48.8698 210.191 48.6328 210.405C48.4004 210.615 48.1224 210.79 47.7988 210.932C47.4798 211.068 47.1198 211.137 46.7188 211.137C46.2174 211.137 45.7777 211.039 45.3994 210.843C45.0257 210.647 44.734 210.385 44.5244 210.057C44.3193 209.724 44.2168 209.353 44.2168 208.942C44.2168 208.546 44.2943 208.197 44.4492 207.896C44.6042 207.591 44.8275 207.338 45.1191 207.138C45.4108 206.933 45.7617 206.778 46.1719 206.673C46.582 206.568 47.04 206.516 47.5459 206.516H49.0156ZM52.0439 200.5H53.3154V209.564L53.2061 211H52.0439V200.5ZM58.3125 207.24V207.384C58.3125 207.922 58.2487 208.421 58.1211 208.881C57.9935 209.337 57.8066 209.733 57.5605 210.07C57.3145 210.408 57.0137 210.67 56.6582 210.856C56.3027 211.043 55.8949 211.137 55.4346 211.137C54.9652 211.137 54.5527 211.057 54.1973 210.897C53.8464 210.733 53.5501 210.499 53.3086 210.193C53.0671 209.888 52.8734 209.519 52.7275 209.086C52.5863 208.653 52.4883 208.165 52.4336 207.623V206.994C52.4883 206.447 52.5863 205.957 52.7275 205.524C52.8734 205.091 53.0671 204.722 53.3086 204.417C53.5501 204.107 53.8464 203.872 54.1973 203.713C54.5482 203.549 54.9561 203.467 55.4209 203.467C55.8857 203.467 56.2982 203.558 56.6582 203.74C57.0182 203.918 57.319 204.173 57.5605 204.506C57.8066 204.839 57.9935 205.237 58.1211 205.702C58.2487 206.162 58.3125 206.675 58.3125 207.24ZM57.041 207.384V207.24C57.041 206.871 57.0068 206.525 56.9385 206.201C56.8701 205.873 56.7607 205.586 56.6104 205.34C56.46 205.089 56.2617 204.893 56.0156 204.752C55.7695 204.606 55.4665 204.533 55.1064 204.533C54.7874 204.533 54.5094 204.588 54.2725 204.697C54.04 204.807 53.8418 204.955 53.6777 205.142C53.5137 205.324 53.3792 205.534 53.2744 205.771C53.1742 206.003 53.099 206.244 53.0488 206.495V208.143C53.1217 208.462 53.2402 208.769 53.4043 209.065C53.5729 209.357 53.7962 209.596 54.0742 209.783C54.3568 209.97 54.7054 210.063 55.1201 210.063C55.4619 210.063 55.7536 209.995 55.9951 209.858C56.2412 209.717 56.4395 209.523 56.5898 209.277C56.7448 209.031 56.8587 208.746 56.9316 208.423C57.0046 208.099 57.041 207.753 57.041 207.384ZM59.5771 207.384V207.227C59.5771 206.693 59.6546 206.199 59.8096 205.743C59.9645 205.283 60.1878 204.884 60.4795 204.547C60.7712 204.205 61.1243 203.941 61.5391 203.754C61.9538 203.562 62.4186 203.467 62.9336 203.467C63.4531 203.467 63.9202 203.562 64.335 203.754C64.7542 203.941 65.1097 204.205 65.4014 204.547C65.6976 204.884 65.9232 205.283 66.0781 205.743C66.2331 206.199 66.3105 206.693 66.3105 207.227V207.384C66.3105 207.917 66.2331 208.411 66.0781 208.867C65.9232 209.323 65.6976 209.722 65.4014 210.063C65.1097 210.401 64.7565 210.665 64.3418 210.856C63.9316 211.043 63.4668 211.137 62.9473 211.137C62.4277 211.137 61.9606 211.043 61.5459 210.856C61.1312 210.665 60.7757 210.401 60.4795 210.063C60.1878 209.722 59.9645 209.323 59.8096 208.867C59.6546 208.411 59.5771 207.917 59.5771 207.384ZM60.8418 207.227V207.384C60.8418 207.753 60.8851 208.102 60.9717 208.43C61.0583 208.753 61.1882 209.04 61.3613 209.291C61.5391 209.542 61.7601 209.74 62.0244 209.886C62.2887 210.027 62.5964 210.098 62.9473 210.098C63.2936 210.098 63.5967 210.027 63.8564 209.886C64.1208 209.74 64.3395 209.542 64.5127 209.291C64.6859 209.04 64.8158 208.753 64.9023 208.43C64.9935 208.102 65.0391 207.753 65.0391 207.384V207.227C65.0391 206.862 64.9935 206.518 64.9023 206.194C64.8158 205.866 64.6836 205.577 64.5059 205.326C64.3327 205.071 64.1139 204.87 63.8496 204.725C63.5898 204.579 63.2845 204.506 62.9336 204.506C62.5872 204.506 62.2819 204.579 62.0176 204.725C61.7578 204.87 61.5391 205.071 61.3613 205.326C61.1882 205.577 61.0583 205.866 60.9717 206.194C60.8851 206.518 60.8418 206.862 60.8418 207.227ZM70.0361 209.858L72.0596 203.604H73.3516L70.6924 211H69.8447L70.0361 209.858ZM68.3477 203.604L70.4326 209.893L70.5762 211H69.7285L67.0488 203.604H68.3477ZM77.542 211.137C77.027 211.137 76.5599 211.05 76.1406 210.877C75.7259 210.699 75.3682 210.451 75.0674 210.132C74.7712 209.813 74.5433 209.435 74.3838 208.997C74.2243 208.56 74.1445 208.081 74.1445 207.562V207.274C74.1445 206.673 74.2334 206.137 74.4111 205.668C74.5889 205.194 74.8304 204.793 75.1357 204.465C75.4411 204.137 75.7874 203.888 76.1748 203.72C76.5622 203.551 76.9632 203.467 77.3779 203.467C77.9066 203.467 78.3623 203.558 78.7451 203.74C79.1325 203.923 79.4492 204.178 79.6953 204.506C79.9414 204.829 80.1237 205.212 80.2422 205.654C80.3607 206.092 80.4199 206.57 80.4199 207.09V207.657H74.8965V206.625H79.1553V206.529C79.137 206.201 79.0687 205.882 78.9502 205.572C78.8363 205.262 78.654 205.007 78.4033 204.807C78.1527 204.606 77.8109 204.506 77.3779 204.506C77.0908 204.506 76.8265 204.567 76.585 204.69C76.3434 204.809 76.1361 204.987 75.9629 205.224C75.7897 205.461 75.6553 205.75 75.5596 206.092C75.4639 206.434 75.416 206.828 75.416 207.274V207.562C75.416 207.912 75.4639 208.243 75.5596 208.553C75.6598 208.858 75.8034 209.127 75.9902 209.359C76.1816 209.592 76.4118 209.774 76.6807 209.906C76.9541 210.038 77.264 210.104 77.6104 210.104C78.057 210.104 78.4352 210.013 78.7451 209.831C79.055 209.649 79.3262 209.405 79.5586 209.1L80.3242 209.708C80.1647 209.95 79.9619 210.18 79.7158 210.398C79.4697 210.617 79.1667 210.795 78.8066 210.932C78.4512 211.068 78.0296 211.137 77.542 211.137ZM87.0576 211H85.793V202.961C85.793 202.4 85.9023 201.926 86.1211 201.539C86.3398 201.152 86.652 200.858 87.0576 200.657C87.4632 200.457 87.944 200.356 88.5 200.356C88.8281 200.356 89.1494 200.397 89.4639 200.479C89.7783 200.557 90.1019 200.655 90.4346 200.773L90.2227 201.84C90.013 201.758 89.7692 201.68 89.4912 201.607C89.2178 201.53 88.917 201.491 88.5889 201.491C88.0465 201.491 87.6546 201.614 87.4131 201.86C87.1761 202.102 87.0576 202.469 87.0576 202.961V211ZM88.5684 203.604V204.574H84.624V203.604H88.5684ZM91.0566 203.604V211H89.792V203.604H91.0566ZM94.5088 200.5V211H93.2373V200.5H94.5088ZM99.6357 203.604V204.574H95.6367V203.604H99.6357ZM96.9902 201.806H98.2549V209.168C98.2549 209.419 98.2936 209.608 98.3711 209.735C98.4486 209.863 98.5488 209.947 98.6719 209.988C98.7949 210.029 98.9271 210.05 99.0684 210.05C99.1732 210.05 99.2826 210.041 99.3965 210.022C99.515 210 99.6038 209.981 99.6631 209.968L99.6699 211C99.5697 211.032 99.4375 211.062 99.2734 211.089C99.1139 211.121 98.9202 211.137 98.6924 211.137C98.3825 211.137 98.0977 211.075 97.8379 210.952C97.5781 210.829 97.3708 210.624 97.2158 210.337C97.0654 210.045 96.9902 209.653 96.9902 209.161V201.806ZM104.188 211.137C103.674 211.137 103.206 211.05 102.787 210.877C102.372 210.699 102.015 210.451 101.714 210.132C101.418 209.813 101.19 209.435 101.03 208.997C100.871 208.56 100.791 208.081 100.791 207.562V207.274C100.791 206.673 100.88 206.137 101.058 205.668C101.235 205.194 101.477 204.793 101.782 204.465C102.088 204.137 102.434 203.888 102.821 203.72C103.209 203.551 103.61 203.467 104.024 203.467C104.553 203.467 105.009 203.558 105.392 203.74C105.779 203.923 106.096 204.178 106.342 204.506C106.588 204.829 106.77 205.212 106.889 205.654C107.007 206.092 107.066 206.57 107.066 207.09V207.657H101.543V206.625H105.802V206.529C105.784 206.201 105.715 205.882 105.597 205.572C105.483 205.262 105.3 205.007 105.05 204.807C104.799 204.606 104.457 204.506 104.024 204.506C103.737 204.506 103.473 204.567 103.231 204.69C102.99 204.809 102.783 204.987 102.609 205.224C102.436 205.461 102.302 205.75 102.206 206.092C102.11 206.434 102.062 206.828 102.062 207.274V207.562C102.062 207.912 102.11 208.243 102.206 208.553C102.306 208.858 102.45 209.127 102.637 209.359C102.828 209.592 103.058 209.774 103.327 209.906C103.601 210.038 103.91 210.104 104.257 210.104C104.703 210.104 105.082 210.013 105.392 209.831C105.701 209.649 105.973 209.405 106.205 209.1L106.971 209.708C106.811 209.95 106.608 210.18 106.362 210.398C106.116 210.617 105.813 210.795 105.453 210.932C105.098 211.068 104.676 211.137 104.188 211.137ZM109.808 204.766V211H108.543V203.604H109.773L109.808 204.766ZM112.118 203.562L112.111 204.738C112.007 204.715 111.906 204.702 111.811 204.697C111.719 204.688 111.615 204.684 111.496 204.684C111.204 204.684 110.947 204.729 110.724 204.82C110.5 204.911 110.311 205.039 110.156 205.203C110.001 205.367 109.878 205.563 109.787 205.791C109.701 206.014 109.644 206.26 109.616 206.529L109.261 206.734C109.261 206.288 109.304 205.868 109.391 205.477C109.482 205.085 109.621 204.738 109.808 204.438C109.994 204.132 110.231 203.895 110.519 203.727C110.81 203.553 111.157 203.467 111.558 203.467C111.649 203.467 111.754 203.478 111.872 203.501C111.991 203.519 112.073 203.54 112.118 203.562ZM118.646 211H117.382V202.824C117.382 202.291 117.478 201.842 117.669 201.478C117.865 201.108 118.145 200.83 118.51 200.644C118.874 200.452 119.307 200.356 119.809 200.356C119.954 200.356 120.1 200.366 120.246 200.384C120.396 200.402 120.542 200.429 120.684 200.466L120.615 201.498C120.52 201.475 120.41 201.459 120.287 201.45C120.169 201.441 120.05 201.437 119.932 201.437C119.663 201.437 119.43 201.491 119.234 201.601C119.043 201.705 118.897 201.86 118.797 202.065C118.697 202.271 118.646 202.523 118.646 202.824V211ZM120.219 203.604V204.574H116.213V203.604H120.219ZM121.292 207.384V207.227C121.292 206.693 121.369 206.199 121.524 205.743C121.679 205.283 121.903 204.884 122.194 204.547C122.486 204.205 122.839 203.941 123.254 203.754C123.669 203.562 124.133 203.467 124.648 203.467C125.168 203.467 125.635 203.562 126.05 203.754C126.469 203.941 126.825 204.205 127.116 204.547C127.412 204.884 127.638 205.283 127.793 205.743C127.948 206.199 128.025 206.693 128.025 207.227V207.384C128.025 207.917 127.948 208.411 127.793 208.867C127.638 209.323 127.412 209.722 127.116 210.063C126.825 210.401 126.471 210.665 126.057 210.856C125.646 211.043 125.182 211.137 124.662 211.137C124.143 211.137 123.675 211.043 123.261 210.856C122.846 210.665 122.491 210.401 122.194 210.063C121.903 209.722 121.679 209.323 121.524 208.867C121.369 208.411 121.292 207.917 121.292 207.384ZM122.557 207.227V207.384C122.557 207.753 122.6 208.102 122.687 208.43C122.773 208.753 122.903 209.04 123.076 209.291C123.254 209.542 123.475 209.74 123.739 209.886C124.004 210.027 124.311 210.098 124.662 210.098C125.008 210.098 125.312 210.027 125.571 209.886C125.836 209.74 126.054 209.542 126.228 209.291C126.401 209.04 126.531 208.753 126.617 208.43C126.708 208.102 126.754 207.753 126.754 207.384V207.227C126.754 206.862 126.708 206.518 126.617 206.194C126.531 205.866 126.398 205.577 126.221 205.326C126.048 205.071 125.829 204.87 125.564 204.725C125.305 204.579 124.999 204.506 124.648 204.506C124.302 204.506 123.997 204.579 123.732 204.725C123.473 204.87 123.254 205.071 123.076 205.326C122.903 205.577 122.773 205.866 122.687 206.194C122.6 206.518 122.557 206.862 122.557 207.227ZM130.876 204.766V211H129.611V203.604H130.842L130.876 204.766ZM133.187 203.562L133.18 204.738C133.075 204.715 132.975 204.702 132.879 204.697C132.788 204.688 132.683 204.684 132.564 204.684C132.273 204.684 132.015 204.729 131.792 204.82C131.569 204.911 131.38 205.039 131.225 205.203C131.07 205.367 130.947 205.563 130.855 205.791C130.769 206.014 130.712 206.26 130.685 206.529L130.329 206.734C130.329 206.288 130.372 205.868 130.459 205.477C130.55 205.085 130.689 204.738 130.876 204.438C131.063 204.132 131.3 203.895 131.587 203.727C131.879 203.553 132.225 203.467 132.626 203.467C132.717 203.467 132.822 203.478 132.94 203.501C133.059 203.519 133.141 203.54 133.187 203.562ZM137.821 200.5H139.093V209.564L138.983 211H137.821V200.5ZM144.09 207.24V207.384C144.09 207.922 144.026 208.421 143.898 208.881C143.771 209.337 143.584 209.733 143.338 210.07C143.092 210.408 142.791 210.67 142.436 210.856C142.08 211.043 141.672 211.137 141.212 211.137C140.743 211.137 140.33 211.057 139.975 210.897C139.624 210.733 139.327 210.499 139.086 210.193C138.844 209.888 138.651 209.519 138.505 209.086C138.364 208.653 138.266 208.165 138.211 207.623V206.994C138.266 206.447 138.364 205.957 138.505 205.524C138.651 205.091 138.844 204.722 139.086 204.417C139.327 204.107 139.624 203.872 139.975 203.713C140.326 203.549 140.733 203.467 141.198 203.467C141.663 203.467 142.076 203.558 142.436 203.74C142.796 203.918 143.096 204.173 143.338 204.506C143.584 204.839 143.771 205.237 143.898 205.702C144.026 206.162 144.09 206.675 144.09 207.24ZM142.818 207.384V207.24C142.818 206.871 142.784 206.525 142.716 206.201C142.647 205.873 142.538 205.586 142.388 205.34C142.237 205.089 142.039 204.893 141.793 204.752C141.547 204.606 141.244 204.533 140.884 204.533C140.565 204.533 140.287 204.588 140.05 204.697C139.817 204.807 139.619 204.955 139.455 205.142C139.291 205.324 139.157 205.534 139.052 205.771C138.951 206.003 138.876 206.244 138.826 206.495V208.143C138.899 208.462 139.018 208.769 139.182 209.065C139.35 209.357 139.574 209.596 139.852 209.783C140.134 209.97 140.483 210.063 140.897 210.063C141.239 210.063 141.531 209.995 141.772 209.858C142.019 209.717 142.217 209.523 142.367 209.277C142.522 209.031 142.636 208.746 142.709 208.423C142.782 208.099 142.818 207.753 142.818 207.384ZM148.759 211.137C148.244 211.137 147.777 211.05 147.357 210.877C146.943 210.699 146.585 210.451 146.284 210.132C145.988 209.813 145.76 209.435 145.601 208.997C145.441 208.56 145.361 208.081 145.361 207.562V207.274C145.361 206.673 145.45 206.137 145.628 205.668C145.806 205.194 146.047 204.793 146.353 204.465C146.658 204.137 147.004 203.888 147.392 203.72C147.779 203.551 148.18 203.467 148.595 203.467C149.123 203.467 149.579 203.558 149.962 203.74C150.349 203.923 150.666 204.178 150.912 204.506C151.158 204.829 151.34 205.212 151.459 205.654C151.577 206.092 151.637 206.57 151.637 207.09V207.657H146.113V206.625H150.372V206.529C150.354 206.201 150.285 205.882 150.167 205.572C150.053 205.262 149.871 205.007 149.62 204.807C149.369 204.606 149.028 204.506 148.595 204.506C148.308 204.506 148.043 204.567 147.802 204.69C147.56 204.809 147.353 204.987 147.18 205.224C147.007 205.461 146.872 205.75 146.776 206.092C146.681 206.434 146.633 206.828 146.633 207.274V207.562C146.633 207.912 146.681 208.243 146.776 208.553C146.877 208.858 147.02 209.127 147.207 209.359C147.398 209.592 147.629 209.774 147.897 209.906C148.171 210.038 148.481 210.104 148.827 210.104C149.274 210.104 149.652 210.013 149.962 209.831C150.272 209.649 150.543 209.405 150.775 209.1L151.541 209.708C151.382 209.95 151.179 210.18 150.933 210.398C150.687 210.617 150.383 210.795 150.023 210.932C149.668 211.068 149.246 211.137 148.759 211.137ZM156.21 203.604V204.574H152.211V203.604H156.21ZM153.564 201.806H154.829V209.168C154.829 209.419 154.868 209.608 154.945 209.735C155.023 209.863 155.123 209.947 155.246 209.988C155.369 210.029 155.501 210.05 155.643 210.05C155.747 210.05 155.857 210.041 155.971 210.022C156.089 210 156.178 209.981 156.237 209.968L156.244 211C156.144 211.032 156.012 211.062 155.848 211.089C155.688 211.121 155.494 211.137 155.267 211.137C154.957 211.137 154.672 211.075 154.412 210.952C154.152 210.829 153.945 210.624 153.79 210.337C153.64 210.045 153.564 209.653 153.564 209.161V201.806ZM160.79 203.604V204.574H156.791V203.604H160.79ZM158.145 201.806H159.409V209.168C159.409 209.419 159.448 209.608 159.525 209.735C159.603 209.863 159.703 209.947 159.826 209.988C159.949 210.029 160.081 210.05 160.223 210.05C160.327 210.05 160.437 210.041 160.551 210.022C160.669 210 160.758 209.981 160.817 209.968L160.824 211C160.724 211.032 160.592 211.062 160.428 211.089C160.268 211.121 160.075 211.137 159.847 211.137C159.537 211.137 159.252 211.075 158.992 210.952C158.732 210.829 158.525 210.624 158.37 210.337C158.22 210.045 158.145 209.653 158.145 209.161V201.806ZM165.343 211.137C164.828 211.137 164.361 211.05 163.941 210.877C163.527 210.699 163.169 210.451 162.868 210.132C162.572 209.813 162.344 209.435 162.185 208.997C162.025 208.56 161.945 208.081 161.945 207.562V207.274C161.945 206.673 162.034 206.137 162.212 205.668C162.39 205.194 162.631 204.793 162.937 204.465C163.242 204.137 163.588 203.888 163.976 203.72C164.363 203.551 164.764 203.467 165.179 203.467C165.707 203.467 166.163 203.558 166.546 203.74C166.933 203.923 167.25 204.178 167.496 204.506C167.742 204.829 167.924 205.212 168.043 205.654C168.161 206.092 168.221 206.57 168.221 207.09V207.657H162.697V206.625H166.956V206.529C166.938 206.201 166.869 205.882 166.751 205.572C166.637 205.262 166.455 205.007 166.204 204.807C165.953 204.606 165.612 204.506 165.179 204.506C164.892 204.506 164.627 204.567 164.386 204.69C164.144 204.809 163.937 204.987 163.764 205.224C163.59 205.461 163.456 205.75 163.36 206.092C163.265 206.434 163.217 206.828 163.217 207.274V207.562C163.217 207.912 163.265 208.243 163.36 208.553C163.461 208.858 163.604 209.127 163.791 209.359C163.982 209.592 164.213 209.774 164.481 209.906C164.755 210.038 165.065 210.104 165.411 210.104C165.858 210.104 166.236 210.013 166.546 209.831C166.856 209.649 167.127 209.405 167.359 209.1L168.125 209.708C167.965 209.95 167.763 210.18 167.517 210.398C167.271 210.617 166.967 210.795 166.607 210.932C166.252 211.068 165.83 211.137 165.343 211.137ZM170.962 204.766V211H169.697V203.604H170.928L170.962 204.766ZM173.272 203.562L173.266 204.738C173.161 204.715 173.061 204.702 172.965 204.697C172.874 204.688 172.769 204.684 172.65 204.684C172.359 204.684 172.101 204.729 171.878 204.82C171.655 204.911 171.465 205.039 171.311 205.203C171.156 205.367 171.033 205.563 170.941 205.791C170.855 206.014 170.798 206.26 170.771 206.529L170.415 206.734C170.415 206.288 170.458 205.868 170.545 205.477C170.636 205.085 170.775 204.738 170.962 204.438C171.149 204.132 171.386 203.895 171.673 203.727C171.965 203.553 172.311 203.467 172.712 203.467C172.803 203.467 172.908 203.478 173.026 203.501C173.145 203.519 173.227 203.54 173.272 203.562ZM179.179 204.766V211H177.914V203.604H179.145L179.179 204.766ZM181.489 203.562L181.482 204.738C181.378 204.715 181.277 204.702 181.182 204.697C181.09 204.688 180.986 204.684 180.867 204.684C180.576 204.684 180.318 204.729 180.095 204.82C179.871 204.911 179.682 205.039 179.527 205.203C179.372 205.367 179.249 205.563 179.158 205.791C179.072 206.014 179.015 206.26 178.987 206.529L178.632 206.734C178.632 206.288 178.675 205.868 178.762 205.477C178.853 205.085 178.992 204.738 179.179 204.438C179.366 204.132 179.603 203.895 179.89 203.727C180.181 203.553 180.528 203.467 180.929 203.467C181.02 203.467 181.125 203.478 181.243 203.501C181.362 203.519 181.444 203.54 181.489 203.562ZM185.591 211.137C185.076 211.137 184.609 211.05 184.189 210.877C183.775 210.699 183.417 210.451 183.116 210.132C182.82 209.813 182.592 209.435 182.433 208.997C182.273 208.56 182.193 208.081 182.193 207.562V207.274C182.193 206.673 182.282 206.137 182.46 205.668C182.638 205.194 182.879 204.793 183.185 204.465C183.49 204.137 183.836 203.888 184.224 203.72C184.611 203.551 185.012 203.467 185.427 203.467C185.955 203.467 186.411 203.558 186.794 203.74C187.181 203.923 187.498 204.178 187.744 204.506C187.99 204.829 188.173 205.212 188.291 205.654C188.41 206.092 188.469 206.57 188.469 207.09V207.657H182.945V206.625H187.204V206.529C187.186 206.201 187.118 205.882 186.999 205.572C186.885 205.262 186.703 205.007 186.452 204.807C186.201 204.606 185.86 204.506 185.427 204.506C185.14 204.506 184.875 204.567 184.634 204.69C184.392 204.809 184.185 204.987 184.012 205.224C183.839 205.461 183.704 205.75 183.608 206.092C183.513 206.434 183.465 206.828 183.465 207.274V207.562C183.465 207.912 183.513 208.243 183.608 208.553C183.709 208.858 183.852 209.127 184.039 209.359C184.23 209.592 184.461 209.774 184.729 209.906C185.003 210.038 185.313 210.104 185.659 210.104C186.106 210.104 186.484 210.013 186.794 209.831C187.104 209.649 187.375 209.405 187.607 209.1L188.373 209.708C188.214 209.95 188.011 210.18 187.765 210.398C187.519 210.617 187.215 210.795 186.855 210.932C186.5 211.068 186.078 211.137 185.591 211.137ZM194.252 209.038C194.252 208.856 194.211 208.687 194.129 208.532C194.051 208.373 193.89 208.229 193.644 208.102C193.402 207.969 193.037 207.855 192.55 207.76C192.14 207.673 191.768 207.571 191.436 207.452C191.107 207.334 190.827 207.19 190.595 207.021C190.367 206.853 190.191 206.655 190.068 206.427C189.945 206.199 189.884 205.932 189.884 205.627C189.884 205.335 189.948 205.06 190.075 204.8C190.207 204.54 190.392 204.31 190.629 204.109C190.87 203.909 191.16 203.752 191.497 203.638C191.834 203.524 192.21 203.467 192.625 203.467C193.217 203.467 193.723 203.572 194.143 203.781C194.562 203.991 194.883 204.271 195.106 204.622C195.33 204.968 195.441 205.354 195.441 205.777H194.177C194.177 205.572 194.115 205.374 193.992 205.183C193.874 204.987 193.698 204.825 193.466 204.697C193.238 204.57 192.958 204.506 192.625 204.506C192.274 204.506 191.989 204.561 191.771 204.67C191.556 204.775 191.399 204.909 191.299 205.073C191.203 205.237 191.155 205.41 191.155 205.593C191.155 205.729 191.178 205.853 191.224 205.962C191.274 206.067 191.36 206.165 191.483 206.256C191.606 206.342 191.78 206.424 192.003 206.502C192.226 206.579 192.511 206.657 192.857 206.734C193.464 206.871 193.963 207.035 194.354 207.227C194.746 207.418 195.038 207.653 195.229 207.931C195.421 208.209 195.517 208.546 195.517 208.942C195.517 209.266 195.448 209.562 195.312 209.831C195.179 210.1 194.986 210.332 194.73 210.528C194.48 210.72 194.179 210.87 193.828 210.979C193.482 211.084 193.092 211.137 192.659 211.137C192.007 211.137 191.456 211.021 191.005 210.788C190.554 210.556 190.212 210.255 189.979 209.886C189.747 209.517 189.631 209.127 189.631 208.717H190.902C190.921 209.063 191.021 209.339 191.203 209.544C191.385 209.744 191.609 209.888 191.873 209.975C192.137 210.057 192.399 210.098 192.659 210.098C193.006 210.098 193.295 210.052 193.527 209.961C193.764 209.87 193.944 209.744 194.067 209.585C194.19 209.425 194.252 209.243 194.252 209.038ZM201.703 209.291V203.604H202.975V211H201.765L201.703 209.291ZM201.942 207.732L202.469 207.719C202.469 208.211 202.416 208.667 202.312 209.086C202.211 209.501 202.047 209.861 201.819 210.166C201.591 210.471 201.293 210.711 200.924 210.884C200.555 211.052 200.106 211.137 199.577 211.137C199.217 211.137 198.887 211.084 198.586 210.979C198.29 210.875 198.035 210.713 197.82 210.494C197.606 210.275 197.44 209.991 197.321 209.64C197.207 209.289 197.15 208.867 197.15 208.375V203.604H198.415V208.389C198.415 208.721 198.451 208.997 198.524 209.216C198.602 209.43 198.704 209.601 198.832 209.729C198.964 209.852 199.11 209.938 199.27 209.988C199.434 210.038 199.602 210.063 199.775 210.063C200.313 210.063 200.739 209.961 201.054 209.756C201.368 209.546 201.594 209.266 201.73 208.915C201.872 208.56 201.942 208.165 201.942 207.732ZM206.276 200.5V211H205.005V200.5H206.276ZM211.403 203.604V204.574H207.404V203.604H211.403ZM208.758 201.806H210.022V209.168C210.022 209.419 210.061 209.608 210.139 209.735C210.216 209.863 210.316 209.947 210.439 209.988C210.562 210.029 210.695 210.05 210.836 210.05C210.941 210.05 211.05 210.041 211.164 210.022C211.283 210 211.371 209.981 211.431 209.968L211.438 211C211.337 211.032 211.205 211.062 211.041 211.089C210.882 211.121 210.688 211.137 210.46 211.137C210.15 211.137 209.865 211.075 209.605 210.952C209.346 210.829 209.138 210.624 208.983 210.337C208.833 210.045 208.758 209.653 208.758 209.161V201.806Z" fill="#808080"/>
</svg>
