<svg width="45" height="45" viewBox="0 0 45 45" fill="none" xmlns="http://www.w3.org/2000/svg">
<circle cx="22.5" cy="22.5" r="22.5" fill="#146BA2" fill-opacity="0.1"/>
<circle cx="22.5" cy="22.5" r="22" stroke="#146BA2" stroke-opacity="0.4"/>
<g opacity="0.9">
<path d="M15.8728 30.4526C15.8728 30.4526 14.5474 30.4526 14.5474 29.1272C14.5474 27.8017 15.8728 23.8254 22.5 23.8254C29.1272 23.8254 30.4526 27.8017 30.4526 29.1272C30.4526 30.4526 29.1272 30.4526 29.1272 30.4526H15.8728ZM22.5 22.5C23.5546 22.5 24.566 22.0811 25.3117 21.3354C26.0574 20.5897 26.4763 19.5783 26.4763 18.5237C26.4763 17.4691 26.0574 16.4578 25.3117 15.7121C24.566 14.9664 23.5546 14.5474 22.5 14.5474C21.4454 14.5474 20.434 14.9664 19.6883 15.7121C18.9426 16.4578 18.5237 17.4691 18.5237 18.5237C18.5237 19.5783 18.9426 20.5897 19.6883 21.3354C20.434 22.0811 21.4454 22.5 22.5 22.5Z" fill="#337AB7"/>
</g>
</svg>
