<svg id="Capa_1" enable-background="new 0 0 512 512" height="512" viewBox="0 0 512 512" width="512" xmlns="http://www.w3.org/2000/svg" xmlns:xlink="http://www.w3.org/1999/xlink"><linearGradient id="SVGID_1_" gradientUnits="userSpaceOnUse" x1="12.034" x2="499.966" y1="256" y2="256"><stop offset="0" stop-color="#ffdbed"/><stop offset="1" stop-color="#dcfdee"/></linearGradient><linearGradient id="SVGID_2_" gradientUnits="userSpaceOnUse" x1="255.786" x2="255.786" y1="70.1" y2="339.662"><stop offset=".0028" stop-color="#ff7eb8" stop-opacity="0"/><stop offset="1" stop-color="#ff7eb8" stop-opacity=".6"/></linearGradient><g><g><path d="m286.593 4.867c-94.351 27.746-75.427 93.585-85.98 166.539-13.171 91.052-70.095 44.365-135.496 93.538-113.054 85.001-30.931 272.636 109.468 244.14 74.552-15.131 89.786-70.095 120.193-128.824 39.333-75.973 104.558-55.26 163.066-104.857 118.655-100.582-37.403-309.897-171.251-270.536z" fill="url(#SVGID_1_)"/></g><g><g><g fill="#2626bc" opacity=".1"><path d="m402.487 313.282-30.176-22.287c-1.99-1.47-4.756-1.263-6.506.487l-6.766 6.766c-1.749 1.75-1.956 4.516-.486 6.506l22.287 30.176c1.816 2.459 5.396 2.727 7.557.565l14.655-14.655c2.162-2.162 1.894-5.741-.565-7.558z"/><path d="m431.943 264.646-35.979-10.622c-2.373-.701-4.902.44-5.947 2.682l-4.044 8.672c-1.046 2.243-.294 4.913 1.768 6.28l31.264 20.734c2.548 1.69 6.003.717 7.295-2.054l8.759-18.783c1.292-2.772-.184-6.044-3.116-6.909z"/><path d="m146.195 291.482c-1.75-1.75-4.516-1.957-6.506-.487l-30.176 22.287c-2.459 1.816-2.727 5.396-.565 7.557l14.655 14.655c2.162 2.162 5.741 1.894 7.558-.565l22.287-30.176c1.47-1.99 1.263-4.756-.486-6.506z"/><path d="m126.027 265.377-4.044-8.672c-1.046-2.242-3.574-3.383-5.947-2.682l-35.979 10.622c-2.932.866-4.408 4.137-3.116 6.908l8.759 18.783c1.292 2.771 4.747 3.744 7.295 2.054l31.264-20.734c2.062-1.366 2.814-4.036 1.768-6.279z"/><path d="m359.804 108.132c1.75 1.75 4.516 1.956 6.506.486l30.176-22.287c2.46-1.816 2.727-5.396.565-7.558l-14.655-14.655c-2.162-2.162-5.741-1.894-7.557.565l-22.287 30.177c-1.47 1.99-1.263 4.756.486 6.506z"/><path d="m379.973 134.236 4.044 8.672c1.046 2.242 3.574 3.383 5.947 2.682l35.979-10.622c2.932-.866 4.408-4.137 3.116-6.908l-8.759-18.783c-1.292-2.771-4.747-3.744-7.295-2.054l-31.264 20.734c-2.062 1.366-2.814 4.036-1.768 6.279z"/></g><g><g><path d="m268.088 457.842h-24.604c-20.517 0-37.149-16.632-37.149-37.149v-42.84h98.902v42.84c-.001 20.517-16.633 37.149-37.149 37.149z" fill="#ff7eb8"/><path d="m206.335 377.854h98.902v20.913h-98.902z" fill="#ff5ba8"/><path d="m366.257 180.572c0-61.535-50.313-111.32-112.046-110.461-61.042.85-110.186 51.851-108.872 112.884.51 23.701 8.485 45.563 21.667 63.331 20.086 27.074 31.439 59.624 31.439 93.335h114.68v-.006c0-33.604 11.158-66.15 31.255-93.082 13.742-18.414 21.877-41.258 21.877-66.001z" fill="#02ffb3"/><path d="m219.17 133.8c0 28.08-22.76 50.85-50.85 50.85-8.27 0-16.08-1.98-22.99-5.48.47-36.95 19.42-69.86 48.07-89.62 15.39 8.74 25.77 25.28 25.77 44.25z" fill="#01eca5"/><path d="m363.17 206.6c-3.54 14.69-10.03 28.23-18.79 39.97-10.05 13.47-17.86 28.34-23.16 44.04-5.3 15.71-8.09 32.25-8.09 49.05h-114.68c0-33.71-11.36-66.26-31.44-93.33-8.68-11.69-15.1-25.15-18.61-39.74 15.41 1.53 16.43 14.54 33.76 14.54 18.41 0 18.41-14.68 36.82-14.68s18.41 14.68 36.81 14.68c18.41 0 18.41-14.68 36.82-14.68s18.41 14.68 36.82 14.68c17.32 0 18.35-12.99 33.74-14.53z" fill="#8399fe"/></g><circle cx="219.173" cy="206.45" fill="#97ffd2" r="18.02"/><circle cx="232.851" cy="265.388" fill="#9fb0fe" r="10.544"/><ellipse cx="288.942" cy="303.399" fill="#9fb0fe" rx="10.544" ry="10.544" transform="matrix(.159 -.987 .987 .159 -56.489 540.498)"/><circle cx="274.905" cy="251.352" fill="#b7c5ff" r="14.037"/><circle cx="256" cy="180.708" fill="#97ffd2" r="12.604"/><circle cx="226.758" cy="165.101" fill="#dcfdee" r="9.302"/><path d="m236.06 212.74c-2.56 6.85-9.15 11.73-16.89 11.73-7.83 0-14.49-4.99-16.98-11.97 4.12-3.19 8.67-6.05 16.79-6.05 8.32 0 12.88 3 17.08 6.29z" fill="#9fb0fe"/><path d="m366.257 180.572c0-61.535-50.313-111.32-112.046-110.461-61.042.85-110.186 51.851-108.872 112.884.51 23.701 8.485 45.563 21.667 63.331 20.086 27.074 31.439 59.624 31.439 93.335h114.68v-.006c0-33.604 11.158-66.15 31.255-93.082 13.742-18.414 21.877-41.258 21.877-66.001z" fill="url(#SVGID_2_)"/><path d="m322.788 377.854h-134.005c-3.44 0-6.228-2.788-6.228-6.228v-32.922c0-3.44 2.788-6.228 6.228-6.228h134.005c3.44 0 6.228 2.788 6.228 6.228v32.922c0 3.44-2.788 6.228-6.228 6.228z" fill="#fff"/><path d="m270.172 332.476h26.626v45.378h-26.626z" fill="#ffc4df"/></g><g fill="#ffa8cf"><g><path d="m359.039 274.247 6.766-6.766c1.75-1.75 4.516-1.956 6.506-.486l30.176 22.287c2.459 1.816 2.727 5.396.565 7.557l-14.655 14.655c-2.162 2.162-5.741 1.894-7.558-.565l-22.287-30.176c-1.47-1.99-1.263-4.756.487-6.506z"/><path d="m385.973 241.377 4.044-8.672c1.046-2.242 3.574-3.383 5.947-2.682l35.979 10.622c2.933.866 4.408 4.137 3.116 6.908l-8.759 18.783c-1.292 2.771-4.747 3.744-7.295 2.054l-31.264-20.734c-2.062-1.366-2.814-4.036-1.768-6.279z"/></g><g><path d="m152.961 274.247-6.766-6.766c-1.75-1.75-4.516-1.956-6.506-.486l-30.176 22.287c-2.459 1.816-2.727 5.396-.565 7.557l14.655 14.655c2.162 2.162 5.741 1.894 7.558-.565l22.287-30.176c1.47-1.99 1.263-4.756-.487-6.506z"/><path d="m126.027 241.377-4.044-8.672c-1.046-2.242-3.574-3.383-5.947-2.682l-35.979 10.622c-2.933.866-4.408 4.137-3.116 6.908l8.759 18.783c1.292 2.771 4.747 3.744 7.295 2.054l31.264-20.734c2.062-1.366 2.814-4.036 1.768-6.279z"/></g></g><g fill="#ffa8cf"><g><path d="m158.961 77.366-6.766 6.766c-1.75 1.75-4.516 1.956-6.506.486l-30.176-22.287c-2.459-1.817-2.727-5.396-.565-7.557l14.655-14.655c2.162-2.162 5.741-1.894 7.557.565l22.287 30.176c1.471 1.99 1.264 4.756-.486 6.506z"/><path d="m132.027 110.236-4.044 8.672c-1.046 2.242-3.574 3.383-5.947 2.682l-35.979-10.622c-2.933-.866-4.408-4.137-3.116-6.908l8.759-18.784c1.292-2.771 4.747-3.744 7.295-2.054l31.264 20.734c2.062 1.367 2.814 4.037 1.768 6.28z"/></g><g><path d="m353.039 77.366 6.766 6.766c1.75 1.75 4.516 1.956 6.506.486l30.176-22.287c2.459-1.817 2.727-5.396.565-7.557l-14.655-14.655c-2.162-2.162-5.741-1.894-7.558.565l-22.287 30.176c-1.47 1.99-1.263 4.756.487 6.506z"/><path d="m379.973 110.236 4.044 8.672c1.046 2.242 3.574 3.383 5.947 2.682l35.979-10.622c2.933-.866 4.408-4.137 3.116-6.908l-8.759-18.784c-1.292-2.771-4.747-3.744-7.295-2.054l-31.264 20.734c-2.062 1.367-2.814 4.037-1.768 6.28z"/></g></g><g><circle cx="168.32" cy="112.795" fill="#fff" r="50.853"/><path d="m185.102 106.232h-13.031v-25.546c0-1.191-1.6-1.58-2.146-.522l-19.396 37.536c-.391.757.158 1.658 1.01 1.658h13.03v25.546c0 1.191 1.6 1.58 2.146.522l19.396-37.536c.391-.756-.158-1.658-1.009-1.658z" fill="#ff7eb8"/><g fill="#fe2c8f"><path d="m201.334 403.75h108.902c2.678-.095 4.824-2.281 4.824-4.982s-2.146-4.888-4.824-4.982h-108.902c-2.678.095-4.824 2.281-4.824 4.982s2.147 4.887 4.824 4.982z"/><path d="m310.236 417.911h-108.902c-2.678.095-4.824 2.281-4.824 4.982 0 2.761 2.239 5 5 5h108.55c2.762 0 5-2.239 5-5 0-2.701-2.145-4.887-4.824-4.982z"/></g></g></g><path d="m64.976 196.708c-2.761 0-5-2.239-5-5 0-3.309-2.691-6-6-6-2.761 0-5-2.239-5-5s2.239-5 5-5c3.309 0 6-2.691 6-6 0-2.761 2.239-5 5-5s5 2.239 5 5c0 3.309 2.691 6 6 6 2.761 0 5 2.239 5 5s-2.239 5-5 5c-3.309 0-6 2.691-6 6 0 2.762-2.239 5-5 5z" fill="#6583fe"/><path d="m398.517 397.742c-2.762 0-5-2.239-5-5 0-3.309-2.691-6-6-6-2.762 0-5-2.239-5-5s2.238-5 5-5c3.309 0 6-2.692 6-6.001 0-2.761 2.238-5 5-5s5 2.239 5 5c0 3.309 2.691 6.001 6 6.001 2.762 0 5 2.239 5 5s-2.238 5-5 5c-3.309 0-6 2.691-6 6 0 2.761-2.239 5-5 5z" fill="#ff7eb8"/><path d="m446.817 171.648c-1.279 0-2.56-.488-3.535-1.464-1.953-1.953-1.953-5.119 0-7.071l3.327-3.328-5.002-3.172c-1.282-.813-2.125-2.165-2.292-3.673-.167-1.509.361-3.012 1.435-4.085l7.742-7.742c1.951-1.952 5.119-1.952 7.07 0 1.953 1.953 1.953 5.119 0 7.071l-3.327 3.327 5.002 3.172c1.282.813 2.125 2.165 2.292 3.673.167 1.509-.36 3.012-1.435 4.085l-7.742 7.742c-.975.977-2.255 1.465-3.535 1.465z" fill="#01eca5"/><path d="m147.796 419.742c-1.28 0-2.559-.488-3.536-1.464-1.953-1.953-1.953-5.118 0-7.071l3.328-3.328-5.003-3.173c-1.282-.813-2.125-2.164-2.292-3.673s.361-3.012 1.434-4.085l7.742-7.742c1.954-1.952 5.119-1.951 7.071 0 1.953 1.953 1.953 5.119 0 7.071l-3.328 3.328 5.002 3.172c1.282.813 2.124 2.164 2.292 3.673.167 1.509-.361 3.011-1.434 4.085l-7.742 7.742c-.975.977-2.254 1.465-3.534 1.465z" fill="#6583fe"/><path d="m405.049 201.708c-1.279 0-2.56-.488-3.535-1.464-1.953-1.953-1.953-5.119 0-7.071l3.327-3.328-5.002-3.172c-1.282-.813-2.125-2.165-2.292-3.673-.167-1.509.361-3.012 1.434-4.085l7.742-7.742c1.951-1.952 5.118-1.952 7.071 0 1.952 1.953 1.952 5.119-.001 7.071l-3.327 3.327 5.002 3.172c1.282.813 2.125 2.165 2.292 3.673.167 1.509-.361 3.012-1.434 4.085l-7.742 7.742c-.976.977-2.256 1.465-3.535 1.465z" fill="#ff7eb8"/></g></g></svg>