<svg version="1.1" id="Layer_1" xmlns="http://www.w3.org/2000/svg" x="0" y="0" viewBox="0 0 740.1 785.2" xml:space="preserve"><style>.st1{fill:#fff}.st123{fill:#c69573}.st126{fill:#177fff}.st139{fill:#565656}.st444{fill:#e1e5e9}.st446{fill:#ccd4da}</style><path class="st446" d="M262.9 408.3c22.1 1.6 115.1 8.6 142.3 10.5 4 .3 7.5-2.9 6.7-6.9l.1-224.2c.7-3.9-2.5-7.1-6.5-7l-142.4 5.1c-2.8.1-4.9 2.3-4.9 5.1v212.3c0 2.7 2 4.9 4.7 5.1zM441 412.9V188.3c0-5 4-9.2 9-9.3l168.4-6.2c4.5-.2 8.3 3.4 8.3 8V428c0 4.1-3.5 7.3-7.5 7-29.6-2.2-138-10.4-169.5-12.8-4.9-.4-8.7-4.4-8.7-9.3z"/><path class="st1" d="M258.8 408.3c22.1 1.6 115.1 8.6 142.3 10.5 4 .3 7.5-2.9 7.5-6.9l.1-224.2c0-3.9-3.3-7.1-7.2-7L259 185.8c-2.8.1-4.9 2.3-4.9 5.1v212.3c0 2.7 2 4.9 4.7 5.1zM436.7 412.9V188.3c0-5 4-9.2 9-9.3l167.2-6.1c5.1-.2 9.4 3.9 9.4 9V428c0 4.1-3.5 7.3-7.5 7-29.6-2.2-137.9-10.4-169.4-12.8-4.9-.4-8.7-4.4-8.7-9.3z"/><linearGradient id="SVGID_1_" gradientUnits="userSpaceOnUse" x1="193.021" y1="586.554" x2="189.68" y2="666.735"><stop offset="0"/><stop offset="1" stop-opacity="0"/></linearGradient><path d="M299.4 626.9s-83.3 42-85.2 41.6c-1.8-.5-132.7 2.5-132.7 2.5l99-43.3H221l-55.8 30.4 93.2-31.1 8.4-.2 32.6.1z" opacity=".15" fill="url(#SVGID_1_)"/><path class="st123" d="M262.8 296.2s-.6-11.1-1.1-12.8-4.8-8.4-5.6-9.2c-.7-.8-10.4-7.9-10.4-7.9s-1 1.7.5 3.1c1.5 1.4 6.1 6.2 6.3 6.5.2.3-.1 1.7-.1 1.7s-5.2.1-5.9.7c-.7.6-.6 2.5-.6 2.5s-1.1 2.3-1.2 2.7c-.1.4 0 1.2.5 1.5.3.2.1.7-.1 1.2s-.1 1.1.2 1.5c.2.3.6.6 1 1 1.1 1.1 2.4 2.8 2.8 2.1.4-.7.6-1.1.6-1.1s.5 1.1 1.4 2.5c1.6 2.5 2.4 3 3.7 6 1.9 4.1 3.4 8.4 3.8 7.6.5-.8 4.2-9.6 4.2-9.6z"/><path d="M262.1 286.4s.2-1.8-2.1-3.2c-2.9-1.7-3.8-4.1-4.8-5.4s-1.5-1.8-1.5-1.8-1.6 1.5-.7 3.5c.9 2 1.4 3.5 1.4 3.5s-2 4-1.1 6.9c.8 2.8-.8 4.3-.8 4.3s-1.1-1.6-1.6-2.5c-.5-.8-1-1.9-1-1.9l-.6 1.1s-.1.2-.3.2c-.3 0-.8-.5-1.4-1.1l-1.3-1.3c-.4-.4-.8-.7-1-1-.1-.2-.2-.5-.2-.7 0-.2.1-.6.2-.9.3-.7 0-1 0-1s-.7-.4-.5-1.5c.1-.7 1.2-2.7 1.2-2.7s-.2-1.7.4-2.4c.7-.7 2.8-.6 2.8-.6l3.3-.3s.2-1.2 0-1.7c-.2-.4-3.2-3.5-3.2-3.5l-3.1-3s-1.2-1.2-.6-2.8c.2-.4.5-.1.5-.1l8.2 6.1s1.4 1 1.9 1.6c.7.9 4.3 6.6 4.3 6.6s1.2 1.9 1.4 2.9c0 .9.2 2.7.2 2.7z" fill="#bb8057"/><linearGradient id="SVGID_2_" gradientUnits="userSpaceOnUse" x1="175.116" y1="305.339" x2="275.683" y2="325.901"><stop offset="0"/><stop offset=".877" stop-color="#1873e2"/><stop offset="1" stop-color="#177fff"/></linearGradient><path d="M262.7 335.8c2.9 7.5 6.6 16.3 13.5 21 8.7 5.9 19-4.5 14.9-14.2-3.2-7.6-25.9-50.4-25.9-50.4l-12.3 8c.1 0 9.8 35.6 9.8 35.6z" fill="url(#SVGID_2_)"/><path class="st123" d="M179.6 598.4l.1 19.2s12.7-.8 12.7-1 1.7-18.8 1.7-18.8l-14.5.6zM252.4 591.2c.2 2.1 5.8 25.3 5.8 25.3s12.2-1.1 12.1-1.1c-.2-.1-3.8-23.9-3.8-23.9l-14.1-.3z"/><linearGradient id="SVGID_3_" gradientUnits="userSpaceOnUse" x1="176.334" y1="504.754" x2="273.477" y2="504.754"><stop offset="0" stop-color="#ff803d"/><stop offset=".996" stop-color="#ff6c1d"/></linearGradient><path d="M192.7 400.5H186s-2.8 16.3-3.7 26.1c-1.2 13.5-1.5 51.2-1.5 51.2l-.6 29s-2.6 13.3-3.3 28.7c-.7 15.2-.1 48.4-.4 56.8-.4 10.5.1 16.8.1 16.8l20.9-1.8s7.9-55.3 10.3-69.8c1.3-7.5 3.4-21.4 4.3-25.7 1-4.3 6.3-52.3 6.3-52.3s15.5 44.7 16.5 51.1c1 6.4.3 9.7 2.9 24.5 2.9 16.3 10.5 72.5 10.5 72.5l25.2-.9c0-.1-6.3-94.1-7.3-99.9-.4-2.3-10.6-105.9-10.6-105.9l-62.9-.4z" fill="url(#SVGID_3_)"/><path d="M178.5 614.8v13.1h41.9L192.8 614zM256.5 614v13.2h41.8l-27.7-15z"/><path class="st123" d="M203.9 264.6s0 17.6-2.9 22.5c-2.5 4.1 8.3 5.7 17.4 4.5 9.1-1.3 13.2 4.8 11.2-3.1s-2.1-18.5-2.1-18.5-5.1-10.4-23.6-5.4z"/><path class="st123" d="M205 262.5c.9 1.6 2 3 3.4 4 3.3 2.5 7.5 4.1 11.6 4.6 8.5.9 13 .9 15.3.2 2.1-.6 5.3-1.6 4.3-10-.6-5.3-.7-6.1-.2-7s3.1-1.4 2.8-2.4c-.4-.9-2.6-13.5-3.1-16.1-.8-4-2.9-7.9-6.1-10.5-6.5-5.5-16.7-3.9-23.6.1-3.6 2.1-6.7 5.4-8.2 9.3-1.8 4.7-1.3 9.8-.3 14.6.9 4.6 1.8 9.2 4.1 13.2z"/><path d="M220.5 250.1s19.3-3.6 21.2-14.2c1.8-10.7-1.1-14.1-1.1-14.9 0-1-8.1-.3-8.9-.2-3.2.3-6.4.3-9.6 0-6.2-.5-12-2.7-18.2-.8-5.9 1.8-10 6.8-10.6 12.9-.6 6.7 2.4 13.2 5.5 19 .8 1.5 1.6 3 1.9 4.7 1.4 6.3 1.2 7.6 1.7 8.9.5 1.2 1.6 1.5 4.5 1.8 5.1.5 8.6-4.2 9.4-8.7.1-.5.2-1.2.3-1.8.1-.3.4-1.5.1-1.7 0 0-3.9-4.8-.7-7 3.2-2.3 4.5 2 4.5 2z"/><path class="st126" d="M192.6 286.2c-.5.3-1.9.9-4 2.7-3.3 2.7-7.4 7.9-8.2 14.8-1.4 11.4 4.3 33.8 5.7 44.2 1.5 11 1.8 42.9.7 48.7-1.1 5.8-1.7 9.4-1.7 9.4s24.2-1.3 39.7-.2c8.7.6 25.6-.4 30.6-.9 2-.2.5-4.5 0-13.8-1.2-21.7-2.6-38.9-1.8-55.4.5-12.1 2.8-34.3 1.4-39.8-1.1-4.4-10.9-11.6-24.3-12.4-1.8-.1-.8-3.3-2-3.4-2.2-.1-6.4.2-8.8.3-8.9.6-14.5-.9-19-.4-.4 0-2.9 5-3.2 5-3.4.3-4.4.8-5.1 1.2z"/><path class="st126" d="M288.8 337.6c-.6.9-35.2-44.3-35.2-44.3s-6.6-5.3-14.1 5.5 5.6 29.7 7.7 32.5c1.5 2.1 19.1 16.5 28.7 25.2.1.2 12.9-18.9 12.9-18.9zM183.2 295.4s-2.4 3.6-4.4 9.4c-1 2.7-1.8 6.2-2.6 8.5-2.2 6.2-5.7 28.1-5.7 28.1s-2.8 9.3.8 13.7c5.1 6.2 16.2 17.5 16.9 17.7 3.5.9-1.4-25.9-1.4-25.9l-3.6-51.5z"/><path d="M224.9 248.8s.4 5 6.1 7c4.7 1.6 8.1-.2 8.1-.2s1.1 6.6.9 8.9c-.2 2.5-.5 6.1-5.3 7-4.4.9-8.4.1-10.2-.4-.8-.2-1.6-.6-2.2-1.2-1.3-1.2-3.1-3.7-2.5-7.4.9-5.4.8-12.4.8-12.4l4.3-1.3z"/><linearGradient id="SVGID_4_" gradientUnits="userSpaceOnUse" x1="169.464" y1="440.708" x2="248.821" y2="440.708"><stop offset="0"/><stop offset="1" stop-opacity="0"/></linearGradient><path d="M183.4 295s2.6-5.7 9.3-8.8c0 0 .7-.8 4.9-1.3.6-.1 2.6-4.8 3.3-4.9 2.7-.4 9.2.2 9 .3-5.3 1.8-2.4 4.2-.9 4.1h4.4c34.1 4.3 16.3 40.6 6.8 63-6 14.1-12.2 33.4 3 56.1 10.2 15.2 11 32.2 9.7 54.3-1.3 21.9 6.4 23.2 13.1 38.1 6.6 14.9.3 18.3-1.5 31.5-2.5 18.6-4 48.5-2 56.8 0 0 3-22-2.2-39.4-3.6-12.1-4.4-23.7-5.3-34.6-.7-2.1-3.8-13.1-7.1-23.2-4.5-13.9-9.4-27.5-9.4-27.5s-7.2-18.6-7.6-18.3c-24.7 17.2-4.7 20.3-10.7 51.2-2.8 14.4-25.6 26.3-17.1 48.3 4.3 11.2 3 23.3-2 34.9-3.7 8.5-4.6 26-4.6 26s.3-23.2.4-42c.1-20.5-.5-29.1 3.5-52.8 0-3.5.4-38.9 1.5-68.9.7-19.4 4.6-36.1 5.3-42.8.7-6.9.5-15.3.4-23.1-.1-15.1-1.7-28.3-1.7-28.3s-.5-9.8-5.5-18.7c-.8-1.3 4.4 10.7 1.4 20.9-2.7 9 5.6 16.8 5.6 18 0 1.6.3 8.3.2 8.4-.1 0-10.7-10.6-15.6-16.6-.6-.7-1.1-1.3-1.4-2-.8-1.6-.8-2.9-.8-3.4-.7-7.5 2.9-20.4 5.5-32.7 2.4-12.2 7.1-20.9 8.1-22.6z" opacity=".36" fill="url(#SVGID_4_)"/><linearGradient id="SVGID_6_" gradientUnits="userSpaceOnUse" x1="256.736" y1="422.922" x2="267.111" y2="311.754"><stop offset="0"/><stop offset="1" stop-color="#231f20" stop-opacity="0"/></linearGradient><path d="M252.7 336.5l-12.9-13.4c0 .1 8.2-1.8 12 .4 7.5 4.4 1.2 13.6 17.7 18.1 5.1 1.4 8.3 4.6 10.4 9.2.7 1.7 1.2 3.9 2.7 5.2 1.4 1.2 5.5-.1 6.9-1.3 0 0-2.7 3.9-7.8 4-4.1.1-7.5-3.6-10.5-6.3l-2.7-2.4c-7.1-6.3-14.6-12.5-15.5-13.3-.2-.1-.2-.1-.3-.2z" opacity=".3" fill="url(#SVGID_6_)"/><path d="M240 248.2c-2.1 0-2.2-6.4-2.2-7.1 0-.7.1-7.1 2.2-7.1s2.2 6.4 2.2 7.1c0 .7-.1 7.1-2.2 7.1zm0-13c-.4.4-1 2.6-1 5.9 0 3.3.6 5.4 1 5.9.4-.4 1-2.6 1-5.9 0-3.3-.6-5.4-1-5.9z"/><path d="M227.5 271.7l.3 5.2s-6.6-4.5-7.5-9.7c1 2.1 2.3 3.6 4.5 4.1.8.1 1.8.3 2.7.4z" fill="#b97f53"/><path d="M237.7 220.5c1.7-.2 3.5.1 4.9 1.3.7.5 1.3 1.3 1.7 2.1.4.8.6 1.7.7 2.6.2 1.8-.1 3.5-.5 5.2-.5 1.6-1.1 3.2-1.9 4.7.4-1.7.8-3.3 1-4.9l.3-2.4c0-.8.1-1.6 0-2.4-.2-1.6-.7-3.1-1.9-4.1-1.1-1.2-2.6-1.8-4.3-2.1zM204.5 223.1c.1-.1.1-.2 0-.3-.1-.1-.2-.1-.3-.1-.2-.1-.4-.1-.7-.1-.5-.1-.9-.1-1.4 0-.9 0-1.8.2-2.7.4-1.7.4-3.4 1.1-4.7 2.3-1.3 1.1-2.2 2.7-2.6 4.5-.5 1.7-.6 3.6-.6 5.5-.5-1.8-.7-3.8-.3-5.7.2-1 .5-1.9.9-2.8.5-.9 1.1-1.7 1.8-2.4 1.5-1.3 3.4-2.1 5.3-2.4 1-.1 1.9-.1 2.9 0 .5.1 1 .2 1.4.3.2.1.5.2.7.3.1.1.2.1.3.3.2 0 .1.1 0 .2z"/><path class="st139" d="M235.7 224.1c.7 1.6 1.1 3.4 1.3 5.1.2 1.8.1 3.6-.3 5.4-.4 1.8-1.2 3.5-2.3 4.9-1.1 1.4-2.6 2.5-4.2 3.2 1.3-1.1 2.6-2.3 3.5-3.8.5-.7.9-1.4 1.2-2.2.3-.8.6-1.6.8-2.4.4-1.6.6-3.3.6-5-.2-1.7-.3-3.4-.6-5.2zM231.6 225.9c.4 1 .5 2.1.4 3.2-.1 1.1-.4 2.1-.9 3.1s-1.2 1.9-2.1 2.5c-.4.4-.9.6-1.3.9l-1.5.6c.4-.4.8-.7 1.1-1.1.4-.4.7-.7 1-1.1.7-.7 1.2-1.6 1.6-2.4.5-.9.8-1.8 1.1-2.7.3-1 .5-2 .6-3zM202.4 223.9c-1.1 1.2-2 2.4-2.7 3.8l-.9 2.1c-.1.4-.2.7-.3 1.1l-.2 1.1c-.1.4-.1.7-.2 1.1 0 .2-.1.4-.1.6v.6c0 .4-.1.8 0 1.1 0 .4 0 .8.1 1.1v.6l.1.6.1 1.2c.1.8.3 1.5.4 2.3-.4-.7-.7-1.4-1-2.2l-.3-1.2-.3-1.2c-.3-1.6-.3-3.2 0-4.9.3-1.6.9-3.2 1.8-4.5.9-1.4 2.1-2.5 3.5-3.3z"/><linearGradient id="SVGID_8_" gradientUnits="userSpaceOnUse" x1="26.329" y1="-148.561" x2="536.638" y2="971.976"><stop offset="0"/><stop offset="1" stop-opacity="0"/></linearGradient><path d="M214 280.4s2.6-2.5 1.6-9-4-2.3-2.6-15.7 9.2-9.9 6.3-20.9c-2.9-11-18.3-4.7-18.8 6s-2.2 12.6.4 15.7c2.5 3.1.9 7.6 1.8 9 .5.8 1.3 1.1 1.3 1.1 0 2.6-.9 13.1-.9 13.1l10.9.7z" opacity=".36" fill="url(#SVGID_8_)"/><g><linearGradient id="SVGID_10_" gradientUnits="userSpaceOnUse" x1="323.341" y1="174.297" x2="393.143" y2="237.849"><stop offset="0" stop-color="#54a5f6"/><stop offset="1"/></linearGradient><path d="M354 178.5c0 14.5-11.4 26.5-25.3 26.8-13.7.3-24.7-10.8-24.7-24.9 0-14.1 11-26.1 24.7-26.8 13.9-.7 25.3 10.5 25.3 24.9z" fill="url(#SVGID_10_)"/><path class="st1" d="M339.6 177.3l-9.1.4v-9.1c0-1-.8-1.8-1.8-1.7-1 0-1.8.9-1.8 1.9v9.1l-9 .3c-1 0-1.7.9-1.7 1.9s.8 1.8 1.7 1.7l9-.3v9.1c0 1 .8 1.8 1.8 1.8s1.8-.9 1.8-1.9v-9.1l9.1-.3c1 0 1.8-.9 1.8-1.9s-.8-2-1.8-1.9z"/></g><g><linearGradient id="SVGID_12_" gradientUnits="userSpaceOnUse" x1="520.426" y1="166.432" x2="582.108" y2="226.712"><stop offset="0" stop-color="#6e66ef"/><stop offset="1"/></linearGradient><path d="M555.6 171.2c0 15.9-13.3 29.1-29.5 29.5-15.9.4-28.7-11.8-28.7-27.2s12.8-28.6 28.7-29.4c16.2-.9 29.5 11.3 29.5 27.1z" fill="url(#SVGID_12_)"/><path class="st1" d="M542.7 1124.1c0-.4-.2-.9-.4-1.1l-8-9.2c-.7-.8-1.9-.8-2.6-.1-.7.6-.9 1.8-.3 2.5l5.5 6.4-25.4 1c-1 0-1.8.9-1.8 1.8s.8 1.7 1.8 1.7l25.4-1-5.5 6.8c-.6.7-.5 1.9.3 2.5.8.6 2 .4 2.6-.3l8-9.8c.3-.5.3-.8.4-1.2z" transform="translate(0 -952.362)"/></g><path class="st444" d="M578.4 225.9l-60.6.8v-8.1l60.6-1zM566.2 243.4l-48.4.3v-8.3l48.4-.5zM547.8 288.5l-37.5-.5v-7.1l37.5.4zM614.8 435l-169.4-12.8c-4.9-.4-8.7-4.4-8.7-9.3V299.7l185.6 3.6V428c0 4.1-3.4 7.3-7.5 7zM487.9 260.1h-31.2c-3.5 0-6.3-2.8-6.3-6.3v-41.7c0-3.4 2.7-6.3 6.2-6.3l31.2-.7c3.6-.1 6.5 2.8 6.5 6.3v42.4c-.1 3.5-2.9 6.3-6.4 6.3zM450.4 287.2l43.5.6v-7l-43.5-.4z"/><path d="M385 300.2L276.8 298c-2.2 0-4-1.9-4-4.1v-20.8c0-2.3 1.8-4.1 4.1-4.1l108.2.6c2.1 0 3.8 1.7 3.8 3.9v22.9c.1 2.1-1.7 3.8-3.9 3.8z" fill="none" stroke="#e1e5e9" stroke-miterlimit="10"/><path class="st444" d="M349.7 340l-43.1-1.4c-2-.1-3.6-1.8-3.6-3.8v-18.4c0-2.1 1.8-3.8 3.9-3.8l43.1.9c2.5.1 4.4 2.1 4.4 4.6v17.3c.1 2.6-2.1 4.7-4.7 4.6z"/><path class="st1" d="M607.3 415.8l-156.7-10.6v-78l156.7 5z"/><path class="st444" d="M485.1 353.1c0 5.8-4.4 10.2-9.8 10-5.4-.3-9.7-5.1-9.7-10.8 0-5.7 4.3-10.2 9.7-10 5.4.2 9.8 5 9.8 10.8zM485.1 400.4l-19.5-1.2v-30l19.5 1zM517.2 384.7l-22-1.2v-12.8l22 1.1zM549 396.9l-23.3-1.4v-23.3l23.3 1.2zM583.1 383.8l-26.1-1.4v-8.6l26.1 1.3z"/></svg>