<svg height="39" viewBox="0 0 206 39" width="206" xmlns="http://www.w3.org/2000/svg" xmlns:xlink="http://www.w3.org/1999/xlink"><linearGradient id="a" x1="-13.122944%" x2="100%" y1="-11.099918%" y2="100%"><stop offset="0" stop-color="#29c3cf"/><stop offset="1" stop-color="#16f5e7"/></linearGradient><g fill="none" fill-rule="evenodd"><path d="m59.3524282 26.5805825c.4969101 0 .9125883.1744319 1.2470471.523301.3344587.3488691.5016856.7525543.5016856 1.211068 0 .4983843-.1672269.9070534-.5016856 1.2260194-.3344588.318966-.750137.4784466-1.2470471.4784466h-9.6036956c-.4969101 0-.9125883-.1744319-1.247047-.523301s-.5016856-.782457-.5016856-1.3007767v-17.2838835c0-.5183197.1672269-.95190763.5016856-1.30077669s.7501369-.52330097 1.247047-.52330097h9.6036956c.4969101 0 .9125883.16446438 1.2470471.49339806.3344587.32893368.5016856.752554.5016856 1.2708738 0 .4983844-.162449.9020696-.4873518 1.2110679-.3249027.3089984-.7453588.4634952-1.2613809.4634952h-7.7689597v5.0834951h6.4789111c.4969101 0 .9125883.1644644 1.247047.4933981s.5016856.752554.5016856 1.2708738c0 .4983844-.1624489.9020696-.4873517 1.2110679-.3249028.3089984-.7453589.4634952-1.2613809.4634952h-6.4789111v5.5320388zm17.0668204-12.8718446c.4949908 0 .9043041.1693093 1.227952.5079331.3236479.3386239.4854694.7768363.4854694 1.3146506v12.6385726c0 .5178952-.1618215.951128-.4854694 1.2997113-.3236479.3485834-.7329612.5228724-1.227952.5228724-.4949909 0-.8995447-.1693094-1.2136735-.5079332-.3141289-.3386238-.4807098-.7668769-.499748-1.2847721-.4759527.5776524-1.1184793 1.0706414-1.9275991 1.4789819-.8091197.4083405-1.6610624.6125076-2.5558536.6125076-1.3136296 0-2.5034937-.3535578-3.5696279-1.0606839-1.0661342-.7071262-1.908558-1.6881246-2.5272966-2.9430246s-.9281033-2.6790906-.9281033-4.2726144.3046052-3.022694.9138248-4.2875536c.6092195-1.2648595 1.4421244-2.2508376 2.4987395-2.9579638 1.0566152-.7071261 2.222682-1.0606839 3.4982354-1.0606839.9138294 0 1.7705315.174289 2.5701322.5228724.7996006.3485833 1.4754434.7917754 2.0275486 1.3295897v-.0298784c0-.5178952.1618216-.951128.4854694-1.2997113.3236479-.3485834.7329612-.5228724 1.2279521-.5228724zm-5.6375371 13.3203883c1.2400705 0 2.2511898-.4753853 3.0333882-1.4261701s1.1732917-2.1467541 1.1732917-3.5879438c0-1.4411896-.3910933-2.642163-1.1732917-3.6029561s-1.7933177-1.4411824-3.0333882-1.4411824c-1.2209926 0-2.222573.4803893-3.0047714 1.4411824s-1.1732917 2.1617665-1.1732917 3.6029561c0 1.4411897.3863239 2.637159 1.1589833 3.5879438.7726593.9507848 1.7790092 1.4261701 3.0190798 1.4261701zm18.9505536-13.3203883c.5705979 0 1.0508438.1695894 1.4407523.5087735.3899085.339184.5848599.738218.5848599 1.1971141 0 .618512-.1521572 1.0823891-.456476 1.3916451s-.665692.4638817-1.0841304.4638817c-.285299 0-.6086329-.0698309-.9700115-.209495-.0570598-.019952-.1854424-.0598554-.3851516-.1197114s-.4136802-.0897835-.6419193-.0897835c-.4945182 0-.9700092.1596136-1.4264875.4788456-.4564782.319232-.8321162.8030608-1.126925 1.4515009-.2948089.64844-.4422111 1.4215685-.4422111 2.3194085v7.0929011c0 .518752-.161667.9527015-.4850058 1.3018616-.3233387.34916-.732261.5237374-1.2267792.5237374-.4945181 0-.9034404-.1745774-1.2267791-.5237374-.3233388-.3491601-.4850058-.7831096-.4850058-1.3018616v-12.3602031c0-.518752.161667-.9527016.4850058-1.3018616.3233387-.34916.732261-.5237374 1.2267791-.5237374.4945182 0 .9034405.1745774 1.2267792.5237374.3233388.34916.4850058.7831096.4850058 1.3018616v.3890621c.4374583-.8180321 1.0651065-1.4415228 1.8829634-1.8704908.8178568-.428968 1.6927604-.6434488 2.6247368-.6434488zm8.3141694 14.4955654c0 .5157728-.1655825.94723-.4967524 1.2943847-.3311698.3471547-.7427605.5207295-1.2347844.5207295-.4730998 0-.8704977-.1735748-1.1922056-.5207295s-.4825594-.7786119-.4825594-1.2943847v-18.38918916c0-.51577271.1655824-.94722996.4967523-1.29438467.3311699-.34715472.7427606-.52072947 1.2347844-.52072947.4730999 0 .8704978.17357475 1.1922057.52072947.3217079.34715471.4825594.77861196.4825594 1.29438467zm16.3595375-14.2237208c.49691 0 .90781.1747556 1.232713.5242719s.487351.7839086.487351 1.30319v12.7323162c0 2.5964069-.668907 4.4887597-2.006742 5.6771151-1.337835 1.1883555-3.124773 1.7825243-5.360869 1.7825243-.649805 0-1.313935-.0549232-1.992408-.1647712-.678474-.1098479-1.227933-.2546454-1.648396-.4343966-.936484-.4194196-1.404719-.9986094-1.404719-1.7375867 0-.1398065.028667-.299583.086003-.4793343.114671-.4393919.310566-.7739239.587689-1.0036061.277123-.2296821.578131-.3445215.903034-.3445215.191119 0 .37268.0299581.544687.0898752.133783.0599171.367901.1597774.70236.2995839.334458.1398065.688024.2546459 1.060706.3445215.372683.0898756.759694.1348128 1.161044.1348128 1.356947 0 2.35553-.304574 2.99578-.913731.640249-.609157.960369-1.6526971.960369-3.1306518v-.2995839c-.99382 1.2982034-2.541863 1.9472954-4.644175 1.9472954-.99382 0-1.872955-.2446578-2.637433-.7339806-.764477-.4893228-1.356938-1.1683729-1.7774-2.0371706s-.63069-1.8624077-.63069-2.9808599v-8.7478502c0-.5192814.162449-.9536737.487351-1.30319.324903-.3495163.735803-.5242719 1.232714-.5242719.49691 0 .90781.1747556 1.232713.5242719.324902.3495163.487351.7839086.487351 1.30319v7.6693481c0 1.2582587.262785 2.1619945.788363 2.7112344s1.294822.8238558 2.307754.8238558c.99382 0 1.763064-.304574 2.307754-.913731s.817031-1.4829346.817031-2.6213592v-7.6693481c0-.5192814.162449-.9536737.487351-1.30319.324903-.3495163.735803-.5242719 1.232714-.5242719zm11.981542 16.3106796c-1.362324 0-2.573262-.1789626-3.632848-.5368932s-2.052933-.964415-2.98007-1.8194714c-.510872-.4772408-.766304-1.0041862-.766304-1.5808522 0-.4573557.160827-.8600216.482488-1.2080097.32166-.3479881.709538-.5219795 1.163646-.5219795.359503 0 .681158.1193084.964975.3579288.756848.6562061 1.494762 1.1334397 2.213767 1.4317152s1.570445.447411 2.554346.447411c1.059586 0 1.97252-.2485592 2.738827-.745685.766308-.4971258 1.149456-1.1135526 1.149456-1.8492988 0-.8948265-.378418-1.5957634-1.135265-2.1028317-.756847-.5070684-1.958324-.8898495-3.604466-1.1483549-4.143738-.6363211-6.215576-2.664564-6.215576-6.0847897 0-1.252757.312195-2.3414463.936593-3.2661003.624399-.924654 1.475839-1.6305621 2.554347-2.11774541 1.078507-.48718331 2.279984-.73077131 3.604466-.73077131 1.192034 0 2.313097.18890498 3.363223.5667206 1.050125.37781563 1.925216.87493402 2.6253 1.49137002.548714.4573558.823067.9843012.823067 1.5808522 0 .4573558-.160828.8600216-.482488 1.2080097s-.700077.5219795-1.135265.5219795c-.283817 0-.539249-.0894813-.766303-.2684466-.491951-.4175857-1.177834-.8003668-2.057668-1.1483549-.879835-.3479881-1.669782-.5219795-2.369866-.5219795-1.192034 0-2.114428.2336456-2.767208.7009439-.652781.4672983-.979166 1.0787539-.979166 1.8343851 0 .8550564.335845 1.5013103 1.007547 1.938781.671702.4374708 1.726542.795396 3.164551 1.0737864 1.627222.2982755 2.928033.6810567 3.902474 1.148355.974441.4672982 1.707625 1.1036097 2.199576 1.9089536.49195.8053438.737922 1.8741483.737922 3.2064455 0 1.2527571-.335846 2.3513887-1.007548 3.2959277-.671701.9445391-1.565714 1.6703319-2.682063 2.1774002-1.11635.5070684-2.317827.7605987-3.604467.7605987zm22.874189-16.5825242c.494991 0 .904304.1693093 1.227952.5079331.323648.3386239.485469.7768363.485469 1.3146506v12.6385726c0 .5178952-.161821.951128-.485469 1.2997113-.323648.3485834-.732961.5228724-1.227952.5228724s-.899545-.1693094-1.213674-.5079332c-.314128-.3386238-.480709-.7668769-.499747-1.2847721-.475953.5776524-1.11848 1.0706414-1.9276 1.4789819-.809119.4083405-1.661062.6125076-2.555853.6125076-1.31363 0-2.503494-.3535578-3.569628-1.0606839-1.066134-.7071262-1.908558-1.6881246-2.527297-2.9430246-.618738-1.2549-.928103-2.6790906-.928103-4.2726144s.304605-3.022694.913825-4.2875536c.609219-1.2648595 1.442124-2.2508376 2.498739-2.9579638 1.056615-.7071261 2.222682-1.0606839 3.498236-1.0606839.913829 0 1.770531.174289 2.570132.5228724.799601.3485833 1.475443.7917754 2.027549 1.3295897v-.0298784c0-.5178952.161821-.951128.485469-1.2997113.323648-.3485834.732961-.5228724 1.227952-.5228724zm-5.89956 13.3203883c1.24007 0 2.25119-.4753853 3.033388-1.4261701s1.173292-2.1467541 1.173292-3.5879438c0-1.4411896-.391094-2.642163-1.173292-3.6029561s-1.793318-1.4411824-3.033388-1.4411824c-1.220993 0-2.222573.4803893-3.004772 1.4411824-.782198.9607931-1.173291 2.1617665-1.173291 3.6029561 0 1.4411897.386323 2.637159 1.158983 3.5879438.772659.9507848 1.779009 1.4261701 3.01908 1.4261701zm15.211655 1.1751771c0 .5157728-.165583.94723-.496753 1.2943847s-.74276.5207295-1.234784.5207295c-.4731 0-.870498-.1735748-1.192206-.5207295s-.482559-.7786119-.482559-1.2943847v-18.38918916c0-.51577271.165582-.94722996.496752-1.29438467.33117-.34715472.742761-.52072947 1.234785-.52072947.473099 0 .870497.17357475 1.192205.52072947.321708.34715471.48256.77861196.48256 1.29438467zm16.36618-14.4955654c.494991 0 .904304.1693093 1.227952.5079331.323648.3386239.48547.7768363.48547 1.3146506v12.6385726c0 .5178952-.161822.951128-.48547 1.2997113-.323648.3485834-.732961.5228724-1.227952.5228724s-.899544-.1693094-1.213673-.5079332-.48071-.7668769-.499748-1.2847721c-.475953.5776524-1.11848 1.0706414-1.927599 1.4789819-.80912.4083405-1.661063.6125076-2.555854.6125076-1.31363 0-2.503494-.3535578-3.569628-1.0606839-1.066134-.7071262-1.908558-1.6881246-2.527296-2.9430246-.618739-1.2549-.928104-2.6790906-.928104-4.2726144s.304605-3.022694.913825-4.2875536c.60922-1.2648595 1.442124-2.2508376 2.49874-2.9579638 1.056615-.7071261 2.222682-1.0606839 3.498235-1.0606839.913829 0 1.770531.174289 2.570132.5228724.799601.3485833 1.475444.7917754 2.027549 1.3295897v-.0298784c0-.5178952.161821-.951128.485469-1.2997113.323648-.3485834.732961-.5228724 1.227952-.5228724zm-5.637537 13.3203883c1.240071 0 2.25119-.4753853 3.033388-1.4261701.782199-.9507848 1.173292-2.1467541 1.173292-3.5879438 0-1.4411896-.391093-2.642163-1.173292-3.6029561-.782198-.9607931-1.793317-1.4411824-3.033388-1.4411824-1.220992 0-2.222573.4803893-3.004771 1.4411824-.782199.9607931-1.173292 2.1617665-1.173292 3.6029561 0 1.4411897.386324 2.637159 1.158983 3.5879438.77266.9507848 1.77901 1.4261701 3.01908 1.4261701zm19.212577-13.3203883c.570598 0 1.050844.1695894 1.440752.5087735.389909.339184.58486.738218.58486 1.1971141 0 .618512-.152157 1.0823891-.456476 1.3916451s-.665692.4638817-1.08413.4638817c-.285299 0-.608633-.0698309-.970012-.209495-.057059-.019952-.185442-.0598554-.385151-.1197114-.19971-.059856-.413681-.0897835-.64192-.0897835-.494518 0-.970009.1596136-1.426487.4788456s-.832116.8030608-1.126925 1.4515009c-.294809.64844-.442211 1.4215685-.442211 2.3194085v7.0929011c0 .518752-.161667.9527015-.485006 1.3018616-.323339.34916-.732261.5237374-1.226779.5237374s-.903441-.1745774-1.226779-.5237374c-.323339-.3491601-.485006-.7831096-.485006-1.3018616v-12.3602031c0-.518752.161667-.9527016.485006-1.3018616.323338-.34916.732261-.5237374 1.226779-.5237374s.90344.1745774 1.226779.5237374.485006.7831096.485006 1.3018616v.3890621c.437458-.8180321 1.065106-1.4415228 1.882963-1.8704908s1.692761-.6434488 2.624737-.6434488zm15.764917.2718446c.49691 0 .907811.1747556 1.232713.5242719.324903.3495163.487352.7839086.487352 1.30319v12.7323162c0 2.5964069-.668907 4.4887597-2.006742 5.6771151-1.337835 1.1883555-3.124774 1.7825243-5.360869 1.7825243-.649806 0-1.313935-.0549232-1.992409-.1647712-.678473-.1098479-1.227933-.2546454-1.648395-.4343966-.936485-.4194196-1.40472-.9986094-1.40472-1.7375867 0-.1398065.028668-.299583.086003-.4793343.114672-.4393919.310566-.7739239.587689-1.0036061.277123-.2296821.578131-.3445215.903034-.3445215.19112 0 .37268.0299581.544687.0898752.133784.0599171.367902.1597774.70236.2995839.334459.1398065.688024.2546459 1.060707.3445215s.759693.1348128 1.161044.1348128c1.356947 0 2.35553-.304574 2.995779-.913731.64025-.609157.96037-1.6526971.96037-3.1306518v-.2995839c-.99382 1.2982034-2.541863 1.9472954-4.644175 1.9472954-.99382 0-1.872956-.2446578-2.637433-.7339806s-1.356938-1.1683729-1.7774-2.0371706c-.420463-.8687977-.630691-1.8624077-.630691-2.9808599v-8.7478502c0-.5192814.162449-.9536737.487352-1.30319s.735803-.5242719 1.232713-.5242719.90781.1747556 1.232713.5242719.487352.7839086.487352 1.30319v7.6693481c0 1.2582587.262785 2.1619945.788363 2.7112344s1.294822.8238558 2.307754.8238558c.99382 0 1.763063-.304574 2.307753-.913731s.817031-1.4829346.817031-2.6213592v-7.6693481c0-.5192814.162449-.9536737.487352-1.30319s.735803-.5242719 1.232713-.5242719z" fill="#1fdfdd"/><path d="m5.6422994 0h25.7146321c3.1164668 0 5.6430685 2.66259743 5.6430685 5.94801677v27.10396643c0 3.284879-2.5266017 5.9480168-5.6430685 5.9480168h-25.7146321c-3.11621043 0-5.6422994-2.6631378-5.6422994-5.9480168v-27.10396643c0-3.28541934 2.52608897-5.94801677 5.6422994-5.94801677zm8.4421634 20.5653532c.5724014 0 1.0364683-.4767921 1.0364683-1.0654871 0-.5884272-.4640669-1.0652193-1.0364683-1.0652193h-8.1149216c-.57188049 0-1.03620787.4767921-1.03620787 1.0652193 0 .588695.46432738 1.0654871 1.03620787 1.0654871zm2.8708609 5.5137616h-10.98474083c-.57292216 0-1.03724954.4773275-1.03724954 1.0662901v.0010709c0 .5889627.46432738 1.0662902 1.03724954 1.0662902h10.98474083c.5724013 0 1.0367287-.4773275 1.0367287-1.0662902v-.0010709c0-.5889626-.4643274-1.0662901-1.0367287-1.0662901zm0-15.2918808h-10.98474083c-.57292216 0-1.03724954.4773275-1.03724954 1.0662902v.0010709c0 .5886949.46432738 1.0657547 1.03724954 1.0657547h10.98474083c.5724013 0 1.0367287-.4770598 1.0367287-1.0657547v-.0010709c0-.5889627-.4643274-1.0662902-1.0367287-1.0662902zm14.5514418 10.0958913c-.5369844-.8847826-1.3768362-1.5066736-2.3338766-1.9853396-.9336027-.4540367-2.029707-.7648484-3.220083-1.0044491h-.0463546c-1.2601684-.2387976-2.3106993-.6216234-2.9174759-1.0515661-.3031279-.2155068-.5132862-.4307459-.629954-.6224265-.1164074-.1908775-.1635432-.3825581-.1635432-.6692758 0-.5022245.2570337-1.0288107.8869877-1.5069413.6302143-.477863 1.563817-.8130363 2.6138271-.8130363 1.4229303 0 2.5666913.7177314 3.7570673 1.5304999.5596408.3830934 1.3070438.2155068 1.6567868-.3584641.3731806-.5501447.2101582-1.3155285-.3268261-1.6980865-1.190376-.7889423-2.8471627-1.9130579-5.087028-1.9130579-1.5169416 0-2.9406532.453769-4.0372783 1.2673406-1.0734478.8127685-1.866945 2.0565506-1.866945 3.4917456 0 .7171959.186981 1.3870071.5369843 1.960978.5130258.8368625 1.2828248 1.4346596 2.1700729 1.8654055.8864669.4299428 1.9132996.7171959 3.0104456.9321673h.046615c1.3763153.2634269 2.5200763.6703466 3.1966453 1.1241156.3502638.239333.560422.478666.7005275.7177313.1395847.2393331.209377.4548399.209377.7651161 0 .5983326-.3031279 1.1961297-1.0028742 1.7221805-.7005275.5263184-1.7500168.8847825-2.916955.8847825-1.6573076.0238263-3.4305017-.9808906-4.4573345-1.8413115-.5135466-.4307459-1.2833456-.3589995-1.7034018.167319-.3968788.5260507-.326826 1.3155284.1867206 1.7457389 1.3299607 1.0761955 3.4534185 2.3673623 5.9740157 2.3911885 1.6567867 0 3.1734679-.5022245 4.3169685-1.3629132 1.1666778-.8606886 2.0067901-2.1762171 2.0067901-3.7069847 0-.7412898-.2101583-1.4590212-.5599012-2.0324567z" fill="url(#a)"/></g></svg>