<svg width="105" height="82" viewBox="0 0 105 82" fill="none" xmlns="http://www.w3.org/2000/svg">
<path d="M49.5037 1.17083C48.9163 0.851809 48.3047 0.634265 47.6854 0.523275L47.7739 0.0235043C48.4461 0.144008 49.1084 0.379943 49.7427 0.723695L49.5037 1.17083ZM43.9963 1.17083L43.7245 0.743354C44.3214 0.359011 44.9796 0.10849 45.6801 3.65733e-05L45.7567 0.501715C45.126 0.599386 44.534 0.824537 43.9963 1.17083V1.17083ZM52.4453 3.78258C52.0047 3.22699 51.5501 2.73483 51.094 2.31941L51.4324 1.94332C51.9085 2.37649 52.382 2.88895 52.8394 3.4661L52.4453 3.78258ZM41.555 4.17009L41.1031 3.94558C41.4337 3.27076 41.8008 2.67395 42.1939 2.17164L42.5898 2.48558C42.2185 2.95998 41.8706 3.52698 41.555 4.17009ZM54.6076 7.18141C54.276 6.55352 53.9371 5.96306 53.6005 5.4284L54.0265 5.15695C54.3699 5.70302 54.7152 6.30364 55.0527 6.94357L54.6076 7.18141ZM40.2338 7.97166L39.7449 7.84861C39.9205 7.14018 40.1143 6.47297 40.3209 5.86475L40.7979 6.02902C40.5959 6.62329 40.4062 7.27654 40.2338 7.97166ZM56.3139 10.8675C56.0432 10.2117 55.77 9.58387 55.5023 9.00228L55.9598 8.78918C56.2302 9.37711 56.5061 10.0107 56.78 10.6722L56.3139 10.8675ZM39.4763 11.966L38.9773 11.8937C39.079 11.1834 39.1912 10.4997 39.3102 9.86293L39.806 9.95679C39.6878 10.5866 39.577 11.2627 39.4763 11.966V11.966ZM57.765 14.6736C57.5215 13.9892 57.2912 13.3639 57.0629 12.7614L57.5341 12.5806C57.7637 13.1863 57.9946 13.8148 58.2394 14.5029L57.765 14.6736ZM39.0175 16.0206L38.5153 15.9756C38.5783 15.264 38.6466 14.5765 38.7187 13.9321L39.2195 13.9892C39.1479 14.6292 39.0799 15.3128 39.0175 16.0206V16.0206ZM84.1762 16.8762C83.5521 16.6111 82.9204 16.4475 82.2982 16.3891L82.3452 15.8837C83.0187 15.9471 83.7005 16.124 84.3728 16.4088L84.1762 16.8762ZM78.6762 17.4978L78.387 17.0823C79.0072 16.646 79.6338 16.3225 80.2484 16.1215L80.4044 16.6041C79.8368 16.7893 79.2558 17.0906 78.6762 17.4978ZM59.0855 18.5404C58.8356 17.7857 58.6282 17.1699 58.4354 16.6035L58.9123 16.4392C59.1058 17.0069 59.3125 17.6233 59.5643 18.3793L59.0855 18.5404ZM87.374 19.1728C86.8888 18.6724 86.3858 18.2303 85.8804 17.8599L86.1772 17.4496C86.7055 17.8371 87.2294 18.2975 87.7348 18.8182L87.374 19.1728ZM18.5347 19.9928C17.9057 19.6776 17.287 19.4766 16.6959 19.3947L16.7643 18.8924C17.4099 18.9812 18.0811 19.1988 18.7594 19.5387L18.5347 19.9928ZM38.7242 20.0987L38.221 20.0689C38.2647 19.3313 38.308 18.6616 38.3535 18.021L38.8564 18.0572C38.8108 18.6958 38.768 19.3637 38.7242 20.0987ZM75.8329 20.2985L75.4416 19.9789C75.9147 19.3916 76.3625 18.8867 76.8109 18.4345L77.168 18.7929C76.731 19.2324 76.2946 19.7252 75.8329 20.2985V20.2985ZM13.0973 20.4533L12.7915 20.0499C13.3935 19.5882 14.0201 19.2546 14.6538 19.0592L14.8013 19.5444C14.2249 19.722 13.6517 20.0277 13.0973 20.4533V20.4533ZM89.7961 22.3661C89.4352 21.7731 89.0566 21.2118 88.6703 20.6987L89.0731 20.3924C89.4682 20.9188 89.8563 21.494 90.2261 22.101L89.7961 22.3661ZM21.7071 22.3877C21.1919 21.8828 20.6853 21.437 20.2014 21.0621L20.5088 20.66C21.0081 21.0469 21.5296 21.5061 22.0588 22.0243L21.7071 22.3877ZM60.378 22.4232C60.1472 21.7414 59.9201 21.0596 59.7286 20.4818L60.2068 20.3214C60.3983 20.8979 60.6241 21.579 60.855 22.2596L60.378 22.4232ZM10.5092 23.4556L10.0844 23.1824C10.4805 22.5583 10.8889 21.9944 11.2983 21.5067L11.6834 21.834C11.2884 22.3046 10.8934 22.85 10.5092 23.4556ZM73.4761 23.5988L73.055 23.319C73.4761 22.6775 73.8528 22.1226 74.2067 21.6228L74.6171 21.9171C74.267 22.4124 73.8934 22.9623 73.4761 23.5988V23.5988ZM38.5075 24.187L38.0042 24.1614C38.0382 23.4836 38.0719 22.8056 38.1078 22.1156L38.6111 22.1422C38.5755 22.8316 38.5418 23.5095 38.5075 24.187V24.187ZM24.3948 25.412C23.9373 24.8405 23.5116 24.3319 23.0931 23.857L23.4702 23.5204C23.894 24.0013 24.3249 24.5159 24.7873 25.0936L24.3948 25.412ZM91.6271 25.9657C91.3557 25.3303 91.0696 24.7131 90.7747 24.1312L91.2237 23.901C91.5237 24.4927 91.8148 25.1201 92.0901 25.7655L91.6271 25.9657ZM61.7727 26.2821C61.5444 25.7056 61.3084 25.0768 61.0516 24.3595L61.5253 24.1874C61.7803 24.8993 62.0143 25.523 62.2408 26.0942L61.7727 26.2821ZM71.2646 27.0324L70.8434 26.7537C71.2018 26.2055 71.5715 25.6248 71.9464 25.0381L72.37 25.3123C71.9952 25.9005 71.6248 26.4818 71.2646 27.0324ZM8.63874 27.0326L8.17759 26.8277C8.4543 26.197 8.74922 25.5775 9.06253 24.9718L9.50953 25.2063C9.20117 25.8023 8.91101 26.4118 8.63874 27.0326V27.0326ZM38.2836 28.2815L37.7805 28.2488C37.8187 27.6543 37.8576 26.9862 37.8994 26.2062L38.4028 26.2336C38.3609 27.0154 38.3219 27.6852 38.2836 28.2815ZM26.849 28.6586C26.3878 28.0242 26.0034 27.5034 25.6394 27.0196L26.0413 26.7133C26.407 27.1994 26.7929 27.7223 27.2558 28.359L26.849 28.6586ZM93.0129 29.7743C92.8099 29.117 92.593 28.4699 92.3685 27.851L92.8423 27.6771C93.0693 28.3036 93.2888 28.9586 93.4936 29.6238L93.0129 29.7743ZM63.5726 29.999C63.246 29.4925 62.9232 28.896 62.5839 28.1755L63.0399 27.9584C63.369 28.6584 63.6811 29.2356 63.9957 29.723L63.5726 29.999ZM68.8196 30.3479L68.4492 30.0037C68.831 29.5871 69.2407 29.0731 69.7012 28.4325L70.1103 28.73C69.6378 29.3871 69.2154 29.9163 68.8196 30.3479ZM7.23931 30.8315L6.75723 30.6832C6.95752 30.024 7.17728 29.3684 7.41036 28.7345L7.88312 28.9106C7.6534 29.5354 7.43675 30.1816 7.23931 30.8315V30.8315ZM66.1508 31.9247C65.7576 31.9247 65.3732 31.8067 65.006 31.5738L65.2743 31.1446C65.8261 31.4949 66.3683 31.4957 66.9543 31.2163L67.1706 31.6743C66.8243 31.8405 66.4812 31.9247 66.1508 31.9247V31.9247ZM29.2446 31.9664C28.8348 31.4095 28.4098 30.8208 28.0436 30.3127L28.4517 30.0147C28.8172 30.5218 29.2413 31.1094 29.6497 31.6645L29.2446 31.9664ZM37.9176 32.3788L37.4176 32.314C37.495 31.7084 37.5644 31.0453 37.6298 30.2866L38.1319 30.3304C38.066 31.0961 37.9959 31.7662 37.9176 32.3788ZM94.0486 33.7012C93.8989 33.0311 93.7378 32.3667 93.5697 31.7267L94.0568 31.5969C94.2268 32.2431 94.3898 32.9138 94.5401 33.5902L94.0486 33.7012ZM6.26945 34.7685L5.77456 34.6719C5.90515 33.9947 6.05292 33.3194 6.21376 32.6649L6.70307 32.7867C6.54433 33.4329 6.39839 34.0998 6.26945 34.7685V34.7685ZM31.7912 35.1846C31.3897 34.7346 30.9605 34.2165 30.4792 33.601L30.8754 33.2873C31.3498 33.8941 31.7721 34.4038 32.1663 34.8456L31.7912 35.1846ZM36.9286 36.4189L36.4796 36.1882C36.7103 35.7334 36.9144 35.1022 37.0859 34.3123L37.5784 34.4206C37.395 35.2649 37.1825 35.9184 36.9286 36.4189V36.4189ZM35.1796 37.626C34.4792 37.5148 33.9725 37.1939 33.2707 36.6398L33.5893 36.2466C34.2041 36.7308 34.6482 37.0213 35.2333 37.1215L35.1796 37.626ZM94.7976 37.6976C94.693 37.0205 94.5782 36.346 94.4558 35.6928L94.9511 35.5989C95.0741 36.2574 95.1902 36.9371 95.2955 37.6194L94.7976 37.6976ZM5.68729 38.7862L5.18574 38.7355C5.25424 38.0494 5.3377 37.3637 5.43385 36.6973L5.93274 36.7703C5.8376 37.4293 5.75503 38.1075 5.68729 38.7862V38.7862ZM95.3069 41.7353C95.239 41.0539 95.1629 40.3734 95.0798 39.7126L95.5802 39.649C95.664 40.3143 95.7407 40.9993 95.8086 41.6851L95.3069 41.7353ZM5.44781 42.8426L4.94379 42.8321C4.95786 42.1434 4.98488 41.4534 5.02421 40.7818L5.52753 40.8116C5.48846 41.4767 5.46163 42.1603 5.44781 42.8426ZM95.6082 45.796C95.5733 45.1147 95.5308 44.4306 95.4813 43.7638L95.9843 43.726C96.0337 44.3969 96.0768 45.0846 96.1117 45.77L95.6082 45.796ZM5.00486 46.9335C4.97144 46.2466 4.94924 45.5571 4.93896 44.8834L5.44299 44.8757C5.4532 45.5434 5.47521 46.2275 5.50838 46.9084L5.00486 46.9335ZM95.7274 49.8682C95.721 49.1855 95.7084 48.5005 95.6887 47.831L96.1929 47.8164C96.2126 48.4891 96.2259 49.1777 96.2316 49.8637L95.7274 49.8682ZM5.33143 51.0212C5.25633 50.3384 5.19088 49.6516 5.13703 48.9798L5.63947 48.9392C5.693 49.6055 5.75788 50.2873 5.83253 50.9651L5.33143 51.0212ZM96.1885 53.9577L95.6849 53.9431C95.7046 53.2613 95.7179 52.5759 95.7255 51.9055L96.2291 51.9109C96.2221 52.5841 96.2088 53.2728 96.1885 53.9577ZM5.89291 55.0815C5.78078 54.4056 5.67702 53.7238 5.58442 53.0557L6.08368 52.9855C6.17565 53.6494 6.27877 54.3267 6.39008 54.9981L5.89291 55.0815ZM96.0001 58.0473L95.4972 58.0149C95.5397 57.3363 95.5771 56.6513 95.6082 55.98L96.1117 56.0037C96.0807 56.6777 96.0432 57.3654 96.0001 58.0473ZM6.66597 59.1063C6.52035 58.4381 6.38184 57.7627 6.25417 57.0987L6.74905 57.0025C6.8759 57.6624 7.01359 58.3337 7.15826 58.9972L6.66597 59.1063ZM95.6792 62.1272L95.1775 62.0798C95.2416 61.4003 95.3006 60.7171 95.3532 60.0485L95.8555 60.0886C95.8029 60.7595 95.7439 61.4454 95.6792 62.1272V62.1272ZM7.63513 63.0868C7.45869 62.4314 7.28758 61.7637 7.12648 61.1024L7.61617 60.9816C7.77625 61.6388 7.94629 62.3028 8.12171 62.9541L7.63513 63.0868ZM95.2378 66.1954L94.7374 66.1333C94.8204 65.4565 94.8997 64.7751 94.972 64.1079L95.4731 64.1631C95.4001 64.8326 95.3209 65.5167 95.2378 66.1954V66.1954ZM8.79774 67.0162C8.59161 66.3805 8.38765 65.7219 8.19161 65.0588L8.67483 64.9142C8.8696 65.5732 9.07217 66.2273 9.2769 66.8589L8.79774 67.0162" fill="#006BA4"/>
<path d="M18.4038 69.7606C18.4038 69.7606 6.12655 39.415 14.9617 32.6577C20.8671 28.1412 27.1266 38.0977 34.5977 32.8305C41.2493 28.1412 39.1345 13.8743 49.7425 11.9026C61.6694 9.6851 64.2957 36.2949 74.0837 32.6577C85.9599 28.2444 97.775 37.2036 87.5653 69.8185L18.4038 69.7606Z" fill="#D4E8FF"/>
<path d="M98.4314 59.2996C94.2484 58.6756 94.9313 64.3135 88.9681 64.3135C83.5164 64.3135 81.7725 42.843 77.8062 48.9803C57.4709 80.4453 69.2795 35.5994 53.1068 35.0295C45.7944 34.7719 40.9213 42.6195 39.1244 56.5144C36.5198 69.0761 30.4791 46.9339 24.2625 48.9926C20.3117 50.301 20.7641 64.3135 15.3124 64.3135C9.34961 64.3135 10.0322 58.6756 5.84904 59.2996C1.34521 59.9713 0 69.9508 0 69.9508H104.281C104.281 69.9508 102.936 59.9713 98.4314 59.2996Z" fill="#EEF7FF"/>
<path d="M94.7279 65.4012C90.8799 65.1349 91.5076 67.542 86.0217 67.542C81.0063 67.542 81.1445 62.1467 77.788 60.9997C71.6072 58.8881 66.5115 69.576 64.115 64.2118C59.5642 49.9789 46.29 42.8415 40.1664 64.2118C37.7701 69.576 32.1664 60.0046 26.4937 60.9997C23.002 61.6122 23.2752 67.542 18.2597 67.542C12.7741 67.542 13.4021 65.1349 9.55367 65.4012C5.41014 65.6881 4.17261 69.9495 4.17261 69.9495H100.109C100.109 69.9495 98.8715 65.6881 94.7279 65.4012Z" fill="#DCE6FF"/>
<path d="M0.0776733 69.9505C0.0776733 69.9505 -0.653932 72.7462 2.37705 73.4467C6.52278 74.404 30.8578 76.9197 24.9459 78.8314C21.6087 79.9109 26.6496 81.3763 42.9041 81.9158C59.1592 82.4553 87.051 80.341 77.6714 77.2129C68.2918 74.0843 106.507 76.4572 104.179 69.9505H0.0776733Z" fill="#CFDDF9"/>
<path d="M51.5013 56.6272V51.5754C51.5013 51.2885 51.2974 51.0559 51.0452 51.0559H34.1801C33.9282 51.0559 33.7241 51.2885 33.7241 51.5754V56.6272C33.7241 56.914 33.9282 57.1466 34.1801 57.1466H39.3823V72.033C39.3823 72.3198 39.5866 72.5529 39.8384 72.5529H45.3868C45.6386 72.5529 45.8429 72.3198 45.8429 72.033V57.1466H51.0452C51.2974 57.1466 51.5013 56.914 51.5013 56.6272" fill="#005C8C"/>
<path d="M62.036 63.7129H59.3261L60.6741 58.6574L62.036 63.7129ZM64.1923 51.3928C64.1262 51.1903 63.956 51.0562 63.7657 51.0562H57.7139C57.5241 51.0562 57.3539 51.1903 57.2868 51.3928L50.5384 71.8504C50.4857 72.01 50.5054 72.1888 50.5902 72.3292C50.6755 72.4693 50.8155 72.5532 50.9651 72.5532H56.63C56.8328 72.5532 57.0106 72.4013 57.0677 72.1806L57.8462 69.176H63.466L64.2666 72.1842C64.3246 72.4032 64.5015 72.5532 64.7029 72.5532H70.5125C70.6621 72.5532 70.8026 72.4693 70.8874 72.3292C70.9728 72.1893 70.9924 72.01 70.9397 71.8504L64.1923 51.3928Z" fill="#005C8C"/>
<path d="M92.6722 71.7468L86.7205 61.4795L92.1487 51.8565C92.2388 51.6965 92.2449 51.4935 92.1652 51.3266C92.0855 51.1597 91.9317 51.0561 91.7649 51.0561H85.7145C85.5496 51.0561 85.397 51.1574 85.3167 51.3216L82.6164 56.8167L79.8395 51.3165C79.7573 51.1551 79.6072 51.0561 79.4441 51.0561H73.3324C73.1644 51.0561 73.0106 51.1606 72.9309 51.3284C72.8512 51.4962 72.8586 51.7005 72.9505 51.8602L78.4161 61.3705L72.3884 71.7464C72.2958 71.906 72.2872 72.1108 72.3669 72.279C72.4466 72.4478 72.6005 72.5532 72.7691 72.5532H78.9659C79.1247 72.5532 79.2718 72.4592 79.3546 72.3055L82.5116 66.4528L85.6692 72.3055C85.7519 72.4592 85.8991 72.5532 86.0578 72.5532H92.2915C92.4595 72.5532 92.614 72.4478 92.6936 72.2795C92.7727 72.1112 92.7648 71.9064 92.6722 71.7468" fill="#005C8C"/>
<path d="M50.133 56.6272V51.5754C50.133 51.2885 49.9291 51.0559 49.6769 51.0559H32.8118C32.56 51.0559 32.3558 51.2885 32.3558 51.5754V56.6272C32.3558 56.914 32.56 57.1466 32.8118 57.1466H38.0142V72.033C38.0142 72.3198 38.2184 72.5529 38.4701 72.5529H44.0185C44.2703 72.5529 44.4746 72.3198 44.4746 72.033V57.1466H49.6769C49.9291 57.1466 50.133 56.914 50.133 56.6272Z" fill="#006BA4"/>
<path d="M60.6681 63.7128H57.958L59.306 58.6573L60.6681 63.7128ZM62.8248 51.3927C62.7579 51.1902 62.5879 51.0561 62.3976 51.0561H56.3458C56.156 51.0561 55.986 51.1902 55.9191 51.3927L49.1707 71.8503C49.1175 72.01 49.1372 72.1888 49.2225 72.3292C49.3077 72.4692 49.4476 72.5532 49.5974 72.5532H55.2621C55.4646 72.5532 55.6426 72.4013 55.7001 72.1806L56.4786 69.176H62.0981L62.8983 72.1842C62.9567 72.4031 63.1338 72.5532 63.3349 72.5532H69.1446C69.2944 72.5532 69.4348 72.4692 69.5195 72.3292C69.6048 72.1892 69.6246 72.01 69.5718 71.8503L62.8248 51.3927" fill="#006BA4"/>
<path d="M91.3038 71.7469L85.352 61.4795L90.7802 51.8566C90.8703 51.6965 90.8763 51.4936 90.7965 51.3267C90.7167 51.1598 90.5631 51.0563 90.3962 51.0563H84.3459C84.1808 51.0563 84.0285 51.1575 83.9481 51.3217L81.2479 56.8167L78.4709 51.3167C78.3893 51.1552 78.2387 51.0563 78.0755 51.0563H71.9634C71.796 51.0563 71.6418 51.1607 71.562 51.3285C71.4828 51.4963 71.49 51.7006 71.5819 51.8603L77.0476 61.3705L71.0203 71.7464C70.9271 71.906 70.9187 72.1108 70.9985 72.279C71.0777 72.4478 71.2319 72.5532 71.4006 72.5532H77.5972C77.7562 72.5532 77.9032 72.4592 77.986 72.3055L81.1433 66.4529L84.3005 72.3055C84.3834 72.4592 84.5303 72.5532 84.6893 72.5532H90.9229C91.0909 72.5532 91.2451 72.4478 91.3249 72.2795C91.4041 72.1113 91.3957 71.9065 91.3038 71.7469Z" fill="#006BA4"/>
<path d="M24.2956 72.767C24.2766 72.767 24.2573 72.7642 24.2381 72.7592L11.9419 69.3356C11.8441 69.3082 11.7788 69.2161 11.7859 69.1148C11.7929 69.0131 11.8703 68.931 11.971 68.9173L23.9364 67.3216L12.7731 62.2935C12.6828 62.2529 12.6322 62.1553 12.6508 62.0582C12.6694 61.961 12.7524 61.889 12.8513 61.8844L25.2436 61.3248L14.0394 55.214C13.9523 55.1666 13.9093 55.0653 13.9355 54.9696C13.9616 54.8743 14.0498 54.8095 14.1492 54.8122L26.2972 55.2323L15.7152 49.3919C15.6269 49.3431 15.5846 49.2391 15.6138 49.1425C15.643 49.0458 15.736 48.9833 15.8362 48.991L28.2359 50.0163C28.3537 50.0258 28.4412 50.1294 28.4315 50.247C28.4218 50.3647 28.3186 50.4523 28.2007 50.4427L16.7967 49.5L27.2867 55.2897C27.3733 55.3376 27.4159 55.4389 27.3895 55.5342C27.3631 55.6295 27.2745 55.6938 27.1759 55.6911L15.0379 55.271L26.1213 61.3161C26.2056 61.3622 26.2489 61.4584 26.2273 61.5519C26.2057 61.6454 26.1244 61.7134 26.0285 61.7175L13.7665 62.2716L24.7959 67.2395C24.8831 67.2787 24.9336 67.3708 24.9197 67.4657C24.9059 67.5601 24.831 67.634 24.7364 67.6468L13.0628 69.2037L24.3529 72.3469C24.4667 72.3784 24.5333 72.4965 24.5016 72.6101C24.4753 72.7049 24.3893 72.767 24.2956 72.767Z" fill="#005C8C"/>
<path d="M25.0875 73.1234H11.5336V71.9832H25.0875V73.1234Z" fill="#006BA4"/>
<path d="M29.2574 51.2823L17.0187 46.1557L17.4592 45.1041L29.6979 50.2307L29.2574 51.2823Z" fill="#006BA4"/>
<path d="M40.3774 41.7531C40.3774 41.7531 41.6111 41.5899 42.6139 41.3226L42.9387 43.5167L40.6109 43.3598C40.6109 43.3598 39.8785 42.7551 40.3774 41.7531" fill="#F99370"/>
<path d="M66.307 46.8972L65.6267 45.6234L67.1953 44.5147C67.1953 44.5147 67.3558 45.1701 67.6338 45.9627C67.6338 45.9627 67.3719 47.0176 66.307 46.8972" fill="#F99370"/>
<path d="M39.2432 41.7116C39.1155 41.7463 38.9946 41.8001 38.8906 41.8817L39.4529 45.7565C39.4803 45.9453 39.6855 46.0543 39.8543 45.9662C39.8561 45.9653 39.8584 45.964 39.8602 45.963C40.2456 45.7592 40.7783 45.1545 40.6109 43.3608C40.6109 43.3608 40.3418 42.7797 40.3774 41.754C40.3774 41.754 39.7594 41.5712 39.2432 41.7116" fill="#1D3F70"/>
<path d="M39.8602 45.963L39.2432 41.7116C39.1155 41.7463 38.9946 41.8001 38.8906 41.8817L39.4529 45.7565C39.4803 45.9453 39.6855 46.0543 39.8543 45.9662L39.8602 45.963" fill="#395B96"/>
<path d="M40.4736 45.2511C40.4462 45.2506 40.4207 45.2365 40.4061 45.2114C40.3997 45.2004 40.2552 44.9606 39.8848 44.8693C39.8424 44.8589 39.8164 44.816 39.8269 44.7736C39.8374 44.7312 39.8803 44.7052 39.9227 44.7156C40.3628 44.8237 40.5365 45.1197 40.5434 45.132C40.5653 45.1703 40.5521 45.2187 40.5142 45.2406C40.5014 45.2479 40.4873 45.2511 40.4736 45.2511" fill="#E8C0A6"/>
<path d="M40.6045 44.6795C40.4827 44.6544 40.3847 44.3406 39.8766 44.2503C39.7754 44.2362 39.7987 44.0761 39.9013 44.0939C40.3897 44.1705 40.6588 44.5381 40.6702 44.5536C40.709 44.6042 40.6675 44.6822 40.6045 44.6795Z" fill="#E8C0A6"/>
<path d="M40.6397 43.9635C40.6187 43.9631 40.5972 43.9544 40.5822 43.9371C40.5795 43.9339 40.3008 43.6288 39.8584 43.5435C39.8156 43.5353 39.7873 43.4933 39.7955 43.4505C39.8037 43.4076 39.8452 43.3798 39.8885 43.3875C40.3852 43.4838 40.6875 43.8171 40.7003 43.8313C40.7295 43.8641 40.7268 43.9143 40.6939 43.9435C40.6784 43.9572 40.6593 43.964 40.6397 43.9635" fill="#E8C0A6"/>
<path d="M66.7826 47.9273C66.8707 48.0253 66.974 48.1088 67.094 48.1649L70.2942 45.9106C70.4494 45.8011 70.4542 45.5686 70.299 45.4582C70.2971 45.4568 70.2956 45.4554 70.2937 45.4541C69.9381 45.2023 69.1578 45.0007 67.6338 45.9617C67.6338 45.9617 67.2378 46.4642 66.307 46.8961C66.307 46.8961 66.4236 47.5301 66.7826 47.9273" fill="#1D3F70"/>
<path d="M69.2778 46.0094C69.2341 46.0422 69.1656 46.0176 69.1543 45.9629C69.0092 45.4544 69.3623 44.9299 69.3778 45.3075C69.3712 45.3176 69.2224 45.5552 69.3087 45.9269C69.3163 45.9592 69.3031 45.9912 69.2778 46.0094Z" fill="#E8C0A6"/>
<path d="M68.7316 46.3037C68.6892 46.3347 68.6249 46.3141 68.6095 46.2635C68.4235 45.7459 68.7376 45.0445 68.8127 45.4422C68.8103 45.4472 68.629 45.8093 68.76 46.2147C68.7712 46.2485 68.7586 46.2841 68.7316 46.3037Z" fill="#E8C0A6"/>
<path d="M68.108 46.6367C67.7582 46.7794 67.9985 45.154 68.1616 45.7269C68.1597 45.7305 68.0137 46.1168 68.138 46.5505C68.1472 46.5833 68.1343 46.6175 68.108 46.6367Z" fill="#E8C0A6"/>
<path d="M70.2937 45.4541L66.7826 47.9273C66.8706 48.0253 66.9739 48.1088 67.0939 48.1649L70.2942 45.9106C70.4494 45.8011 70.4541 45.5686 70.2989 45.4582L70.2937 45.4541" fill="#395B96"/>
<path d="M57.4853 30.7944C57.4894 31.0777 57.4871 31.3787 57.4748 31.6952C57.4159 33.2189 57.1314 35.0924 56.3018 36.9326C55.6118 38.4654 54.5441 39.9754 52.9146 41.2392C50.7985 42.8806 47.3803 45.0975 43.3624 45.8901C43.0618 45.9494 42.7581 46.0005 42.4516 46.0429C41.2987 44.7564 41.2608 41.0768 41.2608 41.0768C41.5605 41.0239 41.8542 40.9624 42.1424 40.8926C45.9282 39.9837 49.0723 37.7426 50.0277 34.6619C50.5116 33.1021 50.435 31.328 49.5968 29.4021C49.584 29.3706 49.5698 29.3396 49.5557 29.3081L49.7582 29.284L52.9069 28.9009L53.4751 28.832L57.2563 28.3723C57.2563 28.3723 57.4625 29.3364 57.4853 30.7944" fill="#1D3F70"/>
<path d="M57.4825 31.4415C57.4839 31.3722 57.4852 31.3042 57.4857 31.2367C57.4861 31.2335 57.4861 31.2303 57.4861 31.2276C57.5039 29.5306 57.2563 28.3713 57.2563 28.3713L53.4751 28.8305C53.372 28.7813 53.2703 28.7334 53.1704 28.6855C52.2081 28.416 51.3662 28.4821 50.6958 28.7717C50.2995 28.9436 49.9935 29.1183 49.7582 29.2829C49.6998 29.3231 49.6464 29.3628 49.5967 29.4011C50.435 31.327 50.5116 33.1011 50.0277 34.6608C50.0628 34.6923 50.0993 34.7215 50.1362 34.7502C51.0721 35.4758 53.7546 35.9807 54.285 36.1476C55.0635 36.3934 55.7262 36.652 56.3017 36.9316C57.1313 35.0914 57.4159 33.2179 57.4747 31.6942C57.4775 31.6184 57.4798 31.5441 57.4816 31.4702C57.482 31.4606 57.482 31.4511 57.4825 31.4415" fill="#163356"/>
<path d="M68.4001 43.8764C67.2868 45.6391 63.7852 46.6848 63.7852 46.6848C63.6388 46.3537 63.4969 46.0285 63.3607 45.707C62.3804 43.4025 61.6449 41.3662 60.5737 39.6559C59.2968 37.6152 58.0538 36.3879 54.8409 35.3733C54.3107 35.2065 51.6781 34.6318 50.6918 33.9764C48.6803 32.6392 48.6256 29.685 49.2101 28.6204C49.2101 28.6204 49.7959 28.6278 51.2517 27.997C51.9219 27.7078 52.764 27.6415 53.7262 27.9112C54.9809 28.511 56.4214 29.1682 57.8512 29.9191C60.5895 31.3545 63.2958 33.1333 64.6186 35.5082C65.5451 37.1735 67.2859 41.2321 68.0381 43.014C68.2629 43.5471 68.4001 43.8764 68.4001 43.8764" fill="#1D3F70"/>
<path d="M43.3624 45.8901C43.0618 45.9494 42.7581 46.0005 42.4516 46.0429C41.2987 44.7564 41.2608 41.0768 41.2608 41.0768C41.5605 41.0239 41.8542 40.9624 42.1424 40.8926C42.1429 40.893 42.1429 40.893 42.1429 40.893C42.1429 40.893 41.8747 43.1537 43.3624 45.8901" fill="#163356"/>
<path d="M68.4002 43.8764C67.2869 45.6391 63.7853 46.6848 63.7853 46.6848C63.6389 46.3537 63.497 46.0285 63.3608 45.707C63.3608 45.707 65.9897 45.0338 68.0383 43.014C68.263 43.5471 68.4002 43.8764 68.4002 43.8764Z" fill="#163356"/>
<path d="M48.8292 29.6514C48.8292 29.6514 48.6436 30.3073 49.5967 30.2621C50.5495 30.217 53.5088 29.563 54.6116 29.4499C55.7144 29.3372 55.8945 29.5853 56.1203 29.4499C56.346 29.3149 56.2639 28.9035 56.2639 28.9035C56.2639 28.9035 56.6621 29.2469 57.0224 29.2246C57.3826 29.2022 57.774 29.0905 57.3644 28.5259L48.8292 29.6514" fill="#F4D4BE"/>
<path d="M56.0217 18.4078C57.7456 18.1619 59.5542 17.7082 60.9297 16.6099C62.2451 15.4915 63.3509 14.1156 64.1576 12.5836C64.4026 12.1234 64.6192 11.6459 64.7995 11.1573C64.8023 11.1508 64.8051 11.1429 64.8065 11.142L65.2229 10.897C65.582 10.6832 65.9821 11.0483 65.8871 11.4317C65.6929 14.0029 64.5247 16.4408 62.8693 18.3948C61.2399 20.21 58.8569 21.1546 56.501 21.531C54.3402 21.9138 53.839 18.6794 56.0217 18.4078" fill="#F99370"/>
<path d="M65.0754 9.27487C65.3048 9.30058 65.1564 9.82778 65.2559 10.0135C65.5129 9.74581 65.6938 9.40195 65.6967 9.40146C65.8335 8.9635 65.9465 8.51875 66.0396 8.06818C66.5077 7.5502 66.1187 9.26372 66.1109 9.43832C66.1129 9.43929 66.1153 9.44026 66.1172 9.44123C66.3534 9.02219 66.5673 8.58956 66.7429 8.1419C67.3409 7.71607 66.5018 9.48585 66.4407 9.65754C66.4412 9.65851 66.4422 9.659 66.4427 9.65997C66.7317 9.30349 66.9771 8.9116 67.1774 8.49886C67.8181 8.12347 66.8263 9.85494 66.7114 9.99947C66.7123 10.0009 66.7133 10.0024 66.7143 10.0043C66.982 9.75697 67.2182 9.47615 67.4379 9.18514C68.0844 8.9213 67.0135 10.2973 66.8937 10.4185C66.8535 10.5432 66.3491 11.1872 65.8194 11.6829C65.623 11.8663 64.7563 11.6325 64.7209 11.3706C64.687 11.1257 64.7641 10.3516 64.7772 10.2303C64.7641 9.98977 64.814 9.36848 65.0754 9.27487" fill="#F99370"/>
<path d="M65.8146 12.0965C65.8146 12.0965 65.8022 12.2848 65.7609 12.6088H65.7604C65.6126 13.7688 65.0916 16.6691 63.4376 18.9056C63.0915 19.3738 62.7054 19.7823 62.2969 20.1381L62.2964 20.1386C60.6985 21.5299 58.7448 22.1221 57.3709 22.3732C56.3545 22.5596 55.6563 22.5596 55.6563 22.5596L55.9611 18.2248C55.9611 18.2248 56.6295 17.8521 58.2591 17.5688C59.7625 17.3076 63.0988 14.272 64.2928 12.2636C64.3934 12.0952 64.4787 11.934 64.5462 11.7821C64.5462 11.7821 65.0452 12.3577 65.8146 12.0965" fill="#006BA4"/>
<path d="M62.2966 20.1378C60.6986 21.5297 58.7448 22.1217 57.3712 22.373L57.5905 21.044C57.5905 21.044 59.7673 21.2688 62.2966 20.1378Z" fill="#23659B"/>
<path d="M57.3643 28.5249C55.4675 28.6298 53.361 29.3495 51.7347 29.562C50.2036 29.7617 48.8291 29.6505 48.8291 29.6505C48.8291 29.6505 47.9895 27.5197 49.6723 22.9655C49.7859 22.6576 49.9109 22.3393 50.0486 22.0096C50.3359 21.3218 50.4828 20.5324 50.7281 20.0439C51.7689 17.9739 54.2799 17.5333 55.961 18.2243C56.8704 18.907 57.347 19.9094 57.5905 21.0436C57.809 22.0552 57.8413 23.1725 57.8322 24.2607C57.8245 25.1031 57.7916 25.9285 57.7989 26.6751C58.0525 28.4392 57.3643 28.5249 57.3643 28.5249Z" fill="#006BA4"/>
<path d="M52.1949 21.5346C50.5426 21.2354 48.7516 21.2801 47.0646 21.5191C45.8647 21.6956 44.7442 22.4203 43.7773 23.1527C43.1831 23.6111 42.6167 24.1177 42.0858 24.6504C41.4815 25.1653 40.8056 24.3759 41.3046 23.788C42.5368 21.7476 44.1974 19.7952 46.5329 19.0039C48.5113 18.4119 50.6142 18.1264 52.6742 18.396C54.841 18.6806 52.7258 21.5556 52.1949 21.5346" fill="#F99370"/>
<path d="M36.5423 24.2118L43.6611 27.8845L43.8809 28.3606L36.7626 24.6902L36.5423 24.2118" fill="#7F341C"/>
<path d="M41.2056 33.5491L34.0883 29.8792L36.7635 24.6905L43.8809 28.3605L41.2056 33.5491Z" fill="#8C4225"/>
<path d="M34.0883 29.8798L33.868 29.4014L36.5423 24.2123L36.7626 24.6907L34.0883 29.8798Z" fill="#7F341C"/>
<path d="M41.8673 26.9589C41.8846 26.9279 41.896 26.8927 41.8983 26.8558C41.9243 26.4777 41.8554 26.1193 41.699 25.8187C41.5982 25.624 41.46 25.4539 41.2872 25.3184C41.2137 25.2609 41.1335 25.2094 41.0477 25.1652C40.8439 25.0607 40.6222 25.0042 40.3937 24.9914C39.9377 24.9663 39.4524 25.1145 39.0228 25.4041C38.9986 25.4201 38.9786 25.4393 38.9617 25.4602C38.8792 25.5629 38.8819 25.7102 38.985 25.7622C39.0123 25.7763 39.0442 25.7809 39.0766 25.7767C39.1095 25.7726 39.1428 25.7599 39.1742 25.7389C39.2239 25.7061 39.2741 25.676 39.3256 25.6477C39.5792 25.509 39.851 25.4288 40.1155 25.4165C40.3586 25.4046 40.5962 25.4502 40.8097 25.5601C40.8963 25.6044 40.9752 25.6577 41.0464 25.7184C41.1814 25.8333 41.2881 25.9747 41.3647 26.1348C41.4577 26.3268 41.5079 26.5457 41.5129 26.7764C41.5138 26.823 41.5129 26.8704 41.5102 26.9178C41.5061 26.989 41.5357 27.0496 41.5909 27.0774C41.6776 27.1212 41.7884 27.0729 41.8509 26.9853C41.8568 26.9771 41.8623 26.9684 41.8673 26.9589" fill="#8C4225"/>
<path d="M36.7626 24.6905L38.9846 29.1202L43.8809 28.3609L36.7626 24.6905Z" fill="#99452B"/>
<path d="M38.7921 29.5886L38.7141 29.5485C38.5709 29.4746 38.5144 29.2972 38.5882 29.154L38.7825 28.7769C38.8564 28.6337 39.0343 28.5766 39.1775 28.6505L39.255 28.6907C39.3982 28.7645 39.4552 28.9424 39.3813 29.0856L39.1866 29.4623C39.1127 29.606 38.9353 29.6625 38.7921 29.5886Z" fill="#F4D4BE"/>
<path d="M41.2767 25.9874C40.9356 26.3883 40.4978 25.9313 41.0231 25.7416L41.0172 25.7484C41.1928 25.5341 41.4464 25.7904 41.2767 25.9874Z" fill="#F99370"/>
<path d="M40.9593 25.852C40.4577 26.2469 40.2611 25.5524 40.7272 25.5688C40.7185 25.5683 40.7523 25.5592 40.7578 25.5524C40.7591 25.5514 40.7678 25.5451 40.7614 25.5501C40.9785 25.3736 41.1541 25.7019 40.9593 25.852Z" fill="#F99370"/>
<path d="M40.6223 25.7202C40.205 25.982 40.0864 25.5856 40.3518 25.4297C40.7696 25.1679 40.8882 25.5642 40.6223 25.7202Z" fill="#F99370"/>
<path d="M40.3477 25.5602C39.9304 25.8219 39.8118 25.4256 40.0773 25.2692C40.4946 25.0079 40.6136 25.4042 40.3477 25.5602Z" fill="#F99370"/>
<path d="M41.43 24.8258C42.042 25.7005 41.2622 26.0512 41.5039 26.2683C41.721 26.3769 41.8569 26.0416 41.9577 25.8907C42.0981 25.6116 42.1196 25.2773 42.0557 24.9749C41.9367 24.0806 41.2207 24.3793 41.43 24.8258Z" fill="#F99370"/>
<path d="M41.1828 24.0586C41.1828 24.0586 40.3468 24.3842 39.9501 25.4149L41.2768 25.9882C41.2768 25.9882 41.6471 25.8331 42.0375 24.869L41.1828 24.0586Z" fill="#F99370"/>
<path d="M55.9611 18.2241C56.2046 17.3516 56.2698 16.0468 56.2302 15.4995C56.2101 15.204 56.0404 14.9559 55.8224 14.8478C55.2683 14.5505 54.4939 14.94 54.5692 15.63C54.6276 15.6049 54.4739 17.4492 54.3311 17.9212C54.3311 17.9212 54.6075 19.0518 55.4197 19.0518C55.9438 19.0518 55.9611 18.2241 55.9611 18.2241" fill="#F99370"/>
<path d="M57.019 11.818C57.019 11.818 57.5189 11.6368 57.7291 12.0889C57.9398 12.5406 57.5852 12.7687 57.8708 13.1822C58.7713 14.2184 57.823 13.9526 57.8308 14.7938C57.765 14.7805 55.911 12.1101 57.019 11.818" fill="#006BA4"/>
<path d="M54.5668 15.5421C54.5664 15.5712 54.5668 15.6013 54.5691 15.6305C54.6115 15.6114 54.5531 16.6685 54.4341 17.4242C55.0922 17.8598 55.9058 17.8438 56.0554 17.837C56.169 16.7506 56.5676 15.3158 55.8224 14.8484C55.3066 14.5232 54.5655 14.9227 54.5668 15.5421Z" fill="#E57D61"/>
<path d="M57.2982 17.1323C56.6082 17.6425 55.664 17.6688 54.9556 17.3939C54.6599 17.285 54.3943 17.1162 54.1885 16.8814L54.1876 16.881C53.3643 15.8418 53.3565 14.0093 54.1074 12.9655C55.2014 11.4236 57.2756 12.0481 57.4541 13.9152C57.5062 14.2035 57.6405 14.5328 57.8309 14.7925C58.3346 15.4922 58.1852 16.4396 57.2982 17.1323" fill="#F99370"/>
<path d="M56.983 16.0912L56.0928 15.4417C55.9021 16.0045 56.4786 16.4939 56.983 16.0912Z" fill="#006BA4"/>
<path d="M56.4568 14.6622C56.5452 14.5445 56.3583 14.4091 56.2734 14.5295C56.1854 14.6471 56.3724 14.7826 56.4568 14.6622Z" fill="#C16256"/>
<path d="M57.4231 14.654C57.5112 14.5363 57.3242 14.4009 57.2393 14.5208C57.1513 14.6385 57.3383 14.7744 57.4231 14.654Z" fill="#C16256"/>
<path d="M56.9721 16.1331C57.0154 16.1463 57.0469 16.0834 57.0086 16.0569C56.9798 16.0624 56.0736 15.3131 56.0577 15.4166C56.044 15.4362 56.0481 15.4627 56.0673 15.4768C56.0855 15.4864 56.9511 16.1285 56.9721 16.1331Z" fill="#C16256"/>
<path d="M57.2369 13.1808C56.5891 13.6418 55.8422 12.6648 55.7224 13.4857C55.6797 13.83 55.0719 13.6298 54.9727 13.779C54.8735 13.9278 54.9103 14.2473 54.7363 14.4332C54.5632 14.6187 53.8181 14.7628 53.8181 14.7628C53.8723 15.4919 53.673 16.0767 54.3222 17.0192C54.2749 16.977 54.2299 16.9315 54.1881 16.8833H54.1872C53.3641 15.844 53.3563 14.0118 54.1069 12.9674C54.8327 11.8008 56.781 11.777 57.2369 13.1808" fill="#E57D61"/>
<path d="M56.8636 15.56C57.0715 15.6147 57.4715 15.5285 57.228 15.2895C57.0346 15.1413 56.9493 14.6784 56.9484 14.6738C56.9393 14.6191 56.8531 14.6341 56.864 14.6889C56.8677 14.7094 56.9561 15.1892 57.1755 15.3575C57.2006 15.3766 57.2275 15.404 57.2143 15.425C57.1764 15.4852 56.9634 15.5239 56.8294 15.456C56.7167 15.4405 56.7833 15.5641 56.8636 15.56" fill="#C16256"/>
<path d="M57.1177 12.932C57.1177 12.932 57.5487 12.5452 57.2195 12.1579C56.8908 11.7711 56.9926 11.2848 56.4533 11.2829C55.9144 11.2806 55.708 11.3131 55.1612 11.0677C54.615 10.8227 54.0426 11.2946 54.0068 11.66C53.9715 12.0254 53.2044 11.9036 53.0119 12.375C52.8194 12.8465 52.9105 13.0115 52.877 13.2235C52.8426 13.436 52.1294 13.6066 52.1797 14.1334C52.2294 14.6602 52.666 14.6504 52.6962 14.9879C52.7259 15.325 52.3875 15.842 52.7334 16.0842C53.2453 16.4436 53.7799 16.1628 53.7799 16.1628C53.1011 13.854 54.5643 15.0791 54.6345 13.8382C54.5977 13.3472 55.2738 13.6052 55.4774 13.3867C56.0214 12.1984 55.9986 13.3542 57.1177 12.932" fill="#006BA4"/>
<path d="M53.0335 14.9677C53.0673 15.8306 54.1559 15.7759 54.1025 14.9139C54.0688 14.0511 52.9806 14.1058 53.0335 14.9677Z" fill="#F99370"/>
<path d="M53.2685 15.183C53.3921 15.1734 53.2261 14.7096 53.409 14.6408C53.5946 14.5331 53.7341 14.7393 53.8016 14.6636C53.8381 14.5824 53.5494 14.4633 53.3611 14.5692C53.2539 14.6266 53.1467 14.9463 53.2685 15.183Z" fill="#C16256"/>
<path d="M53.6734 15.1867C53.8481 15.2447 53.5207 14.5752 53.2557 14.712C53.2502 14.7348 53.2648 14.758 53.2881 14.7631C53.6073 14.8493 53.6064 15.1612 53.6734 15.1867Z" fill="#C16256"/>
<path d="M55.9283 14.3285C55.9479 14.3335 55.9684 14.3244 55.9776 14.3057C56.1413 13.9605 56.5485 13.9422 56.5526 13.9422C56.5759 13.9413 56.5941 13.9217 56.5932 13.8984C56.5923 13.8752 56.5732 13.8569 56.5495 13.8578C56.5308 13.8583 56.0875 13.8765 55.9009 14.2697C55.8909 14.2906 55.9 14.3157 55.921 14.3258C55.9233 14.3271 55.926 14.328 55.9283 14.3285" fill="#C16256"/>
<path d="M57.4141 14.1747C57.4264 14.1779 57.44 14.1756 57.451 14.167C57.4692 14.1528 57.4724 14.1259 57.4583 14.1077C57.4492 14.0958 57.2293 13.8203 56.8937 13.8737C56.8704 13.8774 56.8549 13.8988 56.8581 13.9221C56.8622 13.9449 56.8836 13.9608 56.9069 13.9572C57.1929 13.912 57.3899 14.1574 57.3917 14.1597C57.3976 14.1674 57.4054 14.1724 57.4141 14.1747" fill="#C16256"/>
<path d="M54.3311 17.9209C54.3311 17.9209 53.5589 22.7958 52.1771 22.3899C50.7957 21.984 48.6193 21.781 46.6569 22.1532C45.1396 22.4409 43.3892 23.6253 42.6745 24.1471C42.4657 24.2994 42.3448 24.3952 42.3448 24.3952C41.585 24.371 41.3041 23.7882 41.3041 23.7882C41.3041 23.7882 41.3907 23.6276 41.5563 23.3604C42.2604 22.2271 44.3966 19.1719 47.4354 18.294C51.1906 17.209 54.3311 17.9209 54.3311 17.9209" fill="#006BA4"/>
<path d="M50.0487 22.0104C50.0487 22.0104 51.3612 21.9922 52.8083 21.1603C52.8083 21.1603 51.5117 22.3734 49.6724 22.9663C49.786 22.6585 49.9109 22.3401 50.0487 22.0104Z" fill="#23659B"/>
<path d="M53.6315 17.8069C53.6183 18.7341 54.6321 19.3105 55.5283 19.4633L55.7818 18.9785C55.9848 19.0679 56.1823 19.4127 56.1823 19.4127C56.7606 18.9411 56.7697 18.0295 56.538 17.9893C56.1864 17.9287 55.9611 18.2246 55.9611 18.2246C55.9611 18.2246 55.7326 19.3716 54.3311 17.9214C54.1131 17.6956 53.6315 17.8069 53.6315 17.8069" fill="#F4D4BE"/>
<path d="M42.6745 24.1471C42.4657 24.2994 42.3448 24.3952 42.3448 24.3952C41.585 24.371 41.3041 23.7882 41.3041 23.7882C41.3041 23.7882 41.3907 23.6276 41.5563 23.3604L41.5677 23.3649C41.5677 23.3649 41.8213 23.987 42.6745 24.1471Z" fill="#23659B"/>
<path d="M65.8145 12.0974C65.8145 12.0974 65.8021 12.2856 65.7608 12.6097H65.7604C64.7936 12.8498 64.2932 12.265 64.2932 12.265L64.2928 12.2645C64.3933 12.096 64.4787 11.9349 64.5462 11.783C64.5462 11.783 65.0452 12.3586 65.8145 12.0974" fill="#23659B"/>
</svg>
