<svg width="96" height="58" viewBox="0 0 96 58" fill="none" xmlns="http://www.w3.org/2000/svg">
<g clip-path="url(#clip0_5_250)">
<path d="M6.03881 12.1572C4.84443 12.1572 3.67688 11.8007 2.68379 11.1328C1.69071 10.4648 0.916691 9.51548 0.459623 8.40476C0.00255552 7.29404 -0.117034 6.07183 0.115977 4.8927C0.348988 3.71356 0.924136 2.63046 1.76869 1.78035C2.61324 0.930246 3.68926 0.351315 4.86069 0.116771C6.03211 -0.117773 7.24633 0.00260326 8.34978 0.462678C9.45324 0.922753 10.3964 1.70186 11.0599 2.70148C11.7235 3.70111 12.0777 4.87634 12.0777 6.07858C12.0759 7.69016 11.439 9.23522 10.3069 10.3748C9.17482 11.5143 7.63986 12.1554 6.03881 12.1572ZM6.03881 0.253248C4.8942 0.253248 3.7753 0.594897 2.82359 1.23499C1.87188 1.87509 1.13011 2.78488 0.69209 3.84932C0.254067 4.91376 0.13946 6.08504 0.362763 7.21504C0.586065 8.34504 1.13725 9.38302 1.94661 10.1977C2.75597 11.0124 3.78716 11.5672 4.90977 11.792C6.03239 12.0167 7.19601 11.9014 8.2535 11.4605C9.31098 11.0196 10.2148 10.2729 10.8507 9.31496C11.4866 8.35699 11.8261 7.23072 11.8261 6.07858C11.8243 4.53414 11.214 3.05346 10.1291 1.96138C9.04415 0.869299 7.57315 0.254999 6.03881 0.253248Z" fill="#F2F2F2"/>
<path d="M47.0529 8.61135C46.4557 8.61135 45.8719 8.4331 45.3753 8.09913C44.8788 7.76517 44.4918 7.2905 44.2633 6.73514C44.0347 6.17978 43.9749 5.56868 44.0914 4.97911C44.2079 4.38954 44.4955 3.84799 44.9178 3.42294C45.3401 2.99788 45.8781 2.70842 46.4638 2.59115C47.0495 2.47387 47.6566 2.53406 48.2083 2.7641C48.7601 2.99414 49.2316 3.38369 49.5634 3.8835C49.8952 4.38331 50.0723 4.97093 50.0723 5.57205C50.0714 6.37784 49.753 7.15037 49.1869 7.72015C48.6209 8.28993 47.8534 8.61043 47.0529 8.61135ZM47.0529 2.78602C46.5054 2.78602 45.9703 2.94942 45.5151 3.25555C45.06 3.56169 44.7052 3.9968 44.4957 4.50588C44.2862 5.01496 44.2314 5.57514 44.3382 6.11558C44.445 6.65601 44.7086 7.15243 45.0957 7.54206C45.4828 7.9317 45.976 8.19704 46.5129 8.30454C47.0498 8.41204 47.6063 8.35687 48.112 8.146C48.6178 7.93513 49.0501 7.57804 49.3542 7.11988C49.6583 6.66172 49.8207 6.12307 49.8207 5.57205C49.8198 4.8334 49.528 4.12525 49.0091 3.60295C48.4902 3.08065 47.7867 2.78686 47.0529 2.78602Z" fill="#F2F2F2"/>
<path d="M68.3147 23.4279C67.6429 23.4279 66.9861 23.2274 66.4275 22.8517C65.8689 22.476 65.4335 21.942 65.1764 21.3172C64.9193 20.6924 64.852 20.0049 64.9831 19.3417C65.1142 18.6784 65.4377 18.0692 65.9128 17.591C66.3878 17.1128 66.9931 16.7871 67.652 16.6552C68.3109 16.5233 68.9939 16.591 69.6146 16.8498C70.2353 17.1086 70.7658 17.5468 71.1391 18.1091C71.5123 18.6714 71.7116 19.3325 71.7116 20.0087C71.7106 20.9152 71.3523 21.7843 70.7155 22.4253C70.0787 23.0663 69.2153 23.4269 68.3147 23.4279ZM68.3147 16.8428C67.6926 16.8428 67.0845 17.0285 66.5673 17.3763C66.0501 17.7242 65.6469 18.2187 65.4089 18.7972C65.1708 19.3757 65.1085 20.0122 65.2299 20.6264C65.3513 21.2405 65.6508 21.8046 66.0907 22.2474C66.5306 22.6901 67.091 22.9917 67.7011 23.1138C68.3112 23.236 68.9436 23.1733 69.5183 22.9337C70.0931 22.694 70.5843 22.2883 70.9299 21.7676C71.2755 21.247 71.46 20.6349 71.46 20.0087C71.459 19.1694 71.1273 18.3646 70.5377 17.7711C69.9481 17.1776 69.1486 16.8437 68.3147 16.8428Z" fill="#F2F2F2"/>
<path d="M95.8742 58H67.567C67.5336 58 67.5016 57.9867 67.478 57.9629C67.4544 57.9392 67.4412 57.907 67.4412 57.8734C67.4412 57.8398 67.4544 57.8076 67.478 57.7838C67.5016 57.7601 67.5336 57.7467 67.567 57.7467H95.8742C95.9075 57.7467 95.9395 57.7601 95.9631 57.7838C95.9867 57.8076 96 57.8398 96 57.8734C96 57.907 95.9867 57.9392 95.9631 57.9629C95.9395 57.9867 95.9075 58 95.8742 58Z" fill="#CCCCCC"/>
<path d="M80.6336 19.4068C82.3402 19.4068 83.7236 18.0142 83.7236 16.2964C83.7236 14.5786 82.3402 13.1861 80.6336 13.1861C78.927 13.1861 77.5436 14.5786 77.5436 16.2964C77.5436 18.0142 78.927 19.4068 80.6336 19.4068Z" fill="#FFB8B8"/>
<path d="M80.9542 53.2312L79.4938 53.7304L76.8854 48.2978L79.0409 47.5609L80.9542 53.2312Z" fill="#FFB8B8"/>
<path d="M78.3089 53.6671L81.1255 52.7041L81.7278 54.4892L77.1378 56.0585C77.0587 55.8241 77.0263 55.5763 77.0423 55.3292C77.0583 55.0822 77.1226 54.8407 77.2313 54.6187C77.3401 54.3966 77.4912 54.1983 77.6761 54.035C77.861 53.8717 78.076 53.7467 78.3089 53.6671Z" fill="#2F2E41"/>
<path d="M84.254 56.2999L82.7136 56.3778L81.6819 50.4341L83.9555 50.3189L84.254 56.2999Z" fill="#FFB8B8"/>
<path d="M81.5912 55.9904L84.562 55.8401L84.6561 57.723L79.8146 57.9679C79.8023 57.7206 79.8384 57.4734 79.921 57.2402C80.0036 57.007 80.1311 56.7924 80.296 56.6088C80.461 56.4252 80.6603 56.2761 80.8825 56.17C81.1047 56.0639 81.3455 56.0029 81.5912 55.9904Z" fill="#2F2E41"/>
<path d="M75.0869 36.5514C75.225 36.4276 75.3345 36.2748 75.4076 36.1038C75.4808 35.9328 75.5157 35.7478 75.5101 35.5617C75.5045 35.3756 75.4585 35.193 75.3752 35.0268C75.2919 34.8606 75.1734 34.7148 75.028 34.5996L76.4967 30.3225L74.2332 30.9048L73.1856 34.8771C73.0096 35.1357 72.9339 35.4503 72.973 35.7612C73.012 36.0722 73.1631 36.3579 73.3974 36.5643C73.6318 36.7707 73.9332 36.8834 74.2446 36.881C74.556 36.8786 74.8557 36.7613 75.0869 36.5514Z" fill="#FFB8B8"/>
<path d="M84.1103 54.5079C84.0904 54.5079 84.0705 54.5068 84.0507 54.5047L81.9596 54.2819C81.8312 54.2688 81.7111 54.2117 81.6195 54.1201C81.5279 54.0284 81.4704 53.9079 81.4567 53.7787L79.8407 39.2774L78.6713 43.2456L80.8514 51.0443C80.8736 51.1238 80.8784 51.2071 80.8655 51.2886C80.8526 51.37 80.8222 51.4477 80.7766 51.5162C80.7309 51.5847 80.671 51.6424 80.601 51.6854C80.531 51.7283 80.4525 51.7554 80.3711 51.7648L78.2515 52.0101C78.1165 52.0251 77.9807 51.991 77.8685 51.914C77.7563 51.837 77.6751 51.7222 77.6397 51.5902L75.3237 42.8139C75.3046 42.7417 75.2998 42.6665 75.3097 42.5925L76.3506 34.7158L84.1148 35.3425L84.6762 53.9206C84.6785 53.9969 84.6656 54.0729 84.6382 54.144C84.6108 54.2152 84.5695 54.28 84.5167 54.3348C84.464 54.3896 84.4008 54.4331 84.331 54.4629C84.2612 54.4926 84.1861 54.5079 84.1103 54.5079V54.5079Z" fill="#2F2E41"/>
<path d="M81.4262 36.6893C78.825 36.6893 75.8799 35.6776 75.7016 35.6154L75.65 35.5974L78.5845 20.4409L78.6385 20.4432C79.8014 20.4907 82.975 20.515 83.007 20.5153L83.0639 20.5157L84.2871 33.891L84.5058 35.8474L84.479 35.8692C83.7307 36.4782 82.6143 36.6893 81.4262 36.6893Z" fill="#146BA2"/>
<path d="M76.7269 35.3794L74.8914 34.6352L75.8269 23.245C75.8494 22.9642 75.9343 22.692 76.0753 22.4487C76.2163 22.2053 76.4097 21.9969 76.6414 21.8389L77.6073 21.1772C77.58 21.0837 77.5751 20.9849 77.593 20.8891C77.6109 20.7933 77.6512 20.7031 77.7104 20.626C77.7697 20.5489 77.8463 20.487 77.934 20.4455C78.0216 20.4039 78.1178 20.3839 78.2146 20.3871L78.4912 20.396C78.5438 20.3603 78.6059 20.3415 78.6693 20.3419C78.7327 20.3424 78.7945 20.3621 78.8466 20.3986C78.8986 20.435 78.9385 20.4864 78.961 20.5461C78.9836 20.6058 78.9876 20.6709 78.9727 20.7329L78.912 21.9397L76.7269 35.3794Z" fill="#2F2E41"/>
<path d="M75.8007 33.3375L73.4042 33.2359L74.1805 28.2093L74.8238 23.4796C74.8365 23.3097 74.8871 23.145 74.9719 22.9976C75.0567 22.8502 75.1735 22.7241 75.3136 22.6285C75.4536 22.533 75.6134 22.4705 75.7808 22.4459C75.9482 22.4212 76.119 22.4349 76.2804 22.486C76.5318 22.5654 76.7474 22.7314 76.8894 22.9547C77.0314 23.1781 77.0908 23.4447 77.0572 23.7077L76.4055 28.8324L75.8007 33.3375Z" fill="#2F2E41"/>
<path d="M79.5954 35.5536L79.5791 35.5029C79.568 35.4681 78.488 31.9809 80.2951 27.8195L81.2013 23.2827L81.9758 20.4339C81.9903 20.383 82.0164 20.3362 82.052 20.2973C82.0876 20.2583 82.1318 20.2282 82.181 20.2094C82.2388 20.1893 82.3013 20.1867 82.3605 20.202C82.4198 20.2174 82.4732 20.2499 82.5142 20.2956C83.054 20.1361 83.6343 20.1945 84.1321 20.4584L85.2197 21.0351C85.4615 21.1634 85.6542 21.3687 85.7677 21.6191C85.8811 21.8694 85.9088 22.1505 85.8464 22.4184L84.3599 28.8038L85.0825 34.7681L79.5954 35.5536Z" fill="#2F2E41"/>
<path d="M81.1781 33.0952C81.362 33.1153 81.548 33.0945 81.723 33.0344C81.8981 32.9744 82.0579 32.8764 82.1913 32.7474C82.3246 32.6184 82.4283 32.4615 82.4949 32.2878C82.5615 32.1142 82.5895 31.9279 82.5768 31.7422L85.943 29.2321L84.7663 28.6706L81.1366 30.5527C80.828 30.5947 80.5455 30.7493 80.3425 30.987C80.1396 31.2247 80.0303 31.5291 80.0354 31.8425C80.0405 32.1559 80.1597 32.4565 80.3703 32.6874C80.5809 32.9183 80.8683 33.0634 81.1781 33.0952V33.0952Z" fill="#FFB8B8"/>
<path d="M83.2884 31.9716L82.1516 29.8353L84.9555 27.9778L83.5872 23.0377C83.5324 22.8399 83.5187 22.6329 83.5469 22.4295C83.5752 22.2261 83.6448 22.0308 83.7514 21.8558C83.858 21.6807 83.9993 21.5296 84.1665 21.412C84.3337 21.2944 84.5233 21.2127 84.7232 21.1721C85.0766 21.1012 85.4435 21.1618 85.7559 21.3427C86.0683 21.5235 86.3048 21.8123 86.4217 22.1554L88.2679 27.6179C88.306 27.7305 88.3081 27.8522 88.274 27.966C88.2399 28.0799 88.1712 28.1801 88.0777 28.2527L83.2884 31.9716Z" fill="#2F2E41"/>
<path d="M80.8524 16.9562C80.482 17.0047 80.2026 16.6232 80.073 16.2706C79.9434 15.9179 79.8447 15.5074 79.5226 15.3169C79.0826 15.0567 78.5197 15.3697 78.0165 15.2838C77.4483 15.1868 77.0789 14.5807 77.0499 14.0013C77.021 13.4219 77.25 12.8647 77.4748 12.3305L77.5532 12.9944C77.5427 12.7694 77.5898 12.5454 77.6898 12.3439C77.7899 12.1425 77.9397 11.9702 78.1248 11.8436L78.0236 12.8178C78.0452 12.6834 78.0928 12.5546 78.1639 12.4388C78.235 12.323 78.3281 12.2224 78.4379 12.1429C78.5477 12.0635 78.672 12.0066 78.8037 11.9756C78.9354 11.9446 79.0719 11.94 79.2053 11.9622L79.1894 12.5427C79.8457 12.4641 80.5077 12.3855 81.1659 12.4453C81.8241 12.5051 82.487 12.7148 82.9859 13.1511C83.7321 13.8038 84.0046 14.8786 83.9131 15.8694C83.8216 16.8603 83.4153 17.7911 82.9918 18.6903C82.8852 18.9166 82.7379 19.1718 82.4908 19.2007C82.2688 19.2266 82.0656 19.0398 81.9966 18.8258C81.9434 18.6062 81.9455 18.3768 82.0026 18.1583C82.065 17.8243 82.1437 17.4829 82.085 17.1483C82.0263 16.8136 81.7872 16.4829 81.452 16.4419C81.1169 16.4009 80.7739 16.7865 80.935 17.0851L80.8524 16.9562Z" fill="#2F2E41"/>
<path d="M40.4239 51.108L39.2211 50.5982L38.3959 44.5287H27.4077L26.5133 50.5734L25.4372 51.115C25.3857 51.1409 25.3444 51.1836 25.32 51.2361C25.2956 51.2886 25.2896 51.3478 25.3028 51.4042C25.316 51.4606 25.3478 51.5108 25.3929 51.5468C25.4381 51.5827 25.4939 51.6023 25.5515 51.6023H40.3248C40.3838 51.6023 40.441 51.5818 40.4866 51.5442C40.5323 51.5065 40.5636 51.4542 40.5753 51.396C40.5869 51.3378 40.5783 51.2773 40.5507 51.2248C40.5231 51.1723 40.4783 51.1311 40.4239 51.108Z" fill="#E6E6E6"/>
<path d="M59.9507 45.3363H5.97355C5.69034 45.3356 5.41896 45.2219 5.21893 45.0201C5.01889 44.8183 4.90656 44.5449 4.90656 44.2598V36.5983H61.0177V44.2598C61.0177 44.5449 60.9054 44.8183 60.7053 45.0201C60.5053 45.2219 60.2339 45.3356 59.9507 45.3363Z" fill="#CCCCCC"/>
<path d="M61.0741 40.2193H4.8573V7.43704C4.8577 7.093 4.99365 6.76318 5.23533 6.51992C5.47701 6.27665 5.80469 6.13982 6.14647 6.13943H59.785C60.1267 6.13982 60.4544 6.27666 60.6961 6.51992C60.9378 6.76318 61.0737 7.09301 61.0741 7.43704V40.2193Z" fill="#3F3D56"/>
<path d="M57.7165 37.84H8.21492C7.95143 37.8397 7.69881 37.7342 7.51249 37.5466C7.32617 37.3591 7.22137 37.1048 7.22107 36.8396V9.51916C7.22136 9.25393 7.32617 8.99964 7.51248 8.81209C7.6988 8.62454 7.95142 8.51904 8.21492 8.51874H57.7165C57.98 8.51904 58.2327 8.62454 58.419 8.81209C58.6053 8.99964 58.7101 9.25393 58.7104 9.51916V36.8396C58.7101 37.1048 58.6053 37.3591 58.419 37.5466C58.2327 37.7342 57.98 37.8397 57.7165 37.84Z" fill="white"/>
<path d="M57.2506 51.6656H9.31709C9.28373 51.6656 9.25172 51.6523 9.22813 51.6285C9.20454 51.6048 9.19128 51.5726 9.19128 51.539C9.19128 51.5054 9.20454 51.4732 9.22813 51.4494C9.25172 51.4257 9.28373 51.4124 9.31709 51.4124H57.2506C57.284 51.4124 57.316 51.4257 57.3396 51.4494C57.3632 51.4732 57.3764 51.5054 57.3764 51.539C57.3764 51.5726 57.3632 51.6048 57.3396 51.6285C57.316 51.6523 57.284 51.6656 57.2506 51.6656Z" fill="#CCCCCC"/>
<path d="M53.0661 34.4454H12.8654C12.832 34.4454 12.8 34.4321 12.7764 34.4083C12.7528 34.3846 12.7396 34.3524 12.7396 34.3188V14.9238C12.7396 14.8902 12.7528 14.858 12.7764 14.8343C12.8 14.8105 12.832 14.7972 12.8654 14.7972C12.8988 14.7972 12.9308 14.8105 12.9544 14.8343C12.978 14.858 12.9912 14.8902 12.9912 14.9238V34.1921H53.0661C53.0994 34.1921 53.1314 34.2055 53.155 34.2292C53.1786 34.253 53.1919 34.2852 53.1919 34.3188C53.1919 34.3524 53.1786 34.3846 53.155 34.4083C53.1314 34.4321 53.0994 34.4454 53.0661 34.4454Z" fill="#3F3D56"/>
<path d="M21.4545 33.0524H17.7981C17.6991 33.0523 17.6042 33.0127 17.5342 32.9422C17.4642 32.8717 17.4248 32.7762 17.4247 32.6765V27.603C17.4248 27.5033 17.4642 27.4078 17.5342 27.3373C17.6042 27.2668 17.6991 27.2272 17.7981 27.2271H21.4545C21.5535 27.2272 21.6485 27.2668 21.7185 27.3373C21.7885 27.4078 21.8279 27.5033 21.828 27.603V32.6765C21.8279 32.7762 21.7885 32.8717 21.7185 32.9422C21.6485 33.0127 21.5535 33.0523 21.4545 33.0524Z" fill="#146BA2"/>
<path d="M28.1224 33.0524H24.466C24.367 33.0523 24.2721 33.0127 24.2021 32.9422C24.1321 32.8717 24.0927 32.7762 24.0926 32.6765V22.7907C24.0927 22.6911 24.1321 22.5955 24.2021 22.5251C24.2721 22.4546 24.367 22.415 24.466 22.4149H28.1224C28.2214 22.415 28.3164 22.4546 28.3864 22.5251C28.4564 22.5955 28.4958 22.6911 28.4959 22.7907V32.6765C28.4958 32.7762 28.4564 32.8717 28.3864 32.9422C28.3164 33.0127 28.2214 33.0523 28.1224 33.0524Z" fill="#146BA2"/>
<path d="M34.7903 33.0524H31.1339C31.0349 33.0523 30.94 33.0127 30.87 32.9422C30.8 32.8717 30.7606 32.7762 30.7605 32.6765V27.603C30.7606 27.5033 30.8 27.4078 30.87 27.3373C30.94 27.2668 31.0349 27.2272 31.1339 27.2271H34.7903C34.8894 27.2272 34.9843 27.2668 35.0543 27.3373C35.1243 27.4078 35.1637 27.5033 35.1638 27.603V32.6765C35.1637 32.7762 35.1243 32.8717 35.0543 32.9422C34.9843 33.0127 34.8894 33.0523 34.7903 33.0524Z" fill="#146BA2"/>
<path d="M41.4583 33.0524H37.8019C37.7051 33.0545 37.6115 33.0179 37.5415 32.9506C37.4715 32.8834 37.4308 32.7909 37.4284 32.6935V20.8741C37.4308 20.7768 37.4715 20.6843 37.5415 20.617C37.6115 20.5498 37.7051 20.5132 37.8019 20.5153H41.4583C41.555 20.5132 41.6487 20.5498 41.7187 20.617C41.7887 20.6843 41.8293 20.7768 41.8317 20.8741V32.6935C41.8293 32.7909 41.7887 32.8834 41.7187 32.9506C41.6487 33.0179 41.555 33.0545 41.4583 33.0524Z" fill="#146BA2"/>
<path d="M48.1262 33.0524H44.4698C44.3708 33.0523 44.2758 33.0127 44.2058 32.9422C44.1358 32.8717 44.0964 32.7762 44.0963 32.6765V17.472C44.0964 17.3723 44.1358 17.2768 44.2058 17.2063C44.2758 17.1358 44.3708 17.0962 44.4698 17.0961H48.1262C48.2252 17.0962 48.3201 17.1358 48.3901 17.2063C48.4602 17.2768 48.4995 17.3723 48.4997 17.472V32.6765C48.4995 32.7762 48.4602 32.8717 48.3901 32.9422C48.3201 33.0127 48.2252 33.0523 48.1262 33.0524Z" fill="#146BA2"/>
<path d="M19.6263 25.7074C20.0432 25.7074 20.3812 25.3672 20.3812 24.9476C20.3812 24.528 20.0432 24.1878 19.6263 24.1878C19.2094 24.1878 18.8715 24.528 18.8715 24.9476C18.8715 25.3672 19.2094 25.7074 19.6263 25.7074Z" fill="#3F3D56"/>
<path d="M26.2942 20.7686C26.7111 20.7686 27.0491 20.4284 27.0491 20.0087C27.0491 19.5891 26.7111 19.2489 26.2942 19.2489C25.8773 19.2489 25.5394 19.5891 25.5394 20.0087C25.5394 20.4284 25.8773 20.7686 26.2942 20.7686Z" fill="#3F3D56"/>
<path d="M32.9622 25.7074C33.3791 25.7074 33.717 25.3672 33.717 24.9476C33.717 24.528 33.3791 24.1878 32.9622 24.1878C32.5453 24.1878 32.2073 24.528 32.2073 24.9476C32.2073 25.3672 32.5453 25.7074 32.9622 25.7074Z" fill="#3F3D56"/>
<path d="M39.6301 18.3625C40.047 18.3625 40.3849 18.0223 40.3849 17.6026C40.3849 17.183 40.047 16.8428 39.6301 16.8428C39.2132 16.8428 38.8752 17.183 38.8752 17.6026C38.8752 18.0223 39.2132 18.3625 39.6301 18.3625Z" fill="#3F3D56"/>
<path d="M46.298 15.5764C46.7149 15.5764 47.0528 15.2362 47.0528 14.8166C47.0528 14.3969 46.7149 14.0568 46.298 14.0568C45.8811 14.0568 45.5431 14.3969 45.5431 14.8166C45.5431 15.2362 45.8811 15.5764 46.298 15.5764Z" fill="#3F3D56"/>
<path d="M32.978 25.1178L26.2942 20.0786L19.7018 25.0489L19.5508 24.8463L26.2942 19.7622L32.9463 24.7774L39.5565 17.496L39.583 17.4851L46.2509 14.7809L46.345 15.0158L39.7037 17.7092L32.978 25.1178Z" fill="#3F3D56"/>
</g>
<defs>
<clipPath id="clip0_5_250">
<rect width="96" height="58" fill="white"/>
</clipPath>
</defs>
</svg>
