<svg width="65" height="73" viewBox="0 0 65 73" fill="none" xmlns="http://www.w3.org/2000/svg">
<path d="M64.6493 66.745C64.6069 66.6148 64.2859 66.6722 64.2551 66.5557C64.2244 66.4396 64.5324 66.3423 64.7686 66.0153C64.8112 65.9563 65.0797 65.5846 64.9767 65.4283C64.7816 65.132 63.4238 65.87 63.0979 65.4559C63.0263 65.365 62.9969 65.2089 62.7838 64.9186C62.6991 64.8031 62.6447 64.7473 62.5797 64.7489C62.4875 64.7513 62.4545 64.8672 62.3096 65.0771C62.0923 65.392 62.0139 65.3525 61.8707 65.6104C61.7644 65.802 61.7518 65.9243 61.6752 65.9315C61.5667 65.9417 61.5219 65.7033 61.3894 65.6941C61.2542 65.6846 61.1189 65.9202 61.0518 66.1043C60.9259 66.4497 61.0039 66.7137 61.0211 66.9769C61.0399 67.2628 60.9958 67.6814 60.6866 68.2187L57.7703 72.8877C58.3966 71.9359 60.1745 69.3403 60.8908 68.3883C61.0975 68.1134 61.3198 67.8375 61.6618 67.7856C61.9911 67.7356 62.3917 67.8993 62.951 67.8897C63.0163 67.8886 63.1981 67.8832 63.2423 67.7864C63.2788 67.7064 63.1881 67.6368 63.2211 67.5615C63.2654 67.4606 63.4646 67.5039 63.7361 67.4369C63.9276 67.3897 64.0577 67.3116 64.1695 67.2444C64.2033 67.2242 64.7056 66.9184 64.6493 66.745Z" fill="white"/>
<path d="M57.0108 67.8351C56.935 67.8185 56.8704 67.9933 56.8046 67.9749C56.739 67.9566 56.7804 67.7766 56.6888 67.5657C56.6723 67.5277 56.5682 67.2881 56.4621 67.2937C56.2611 67.3045 56.2298 68.1871 55.9335 68.2283C55.8685 68.2374 55.7838 68.2068 55.5805 68.2282C55.4996 68.2366 55.4566 68.2474 55.4387 68.2799C55.4132 68.326 55.4603 68.3757 55.5211 68.5078C55.6122 68.7058 55.5702 68.7331 55.6549 68.8781C55.7178 68.9858 55.7739 69.0273 55.7553 69.0672C55.729 69.1236 55.5996 69.0769 55.5569 69.1396C55.5133 69.2036 55.5893 69.3383 55.6598 69.4245C55.7922 69.5862 55.9437 69.624 56.0772 69.6914C56.2223 69.7646 56.414 69.9071 56.5872 70.2147L58.0263 73.0001C57.7421 72.4166 56.9873 70.7909 56.729 70.1629C56.6544 69.9816 56.5837 69.7924 56.657 69.6088C56.7276 69.4319 56.9232 69.2816 57.0799 69.003C57.0982 68.9705 57.148 68.8793 57.1135 68.8295C57.0849 68.7884 57.0248 68.8131 56.9975 68.7751C56.961 68.7241 57.0397 68.6384 57.0853 68.4851C57.1174 68.3771 57.1168 68.2904 57.1163 68.2158C57.1161 68.1934 57.1117 67.8574 57.0108 67.8351Z" fill="white"/>
<path d="M58.4465 68.5148L58.4918 68.0952L58.5195 68.0688C58.6479 67.9469 58.7282 67.8177 58.7583 67.6848C58.7631 67.6637 58.7668 67.6423 58.7706 67.6206C58.7856 67.5343 58.8043 67.427 58.8868 67.3156C58.933 67.2535 59.0552 67.1132 59.1813 67.1622C59.2153 67.1751 59.2383 67.1972 59.2542 67.2207C59.2582 67.2166 59.2623 67.2126 59.2667 67.2082C59.3212 67.155 59.3592 67.1355 59.3959 67.1168C59.4241 67.1023 59.4532 67.0875 59.5025 67.0479C59.5241 67.0305 59.5414 67.0149 59.556 67.0018C59.6002 66.9621 59.6568 66.9156 59.7343 66.934C59.8165 66.9566 59.8446 67.0353 59.8633 67.0874C59.8967 67.1804 59.9069 67.2444 59.9137 67.2868C59.9162 67.3023 59.919 67.3197 59.9212 67.3254C59.9392 67.3709 60.1649 67.3827 60.2498 67.3876C60.4407 67.398 60.6059 67.407 60.6456 67.5384C60.6741 67.6323 60.6147 67.7348 60.4639 67.8511C60.417 67.8872 60.37 67.9122 60.3291 67.9308C60.3543 67.9547 60.3743 67.9873 60.3756 68.0315C60.3783 68.1363 60.2713 68.2167 60.0576 68.2709C60.0045 68.2846 59.9331 68.3026 59.8396 68.298C59.7956 68.2959 59.7571 68.2891 59.7242 68.2828C59.7193 68.3016 59.7103 68.3211 59.6941 68.3397C59.6465 68.3944 59.5697 68.4083 59.4654 68.3775C59.3503 68.3453 59.2594 68.3014 59.1791 68.2629C59.109 68.2293 59.0486 68.2006 58.9979 68.1928C58.9035 68.1795 58.8156 68.2381 58.7103 68.316L58.4465 68.5148Z" fill="white"/>
<path d="M59.1994 66.1245L58.784 66.187L58.7516 66.1667C58.6017 66.0729 58.457 66.0276 58.3214 66.032C58.2998 66.0327 58.2783 66.0345 58.2564 66.0364C58.1695 66.0436 58.0615 66.0527 57.9334 66.0008C57.8619 65.9716 57.6958 65.8884 57.711 65.7534C57.7147 65.7171 57.7303 65.6892 57.7488 65.6677C57.7439 65.6649 57.7389 65.6619 57.7336 65.6587C57.6686 65.6193 57.6402 65.5872 57.6128 65.5563C57.5918 65.5326 57.5701 65.5081 57.5195 65.4702C57.4973 65.4536 57.4778 65.4407 57.4615 65.4299C57.4121 65.397 57.353 65.3538 57.3511 65.2738C57.352 65.1882 57.4206 65.1409 57.466 65.1095C57.5471 65.0535 57.606 65.0273 57.6451 65.0099C57.6594 65.0036 57.6755 64.9964 57.6804 64.9929C57.7197 64.9638 57.6738 64.7415 57.657 64.6577C57.6186 64.4695 57.5853 64.3067 57.7017 64.2347C57.7849 64.1832 57.8986 64.2149 58.0488 64.332C58.0955 64.3685 58.1315 64.4078 58.1598 64.4428C58.1764 64.4123 58.2026 64.3845 58.2449 64.3721C58.3451 64.3429 58.4496 64.4264 58.556 64.6204C58.5826 64.6686 58.6181 64.7334 58.6374 64.8254C58.6465 64.8688 58.6497 64.908 58.652 64.9415C58.6713 64.9415 58.6924 64.9453 58.7144 64.9563C58.7792 64.9887 58.8121 65.0598 58.8088 65.169C58.807 65.289 58.7879 65.3886 58.7711 65.4763C58.7566 65.553 58.7443 65.619 58.7496 65.6703C58.7608 65.7654 58.8394 65.836 58.9411 65.9186L59.1994 66.1245Z" fill="white"/>
<path d="M59.2554 64.8709L59.3006 64.4512L59.3283 64.4249C59.4567 64.303 59.537 64.1738 59.5671 64.0409C59.5719 64.0198 59.5756 63.9984 59.5794 63.9766C59.5944 63.8904 59.6131 63.7831 59.6956 63.6717C59.7418 63.6096 59.8641 63.4693 59.9901 63.5183C60.0241 63.5311 60.0471 63.5533 60.063 63.5768C60.0671 63.5727 60.0712 63.5687 60.0755 63.5642C60.13 63.5111 60.1681 63.4916 60.2048 63.4728C60.233 63.4584 60.2621 63.4436 60.3113 63.404C60.333 63.3866 60.3503 63.371 60.3648 63.3578C60.4091 63.3182 60.4657 63.2717 60.5431 63.2901C60.6253 63.3127 60.6535 63.3914 60.6721 63.4435C60.7055 63.5365 60.7158 63.6004 60.7226 63.6429C60.725 63.6583 60.7279 63.6758 60.73 63.6815C60.748 63.727 60.9737 63.7388 61.0586 63.7437C61.2495 63.7541 61.4147 63.7631 61.4544 63.8944C61.4829 63.9884 61.4235 64.0909 61.2728 64.2072C61.2258 64.2433 61.1789 64.2683 61.138 64.2869C61.1631 64.3108 61.1832 64.3433 61.1844 64.3876C61.1872 64.4924 61.0802 64.5728 60.8665 64.627C60.8134 64.6407 60.7419 64.6587 60.6485 64.6541C60.6045 64.6519 60.5659 64.6452 60.533 64.6388C60.5281 64.6577 60.5191 64.6772 60.5029 64.6958C60.4554 64.7505 60.3785 64.7644 60.2743 64.7336C60.1592 64.7013 60.0682 64.6575 59.988 64.619C59.9179 64.5854 59.8574 64.5567 59.8067 64.5489C59.7124 64.5356 59.6244 64.5942 59.5191 64.672L59.2554 64.8709Z" fill="white"/>
<path d="M57.9082 72.9115L57.8348 72.8385L57.7327 72.8277C57.7332 72.818 57.7325 72.7955 57.7318 72.7602C57.7279 72.5672 57.7157 71.9797 57.7971 71.0769C57.8539 70.4467 57.9489 69.8071 58.0794 69.1753C58.2102 68.5426 58.3459 68.0719 58.4548 67.6935C58.5371 67.4081 58.6201 67.1374 58.7011 66.8737C58.9174 66.1693 59.1215 65.5039 59.248 64.7449C59.2763 64.5754 59.3351 64.2227 59.2148 63.8065C59.1449 63.565 59.0254 63.3378 58.8594 63.1312L59.0201 63.0008C59.2033 63.229 59.3355 63.4807 59.413 63.7488C59.5464 64.2103 59.4824 64.5947 59.4516 64.7793C59.3229 65.5517 59.1167 66.2235 58.8983 66.9348C58.8177 67.1975 58.735 67.467 58.6531 67.7512C58.5451 68.1261 58.4106 68.5927 58.2816 69.2173C58.1526 69.8415 58.0588 70.4733 58.0026 71.0956C57.9222 71.9869 57.9343 72.5657 57.9382 72.7559C57.9403 72.8574 57.9407 72.8787 57.9082 72.9115Z" fill="white"/>
<path d="M58.4184 63.3702C58.4101 63.3683 58.4018 63.3662 58.3935 63.3637C58.224 63.316 58.088 63.1772 57.9893 62.9513C57.9431 62.845 57.9321 62.7332 57.9104 62.5102C57.907 62.4759 57.8919 62.3019 57.9104 62.0713C57.9225 61.9207 57.9386 61.8602 57.9794 61.8127C58.0247 61.7597 58.0858 61.7294 58.1503 61.7142C58.152 61.6942 58.1585 61.6747 58.1714 61.6563C58.2245 61.5795 58.3133 61.6111 58.3615 61.6275C58.3858 61.6362 58.416 61.6474 58.4501 61.6531C58.5036 61.6624 58.5355 61.653 58.5839 61.6389C58.6301 61.6254 58.6876 61.6086 58.7672 61.6101C58.924 61.6122 59.0402 61.6831 59.0785 61.7064C59.2802 61.8282 59.3498 62.0225 59.4304 62.2474C59.4464 62.2925 59.4996 62.4555 59.5119 62.6654C59.5209 62.8168 59.5011 62.8788 59.4785 62.9231C59.4322 63.0142 59.3614 63.0565 59.1857 63.1453C59.002 63.2384 58.9099 63.285 58.8344 63.309C58.6586 63.3644 58.5482 63.3993 58.4184 63.3702Z" fill="white"/>
<path d="M11.3238 66.745C11.2815 66.6148 10.9605 66.6722 10.9297 66.5557C10.899 66.4396 11.207 66.3423 11.4432 66.0153C11.4858 65.9563 11.7542 65.5846 11.6513 65.4283C11.4561 65.132 10.0983 65.87 9.77244 65.4559C9.70091 65.365 9.67148 65.2089 9.4584 64.9186C9.37363 64.8031 9.31925 64.7473 9.25427 64.7489C9.16207 64.7513 9.12908 64.8672 8.98417 65.0771C8.76685 65.392 8.68843 65.3525 8.54526 65.6104C8.43899 65.802 8.42639 65.9243 8.34976 65.9315C8.2413 65.9417 8.19649 65.7033 8.06397 65.6941C7.92874 65.6846 7.79343 65.9202 7.72635 66.1043C7.60046 66.4497 7.67842 66.7137 7.6957 66.9769C7.71448 67.2628 7.67038 67.6814 7.36119 68.2187L4.44482 72.8877C5.07114 71.9359 6.84902 69.3403 7.56532 68.3883C7.7721 68.1134 7.99432 67.8375 8.33634 67.7856C8.66563 67.7356 9.0663 67.8993 9.62553 67.8897C9.69085 67.8886 9.87261 67.8832 9.91682 67.7864C9.95338 67.7064 9.86262 67.6368 9.89563 67.5615C9.93992 67.4606 10.1392 67.5039 10.4107 67.4369C10.6022 67.3897 10.7322 67.3116 10.8441 67.2444C10.8778 67.2242 11.3802 66.9184 11.3238 66.745Z" fill="white"/>
<path d="M3.68536 67.8351C3.60954 67.8185 3.54493 67.9933 3.47915 67.9749C3.41361 67.9566 3.45494 67.7766 3.36336 67.5657C3.34684 67.5277 3.24276 67.2881 3.1367 67.2937C2.93567 67.3045 2.90436 68.1871 2.60805 68.2283C2.54302 68.2374 2.45832 68.2068 2.25501 68.2282C2.17413 68.2366 2.1312 68.2474 2.11326 68.2799C2.0878 68.326 2.13489 68.3757 2.19563 68.5078C2.28671 68.7058 2.24478 68.7331 2.32948 68.8781C2.39235 68.9858 2.44849 69.0273 2.4299 69.0672C2.40359 69.1236 2.2742 69.0769 2.23145 69.1396C2.18782 69.2036 2.26386 69.3383 2.33441 69.4245C2.46681 69.5862 2.61826 69.624 2.75176 69.6914C2.89685 69.7646 3.08858 69.9071 3.26178 70.2147L4.70084 73.0001C4.41665 72.4166 3.66187 70.7909 3.40353 70.1629C3.32895 69.9816 3.25828 69.7924 3.3316 69.6088C3.4022 69.4319 3.59776 69.2816 3.75447 69.003C3.77277 68.9705 3.82256 68.8793 3.78804 68.8295C3.75949 68.7884 3.69932 68.8131 3.6721 68.7751C3.63559 68.7241 3.71422 68.6384 3.75983 68.4851C3.79199 68.3771 3.79138 68.2904 3.79086 68.2158C3.79071 68.1934 3.78629 67.8574 3.68536 67.8351Z" fill="white"/>
<path d="M5.12109 68.5148L5.16633 68.0952L5.19407 68.0688C5.32243 67.9469 5.40272 67.8177 5.43284 67.6848C5.43764 67.6637 5.44135 67.6423 5.44515 67.6206C5.46017 67.5343 5.47882 67.427 5.56137 67.3156C5.60757 67.2535 5.72979 67.1132 5.85584 67.1622C5.88986 67.1751 5.91282 67.1972 5.92877 67.2207C5.93278 67.2166 5.93688 67.2126 5.94127 67.2082C5.99572 67.155 6.03381 67.1355 6.0705 67.1168C6.09869 67.1023 6.1278 67.0875 6.17707 67.0479C6.19868 67.0305 6.21599 67.0149 6.23057 67.0018C6.2748 66.9621 6.33138 66.9156 6.40887 66.934C6.49101 66.9566 6.51918 67.0353 6.53786 67.0874C6.57123 67.1804 6.58151 67.2444 6.58831 67.2868C6.59076 67.3023 6.5936 67.3197 6.59575 67.3254C6.61373 67.3709 6.83943 67.3827 6.92435 67.3876C7.11524 67.398 7.28043 67.407 7.32015 67.5384C7.34866 67.6323 7.28925 67.7348 7.13849 67.8511C7.09154 67.8872 7.04459 67.9122 7.00369 67.9308C7.02885 67.9547 7.04889 67.9873 7.05011 68.0315C7.05288 68.1363 6.94591 68.2167 6.73221 68.2709C6.6791 68.2846 6.60767 68.3026 6.5142 68.298C6.47018 68.2959 6.43161 68.2891 6.39874 68.2828C6.39384 68.3016 6.38485 68.3211 6.36864 68.3397C6.32108 68.3944 6.24426 68.4083 6.14 68.3775C6.02489 68.3453 5.93394 68.3014 5.85369 68.2629C5.78359 68.2293 5.72314 68.2006 5.67243 68.1928C5.5781 68.1795 5.49014 68.2381 5.38487 68.316L5.12109 68.5148Z" fill="white"/>
<path d="M5.87373 66.1245L5.45829 66.187L5.42587 66.1667C5.27598 66.0729 5.1313 66.0276 4.99571 66.032C4.97415 66.0327 4.95264 66.0345 4.93072 66.0364C4.84385 66.0436 4.73586 66.0527 4.60768 66.0008C4.53621 65.9716 4.37016 65.8884 4.38536 65.7534C4.38907 65.7171 4.40458 65.6892 4.42315 65.6677C4.4182 65.6649 4.41325 65.6619 4.40789 65.6587C4.3429 65.6193 4.31449 65.5872 4.28713 65.5563C4.26608 65.5326 4.2444 65.5081 4.19379 65.4702C4.1716 65.4536 4.15216 65.4407 4.13583 65.4299C4.08641 65.397 4.02733 65.3538 4.02539 65.2738C4.02627 65.1882 4.09493 65.1409 4.14036 65.1095C4.2214 65.0535 4.28035 65.0273 4.31944 65.0099C4.33373 65.0036 4.34981 64.9964 4.35472 64.9929C4.39399 64.9638 4.34808 64.7415 4.33128 64.6577C4.29288 64.4695 4.25965 64.3067 4.37601 64.2347C4.45923 64.1832 4.57296 64.2149 4.7231 64.332C4.76983 64.3685 4.80577 64.4078 4.83409 64.4428C4.85072 64.4123 4.87693 64.3845 4.91923 64.3721C5.01941 64.3429 5.12395 64.4264 5.23034 64.6204C5.25693 64.6686 5.2924 64.7334 5.31172 64.8254C5.32078 64.8688 5.32404 64.908 5.32629 64.9415C5.34565 64.9415 5.36677 64.9453 5.38876 64.9563C5.45349 64.9887 5.48637 65.0598 5.48312 65.169C5.48129 65.289 5.46217 65.3886 5.44543 65.4763C5.43091 65.553 5.41862 65.619 5.42394 65.6703C5.4351 65.7654 5.51375 65.836 5.61543 65.9186L5.87373 66.1245Z" fill="white"/>
<path d="M5.92993 64.8709L5.97517 64.4512L6.00291 64.4249C6.13126 64.303 6.21156 64.1738 6.24168 64.0409C6.24648 64.0198 6.25019 63.9984 6.25398 63.9766C6.26901 63.8904 6.28765 63.7831 6.37021 63.6717C6.41641 63.6096 6.53863 63.4693 6.66468 63.5183C6.6987 63.5311 6.72166 63.5533 6.73761 63.5768C6.74162 63.5727 6.74572 63.5687 6.75011 63.5642C6.80455 63.5111 6.84264 63.4916 6.87934 63.4728C6.90753 63.4584 6.93664 63.4436 6.98591 63.404C7.00752 63.3866 7.02483 63.371 7.03941 63.3578C7.08364 63.3182 7.14021 63.2717 7.2177 63.2901C7.29985 63.3127 7.32801 63.3914 7.3467 63.4435C7.38007 63.5365 7.39035 63.6004 7.39715 63.6429C7.3996 63.6583 7.40244 63.6758 7.40458 63.6815C7.42256 63.727 7.64827 63.7388 7.73319 63.7437C7.92408 63.7541 8.08927 63.7631 8.12899 63.8944C8.15749 63.9884 8.09809 64.0909 7.94733 64.2072C7.90037 64.2433 7.85343 64.2683 7.81253 64.2869C7.83768 64.3108 7.85773 64.3433 7.85895 64.3876C7.86171 64.4924 7.75475 64.5728 7.54105 64.627C7.48794 64.6407 7.41651 64.6587 7.32304 64.6541C7.27901 64.6519 7.24045 64.6452 7.20758 64.6388C7.20267 64.6577 7.19368 64.6772 7.17748 64.6958C7.12992 64.7505 7.0531 64.7644 6.94884 64.7336C6.83373 64.7013 6.74278 64.6575 6.66252 64.619C6.59242 64.5854 6.53198 64.5567 6.48126 64.5489C6.38694 64.5356 6.29897 64.5942 6.19371 64.672L5.92993 64.8709Z" fill="white"/>
<path d="M4.58281 72.9115L4.50936 72.8385L4.40727 72.8277C4.40776 72.818 4.40709 72.7955 4.40634 72.7602C4.40241 72.5672 4.39022 71.9797 4.47164 71.0769C4.52849 70.4467 4.62349 69.8071 4.754 69.1753C4.88473 68.5426 5.02041 68.0719 5.12939 67.6935C5.21163 67.4081 5.29464 67.1374 5.37567 66.8737C5.59192 66.1693 5.79611 65.5039 5.92255 64.7449C5.95087 64.5754 6.00963 64.2227 5.88932 63.8065C5.81951 63.565 5.69998 63.3378 5.53394 63.1312L5.69465 63.0008C5.87787 63.229 6.01005 63.4807 6.08758 63.7488C6.22098 64.2103 6.15695 64.5947 6.12619 64.7793C5.99749 65.5517 5.79126 66.2235 5.57289 66.9348C5.49227 67.1975 5.40953 67.467 5.32765 67.7512C5.21965 68.1261 5.08519 68.5927 4.95617 69.2173C4.82712 69.8415 4.73334 70.4733 4.67712 71.0956C4.59678 71.9869 4.60885 72.5657 4.6128 72.7559C4.61484 72.8574 4.61528 72.8787 4.58281 72.9115Z" fill="white"/>
<path d="M5.09296 63.3702C5.0847 63.3683 5.07638 63.3662 5.06805 63.3637C4.89856 63.316 4.7626 63.1772 4.66384 62.9513C4.61762 62.845 4.60671 62.7332 4.58495 62.5102C4.58154 62.4759 4.56645 62.3019 4.585 62.0713C4.59706 61.9207 4.61318 61.8602 4.65398 61.8127C4.69929 61.7597 4.76033 61.7294 4.82484 61.7142C4.82659 61.6942 4.83308 61.6747 4.84596 61.6563C4.89903 61.5795 4.98786 61.6111 5.03606 61.6275C5.06034 61.6362 5.0906 61.6474 5.12464 61.6531C5.17813 61.6624 5.21007 61.653 5.25842 61.6389C5.30469 61.6254 5.36221 61.6086 5.44172 61.6101C5.59861 61.6122 5.71474 61.6831 5.75304 61.7064C5.95474 61.8282 6.02437 62.0225 6.10496 62.2474C6.12098 62.2925 6.17412 62.4555 6.18649 62.6654C6.19543 62.8168 6.17568 62.8788 6.15304 62.9231C6.10679 63.0142 6.03598 63.0565 5.86023 63.1453C5.67661 63.2384 5.58448 63.285 5.50895 63.309C5.33318 63.3644 5.22281 63.3993 5.09296 63.3702Z" fill="white"/>
<path d="M50.1183 0H16.5438C14.2536 0 12.3972 1.6692 12.3972 3.72838V69.2716C12.3972 71.3308 14.2536 73 16.5438 73H50.1183C52.4085 73 54.2649 71.3308 54.2649 69.2716V3.72838C54.2649 1.6692 52.4085 0 50.1183 0ZM48.7139 67.5347C48.7139 69.0619 47.3361 70.2996 45.6377 70.2996H21.3889C19.6904 70.2996 18.3139 69.0619 18.3139 67.5347V9.3936C18.3139 7.86642 19.6904 6.62872 21.3889 6.62872H45.6377C47.3361 6.62872 48.7139 7.86642 48.7139 9.3936V67.5347Z" fill="white"/>
<path d="M47.1169 31.6385C47.7105 31.6385 48.1917 31.1549 48.1917 30.5584C48.1917 29.9619 47.7105 29.4783 47.1169 29.4783C46.5232 29.4783 46.042 29.9619 46.042 30.5584C46.042 31.1549 46.5232 31.6385 47.1169 31.6385Z" fill="white"/>
<path d="M47.1425 35.8506C47.7361 35.8506 48.2174 35.367 48.2174 34.7705C48.2174 34.174 47.7361 33.6904 47.1425 33.6904C46.5489 33.6904 46.0676 34.174 46.0676 34.7705C46.0676 35.367 46.5489 35.8506 47.1425 35.8506Z" fill="white"/>
<path d="M29.136 10.7352H23.5704C22.7375 10.7352 22.0591 11.3621 22.0591 12.133V45.8364C22.0591 46.6083 22.7375 47.2352 23.5704 47.2352H29.136C29.4144 47.2352 29.6753 47.1649 29.8999 47.0436C30.1736 46.8953 30.3911 46.669 30.5198 46.3983C30.6017 46.2262 30.6473 46.0367 30.6473 45.8364V12.133C30.6473 11.3621 29.97 10.7352 29.136 10.7352ZM30.2964 45.8364C30.2964 46.1266 30.1712 46.3907 29.9665 46.5845L29.9654 46.5856C29.9443 46.6062 29.9232 46.6257 29.8999 46.6441C29.6951 46.8097 29.4285 46.9104 29.136 46.9104H23.5704C22.9305 46.9104 22.41 46.4286 22.41 45.8364V12.133C22.41 11.5408 22.9305 11.059 23.5704 11.059H29.136C29.7759 11.059 30.2964 11.5408 30.2964 12.133L30.2964 45.8364Z" fill="white"/>
<path d="M43.093 10.7352H37.5262C36.6933 10.7352 36.0149 11.3621 36.0149 12.133V45.8364C36.0149 46.6083 36.6933 47.2352 37.5262 47.2352H43.093C43.9258 47.2352 44.6031 46.6083 44.6031 45.8364V12.133C44.6031 11.3621 43.9258 10.7352 43.093 10.7352ZM44.2534 45.8364C44.2534 46.4286 43.7328 46.9104 43.093 46.9104H37.5262C36.8863 46.9104 36.3658 46.4286 36.3658 45.8364V12.133C36.3658 11.5408 36.8863 11.059 37.5262 11.059H43.093C43.7328 11.059 44.2534 11.5408 44.2534 12.133V45.8364Z" fill="white"/>
<path d="M27.0376 49.6665L25.4414 49.6593V49.8648H30.0769C30.1283 49.8648 30.1797 49.8684 30.2299 49.8744V49.6821L27.0376 49.6665ZM30.7991 49.6845C30.6269 49.592 30.4344 49.532 30.2299 49.5127C30.1797 49.5067 30.1283 49.5043 30.0769 49.5043H24.3868C24.1525 49.5043 23.9313 49.5572 23.7328 49.6509C23.2079 49.8996 22.8433 50.4366 22.8433 51.0566V63.4338C22.8433 64.2892 23.5355 64.9861 24.3868 64.9861H30.0769C30.1283 64.9861 30.1797 64.9837 30.2299 64.9777C31.0095 64.9008 31.6205 64.2376 31.6205 63.4338V51.0566C31.6205 50.4631 31.2869 49.9465 30.7991 49.6845ZM31.263 63.4338C31.263 64.0393 30.8122 64.5403 30.2299 64.616C30.1797 64.622 30.1283 64.6257 30.0769 64.6257H24.3868C23.7328 64.6257 23.2008 64.091 23.2008 63.4338V51.0566C23.2008 50.3994 23.7328 49.8648 24.3868 49.8648H30.0769C30.1283 49.8648 30.1797 49.8684 30.2299 49.8744C30.8122 49.9501 31.263 50.4511 31.263 51.0566V63.4338ZM30.0769 49.5043H27.0376V49.8648H30.0769C30.1283 49.8648 30.1797 49.8684 30.2299 49.8744V49.5127C30.1797 49.5067 30.1283 49.5043 30.0769 49.5043Z" fill="white"/>
<path d="M38.1032 49.7194V49.8648H40.5196V49.7315L38.1032 49.7194ZM44.5238 49.7495C44.3313 49.6257 44.1089 49.5428 43.871 49.5152C43.8124 49.508 43.7526 49.5044 43.6916 49.5044H38.0016C37.7182 49.5044 37.454 49.5813 37.2256 49.7158C36.7665 49.985 36.458 50.486 36.458 51.0567V63.4339C36.458 64.2893 37.1503 64.9861 38.0016 64.9861H43.6916C44.5429 64.9861 45.2364 64.2893 45.2364 63.4339V51.0567C45.2364 50.5088 44.9518 50.0258 44.5238 49.7495ZM44.8777 63.4339C44.8777 64.0911 44.3456 64.6257 43.6916 64.6257H38.0016C37.3476 64.6257 36.8167 64.0911 36.8167 63.4339V51.0567C36.8167 50.3995 37.3476 49.8648 38.0016 49.8648H43.6916C44.3456 49.8648 44.8777 50.3995 44.8777 51.0567V63.4339Z" fill="white"/>
<path d="M40.1472 43.2737C40.4653 44.0529 41.1233 44.5196 41.6167 44.3161C42.1102 44.1125 42.2522 43.316 41.9339 42.5366C41.811 42.2234 41.6152 41.9445 41.363 41.723L39.9736 38.4385L38.4536 39.1266L39.9847 42.2914C39.96 42.6272 40.0157 42.964 40.1472 43.2737Z" fill="#FFB6B6"/>
<path d="M36.8631 22.5923L37.6597 22.2721C38.5973 23.7377 39.1131 25.4354 39.15 27.1774L39.2529 32.0379L41.4834 40.3629L38.9343 41.3235L35.7478 30.9173L36.8631 22.5923Z" fill="#2F2E41"/>
<path d="M38.5064 45.8201C38.4061 45.8201 38.3045 45.805 38.2046 45.7737L35.4935 44.9226C35.1798 44.824 34.9412 44.5876 34.8389 44.2737C34.7365 43.9599 34.7897 43.6274 34.9845 43.3614L42.5545 33.034C42.7391 32.7822 43.0234 32.6327 43.3345 32.6239C43.6476 32.6144 43.9379 32.7482 44.1362 32.9892L45.6791 34.8631C45.9644 35.2096 45.9859 35.7098 45.7314 36.0798L39.3296 45.3844C39.138 45.663 38.8293 45.8201 38.5064 45.8201Z" fill="#7D75FF"/>
<path d="M44.5721 36.5431C44.54 36.5431 44.508 36.5302 44.4845 36.5046L42.853 34.7375C42.808 34.6888 42.8109 34.6128 42.8593 34.5677C42.9076 34.5226 42.9834 34.5253 43.0282 34.574L44.6598 36.3413C44.7047 36.3899 44.7018 36.4659 44.6535 36.5111C44.6304 36.5325 44.6013 36.5431 44.5721 36.5431Z" fill="white"/>
<path d="M43.8548 37.6246C43.8227 37.6246 43.7907 37.6117 43.7672 37.5861L42.1357 35.819C42.0907 35.7703 42.0936 35.6943 42.142 35.6492C42.1904 35.6041 42.2661 35.6068 42.311 35.6555L43.9425 37.4228C43.9874 37.4713 43.9846 37.5474 43.9362 37.5925C43.9132 37.614 43.884 37.6246 43.8548 37.6246Z" fill="white"/>
<path d="M43.0179 38.8259C42.9858 38.8259 42.9538 38.813 42.9303 38.7874L41.2988 37.0202C41.2538 36.9717 41.2567 36.8956 41.3051 36.8505C41.3535 36.8054 41.4291 36.8081 41.474 36.8569L43.1056 38.6241C43.1505 38.6727 43.1476 38.7487 43.0993 38.7939C43.0762 38.8154 43.0471 38.8259 43.0179 38.8259Z" fill="white"/>
<path d="M42.181 39.9072C42.1489 39.9072 42.1169 39.8943 42.0934 39.8687L40.4619 38.1015C40.4169 38.0529 40.4198 37.9769 40.4682 37.9317C40.5165 37.8867 40.5922 37.8894 40.6371 37.9382L42.2686 39.7054C42.3136 39.7539 42.3107 39.83 42.2623 39.8751C42.2393 39.8966 42.2101 39.9072 42.181 39.9072Z" fill="white"/>
<path d="M41.3439 40.9885C41.3117 40.9885 41.2798 40.9756 41.2562 40.95L39.6247 39.1828C39.5798 39.1343 39.5826 39.0582 39.631 39.0131C39.6794 38.9679 39.7551 38.9707 39.8 39.0195L41.4315 40.7867C41.4764 40.8353 41.4736 40.9113 41.4252 40.9565C41.4022 40.978 41.373 40.9885 41.3439 40.9885Z" fill="white"/>
<path d="M40.3873 41.9496C40.3552 41.9496 40.3232 41.9367 40.2997 41.9111L38.6682 40.1439C38.6232 40.0953 38.6261 40.0193 38.6745 39.9741C38.7228 39.9289 38.7986 39.9318 38.8434 39.9806L40.4749 41.7478C40.5199 41.7963 40.517 41.8724 40.4686 41.9175C40.4456 41.939 40.4164 41.9496 40.3873 41.9496Z" fill="white"/>
<path d="M34.8451 71.7858L36.654 71.2375L35.4105 63.9653L32.7407 64.7745L34.8451 71.7858Z" fill="#FFB6B6"/>
<path d="M41.0306 69.8666C41.1155 69.9448 41.2375 70.2435 41.2708 70.3543C41.373 70.6951 41.1811 71.0546 40.842 71.1573L35.2398 72.8548C35.0084 72.9249 34.7644 72.7933 34.6946 72.5608L34.6243 72.3264C34.6243 72.3264 34.1358 71.706 34.4458 70.6649C34.4458 70.6649 35.3589 71.1299 36.0991 69.744L36.2409 69.0805L39.0016 70.0574L40.3019 69.8326C40.5864 69.7834 40.8178 69.6705 41.0306 69.8666Z" fill="#2F2E41"/>
<path d="M27.144 67.9879L28.5805 69.2213L33.9986 64.2409L31.8786 62.4205L27.144 67.9879Z" fill="#FFB6B6"/>
<path d="M32.0931 72.1813C32.0735 72.2954 31.8893 72.5599 31.8144 72.648C31.5844 72.9185 31.1796 72.9504 30.9103 72.7192L26.4621 68.8992C26.2784 68.7415 26.2568 68.464 26.4138 68.2794L26.572 68.0933C26.572 68.0933 26.8277 67.3451 27.867 67.0447C27.867 67.0447 27.971 68.0681 29.5314 67.9452L30.1637 67.7066L30.8371 70.5688L31.7279 71.5468C31.9228 71.7608 32.1423 71.8955 32.0931 72.1813Z" fill="#2F2E41"/>
<path d="M34.4435 19.0666C36.1131 19.0666 37.4665 17.7066 37.4665 16.0289C37.4665 14.3512 36.1131 12.9911 34.4435 12.9911C32.7739 12.9911 31.4204 14.3512 31.4204 16.0289C31.4204 17.7066 32.7739 19.0666 34.4435 19.0666Z" fill="#FFB6B6"/>
<path d="M32.0035 18.9902L35.9866 20.2709L36.4646 21.7118L36.3053 27.155L31.0476 20.9113L32.0035 18.9902Z" fill="#7D75FF"/>
<path d="M39.0936 22.2721L36.1456 20.7497V26.0608L31.6244 19.7526L30.6495 20.7512L26.5071 23.5529L29.2156 31.7178V35.7201L26.985 42.124L34.7919 46.4466L40.0495 43.4047L38.4563 32.198L39.5716 23.713L39.0936 22.2721Z" fill="#2F2E41"/>
<path d="M37.9783 42.9245L41.1648 54.9317L31.6054 67.259L29.2156 64.8576L36.1461 54.0512L30.0122 42.2841L37.9783 42.9245Z" fill="#2F2E41"/>
<path d="M28.1003 41.8038L31.4461 54.9316L33.2783 67.721L36.9089 67.259L35.7478 53.3307L33.6766 41.4836L28.1003 41.8038Z" fill="#2F2E41"/>
<path d="M33.7562 18.3496V16.8168L34.7122 15.4679L34.3935 14.8502L34.2342 14.0636C34.2342 14.0636 36.3054 14.912 37.102 14.7897C37.8986 14.6674 37.4207 14.6271 37.6596 14.4872C37.8986 14.3473 38.3766 13.7044 37.6596 13.0652C36.9427 12.4261 37.4984 12.266 36.0256 12.4261C34.5528 12.5862 32.641 12.5862 32.3223 13.0665C32.0037 13.5468 32.0037 13.867 32.0037 13.867C32.0037 13.867 30.0918 14.0271 31.5257 17.5492L32.3223 19.3102L32.641 18.6698C32.641 18.6698 32.3223 16.9088 32.8003 17.5492C33.2783 18.1896 33.7562 18.3496 33.7562 18.3496Z" fill="#2F2E41"/>
<path d="M36.9757 26.3512L35.2549 22.4378C35.2269 22.3742 35.2269 22.3014 35.2548 22.2378C35.2826 22.1742 35.3362 22.125 35.4018 22.1029L38.6083 21.0191C38.6731 20.9972 38.7446 21.0035 38.8046 21.0363C38.8647 21.0691 38.9088 21.126 38.9257 21.1925L39.9822 25.3479C40.0141 25.4736 39.9431 25.6039 39.8205 25.6445L37.2783 26.4863C37.2525 26.4948 37.2264 26.499 37.2006 26.499C37.1054 26.499 37.0162 26.4433 36.9757 26.3512Z" fill="white"/>
<path d="M35.1094 22.0652C35.1513 22.0428 35.2077 22.0132 35.2757 21.9787C35.2427 21.9511 35.2182 21.9126 35.2091 21.8665L35.1454 21.5469C35.1289 21.4639 35.1669 21.3797 35.2401 21.3379C35.6761 21.0886 37.1939 20.2761 38.3755 20.3255C38.4494 20.3285 38.5147 20.3747 38.5445 20.4428L38.6811 20.7559C38.698 20.7946 38.7013 20.8355 38.6936 20.8737C38.7856 20.8624 38.8778 20.8525 38.9703 20.845C39.0283 20.8403 39.0834 20.8709 39.1113 20.9222L39.1811 21.0508C39.2254 21.1325 39.1852 21.2345 39.0973 21.2634L35.2524 22.5307C35.1649 22.5595 35.0727 22.502 35.0597 22.4104L35.0323 22.2177C35.0234 22.1556 35.0543 22.0947 35.1094 22.0652Z" fill="#3F3D56"/>
<path d="M37.3741 25.0057C38.009 24.4558 38.2412 23.6809 37.8929 23.2749C37.5445 22.869 36.7476 22.9858 36.1126 23.536C35.856 23.7523 35.6546 24.0272 35.5253 24.3377L32.8647 26.7019L33.9954 27.9328L36.4983 25.4715C36.8231 25.3888 37.1234 25.229 37.3741 25.0057Z" fill="#FFB6B6"/>
<path d="M31.225 35.4221L30.6172 43.9064C30.58 44.4257 30.1853 44.8464 29.672 44.9173C27.1718 45.2631 24.4016 44.9132 21.4197 44.0177C20.9061 43.8634 20.5839 43.3518 20.6567 42.8181L21.8052 34.4083C21.8696 33.937 22.2283 33.5595 22.6943 33.4756C25.1209 33.0387 27.7422 33.4606 30.4566 34.2928C30.9432 34.4421 31.2616 34.9122 31.225 35.4221Z" fill="#7D75FF"/>
<path d="M27.613 30.1614C28.8983 30.2163 29.2532 33.3245 29.2819 34.5173L29.6004 34.5096C29.5959 34.3223 29.4688 29.9217 27.6266 29.8414" fill="#3F3D56"/>
<path d="M28.2596 23.713L26.5071 23.5529L24.9701 30.9185C24.6773 32.322 25.5928 33.6923 26.9965 33.9512L28.2596 34.1842L37.0224 27.5553L34.9934 24.4533L29.0562 28.1957L28.2596 23.713Z" fill="#2F2E41"/>
<path d="M29.2198 27.6001C27.4046 27.522 24.3815 33.5436 24.3284 33.7113L24.632 33.8086C24.6443 33.7698 27.6327 27.8523 29.2062 27.9201" fill="#3F3D56"/>
<path d="M0.588379 72.8513C0.588379 72.9306 0.699009 72.9943 0.836774 72.9943H63.4609C63.5987 72.9943 63.7093 72.9306 63.7093 72.8513C63.7093 72.7721 63.5987 72.7084 63.4609 72.7084H0.836774C0.699009 72.7084 0.588379 72.7721 0.588379 72.8513Z" fill="#CCCCCC"/>
</svg>
