<svg id="bold" enable-background="new 0 0 32 32" height="512" viewBox="0 0 32 32" width="512" xmlns="http://www.w3.org/2000/svg"><path d="m26 32h-20c-3.314 0-6-2.686-6-6v-20c0-3.314 2.686-6 6-6h20c3.314 0 6 2.686 6 6v20c0 3.314-2.686 6-6 6z" fill="#e3f8fa"/><path d="m16.167 9.333h-.733c-.221-.766-.927-1.333-1.767-1.333s-1.547.567-1.767 1.333h-.733c-.273 0-.5.227-.5.5v1c0 .64.527 1.167 1.167 1.167h3.666c.64 0 1.167-.527 1.167-1.167v-1c0-.273-.227-.5-.5-.5z" fill="#8ce1eb"/><path d="m17.5 10h-.167v.833c0 1.013-.82 1.833-1.833 1.833h-3.667c-1.013 0-1.833-.82-1.833-1.833v-.833h-.167c-1.013 0-1.833.82-1.833 1.833v8.333c0 1.014.82 1.834 1.833 1.834h4.833v-2.333h-4.166c-.273 0-.5-.227-.5-.5s.227-.5.5-.5h4.287c.18-.527.58-.947 1.093-1.167h-5.38c-.273 0-.5-.227-.5-.5s.227-.5.5-.5h6.333c.273 0 .5.227.5.5 0 .127-.047.247-.133.333h.133c.2 0 .387.04.567.093.02-.027.047-.053.06-.073.027-1.553.753-2.153 1.373-2.373v-3.147c0-1.013-.82-1.833-1.833-1.833zm-.667 5.333h-6.333c-.273 0-.5-.227-.5-.5s.227-.5.5-.5h6.333c.273 0 .5.227.5.5 0 .274-.226.5-.5.5z" fill="#26c6da"/><g fill="#8ce1eb"><path d="m17.333 24h-.667c-.368 0-.666-.298-.666-.667v-4c0-.368.298-.667.667-.667h.667c.368 0 .667.298.667.667v4c-.001.369-.299.667-.668.667z"/><path d="m24 20.273c0-.887-.72-1.607-1.607-1.607h-1.327c.073-.233.14-.547.14-.913 0-1.08-.58-1.573-1.113-1.573-.8 0-.8.853-.8 1.267 0 .507-.44.96-.793 1.24.107.193.167.413.167.647v4c0 .06-.007.12-.013.18.58.24 1.507.487 2.84.487h.506c.8 0 1.5-.58 1.62-1.347l-.027-.007c.327-.68.407-2.354.407-2.374z"/></g></svg>