<svg width="14" height="13" viewBox="0 0 14 13" fill="none" xmlns="http://www.w3.org/2000/svg">
<path d="M5.65573 12.2464C5.7564 12.298 5.85818 12.3464 5.96151 12.3876C6.30885 12.5256 6.6724 12.602 7.0444 12.602C7.05085 12.602 7.05751 12.6011 7.06396 12.6007C7.07085 12.6011 7.07751 12.602 7.08373 12.602C7.45574 12.602 7.81929 12.5256 8.16662 12.3876C8.26462 12.3484 8.36129 12.3029 8.45707 12.2544C10.2002 11.6596 14.128 10.7151 13.7455 9.43311C13.5768 8.86622 12.2348 8.00467 11.794 7.02867L11.7888 5.22C11.7851 3.694 11.2844 2.45756 10.4055 1.63067C9.61529 0.622889 8.47573 0 7.06529 0C5.66262 0 4.52773 0.616222 3.73862 1.61444C2.84951 2.44156 2.34329 3.68444 2.33951 5.22022C2.33862 5.41044 2.34551 5.59778 2.3564 5.78244L2.28507 7.09267C1.86307 8.04089 0.537512 8.87778 0.379512 9.43311C0.0157347 10.71 3.91618 11.6511 5.65573 12.2464Z" fill="#146BA2"/>
</svg>
