<svg width="85" height="76" viewBox="0 0 85 76" fill="none" xmlns="http://www.w3.org/2000/svg">
<path d="M22.5896 68.2158H27.272V68.1653H22.5896V68.2158Z" fill="#E7E8E5"/>
<path d="M73.506 69.2483H84.9534V69.2988H73.506V69.2483Z" fill="#E7E8E5"/>
<path d="M0.911102 69.2483H12.3585V69.2988H0.911102V69.2483Z" fill="#E7E8E5"/>
<path d="M1.15149 0.782727C0.5431 0.783737 0.0505002 1.27723 0.0505002 1.88565V56.7148C0.0505002 57.3232 0.5431 57.8167 1.15149 57.8177H40.1558C40.7644 57.8167 41.2577 57.3236 41.2587 56.7148V1.88565C41.2577 1.27703 40.7644 0.783737 40.1558 0.782727H1.15149ZM40.1558 57.8682H1.15149C0.515183 57.8672 0 57.3509 0 56.7148V1.88565C0.00559543 1.25339 0.519122 0.743337 1.15149 0.742327H40.1558C40.7927 0.742327 41.3092 1.25864 41.3092 1.89575V56.7148C41.3092 57.3516 40.7927 57.8682 40.1558 57.8682Z" fill="#E7E8E5"/>
<path d="M44.8442 0.782727C44.2356 0.783737 43.7425 1.27703 43.7413 1.88565V56.7148C43.7425 57.3236 44.2356 57.8167 44.8442 57.8177H83.8506C84.4592 57.8167 84.9525 57.3236 84.9533 56.7148V1.88565C84.9525 1.27703 84.4592 0.783737 83.8506 0.782727H44.8442M83.8506 57.8682H44.8442C44.2077 57.8672 43.692 57.3513 43.6908 56.7148V1.88565C43.6974 1.25299 44.2115 0.743337 44.8442 0.742327H83.8506C84.4822 0.744549 84.9945 1.2542 85 1.88565V56.7148C85 57.3501 84.4861 57.866 83.8506 57.8682" fill="#E7E8E5"/>
<path d="M51.2617 66.9863H55.9261V50.8436H51.2617V66.9863Z" fill="#E2E2E0"/>
<path d="M47.959 66.9863H52.6234V50.8436H47.959V66.9863Z" fill="#E2E2E0"/>
<path d="M51.7381 66.9863H52.6235V64.4657H50.8075L51.7381 66.9863Z" fill="#EDEDEB"/>
<path d="M24.5132 66.9863H29.1776V50.8436H24.5132V66.9863Z" fill="#E2E2E0"/>
<path d="M28.4043 65.7461H52.6234V50.8439H28.4043V65.7461Z" fill="#EDEDEB"/>
<path d="M41.6298 51.6819C41.2336 51.6819 40.9124 52.0024 40.9112 52.3986V61.47C40.907 61.867 41.2249 62.192 41.6219 62.1962H41.6298H51.1137C51.5104 62.1996 51.8346 61.8807 51.8381 61.4837V61.47V52.3986C51.8369 52.0024 51.5155 51.6819 51.1194 51.6819H41.6298M51.1155 62.3926H41.6298C41.1207 62.3915 40.7082 61.979 40.7072 61.47V52.3986C40.7082 51.8893 41.1207 51.4768 41.6298 51.4756H51.1137C51.6227 51.4768 52.0352 51.8893 52.0362 52.3986V61.47C52.0352 61.9782 51.624 62.3904 51.1155 62.3926Z" fill="#DADBD8"/>
<path d="M29.912 51.6819C29.5163 51.6819 29.1955 52.0026 29.1955 52.3986V61.47C29.1955 61.8657 29.5163 62.1865 29.912 62.1865H39.3958C39.7919 62.1865 40.1133 61.8661 40.1143 61.47V52.3986C40.1133 52.0024 39.7919 51.6819 39.3958 51.6819H29.912ZM39.3958 62.3926H29.912C29.4028 62.3915 28.9905 61.979 28.9893 61.47V52.3986C28.9905 51.8893 29.4028 51.4768 29.912 51.4756H39.3958C39.9054 51.4756 40.3185 51.8887 40.3185 52.3984V52.3986V61.47C40.3185 61.9795 39.9054 62.3926 39.396 62.3926H39.3958" fill="#DADBD8"/>
<path d="M38.5164 54.3457C38.0241 54.3465 37.6241 53.9486 37.6231 53.4563C37.6221 52.964 38.0202 52.5641 38.5123 52.563C39.0046 52.5618 39.4046 52.96 39.4056 53.4525V53.4563C39.4046 53.947 39.007 54.3445 38.5164 54.3457Z" fill="#FAFAF9"/>
<path d="M42.5113 54.3457C42.019 54.3487 41.6174 53.9524 41.6142 53.4601C41.611 52.9678 42.0073 52.5663 42.4996 52.563C42.9917 52.5598 43.3932 52.9563 43.3967 53.4484V53.4619C43.3932 53.9494 42.9985 54.3435 42.5113 54.3457Z" fill="#FAFAF9"/>
<path d="M29.2897 66.9863H28.4043V64.4657H30.2203L29.2897 66.9863" fill="#EDEDEB"/>
<path d="M23.0276 66.9863H27.6917V50.8436H23.0276V66.9863Z" fill="#E2E2E0"/>
<path d="M26.8065 66.9863H27.6917V64.4657H25.8759L26.8065 66.9863" fill="#EDEDEB"/>
<path d="M3.47269 65.7461H27.6916V50.8439H3.47269V65.7461Z" fill="#EDEDEB"/>
<path d="M16.6982 51.6819C16.3021 51.6819 15.9807 52.0024 15.9795 52.3986V61.47C15.9753 61.867 16.2934 62.192 16.6901 62.1962H16.6982H26.182C26.5789 62.1996 26.9031 61.8807 26.9063 61.4837V61.47V52.3986C26.9053 52.0032 26.5852 51.6831 26.1899 51.6819H16.6982ZM26.184 62.3926H16.6982C16.1882 62.3926 15.7745 61.9799 15.7735 61.47V52.3986C15.7745 51.8885 16.1882 51.4756 16.6982 51.4756H26.182C26.691 51.4768 27.1035 51.8893 27.1047 52.3986V61.47C27.1035 61.9782 26.6924 62.3904 26.184 62.3926" fill="#DADBD8"/>
<path d="M4.98035 51.6819C4.58433 51.6819 4.26302 52.0024 4.26191 52.3986V61.47C4.25757 61.867 4.57564 62.192 4.97247 62.1962H4.98035H14.4643C14.8602 62.1962 15.1818 61.8758 15.1828 61.4799V52.3986C15.1818 52.0024 14.8602 51.6819 14.4643 51.6819H4.98035M14.4643 62.3926H4.98035C4.47078 62.3926 4.05771 61.9795 4.05771 61.47V52.3986C4.05771 51.8887 4.47078 51.4756 4.98035 51.4756H14.4643C14.9733 51.4768 15.3858 51.8893 15.3868 52.3986V61.47C15.3858 61.979 14.9733 62.3915 14.4643 62.3926" fill="#DADBD8"/>
<path d="M13.5847 54.3457C13.0925 54.3465 12.6925 53.9486 12.6915 53.4563C12.6905 52.964 13.0886 52.5641 13.5809 52.563C14.073 52.5618 14.4729 52.96 14.474 53.4525V53.4563C14.474 53.9474 14.076 54.3457 13.5847 54.3457Z" fill="#FAFAF9"/>
<path d="M17.5797 54.3457C17.0874 54.3487 16.6858 53.9524 16.6826 53.4601C16.6794 52.9678 17.0757 52.5663 17.568 52.563C18.0603 52.5598 18.4618 52.9563 18.4651 53.4484V53.4619C18.4618 53.9494 18.0669 54.3435 17.5797 54.3457Z" fill="#FAFAF9"/>
<path d="M4.3581 66.9863H3.47269V64.4657H5.28659L4.3581 66.9863Z" fill="#EDEDEB"/>
<path d="M37.5944 14.7783H46.2734V6.09953H37.5944V14.7783Z" fill="#E7E8E5"/>
<path d="M46.2735 14.7793H46.6581V6.10043H46.2735V14.7793Z" fill="#DADBD8"/>
<path d="M38.7716 13.6035H45.0985V7.2767H38.7716V13.6035Z" fill="white"/>
<path d="M42.9932 11.4979C42.4085 12.0827 41.4603 12.0827 40.8757 11.4979C40.2909 10.9131 40.2909 9.96514 40.8757 9.38055C41.4603 8.79576 42.4085 8.79576 42.9932 9.38055C43.5778 9.96514 43.5778 10.9131 42.9932 11.4979Z" fill="#F3F2F1"/>
<path d="M27.5965 27.4336H37.7717V17.2583H27.5965V27.4336Z" fill="#E7E8E5"/>
<path d="M37.7717 17.2596H38.2226V27.4346H37.7717V17.2596Z" fill="#DADBD8"/>
<path d="M28.976 26.0547H36.3936V18.637H28.976V26.0547Z" fill="white"/>
<path d="M31.1022 23.9268H34.2658V20.7634H31.1022V23.9268Z" fill="#F3F2F1"/>
<path d="M77.7738 13.9861H83.2823V15.2734H77.7738V13.9861Z" fill="#E2E2E0"/>
<path d="M77.7738 15.2734H54.9723V13.9861H77.7738V15.2734" fill="#F3F2F1"/>
<path d="M61.51 7.15304H67.929V13.9863H61.51V7.15304Z" fill="#DADBD8"/>
<path d="M61.5099 13.9863H59.8658V7.15304H61.5099V13.9863Z" fill="#EDEDEB"/>
<path d="M64.7902 6.0994H69.6119V13.9863H64.7902V6.0994Z" fill="#E2E2E0"/>
<path d="M64.7924 13.9863H63.3984V6.09961H64.7924V13.9863Z" fill="#EDEDEB"/>
<path d="M66.2108 7.15304H70.2761V13.9863H66.2108V7.15304Z" fill="#EDEDEB"/>
<path d="M66.2109 13.9863H65.2823V7.15304H66.2109V13.9863Z" fill="#FAFAF9"/>
<path d="M69.5382 8.30929H74.8704V13.9863H69.5382V8.30929Z" fill="#E2E2E0"/>
<path d="M69.5383 13.9863H68.1727V8.30949H69.5383V13.9863" fill="#FAFAF9"/>
<path d="M72.2628 7.43402H76.2687V13.9863H72.2628V7.43402" fill="#E2E2E0"/>
<path d="M72.2651 13.9863H71.1069V7.43402H72.2651V13.9863Z" fill="#EDEDEB"/>
<path d="M73.4439 8.30929H77.3351V13.9863H73.4439V8.30929Z" fill="#EDEDEB"/>
<path d="M73.4418 13.9863H72.671V8.30949H73.4418V13.9863" fill="#FAFAF9"/>
<path d="M74.5141 52.1364C76.2396 49.8807 80.3465 49.0424 81.7658 47.6211C83.6248 45.7562 83.6153 42.9587 82.033 41.9497C80.6588 41.072 76.1023 47.0048 75.5898 47.6663C73.8231 49.9455 73.3128 51.6377 72.9809 53.2751C73.0183 51.8831 73.0555 50.603 73.085 49.6177C73.1811 46.3982 73.3009 45.3635 73.3556 45.0454C73.5522 44.8884 73.772 44.7078 73.9017 44.6117C75.005 43.7891 77.449 42.8094 78.6719 41.616C80.4566 39.8707 80.1679 37.7818 78.9153 37.0045C77.608 36.1919 75.2934 38.1137 74.0645 40.018C72.8355 41.922 73.3617 43.7477 73.0183 45.3185C72.9456 45.6285 72.8708 46.8064 72.8022 48.4418C72.5119 46.8315 71.6215 45.391 70.3109 44.4115C68.6187 43.0607 67.1583 41.4176 65.7642 41.6295C64.3706 41.8416 65.1283 44.017 66.2238 45.5441C67.2053 46.9044 72.0523 48.261 72.765 49.3545C72.6806 51.569 72.606 54.3742 72.5529 56.9873C72.1701 55.6385 72.4331 55.5246 70.8686 53.4535C69.9382 52.2245 66.1218 50.7052 65.6683 51.5532C65.2148 52.4012 65.9038 53.9934 67.3449 55.1103C68.507 56.0114 71.0746 56.0096 71.6813 56.5689C71.8206 56.6986 72.28 57.1992 72.543 57.4878C72.4802 60.6758 72.4529 63.4911 72.4842 64.451L72.7335 64.4609C72.7218 64.2134 72.7511 62.5919 72.8001 60.4443C73.4265 59.3018 77.6413 58.6342 78.943 57.4466C80.3053 56.2039 81.283 54.7531 80.7 53.7813C80.2132 52.9707 76.381 54.072 74.8107 55.4147C73.772 56.3079 73.1379 57.262 72.8474 58.5441C72.8828 57.0814 72.924 55.5108 72.9632 54.0288C73.2752 53.6635 73.9958 52.8117 74.5141 52.1364" fill="#E2E2E0"/>
<path d="M74.8812 66.9434H70.5054C70.266 66.9434 70.0598 66.633 70.0127 66.1993L69.7025 63.3685H75.6841L75.374 66.1993C75.3247 66.633 75.1207 66.9434 74.8812 66.9434" fill="#EDEDEB"/>
<path d="M75.8098 64.4678H69.5768C69.4276 64.4678 69.3019 64.2615 69.2864 63.9867L69.1587 61.8941C69.1389 61.572 69.2744 61.2913 69.4494 61.2913H75.9374C76.1122 61.2913 76.2475 61.572 76.2279 61.8941L76.1003 63.9867C76.0845 64.2615 75.9588 64.4678 75.8098 64.4678Z" fill="#EDEDEB"/>
<path d="M42.7816 71.4267C64.4122 71.4267 81.9475 72.4505 81.9475 73.7134C81.9475 74.9763 64.4122 76 42.7816 76C21.1507 76 3.61557 74.9763 3.61557 73.7134C3.61557 72.4505 21.1507 71.4267 42.7816 71.4267Z" fill="#F3F2F1"/>
<path d="M35.6092 21.0797C35.1619 22.1638 32.5347 22.0911 29.7802 20.9549C27.0255 19.8186 25.155 18.0188 25.6022 16.9346C25.7059 16.6833 25.9949 15.7448 26.3048 15.6143C27.3314 15.1815 29.2835 16.1563 31.3995 17.0292C33.369 17.8416 35.6199 18.3638 35.9695 19.4336C36.1814 20.0826 35.7366 20.7708 35.6092 21.0797Z" fill="#406FBF"/>
<path d="M28.9295 20.5713C28.7519 20.4832 28.5796 20.3927 28.4132 20.3004C28.58 20.3927 28.7523 20.483 28.9297 20.5709L28.9295 20.5713Z" fill="#B1B3B1"/>
<path d="M27.2948 19.5938C27.0641 19.4259 26.8518 19.2552 26.6611 19.0841C26.852 19.255 27.0641 19.4253 27.2952 19.5931L27.2948 19.5938" fill="#C3C5C2"/>
<path d="M34.2657 21.8223V21.8213C34.2871 21.8186 34.3084 21.8158 34.3294 21.813C34.3084 21.8164 34.2871 21.8194 34.2657 21.8223ZM34.5182 21.7817C34.5192 21.7815 34.5203 21.7813 34.5213 21.7811C34.5203 21.7813 34.5192 21.7815 34.5182 21.7817ZM34.5217 21.7811C34.8402 21.7182 35.1038 21.6146 35.2986 21.4688C35.1038 21.6146 34.84 21.7184 34.5217 21.7811ZM35.2992 21.4684C35.2996 21.4682 35.3 21.4678 35.3004 21.4676C35.3 21.4678 35.2996 21.468 35.2992 21.4684ZM31.1022 21.4259C30.9557 21.3825 30.8079 21.3358 30.6588 21.2864L30.6594 21.2851C30.8083 21.335 30.9557 21.3817 31.1022 21.4251V21.4259ZM30.4643 21.2181C30.2386 21.1387 30.0086 21.0522 29.7799 20.9571C29.5759 20.8735 29.3769 20.7848 29.182 20.6929C29.3761 20.784 29.5757 20.8719 29.7801 20.9563C30.0094 21.0508 30.238 21.1381 30.4645 21.2179L30.4643 21.2181ZM35.6711 20.9456C35.7733 20.7341 35.93 20.4305 35.9955 20.0978C35.9436 20.4592 35.7866 20.7139 35.6711 20.9456ZM35.971 19.4395C35.9706 19.4376 35.97 19.4358 35.9694 19.434C35.9696 19.4344 35.97 19.4346 35.9702 19.435C35.9704 19.4364 35.9708 19.438 35.971 19.4395Z" fill="#C3C5C2"/>
<path d="M33.7022 21.8516C33.3982 21.8516 33.0685 21.8277 32.7193 21.7792C33.0675 21.8269 33.3962 21.851 33.6992 21.851C33.8999 21.851 34.0894 21.8405 34.2658 21.8192V21.8203C34.207 21.8279 34.1464 21.8332 34.0844 21.838C33.9624 21.8471 33.8347 21.8516 33.7022 21.8516M32.3732 21.7253C31.9678 21.6552 31.5416 21.5538 31.1022 21.4239V21.4231C31.5416 21.5534 31.9682 21.6542 32.3732 21.7251V21.7253Z" fill="#BABCBA"/>
<path d="M33.699 21.8516C33.396 21.8516 33.0674 21.8275 32.7191 21.7799C32.6751 21.7738 32.6309 21.7673 32.5862 21.7605L33.0967 20.848C33.4241 20.891 33.7338 20.9125 34.0206 20.9125C35.0199 20.9125 35.7413 20.6517 35.958 20.1263C35.9819 20.0683 35.9992 20.0083 36.0101 19.9463C36.0073 19.9982 36.0023 20.0483 35.9954 20.0964C35.9299 20.4291 35.7732 20.7327 35.671 20.9442C35.6483 20.99 35.6271 21.0349 35.6088 21.0795C35.5463 21.2308 35.4417 21.3597 35.3003 21.4661C35.2999 21.4663 35.2995 21.4667 35.2991 21.467C35.2989 21.4672 35.2987 21.4672 35.2985 21.4674C35.1038 21.6132 34.8401 21.7168 34.5216 21.7797C34.5214 21.7797 34.5214 21.7797 34.5212 21.7797C34.5202 21.7799 34.5192 21.7801 34.5182 21.7803C34.4573 21.7922 34.3949 21.8025 34.3305 21.8114C34.3301 21.8116 34.3297 21.8116 34.3293 21.8116C34.3083 21.8144 34.2871 21.8172 34.2657 21.8199C34.0893 21.8411 33.8998 21.8516 33.699 21.8516M32.3731 21.7257C31.9681 21.6548 31.5415 21.554 31.1021 21.4237C30.9557 21.3803 30.8082 21.3336 30.6593 21.2837L31.1548 20.3978C31.758 20.5929 32.341 20.7329 32.8813 20.8173L32.3731 21.7257M30.4644 21.2165C30.238 21.1367 30.0093 21.0494 29.78 20.9549C29.5756 20.8704 29.376 20.7826 29.1819 20.6915C29.1591 20.6808 29.1362 20.6699 29.1134 20.6589L29.601 19.7865C29.783 19.8711 29.9697 19.9532 30.1606 20.0319C30.4288 20.1424 30.6953 20.2426 30.9587 20.3325L30.4642 21.2167M28.9296 20.5699C28.7522 20.482 28.5799 20.3917 28.4131 20.2994C28.0707 20.1095 27.7521 19.9111 27.4602 19.7091L27.9388 18.8537C28.3775 19.1504 28.8744 19.4364 29.4166 19.6988L28.9296 20.5699M27.2952 19.5926C27.0641 19.4247 26.852 19.2544 26.6611 19.0835C26.4789 18.9201 26.3163 18.7563 26.1761 18.5943L26.6393 17.7657C26.9381 18.0901 27.3213 18.4196 27.7725 18.7385L27.2952 19.5926" fill="#146BA2"/>
<path d="M25.6336 16.8545C25.7558 16.5167 25.9865 15.7374 26.3026 15.6148C26.3014 15.6156 26.3004 15.6164 26.2992 15.6172C26.2281 15.6496 26.158 15.7241 26.0911 15.8227C26.055 15.8709 26.0241 15.9223 25.9988 15.9764C25.8421 16.2659 25.7102 16.6501 25.6336 16.8545Z" fill="#C3C5C2"/>
<path d="M26.037 18.4287C25.6021 17.8779 25.4308 17.3537 25.6027 16.9363C25.6122 16.9137 25.6225 16.8864 25.6336 16.8553C25.7101 16.6509 25.842 16.2667 25.9988 15.9772C25.9931 15.9889 25.9881 16.0009 25.983 16.013C25.8004 16.4558 26.0044 17.0177 26.4973 17.6056L26.037 18.4287ZM26.0911 15.8235C26.158 15.7249 26.2281 15.6504 26.2992 15.6181C26.2175 15.6793 26.1479 15.7478 26.0911 15.8235Z" fill="#146BA2"/>
<path d="M26.1762 18.5947C26.1261 18.5388 26.0804 18.4836 26.0368 18.4279L26.4971 17.6047C26.5422 17.6582 26.5896 17.7122 26.6393 17.7661L26.1762 18.5947" fill="#2555AD"/>
<path d="M27.3275 19.6162C27.3167 19.6087 27.3059 19.6012 27.295 19.5937L27.2954 19.5931C27.3061 19.6008 27.3167 19.6085 27.3275 19.6162" fill="#969898"/>
<path d="M27.4604 19.71C27.4145 19.6789 27.3709 19.6471 27.3273 19.6164C27.3166 19.6088 27.3061 19.6011 27.2953 19.5934L27.7727 18.7393C27.827 18.7779 27.8824 18.8161 27.9389 18.8545L27.4604 19.71" fill="#2555AD"/>
<path d="M30.659 21.2861C30.5945 21.2645 30.5295 21.2413 30.4644 21.2179C30.5297 21.2407 30.5947 21.2631 30.6596 21.2849L30.659 21.2861Z" fill="#969898"/>
<path d="M30.6594 21.2842C30.5945 21.2624 30.5295 21.2399 30.4644 21.2169L30.9587 20.333C31.0242 20.3554 31.0896 20.377 31.1549 20.3982L30.6594 21.2842Z" fill="#2555AD"/>
<path d="M28.9763 20.5938C28.9607 20.5863 28.9452 20.5786 28.9296 20.5711L28.9298 20.5707C28.9452 20.5784 28.9607 20.5861 28.9763 20.5935V20.5938" fill="#898B8C"/>
<path d="M29.1041 20.6553C29.0609 20.6353 29.0183 20.6143 28.976 20.5935V20.5933C29.0185 20.6141 29.0611 20.6347 29.1041 20.6553Z" fill="#969898"/>
<path d="M29.1134 20.6602C29.1104 20.6587 29.1072 20.6573 29.1041 20.6559C29.0611 20.6353 29.0185 20.6147 28.9761 20.5939C28.9605 20.5864 28.9449 20.5788 28.9296 20.5711L29.4166 19.7001C29.4774 19.7295 29.539 19.7588 29.601 19.7877L29.1134 20.6602Z" fill="#2555AD"/>
<path d="M32.5779 21.7607C32.5098 21.7523 32.4423 21.7395 32.3732 21.7274V21.7272C32.4421 21.7393 32.5102 21.7504 32.5779 21.7607" fill="#909292"/>
<path d="M32.5863 21.7607C32.5835 21.7603 32.5807 21.7599 32.5779 21.7595C32.5102 21.7492 32.4421 21.7381 32.3732 21.726L32.8815 20.8176C32.954 20.8289 33.0257 20.839 33.0968 20.8483L32.5863 21.7607" fill="#2555AD"/>
<path d="M35.9583 20.1268C35.511 21.211 32.9155 21.1687 30.1608 20.0325C27.4063 18.8962 25.536 17.0962 25.983 16.0123C26.4303 14.9281 29.0258 14.9703 31.7803 16.1066C34.5348 17.2428 36.4053 19.0429 35.9583 20.1268Z" fill="#406FBF"/>
<path d="M33.71 20.252C32.8628 20.252 31.7068 19.9966 30.5026 19.4999C28.3226 18.6008 26.8117 17.251 27.1276 16.485C27.2692 16.1422 27.7528 15.9744 28.4394 15.9744C29.2866 15.9744 30.4428 16.2297 31.6468 16.7262C33.8266 17.6255 35.3377 18.9753 35.0218 19.7413C34.8804 20.0841 34.3966 20.252 33.71 20.252Z" fill="#5D87CD"/>
<path d="M49.5309 11.2756C50.2488 12.2026 48.8791 14.4458 46.5231 16.2703C44.1674 18.0947 41.6755 18.8221 40.9576 17.895C40.791 17.68 40.1209 16.9625 40.1615 16.6288C40.2967 15.5231 42.1133 14.3143 43.923 12.9128C45.6075 11.6083 47.1801 9.91531 48.2822 10.1444C48.9506 10.2832 49.3261 11.0112 49.5309 11.2756" fill="#406FBF"/>
<path d="M43.3457 18.0459C43.4586 18.0085 43.5736 17.9671 43.6905 17.9217V17.9221C43.5736 17.9673 43.4586 18.0085 43.3457 18.0459ZM43.741 17.9025V17.9021C43.8606 17.8546 43.9824 17.8033 44.1056 17.7479L44.106 17.7486C43.9826 17.8037 43.8608 17.8552 43.741 17.9025Z" fill="#C3C5C2"/>
<path d="M43.6908 17.9219V17.9215C43.7075 17.915 43.7245 17.9083 43.7413 17.9019V17.9023C43.7245 17.9089 43.7075 17.9154 43.6908 17.9219Z" fill="#B1B3B1"/>
<path d="M40.9075 17.833C40.678 17.5613 40.109 16.9678 40.1607 16.6307C40.1607 16.6321 40.1609 16.6335 40.1611 16.6349C40.1536 16.7129 40.1835 16.8111 40.2361 16.9185C40.2599 16.9735 40.2888 17.0254 40.3229 17.0741C40.4981 17.3571 40.7695 17.666 40.9075 17.833M45.2843 17.1246C45.4442 17.0274 45.6052 16.9248 45.7664 16.8167L45.7666 16.8171C45.6052 16.9252 45.4442 17.0278 45.2843 17.1246ZM46.0048 16.6531C46.1779 16.5315 46.351 16.4041 46.5233 16.2705C46.715 16.1221 46.9001 15.971 47.078 15.818C46.9011 15.9706 46.7158 16.1235 46.5239 16.2709C46.3524 16.4047 46.1789 16.5315 46.0048 16.6531M47.2467 15.6724L47.2461 15.6712C47.7156 15.2539 48.1313 14.8256 48.4819 14.4042L48.4821 14.4044C48.1323 14.8268 47.7156 15.2539 47.2467 15.6724M48.6516 14.1946C49.0498 13.6875 49.3489 13.1959 49.5285 12.7523C49.5008 12.8258 49.4671 12.9001 49.4311 12.9759C49.2477 13.3591 48.9845 13.7722 48.6516 14.1946M49.6542 12.3788C49.6542 12.3786 49.6542 12.3784 49.6542 12.3782C49.6542 12.3784 49.6542 12.3786 49.6542 12.3788ZM49.6548 12.376C49.7051 12.1832 49.7279 12.0031 49.721 11.8388C49.7279 12.0031 49.7051 12.1832 49.6548 12.376ZM49.721 11.8372C49.721 11.8368 49.721 11.8366 49.721 11.836C49.721 11.8364 49.721 11.837 49.721 11.8372ZM49.4457 11.1563C49.3128 10.9623 49.1267 10.6741 48.8696 10.4511C49.1586 10.6765 49.3015 10.9405 49.4457 11.1563ZM48.287 10.1453C48.2852 10.1447 48.2832 10.1442 48.2814 10.1438C48.2818 10.1438 48.2822 10.1436 48.2826 10.1436C48.2842 10.1442 48.2856 10.1447 48.287 10.1453" fill="#C3C5C2"/>
<path d="M42.0048 18.2979C41.5347 18.2979 41.1697 18.1682 40.9584 17.8955C40.9444 17.8775 40.9273 17.8567 40.9077 17.8335C40.7697 17.6664 40.4982 17.3575 40.3231 17.0745C40.3308 17.0852 40.3384 17.0959 40.3465 17.1062C40.5582 17.3796 40.924 17.509 41.3951 17.509C41.5767 17.509 41.7739 17.4899 41.9839 17.4523L42.469 18.2611C42.3051 18.2855 42.15 18.2979 42.0048 18.2979M42.6833 18.2231L42.1948 17.4092C42.6247 17.3113 43.1014 17.1426 43.6024 16.9101L44.106 17.7488C43.9827 17.8042 43.8609 17.8555 43.7414 17.9029C43.7246 17.9094 43.7076 17.9161 43.6909 17.9225C43.5739 17.968 43.459 18.0094 43.346 18.0468C43.1145 18.1231 42.8925 18.1823 42.6833 18.2231M44.2892 17.6638L43.7848 16.823C44.2605 16.5901 44.756 16.3011 45.2531 15.9613L45.7666 16.8172C45.6054 16.9253 45.4444 17.0279 45.2844 17.125C44.9461 17.3299 44.6126 17.5096 44.2892 17.6638M40.2362 16.919C40.1837 16.8115 40.1538 16.7134 40.1613 16.6354C40.1738 16.737 40.1987 16.8319 40.2362 16.919ZM45.9353 16.7018L45.4208 15.845C45.5848 15.7292 45.7488 15.608 45.9123 15.4816C46.1415 15.304 46.3611 15.1224 46.57 14.9388L47.0909 15.8074C47.0867 15.811 47.0825 15.8149 47.0782 15.8185C46.9002 15.9714 46.7152 16.1225 46.5235 16.271C46.3512 16.4045 46.1781 16.532 46.005 16.6536C45.9817 16.6697 45.9585 16.6859 45.9353 16.7018M47.2463 15.6716L46.7241 14.8012C47.1936 14.375 47.605 13.9387 47.9468 13.5118L48.4821 14.4047C48.1314 14.8261 47.7157 15.2543 47.2463 15.6716M48.6183 14.237L48.0807 13.3403C48.9776 12.1629 49.3257 11.0775 48.8778 10.4992C48.8393 10.4495 48.7958 10.4047 48.7473 10.3645C48.791 10.3925 48.8316 10.4218 48.8698 10.4515C49.1269 10.6745 49.3129 10.9628 49.4459 11.1567C49.4737 11.1987 49.5018 11.2387 49.5309 11.2763C49.6499 11.4298 49.7117 11.6191 49.7212 11.8364C49.7212 11.8371 49.7212 11.8373 49.7212 11.8377C49.7212 11.8383 49.7212 11.8389 49.7212 11.8393C49.7281 12.0035 49.7052 12.1837 49.6549 12.3764C49.6547 12.3772 49.6545 12.3778 49.6543 12.3786C49.6543 12.3788 49.6543 12.379 49.6543 12.3792C49.623 12.498 49.5814 12.6218 49.5299 12.7493C49.5295 12.7505 49.5291 12.7515 49.5287 12.7527C49.3491 13.1963 49.0499 13.688 48.6518 14.195C48.6407 14.209 48.6296 14.2229 48.6183 14.237" fill="#146BA2"/>
<path d="M42.4688 18.2617L41.9838 17.4529C42.0526 17.4404 42.1229 17.426 42.1947 17.4099L42.6831 18.2237C42.6096 18.2395 42.5391 18.2516 42.4688 18.2617" fill="#2555AD"/>
<path d="M44.1064 17.749L44.106 17.7484C44.1168 17.7435 44.1278 17.7387 44.1387 17.7336C44.1278 17.7387 44.117 17.7439 44.1064 17.749Z" fill="#969898"/>
<path d="M44.106 17.7471L43.6024 16.9084C43.663 16.8803 43.7236 16.8512 43.7848 16.8213L44.2892 17.662C44.2383 17.6869 44.1878 17.7093 44.1385 17.7323C44.1276 17.7374 44.1167 17.7422 44.106 17.7471Z" fill="#2555AD"/>
<path d="M47.0933 15.8047C47.1448 15.7602 47.1957 15.7156 47.246 15.6712L47.2466 15.6724C47.1969 15.7166 47.1452 15.7607 47.0933 15.8047Z" fill="#969898"/>
<path d="M47.0909 15.8076L46.5699 14.939C46.6221 14.8932 46.6732 14.8475 46.7241 14.8015L47.2462 15.6719C47.1959 15.7163 47.145 15.761 47.0935 15.8054C47.0927 15.806 47.0917 15.8068 47.0909 15.8076" fill="#2555AD"/>
<path d="M45.7667 16.8174L45.7665 16.817C45.8193 16.7816 45.8722 16.7457 45.9249 16.7091C45.8726 16.7465 45.8189 16.7816 45.7667 16.8174Z" fill="#969898"/>
<path d="M45.7664 16.8164L45.2529 15.9605C45.3089 15.9224 45.3648 15.8836 45.4206 15.8442L45.9351 16.7011C45.9316 16.7037 45.9282 16.7061 45.9248 16.7085C45.872 16.7451 45.8191 16.7811 45.7664 16.8164" fill="#2555AD"/>
<path d="M48.4823 14.4053L48.4821 14.4051C48.5277 14.3501 48.5724 14.2952 48.6158 14.2406C48.5736 14.2966 48.5281 14.3499 48.4823 14.4053" fill="#969898"/>
<path d="M48.482 14.4033L47.9467 13.5105C47.9925 13.4533 48.0372 13.3959 48.0806 13.339L48.6181 14.2357C48.6173 14.2367 48.6165 14.2379 48.6157 14.2389C48.5723 14.2934 48.5276 14.3484 48.482 14.4033" fill="#2555AD"/>
<path d="M48.8776 10.4988C49.5956 11.426 48.2678 13.6567 45.9121 15.4812C43.5561 17.3057 41.0644 18.0331 40.3463 17.1059C39.6284 16.1787 40.956 13.9482 43.3119 12.1237C45.6676 10.2991 48.1595 9.57186 48.8776 10.4988" fill="#406FBF"/>
<path d="M42.0044 16.6045C41.696 16.6045 41.4604 16.5219 41.3253 16.3471C40.8181 15.6921 41.9182 13.9906 43.7824 12.5469C45.15 11.4876 46.5491 10.8614 47.3977 10.8614C47.7059 10.8614 47.9416 10.944 48.0768 11.1186C48.5842 11.7736 47.4839 13.4751 45.6196 14.9188C44.2521 15.9781 42.853 16.6045 42.0044 16.6045Z" fill="#5D87CD"/>
<path d="M39.7789 6.93078C39.5424 8.26015 36.5689 8.82414 33.1906 8.22278C29.8124 7.62162 27.2657 6.05632 27.5023 4.72695C27.5572 4.4187 27.652 3.29194 27.9683 3.06873C29.0167 2.3296 31.4526 2.94651 34.0475 3.40849C36.4629 3.83835 39.1236 3.87269 39.7799 4.99036C40.1776 5.66827 39.8464 6.55183 39.7789 6.93078" fill="#406FBF"/>
<path d="M35.7923 8.46484C35.3057 8.46484 34.7918 8.43596 34.2601 8.3792L34.2607 8.37758C34.7938 8.43576 35.3093 8.46383 35.7975 8.46383C35.9676 8.46383 36.1343 8.4606 36.2973 8.45373V8.45393C36.1327 8.46121 35.9642 8.46484 35.7923 8.46484M36.631 8.43475C36.9728 8.4101 37.2954 8.3697 37.5943 8.31476V8.31536C37.2952 8.37051 36.9728 8.41071 36.631 8.43475Z" fill="#C3C5C2"/>
<path d="M37.5944 8.31445V8.31385C37.9352 8.25102 38.2455 8.16901 38.5184 8.06902C38.4335 8.10255 38.3434 8.13144 38.2503 8.15932C38.0473 8.21951 37.8281 8.27163 37.5944 8.31445" fill="#B1B3B1"/>
<path d="M34.0247 8.35059C33.7514 8.31685 33.4714 8.27625 33.1907 8.22514C32.9406 8.18151 32.6952 8.13061 32.4538 8.07506C32.6943 8.1298 32.9402 8.17969 33.1907 8.22434C33.4718 8.27443 33.7506 8.31645 34.0247 8.35059ZM32.1392 8.00092C31.9104 7.94355 31.6876 7.88194 31.4708 7.8165C31.6878 7.88174 31.911 7.94315 32.1394 8.00031L32.1392 8.00092Z" fill="#C3C5C2"/>
<path d="M38.8568 7.92773C38.8572 7.92773 38.8576 7.92733 38.858 7.92713C38.8576 7.92733 38.8572 7.92773 38.8568 7.92773ZM38.859 7.92672C39.1206 7.79966 39.3337 7.6514 39.4902 7.48353C39.3337 7.6516 39.1204 7.79987 38.859 7.92672Z" fill="#C3C5C2"/>
<path d="M30.0604 7.30273C29.7526 7.16739 29.4655 7.02418 29.2041 6.8749C29.4657 7.02377 29.7524 7.16679 30.0608 7.30193L30.0604 7.30273ZM39.9639 6.09962H39.951C39.9661 5.97983 39.9748 5.8554 39.972 5.72996C39.9817 5.86186 39.977 5.98448 39.9639 6.09962Z" fill="#C3C5C2"/>
<path d="M39.8139 6.77148C39.8567 6.5917 39.9183 6.35637 39.9509 6.09983H39.9638C39.9347 6.35395 39.864 6.5711 39.8139 6.77148Z" fill="#B1B3B1"/>
<path d="M39.783 4.99609C39.7818 4.99403 39.7807 4.99197 39.7795 4.98991C39.7799 4.99032 39.7803 4.99073 39.7807 4.99094C39.7816 4.99259 39.7822 4.99444 39.783 4.99609Z" fill="#C3C5C2"/>
<path d="M35.7976 8.46289C35.3094 8.46289 34.7938 8.43482 34.2608 8.37664L34.6003 7.25816C35.067 7.30401 35.518 7.32624 35.9479 7.32624C36.1877 7.32624 36.4208 7.31937 36.6458 7.30583L36.2973 8.45279C36.1343 8.45966 35.9677 8.46289 35.7976 8.46289ZM36.5456 8.43946L36.8957 7.28765C38.5939 7.14322 39.7895 6.60165 39.9372 5.77244C39.9499 5.70134 39.9546 5.62943 39.9515 5.55691C39.9612 5.61609 39.9677 5.67326 39.9717 5.72901C39.9746 5.85446 39.9659 5.97889 39.9507 6.09868C39.9182 6.35522 39.8566 6.59055 39.8138 6.77033C39.8 6.82487 39.7879 6.8782 39.7786 6.93051C39.7427 7.13272 39.6439 7.31694 39.49 7.48198C39.3334 7.64984 39.1203 7.79811 38.8587 7.92517C38.8583 7.92537 38.8581 7.92557 38.8577 7.92557C38.8573 7.92577 38.8569 7.92618 38.8565 7.92618C38.7519 7.97708 38.6397 8.02435 38.5204 8.06818C38.5198 8.06839 38.5189 8.06858 38.5183 8.06899C38.2454 8.16898 37.9352 8.25099 37.5944 8.31382C37.2954 8.36876 36.9728 8.40916 36.631 8.4338C36.6028 8.43582 36.5743 8.43764 36.5456 8.43946M34.0246 8.34917C33.7505 8.31503 33.4718 8.27301 33.1906 8.22292C32.9401 8.17827 32.6943 8.12838 32.4537 8.07364C32.425 8.06718 32.3965 8.0605 32.368 8.05384L32.7019 6.95233C32.9276 7.00283 33.1578 7.04929 33.3922 7.0909C33.721 7.14948 34.0452 7.19675 34.3636 7.23311L34.0246 8.34917ZM32.1394 7.99889C31.9109 7.94173 31.6877 7.88032 31.4707 7.81508C31.0465 7.68721 30.6466 7.5448 30.2747 7.39168L30.6027 6.31138C31.1691 6.53762 31.7988 6.7372 32.4731 6.8992L32.1394 7.99889ZM30.0606 7.30099C29.7521 7.16585 29.4655 7.02283 29.2039 6.87395C28.9657 6.73801 28.7486 6.59721 28.5561 6.45298L28.8734 5.40702C29.2893 5.69851 29.8014 5.97505 30.3874 6.2229L30.0606 7.30099" fill="#146BA2"/>
<path d="M27.5169 4.63574C27.5714 4.22952 27.6385 3.28678 27.9658 3.07003C27.9647 3.07124 27.9637 3.07246 27.9625 3.07367C27.8906 3.1274 27.8302 3.2282 27.7793 3.35526C27.7502 3.41869 27.728 3.48434 27.7128 3.55181C27.6066 3.91945 27.5529 4.3887 27.5169 4.63574" fill="#C3C5C2"/>
<path d="M28.3582 6.30078C27.7337 5.7881 27.4123 5.24048 27.503 4.72861C27.5076 4.70235 27.5123 4.67144 27.5169 4.63649C27.5529 4.38945 27.6066 3.9202 27.7129 3.55256C27.7094 3.5671 27.7066 3.58164 27.704 3.59639C27.6072 4.13937 27.9748 4.72154 28.674 5.26149L28.3582 6.30078ZM27.7793 3.35601C27.8302 3.22895 27.8906 3.12815 27.9625 3.07442C27.886 3.1631 27.8244 3.25723 27.7793 3.35601Z" fill="#146BA2"/>
<path d="M28.5562 6.4541C28.4859 6.4036 28.4211 6.3527 28.3582 6.30058L28.674 5.26129C28.7378 5.31058 28.8043 5.35946 28.8736 5.40814L28.5562 6.4541" fill="#2555AD"/>
<path d="M30.0987 7.31836C30.0859 7.31291 30.073 7.30765 30.0601 7.3024L30.0605 7.3016C30.073 7.30705 30.0859 7.3127 30.0987 7.31836Z" fill="#969898"/>
<path d="M30.2748 7.39258C30.2144 7.36854 30.1567 7.34288 30.0989 7.31864C30.0862 7.31299 30.0732 7.30733 30.0607 7.30188L30.3875 6.2238C30.4582 6.2539 30.5299 6.28339 30.6029 6.31227L30.2748 7.39258" fill="#2555AD"/>
<path d="M34.2603 8.37988C34.1827 8.3716 34.1037 8.3611 34.0247 8.3508C34.1039 8.36069 34.1825 8.36979 34.2609 8.37827L34.2603 8.37988Z" fill="#969898"/>
<path d="M34.2609 8.37793C34.1825 8.36945 34.1039 8.36035 34.0247 8.35046L34.3637 7.2344C34.4429 7.24329 34.522 7.25177 34.6004 7.25945L34.2609 8.37793" fill="#2555AD"/>
<path d="M32.3578 8.05176C32.2841 8.0356 32.2112 8.01661 32.1393 7.99964L32.1395 7.99903C32.2116 8.01701 32.2845 8.03459 32.3578 8.05176Z" fill="#969898"/>
<path d="M32.3681 8.05566C32.3647 8.05506 32.3612 8.05425 32.3578 8.05344C32.2845 8.03627 32.2115 8.0187 32.1394 8.00072L32.4731 6.90103C32.5489 6.91921 32.6252 6.93699 32.702 6.95416L32.3681 8.05566Z" fill="#2555AD"/>
<path d="M36.2973 8.4541V8.4539C36.3791 8.45047 36.4603 8.44623 36.5401 8.44118C36.4601 8.44825 36.3797 8.45067 36.2973 8.4541" fill="#969898"/>
<path d="M36.2973 8.4541L36.6458 7.30714C36.7302 7.30189 36.8134 7.29583 36.8957 7.28896L36.5456 8.44077C36.5438 8.44097 36.542 8.44118 36.5401 8.44138C36.4603 8.44643 36.3791 8.45067 36.2973 8.4541Z" fill="#2555AD"/>
<path d="M39.9375 5.77229C39.7009 7.10165 36.7705 7.6921 33.3924 7.09075C30.0142 6.48959 27.4674 4.92429 27.7041 3.59492C27.9406 2.26535 30.8711 1.6751 34.2491 2.27646C37.6274 2.87761 40.1742 4.44292 39.9375 5.77229Z" fill="#406FBF"/>
<path d="M35.8625 6.61523C35.1854 6.61523 34.4316 6.54877 33.6454 6.40899C30.9721 5.93307 28.9404 4.78591 29.1076 3.84661C29.2256 3.18344 30.4081 2.80105 32.034 2.80105C32.7111 2.80105 33.465 2.86731 34.251 3.00729C36.9245 3.48321 38.9562 4.63037 38.7889 5.56968C38.671 6.23285 37.4884 6.61523 35.8625 6.61523Z" fill="#5D87CD"/>
<path d="M57.4143 40.8649L36.6268 42.0743C35.8899 42.1171 35.1665 42.2937 34.493 42.5951L11.9132 52.7028C11.0934 53.0698 10.6401 53.9491 10.8236 54.8161L14.5596 72.459C14.8159 73.6696 16.1653 74.307 17.2872 73.7468L39.5739 62.6211L60.1526 61.9253C61.2339 61.8888 62.0407 60.9222 61.8688 59.8692L59.1145 42.9738C58.9723 42.1014 58.3103 40.8385 57.4143 40.8649" fill="#406FBF"/>
<path d="M15.7097 73.8164C15.1479 73.5928 14.6969 73.1089 14.5595 72.4602L10.8236 54.8172C10.7964 54.6885 10.7832 54.5597 10.7831 54.432C10.7827 53.7006 11.2151 53.0164 11.9131 52.7039L15.5202 51.0893L16.1275 51.748L12.6951 53.2978C11.8873 53.6624 11.4425 54.5401 11.6258 55.4071L15.3566 73.051C15.4182 73.3419 15.5421 73.6 15.7097 73.8164M33.3058 43.9926L33.0361 43.2484L34.493 42.5962C35.1664 42.2948 35.8898 42.1182 36.6267 42.0754L38.2827 41.9791C38.3625 42.011 38.4445 42.0392 38.5288 42.0635L40.2494 42.5578L37.0469 42.7382C36.3201 42.7794 35.6068 42.9539 34.9432 43.2533L33.3058 43.9926M50.0727 42.0045L50.2806 41.2811L53.5055 41.0935C53.4849 41.3326 53.4645 41.5732 53.4443 41.8146L50.0727 42.0045" fill="#3B69BB"/>
<path d="M35.2637 50.617L24.3542 60.6729L4.77847 39.4349L15.6881 29.3792L35.2637 50.617" fill="#406FBF"/>
<path d="M15.2952 50.8447H15.295L4.77908 39.4359L15.2952 50.8447Z" fill="#FDFDFD"/>
<path d="M15.5204 51.0879L15.295 50.8431H15.2952L15.5206 51.0877L15.5204 51.0879Z" fill="#F3F2F1"/>
<path d="M16.1277 51.7471L15.5205 51.0883L15.5207 51.0881L16.1279 51.7471H16.1277Z" fill="#89ADE0"/>
<path d="M16.1278 51.7471L15.5206 51.0881L15.2952 50.8435L4.77908 39.4347L11.9381 32.8353L13.0933 31.7704L11.9381 32.8353L12.3026 33.7254L5.98951 39.5444L16.9112 51.3934L16.1278 51.7471M17.1053 51.3059L6.275 39.5559L12.3843 33.9247L19.1314 50.391L17.1053 51.3059Z" fill="#8CB3E3"/>
<path d="M34.0708 50.5435L34.0023 50.4691L24.4497 59.2742L6.27508 39.5562L15.7534 30.8197L33.9967 50.612L34.0708 50.5435L34.0023 50.4691L34.0708 50.5435L34.1452 50.475L15.7649 30.5343L5.98959 39.5447L24.4382 59.5596L34.2136 50.5493L34.1452 50.475L34.0708 50.5435" fill="#406FBF"/>
<path d="M21.9551 43.0472C23.2311 44.4313 23.3707 46.3782 22.2669 47.3957C21.1632 48.413 19.2339 48.1156 17.9581 46.7313C16.682 45.347 16.5426 43.4001 17.6462 42.3829C18.7501 41.3654 20.6792 41.6627 21.9551 43.0472Z" fill="#406FBF"/>
<path d="M19.1314 50.3926L12.3844 33.9263L13.5012 32.8969L17.17 43.0161C16.6296 44.0851 16.912 45.5981 17.958 46.7329C18.2058 47.0018 18.4785 47.2298 18.7648 47.4151L19.7441 50.116L19.1314 50.3926ZM12.3027 33.7269L11.9381 32.8369L13.0934 31.7719L13.4267 32.6908L12.3027 33.7269Z" fill="#7CA1DB"/>
<path d="M12.3843 33.9258L12.3026 33.7264L13.4266 32.6903L13.5011 32.8964L12.3843 33.9258Z" fill="#3B69BB"/>
<path d="M18.7649 47.4141C18.4786 47.2288 18.2059 47.0008 17.9581 46.7319C16.9121 45.5971 16.6297 44.0841 17.1701 43.0151L18.7649 47.4141Z" fill="#3B69BB"/>
<path d="M34.8361 48.2115L20.8875 53.2686L11.043 26.1146L24.9916 21.0577L34.8361 48.2115Z" fill="#406FBF"/>
<path d="M19.7442 50.1143L13.5013 32.8951L13.4268 32.689L11.043 26.1141L24.9916 21.0572L33.3061 43.9914L32.6419 44.2912L24.6158 22.1529L12.1173 26.684L20.4898 49.7777L19.7442 50.1143M20.6744 49.6943L12.376 26.8052L24.4946 22.4116L32.4573 44.3746L20.6744 49.6943" fill="#8CB3E3"/>
<path d="M33.7639 47.6835L33.7295 47.5886L21.5158 52.0166L12.3759 26.8059L24.4945 22.4124L33.6689 47.7178L33.7639 47.6835L33.7295 47.5886L33.7639 47.6835L33.8588 47.649L24.6157 22.1536L12.1172 26.6847L21.3948 52.2754L33.8934 47.7439L33.8588 47.649L33.7639 47.6835" fill="#406FBF"/>
<path d="M25.4878 36.0864C26.1296 37.8563 25.5058 39.7059 24.0944 40.2175C22.683 40.7292 21.0189 39.7091 20.3772 37.9392C19.7356 36.1692 20.3596 34.3197 21.7708 33.808C23.182 33.2966 24.846 34.3165 25.4878 36.0864" fill="#406FBF"/>
<path d="M57.5503 41.5821L37.0472 42.737C36.3204 42.7782 35.6071 42.9527 34.9435 43.2521L12.6954 53.2966C11.8876 53.6612 11.4428 54.5389 11.6261 55.4059L15.3569 73.0498C15.6131 74.2604 16.9461 74.9008 18.051 74.3439L40.0077 63.2815L60.306 62.6393C61.3723 62.6056 62.1658 61.6414 61.9937 60.5886L59.2327 43.6945C59.0903 42.8218 58.434 41.5581 57.5503 41.5821Z" fill="#146BA2"/>
<path d="M37.881 46.0322C37.7752 46.0322 37.6861 45.9498 37.6796 45.8427C37.6728 45.7312 37.7574 45.6355 37.8687 45.6286L53.2256 44.6823C53.2163 44.8184 53.2072 44.9537 53.1985 45.0889L37.8935 46.0318C37.8893 46.0322 37.8851 46.0322 37.881 46.0322" fill="#3563B7"/>
<path d="M38.9881 61.248C38.8951 61.248 38.8115 61.1836 38.7909 61.0891L35.5763 46.3268C35.5526 46.2178 35.6217 46.1101 35.7306 46.0865C35.7451 46.0832 35.7597 46.0818 35.7738 46.0818C35.8667 46.0818 35.9504 46.1463 35.971 46.2408L39.1856 61.0031C39.2094 61.1121 39.1404 61.2197 39.0313 61.2434C39.0167 61.2466 39.0024 61.248 38.9881 61.248" fill="#3563B7"/>
<path d="M16.6122 70.9678L14.3461 59.6121C18.3496 66.4617 16.6122 70.9678 16.6122 70.9678Z" fill="#5C85CC"/>
<path d="M24.0063 62.167C19.3035 62.167 14.8419 59.849 14.65 59.7482C14.6512 59.7484 14.6528 59.7484 14.6547 59.7484C15.1934 59.7484 34.7738 51.3421 34.7738 51.3421C34.7738 51.3421 35.2812 57.5312 29.2466 60.9162C27.6124 61.8327 25.7918 62.167 24.0063 62.167ZM14.65 59.7482C14.6464 59.7476 14.6442 59.7466 14.6436 59.7448C14.6436 59.7448 14.6456 59.7458 14.65 59.7482Z" fill="#5C85CC"/>
<path d="M28.8317 59.2112C28.8317 59.691 28.4431 60.0801 27.9633 60.0801C27.4836 60.0801 27.0947 59.691 27.0947 59.2112C27.0947 58.7317 27.4836 58.3426 27.9633 58.3426C28.4431 58.3426 28.8317 58.7317 28.8317 59.2112" fill="#406FBF"/>
<path d="M36.6697 61.46L34.7842 51.342C34.7842 51.342 37.2713 55.0836 36.6697 61.46" fill="#3563B7"/>
<path d="M13.3867 55.2529C13.3479 55.2529 13.3109 55.2305 13.2942 55.1927C13.2717 55.1416 13.2948 55.082 13.3457 55.0594L13.8077 54.8554C13.821 54.8495 13.8347 54.8467 13.8485 54.8467C13.8872 54.8467 13.9242 54.8691 13.9408 54.9069C13.9634 54.9578 13.9404 55.0176 13.8893 55.04L13.4275 55.2442C13.4142 55.2501 13.4002 55.2529 13.3867 55.2529Z" fill="#5C85CC"/>
<path d="M14.8088 54.623C14.77 54.623 14.7331 54.6006 14.7165 54.5629C14.6939 54.5119 14.7169 54.4524 14.768 54.4297L15.7283 54.0053C15.7414 53.9995 15.7554 53.9966 15.7691 53.9966C15.8077 53.9966 15.8449 54.0191 15.8614 54.0568C15.8841 54.1077 15.861 54.1675 15.8099 54.19L14.8496 54.6146C14.8363 54.6204 14.8225 54.623 14.8088 54.623ZM16.7294 53.7742C16.6906 53.7742 16.6537 53.7518 16.6369 53.714C16.6145 53.6629 16.6375 53.6033 16.6884 53.5807L17.6487 53.1563C17.6621 53.1505 17.676 53.1476 17.6895 53.1476C17.7283 53.1476 17.7653 53.1703 17.7821 53.2078C17.8045 53.2589 17.7815 53.3185 17.7305 53.3411L16.7702 53.7656C16.7569 53.7714 16.743 53.7742 16.7294 53.7742ZM18.6501 52.9252C18.6113 52.9252 18.5743 52.9028 18.5575 52.865C18.5349 52.8141 18.5581 52.7543 18.609 52.7319L19.5694 52.3075C19.5827 52.3017 19.5964 52.2988 19.6102 52.2988C19.649 52.2988 19.6859 52.3212 19.7025 52.359C19.7251 52.4099 19.7021 52.4697 19.651 52.4921L18.6907 52.9167C18.6775 52.9226 18.6636 52.9252 18.6501 52.9252ZM20.5705 52.0764C20.5317 52.0764 20.4947 52.054 20.4782 52.0162C20.4555 51.9651 20.4786 51.9055 20.5297 51.8829L21.49 51.4585C21.5031 51.4526 21.5171 51.4498 21.5308 51.4498C21.5696 51.4498 21.6065 51.4724 21.6231 51.51C21.6457 51.5611 21.6227 51.6207 21.5716 51.6433L20.6113 52.0677C20.598 52.0736 20.5842 52.0764 20.5705 52.0764ZM22.4911 51.2274C22.4523 51.2274 22.4154 51.205 22.3986 51.1672C22.3762 51.1163 22.3992 51.0565 22.4503 51.0341L23.4106 50.6097C23.4237 50.6038 23.4377 50.601 23.4512 50.601C23.49 50.601 23.527 50.6234 23.5437 50.6612C23.5664 50.7121 23.5431 50.7719 23.4922 50.7943L22.5319 51.2189C22.5186 51.2248 22.5048 51.2274 22.4911 51.2274ZM24.4117 50.3786C24.3729 50.3786 24.336 50.3562 24.3192 50.3184C24.2966 50.2673 24.3198 50.2077 24.3707 50.1851L25.331 49.7607C25.3444 49.7548 25.3581 49.752 25.3718 49.752C25.4106 49.752 25.4476 49.7744 25.4644 49.8122C25.4868 49.8633 25.4638 49.9229 25.4126 49.9455L24.4525 50.3699C24.4392 50.3758 24.4253 50.3786 24.4117 50.3786ZM26.3322 49.5296C26.2934 49.5296 26.2564 49.5072 26.2398 49.4694C26.2172 49.4185 26.2402 49.3587 26.2913 49.3363L27.2517 48.9119C27.265 48.906 27.2787 48.9032 27.2925 48.9032C27.3312 48.9032 27.3682 48.9256 27.3848 48.9634C27.4074 49.0143 27.3844 49.0741 27.3333 49.0965L26.373 49.5211C26.3598 49.527 26.3459 49.5296 26.3322 49.5296ZM28.2528 48.6808C28.214 48.6808 28.177 48.6584 28.1605 48.6206C28.1378 48.5695 28.1609 48.5099 28.212 48.4873L29.1721 48.0629C29.1854 48.057 29.1994 48.0542 29.2129 48.0542C29.2517 48.0542 29.2886 48.0766 29.3054 48.1144C29.328 48.1655 29.3048 48.2251 29.2539 48.2477L28.2936 48.6721C28.2803 48.678 28.2665 48.6808 28.2528 48.6808ZM30.1734 47.8318C30.1346 47.8318 30.0977 47.8094 30.0809 47.7716C30.0585 47.7207 30.0815 47.6609 30.1324 47.6385L31.0927 47.2141C31.106 47.208 31.12 47.2054 31.1335 47.2054C31.1723 47.2054 31.2093 47.2278 31.226 47.2656C31.2485 47.3165 31.2254 47.3763 31.1745 47.3987L30.2142 47.8233C30.2009 47.8291 30.1869 47.8318 30.1734 47.8318ZM32.0938 46.983C32.055 46.983 32.0181 46.9605 32.0015 46.9228C31.9789 46.8717 32.0019 46.8121 32.053 46.7894L33.0133 46.365C33.0267 46.3592 33.0404 46.3564 33.0541 46.3564C33.0929 46.3564 33.1299 46.3788 33.1465 46.4166C33.1691 46.4677 33.146 46.5273 33.0949 46.5499L32.1346 46.9743C32.1215 46.9801 32.1076 46.983 32.0938 46.983Z" fill="#5C85CC"/>
<path d="M34.0145 46.1348C33.9757 46.1348 33.9388 46.1123 33.922 46.0746C33.8996 46.0235 33.9226 45.9639 33.9737 45.9414L34.4355 45.7372C34.4488 45.7314 34.4626 45.7285 34.4763 45.7285C34.5151 45.7285 34.552 45.751 34.5688 45.7887C34.5912 45.8398 34.5682 45.8994 34.5171 45.9219L34.0553 46.1261C34.042 46.1319 34.0281 46.1348 34.0145 46.1348Z" fill="#5C85CC"/>
<path d="M38.4712 49.3506C38.3653 49.3506 38.2762 49.2682 38.2698 49.1609C38.2629 49.0496 38.3475 48.9539 38.4588 48.947L53.0415 48.0483C53.0364 48.1852 53.0316 48.3206 53.0274 48.4539L38.4837 49.3502C38.4794 49.3504 38.4752 49.3506 38.4712 49.3506" fill="#3563B7"/>
<path d="M39.2627 53.4883C39.1568 53.4883 39.068 53.4059 39.0613 53.2988C39.0544 53.1873 39.1391 53.0915 39.2506 53.0847L53.0699 52.2332C53.0775 52.3656 53.0856 52.5001 53.0943 52.6364L39.2754 53.4879C39.2712 53.4883 39.2669 53.4883 39.2627 53.4883Z" fill="#3563B7"/>
<path d="M52.9994 23.8835C52.9994 23.8835 52.5564 28.597 50.8057 29.003C49.0551 29.4088 47.5751 28.6804 47.5751 28.6804L46.1518 27.5852L45.4567 30.0066C45.4567 30.0066 46.2164 31.0392 47.8013 30.3233C47.8013 30.3233 50.6275 31.569 52.1922 30.3233C53.7569 29.0778 54.2572 25.666 54.2572 25.666L52.9994 23.8835" fill="#C8685A"/>
<path d="M54.4071 21.5993C54.4071 21.5993 53.1854 19.5169 53.7407 15.7406C54.296 11.9646 57.4614 11.4926 58.6831 11.7701C59.9048 12.0479 60.9043 13.2179 61.7373 15.451C62.5702 17.6843 62.8758 18.2675 64.2639 17.8786C65.6523 17.49 69.3451 16.2683 70.3724 17.3512C71.3996 18.4341 71.0663 19.6556 71.0663 19.6556C71.0663 19.6556 76.2032 18.4062 75.7588 22.9874C75.3146 27.5688 67.9012 31.8448 60.8487 27.3189C53.7963 22.7933 54.4071 21.5993 54.4071 21.5993" fill="#17282F"/>
<path d="M54.35 32.6881C54.35 32.6881 52.954 44.6937 53.0007 50.3242C53.0471 55.9548 55.0481 69.2168 55.0481 69.2168H57.5146C57.5146 69.2168 57.1885 58.6072 57.2352 54.9775C57.2817 51.348 57.9333 45.3453 57.9333 45.3453C57.9333 45.3453 58.7244 50.743 59.655 52.6511C60.5856 54.5588 65.7508 61.306 69.3339 63.4002L71.009 61.8645C71.009 61.8645 67.2866 57.2577 65.8903 54.9775C64.4943 52.6975 63.2381 52.0461 62.726 47.8115C62.2143 43.577 63.0983 36.7831 61.6093 32.6881H54.35" fill="#17282F"/>
<path d="M57.6825 47.8896C57.8189 46.3987 57.9332 45.3452 57.9332 45.3452L57.6825 47.8896Z" fill="#3563B7"/>
<path d="M57.682 47.8955C56.0145 42.3102 56.8605 37.7351 56.8605 37.7351L57.9333 45.3444C57.9333 45.3444 57.819 46.3979 57.6826 47.8888L57.682 47.8955Z" fill="#111D23"/>
<path d="M55.5538 69.8932L55.6366 72.2507L57.2908 72.3887L57.3736 72.1681V69.7277L55.5538 69.8932" fill="#F89E63"/>
<path d="M54.7682 68.9978L54.9199 69.8801L57.7596 69.9492L57.939 68.8875L54.7682 68.9978" fill="#406FBF"/>
<path d="M68.5548 63.566L71.1879 61.1118L71.767 62.0356L69.506 64.1035L68.5548 63.566Z" fill="#406FBF"/>
<path d="M69.8228 63.5661L71.56 65.0273L72.6767 63.7176L71.25 62.2423L69.8228 63.5661Z" fill="#F89E63"/>
<path d="M73.0135 63.6148L74.0641 64.2618C74.2684 64.3877 74.31 64.6668 74.1508 64.8464C73.3884 65.7059 71.4436 67.8911 71.2501 68.0461C71.0087 68.2392 70.7192 67.9081 70.6503 67.6049C70.6503 67.6049 71.2016 66.8742 71.2501 66.4055C71.2854 66.0604 71.2687 65.559 71.2575 65.318C71.2531 65.227 71.284 65.1387 71.3432 65.0692L72.5174 63.693C72.6408 63.5481 72.8515 63.515 73.0135 63.6148" fill="#17282F"/>
<path d="M57.695 72.4497L57.9135 73.6642C57.9559 73.9002 57.776 74.1176 57.5358 74.1187C56.387 74.1237 53.4614 74.1324 53.217 74.0911C52.9122 74.0401 52.9657 73.6037 53.1459 73.35C53.1459 73.35 54.0579 73.2739 54.4395 72.9969C54.7201 72.7935 55.0827 72.4466 55.2546 72.2774C55.3196 72.2134 55.4059 72.1774 55.497 72.1752L57.3057 72.1322C57.4962 72.1277 57.6612 72.2626 57.695 72.4497Z" fill="#17282F"/>
<path d="M61.8739 26.0319L64.3948 24.262C64.3948 24.262 63.7244 21.58 62.7322 21.4459C61.7399 21.3117 56.8052 20.3732 53.6674 21.4459C53.6674 21.4459 52.5408 21.7679 52.1924 24.9324L53.5332 25.3615C53.5332 25.3615 54.016 31.2884 54.3109 32.2002H61.4715C61.4715 32.2002 61.5521 27.1047 61.8739 26.0319" fill="#146BA2"/>
<path d="M62.4183 25.6496C62.4183 25.6496 63.3727 28.377 63.5434 29.8425C63.5434 29.8425 61.2721 28.9389 60.6859 28.5236L60.2431 26.9278L58.732 26.2035L58.2934 27.4001L59.538 28.9632C59.538 28.9632 62.9566 32.1627 64.6912 31.43C66.4256 30.6974 64.005 24.5355 64.005 24.5355L62.4183 25.6496Z" fill="#F89E63"/>
<path d="M56.0039 13.708C56.0039 13.708 55.1308 15.4543 55.2035 16.8731C55.2762 18.2922 55.9857 18.8742 57.35 19.0743C57.35 19.0743 57.9321 20.8934 56.4042 21.0754C56.2879 21.0891 56.2461 21.5527 56.2559 21.6268C56.2955 21.9226 56.5882 22.0832 56.8525 22.1522C57.1359 22.2262 57.4372 22.2393 57.7283 22.2488C58.3824 22.2702 58.9212 22.006 59.3575 21.5238C59.391 21.4868 59.6968 21.0935 59.6966 21.0935C59.6964 21.0935 58.9686 20.7324 59.2237 18.3649C59.2237 18.3649 59.7148 18.092 59.9877 17.4189C59.9877 17.4189 60.4608 17.1824 60.5699 16.7095C60.679 16.2364 60.2604 15.5817 59.4964 16.2364C59.4964 16.2364 58.0594 15.5088 57.5138 12.9622C57.5138 12.9622 56.9498 13.5989 56.0039 13.708" fill="#F89E63"/>
<path d="M56.7871 17.2459C56.7899 17.2461 56.8661 17.2578 56.9808 17.2578C57.1012 17.2576 57.2642 17.2451 57.4303 17.1918C57.5959 17.1384 57.7662 17.0427 57.891 16.8754C57.9161 16.8419 57.9092 16.7946 57.8759 16.7694C57.8424 16.7443 57.7949 16.7512 57.7698 16.7847C57.6682 16.9205 57.5287 17.0007 57.3836 17.0475C57.239 17.0944 57.0905 17.1063 56.9808 17.1063C56.9285 17.1063 56.8851 17.1037 56.8552 17.1011L56.8208 17.0974L56.8099 17.096C56.7687 17.0895 56.7299 17.118 56.7237 17.1594C56.7174 17.2009 56.7457 17.2394 56.7871 17.2459" fill="#171717"/>
<path d="M57.5322 14.3409L57.5201 14.3096L57.5316 14.3411L57.5322 14.3409L57.5201 14.3096L57.5316 14.3411C57.5342 14.3401 57.6116 14.3122 57.7298 14.3122C57.8819 14.313 58.099 14.3552 58.3309 14.5631C58.3726 14.6003 58.4364 14.5968 58.4736 14.5554C58.5109 14.5138 58.5075 14.45 58.4661 14.4128C58.1964 14.1696 57.9211 14.1096 57.7298 14.1102C57.5704 14.1104 57.4676 14.1492 57.4595 14.1524C57.4074 14.1724 57.3815 14.231 57.4015 14.2829C57.4217 14.335 57.4801 14.3609 57.5322 14.3409" fill="#171717"/>
<path d="M56.3054 13.9435C56.3016 13.9431 56.2475 13.9346 56.1681 13.9344C56.0954 13.9346 56.0012 13.9415 55.9039 13.9706C55.8071 13.9995 55.7047 14.0522 55.6277 14.147C55.5926 14.1902 55.5992 14.2538 55.6425 14.289C55.6859 14.3241 55.7495 14.3174 55.7847 14.2742C55.8283 14.2201 55.8909 14.1853 55.9618 14.1639C56.0323 14.1427 56.1087 14.1364 56.1681 14.1364C56.2006 14.1364 56.2281 14.1383 56.2469 14.1401L56.2681 14.1423L56.2739 14.1431C56.3291 14.1518 56.3808 14.1142 56.3895 14.0591C56.3982 14.0039 56.3606 13.9522 56.3054 13.9435" fill="#171717"/>
<path d="M57.7762 15.4744C57.7581 15.615 57.6674 15.719 57.5738 15.7071C57.4801 15.6948 57.4191 15.5707 57.4373 15.4301C57.4557 15.2895 57.5464 15.1853 57.6401 15.1974C57.7336 15.2098 57.7946 15.3336 57.7762 15.4744" fill="#171717"/>
<path d="M56.1675 15.1658C56.1493 15.3063 56.0586 15.4106 55.9649 15.3985C55.8712 15.3861 55.8102 15.2623 55.8283 15.1217C55.8467 14.9809 55.9374 14.8767 56.0311 14.889C56.1247 14.9011 56.1857 15.025 56.1675 15.1658" fill="#171717"/>
<path d="M57.6402 15.1976L57.3214 15.0588C57.3214 15.0588 57.3869 15.3462 57.6402 15.1976Z" fill="#171717"/>
<path d="M56.0575 14.8987L55.739 14.7598C55.739 14.7598 55.8044 15.0474 56.0575 14.8987Z" fill="#171717"/>
<path d="M54.062 31.885V32.7271L61.8172 32.793L61.6106 31.7896L54.062 31.885Z" fill="#406FBF"/>
<path d="M61.8172 32.793L61.6457 32.7914L54.3452 32.7295L54.062 32.7271V31.885L61.6106 31.7896L61.8172 32.793" fill="#7DA6DD"/>
<path d="M54.1561 27.795L49.8911 42.6356C49.5899 43.6846 48.6841 44.3946 47.6646 44.4965C47.3473 44.5274 47.0184 44.5011 46.691 44.4076L38.5289 42.0621C37.1567 41.6664 36.3633 40.2338 36.757 38.862L41.0232 24.0192C41.2527 23.2253 41.8276 22.6244 42.5409 22.3367C43.0568 22.1273 43.6452 22.0828 44.2237 22.2491L52.3854 24.5927C53.7578 24.9882 54.5512 26.4208 54.1561 27.795" fill="#406FBF"/>
<path d="M47.6647 44.498C48.3758 44.2108 48.9527 43.6094 49.1815 42.8138L53.4464 27.9732C53.5151 27.7342 53.5478 27.4936 53.5478 27.2569C53.5482 26.1321 52.8095 25.0977 51.6758 24.7708L43.5142 22.4272C43.2734 22.3583 43.0314 22.326 42.7941 22.326C42.709 22.326 42.6246 22.3301 42.541 22.3383C41.8277 22.626 41.2528 23.2269 41.0233 24.0208L36.7571 38.8636C36.6886 39.1022 36.6561 39.3424 36.6561 39.5787C36.6561 39.3424 36.6886 39.1022 36.7571 38.8636L41.0233 24.0208C41.2528 23.2269 41.8277 22.626 42.541 22.3383C42.8438 22.2153 43.1716 22.1493 43.5075 22.1493C43.7441 22.1493 43.9849 22.182 44.2238 22.2507L52.3855 24.5943C53.5193 24.9211 54.258 25.9558 54.2576 27.0805C54.2576 27.3171 54.2249 27.5578 54.1562 27.7966L53.8528 28.8519L49.8912 42.6372C49.59 43.6862 48.6842 44.3962 47.6647 44.498" fill="#3563B7"/>
<path d="M53.4463 27.9716L49.1814 42.8122C48.9526 43.6078 48.3756 44.2092 47.6646 44.4965C47.3473 44.5274 47.0184 44.5011 46.691 44.4076L38.5289 42.0621C37.1567 41.6664 36.3633 40.2338 36.757 38.862L41.0232 24.0192C41.2527 23.2253 41.8276 22.6244 42.5409 22.3367C42.8576 22.3056 43.1871 22.3321 43.5141 22.4256L51.6757 24.7692C53.0479 25.1648 53.8414 26.5973 53.4463 27.9716" fill="#406FBF"/>
<path d="M47.4116 44.5088C47.1741 44.5088 46.9321 44.4765 46.6911 44.4076L38.529 42.0622C37.3954 41.7351 36.6567 40.7007 36.6561 39.5771C36.6561 39.3408 36.6886 39.1006 36.7571 38.8621L41.0233 24.0192C41.2528 23.2254 41.8277 22.6244 42.541 22.3368C42.6246 22.3285 42.709 22.3244 42.7941 22.3244C43.0314 22.3244 43.2734 22.3568 43.5142 22.4256L51.6758 24.7693C52.8095 25.0961 53.5482 26.1305 53.5478 27.2553C53.5478 27.492 53.5151 27.7326 53.4464 27.9716L49.1815 42.8122C48.9527 43.6079 48.3758 44.2092 47.6647 44.4965C47.5811 44.5047 47.4966 44.5088 47.4116 44.5088M48.7093 31.1688L45.5681 42.3169L46.4416 42.5629L49.5827 31.4151L48.7093 31.1688Z" fill="#8CB3E3"/>
<path d="M38.8385 40.3789L37.9648 40.1327L41.1059 28.9848L41.9794 29.2309L38.8385 40.3789Z" fill="#FAFAF9"/>
<path d="M40.0885 40.7354L39.2162 40.4847L42.3566 29.3393L43.2288 29.5899L40.0885 40.7354Z" fill="#FAFAF9"/>
<path d="M41.3575 41.1006L40.4853 40.8499L43.6256 29.7045L44.4978 29.9552L41.3575 41.1006" fill="#FAFAF9"/>
<path d="M46.4414 42.5645L45.5679 42.3184L48.709 31.1704L49.5825 31.4166L46.4414 42.5645Z" fill="#415981"/>
<path d="M49.468 28.2653L49.0337 29.7783L48.5166 29.6329C47.9954 29.4854 47.6924 28.9441 47.8378 28.4229L48.1207 27.4189L49.165 27.7179C49.3993 27.7866 49.5347 28.031 49.468 28.2653" fill="#FAFAF9"/>
<path d="M49.2195 27.5232L48.1752 27.2242L48.4883 26.1172C48.6337 25.5961 49.1771 25.2931 49.6983 25.4385L50.2356 25.59L49.7669 27.2201C49.7003 27.4565 49.4559 27.5918 49.2195 27.5232" fill="#FAFAF9"/>
<path d="M50.2093 28.0188L51.2597 28.3198L50.981 29.3076C50.8355 29.8287 50.2942 30.1338 49.773 29.9863L49.2276 29.8328L49.6619 28.3218C49.7286 28.0875 49.973 27.9521 50.2093 28.0188" fill="#FAFAF9"/>
<path d="M51.6314 27.0028L51.3142 28.126L50.2638 27.825C50.0295 27.7563 49.8941 27.5119 49.9608 27.2776L50.4295 25.6474L50.9526 25.7949C51.4738 25.9403 51.7768 26.4817 51.6314 27.0028" fill="#FAFAF9"/>
</svg>
