<svg width="96" height="96" viewBox="0 0 96 96" fill="none" xmlns="http://www.w3.org/2000/svg">
<path d="M40.648 95.2141C39.1491 95.2141 37.6733 95.1543 36.2245 95.0347C30.7684 94.5856 19.7913 93.6813 11.2203 85.6155C10.9229 85.3358 10.6311 85.0496 10.3461 84.7589C18.1953 90.5497 29.4217 94.0607 41.2218 95.211C41.0306 95.213 40.8383 95.2141 40.648 95.2141M71.5348 70.6995L64.6286 70.5717C67.1105 69.5977 69.4076 68.5574 71.5348 67.4572V70.6995M63.3791 70.5488L25.4342 69.8484V60.664C26.6382 60.425 27.826 60.0343 28.9685 59.4871C32.5243 57.7845 35.6285 54.6929 35.6285 49.0886C35.6285 47.3802 35.5684 45.9253 35.4523 44.6684H67.4686C64.6088 57.6346 63.5878 68.1437 63.3791 70.5488ZM7.07361 69.5092L2.10646 69.4177C2.09357 69.4173 2.08082 69.4173 2.06806 69.4173C1.96801 69.4173 1.87 69.4245 1.77493 69.4385C-0.956529 59.7391 -0.468536 48.4647 2.77847 38.0259C2.77233 39.5618 2.59514 41.0916 2.3314 42.6289C1.51405 47.3939 -0.1235 52.5665 0.560439 57.0724C1.59133 63.8636 4.36991 67.2964 7.07361 69.0228V69.5092M89.895 67.6584V51.4702C92.5263 47.3123 94.1311 42.9522 94.9891 38.5919C96.0715 47.3314 94.8261 56.5157 91.3696 64.5562C90.9126 65.6195 90.4209 66.6526 89.895 67.6584M13.1334 29.2291C12.933 28.9283 12.7233 28.6377 12.5034 28.3581C11.4018 26.9579 9.99876 25.7609 8.55477 25.0578C9.90539 22.8112 11.4067 20.675 13.0523 18.6842C13.3732 18.2961 13.9951 17.5575 14.9005 16.5904C15.4888 18.3336 15.8332 20.1287 15.703 21.9818C15.5716 23.8526 15.0081 25.5706 14.2203 27.2116C13.8921 27.8957 13.5246 28.5661 13.1334 29.2291M74.6694 20.2877L48.4259 0.296029L25.6487 17.6932C25.8629 15.2366 26.0712 12.8113 25.7853 10.5953C25.6737 9.72917 25.4165 8.86981 25.0421 8.03569C31.4167 3.82212 40.0856 2.56336e-05 50.5793 2.56336e-05C50.7245 2.56336e-05 50.8693 0.00070633 51.0148 0.00207039C65.9845 0.152799 76.7851 8.02342 79.2581 9.97402C77.5599 13.2948 76.0369 16.7622 74.6694 20.2877" fill="url(#paint0_linear_302_299)"/>
<path d="M0.33101 71.4562C9.5722 101.746 82.5141 104.193 95.6748 75.292C96.5771 73.3115 94.984 71.1345 92.6004 71.0904L2.10641 69.4199C0.906742 69.3978 0.0140962 70.4173 0.33101 71.4562" fill="#BDD0FB" fill-opacity="0.5"/>
<path d="M63.3355 71.0684C63.3355 71.0684 66.5827 27.7235 84.1041 1.69413C85.2826 -0.0554087 88.0153 0.136951 88.9191 2.03916C94.9631 14.76 109.066 53.9857 63.3355 71.0684Z" fill="#BDD0FB" fill-opacity="0.5"/>
<path d="M67.3172 67.9025C67.2295 67.9025 67.1518 67.8041 67.2188 67.717C68.7742 65.7043 70.2099 63.5796 71.5347 61.3814V62.8802C69.7852 65.3126 68.3056 66.9772 67.4017 67.8659C67.3754 67.8919 67.346 67.9025 67.3172 67.9025ZM80.1407 46.9355H78.5002C83.8935 32.9468 85.965 19.282 86.5782 14.3723C86.5838 14.3254 86.6208 14.3034 86.6584 14.3034C86.7022 14.3034 86.7467 14.3329 86.7448 14.388C86.2932 27.6475 83.5095 38.508 80.1407 46.9355Z" fill="#DEE8FD"/>
<path d="M14.2203 27.2141C15.008 25.5725 15.5715 23.8548 15.7029 21.9846C16.0341 17.2712 13.2942 12.9309 11.2814 8.87265C9.43144 5.14302 8.05652 -0.414453 14.2987 0.0798183C19.2718 0.47414 25.1183 5.42986 25.7853 10.5978C26.5746 16.7146 23.5971 24.4278 27.1272 29.9833C32.0661 37.7561 35.6284 35.9748 35.6284 49.0911C35.6284 54.6954 32.5242 57.787 28.9684 59.4896C23.3563 62.1771 16.6642 61.0914 12.1927 56.7638C8.24239 52.941 5.89357 47.4449 6.68796 41.9279C7.4903 36.3547 11.861 32.1288 14.2203 27.2141Z" fill="#BDD0FB" fill-opacity="0.5"/>
<path d="M18.3928 69.3831C18.4708 69.3831 18.5417 69.3301 18.5616 69.2512C21.6554 56.9022 23.3392 45.708 23.567 35.9799C23.749 28.1897 23.0031 21.3149 21.3497 15.5464C18.5256 5.69391 14.0962 2.52926 13.909 2.39973C13.8301 2.34499 13.7217 2.36435 13.6669 2.44313C13.6121 2.52191 13.6315 2.63073 13.7103 2.68548C13.7553 2.71686 18.2432 5.9336 21.0283 15.688C23.6022 24.7039 25.205 41.3004 18.2239 69.1665C18.2005 69.2597 18.2572 69.3543 18.3504 69.3776C18.3646 69.3813 18.3788 69.3831 18.3928 69.3831" fill="#7D97F4"/>
<path d="M9.26509 13.3848C9.50557 13.32 9.7697 13.2996 10.051 13.332C11.6067 13.5109 12.2456 15.1513 12.7026 16.4339C13.0941 17.5327 13.5553 18.8657 13.3241 20.0563C13.0742 21.3425 11.7079 22.392 10.7164 21.0861C9.58945 19.6006 7.89837 17.3213 7.88816 15.3531C7.88299 14.3755 8.43216 13.6112 9.26509 13.3848" fill="#BDD0FB" fill-opacity="0.5"/>
<path d="M0.560526 57.0738C-0.123422 52.5681 1.5141 47.3953 2.33145 42.6307C2.76361 40.1112 2.96346 37.6113 2.55885 35.0733C2.15659 32.5499 0.970863 29.8209 2.06411 27.3068C4.26698 22.2416 9.50374 24.5467 12.5035 28.3598C15.9844 32.784 16.9361 40.0146 18.2582 45.5824C19.0551 48.9388 20.256 52.382 20.6764 55.8018C21.3728 61.4681 20.0917 65.4019 17.3813 68.0584C14.7816 70.6063 10.8222 71.1347 7.64193 69.3638C4.76903 67.7637 1.66381 64.3425 0.560526 57.0738" fill="#91B3FA" fill-opacity="0.5"/>
<path d="M12.5408 77.9785C12.5312 77.9785 12.5216 77.9779 12.5118 77.9761C12.4178 77.9604 12.3543 77.8713 12.3702 77.777C12.3816 77.709 13.516 70.8612 13.5452 61.406C13.5721 52.6848 12.6375 39.8986 8.03193 28.5109C7.99617 28.4223 8.03885 28.3216 8.12737 28.286C8.21568 28.2504 8.31651 28.2931 8.35238 28.3816C12.9797 39.8233 13.9183 52.6599 13.8907 61.4139C13.8609 70.8957 12.7225 77.7661 12.711 77.8344C12.6968 77.9191 12.6236 77.9785 12.5408 77.9785" fill="#7D97F4"/>
<path d="M89.1969 82.3453H71.5353V46.9355H89.8955V81.6465C89.8955 82.0324 89.583 82.3453 89.1969 82.3453" fill="#7D97F4"/>
<path d="M85.9766 72.7285H75.5622C75.541 72.7285 75.5236 72.7115 75.5236 72.6903V56.5922C75.5236 56.571 75.541 56.554 75.5622 56.554H85.9766C85.9984 56.554 86.0152 56.571 86.0152 56.5922V72.6903C86.0152 72.7115 85.9984 72.7285 85.9766 72.7285M81.1979 57.428C81.1861 57.428 81.1768 57.4375 81.1768 57.4495V71.833C81.1768 71.8446 81.1861 71.8542 81.1979 71.8542H85.2291C85.2403 71.8542 85.2503 71.8446 85.2503 71.833V57.4495C85.2503 57.4375 85.2403 57.428 85.2291 57.428H81.1979ZM76.3103 57.428C76.2979 57.428 76.2886 57.4375 76.2886 57.4495V71.833C76.2886 71.8446 76.2979 71.8542 76.3103 71.8542H80.3409C80.3527 71.8542 80.3621 71.8446 80.3621 71.833V57.4495C80.3621 57.4375 80.3527 57.428 80.3409 57.428H76.3103Z" fill="#CAD5FA"/>
<path d="M85.2293 71.8542H81.1983C81.1866 71.8542 81.1773 71.8446 81.1773 71.833V57.4494C81.1773 57.4375 81.1866 57.4279 81.1983 57.4279H85.2293C85.2411 57.4279 85.2503 57.4375 85.2503 57.4494V71.833C85.2503 71.8446 85.2411 71.8542 85.2293 71.8542" fill="#7D97F4"/>
<path d="M80.3414 71.8542H76.3106C76.2983 71.8542 76.2889 71.8446 76.2889 71.833V57.4494C76.2889 57.4374 76.2983 57.4279 76.3106 57.4279H80.3414C80.3531 57.4279 80.3625 57.4374 80.3625 57.4494V71.833C80.3625 71.8446 80.3531 71.8542 80.3414 71.8542Z" fill="#7D97F4"/>
<path d="M93.3519 49.7314H70.6631L69.7371 33.3988L88.4944 33.0435L94.2456 48.3315C94.5492 48.9844 94.072 49.7314 93.3519 49.7314" fill="#006BA4"/>
<path d="M88.5713 33.7939L70.5416 33.5923L70.6551 31.7673L87.5067 31.8956C88.1573 31.9364 88.6536 32.4645 88.616 33.0756L88.5713 33.7939" fill="#036092"/>
<path d="M7.83571 82.2231H25.4344V46.8138H7.07367V81.4612C7.07367 81.882 7.41485 82.2231 7.83571 82.2231Z" fill="#7D97F4"/>
<path d="M21.4069 72.6052H10.9918C10.9706 72.6052 10.9534 72.5881 10.9534 72.5669V56.4688C10.9534 56.4477 10.9706 56.4306 10.9918 56.4306H21.4069C21.4281 56.4306 21.4452 56.4477 21.4452 56.4688V72.5669C21.4452 72.5881 21.4281 72.6052 21.4069 72.6052ZM16.628 57.3049C16.6162 57.3049 16.6066 57.3145 16.6066 57.3261V71.7096C16.6066 71.7213 16.6162 71.7308 16.628 71.7308H20.6589C20.6705 71.7308 20.6801 71.7213 20.6801 71.7096V57.3261C20.6801 57.3145 20.6705 57.3049 20.6589 57.3049H16.628ZM11.7398 57.3049C11.728 57.3049 11.7184 57.3145 11.7184 57.3261V71.7096C11.7184 71.7213 11.728 71.7308 11.7398 71.7308H15.7706C15.7824 71.7308 15.7919 71.7213 15.7919 71.7096V57.3261C15.7919 57.3145 15.7824 57.3049 15.7706 57.3049H11.7398Z" fill="#CAD5FA"/>
<path d="M15.7707 71.731H11.7398C11.728 71.731 11.7184 71.7215 11.7184 71.7098V57.3263C11.7184 57.3147 11.728 57.3051 11.7398 57.3051H15.7707C15.7824 57.3051 15.792 57.3147 15.792 57.3263V71.7098C15.792 71.7215 15.7824 71.731 15.7707 71.731Z" fill="#7D97F4"/>
<path d="M20.6588 71.731H16.6278C16.616 71.731 16.6064 71.7215 16.6064 71.7098V57.3263C16.6064 57.3147 16.616 57.3051 16.6278 57.3051H20.6588C20.6704 57.3051 20.6799 57.3147 20.6799 57.3263V71.7098C20.6799 71.7215 20.6704 71.731 20.6588 71.731Z" fill="#7D97F4"/>
<path d="M3.6168 49.6108H26.306L27.2316 33.2783L8.47478 32.9226L2.72306 48.2114C2.42018 48.8638 2.89704 49.6108 3.6168 49.6108" fill="#006BA4"/>
<path d="M8.39788 33.6732L26.4275 33.4717L26.3142 31.6465L9.46281 31.7748C8.81215 31.8153 8.31542 32.3437 8.35329 32.9545L8.39788 33.6732" fill="#036092"/>
<path d="M22.8967 44.6708V80.9065C22.8967 82.4971 24.186 83.7864 25.7766 83.7864H72.9924C73.5012 83.7864 73.9136 83.3742 73.9136 82.8653V44.6708H22.8967Z" fill="#91B3FA"/>
<path d="M53.2419 81.2403H42.8302V61.051C42.8302 60.9841 42.8849 60.9294 42.9518 60.9294H53.1203C53.1876 60.9294 53.2419 60.9841 53.2419 61.051V81.2403" fill="#7D97F4"/>
<path d="M52.8493 80.4764H43.2232V61.8187C43.2232 61.7513 43.2772 61.6974 43.3446 61.6974H52.7276C52.7945 61.6974 52.8493 61.7513 52.8493 61.8187V80.4764Z" fill="#4F52FF"/>
<path d="M52.5071 59.5637H43.5658C43.1597 59.5637 42.8302 59.2346 42.8302 58.8285V58.1863C42.8302 57.8 43.1294 57.4797 43.5149 57.4532L52.4562 56.8316C52.8808 56.8021 53.2419 57.1392 53.2419 57.5651V58.8285C53.2419 59.2346 52.9128 59.5637 52.5071 59.5637" fill="#BDD0FB"/>
<path d="M53.1718 82.4991H43.0233C42.5629 82.4991 42.1888 82.1255 42.1888 81.6648V80.9359C42.1888 80.4974 42.5229 79.2849 42.9603 79.2545L53.1144 79.3983C53.5965 79.3648 54.0063 79.7474 54.0063 80.231V81.6648C54.0063 82.1255 53.6327 82.4991 53.1718 82.4991" fill="#BDD0FB"/>
<path d="M53.1986 84.0858H43.05C42.5894 84.0858 42.2156 83.7121 42.2156 83.2514V82.5226C42.2156 82.084 42.3118 81.2708 42.749 81.2404L53.1407 80.9849C53.6234 80.9515 54.033 81.334 54.033 81.8176V83.2514C54.033 83.7121 53.6596 84.0858 53.1986 84.0858" fill="#7D97F4"/>
<path d="M71.2037 79.378H56.5639C56.5049 79.378 56.4571 79.3302 56.4571 79.2707V55.7126C56.4571 55.6536 56.5049 55.6058 56.5639 55.6058H71.2037C71.2632 55.6058 71.3111 55.6536 71.3111 55.7126V79.2707C71.3111 79.3302 71.2632 79.378 71.2037 79.378Z" fill="white"/>
<path d="M70.3575 78.4984H57.3797C57.3244 78.4984 57.2797 78.4537 57.2797 78.3983V56.7013C57.2797 56.646 57.3244 56.6013 57.3797 56.6013H70.3575C70.4128 56.6013 70.4575 56.646 70.4575 56.7013V78.3983C70.4575 78.4537 70.4128 78.4984 70.3575 78.4984Z" fill="#7D97F4"/>
<path d="M63.9753 79.378H63.2199V56.3022H63.9753V79.378Z" fill="white"/>
<path d="M40.1813 79.3767H25.5416C25.4821 79.3767 25.4343 79.3289 25.4343 79.2695V55.7115C25.4343 55.6524 25.4821 55.6043 25.5416 55.6043H40.1813C40.2404 55.6043 40.2885 55.6524 40.2885 55.7115V79.2695C40.2885 79.3289 40.2404 79.3767 40.1813 79.3767Z" fill="white"/>
<path d="M39.3345 78.4987H26.3574C26.3021 78.4987 26.257 78.454 26.257 78.3986V56.7017C26.257 56.6464 26.3021 56.6016 26.3574 56.6016H39.3345C39.3899 56.6016 39.4349 56.6464 39.4349 56.7017V78.3986C39.4349 78.454 39.3899 78.4987 39.3345 78.4987Z" fill="#7D97F4"/>
<path d="M32.9525 79.3767H32.197V56.301H32.9525V79.3767Z" fill="white"/>
<path d="M74.5097 22.793L74.0759 22.466V22.0097H73.473L48.4046 3.06306L23.059 22.0097V44.6719H74.0759V25.1303L74.5097 22.793" fill="#91B3FA"/>
<path d="M63.8157 12.1351H59.5963V5.26407H63.8157V12.1351Z" fill="#7D97F4"/>
<path d="M65.2067 6.37836H58.3858V4.47638C58.3858 4.36161 58.4789 4.26848 58.5937 4.26848H64.8892C65.0644 4.26848 65.2067 4.41014 65.2067 4.58525V6.37836" fill="#006BA4"/>
<path d="M21.3538 25.6198L20.3049 23.0649C20.0679 22.488 20.2479 21.8241 20.7435 21.4453L22.1182 20.395L22.4334 20.1542L25.649 17.698L48.4262 0.300776L74.6703 20.293L77.0252 22.0867L76.6647 23.8498C76.5035 24.6396 75.8144 25.1266 75.0968 25.1266C74.7669 25.1266 74.4316 25.0246 74.1377 24.8015C74.133 24.7981 74.1282 24.794 74.1241 24.7906L48.4262 4.85754L23.0595 24.3117L22.7329 24.562L21.3538 25.6198" fill="#006BA4"/>
<path d="M53.413 41.3132H42.9985C42.9774 41.3132 42.96 41.2958 42.96 41.2742V25.1761C42.96 25.155 42.9774 25.1381 42.9985 25.1381H53.413C53.4346 25.1381 53.452 25.155 53.452 25.1761V41.2742C53.452 41.2958 53.4346 41.3132 53.413 41.3132ZM48.6346 26.0121C48.623 26.0121 48.6135 26.0222 48.6135 26.0338V40.417C48.6135 40.4291 48.623 40.4386 48.6346 40.4386H52.6651C52.6772 40.4386 52.6867 40.4291 52.6867 40.417V26.0338C52.6867 26.0222 52.6772 26.0121 52.6651 26.0121H48.6346ZM43.7464 26.0121C43.7348 26.0121 43.7253 26.0222 43.7253 26.0338V40.417C43.7253 40.4291 43.7348 40.4386 43.7464 40.4386H47.7769C47.789 40.4386 47.7985 40.4291 47.7985 40.417V26.0338C47.7985 26.0222 47.789 26.0121 47.7769 26.0121H43.7464Z" fill="#F3F7FE"/>
<path d="M47.7768 40.4387H43.746C43.7345 40.4387 43.7251 40.4293 43.7251 40.4173V26.034C43.7251 26.022 43.7345 26.0126 43.746 26.0126H47.7768C47.7888 26.0126 47.7987 26.022 47.7987 26.034V40.4173C47.7987 40.4293 47.7888 40.4387 47.7768 40.4387Z" fill="#7F9AF5"/>
<path d="M52.6648 40.4387H48.634C48.6225 40.4387 48.6131 40.4293 48.6131 40.4173V26.034C48.6131 26.022 48.6225 26.0126 48.634 26.0126H52.6648C52.6768 26.0126 52.6867 26.022 52.6867 26.034V40.4173C52.6867 40.4293 52.6768 40.4387 52.6648 40.4387Z" fill="#7F9AF5"/>
<path d="M38.6894 41.4269H28.2744C28.2532 41.4269 28.2361 41.41 28.2361 41.3889V25.2907C28.2361 25.2696 28.2532 25.2522 28.2744 25.2522H38.6894C38.7105 25.2522 38.7279 25.2696 38.7279 25.2907V41.3889C38.7279 41.41 38.7105 41.4269 38.6894 41.4269ZM33.9104 26.1267C33.8988 26.1267 33.8892 26.1362 33.8892 26.1483V40.5313C33.8892 40.5429 33.8988 40.5529 33.9104 40.5529H37.9414C37.953 40.5529 37.9625 40.5429 37.9625 40.5313V26.1483C37.9625 26.1362 37.953 26.1267 37.9414 26.1267H33.9104M29.0223 26.1267C29.0104 26.1267 29.0008 26.1362 29.0008 26.1483V40.5313C29.0008 40.5429 29.0104 40.5529 29.0223 40.5529H33.0532C33.0648 40.5529 33.0743 40.5429 33.0743 40.5313V26.1483C33.0743 26.1362 33.0648 26.1267 33.0532 26.1267H29.0223Z" fill="#F3F7FE"/>
<path d="M33.0533 40.5511H29.0224C29.0105 40.5511 29.0009 40.5418 29.0009 40.5298V26.1464C29.0009 26.1344 29.0105 26.125 29.0224 26.125H33.0533C33.0648 26.125 33.0744 26.1344 33.0744 26.1464V40.5298C33.0744 40.5418 33.0648 40.5511 33.0533 40.5511Z" fill="#7F9AF5"/>
<path d="M37.9414 40.5511H33.9106C33.899 40.5511 33.8894 40.5418 33.8894 40.5298V26.1464C33.8894 26.1344 33.899 26.125 33.9106 26.125H37.9414C37.9534 26.125 37.9628 26.1344 37.9628 26.1464V40.5298C37.9628 40.5418 37.9534 40.5511 37.9414 40.5511" fill="#7F9AF5"/>
<path d="M67.499 41.5729H57.084C57.0629 41.5729 57.0455 41.5555 57.0455 41.5339V25.4362C57.0455 25.4151 57.0629 25.3977 57.084 25.3977H67.499C67.5201 25.3977 67.5374 25.4151 67.5374 25.4362V41.5339C67.5374 41.5555 67.5201 41.5729 67.499 41.5729ZM62.7198 26.2723C62.7083 26.2723 62.6988 26.2818 62.6988 26.2934V40.6772C62.6988 40.6888 62.7083 40.6983 62.7198 40.6983H66.7507C66.7628 40.6983 66.7723 40.6888 66.7723 40.6772V26.2934C66.7723 26.2818 66.7628 26.2723 66.7507 26.2723H62.7198ZM57.8317 26.2723C57.8201 26.2723 57.8107 26.2818 57.8107 26.2934V40.6772C57.8107 40.6888 57.8201 40.6983 57.8317 40.6983H61.8626C61.8742 40.6983 61.8842 40.6888 61.8842 40.6772V26.2934C61.8842 26.2818 61.8742 26.2723 61.8626 26.2723H57.8317Z" fill="#F3F7FE"/>
<path d="M61.8629 40.6984H57.8319C57.82 40.6984 57.8106 40.689 57.8106 40.6771V26.2935C57.8106 26.2815 57.82 26.2722 57.8319 26.2722H61.8629C61.8743 26.2722 61.8837 26.2815 61.8837 26.2935V40.6771C61.8837 40.689 61.8743 40.6984 61.8629 40.6984Z" fill="#7F9AF5"/>
<path d="M66.7507 40.6984H62.7197C62.7083 40.6984 62.6989 40.689 62.6989 40.6771V26.2935C62.6989 26.2815 62.7083 26.2722 62.7197 26.2722H66.7507C66.7626 26.2722 66.7725 26.2815 66.7725 26.2935V40.6771C66.7725 40.689 66.7626 40.6984 66.7507 40.6984Z" fill="#7F9AF5"/>
<path d="M75.095 47.1279H21.7153C21.5661 47.1279 21.4452 47.0072 21.4452 46.8574V44.4764C21.4452 44.3273 21.5661 44.2065 21.7153 44.2065H75.095C75.2442 44.2065 75.3649 44.3273 75.3649 44.4764V46.8574C75.3649 47.0072 75.2442 47.1279 75.095 47.1279Z" fill="#7D97F4"/>
<path d="M74.5609 94.8915C74.5603 94.8625 74.5621 94.8328 74.5696 94.8031C75.0111 93.0544 77.2004 91.9652 77.2004 91.9652L78.0679 92.0332C78.5664 93.5745 78.5025 94.5199 78.4225 94.9407C78.4202 94.9526 78.4168 94.9639 78.4133 94.9752C77.6978 95.0394 76.2246 95.0811 74.5609 94.8915Z" fill="#006BA4"/>
<path d="M78.4141 94.9745C78.3756 95.1153 78.2715 95.2249 78.1386 95.2526C77.1209 95.4667 75.5027 95.2946 74.8233 95.2058C74.6737 95.186 74.5638 95.0473 74.5615 94.8909C76.2258 95.0804 77.6985 95.0387 78.4141 94.9745" fill="#7D97F4"/>
<path d="M78.4166 90.7399L78.049 92.5087C78.0226 92.6382 77.923 92.7352 77.8022 92.7465C77.6544 92.7604 77.4444 92.7687 77.2327 92.7375C77.0434 92.7096 76.9117 92.5169 76.9451 92.3103L77.2005 90.7399H78.4166Z" fill="url(#paint1_linear_302_299)"/>
<path d="M70.8039 94.9539C71.7624 94.9269 72.2578 94.8142 72.5139 94.7094C72.5144 94.8047 72.5139 94.9017 72.5112 95.002C72.5074 95.1093 72.4282 95.195 72.3306 95.1943L67.0697 95.1605C66.9021 95.1595 66.8034 94.9648 66.8762 94.8108C67.5662 94.8679 69.3231 94.9952 70.8039 94.9539" fill="#7D97F4"/>
<path d="M66.8763 94.8096C66.8827 94.7963 66.8881 94.7827 66.8967 94.77C67.362 94.1208 68.5447 92.828 70.8832 92.2676L72.005 92.232C72.005 92.232 72.5042 93.1003 72.5139 94.7082C72.2579 94.8131 71.7625 94.9258 70.804 94.9528C69.3231 94.9941 67.5663 94.8667 66.8763 94.8096" fill="#006BA4"/>
<path d="M72.263 90.5852C72.2452 90.6682 72.0119 91.9265 71.9216 92.4145C71.9001 92.5307 71.8098 92.6157 71.7023 92.6218C71.5104 92.6324 71.2002 92.6338 70.9342 92.5614C70.7901 92.5224 70.6933 92.3759 70.7041 92.2133L70.8293 90.2225L72.263 90.5852" fill="url(#paint2_linear_302_299)"/>
<path d="M73.1129 67.3482C73.1129 67.3482 71.5699 77.9513 70.4561 90.5684C70.4356 90.8034 70.6227 91.008 70.8538 91.0565C71.1939 91.1282 71.6942 91.2132 72.1083 91.2016C72.3288 91.1955 72.5135 91.0316 72.5511 90.8137C72.9299 88.5892 75.6371 76.6497 76.3474 74.0219C76.3474 74.0219 77.1632 85.1841 76.9028 90.9749C76.8963 91.119 77.0013 91.244 77.145 91.2604C77.362 91.2857 77.7098 91.3044 78.152 91.2576C78.3197 91.2399 78.4552 91.1128 78.4792 90.9458C78.749 89.0629 80.3044 77.856 80.2381 69.783C80.2346 69.3278 79.7044 65.5873 79.7044 65.5873L73.1129 67.3482" fill="#17282F"/>
<path d="M72.5151 49.5153L72.3086 55.0635C71.7216 55.2657 71.1631 55.4226 70.631 55.5401C70.2984 54.4684 69.5658 53.1541 68.9658 52.1762C71.1701 51.3972 72.5151 49.5153 72.5151 49.5153Z" fill="#015C8D"/>
<path d="M79.9359 67.9555C80.0945 67.8991 80.2049 67.7554 80.2225 67.588C80.4276 65.5972 81.421 53.254 75.149 48.1765C75.149 48.1765 74.7889 47.2353 71.8326 49.5489C68.8758 51.8618 70.4585 54.2868 71.167 57.6312C72.0236 61.6784 73.5264 64.9865 72.8613 67.477C72.8155 67.6488 72.9054 67.8295 73.0728 67.8909C75.3693 68.7373 77.657 68.7653 79.9359 67.9555" fill="#006BA4"/>
<path d="M72.7028 44.4797C72.7045 44.6553 75.2092 48.2129 75.2092 48.2129C75.2092 48.2129 74.7597 49.0985 72.6133 49.8175L70.7609 46.0082L72.7028 44.4797" fill="url(#paint3_linear_302_299)"/>
<path d="M73.9436 56.6524C73.9589 56.6524 73.9747 56.648 73.9889 56.6384C75.9896 55.2866 76.9308 53.1047 76.9398 53.0826C76.9579 53.0407 76.9381 52.9937 76.8968 52.9761C76.8554 52.9586 76.8079 52.9773 76.7903 53.0192C76.7813 53.0407 75.8576 55.1793 73.8977 56.5035C73.8604 56.5288 73.8507 56.5793 73.8762 56.6165C73.8915 56.6398 73.9176 56.6524 73.9436 56.6524" fill="#015C8D"/>
<path d="M70.9628 53.6295C70.9892 53.6295 71.0156 53.6165 71.0313 53.5918C71.037 53.5828 71.6486 52.6314 72.813 50.5464C73.1708 49.9056 73.6414 49.4995 74.211 49.34C75.1551 49.0765 76.0645 49.5826 76.0735 49.5877C76.1128 49.609 76.1622 49.5961 76.1847 49.5573C76.2066 49.518 76.1931 49.468 76.1538 49.4461C76.1145 49.4236 75.1787 48.9002 74.1688 49.1832C73.5549 49.3546 73.0506 49.7865 72.6709 50.4672C71.5093 52.5465 70.9005 53.4947 70.8943 53.5042C70.8701 53.5418 70.8808 53.5918 70.9184 53.6165C70.9325 53.6255 70.9476 53.6295 70.9628 53.6295" fill="#015C8D"/>
<path d="M70.7304 42.4422C70.7304 42.4422 69.8387 44.4895 69.7788 45.5644C69.7193 46.6387 69.4878 47.3356 70.7304 47.5523C71.9724 47.7685 73.0192 47.1497 73.5863 46.0792C73.5863 46.0792 74.4747 44.4301 74.275 43.7547C74.0759 43.0792 70.7304 42.4422 70.7304 42.4422" fill="url(#paint4_linear_302_299)"/>
<path d="M73.162 45.3079L73.0914 45.2765C73.0013 45.2368 72.9627 45.1298 73.008 45.0425C73.1833 44.7037 73.5248 43.9283 73.0836 43.7469C72.5147 43.514 70.2623 43.0543 69.7763 42.2553C69.3094 41.4872 69.7231 40.4956 70.3452 40.214C70.3866 40.1949 70.4359 40.21 70.4571 40.2503L70.5092 40.3483C70.5445 40.4155 70.6436 40.4054 70.6649 40.3327C70.6856 40.2627 70.7785 40.2487 70.8166 40.3108C70.9666 40.5499 71.3698 40.9373 72.4481 41.1367C73.9811 41.4194 74.994 42.0392 75.0197 43.0985C75.0208 43.1657 75.0925 43.2032 75.1502 43.168C75.2633 43.0991 75.4441 43.0672 75.6865 43.2704C76.107 43.6243 75.9351 44.5425 75.0124 45.2978C74.9688 45.3336 74.9688 45.4025 75.0164 45.4327C75.1832 45.5419 75.4329 45.8011 74.7868 46.1466C74.1183 46.5038 73.6194 46.4741 73.4274 46.4428C73.3792 46.4349 73.3484 46.3885 73.3591 46.3409L73.564 45.4103C73.5757 45.3577 73.5354 45.3079 73.4817 45.3079H73.162" fill="#17282F"/>
<path d="M73.1235 45.5057C73.1235 45.5057 73.4632 44.1986 74.0497 44.5646C74.6362 44.9318 73.7452 46.0301 73.2741 46.079L73.1235 45.5057Z" fill="url(#paint5_linear_302_299)"/>
<path d="M61.5836 49.1011C61.5836 49.1011 62.0301 48.3097 62.0021 47.9244C61.9736 47.5396 62.2135 46.9748 61.9584 47.0166C61.7033 47.0584 61.6501 47.0242 61.5812 47.4859C61.5119 47.9477 60.7066 49.9643 61.5836 49.1011" fill="url(#paint6_linear_302_299)"/>
<path d="M61.4996 47.8406L61.5096 49.4226C64.5334 52.6875 66.9811 52.8795 68.9657 52.1779C69.5655 53.156 70.2982 54.4706 70.6311 55.542C62.5562 57.3218 60.6545 49.8985 60.6545 49.8985C59.5609 49.4459 59.3404 49.1805 59.3874 48.884L61.4996 47.8406" fill="url(#paint7_linear_302_299)"/>
<path d="M59.1735 46.2693C59.4316 46.1645 59.9367 45.2018 60.0332 45.5186C60.1301 45.8355 59.9926 46.2693 60.0332 46.404C60.0742 46.5391 60.7037 48.0884 60.5779 48.4327C60.487 48.6811 59.9875 48.6448 59.9111 49.0511C59.8859 49.1857 59.7783 49.2827 59.653 49.2827C59.5276 49.2827 59.42 49.1857 59.3948 49.0511C59.3846 48.997 58.9154 46.3741 59.1735 46.2693Z" fill="url(#paint8_linear_302_299)"/>
<path d="M58.4663 39.5824C59.3814 39.5678 60.1353 40.2976 60.1499 41.2127C60.164 42.1273 59.4348 42.8812 58.5197 42.8958C57.6046 42.9104 56.8511 42.1807 56.836 41.2656C56.8214 40.351 57.5517 39.597 58.4663 39.5824ZM50.3704 45.0408C50.4298 48.7133 52.8991 51.7814 56.2483 52.763L56.2609 53.5607L56.2906 55.4232L57.114 55.4101L57.1352 56.7351L56.3122 56.7487L56.3228 57.411L57.1458 57.3979L57.1578 58.1624L56.3349 58.176L56.3525 59.2463L56.7418 59.2402L56.764 60.6166L56.3747 60.6227L56.3843 61.2343L57.1412 61.222L57.1674 62.8638L56.4105 62.876L56.4311 64.1398L57.254 64.1265L57.2757 65.4772L56.4523 65.4906L56.4774 67.063C56.481 67.2488 56.5515 67.4267 56.6764 67.564L58.701 69.785C58.8924 69.9951 59.1784 70.0757 59.4418 70.0122H59.4428C59.468 70.006 59.4922 69.9985 59.5164 69.99C59.5229 69.9879 59.5289 69.9855 59.5355 69.9828C59.5541 69.9756 59.5728 69.9678 59.5914 69.9589C59.5984 69.9558 59.605 69.9527 59.612 69.949C59.6357 69.9367 59.6594 69.9237 59.6826 69.9083L61.0152 69.0323C61.2332 68.8892 61.3627 68.6443 61.3586 68.3837L61.1063 52.6844C64.4222 51.5966 66.7923 48.4504 66.7334 44.7779C66.6604 40.2593 62.939 36.6553 58.4205 36.7278C53.9024 36.8003 50.2984 40.5222 50.3704 45.0408" fill="url(#paint9_linear_302_299)"/>
<path d="M55.6829 48.0236L55.8021 55.4659L56.6252 55.4528L56.6462 56.7781L55.8236 56.7912L55.8339 57.4539L56.657 57.4408L56.6691 58.2054L55.8465 58.2185L55.8634 59.2889L56.2529 59.2829L56.2754 60.6587L55.8858 60.6652L55.8952 61.2769L56.6523 61.2648L56.6785 62.9067L55.9218 62.9184L55.9419 64.1825L56.765 64.1694L56.7865 65.52L55.9635 65.5333L55.9887 67.1058C55.992 67.2913 56.0626 67.4695 56.1875 67.6065L58.2124 69.8278C58.4645 70.1045 58.8807 70.1567 59.1936 69.9511L60.5264 69.0751C60.7443 68.9317 60.8738 68.6871 60.8696 68.4262L60.5657 49.4747L55.6829 48.0236Z" fill="url(#paint10_linear_302_299)"/>
<path d="M58.0308 42.9395C57.1157 42.9545 56.3622 42.2246 56.3477 41.3094C56.3332 40.3948 57.0631 39.6413 57.9778 39.6263C58.8924 39.6118 59.6464 40.3417 59.6609 41.2564C59.6759 42.171 58.946 42.925 58.0308 42.9395ZM57.9317 36.7717C53.4135 36.8442 49.8094 40.566 49.882 45.0842C49.9546 49.603 53.6763 53.2066 58.1946 53.1345C62.7128 53.0619 66.3169 49.3402 66.2443 44.8219C66.1722 40.3032 62.4505 36.6996 57.9317 36.7717Z" fill="url(#paint11_linear_302_299)"/>
<path d="M57.9778 39.6248C58.8925 39.6103 59.6464 40.3402 59.661 41.2549C59.676 42.1696 58.946 42.9235 58.0309 42.938C57.1157 42.953 56.3623 42.2231 56.3477 41.308C56.3332 40.3933 57.0631 39.6398 57.9778 39.6248ZM66.2443 44.8204C66.1722 40.3017 62.4505 36.6981 57.9317 36.7702C53.4135 36.8428 49.8094 40.5645 49.882 45.0828C49.9411 48.7554 52.4107 51.8238 55.7595 52.8051L55.7725 53.6026C56.8033 53.5656 57.32 53.8474 57.5983 54.1623C58.3818 55.047 57.8471 68.2825 58.534 70.0356C58.7493 70.1073 58.9926 70.0831 59.1934 69.9509L60.5266 69.0748C60.7443 68.9314 60.874 68.6869 60.87 68.4259L60.6177 52.727C63.9334 51.6391 66.3034 48.4926 66.2443 44.8204" fill="#FEBBBA"/>
<path d="M58.0308 42.9393C57.1156 42.9541 56.3622 42.2238 56.3475 41.309C56.3328 40.3942 57.063 39.6404 57.9773 39.6257C58.8926 39.6115 59.6464 40.3412 59.6607 41.2555C59.6754 42.1708 58.9456 42.9246 58.0308 42.9393ZM57.9577 38.3767C54.326 38.4351 51.429 41.4263 51.4874 45.058C51.5458 48.6897 54.5371 51.5862 58.1687 51.5283C61.8004 51.4699 64.6969 48.4786 64.639 44.847C64.5806 41.2153 61.5894 38.3183 57.9577 38.3767Z" fill="url(#paint12_linear_302_299)"/>
<path d="M73.9431 56.6538C73.9431 56.6538 66.2376 59.2331 61.9277 55.9518C61.6604 55.748 61.3229 55.6592 60.9914 55.7134L59.3446 55.9819C58.6538 56.0942 57.9953 55.6461 57.8463 54.9623C57.7614 54.5717 57.7203 54.145 57.8068 53.7785L60.9153 53.5911L60.8265 53.1873C60.8265 53.1873 62.2 53.5237 62.2279 54.5986C62.2279 54.5986 65.4509 56.7095 71.3287 53.4328C71.3287 53.4328 73.6182 55.2242 73.9431 56.6538" fill="url(#paint13_linear_302_299)"/>
<path d="M80.8292 52.2765C81.1462 51.6116 81.6982 51.1748 82.0316 50.5231C82.4517 49.702 82.4661 48.6149 82.1907 47.7003C81.9626 46.9414 81.5561 46.2863 81.3231 45.5294C81.0102 44.5114 81.0041 44.0732 81.1468 43.0509C81.2725 42.1506 81.5479 41.1914 82.2276 40.6743C83.0686 40.0355 84.0968 39.9146 85.0594 40.1455C86.0582 40.3859 87.027 40.925 87.758 41.824C88.489 42.7224 88.9652 43.9837 88.9529 45.2764C88.9447 46.1511 88.7233 47.0524 88.944 47.8809C89.1155 48.5255 89.5609 49.0394 90.0815 49.1942C90.6608 49.366 91.2627 49.1146 91.8564 49.1241C92.446 49.134 93.0301 49.4118 93.4797 49.8961C93.878 50.325 94.1731 50.9264 94.2407 51.5846C94.3077 52.2427 94.1273 52.9508 93.7297 53.3804C93.4578 53.6741 93.0745 53.8733 92.9741 54.3087C92.8621 54.7961 93.1914 55.2855 93.5596 55.4833C93.9271 55.6814 94.3412 55.6981 94.7155 55.8754C95.5531 56.2715 96.06 57.4717 95.9945 58.6049C95.9296 59.7378 95.3652 60.7638 94.626 61.4018C93.8868 62.0394 92.9898 62.326 92.0989 62.4182C91.2088 62.5108 90.3131 62.4202 89.4209 62.367C88.4002 62.3059 87.359 62.2888 86.3909 61.8721C85.4119 61.451 84.5662 60.6453 83.7771 59.7962C83.4041 59.3942 83.0249 58.9543 82.8575 58.3697C82.7352 57.9451 82.7352 57.4738 82.5952 57.0585C82.2953 56.1673 81.4625 55.7882 80.9808 55.0369C80.4923 54.2749 80.4288 53.1174 80.8292 52.2765" fill="#17282F"/>
<path d="M91.9049 53.8757L91.9102 53.875C92.3324 53.7763 92.7047 53.3832 92.8583 52.8736C93.0118 52.3637 92.942 51.7551 92.6801 51.3227C92.2912 50.6803 91.6064 50.5143 90.9376 50.3989L89.7269 50.1902C89.0435 50.0724 88.3427 49.9036 87.9505 49.2612C87.531 48.576 87.6147 47.6402 87.6952 46.7352C87.7045 46.6317 87.7138 46.5289 87.7218 46.4274C87.8281 45.1344 87.7218 44.0104 87.406 43.0862C87.0204 41.9593 86.3017 41.1296 85.4846 40.8684C85.4673 40.8624 85.4507 40.8757 85.4467 40.8963C85.4427 40.9176 85.4527 40.9388 85.4693 40.9441C86.2684 41.2001 86.9712 42.0125 87.3495 43.1175C87.6606 44.029 87.7656 45.1398 87.6613 46.4192C87.6526 46.5203 87.6433 46.6231 87.634 46.7263C87.5516 47.6471 87.4665 48.5993 87.9013 49.3093C88.3088 49.975 89.0222 50.1478 89.7183 50.268L90.9296 50.4767C91.5851 50.5898 92.2566 50.752 92.6309 51.3705C92.8802 51.7817 92.9467 52.3606 92.8011 52.8453C92.6548 53.33 92.3005 53.7039 91.8989 53.7978C91.8823 53.8019 91.871 53.8221 91.8743 53.8436C91.877 53.8624 91.8896 53.8757 91.9049 53.8757" fill="#BDD0FB"/>
<path d="M91.523 53.4016C91.5382 53.4016 91.5527 53.3944 91.5646 53.3804C91.7129 53.2041 91.881 53.004 91.9799 52.7505C92.0709 52.5203 92.1158 52.1788 91.9707 51.91C91.8764 51.7348 91.7228 51.6344 91.5705 51.5521C91.2006 51.3519 90.8116 51.2085 90.4147 51.1265C90.1569 51.0726 89.8925 51.0449 89.6367 51.0176C89.307 50.9828 88.9655 50.9465 88.6391 50.855C88.2488 50.7454 87.5479 50.4452 87.2433 49.6654C86.9973 49.035 87.0883 48.3321 87.1853 47.5882C87.2637 46.9847 87.3448 46.3607 87.234 45.7678C87.2255 45.7258 87.1925 45.6995 87.1595 45.7098C87.1259 45.72 87.1055 45.7623 87.1134 45.8043C87.2189 46.3665 87.1404 46.9744 87.0633 47.5626C86.9677 48.2982 86.8688 49.0596 87.1325 49.7351C87.4609 50.5736 88.2006 50.8926 88.6127 51.0084C88.947 51.1023 89.2925 51.1388 89.6268 51.1744C89.88 51.201 90.1417 51.2286 90.3949 51.2813C90.7819 51.3615 91.161 51.5012 91.5217 51.6962C91.6476 51.7646 91.7887 51.8495 91.8692 51.9985C91.9634 52.1737 91.9635 52.4414 91.8698 52.6802C91.7802 52.9087 91.6279 53.0904 91.4808 53.2656C91.4558 53.2953 91.4544 53.3452 91.4775 53.3766C91.4894 53.3933 91.5059 53.4016 91.523 53.4016" fill="#BDD0FB"/>
<path d="M81.9979 50.9522C82.7189 50.7234 84.8219 50.2882 86.8582 52.1077C87.2032 52.4164 87.3506 52.8911 87.236 53.34C86.7291 55.3328 85.4018 61.2175 86.6894 63.7337C86.6894 63.7337 84.531 66.191 82.1031 64.2777C82.1031 64.2777 80.9521 59.6078 79.5102 57.5729C78.5147 56.1679 80.9748 52.2132 81.5981 51.2576C81.6926 51.1128 81.8336 51.0045 81.9979 50.9522" fill="#006BA4"/>
<path d="M83.9347 46.9763C83.9347 46.9763 85.0545 49.9899 85.1568 51.3253C85.1568 51.3253 83.9815 51.883 82.8506 50.9919C82.8506 50.9919 82.6847 47.9667 82.5071 47.4277L83.9347 46.9763Z" fill="url(#paint14_linear_302_299)"/>
<path d="M82.3798 42.868C82.3798 42.868 79.6405 46.8353 81.3338 47.9473C83.0278 49.0599 84.9778 46.2404 84.9778 46.2404C84.9778 46.2404 85.593 44.0837 84.9013 43.366C84.2101 42.6489 82.3798 42.868 82.3798 42.868Z" fill="#FEBBBA"/>
<path d="M83.6615 41.9097C83.6615 41.9097 82.3794 42.2355 82.2078 42.8212C82.0368 43.4063 84.052 43.9143 84.6147 43.9318L85.1053 46.2753C85.1053 46.2753 86.4086 44.0424 85.8577 42.7734C85.3068 41.5049 83.6615 41.9097 83.6615 41.9097Z" fill="#17282F"/>
<path d="M84.4299 45.9618C84.4299 45.9618 85.4998 44.681 85.9471 45.4971C86.3943 46.3139 84.9885 46.9552 84.4921 46.559L84.4299 45.9618Z" fill="url(#paint15_linear_302_299)"/>
<path d="M79.4628 74.1633C79.4743 74.3758 79.1282 76.0698 78.9393 76.9732C78.8636 77.337 78.9265 77.715 79.1161 78.0343L86.3481 89.772C86.4359 89.914 86.5002 90.0684 86.5409 90.23C86.679 90.7843 86.9678 92.1429 86.8482 93.3851L86.4964 94.1474L88.0658 93.7642L88.3406 89.5281L87.8902 89.2634C87.5009 89.0346 87.1955 88.6883 87.0168 88.2737C86.3551 86.7374 84.7106 82.8261 84.2723 80.9138C83.7742 78.741 81.3243 77.0087 81.3243 77.0087L81.7333 75.9964L79.4628 74.1633" fill="url(#paint16_linear_302_299)"/>
<path d="M89.7934 92.2815C89.7934 92.2815 88.9212 90.9465 88.8122 90.4232C88.7038 89.8997 88.4103 88.9771 87.8904 89.2647C87.8904 89.2647 87.6846 91.8191 87.7852 92.8143C87.8871 93.8096 86.6744 93.797 86.6744 93.797C86.6744 93.797 86.3415 93.8492 86.1009 94.0978C85.9344 94.2693 86.0602 94.5603 86.2983 94.5719C86.6957 94.591 87.3253 94.5876 87.9852 94.449C88.2148 94.4008 88.3832 94.2013 88.3935 93.966L88.5206 91.0277L89.616 92.3656L89.7934 92.2815" fill="#006BA4"/>
<path d="M83.6994 75.9838C83.6994 75.9838 84.1187 86.5804 84.1766 88.0856C84.2345 89.5904 84.0167 92.9313 82.5234 93.9528L83.1882 94.4286C83.1882 94.4286 83.9978 93.7179 84.7784 92.3623C85.6547 90.8398 85.9223 90.5597 85.9223 90.5597L85.6138 89.9524C85.4785 89.6867 85.435 89.3841 85.4904 89.0911C85.7914 87.507 86.7948 82.2392 87.0731 81.1035C87.4017 79.7633 87.3979 77.9801 86.1552 76.5078C84.9125 75.0354 83.6994 75.9838 83.6994 75.9838" fill="url(#paint17_linear_302_299)"/>
<path d="M85.3982 94.8704C85.4449 94.8701 85.4842 94.836 85.4898 94.7895C85.5347 94.4353 85.7205 93.0152 85.8864 92.6453C86.0753 92.2221 86.687 90.4434 85.8477 90.3068C85.8477 90.3068 83.8169 93.3786 83.4247 93.7949C83.0319 94.2109 82.5237 93.9524 82.5237 93.9524C82.5237 93.9524 82.1365 94.0736 81.8497 94.4534C81.7125 94.6341 81.8465 94.8936 82.0735 94.8923L83.4746 94.8831C83.8811 94.8804 84.2434 94.6273 84.3887 94.2472C84.625 93.6273 85.034 92.717 85.5216 92.3086L85.3046 94.769C85.2996 94.8237 85.3433 94.8708 85.3982 94.8704" fill="#006BA4"/>
<path d="M81.7521 63.1391C81.7521 63.1391 82.0841 64.1402 81.6258 65.8051L78.7865 76.3593C78.7423 76.5249 78.8346 76.6964 78.9968 76.7518C79.9013 77.0602 82.8746 77.9256 86.9082 77.582C87.1114 77.5646 87.2793 77.4181 87.3204 77.2183C87.5672 76.0164 88.4095 71.9156 88.5826 71.073C89.2436 67.8622 89.9833 64.399 86.4511 62.3693C84.8497 63.0858 83.3522 63.5172 81.7521 63.1391" fill="#055783"/>
<path d="M87.1517 52.4994C87.1517 52.4994 90.6206 55.2887 91.5323 59.1621C92.4446 63.0355 86.5997 63.5431 86.5997 63.5431C86.5997 63.5431 85.7911 62.6688 84.8531 63.0003C83.9152 63.332 84.7553 61.4536 85.8587 61.4406C86.962 61.4276 86.4651 62.3084 88.0142 61.5762C89.5238 60.863 90.4296 58.7178 86.498 55.5514C86.2702 55.368 86.0871 55.1323 85.9742 54.8618C85.1905 52.9769 85.7681 51.7238 87.1517 52.4994Z" fill="url(#paint18_linear_302_299)"/>
<path d="M61.1198 69.948C61.1198 69.948 63.0865 75.2466 66.0776 74.5963C66.0776 74.5963 66.3857 76.3993 65.8825 76.6121C65.8825 76.6121 61.3959 76.7422 60.9503 70.5805L61.1198 69.948Z" fill="url(#paint19_linear_302_299)"/>
<path d="M61.2044 71.1919C61.1964 71.2834 61.5375 71.347 61.6466 70.9556C61.6164 70.7855 61.5635 70.0412 61.4331 69.9255C60.7391 69.3097 59.5014 68.6167 59.5014 68.6167C59.3625 68.8281 59.5444 68.9675 59.5444 68.9675L60.1623 69.3841C60.0976 69.5979 60.0036 69.7865 59.9932 70.0303C59.9852 70.2148 60.0532 70.3954 60.1755 70.5355C60.2984 70.6762 60.4642 70.8576 60.6135 70.9952C60.896 71.2558 61.2044 71.1919 61.2044 71.1919" fill="url(#paint20_linear_302_299)"/>
<path d="M60.8633 70.8922C60.7796 70.6889 60.5398 70.1373 60.4321 70.025C60.355 69.9444 60.3198 69.8703 60.324 69.7985C60.3278 69.7381 60.3593 69.6845 60.4199 69.6346L60.4495 69.6104L61.0405 69.9263L61.277 70.2962L61.1797 70.3583L60.9596 70.0137L60.466 69.7497C60.4491 69.7685 60.4401 69.7869 60.4392 69.8057C60.4368 69.8422 60.4636 69.8908 60.5158 69.9454C60.6573 70.0936 60.938 70.7716 60.9695 70.8484L60.8633 70.8922" fill="url(#paint21_linear_302_299)"/>
<path fill-rule="evenodd" clip-rule="evenodd" d="M66.0488 67.7338C66.0488 67.7338 66.9982 66.8762 65.777 65.9462C64.6301 65.0725 63.7919 66.2451 64.1719 66.9995C64.1992 67.0528 64.1683 67.1176 64.1102 67.1306C64.0097 67.1525 63.9228 67.2522 64.0809 67.6047C64.0946 67.6351 64.0905 67.6703 64.0703 67.6969C63.9299 67.8858 63.461 68.6412 64.8757 68.757C64.9009 68.7591 64.9262 68.7502 64.9454 68.7331L66.0488 67.7338" fill="#17282F"/>
<path fill-rule="evenodd" clip-rule="evenodd" d="M71.037 68.9936C71.037 68.9936 71.1287 67.899 71.714 67.5424C72.2999 67.1855 73.437 66.8822 73.9135 68.0722C74.1409 68.6398 74.0656 68.9099 73.9245 69.037C73.796 69.1531 73.7818 69.3334 73.8663 69.4851C73.9635 69.6572 73.9761 69.8703 73.6851 70.0636C73.5989 70.1207 73.5413 70.2047 73.5232 70.3C73.4474 70.6969 73.0416 71.6487 70.8712 70.6081L71.037 68.9936" fill="#17282F"/>
<path fill-rule="evenodd" clip-rule="evenodd" d="M68.528 67.0249C68.9549 66.8419 69.8599 66.6554 70.5631 67.886C70.6126 67.972 70.6837 68.0431 70.7704 68.0909C71.1892 68.3218 72.4028 69.162 71.298 70.678C71.2474 70.7477 71.214 70.828 71.2022 70.913C71.1645 71.1699 71.0423 71.7388 70.6751 71.8796C70.5652 71.9212 70.4732 71.9988 70.4118 72.0992C70.1652 72.5056 69.461 73.3612 68.2754 72.4677C68.2157 72.4223 68.1457 72.3898 68.0719 72.3734L66.4358 72.0131C66.3485 71.994 66.2586 71.9977 66.173 72.0227C65.9727 72.0811 65.5684 72.1323 65.4182 71.6617C65.3875 71.5657 65.3304 71.4807 65.254 71.4154C64.9799 71.1821 64.3969 70.5496 64.8378 69.663C64.8873 69.5636 64.9051 69.4523 64.8884 69.3427C64.8362 69.0107 64.8093 68.2732 65.4984 67.9549C65.6023 67.9071 65.6885 67.8293 65.7412 67.7278C65.9711 67.2856 66.72 66.1523 68.0402 66.9833C68.1866 67.0759 68.3691 67.0932 68.528 67.0249" fill="#152328"/>
<path fill-rule="evenodd" clip-rule="evenodd" d="M66.3056 93.0299L66.5438 93.3052L66.38 93.9029C66.3372 94.0596 66.2086 94.1775 66.0488 94.2065C65.5172 94.3042 64.3109 94.48 63.6903 94.213C63.6903 94.213 63.4974 92.9199 65.6353 93.3052L66.3056 93.0299Z" fill="#006BA4"/>
<path fill-rule="evenodd" clip-rule="evenodd" d="M70.0333 93.7169L70.1603 94.028L70.1089 95.149C70.102 95.3064 69.9751 95.4386 69.8035 95.4649C69.5695 95.5011 69.2296 95.5373 68.9101 95.5127C68.6593 95.4932 68.5024 95.2582 68.6005 95.0482L68.9777 94.2398C69.0344 94.1189 69.1372 94.026 69.2631 93.9826L70.0333 93.7169Z" fill="#006BA4"/>
<path fill-rule="evenodd" clip-rule="evenodd" d="M68.949 71.8702L69.1923 74.2811C69.1923 74.2811 67.8815 74.7258 67.0184 74.2241L67.2518 71.8032L68.949 71.8702Z" fill="url(#paint22_linear_302_299)"/>
<path fill-rule="evenodd" clip-rule="evenodd" d="M71.0505 85.0701C71.0505 85.0701 70.4287 92.0058 70.0179 94.1281C70.0179 94.1281 69.7104 94.3518 69.2503 94.0632L68.6921 84.8072L71.0505 85.0701" fill="url(#paint23_linear_302_299)"/>
<path fill-rule="evenodd" clip-rule="evenodd" d="M68.2863 85.4869L66.5821 93.2542C66.5821 93.2542 66.1182 93.735 65.5158 93.2542L65.8093 85.0886L68.2863 85.4869" fill="url(#paint24_linear_302_299)"/>
<path fill-rule="evenodd" clip-rule="evenodd" d="M70.4426 74.4623L70.8686 74.5098C71.6943 75.3951 73.2087 81.4782 73.7548 82.7716L75.9775 82.4086C76.0645 82.3908 76.1358 82.4776 76.1022 82.5599C76.0039 82.801 75.6335 83.4967 74.1909 83.4967C73.5168 83.4967 74.5687 84.0196 74.1657 84.1993C74.1657 84.1993 73.2799 83.8803 73.2783 83.3194C73.2783 83.3194 70.7389 77.5352 70.2169 76.9265C69.6949 76.3176 70.4426 74.4623 70.4426 74.4623" fill="url(#paint25_linear_302_299)"/>
<path fill-rule="evenodd" clip-rule="evenodd" d="M70.8685 74.5111C70.8685 74.5111 68.6097 73.6744 65.7897 74.5405C65.7897 74.5405 65.4734 76.6754 65.6363 77.6915L70.4955 77.8674L70.8685 74.5111Z" fill="#006BA4"/>
<path fill-rule="evenodd" clip-rule="evenodd" d="M65.7031 78.3572C65.7031 78.3572 64.1501 83.3424 63.9198 86.6638C63.9079 86.8349 64.036 86.9821 64.2069 86.9944C64.5307 87.0177 65.1004 87.0972 65.8745 87.3551C67.1302 87.7731 68.1696 87.6351 69.1086 87.3657C69.8453 87.1543 71.6875 86.9691 72.4459 86.8995C72.6265 86.8827 72.754 86.7154 72.7221 86.5367C72.5016 85.3076 71.6637 80.9458 70.3929 77.9809L65.7031 78.3572Z" fill="#006BA4"/>
<path fill-rule="evenodd" clip-rule="evenodd" d="M65.6201 77.5753L65.7029 78.3577C65.7029 78.3577 67.1969 78.3636 70.4985 78.2526L70.5153 77.6866C70.5153 77.6866 66.8582 77.758 65.6201 77.5753Z" fill="#005380"/>
<path fill-rule="evenodd" clip-rule="evenodd" d="M65.6314 69.5327C65.2559 70.9822 65.3657 72.6482 67.0713 73.0222C68.2513 73.2808 69.4911 72.0786 69.8661 70.6287C70.2415 69.1789 69.5993 68.075 68.4298 67.7721C67.2598 67.4695 66.0063 68.0829 65.6314 69.5327" fill="url(#paint26_linear_302_299)"/>
<path fill-rule="evenodd" clip-rule="evenodd" d="M65.7594 69.9802C65.7594 69.9802 65.7035 69.1035 65.2664 69.374C64.8293 69.6445 65.4351 70.6951 65.706 70.7565C65.976 70.818 65.7594 69.9802 65.7594 69.9802" fill="url(#paint27_linear_302_299)"/>
<path fill-rule="evenodd" clip-rule="evenodd" d="M69.5002 70.9919C69.5002 70.9919 69.6304 70.3231 70.1044 70.6322C70.5783 70.9413 69.6742 72.0339 69.1175 71.7911L69.5002 70.9919Z" fill="url(#paint28_linear_302_299)"/>
<path fill-rule="evenodd" clip-rule="evenodd" d="M70.201 70.4601C70.201 70.4601 68.8445 71.9284 68.1398 68.8815C68.1398 68.8815 67.4367 69.7917 67.1161 68.9863C67.1161 68.9863 65.7163 69.4662 65.5615 68.8774C65.4067 68.2886 67.4536 66.6919 69.1007 67.8378C70.7466 68.9837 70.201 70.4601 70.201 70.4601Z" fill="#17282F"/>
<path d="M24.0357 94.7966C24.0354 94.7689 24.0374 94.7413 24.0443 94.7133C24.4599 93.0664 26.1584 92.2221 26.1584 92.2221L26.9754 92.2863C27.445 93.7378 27.7479 94.4465 27.6724 94.8431C27.6704 94.854 27.667 94.8646 27.6639 94.8752C26.9901 94.9356 25.6031 94.9749 24.0357 94.7966" fill="#006BA4"/>
<path d="M27.6638 94.8756C27.6276 95.0081 27.5299 95.1113 27.4046 95.1376C26.4459 95.3391 24.9223 95.1768 24.2826 95.0932C24.1415 95.0747 24.038 94.9442 24.0356 94.797C25.603 94.9753 26.99 94.9361 27.6638 94.8756Z" fill="#7D97F4"/>
<path d="M25.4857 90.9516L25.8432 92.6736C25.8695 92.7996 25.9665 92.8942 26.084 92.9052C26.2278 92.9188 26.4324 92.9267 26.638 92.8963C26.8228 92.8693 26.9512 92.6818 26.9184 92.4806L26.6698 90.9516H25.4857Z" fill="url(#paint29_linear_302_299)"/>
<path d="M34.6057 94.8622C33.7334 94.8376 33.2819 94.7348 33.0486 94.6395C33.0479 94.7263 33.0486 94.8147 33.0513 94.9059C33.0544 95.0039 33.1268 95.0818 33.2156 95.0811L38.0067 95.0504C38.1594 95.0493 38.2489 94.8721 38.1826 94.7317C37.5545 94.7836 35.9547 94.8998 34.6057 94.8622Z" fill="#7D97F4"/>
<path d="M38.1825 94.7305C38.1767 94.7185 38.1719 94.7059 38.1637 94.6943C37.7406 94.1034 36.663 92.9261 34.5335 92.4155L33.512 92.3831C33.512 92.3831 33.0571 93.1737 33.0485 94.6383C33.2818 94.7335 33.7333 94.8363 34.6056 94.8609C35.9547 94.8985 37.5544 94.7824 38.1825 94.7305" fill="#006BA4"/>
<path d="M33.3225 90.837C33.3338 90.9131 33.4738 92.0703 33.5281 92.5191C33.5411 92.6256 33.6183 92.7083 33.7156 92.7199C33.8894 92.7404 34.1712 92.7595 34.4175 92.709C34.5503 92.6816 34.6463 92.5542 34.6463 92.4057V90.589L33.3225 90.837Z" fill="url(#paint30_linear_302_299)"/>
<path d="M26.1677 68.34C26.1677 68.34 24.5331 82.8698 25.4413 91.9513C25.4413 91.9513 26.5311 91.9513 27.0759 91.7696C27.0759 91.7696 28.7747 77.563 29.3242 73.4976C29.3447 73.3443 29.5636 73.3374 29.5937 73.4891C30.2716 76.9092 32.9346 90.3215 33.2512 91.5879C33.2512 91.5879 34.1594 91.9513 34.8858 91.5879C34.8858 91.5879 33.4329 72.154 32.3431 68.7031L26.1677 68.34" fill="#17282F"/>
<path d="M22.899 51.4511C22.899 51.4511 29.8008 50.3612 35.2497 51.814L34.8864 57.4444C34.8864 57.4444 33.4337 65.2542 32.3438 68.7052C32.3438 68.7052 28.1662 69.4318 26.1683 68.3423C26.1683 68.3423 24.5336 58.5343 23.626 57.0811C23.626 57.0811 22.7176 53.2671 22.899 51.4511" fill="#006BA4"/>
<path d="M27.6931 46.4859L27.0057 51.1354C27.0057 51.1354 28.9269 52.0177 30.2718 51.0977L29.9821 47.8162L27.6931 46.4859Z" fill="url(#paint31_linear_302_299)"/>
<path d="M30.6535 43.4549C30.6752 43.4941 31.0899 45.8389 31.3448 47.29C31.45 47.8895 31.0094 48.4469 30.4015 48.4828L29.8453 48.5158C28.8223 48.5763 27.9219 47.8482 27.7671 46.8352L27.3645 44.2067C27.3645 44.2067 30.1282 42.5011 30.6535 43.4549Z" fill="url(#paint32_linear_302_299)"/>
<path d="M26.7648 44.2202C26.5513 43.9546 26.3651 43.5258 26.8197 43.0744C27.2798 42.6174 27.8016 42.7318 28.1326 42.8847C28.2791 42.9526 28.4598 42.9227 28.564 42.7993C28.6105 42.7442 28.6793 42.7071 28.7814 42.7186C28.974 42.7404 29.1457 42.6131 29.1683 42.4209C29.2076 42.0912 29.3831 41.703 29.9665 41.5902C31.0355 41.3835 31.569 42.4538 31.5498 43.2055C31.5305 43.9576 30.3586 44.116 29.6936 43.9913C29.2055 43.8995 28.7831 44.3287 28.5934 44.5628C28.5243 44.6482 28.4986 44.7592 28.5238 44.866L28.6925 45.5925C28.5755 45.8184 28.4606 46.049 28.2962 46.2417C28.1779 46.3805 28.048 46.4569 27.9101 46.4894C27.7106 46.1182 27.1534 46.0555 26.8942 46.0473C26.7952 46.0439 26.7026 46.0004 26.6374 45.9256C26.442 45.7014 26.136 45.2013 26.7214 44.7101C26.8672 44.588 26.8836 44.3684 26.7648 44.2202" fill="#17282F"/>
<path d="M28.1026 47.2664C28.1026 47.2664 28.0798 45.9546 27.5484 45.8315C27.0178 45.7079 26.4447 46.0921 26.8991 46.8774C27.4638 47.8547 28.1026 47.2664 28.1026 47.2664Z" fill="url(#paint33_linear_302_299)"/>
<path d="M22.8988 51.4458C22.8988 51.4458 12.1829 63.0698 24.8059 67.5198V66.6115C24.8059 66.6115 20.0837 62.6154 23.7159 57.1669C23.7159 57.1669 23.2622 51.9907 22.8988 51.4458Z" fill="#026EA8"/>
<path d="M24.8968 66.7037C24.8968 66.7037 26.5314 65.6138 27.2579 65.9769C27.9843 66.3403 27.9843 66.885 27.9843 66.885C27.9843 66.885 27.6213 67.6115 27.0762 67.4301C26.5314 67.2484 25.2602 67.6115 24.7151 67.4301C24.7151 67.4301 24.5334 66.7037 24.8968 66.7037" fill="url(#paint34_linear_302_299)"/>
<path d="M43.6051 55.5557C40.1459 56.0749 38.202 53.7127 36.5219 52.3885C34.3036 50.6402 32.2654 51.6701 32.2654 51.6701L34.4485 56.7654C37.9819 60.0966 41.7867 58.7768 44.0708 57.697C44.106 56.8249 43.873 56.0951 43.6051 55.5557Z" fill="#01679E"/>
<path d="M48.4679 53.4889L47.3209 54.1061C45.9449 54.9439 44.7136 55.3868 43.6054 55.5529C43.873 56.0922 44.1058 56.8223 44.0709 57.6942C45.5248 57.0072 46.436 56.1823 46.436 56.1823C49.035 54.6324 48.4679 53.4889 48.4679 53.4889" fill="url(#paint35_linear_302_299)"/>
<path d="M51.8482 55.1024C51.7742 54.8562 51.5921 54.6571 51.3537 54.5609L49.0252 53.6248C49.0252 53.6248 48.99 53.3262 49.5171 53.1229C50.0442 52.9201 49.9211 52.3298 49.9211 52.3298C49.9211 52.3298 49.2011 52.6582 48.1465 53.1795C47.5434 53.4773 47.2055 54.0036 47.0262 54.3994L47.6256 55.1875C49.0603 55.6188 50.5127 55.7014 51.9771 55.5304L51.8482 55.1024" fill="url(#paint36_linear_302_299)"/>
<defs>
<linearGradient id="paint0_linear_302_299" x1="217.061" y1="104.303" x2="77.0211" y2="-46.8506" gradientUnits="userSpaceOnUse">
<stop stop-color="#DAE3FE"/>
<stop offset="1" stop-color="#E9EFFD"/>
</linearGradient>
<linearGradient id="paint1_linear_302_299" x1="140.863" y1="73.8885" x2="142.123" y2="84.8857" gradientUnits="userSpaceOnUse">
<stop stop-color="#A22B25"/>
<stop offset="1" stop-color="#C0423C"/>
</linearGradient>
<linearGradient id="paint2_linear_302_299" x1="121.182" y1="77.4226" x2="121.71" y2="87.7517" gradientUnits="userSpaceOnUse">
<stop stop-color="#A22B25"/>
<stop offset="1" stop-color="#C0423C"/>
</linearGradient>
<linearGradient id="paint3_linear_302_299" x1="127.105" y1="13.3044" x2="130.478" y2="-3.81147" gradientUnits="userSpaceOnUse">
<stop stop-color="#A22B25"/>
<stop offset="1" stop-color="#C0423C"/>
</linearGradient>
<linearGradient id="paint4_linear_302_299" x1="-108.519" y1="-591.298" x2="-103.572" y2="-578.682" gradientUnits="userSpaceOnUse">
<stop stop-color="#A22B25"/>
<stop offset="1" stop-color="#C0423C"/>
</linearGradient>
<linearGradient id="paint5_linear_302_299" x1="-106.104" y1="-591.736" x2="-101.16" y2="-579.129" gradientUnits="userSpaceOnUse">
<stop stop-color="#A22B25"/>
<stop offset="1" stop-color="#C0423C"/>
</linearGradient>
<linearGradient id="paint6_linear_302_299" x1="88.2311" y1="20.5153" x2="103.235" y2="33.4754" gradientUnits="userSpaceOnUse">
<stop stop-color="#A22B25"/>
<stop offset="1" stop-color="#C0423C"/>
</linearGradient>
<linearGradient id="paint7_linear_302_299" x1="109.406" y1="14.992" x2="105.403" y2="47.2843" gradientUnits="userSpaceOnUse">
<stop stop-color="#A22B25"/>
<stop offset="1" stop-color="#C0423C"/>
</linearGradient>
<linearGradient id="paint8_linear_302_299" x1="85.7023" y1="22.8787" x2="100.418" y2="35.5906" gradientUnits="userSpaceOnUse">
<stop stop-color="#A22B25"/>
<stop offset="1" stop-color="#C0423C"/>
</linearGradient>
<linearGradient id="paint9_linear_302_299" x1="88.1031" y1="-21.0968" x2="99.3432" y2="49.2023" gradientUnits="userSpaceOnUse">
<stop stop-color="#E1473D"/>
<stop offset="1" stop-color="#E9605A"/>
</linearGradient>
<linearGradient id="paint10_linear_302_299" x1="59.8225" y1="33.6137" x2="93.47" y2="42.24" gradientUnits="userSpaceOnUse">
<stop stop-color="#FF928E"/>
<stop offset="1" stop-color="#FE7062"/>
</linearGradient>
<linearGradient id="paint11_linear_302_299" x1="80.4644" y1="6.63527" x2="133.582" y2="40.2645" gradientUnits="userSpaceOnUse">
<stop stop-color="#FF9085"/>
<stop offset="1" stop-color="#FB6FBB"/>
</linearGradient>
<linearGradient id="paint12_linear_302_299" x1="92.36" y1="1.71835" x2="79.7798" y2="82.8279" gradientUnits="userSpaceOnUse">
<stop stop-color="#FF928E"/>
<stop offset="1" stop-color="#FE7062"/>
</linearGradient>
<linearGradient id="paint13_linear_302_299" x1="151.567" y1="-7.27503" x2="134.938" y2="5.75136" gradientUnits="userSpaceOnUse">
<stop stop-color="#A22B25"/>
<stop offset="1" stop-color="#C0423C"/>
</linearGradient>
<linearGradient id="paint14_linear_302_299" x1="161.004" y1="5.91665" x2="163.976" y2="-0.978015" gradientUnits="userSpaceOnUse">
<stop stop-color="#FEBBBA"/>
<stop offset="1" stop-color="#FF928E"/>
</linearGradient>
<linearGradient id="paint15_linear_302_299" x1="165.064" y1="-13.2005" x2="171.594" y2="0.358449" gradientUnits="userSpaceOnUse">
<stop stop-color="#FEBBBA"/>
<stop offset="1" stop-color="#FF928E"/>
</linearGradient>
<linearGradient id="paint16_linear_302_299" x1="185.85" y1="90.2388" x2="161.471" y2="47.8589" gradientUnits="userSpaceOnUse">
<stop stop-color="#FEBBBA"/>
<stop offset="1" stop-color="#FF928E"/>
</linearGradient>
<linearGradient id="paint17_linear_302_299" x1="156.522" y1="59.4948" x2="192.262" y2="70.6638" gradientUnits="userSpaceOnUse">
<stop stop-color="#FEBBBA"/>
<stop offset="1" stop-color="#FF928E"/>
</linearGradient>
<linearGradient id="paint18_linear_302_299" x1="188.792" y1="21.5481" x2="152.92" y2="-29.8328" gradientUnits="userSpaceOnUse">
<stop stop-color="#FEBBBA"/>
<stop offset="1" stop-color="#FF928E"/>
</linearGradient>
<linearGradient id="paint19_linear_302_299" x1="98.6286" y1="54.2346" x2="105.475" y2="63.6988" gradientUnits="userSpaceOnUse">
<stop stop-color="#FEBBBA"/>
<stop offset="1" stop-color="#FF928E"/>
</linearGradient>
<linearGradient id="paint20_linear_302_299" x1="92.5755" y1="58.1222" x2="99.6164" y2="67.8547" gradientUnits="userSpaceOnUse">
<stop stop-color="#FEBBBA"/>
<stop offset="1" stop-color="#FF928E"/>
</linearGradient>
<linearGradient id="paint21_linear_302_299" x1="88.8191" y1="54.8424" x2="90.1309" y2="54.8424" gradientUnits="userSpaceOnUse">
<stop stop-color="#FF928E"/>
<stop offset="1" stop-color="#FE7062"/>
</linearGradient>
<linearGradient id="paint22_linear_302_299" x1="111.744" y1="58.6357" x2="111.395" y2="55.0863" gradientUnits="userSpaceOnUse">
<stop stop-color="#FEBBBA"/>
<stop offset="1" stop-color="#FF928E"/>
</linearGradient>
<linearGradient id="paint23_linear_302_299" x1="98.5552" y1="20.0564" x2="83.6144" y2="-25.7001" gradientUnits="userSpaceOnUse">
<stop stop-color="#FEBBBA"/>
<stop offset="1" stop-color="#FF928E"/>
</linearGradient>
<linearGradient id="paint24_linear_302_299" x1="90.5864" y1="24.3837" x2="76.1235" y2="-19.909" gradientUnits="userSpaceOnUse">
<stop stop-color="#FEBBBA"/>
<stop offset="1" stop-color="#FF928E"/>
</linearGradient>
<linearGradient id="paint25_linear_302_299" x1="136.745" y1="69.8638" x2="124.064" y2="52.4399" gradientUnits="userSpaceOnUse">
<stop stop-color="#FEBBBA"/>
<stop offset="1" stop-color="#FF928E"/>
</linearGradient>
<linearGradient id="paint26_linear_302_299" x1="111.802" y1="53.1001" x2="112.564" y2="45.7727" gradientUnits="userSpaceOnUse">
<stop stop-color="#FEBBBA"/>
<stop offset="1" stop-color="#FF928E"/>
</linearGradient>
<linearGradient id="paint27_linear_302_299" x1="102.285" y1="55.2476" x2="103.023" y2="48.6127" gradientUnits="userSpaceOnUse">
<stop stop-color="#FEBBBA"/>
<stop offset="1" stop-color="#FF928E"/>
</linearGradient>
<linearGradient id="paint28_linear_302_299" x1="115.555" y1="52.8186" x2="116.335" y2="45.8081" gradientUnits="userSpaceOnUse">
<stop stop-color="#FEBBBA"/>
<stop offset="1" stop-color="#FF928E"/>
</linearGradient>
<linearGradient id="paint29_linear_302_299" x1="26.487" y1="89.2941" x2="25.7587" y2="95.6502" gradientUnits="userSpaceOnUse">
<stop stop-color="#FEBBBA"/>
<stop offset="1" stop-color="#FF928E"/>
</linearGradient>
<linearGradient id="paint30_linear_302_299" x1="34.1589" y1="90.1081" x2="33.4776" y2="96.0539" gradientUnits="userSpaceOnUse">
<stop stop-color="#FEBBBA"/>
<stop offset="1" stop-color="#FF928E"/>
</linearGradient>
<linearGradient id="paint31_linear_302_299" x1="33.8666" y1="38.9318" x2="37.6614" y2="38.9318" gradientUnits="userSpaceOnUse">
<stop stop-color="#FEBBBA"/>
<stop offset="1" stop-color="#FF928E"/>
</linearGradient>
<linearGradient id="paint32_linear_302_299" x1="370.963" y1="-272.822" x2="376.262" y2="-277.686" gradientUnits="userSpaceOnUse">
<stop stop-color="#FEBBBA"/>
<stop offset="1" stop-color="#FF928E"/>
</linearGradient>
<linearGradient id="paint33_linear_302_299" x1="355.306" y1="-258.664" x2="360.399" y2="-263.339" gradientUnits="userSpaceOnUse">
<stop stop-color="#FEBBBA"/>
<stop offset="1" stop-color="#FF928E"/>
</linearGradient>
<linearGradient id="paint34_linear_302_299" x1="27.8009" y1="65.6654" x2="21.9889" y2="70.6298" gradientUnits="userSpaceOnUse">
<stop stop-color="#FEBBBA"/>
<stop offset="1" stop-color="#FF928E"/>
</linearGradient>
<linearGradient id="paint35_linear_302_299" x1="48.9621" y1="49.5876" x2="63.2374" y2="44.697" gradientUnits="userSpaceOnUse">
<stop stop-color="#FEBBBA"/>
<stop offset="1" stop-color="#FF928E"/>
</linearGradient>
<linearGradient id="paint36_linear_302_299" x1="52.4207" y1="46.1943" x2="67.4681" y2="41.0391" gradientUnits="userSpaceOnUse">
<stop stop-color="#FEBBBA"/>
<stop offset="1" stop-color="#FF928E"/>
</linearGradient>
</defs>
</svg>
