<svg width="104" height="78" viewBox="0 0 104 78" fill="none" xmlns="http://www.w3.org/2000/svg">
<g clip-path="url(#clip0_302_109)">
<path d="M0 68.161H104V68.109H0V68.161Z" fill="#E7E8E5"/>
<path d="M87.8916 69.5775H82.4899V69.5255H87.8916V69.5775Z" fill="#E7E8E5"/>
<path d="M63.8504 69.9009H65.6587V69.9529H63.8504V69.9009Z" fill="#E7E8E5"/>
<path d="M93.5794 71.5089H89.5875V71.4569H93.5794V71.5089Z" fill="#E7E8E5"/>
<path d="M10.9115 69.8749H14.2912V69.9269H10.9115V69.8749Z" fill="#E7E8E5"/>
<path d="M15.4036 69.9269H23.0649V69.8749H15.4036V69.9269Z" fill="#E7E8E5"/>
<path d="M41.9449 70.805H61.4293V70.753H41.9449V70.805Z" fill="#E7E8E5"/>
<path d="M54.1241 0.0521814C53.4982 0.0521814 52.989 0.561372 52.989 1.18724V57.6451C52.989 58.2711 53.4982 58.7803 54.1241 58.7803H94.2887C94.9146 58.7803 95.424 58.2711 95.424 57.6451V1.18724C95.424 0.561372 94.9146 0.0521814 94.2887 0.0521814H54.1241ZM94.2887 58.8323H54.1241C53.4695 58.8323 52.937 58.2999 52.937 57.6451V1.18724C52.937 0.532876 53.4695 0.000181378 54.1241 0.000181378H94.2887C94.9433 0.000181378 95.476 0.532876 95.476 1.18724V57.6451C95.476 58.2999 94.9433 58.8323 94.2887 58.8323Z" fill="#E7E8E5"/>
<path d="M34.5465 68.109H44.2772V52.6614H34.5465V68.109Z" fill="#CBCBCB"/>
<path d="M13.5405 68.109H34.5464V52.6614H13.5405V68.109Z" fill="#E2E2E2"/>
<path d="M13.4388 65.2117H23.7751V59.3999H13.4388V65.2117Z" fill="#FAFAF9"/>
<path d="M13.4388 54.8001H13.5406V54.3681H13.4388V54.8001Z" fill="#EAEBE8"/>
<path d="M41.9442 54.8001H34.5465V54.3681H41.7978C41.8481 54.5124 41.8968 54.6562 41.9442 54.8001" fill="#D9DAD7"/>
<path d="M34.5465 54.8001H34.0292V54.3681H34.5465V54.8001ZM20.1097 54.8001H13.5405V54.3681H20.1097V54.8001Z" fill="#C9C9C9"/>
<path d="M34.5465 54.368H44.8142V52.2096H34.5465V54.368Z" fill="#EDEDEB"/>
<path d="M13.0034 54.368H34.5466V52.2096H13.0034V54.368Z" fill="#E2E2E2"/>
<path d="M15.3137 52.1705H22.1516V41.3152H15.3137V52.1705Z" fill="#E9E9E9"/>
<path d="M22.1516 52.1705H36.913V41.3152H22.1516V52.1705Z" fill="#E2E2E2"/>
<path d="M36.9842 46.0506H29.7209V50.1346H36.9842V46.0506Z" fill="#F3F2F1"/>
<path d="M36.9129 42.8182H36.9842V42.2939H36.9129V42.8182Z" fill="#EAEBE8"/>
<path d="M15.3137 42.8182H22.1516V42.2939H15.3137V42.8182Z" fill="#CBCBCB"/>
<path d="M22.1516 42.8182H36.913V42.2939H22.1516V42.8182Z" fill="#CBCBCB"/>
<path d="M14.9365 40.998H22.1516V42.5148H14.9365V40.998Z" fill="#E9E9E9"/>
<path d="M37.2903 40.998H22.1516V42.5148H37.2903V40.998" fill="#E2E2E2"/>
<path d="M9.83759 35.2007H45.8902V7.25838H9.83759V35.2007Z" fill="#D1D1D1"/>
<path d="M9.08667 35.2007H45.1395V7.25838H9.08667V35.2007Z" fill="#E0E0E0"/>
<path d="M7.34784 35.2006H45.8902V36.8181H7.34784V35.2006Z" fill="#E2E2E0"/>
<path d="M6.50244 35.2006H43.3828V36.8181H6.50244V35.2006Z" fill="#F3F2F1"/>
<path d="M10.4344 33.7472H43.7916V8.71189H10.4344V33.7472Z" fill="#FAFAF9"/>
<path d="M22.8278 33.7472L32.1686 8.71189H22.6435L13.3026 33.7472H22.8278Z" fill="white"/>
<path d="M29.7138 33.7472L39.0549 8.71189H33.8071L24.466 33.7472H29.7138Z" fill="white"/>
<path d="M27.8639 33.7472V8.71189H26.3621V33.7472H27.8639Z" fill="#F3F2F1"/>
<path d="M11.0021 33.7472V8.71189H10.4344V33.7472H11.0021Z" fill="#D1D1D1"/>
<path d="M28.4315 33.7472V8.71189H27.8639V33.7472H28.4315Z" fill="#D1D1D1"/>
<path d="M59.504 68.109H86.1966V2.69093H59.504V68.109Z" fill="#D6D6D6"/>
<path d="M59.504 68.109H84.9316V2.69093H59.504V68.109Z" fill="#B6B6B6"/>
<path d="M60.8435 66.6245H83.5919V4.17536H60.8435V66.6245Z" fill="#D3D3D3"/>
<path d="M65.7455 34.4041H63.9556C63.4082 34.4041 62.9601 33.956 62.9601 33.4084V33.3035C62.9601 32.7559 63.4082 32.3078 63.9556 32.3078H65.7455C66.2931 32.3078 66.7412 32.7559 66.7412 33.3035V33.4084C66.7412 33.956 66.2931 34.4041 65.7455 34.4041Z" fill="white"/>
<path d="M61.1909 66.6245V4.17536H60.8435V66.6245H61.1909Z" fill="#EDEDEB"/>
<path d="M92.3289 75.1475C92.3289 76.4483 74.2733 77.5029 52 77.5029C29.727 77.5029 11.6711 76.4483 11.6711 75.1475C11.6711 73.8469 29.727 72.7923 52 72.7923C74.2733 72.7923 92.3289 73.8469 92.3289 75.1475Z" fill="#D6D6D6"/>
<path d="M35.0062 20.5136C35.0678 20.749 35.0158 20.9469 34.8899 20.9558C34.7641 20.9647 34.6123 20.7813 34.5505 20.5463C34.4891 20.3108 34.5411 20.1128 34.6668 20.1038C34.7926 20.0949 34.9444 20.2783 35.0062 20.5136Z" fill="white"/>
<path d="M35.309 21.8282C35.3494 22.068 35.2797 22.2604 35.1536 22.2581C35.0276 22.2558 34.8926 22.0595 34.8525 21.8196C34.8121 21.5798 34.8818 21.3872 35.0078 21.3897C35.1339 21.392 35.2689 21.5883 35.309 21.8282Z" fill="white"/>
<path d="M18.5563 74.5505H39.046V62.4794H18.5563V74.5505Z" fill="#006BA4"/>
<path d="M39.0459 74.5505H23.8251V62.4794H29.2566V64.6909H33.6147V62.4794H34.0292H39.0459V68.109V68.161V74.5505M32.5736 73.4034L32.5524 73.9794L35.2212 73.9579L35.4898 72.435V73.4034H37.899V70.9941H35.7435L35.8868 70.1812L32.6922 70.2118V70.2131H32.6903L32.6616 70.9941H32.3712V73.4034H32.5736" fill="#B8D2EF"/>
<path d="M23.8251 74.5505H18.5563V62.4794H20.3451V64.6909H22.0363V62.4794H23.8251V74.5505" fill="#8DB2E2"/>
<path d="M33.6147 64.6909H29.2567V62.4794H33.6147V64.6909Z" fill="#E7F1FA"/>
<path d="M20.3452 64.6909H22.0364V62.4794H20.3452V64.6909Z" fill="#D9E7F7"/>
<path d="M37.8991 73.4034H35.4898V72.435L35.7436 70.9941H37.8991V73.4034" fill="#8DB2E2"/>
<path d="M32.5736 73.4034H32.3712V70.9941H32.6616L32.6125 72.3228H32.6137L32.5736 73.4034" fill="#8DB2E2"/>
<path d="M20.1097 62.4794H34.0292V54.279H20.1097V62.4794Z" fill="#006BA4"/>
<path d="M34.0292 62.4794H30.4499V54.2791H20.1097V62.4794V54.2791H34.0292V54.3681V54.8001V62.4794ZM31.6651 54.2791V55.7814H32.8138V54.2791H31.6651Z" fill="#B8D2EF"/>
<path d="M30.4499 62.4794H20.1097V54.2791H30.4499V62.4794ZM23.0073 60.0633V61.7003H24.644V60.0633H23.0073ZM20.8888 60.0633V61.7003H22.5255V60.0633H20.8888M23.7993 54.2791V55.7814H26.76V54.2791H23.7993Z" fill="#8DB2E2"/>
<path d="M23.7994 55.7814H26.7601V54.279H23.7994V55.7814Z" fill="#D9E7F7"/>
<path d="M31.6651 55.7814H32.8139V54.279H31.6651V55.7814Z" fill="#E7F1FA"/>
<path d="M20.8888 61.7003H22.5256V60.0633H20.8888V61.7003Z" fill="#739CD8"/>
<path d="M23.0073 61.7003H24.644V60.0633H23.0073V61.7003Z" fill="#739CD8"/>
<path d="M44.2557 73.6445H58.2055V65.426H44.2557V73.6445Z" fill="#006BA4"/>
<path d="M58.2055 73.6445H54.6183V70.7142H55.605V68.375H54.6183V65.426H50.3716H58.2055V68.109V68.161V70.753V70.805V73.6445ZM57.1376 71.1481V72.7883H57.7949V71.1481H57.1376ZM56.2869 71.1481V72.7883H56.9441V71.1481H56.2869Z" fill="#B8D2EF"/>
<path d="M54.6183 73.6445H49.192L50.8065 73.2879L50.3583 70.9917L50.6459 70.9294C50.6459 70.9294 50.5249 68.4771 50.3716 65.426H54.6183V68.375H53.6311V70.7142H54.6183V73.6445M47.913 73.6445H44.2557V70.7121H45.0364V68.3729H44.2557V65.426H44.3789C45.6013 69.2143 46.8247 71.757 46.8247 71.757L47.2135 71.6729L47.4413 72.3155L47.4427 72.3151L47.913 73.6445" fill="#8DB2E2"/>
<path d="M44.2555 70.7121H44.2557V68.3729H44.2555V70.7121Z" fill="white"/>
<path d="M44.2557 70.7121H45.0364V68.3729H44.2557V70.7121Z" fill="#D9E7F7"/>
<path d="M54.6183 70.7142H55.6051V68.375H54.6183V70.7142Z" fill="#E7F1FA"/>
<path d="M53.6311 70.7142H54.6182V68.375H53.6311V70.7142Z" fill="#D9E7F7"/>
<path d="M56.2869 72.7883H56.9441V71.1481H56.2869V72.7883Z" fill="#8DB2E2"/>
<path d="M57.1376 72.7883H57.7949V71.1481H57.1376V72.7883Z" fill="#8DB2E2"/>
<path d="M50.0754 69.5428L46.7251 70.2878L48.0058 73.9064L50.8065 73.288L50.0754 69.5428Z" fill="#F89E63"/>
<path d="M47.4413 72.3156L47.2135 71.6729L47.2152 71.6726L47.4427 72.3152L47.4413 72.3156Z" fill="#6F91D2"/>
<path d="M47.4427 72.3151L47.2151 71.6726L50.358 70.9918L50.4849 71.6414L47.4427 72.3151" fill="#DC834C"/>
<path d="M42.1658 55.5127C40.7566 50.6775 37.2457 45.631 39.1835 41.0261L48.8659 40.9978C48.8659 40.9978 49.6461 51.5195 49.8867 55.9915C50.1376 60.6414 50.6459 70.9294 50.6459 70.9294L46.8248 71.757C46.8248 71.757 43.1251 64.0677 42.1658 55.5127" fill="#17282F"/>
<path d="M40.9756 52.2097H40.9752C40.8206 51.8259 40.6636 51.4417 40.5078 51.0575C40.6638 51.4417 40.8208 51.8259 40.9756 52.2097Z" fill="#C3C5C2"/>
<path d="M41.5311 53.6328C41.3541 53.1594 41.1665 52.685 40.9752 52.2097H40.9756C41.1669 52.6847 41.3543 53.1584 41.5314 53.6316C41.5314 53.632 41.5311 53.6326 41.5311 53.6328" fill="#B6B8B6"/>
<path d="M41.5314 53.6315C41.3543 53.1583 41.1669 52.6847 40.9756 52.2096C40.8208 51.8259 40.6638 51.4417 40.5078 51.0575C39.7981 49.3064 39.1134 47.5542 38.7966 45.8297C39.4944 45.2943 40.0674 45.0571 40.5309 45.0571C42.5649 45.0571 42.484 49.6302 41.5314 53.6315" fill="#111D23"/>
<path d="M53.129 72.9643C53.129 72.9643 52.2381 73.3662 51.1455 72.732C51.0249 72.6618 50.8639 72.6855 50.7268 72.7427C50.1658 72.9759 48.6666 73.5469 47.696 73.4253C47.6035 73.4135 47.5234 73.4995 47.5486 73.585C47.7566 74.2918 47.8304 75.1485 47.8304 75.1485L48.7171 74.9597L48.8313 74.6443L49.2997 74.8386C51.2512 74.5218 52.573 74.0969 53.5968 73.7151C53.7287 73.148 53.129 72.9643 53.129 72.9643" fill="#006BA4"/>
<path d="M35.8869 70.1812L32.6922 70.2118L32.5524 73.9794L35.2213 73.9579L35.8869 70.1812Z" fill="#F89E63"/>
<path d="M32.6633 70.9941H32.6616L32.6903 70.2131H32.6922L32.6633 70.9941Z" fill="#8FA5CB"/>
<path d="M32.6125 72.3229L32.6616 70.9941H32.6633L32.6138 72.3229H32.6125" fill="#6F91D2"/>
<path d="M32.6138 72.3229L32.6633 70.9941L32.6922 70.2131L35.886 70.1827L35.5139 72.2977L32.6138 72.3229" fill="#DC834C"/>
<path d="M32.4118 55.5127C32.1545 50.6775 31.8036 43.4445 33.4244 41.2212L43.373 40.998C43.373 40.998 40.6066 51.584 39.5735 56.045C38.5002 60.6836 35.8692 71.6493 35.8692 71.6493L32.4158 71.6583C32.4158 71.6583 31.1135 61.0309 32.4118 55.5127" fill="#17282F"/>
<path d="M47.4618 25.1915L47.6133 25.5521L47.7917 25.9619C47.9172 26.235 48.0413 26.5108 48.1776 26.7781C48.4442 27.3158 48.7381 27.8312 49.0441 28.3098C49.1988 28.5469 49.3576 28.7786 49.5246 28.9883C49.6872 29.2013 49.8534 29.4064 50.0254 29.5851C50.3711 29.9451 50.7173 30.2313 51.0596 30.426L50.3339 30.2652C50.6773 30.3174 51.0392 30.3511 51.4197 30.354C51.7991 30.3574 52.1972 30.3413 52.6028 30.2908C53.0107 30.2477 53.4279 30.1768 53.851 30.0909C54.0621 30.0466 54.2766 30.0015 54.4877 29.9478C54.5948 29.9235 54.7007 29.8968 54.8051 29.8696L54.9611 29.8309C55.0087 29.8203 55.0703 29.7997 55.0957 29.8043L55.8507 29.9387C56.4179 30.0397 56.7961 30.5818 56.6948 31.1492C56.6557 31.3693 56.5502 31.5606 56.4025 31.7069L56.2313 31.8766L56.0764 32.0259C55.9717 32.1212 55.8669 32.2144 55.7604 32.3044C55.5451 32.481 55.3253 32.652 55.0959 32.8095C54.6374 33.126 54.1474 33.4023 53.6286 33.6438C53.1072 33.8755 52.5585 34.0799 51.9784 34.2205C51.4001 34.367 50.7901 34.4489 50.1648 34.4689C49.9807 34.4747 49.8037 34.4446 49.6411 34.3844L49.4391 34.3083C48.97 34.1326 48.5308 33.914 48.1227 33.6687C47.7146 33.4241 47.3526 33.1408 47.0088 32.8517C46.6662 32.5607 46.3592 32.2535 46.0668 31.94C45.7777 31.623 45.5187 31.2965 45.2699 30.9664C45.0203 30.6369 44.7942 30.2993 44.5844 29.9561C44.3743 29.6131 44.1715 29.2695 43.992 28.9161C43.8119 28.5632 43.6376 28.2096 43.4847 27.8443C43.4073 27.6619 43.3308 27.4786 43.2596 27.2906L43.1546 27.0031L43.1024 26.8536L43.0439 26.6735C42.6464 25.4511 43.3156 24.1379 44.538 23.7405C45.6951 23.3644 46.9335 23.9437 47.3997 25.0434L47.4618 25.1915" fill="#F89E63"/>
<path d="M54.8415 32.0087L54.3781 30.7461C54.3926 29.3328 56.2064 29.666 56.2064 29.666L57.5588 29.3654C57.8764 29.3003 58.2059 29.5098 58.3377 29.86L58.6685 30.7405C58.8193 31.1417 58.6583 31.5808 58.3115 31.7137L57.1168 32.1212C56.8901 32.2081 56.6453 32.2377 56.4044 32.2071L54.8415 32.0087Z" fill="#F89E63"/>
<path d="M44.674 21.507C46.6698 22.3394 48.4249 25.9555 48.4249 25.9555C48.3334 26.8288 46.3245 29.2685 44.5511 29.8954C44.5511 29.8954 43.1696 29.3221 42.3018 27.4339C41.1805 24.9937 42.5589 20.6248 44.674 21.507Z" fill="#006BA4"/>
<path d="M43.5512 21.2515C40.9188 20.977 37.403 21.0101 34.675 21.3926C32.9724 21.6314 31.8475 23.2727 32.1824 24.9591C33.5625 31.9099 32.115 39.7049 33.009 41.2582C33.009 41.2582 43.2698 41.3928 49.0071 40.9978C50.5787 33.4539 47.4885 28.8363 45.9343 22.9445C45.6687 21.9375 44.5869 21.3595 43.5512 21.2515Z" fill="#006BA4"/>
<path d="M35.553 26.989C35.2502 27.5276 34.912 28.0993 34.5912 28.6524L33.6309 30.3133C33.4749 30.5879 33.3216 30.8624 33.177 31.1341C33.0279 31.4034 32.8827 31.6724 32.7529 31.9324C32.6213 32.1911 32.5067 32.4488 32.4076 32.6683C32.3604 32.776 32.3184 32.8794 32.2924 32.9466L32.2727 32.9942L32.262 33.0127C32.2494 33.04 32.2575 32.9857 32.2448 32.9603L32.234 32.7459C32.229 33.1017 32.3047 33.6118 32.4091 34.1249C32.5175 34.6434 32.6496 35.1903 32.806 35.7388C32.9551 36.2912 33.1219 36.8499 33.2902 37.4146C33.4545 37.9771 33.638 38.5563 33.7896 39.1152L33.8033 39.1658C33.9737 39.7935 33.6028 40.4406 32.9749 40.6112C32.5258 40.7331 32.0661 40.5766 31.7789 40.2486C31.3435 39.7498 30.9733 39.2533 30.6047 38.7296C30.4258 38.4675 30.2455 38.204 30.0749 37.9336C29.9062 37.6621 29.7405 37.387 29.5776 37.1068C29.2631 36.5414 28.9569 35.9592 28.6919 35.3271C28.4282 34.6894 28.1867 34.0251 28.0492 33.177C28.0424 33.1356 28.0388 33.0943 28.0384 33.0535L28.038 32.9626C28.0369 32.7706 28.0459 32.5485 28.0652 32.4112C28.074 32.3353 28.0835 32.25 28.0944 32.1822L28.1291 31.985C28.1776 31.7262 28.2331 31.5093 28.2905 31.2996C28.4036 30.8847 28.5395 30.5219 28.6722 30.1667C28.8065 29.8122 28.9467 29.4763 29.0896 29.1439C29.2365 28.8138 29.3879 28.4931 29.541 28.1746C29.8447 27.5373 30.175 26.9248 30.5113 26.3189C30.8549 25.7113 31.1965 25.131 31.5946 24.5305C32.3057 23.4574 33.7522 23.1641 34.8252 23.8755C35.848 24.5534 36.1623 25.8995 35.5732 26.9535L35.553 26.989" fill="#F89E63"/>
<path d="M33.6078 21.7932C31.6353 22.6793 29.988 26.2644 29.988 26.2644C30.1806 27.5084 32.9744 30.1825 34.4342 30.685C34.4342 30.685 35.6541 29.613 36.2209 27.1132C36.8726 24.2397 34.6765 22.023 33.6078 21.7932" fill="#006BA4"/>
<path d="M42.1539 21.7639C42.0256 21.4864 41.6493 21.061 41.2582 20.916C41.1195 20.5753 41.1008 20.1947 41.2281 19.7488L36.8547 18.3562C37.2083 19.8018 37.4847 20.9441 36.9472 21.6463C37.8069 22.1709 39.3821 23.1132 41.1 23.0643C42.8178 23.0152 42.4339 22.3702 42.1539 21.7639" fill="#F89E63"/>
<path d="M41.2023 20.7545C41.159 20.6026 41.1387 20.4425 41.1432 20.2725C41.1389 20.4422 41.1595 20.6022 41.2025 20.7545C41.2025 20.7545 41.2025 20.7545 41.2023 20.7545Z" fill="#BFC0BE"/>
<path d="M40.4795 20.9312C39.7939 20.9312 38.9091 20.5936 38.1938 19.9651C38.9478 20.3623 39.5905 20.5383 40.128 20.5383C40.5221 20.5383 40.8597 20.4437 41.1432 20.2725C41.1387 20.4424 41.159 20.6026 41.2023 20.7544C41.013 20.8734 40.7632 20.9314 40.4795 20.9312" fill="#DC834C"/>
<path d="M41.2025 23.0601L40.4928 22.4694L39.5389 22.9478C39.5389 22.9478 40.148 23.5186 41.2025 23.0601" fill="#006BA4"/>
<path d="M40.4096 23.2383C39.8491 23.2383 39.5389 22.9478 39.5389 22.9478L40.4928 22.4694L41.2025 23.0601C40.9003 23.1915 40.6347 23.2383 40.4096 23.2383" fill="#2D5BB2"/>
<path d="M42.1158 14.7014C42.1716 15.584 41.6037 16.3382 40.8472 16.386C40.0909 16.4339 39.4324 15.7573 39.3767 14.8745C39.3207 13.992 39.8888 13.2378 40.6451 13.1899C41.4015 13.1421 42.0601 13.8189 42.1158 14.7014Z" fill="#17282F"/>
<path d="M42.7342 17.8514C42.79 18.7339 42.2221 19.4881 41.4656 19.536C40.7091 19.584 40.0508 18.9072 39.9951 18.0247C39.9391 17.1421 40.5072 16.3877 41.2635 16.3399C42.02 16.292 42.6785 16.9688 42.7342 17.8514Z" fill="#17282F"/>
<path d="M36.1311 15.995C36.5028 17.9123 36.7994 19.208 38.1065 19.9183C40.7033 21.3296 42.0071 20.1537 42.2588 18.1807C42.4855 16.4047 41.8398 13.5678 39.7101 12.9931C37.6118 12.427 35.7596 14.0776 36.1311 15.995" fill="#F89E63"/>
<path d="M41.2015 17.4889C43.4389 17.025 43.1257 19.2061 42.5886 19.9888C42.1129 20.6821 41.0869 21.2807 39.301 20.5383C37.4467 19.7675 37.9407 18.4413 37.3493 17.6405C37.1347 17.3495 37.6072 16.1543 37.9111 16.7804C38.5644 18.1264 40.2727 17.1222 41.2015 17.4889" fill="#17282F"/>
<path d="M36.9716 17.6621C38.0189 18.2882 38.1651 17.2322 37.9111 16.7804C38.3211 16.2962 38.6809 14.6488 37.5276 14.4918C38.0836 14.6378 39.8472 14.4776 39.5568 13.4189C40.227 14.0236 42.2434 14.383 42.1167 13.311C41.9318 11.7453 39.5389 10.4064 37.9111 11.7453C35.9457 10.6872 33.6567 12.8789 34.823 13.8832C33.3247 14.1989 33.6567 16.426 34.5151 16.7093C33.8512 17.8672 36.4909 19.3787 36.9716 17.6621" fill="#17282F"/>
<path d="M38.7238 16.0695C38.6437 16.0695 38.5569 16.0645 38.4667 16.0518C38.5904 15.9765 38.7298 15.9538 38.8538 15.9538C39.0472 15.9538 39.203 16.0096 39.203 16.0096C39.203 16.0096 39.0025 16.0695 38.7238 16.0695Z" fill="#DC834C"/>
<path d="M38.5645 16.3892C38.729 16.2078 38.9763 16.1807 39.1092 16.1807C39.1656 16.1807 39.2011 16.1855 39.2011 16.1855C39.2011 16.1855 38.9324 16.3561 38.5645 16.3892" fill="#DC834C"/>
<path d="M39.5283 14.197C39.4503 14.197 39.3705 14.1966 39.2891 14.1958C39.3001 14.1877 39.311 14.1791 39.3216 14.1706C39.6176 14.1346 39.9275 14.1234 40.1995 14.1234C40.653 14.1234 41.0008 14.1546 41.0008 14.1546C41.0008 14.1546 40.3749 14.197 39.5283 14.197Z" fill="#DC834C"/>
<path d="M39.2891 14.1958C39.2442 14.1954 39.199 14.1948 39.1533 14.1941C39.2086 14.1854 39.2648 14.1775 39.3216 14.1706C39.311 14.1792 39.3001 14.1877 39.2891 14.1958Z" fill="#111D23"/>
<path d="M39.1853 14.6378C39.8568 14.3873 41.2689 14.3455 41.2689 14.3455C41.2689 14.3455 40.4327 14.5348 39.1853 14.6378Z" fill="#DC834C"/>
<path d="M35.5713 18.1621C35.9166 18.6076 36.4366 18.8502 36.8986 18.8984C37.5937 18.9712 37.7493 18.4071 37.5194 17.7875C37.3125 17.2301 36.6161 16.5041 35.963 16.708C35.3196 16.9091 35.1765 17.6527 35.5713 18.1621Z" fill="#F89E63"/>
<path d="M39.8083 16.0362C39.8262 16.2057 39.9306 16.3328 40.0414 16.3201C40.1523 16.3074 40.2276 16.1595 40.2097 15.99C40.1918 15.8205 40.0874 15.6934 39.9766 15.7061C39.8657 15.7188 39.7902 15.8665 39.8083 16.0362Z" fill="#17282F"/>
<path d="M41.5657 15.8947C41.5836 16.0645 41.688 16.1916 41.7991 16.1789C41.9099 16.166 41.9852 16.0183 41.9673 15.8488C41.9492 15.6793 41.8448 15.552 41.7339 15.5649C41.6231 15.5775 41.5478 15.7252 41.5657 15.8947Z" fill="#17282F"/>
<path d="M41.0007 16.0694L41.2015 17.4888C41.2015 17.4888 41.4517 17.509 41.7021 17.4364C41.8465 17.3946 41.8785 17.1999 41.7585 17.1098C41.3394 16.7947 41.0007 16.0694 41.0007 16.0694Z" fill="#F57739"/>
<path d="M38.9012 15.5921L38.8532 15.5761C38.807 15.5457 38.7945 15.4837 38.8251 15.4374C39.1319 14.9729 39.5945 14.9675 39.614 14.9675C39.6696 14.9673 39.7139 15.0122 39.7134 15.0675C39.7128 15.1229 39.6679 15.1676 39.6128 15.1678C39.5976 15.168 39.2369 15.1761 38.9921 15.5468C38.9713 15.5782 38.9362 15.5942 38.9012 15.5921" fill="#17282F"/>
<path d="M42.2103 15.3974C42.1778 15.4003 42.1447 15.3876 42.1231 15.3606C41.8481 15.0164 41.4885 15.0455 41.4733 15.0467C41.4184 15.0519 41.3699 15.0116 41.3649 14.9569C41.3602 14.902 41.4003 14.8531 41.4552 14.8473C41.475 14.8458 41.9355 14.8034 42.2801 15.2346C42.3145 15.2776 42.3072 15.3406 42.2637 15.3756C42.2479 15.3885 42.229 15.3955 42.2103 15.3974Z" fill="#17282F"/>
<path d="M37.1605 20.7112C37.1605 20.7112 38.656 22.3816 40.4928 22.4694C39.4237 22.9759 38.6533 24.0621 38.6533 24.0621C38.6533 24.0621 36.7029 23.5855 36.27 21.148C36.556 20.8025 37.1605 20.7112 37.1605 20.7112" fill="#E7E8E5"/>
<path d="M41.2025 23.0601L42.0069 22.34L43.031 22.6439C43.031 22.6439 42.2573 23.5185 41.2025 23.0601" fill="#006BA4"/>
<path d="M41.8188 23.193C41.6285 23.193 41.422 23.1553 41.2031 23.0603C41.2029 23.0603 41.2027 23.0603 41.2025 23.0601L42.0069 22.34L43.031 22.6439C43.031 22.6439 42.5452 23.193 41.8188 23.193" fill="#2D5BB2"/>
<path d="M41.2582 20.916C41.2582 20.916 41.9729 21.7435 42.0068 22.34C42.8559 22.6693 43.6413 23.7461 43.6413 23.7461C43.6413 23.7461 43.4362 22.0417 42.0884 21.0712C41.761 20.8557 41.2582 20.916 41.2582 20.916" fill="#E7E8E5"/>
<path d="M32.1002 75.1456H32.7945L32.9826 74.864L33.3472 75.1485H37.5378C37.6199 74.7321 37.3589 74.1886 37.3589 74.1886C37.3589 74.1886 36.1057 74.0746 35.6237 73.4498C35.5865 73.4017 35.5285 73.3755 35.469 73.388C35.0517 73.4754 33.394 73.7888 32.4815 73.4603C32.3827 73.4248 32.2783 73.492 32.2766 73.597C32.2654 74.3188 32.1002 75.1456 32.1002 75.1456" fill="#006BA4"/>
<path d="M54.5126 30.222C55.0019 29.1766 56.04 29.1554 56.8375 28.8868C56.9729 28.8413 57.2148 29.1354 57.0613 29.344C56.7925 29.7093 56.5843 29.8139 56.3056 29.8821C56.2944 30.243 55.9077 31.2137 54.8885 31.1904C54.5066 30.8248 54.5126 30.222 54.5126 30.222Z" fill="#F89E63"/>
<path d="M41.5351 18.1293C41.5351 18.1293 40.955 17.9961 39.3187 17.9749C39.4803 18.3223 39.9009 18.5825 40.7385 18.6085C41.4118 18.6293 41.5351 18.1293 41.5351 18.1293Z" fill="white"/>
<path d="M33.3642 38.6782L32.1287 39.2101C31.1126 40.1924 32.6017 41.2803 32.6017 41.2803L33.1065 42.0925C33.2775 42.3679 33.6563 42.4632 34.0011 42.318L34.8679 41.9527C35.2628 41.7865 35.4711 41.3676 35.3292 41.0244L35.0103 40.2532C34.9178 40.0287 34.7707 39.8307 34.5831 39.6768L33.3642 38.6782" fill="#F89E63"/>
<path d="M73.756 19.6812C72.4911 17.6405 72.9905 16.437 74.3818 16.1966L79.9388 18.2867C81.9135 20.6723 78.0622 20.534 80.2 22.4345C82.3378 24.3346 76.1742 26.7532 73.1451 24.2699C70.1158 21.7866 75.021 21.7217 73.756 19.6812" fill="#17282F"/>
<path d="M82.2507 73.4793L83.9975 73.0935C83.7539 71.426 83.6645 69.4949 83.4596 68.4674L81.4449 68.7488L82.2507 73.4793" fill="#F9A8B3"/>
<path d="M69.4321 73.762L71.0767 73.7473C71.2277 72.079 71.8149 70.0993 71.8696 69.0518L69.8402 69.0019L69.4321 73.762Z" fill="#F9A8B3"/>
<path d="M81.0638 75.1467C82.4535 74.8517 82.3486 74.8517 83.1236 74.6597C83.7872 74.494 83.9648 74.5435 84.4996 74.4176C84.9464 74.3128 84.8384 73.8866 84.595 73.4217C84.4896 73.2197 84.3469 72.9826 84.1934 72.6758C84.1499 72.5889 84.054 72.541 83.9588 72.5613L82.1296 72.9493C82.0558 72.9652 81.9984 73.0199 81.9734 73.0912C81.7762 73.6497 81.307 74.1314 80.5954 74.3854C79.8693 74.6441 80.5099 75.2642 81.0638 75.1467" fill="#17282F"/>
<path d="M67.2869 75.1466C68.3018 75.1466 68.9728 75.0549 69.7609 75.0281C70.4365 75.0038 70.5286 75.1466 71.2102 75.1466C71.662 75.1466 71.7899 74.6381 71.6739 74.2566C71.5953 73.9985 71.4563 73.6962 71.3922 73.3684C71.3748 73.2786 71.2953 73.2185 71.2021 73.2185H69.3129C69.243 73.2185 69.1775 73.2545 69.1315 73.3106C68.6724 73.8739 68.1458 74.2841 67.1322 74.3558C66.3686 74.4119 66.7278 75.1466 67.2869 75.1466" fill="#17282F"/>
<path d="M70.7579 37.0923C70.7579 37.0923 70.0093 47.1372 70.3057 53.5159C69.9881 59.5045 69.5305 71.5916 69.5305 71.5916C69.5627 71.8975 71.1745 71.7756 71.4555 71.5916C71.4555 71.5916 74.931 63.2297 74.0503 53.5159C77.8671 43.3853 77.4407 37.0923 77.4407 37.0923H70.7579" fill="#056294"/>
<path d="M75.1864 50.2395C75.1864 50.2393 75.1864 50.2391 75.1862 50.2391C75.3126 49.8393 75.4314 49.4489 75.5443 49.0649C75.4316 49.4487 75.3124 49.8403 75.1864 50.2395" fill="#B6B8B6"/>
<path d="M75.1862 50.2391C74.4811 48.2818 74.2088 45.6878 74.3005 43.4217C74.718 45.142 75.1752 47.0296 75.6109 48.8361C75.5891 48.9122 75.5668 48.9884 75.5444 49.0649C75.4314 49.4489 75.3127 49.8393 75.1862 50.2391" fill="#3563B7"/>
<path d="M72.7617 37.0922C72.7617 37.0922 75.5256 48.4299 76.8493 53.9972C78.2396 59.8441 81.0896 67.5364 81.6724 71.3833C82.0381 71.5033 83.1846 71.2721 83.783 70.9353C83.783 70.9353 84.2868 59.8846 80.9263 54.2558C81.6849 40.4057 78.4254 37.0922 78.4254 37.0922H72.7617" fill="#006BA4"/>
<path d="M81.345 70.626C81.3796 70.8188 81.4328 71.1564 81.4372 71.4218C81.4388 71.5177 81.5189 71.5897 81.6144 71.5849C82.4133 71.5445 83.4933 71.1281 83.8346 70.9889C83.8999 70.9623 83.94 70.8974 83.9363 70.8269L83.8964 70.0725C83.891 69.9693 83.7938 69.8961 83.6931 69.9196L81.4711 70.4361C81.3848 70.4561 81.3294 70.5388 81.345 70.626Z" fill="#17282F"/>
<path d="M81.6055 71.585C81.514 71.585 81.4387 71.5146 81.4372 71.4218C81.4328 71.1564 81.3796 70.8187 81.3451 70.626C81.3432 70.6164 81.3423 70.6069 81.3423 70.5975C81.3419 70.5215 81.3943 70.4539 81.4711 70.4361L83.6932 69.9196C83.7059 69.9165 83.7185 69.9153 83.731 69.9153C83.8169 69.9153 83.8918 69.9824 83.8964 70.0725L83.9363 70.8269C83.9365 70.8298 83.9365 70.8325 83.9365 70.8352C83.9367 70.9024 83.8972 70.9634 83.8346 70.9889C83.8126 70.9978 83.7876 71.0081 83.7599 71.0191C83.4092 71.1586 82.6149 71.4534 81.9227 71.5537C81.817 71.569 81.7136 71.5798 81.6144 71.5849C81.6115 71.585 81.6084 71.585 81.6055 71.585Z" fill="#2B3C43"/>
<path d="M69.3495 70.7476C69.3339 70.9556 69.3045 71.3263 69.2725 71.6002C69.2619 71.6909 69.3256 71.7708 69.416 71.7833C70.0929 71.8771 71.1832 71.792 71.5412 71.7595C71.6121 71.7531 71.6703 71.7022 71.6868 71.6329L71.8648 70.8872C71.8894 70.7855 71.8145 70.6867 71.7101 70.6826L69.5215 70.5954C69.4321 70.5918 69.3561 70.6584 69.3495 70.7476" fill="#17282F"/>
<path d="M70.1919 71.8259C69.9157 71.8259 69.6425 71.8147 69.416 71.7833C69.3324 71.7717 69.2715 71.7024 69.2713 71.6202C69.2713 71.6135 69.2717 71.6069 69.2725 71.6002C69.3045 71.3263 69.3339 70.9557 69.3495 70.7477C69.3559 70.6607 69.4283 70.5952 69.5146 70.5952C69.5169 70.5952 69.5192 70.5954 69.5215 70.5954L71.7101 70.6826C71.801 70.6863 71.8694 70.7615 71.8696 70.8481C71.8696 70.861 71.8679 70.8741 71.8648 70.8872L71.6868 71.6329C71.6703 71.7022 71.6121 71.7531 71.5412 71.7596C71.303 71.7812 70.7408 71.8259 70.1919 71.8259" fill="#2B3C43"/>
<path d="M73.0049 28.1422L72.8676 28.3706L72.7401 28.5713C72.6552 28.7036 72.5656 28.8278 72.4776 28.9542C72.3002 29.2042 72.1115 29.4434 71.9201 29.6793C71.5337 30.1479 71.1216 30.5939 70.6767 31.0093C70.4596 31.2214 70.2249 31.4174 69.9968 31.6185C69.7551 31.8065 69.5225 32.0029 69.2694 32.1776C68.7808 32.546 68.245 32.8569 67.7054 33.1529L67.632 33.1931C67.4307 33.3035 67.2087 33.3405 66.9974 33.3135C66.6627 33.2708 66.3376 33.1889 66.0394 33.0662C65.7403 32.9447 65.473 32.787 65.2284 32.6175C64.9821 32.4486 64.7691 32.2568 64.5753 32.0588C64.3812 31.8606 64.2058 31.6563 64.0505 31.4446C63.7381 31.0211 63.488 30.5812 63.28 30.1311C63.1756 29.9062 63.0847 29.6776 63.0009 29.4474C62.9175 29.2115 62.8503 28.9921 62.784 28.7263C62.6935 28.3641 62.9137 27.9972 63.2759 27.9067C63.5558 27.8368 63.8385 27.9525 63.9943 28.1759L64.0332 28.232C64.1376 28.3826 64.2651 28.5694 64.3872 28.734C64.5093 28.9037 64.6381 29.068 64.7674 29.2275C65.0277 29.5458 65.2987 29.8443 65.582 30.0957C65.8597 30.3522 66.1561 30.556 66.4314 30.6908C66.71 30.8289 66.9635 30.8734 67.1881 30.8722L66.4801 31.0328C66.8936 30.7505 67.3007 30.4612 67.6836 30.1323C68.0697 29.8097 68.4384 29.4622 68.7906 29.0965C69.1417 28.7306 69.482 28.351 69.7979 27.9531C69.9579 27.7559 70.1093 27.5529 70.2601 27.352L70.476 27.0489L70.5788 26.9006L70.663 26.7742L70.7173 26.6926C71.1325 26.0703 71.9734 25.9024 72.5959 26.3174C73.1993 26.7201 73.3739 27.5263 73.0049 28.1422" fill="#F9A8B3"/>
<path d="M72.6746 25.4205C71.2354 25.3822 69.8412 26.7238 68.9591 28.24C69.161 29.209 71.344 30.81 71.344 30.81C71.344 30.81 74.5692 27.6998 72.6746 25.4205" fill="#17282F"/>
<path d="M70.3236 28.0656C70.3003 28.8194 70.2693 29.7735 70.3739 31.5732C70.4332 33.0963 70.5378 34.5952 70.7579 37.0922H78.4254C78.2712 34.9324 78.5229 32.4709 79.8999 27.611C80.219 26.484 79.5072 25.402 78.3705 25.2866C78.0666 25.2558 77.7444 25.23 77.4139 25.2142C76.1282 25.1518 75.0741 25.1106 73.9319 25.2142C73.5534 25.2485 73.1613 25.2961 72.7865 25.3481C71.4332 25.5362 70.3652 26.7145 70.3236 28.0656Z" fill="#17282F"/>
<path d="M77.1694 21.2935C76.8664 22.4138 76.4943 24.4666 77.2223 25.2141C77.2223 25.2141 76.1613 25.0548 73.9084 26.448C73.2559 25.5124 73.7406 25.2141 73.7406 25.2141C75.0121 24.9159 75.0487 23.989 74.896 23.1185L77.1694 21.2935Z" fill="#F9A8B3"/>
<path d="M74.3818 26.1674C75.124 26.2731 75.3563 27.3938 75.3563 27.3938C75.3563 27.3938 77.1385 26.1333 77.7034 25.2443C77.4388 25.1056 77.0523 24.831 77.0523 24.831C77.0523 24.831 74.8151 25.7392 74.3818 26.1674Z" fill="white"/>
<path d="M73.6767 26.0482C73.6767 26.0482 73.0357 26.2209 72.8035 27.1226C72.6338 25.4887 73.397 25.2106 73.397 25.2106C73.397 25.2106 73.6297 25.0446 74.0678 25.1137C73.4793 25.4242 73.6767 26.0482 73.6767 26.0482Z" fill="white"/>
<path d="M74.9584 23.7357C74.9584 23.7201 74.9584 23.7045 74.958 23.6889C74.9584 23.7045 74.9586 23.7201 74.9588 23.7355C74.9586 23.7355 74.9584 23.7357 74.9584 23.7357ZM74.8973 23.1178C74.8973 23.1178 74.8973 23.1175 74.8971 23.1175L75.0302 23.011L74.8973 23.1178Z" fill="#111D23"/>
<path d="M74.9588 23.7355C74.9586 23.7201 74.9584 23.7045 74.958 23.6889C74.9551 23.5006 74.9312 23.3078 74.8973 23.1177L75.0302 23.011L76.2426 22.0382C76.2747 22.1543 76.2672 22.3939 76.2235 22.6431C76.1355 23.1427 75.4412 23.6664 74.9588 23.7355" fill="#D8898C"/>
<path d="M78.126 19.0451C77.7862 20.8541 77.6805 21.6249 76.6484 22.4925C75.0959 23.7975 72.9626 23.1071 72.7588 21.263C72.5751 19.6032 73.1619 16.9237 75.0258 16.3265C76.8622 15.7381 78.4659 17.2363 78.126 19.0451Z" fill="#F9A8B3"/>
<path d="M78.1718 19.995C77.0852 20.4262 76.3726 18.6931 76.6965 17.4946C74.807 18.3747 71.7082 17.098 72.1754 15.8427C72.874 16.3691 73.2938 16.1965 73.2938 16.1965C73.2938 16.1965 79.1419 12.4579 78.6885 15.7618C81.9586 17.0637 80.1168 19.3693 78.1718 19.995Z" fill="#17282F"/>
<path d="M74.0162 14.7172C73.7083 14.9196 73.9161 15.7348 75.5167 15.0043L76.1134 14.8547C74.8016 15.9966 73.6052 16.7498 72.9726 16.2801C72.3399 15.8103 72.858 14.5067 74.0162 14.7172" fill="#17282F"/>
<path d="M75.2606 19.3465C75.2388 19.4996 75.1414 19.6179 75.0435 19.6106C74.9453 19.6034 74.8837 19.4734 74.9058 19.3205C74.9276 19.1674 75.025 19.049 75.1229 19.0563C75.2209 19.0636 75.2827 19.1936 75.2606 19.3465Z" fill="#17282F"/>
<path d="M73.413 19.2377C73.3911 19.3906 73.2938 19.5089 73.1958 19.5016C73.0978 19.4946 73.0361 19.3646 73.0581 19.2115C73.0802 19.0584 73.1773 18.9402 73.2753 18.9475C73.3732 18.9546 73.435 19.0846 73.413 19.2377Z" fill="#17282F"/>
<path d="M73.3173 18.959L72.9727 18.8265C72.9727 18.8265 73.1162 19.1272 73.3173 18.959Z" fill="#17282F"/>
<path d="M73.891 19.4509C73.891 19.4509 73.542 20.0912 73.2164 20.3884C73.3872 20.5916 73.736 20.5302 73.736 20.5302L73.891 19.4509" fill="#F46878"/>
<path d="M74.517 21.2349C74.4374 21.2432 74.3525 21.2451 74.2624 21.2385C74.2383 21.2368 74.2213 21.2152 74.225 21.1902C74.2285 21.1657 74.2504 21.1469 74.2755 21.1486C74.9328 21.1975 75.3081 20.7505 75.3118 20.7461C75.328 20.7262 75.3561 20.7222 75.3744 20.7374C75.3929 20.7524 75.3948 20.7809 75.3784 20.8004C75.3642 20.8179 75.0622 21.1779 74.517 21.2349" fill="#17282F"/>
<path d="M78.4952 20.3931C78.301 20.7594 77.9912 20.9805 77.7098 21.0479C77.2863 21.1492 77.1156 20.6623 77.2676 20.1839C77.4043 19.7531 77.7895 19.1815 78.1982 19.2963C78.6007 19.4097 78.7176 19.9744 78.4952 20.3931" fill="#F9A8B3"/>
<path d="M75.7939 18.2859C75.7667 18.2863 75.7399 18.2773 75.7207 18.259C75.4231 17.9728 75.0445 18.0352 75.0401 18.0359C74.984 18.0452 74.9318 18.0144 74.9245 17.9653C74.9176 17.9167 74.958 17.8693 75.0148 17.8593C75.0347 17.8557 75.51 17.7771 75.8794 18.1324C75.9162 18.1679 75.9106 18.2249 75.8669 18.2601C75.8457 18.2767 75.8195 18.2855 75.7939 18.2859" fill="#17282F"/>
<path d="M77.7417 41.1251C79.421 40.1787 81.0231 38.6664 82.581 36.8322C80.7999 34.3212 78.9963 32.0936 77.1278 30.685C75.4973 32.3927 73.8812 33.8693 72.2885 34.9777C74.0896 36.4859 75.9131 38.7246 77.7417 41.1251Z" fill="white"/>
<path d="M72.9693 18.2859C72.9473 18.289 72.9246 18.2842 72.9063 18.2701C72.8686 18.2412 72.8632 18.185 72.8946 18.1445C73.2085 17.7384 73.6172 17.7505 73.6347 17.7513C73.6836 17.7534 73.7185 17.7954 73.7129 17.8451C73.7073 17.8949 73.6632 17.9333 73.6147 17.9315C73.5985 17.9308 73.2813 17.9261 73.0317 18.2489C73.0155 18.2699 72.9928 18.2824 72.9693 18.2859" fill="#17282F"/>
<path d="M78.6895 41.1416L83.059 37.2258C83.2056 37.0945 83.2181 36.8672 83.0868 36.7205L77.8721 30.9017C77.7406 30.7553 77.5133 30.7428 77.3668 30.8741L72.9974 34.7899C72.851 34.9213 72.8385 35.1487 72.9697 35.2951L78.1845 41.1139C78.3157 41.2605 78.5431 41.2728 78.6895 41.1416" fill="#006BA4"/>
<path d="M78.4512 41.2325C78.3528 41.2325 78.2548 41.1925 78.1845 41.1139L78.0387 40.9515L72.9697 35.2951C72.9086 35.2271 72.8786 35.1414 72.8788 35.0561C72.8791 34.958 72.919 34.8602 72.9974 34.7899L77.3669 30.8741C77.4349 30.8131 77.5202 30.7832 77.6052 30.7832C77.7036 30.7832 77.8016 30.8233 77.8721 30.9017L83.0869 36.7205C83.1478 36.7888 83.1778 36.8743 83.1775 36.9595C83.1775 37.0577 83.1374 37.1555 83.059 37.2258L78.6895 41.1416C78.6215 41.2025 78.5362 41.2325 78.4512 41.2325" fill="#7DA6DD"/>
<path d="M75.165 19.068L74.8201 18.9355C74.8201 18.9355 74.9636 19.2363 75.165 19.068Z" fill="#17282F"/>
<path d="M75.4312 38.4567L75.5938 37.9084C75.655 37.7021 75.812 37.5382 76.0157 37.4683L76.9664 37.1415C77.3466 37.0109 77.7664 37.0725 78.0932 37.3067L78.2953 37.4517C78.0875 38.3798 77.1794 39.2299 77.1794 39.2299L76.9473 39.5009C76.7405 39.742 76.3994 39.7765 76.1635 39.5799L75.6207 39.1271C75.4333 38.9707 75.3577 38.704 75.4312 38.4567" fill="#F9A8B3"/>
<path d="M62.4703 26.7584L63.0354 26.8472C63.248 26.8805 63.4313 27.0144 63.5276 27.2068L63.9773 28.106C64.1572 28.4656 64.1518 28.8899 63.9629 29.2446L63.8458 29.4642C62.8984 29.3814 61.9357 28.5938 61.9357 28.5938L61.6364 28.3997C61.3698 28.2266 61.2905 27.893 61.4542 27.6332L61.8311 27.0352C61.9613 26.8285 62.2155 26.7184 62.4703 26.7584" fill="#F9A8B3"/>
<path d="M60.9076 30.0506L60.8677 30.0298C60.8616 30.0209 60.7179 29.8099 60.7653 29.5624C60.7946 29.4079 60.8914 29.2754 61.0524 29.1683C61.0742 29.1537 61.1046 29.1595 61.1195 29.182C61.1343 29.2042 61.1283 29.2344 61.1058 29.2494C60.9679 29.3411 60.8855 29.4522 60.861 29.5799C60.8209 29.7869 60.9465 29.9726 60.9477 29.9745C60.9629 29.9965 60.9571 30.0267 60.9353 30.0421L60.9076 30.0506" fill="#DADBD8"/>
<path d="M60.9721 29.1549C61.0332 29.2217 61.1366 29.2257 61.2028 29.1653C61.2695 29.1042 61.2743 29.0019 61.2132 28.9349C61.1528 28.8687 61.0503 28.8642 60.9833 28.9251C60.9174 28.9856 60.9118 29.0888 60.9721 29.1549V29.1549ZM61.9734 27.4753L62.7357 28.3105C62.7831 28.3623 62.7796 28.4423 62.7276 28.4898L61.7059 29.4224C61.6749 29.4507 61.6319 29.4624 61.5905 29.4526L60.9282 29.2916C60.8783 29.2789 60.8408 29.2379 60.8327 29.187L60.7327 28.5128C60.7266 28.4708 60.7414 28.4282 60.7724 28.3999L61.7941 27.4672C61.8461 27.4198 61.9262 27.4233 61.9734 27.4753" fill="#17282F"/>
<path d="M60.8396 30.3172C60.9269 30.3362 61.0124 30.2811 61.0311 30.1937C61.0501 30.1063 60.9952 30.0211 60.9078 30.0021C60.8202 29.9832 60.735 30.0381 60.716 30.1257C60.6971 30.213 60.7522 30.2985 60.8396 30.3172V30.3172ZM60.9269 29.9127C61.1797 29.9674 61.3423 30.2172 61.2878 30.4699C61.2454 30.6654 61.0859 30.806 60.8991 30.8333L60.663 31.9255L60.5567 31.9941L60.4766 31.8675L60.4756 31.6424L60.5351 31.4685L60.5122 31.3541L60.5438 31.1979L60.5538 31.0509L60.5534 30.9514L60.5775 30.7657C60.4163 30.6652 60.3252 30.4705 60.3682 30.2711C60.423 30.0186 60.6744 29.8582 60.9269 29.9127" fill="#006BA4"/>
<path d="M60.9076 30.0506L60.866 30.0271C60.8523 30.0042 60.8598 29.9743 60.8826 29.9605C60.8845 29.9593 61.0757 29.842 61.1245 29.6369C61.1549 29.5104 61.1256 29.3752 61.0378 29.2346C61.0237 29.2117 61.0305 29.1818 61.0532 29.1676C61.0769 29.1535 61.1065 29.1606 61.1204 29.183C61.2227 29.3469 61.2558 29.5077 61.2188 29.6604C61.1597 29.9054 60.9417 30.0383 60.9326 30.0437L60.9076 30.0506" fill="#DADBD8"/>
<path d="M80.637 27.2609C80.7059 27.41 80.7523 27.5169 80.8043 27.6405C80.855 27.7601 80.8997 27.8799 80.9457 27.9989C81.0374 28.237 81.1154 28.4781 81.1936 28.7188C81.3434 29.2022 81.4722 29.6922 81.5707 30.1914C81.6754 30.6889 81.7473 31.1969 81.7912 31.7108C81.8445 32.2227 81.842 32.7481 81.8253 33.2719L81.8224 33.3617C81.8206 33.4185 81.8114 33.4772 81.7979 33.53C81.7005 33.898 81.5712 34.1688 81.4333 34.4159C81.2951 34.6601 81.1498 34.8743 81.0015 35.0792C80.7061 35.4883 80.3856 35.8421 80.0625 36.1845C79.7351 36.5231 79.3988 36.8414 79.0508 37.1442C78.6995 37.4471 78.3503 37.7326 77.9624 38.007C77.6554 38.2239 77.2306 38.1509 77.0137 37.8439C76.8444 37.6047 76.8514 37.2938 77.0081 37.0656L77.0183 37.051L77.7564 35.9811C78 35.6241 78.2415 35.2695 78.4657 34.9138C78.6941 34.5625 78.904 34.2041 79.0827 33.8641C79.1708 33.6943 79.2505 33.5261 79.3079 33.3723C79.3637 33.2211 79.4044 33.0793 79.4042 33.014L79.3766 33.2719C79.342 32.8602 79.2983 32.4488 79.2235 32.033C79.149 31.6189 79.0606 31.2033 78.9518 30.7892C78.8416 30.3761 78.7249 29.962 78.5887 29.5541C78.5221 29.3498 78.4499 29.1474 78.379 28.9465L78.2694 28.6495L78.1668 28.381L78.1402 28.3113C77.8735 27.6122 78.2238 26.8289 78.9231 26.562C79.5922 26.3068 80.3402 26.6209 80.637 27.2609" fill="#F9A8B3"/>
<path d="M78.4418 25.2959C79.69 25.4887 80.1904 25.8683 81.2103 28.377C80.7473 29.3126 78.5801 30.2074 78.5801 30.2074C78.5801 30.2074 76.8493 27.5036 78.4418 25.2959Z" fill="#17282F"/>
</g>
<defs>
<clipPath id="clip0_302_109">
<rect width="104" height="77.5029" fill="white"/>
</clipPath>
</defs>
</svg>
