<svg width="96" height="59" viewBox="0 0 96 59" fill="none" xmlns="http://www.w3.org/2000/svg">
<g clip-path="url(#clip0_5_312)">
<path d="M57.9261 52.1031L54.4633 53.032L57.9512 50.8872C57.8762 47.4679 56.6827 43.9224 56.6827 43.9224C56.6827 43.9224 49.2287 46.0819 47.2724 49.8213C45.316 53.5607 46.856 56.0293 49.5982 57.464C52.3404 58.8986 55.2465 58.756 57.2028 55.0166C57.6383 54.1842 57.8537 53.1727 57.9261 52.1031Z" fill="#F2F2F2"/>
<path d="M53.8013 52.8341L53.7049 53.0184C52.573 55.1552 51.3371 56.6378 50.0123 57.4439C49.9932 57.456 49.9737 57.4667 49.9546 57.4788L49.9005 57.3889L49.8496 57.3018C51.3011 56.4423 52.5194 54.7912 53.5071 52.9277C53.5395 52.8679 53.5724 52.8073 53.6035 52.7457C54.0146 51.9531 54.3849 51.1276 54.7141 50.3096C54.7401 50.2465 54.7657 50.182 54.7913 50.1175C55.2202 49.0356 55.5778 47.9744 55.8644 47.04C55.885 46.9741 55.9046 46.9076 55.9238 46.8421C56.4025 45.2585 56.668 44.069 56.7249 43.8047C56.7324 43.7726 56.7359 43.7547 56.7369 43.7506L56.8365 43.7713L56.8379 43.7709L56.9384 43.7921C56.9374 43.7962 56.9257 43.8563 56.9006 43.9664C56.8092 44.3788 56.5497 45.4925 56.1219 46.9167C56.1023 46.9808 56.0826 47.0472 56.0621 47.1132C55.8303 47.8717 55.5532 48.71 55.2297 49.5728C55.1488 49.7897 55.0666 50.0024 54.9831 50.2109C54.9584 50.2758 54.9328 50.3403 54.9068 50.4034C54.551 51.2877 54.1826 52.0979 53.8013 52.8341Z" fill="white"/>
<path d="M56.1219 46.9167C56.0565 46.8929 55.9901 46.8687 55.9238 46.8421C55.7436 46.7703 55.5672 46.6892 55.3953 46.5993C54.6623 46.2171 54.0244 45.6752 53.5285 45.0137C53.4649 45.042 53.4013 45.0703 53.3363 45.099C53.854 45.8022 54.5257 46.3778 55.2999 46.7818C55.4834 46.8778 55.6718 46.964 55.8645 47.04C55.9298 47.0661 55.9962 47.0903 56.0621 47.1132C56.6046 47.3048 57.1731 47.413 57.7481 47.4339C57.7351 47.3632 57.7225 47.2938 57.7104 47.2259C57.1686 47.2016 56.6333 47.0974 56.1219 46.9167Z" fill="white"/>
<path d="M54.9831 50.2108C54.9182 50.1816 54.8543 50.1504 54.7913 50.1175C54.7717 50.1084 54.7516 50.0979 54.7325 50.0879C53.9387 49.6726 53.2571 49.0716 52.7459 48.336C52.2346 47.6005 51.9088 46.7522 51.7962 45.8635C51.7315 45.8982 51.6669 45.9329 51.6026 45.9691C51.7304 46.8755 52.0722 47.7385 52.5999 48.4865C53.1276 49.2345 53.8259 49.846 54.637 50.2704C54.6625 50.2837 54.6881 50.2971 54.7141 50.3095C54.7785 50.342 54.8424 50.3732 54.9068 50.4034C55.9071 50.8632 57.0188 51.0251 58.1087 50.8698C58.1077 50.8007 58.1067 50.7316 58.1047 50.662C57.0424 50.8186 55.9576 50.6618 54.9831 50.2108Z" fill="white"/>
<path d="M53.8013 52.834C53.7346 52.8061 53.6688 52.7763 53.6035 52.7456C53.5336 52.7126 53.4642 52.6786 53.3958 52.6428C52.3299 52.0835 51.4738 51.1941 50.9556 50.1076C50.4375 49.0211 50.2852 47.796 50.5216 46.6157C50.4419 46.6682 50.3627 46.7197 50.2848 46.7731C50.0875 47.9708 50.2727 49.2002 50.8141 50.2867C51.3554 51.3732 52.2254 52.2614 53.3003 52.8253C53.3688 52.8611 53.4377 52.896 53.5071 52.9276C53.5728 52.9597 53.6386 52.9895 53.7049 53.0183C55.0478 53.5924 56.5588 53.6346 57.9317 53.1365C57.9479 53.0589 57.9608 52.9809 57.9742 52.9019C56.6274 53.4227 55.1305 53.3984 53.8013 52.834Z" fill="white"/>
<path d="M12.4522 52.4275L15.9151 53.3564L12.4272 51.2115C12.5022 47.7923 13.6957 44.2468 13.6957 44.2468C13.6957 44.2468 21.1497 46.4062 23.106 50.1456C25.0623 53.885 23.5224 56.3537 20.7802 57.7883C18.038 59.2229 15.1319 59.0803 13.1756 55.3409C12.7401 54.5086 12.5247 53.497 12.4522 52.4275Z" fill="#F2F2F2"/>
<path d="M16.5771 53.1583L16.6735 53.3427C17.8053 55.4794 19.0412 56.9621 20.366 57.7682C20.3852 57.7803 20.4047 57.791 20.4238 57.8031L20.4779 57.7132L20.5288 57.6261C19.0773 56.7665 17.859 55.1155 16.8713 53.252C16.8389 53.1922 16.806 53.1316 16.7749 53.07C16.3637 52.2774 15.9934 51.4519 15.6643 50.6338C15.6382 50.5708 15.6126 50.5063 15.5871 50.4418C15.1581 49.3599 14.8006 48.2987 14.5139 47.3643C14.4934 47.2983 14.4737 47.2319 14.4546 47.1664C13.9759 45.5828 13.7104 44.3933 13.6535 44.129C13.646 44.0969 13.6425 44.079 13.6415 44.0749L13.5419 44.0956L13.5405 44.0952L13.44 44.1164C13.441 44.1205 13.4527 44.1806 13.4778 44.2907C13.5692 44.7031 13.8287 45.8167 14.2565 47.241C14.2761 47.3051 14.2957 47.3715 14.3163 47.4375C14.5481 48.196 14.8251 49.0343 15.1487 49.8971C15.2296 50.114 15.3118 50.3266 15.3953 50.5351C15.42 50.6001 15.4456 50.6646 15.4716 50.7277C15.8273 51.612 16.1958 52.4222 16.5771 53.1583Z" fill="white"/>
<path d="M12.6679 47.5503C12.6558 47.6182 12.6433 47.6875 12.6303 47.7582C13.2053 47.7373 13.7738 47.6292 14.3163 47.4375C14.3822 47.4147 14.4485 47.3904 14.5139 47.3643C14.7065 47.2883 14.895 47.2021 15.0785 47.1062C15.8527 46.7022 16.5243 46.1266 17.0421 45.4234C16.9771 45.3946 16.9135 45.3663 16.8498 45.338C16.354 45.9995 15.7161 46.5414 14.983 46.9237C14.8111 47.0136 14.6347 47.0946 14.4546 47.1664C14.3883 47.193 14.3219 47.2172 14.2565 47.241C13.7451 47.4218 13.2098 47.526 12.6679 47.5503Z" fill="white"/>
<path d="M12.2736 50.9863C12.2717 51.0559 12.2707 51.125 12.2696 51.1942C13.3596 51.3494 14.4712 51.1875 15.4716 50.7277C15.536 50.6975 15.5999 50.6664 15.6643 50.6339C15.6903 50.6214 15.7158 50.6081 15.7414 50.5947C16.5525 50.1703 17.2508 49.5588 17.7784 48.8108C18.3061 48.0628 18.648 47.1999 18.7757 46.2934C18.7115 46.2573 18.6468 46.2225 18.5822 46.1878C18.4696 47.0765 18.1438 47.9248 17.6325 48.6604C17.1212 49.3959 16.4397 49.997 15.6459 50.4122C15.6267 50.4222 15.6067 50.4327 15.587 50.4418C15.5241 50.4748 15.4601 50.5059 15.3953 50.5352C14.4208 50.9861 13.3359 51.1429 12.2736 50.9863Z" fill="white"/>
<path d="M12.4041 53.2262C12.4176 53.3052 12.4305 53.3833 12.4467 53.4608C13.8196 53.9589 15.3305 53.9167 16.6735 53.3427C16.7397 53.3138 16.8055 53.2841 16.8713 53.252C16.9407 53.2203 17.0096 53.1854 17.0781 53.1496C18.153 52.5858 19.023 51.6975 19.5643 50.611C20.1056 49.5246 20.2909 48.2951 20.0936 47.0974C20.0157 47.044 19.9365 46.9925 19.8567 46.9401C20.0931 48.1203 19.9409 49.3454 19.4227 50.4319C18.9046 51.5184 18.0485 52.4079 16.9826 52.9671C16.9141 53.0029 16.8447 53.0369 16.7749 53.07C16.7096 53.1006 16.6438 53.1304 16.5771 53.1584C15.2478 53.7227 13.751 53.7471 12.4041 53.2262Z" fill="white"/>
<path d="M28.6872 55.0458L30.7487 55.5988L28.6722 54.322C28.7169 52.2864 29.4274 50.1757 29.4274 50.1757C29.4274 50.1757 33.865 51.4612 35.0296 53.6874C36.1943 55.9135 35.2775 57.3832 33.645 58.2373C32.0125 59.0914 30.2824 59.0064 29.1178 56.7803C28.8585 56.2848 28.7303 55.6826 28.6872 55.0458Z" fill="#F2F2F2"/>
<path d="M31.1428 55.481L31.2002 55.5907C31.874 56.8628 32.6097 57.7454 33.3984 58.2254C33.4098 58.2326 33.4214 58.2389 33.4328 58.2461L33.465 58.1926L33.4953 58.1408C32.6312 57.629 31.9059 56.6461 31.3179 55.5367C31.2986 55.5012 31.279 55.465 31.2605 55.4284C31.0158 54.9565 30.7953 54.4651 30.5993 53.9781C30.5838 53.9405 30.5686 53.9021 30.5534 53.8638C30.298 53.2196 30.0852 52.5879 29.9145 52.0316C29.9023 51.9924 29.8906 51.9528 29.8792 51.9138C29.5942 50.9711 29.4362 50.2629 29.4023 50.1056C29.3978 50.0865 29.3957 50.0758 29.3951 50.0734L29.3358 50.0857L29.335 50.0854L29.2752 50.0981C29.2758 50.1005 29.2827 50.1363 29.2977 50.2018C29.3521 50.4474 29.5066 51.1103 29.7613 51.9582C29.7729 51.9964 29.7846 52.0359 29.7969 52.0752C29.9349 52.5268 30.0998 53.0258 30.2924 53.5395C30.3406 53.6686 30.3895 53.7952 30.4392 53.9193C30.4539 53.958 30.4692 53.9964 30.4846 54.0339C30.6964 54.5604 30.9158 55.0427 31.1428 55.481Z" fill="white"/>
<path d="M28.8156 52.1423C28.8084 52.1828 28.8009 52.224 28.7932 52.2661C29.1355 52.2537 29.4739 52.1893 29.7969 52.0752C29.8361 52.0616 29.8756 52.0472 29.9145 52.0316C30.0292 51.9864 30.1414 51.9351 30.2506 51.8779C30.7115 51.6374 31.1114 51.2948 31.4196 50.8761C31.3809 50.859 31.343 50.8422 31.3052 50.8253C31.01 51.2191 30.6302 51.5417 30.1938 51.7693C30.0915 51.8228 29.9864 51.8711 29.8792 51.9138C29.8397 51.9296 29.8002 51.9441 29.7613 51.9582C29.4568 52.0658 29.1381 52.1279 28.8156 52.1423Z" fill="white"/>
<path d="M28.5808 54.1879C28.5797 54.2294 28.579 54.2705 28.5784 54.3116C29.2273 54.4041 29.8891 54.3077 30.4847 54.034C30.523 54.016 30.561 53.9975 30.5993 53.9781C30.6148 53.9707 30.63 53.9627 30.6453 53.9548C31.1281 53.7021 31.5438 53.3381 31.858 52.8928C32.1721 52.4475 32.3756 51.9337 32.4517 51.3941C32.4135 51.3726 32.375 51.3519 32.3365 51.3312C32.2694 51.8603 32.0755 52.3653 31.7711 52.8032C31.4667 53.2411 31.061 53.5989 30.5884 53.8461C30.577 53.8521 30.5651 53.8584 30.5534 53.8638C30.5159 53.8834 30.4778 53.9019 30.4392 53.9193C29.8591 54.1878 29.2132 54.2811 28.5808 54.1879Z" fill="white"/>
<path d="M28.6585 55.5214C28.6665 55.5684 28.6742 55.6149 28.6838 55.661C29.5012 55.9576 30.4007 55.9324 31.2002 55.5907C31.2396 55.5735 31.2788 55.5558 31.3179 55.5367C31.3592 55.5178 31.4003 55.4971 31.441 55.4758C32.081 55.1401 32.5989 54.6113 32.9211 53.9645C33.2434 53.3177 33.3537 52.5858 33.2362 51.8727C33.1899 51.8409 33.1427 51.8103 33.0952 51.7791C33.236 52.4817 33.1453 53.211 32.8369 53.8579C32.5284 54.5047 32.0187 55.0342 31.3842 55.3671C31.3434 55.3884 31.3021 55.4087 31.2605 55.4283C31.2216 55.4466 31.1825 55.4643 31.1428 55.481C30.3514 55.817 29.4603 55.8315 28.6585 55.5214Z" fill="white"/>
<path d="M69.8634 36.3305L69.8546 36.3297C68.2149 36.059 66.3935 36.0591 64.2861 36.3301H64.2853C64.2327 36.3307 64.1805 36.3209 64.1318 36.3013C64.083 36.2816 64.0386 36.2525 64.0011 36.2157C63.9636 36.1788 63.9338 36.1349 63.9134 36.0864C63.893 36.038 63.8823 35.9859 63.8821 35.9334V34.0249C63.8822 33.9196 63.9241 33.8187 63.9986 33.7442C64.073 33.6698 64.1739 33.6279 64.2792 33.6278C66.135 33.3858 68.0143 33.386 69.87 33.6282H69.8708C69.9749 33.6297 70.0741 33.6723 70.1471 33.7465C70.2201 33.8208 70.2608 33.9208 70.2605 34.0249V35.9334C70.2604 36.0387 70.2185 36.1396 70.144 36.214C70.0696 36.2885 69.9687 36.3304 69.8634 36.3305Z" fill="white"/>
<path d="M69.8634 36.3305L69.8546 36.3297C68.2149 36.059 66.3935 36.0591 64.2861 36.3301H64.2853C64.2327 36.3307 64.1805 36.3209 64.1318 36.3013C64.083 36.2816 64.0386 36.2525 64.0011 36.2157C63.9636 36.1788 63.9338 36.1349 63.9134 36.0864C63.893 36.038 63.8823 35.9859 63.8821 35.9334V34.0249C63.8822 33.9196 63.9241 33.8187 63.9986 33.7442C64.073 33.6698 64.1739 33.6279 64.2792 33.6278C66.135 33.3858 68.0143 33.386 69.87 33.6282H69.8708C69.9749 33.6297 70.0741 33.6723 70.1471 33.7465C70.2201 33.8208 70.2608 33.9208 70.2605 34.0249V35.9334C70.2604 36.0387 70.2185 36.1396 70.144 36.214C70.0696 36.2885 69.9687 36.3304 69.8634 36.3305ZM67.0004 33.5548C66.0927 33.5532 65.186 33.6135 64.2866 33.7354C64.2481 33.7348 64.2098 33.7418 64.174 33.756C64.1383 33.7703 64.1056 33.7915 64.0781 33.8184C64.0505 33.8453 64.0286 33.8774 64.0135 33.9129C63.9984 33.9483 63.9905 33.9864 63.9902 34.0249V35.9334C63.9903 36.01 64.0208 36.0835 64.075 36.1376C64.1291 36.1918 64.2026 36.2223 64.2792 36.2224C66.3884 35.9507 68.2186 35.9507 69.8676 36.2223C69.9435 36.2211 70.0159 36.1902 70.0691 36.1361C70.1224 36.0821 70.1523 36.0093 70.1524 35.9334V34.0249C70.1523 33.9483 70.1218 33.8748 70.0676 33.8206C70.0135 33.7665 69.94 33.736 69.8634 33.7359C68.9137 33.6168 67.9575 33.5563 67.0004 33.5548Z" fill="#146BA2"/>
<path d="M67.0713 35.6447C67.4892 35.6447 67.828 35.3059 67.828 34.888C67.828 34.47 67.4892 34.1312 67.0713 34.1312C66.6533 34.1312 66.3145 34.47 66.3145 34.888C66.3145 35.3059 66.6533 35.6447 67.0713 35.6447Z" fill="#146BA2"/>
<path d="M65.1253 34.4926H64.4767C64.4337 34.4926 64.3925 34.4755 64.3621 34.4451C64.3317 34.4147 64.3146 34.3735 64.3145 34.3305V34.1142C64.3146 34.0713 64.3317 34.03 64.3621 33.9996C64.3925 33.9692 64.4337 33.9521 64.4767 33.9521H65.1253C65.1683 33.9521 65.2095 33.9692 65.2399 33.9996C65.2703 34.03 65.2874 34.0713 65.2875 34.1142V34.3305C65.2874 34.3735 65.2703 34.4147 65.2399 34.4451C65.2095 34.4755 65.1683 34.4926 65.1253 34.4926Z" fill="#146BA2"/>
<path d="M69.6659 36.0061H69.0172C68.9742 36.0061 68.933 35.989 68.9026 35.9586C68.8722 35.9282 68.8551 35.8869 68.8551 35.844V35.6277C68.8551 35.5847 68.8722 35.5435 68.9026 35.5131C68.933 35.4827 68.9742 35.4656 69.0172 35.4656H69.6659C69.7089 35.4656 69.7501 35.4827 69.7805 35.5131C69.8109 35.5435 69.828 35.5847 69.828 35.6277V35.844C69.828 35.8869 69.8109 35.9282 69.7805 35.9586C69.7501 35.989 69.7089 36.0061 69.6659 36.0061Z" fill="#146BA2"/>
<path d="M68.9406 35.5411L68.9328 35.537C67.5275 34.6499 65.8494 33.9417 63.8025 33.3718L63.8017 33.3715C63.7531 33.3516 63.7088 33.3223 63.6715 33.2853C63.6342 33.2482 63.6046 33.2041 63.5844 33.1556C63.5642 33.107 63.5539 33.055 63.5539 33.0024C63.5539 32.9498 63.5644 32.8978 63.5846 32.8492L64.3268 31.091C64.3678 30.994 64.4457 30.9173 64.5432 30.8777C64.6407 30.8381 64.75 30.8387 64.8471 30.8796C66.6508 31.3783 68.3822 32.1093 69.9976 33.0542L69.9983 33.0544C70.0936 33.0963 70.1685 33.1741 70.2069 33.2709C70.2452 33.3677 70.2438 33.4757 70.2031 33.5715L69.4609 35.3297C69.4198 35.4267 69.342 35.5034 69.2445 35.543C69.1469 35.5826 69.0376 35.582 68.9406 35.5411Z" fill="white"/>
<path d="M68.9406 35.5411L68.9328 35.537C67.5275 34.6499 65.8494 33.9417 63.8025 33.3718L63.8017 33.3715C63.7531 33.3516 63.7088 33.3223 63.6715 33.2853C63.6342 33.2482 63.6046 33.2041 63.5844 33.1556C63.5642 33.107 63.5539 33.055 63.5539 33.0024C63.5539 32.9498 63.5644 32.8978 63.5846 32.8492L64.3268 31.091C64.3678 30.994 64.4457 30.9173 64.5432 30.8777C64.6407 30.8381 64.75 30.8387 64.8471 30.8796C66.6508 31.3783 68.3822 32.1093 69.9976 33.0542L69.9983 33.0544C70.0936 33.0963 70.1685 33.1741 70.2069 33.2709C70.2452 33.3677 70.2438 33.4757 70.2031 33.5715L69.4609 35.3297C69.4198 35.4267 69.342 35.5034 69.2445 35.543C69.1469 35.5826 69.0376 35.582 68.9406 35.5411ZM67.3824 31.8705C66.5469 31.5161 65.688 31.219 64.812 30.9815C64.7768 30.966 64.7388 30.9576 64.7003 30.9568C64.6618 30.956 64.6235 30.9629 64.5876 30.9769C64.5518 30.991 64.5191 31.0121 64.4914 31.0389C64.4637 31.0656 64.4416 31.0976 64.4264 31.133L63.6842 32.8913C63.6545 32.9619 63.654 33.0414 63.6828 33.1124C63.7117 33.1834 63.7675 33.24 63.8381 33.2699C65.8868 33.8399 67.573 34.5516 68.9866 35.4431C69.0569 35.4715 69.1357 35.4712 69.2057 35.4421C69.2758 35.413 69.3317 35.3575 69.3613 35.2877L70.1035 33.5294C70.1332 33.4588 70.1337 33.3793 70.1048 33.3083C70.076 33.2373 70.0202 33.1806 69.9496 33.1508C69.121 32.6717 68.2636 32.2441 67.3824 31.8705V31.8705Z" fill="#146BA2"/>
<path d="M66.9291 33.8832C67.3471 33.8832 67.6859 33.5444 67.6859 33.1264C67.6859 32.7085 67.3471 32.3697 66.9291 32.3697C66.5112 32.3697 66.1724 32.7085 66.1724 33.1264C66.1724 33.5444 66.5112 33.8832 66.9291 33.8832Z" fill="#146BA2"/>
<path d="M65.2901 32.0054L64.6925 31.7531C64.6529 31.7364 64.6216 31.7046 64.6054 31.6648C64.5892 31.6249 64.5895 31.5803 64.6062 31.5407L64.6903 31.3415C64.707 31.3019 64.7388 31.2706 64.7786 31.2544C64.8185 31.2382 64.8631 31.2385 64.9027 31.2551L65.5003 31.5074C65.5399 31.5242 65.5712 31.5559 65.5874 31.5958C65.6036 31.6356 65.6033 31.6802 65.5867 31.7199L65.5026 31.9191C65.4858 31.9586 65.454 31.99 65.4142 32.0062C65.3744 32.0223 65.3297 32.0221 65.2901 32.0054Z" fill="#146BA2"/>
<path d="M68.8847 35.1655L68.2871 34.9133C68.2475 34.8965 68.2161 34.8647 68.2 34.8249C68.1838 34.7851 68.1841 34.7405 68.2007 34.7008L68.2848 34.5016C68.3016 34.462 68.3334 34.4307 68.3732 34.4145C68.413 34.3983 68.4576 34.3986 68.4973 34.4153L69.0949 34.6676C69.1345 34.6843 69.1658 34.7161 69.182 34.7559C69.1981 34.7958 69.1979 34.8404 69.1812 34.88L69.0971 35.0792C69.0804 35.1188 69.0486 35.1501 69.0087 35.1663C68.9689 35.1825 68.9243 35.1822 68.8847 35.1655Z" fill="#146BA2"/>
<path d="M70.4297 34.4963C70.5658 34.4144 70.6824 34.3036 70.7711 34.1717C70.8598 34.0398 70.9185 33.8901 70.9431 33.7331C70.9677 33.5761 70.9576 33.4156 70.9134 33.2629C70.8693 33.1103 70.7922 32.9691 70.6876 32.8495L72.602 29.494L70.5987 29.6234L69.0878 32.79C68.8984 32.979 68.785 33.2309 68.769 33.498C68.7529 33.7651 68.8354 34.0288 69.0008 34.2392C69.1662 34.4495 69.403 34.5918 69.6664 34.6392C69.9297 34.6866 70.2013 34.6358 70.4297 34.4963V34.4963Z" fill="#FFB6B6"/>
<path d="M85.1671 57.3713H83.8417L83.2112 52.259L85.1674 52.2591L85.1671 57.3713Z" fill="#FFB6B6"/>
<path d="M85.5051 58.6561L81.2315 58.6559V58.6018C81.2316 58.1607 81.4068 57.7376 81.7188 57.4257C82.0307 57.1138 82.4538 56.9385 82.8949 56.9385H82.8951L85.5052 56.9386L85.5051 58.6561Z" fill="#2F2E41"/>
<path d="M76.0861 57.3713H74.7606L74.1302 52.259L76.0863 52.2591L76.0861 57.3713Z" fill="#FFB6B6"/>
<path d="M76.4239 58.656L72.1503 58.6558V58.6018C72.1504 58.1606 72.3256 57.7376 72.6376 57.4256C72.9495 57.1137 73.3726 56.9384 73.8137 56.9384H73.8138L76.424 56.9385L76.4239 58.656Z" fill="#2F2E41"/>
<path d="M72.6779 29.6381C72.6779 29.6381 72.3134 34.8296 73.0314 37.4442C73.7494 40.0588 73.8776 55.8702 73.8776 55.8702H76.2843L78.3702 34.3475L83.1791 55.9461L85.4714 55.7885L84.2143 30.3374L72.6779 29.6381Z" fill="#2F2E41"/>
<path d="M83.2197 12.1378L81.3799 10.7952L78.297 11.4665L77.4624 13.4495L76.0244 14.1624C75.5516 14.3969 75.1428 14.7426 74.8331 15.1699C74.5233 15.5972 74.322 16.0934 74.2464 16.6157L72.192 30.8022L84.2143 30.3374L85.6697 13.6301C85.6849 13.4556 85.665 13.2798 85.611 13.1131C85.5571 12.9464 85.4702 12.7922 85.3557 12.6597C85.2411 12.5272 85.1011 12.419 84.9439 12.3416C84.7868 12.2641 84.6157 12.219 84.4408 12.2088L83.2197 12.1378Z" fill="#E4E4E4"/>
<path d="M75.2637 15.2706L74.1533 16.7674L69.317 31.5182L71.584 32.4259L75.2139 25.5523L75.2637 15.2706Z" fill="#E4E4E4"/>
<path d="M79.239 9.92782C81.2712 9.92782 82.9187 8.28036 82.9187 6.24812C82.9187 4.21588 81.2712 2.56842 79.239 2.56842C77.2067 2.56842 75.5593 4.21588 75.5593 6.24812C75.5593 8.28036 77.2067 9.92782 79.239 9.92782Z" fill="#2F2E41"/>
<path d="M79.2887 10.0943C80.7717 10.0943 81.9739 8.89211 81.9739 7.40912C81.9739 5.92614 80.7717 4.72394 79.2887 4.72394C77.8057 4.72394 76.6035 5.92614 76.6035 7.40912C76.6035 8.89211 77.8057 10.0943 79.2887 10.0943Z" fill="#FFB9B9"/>
<path d="M81.3275 7.06106C79.6177 6.44435 79.0391 6.06549 77.1505 7.06106L76.4543 4.27643H82.0236L81.3275 7.06106Z" fill="#2F2E41"/>
<path d="M78.9407 4.67421C80.0941 4.67421 81.0291 3.73917 81.0291 2.58573C81.0291 1.4323 80.0941 0.497253 78.9407 0.497253C77.7872 0.497253 76.8522 1.4323 76.8522 2.58573C76.8522 3.73917 77.7872 4.67421 78.9407 4.67421Z" fill="#2F2E41"/>
<path d="M76.4543 2.08848C76.4546 1.55213 76.6614 1.03647 77.0317 0.648525C77.4021 0.260578 77.9076 0.0301342 78.4434 0.00501973C78.4102 0.00345216 78.3775 0 78.3439 0C77.79 0 77.2588 0.220036 76.8671 0.611701C76.4755 1.00337 76.2554 1.53458 76.2554 2.08848C76.2554 2.64237 76.4755 3.17359 76.8671 3.56525C77.2588 3.95692 77.79 4.17695 78.3439 4.17695C78.3775 4.17695 78.4102 4.1735 78.4434 4.17193C77.9076 4.14682 77.4021 3.91637 77.0317 3.52843C76.6614 3.14048 76.4546 2.62483 76.4543 2.08848Z" fill="#2F2E41"/>
<path opacity="0.1" d="M84.1175 16.1201L83.3683 23.5888L80.7225 28.8034L84.1175 16.1201Z" fill="black"/>
<path d="M4.91891 39.1067H4.27026V39.6472H4.91891V39.1067Z" fill="#F0F0F0"/>
<path d="M66.2734 39.6472H64.9952V39.1067H66.2734V39.6472ZM63.7171 39.6472H62.4388V39.1067H63.7171V39.6472ZM61.1606 39.6472H59.8824V39.1067H61.1606V39.6472ZM58.6042 39.6472H57.3259V39.1067H58.6042V39.6472ZM56.0477 39.6472H54.7695V39.1067H56.0477V39.6472ZM53.4912 39.6472H52.213V39.1067H53.4912L53.4912 39.6472ZM50.9349 39.6472H49.6567V39.1067H50.9349V39.6472ZM48.3784 39.6472H47.1002V39.1067H48.3784V39.6472ZM45.8219 39.6472H44.5438V39.1067H45.8219V39.6472ZM43.2655 39.6472H41.9873V39.1067H43.2655L43.2655 39.6472ZM40.7091 39.6472H39.4308V39.1067H40.7091L40.7091 39.6472ZM38.1526 39.6472H36.8744V39.1067H38.1526L38.1526 39.6472ZM35.5962 39.6472H34.318V39.1067H35.5962L35.5962 39.6472ZM33.0397 39.6472H31.7616V39.1067H33.0397L33.0397 39.6472ZM30.4833 39.6472H29.2051V39.1067H30.4833L30.4833 39.6472ZM27.9269 39.6472H26.6486V39.1067H27.9269L27.9269 39.6472ZM25.3704 39.6472H24.0922V39.1067H25.3704L25.3704 39.6472ZM22.814 39.6472H21.5358V39.1067H22.814L22.814 39.6472ZM20.2575 39.6472H18.9794V39.1067H20.2575L20.2575 39.6472ZM17.7011 39.6472H16.4229V39.1067H17.7011L17.7011 39.6472ZM15.1446 39.6472H13.8665V39.1067H15.1447L15.1446 39.6472ZM12.5882 39.6472H11.31V39.1067H12.5883L12.5882 39.6472ZM10.0318 39.6472H8.75358V39.1067H10.0318L10.0318 39.6472ZM7.47535 39.6472H6.19714V39.1067H7.47538L7.47535 39.6472Z" fill="#F0F0F0"/>
<path d="M4.91891 25.377H4.27026V25.9175H4.91891V25.377Z" fill="#F0F0F0"/>
<path d="M66.2734 25.9175H64.9952V25.377H66.2734V25.9175ZM63.7171 25.9175H62.4388V25.377H63.7171V25.9175ZM61.1606 25.9175H59.8824V25.377H61.1606V25.9175ZM58.6042 25.9175H57.3259V25.377H58.6042V25.9175ZM56.0477 25.9175H54.7695V25.377H56.0477V25.9175ZM53.4912 25.9175H52.213V25.377H53.4912L53.4912 25.9175ZM50.9349 25.9175H49.6567V25.377H50.9349V25.9175ZM48.3784 25.9175H47.1002V25.377H48.3784V25.9175ZM45.8219 25.9175H44.5438V25.377H45.8219V25.9175ZM43.2655 25.9175H41.9873V25.377H43.2655L43.2655 25.9175ZM40.7091 25.9175H39.4308V25.377H40.7091L40.7091 25.9175ZM38.1526 25.9175H36.8744V25.377H38.1526L38.1526 25.9175ZM35.5962 25.9175H34.318V25.377H35.5962L35.5962 25.9175ZM33.0397 25.9175H31.7616V25.377H33.0397L33.0397 25.9175ZM30.4833 25.9175H29.2051V25.377H30.4833L30.4833 25.9175ZM27.9269 25.9175H26.6486V25.377H27.9269L27.9269 25.9175ZM25.3704 25.9175H24.0922V25.377H25.3704L25.3704 25.9175ZM22.814 25.9175H21.5358V25.377H22.814L22.814 25.9175ZM20.2575 25.9175H18.9794V25.377H20.2575L20.2575 25.9175ZM17.7011 25.9175H16.4229V25.377H17.7011L17.7011 25.9175ZM15.1446 25.9175H13.8665V25.377H15.1447L15.1446 25.9175ZM12.5882 25.9175H11.31V25.377H12.5883L12.5882 25.9175ZM10.0318 25.9175H8.75358V25.377H10.0318L10.0318 25.9175ZM7.47535 25.9175H6.19714V25.377H7.47538L7.47535 25.9175Z" fill="#F0F0F0"/>
<path d="M4.91891 11.6472H4.27026V12.1878H4.91891V11.6472Z" fill="#F0F0F0"/>
<path d="M66.2734 12.1878H64.9952V11.6472H66.2734V12.1878ZM63.7171 12.1878H62.4388V11.6472H63.7171V12.1878ZM61.1606 12.1878H59.8824V11.6472H61.1606V12.1878ZM58.6042 12.1878H57.3259V11.6472H58.6042V12.1878ZM56.0477 12.1878H54.7695V11.6472H56.0477V12.1878ZM53.4912 12.1878H52.213V11.6472H53.4912L53.4912 12.1878ZM50.9349 12.1878H49.6567V11.6472H50.9349V12.1878ZM48.3784 12.1878H47.1002V11.6472H48.3784V12.1878ZM45.8219 12.1878H44.5438V11.6472H45.8219V12.1878ZM43.2655 12.1878H41.9873V11.6472H43.2655L43.2655 12.1878ZM40.7091 12.1878H39.4308V11.6472H40.7091L40.7091 12.1878ZM38.1526 12.1878H36.8744V11.6472H38.1526L38.1526 12.1878ZM35.5962 12.1878H34.318V11.6472H35.5962L35.5962 12.1878ZM33.0397 12.1878H31.7616V11.6472H33.0397L33.0397 12.1878ZM30.4833 12.1878H29.2051V11.6472H30.4833L30.4833 12.1878ZM27.9269 12.1878H26.6486V11.6472H27.9269L27.9269 12.1878ZM25.3704 12.1878H24.0922V11.6472H25.3704L25.3704 12.1878ZM22.814 12.1878H21.5358V11.6472H22.814L22.814 12.1878ZM20.2575 12.1878H18.9794V11.6472H20.2575L20.2575 12.1878ZM17.7011 12.1878H16.4229V11.6472H17.7011L17.7011 12.1878ZM15.1446 12.1878H13.8665V11.6472H15.1447L15.1446 12.1878ZM12.5882 12.1878H11.31V11.6472H12.5883L12.5882 12.1878ZM10.0318 12.1878H8.75358V11.6472H10.0318L10.0318 12.1878ZM7.47535 12.1878H6.19714V11.6472H7.47538L7.47535 12.1878Z" fill="#F0F0F0"/>
<path d="M25.4054 39.2689H20.1081V58.7283H25.4054V39.2689Z" fill="#3F3D56"/>
<path d="M26.3784 39.2689H21.0811V58.7283H26.3784V39.2689Z" fill="#146BA2"/>
<path d="M37.9459 25.5391H32.6487V58.7283H37.9459V25.5391Z" fill="#3F3D56"/>
<path d="M38.9189 25.5391H33.6216V58.7283H38.9189V25.5391Z" fill="#146BA2"/>
<path d="M50.4865 11.8094H45.1892V58.7283H50.4865V11.8094Z" fill="#3F3D56"/>
<path d="M51.4595 11.8094H46.1622V58.7283H51.4595V11.8094Z" fill="#146BA2"/>
<path d="M4.32434 13.2148C5.04081 13.2148 5.62163 12.634 5.62163 11.9175C5.62163 11.201 5.04081 10.6202 4.32434 10.6202C3.60786 10.6202 3.02704 11.201 3.02704 11.9175C3.02704 12.634 3.60786 13.2148 4.32434 13.2148Z" fill="#F0F0F0"/>
<path d="M4.32434 26.9445C5.04081 26.9445 5.62163 26.3637 5.62163 25.6472C5.62163 24.9307 5.04081 24.3499 4.32434 24.3499C3.60786 24.3499 3.02704 24.9307 3.02704 25.6472C3.02704 26.3637 3.60786 26.9445 4.32434 26.9445Z" fill="#F0F0F0"/>
<path d="M4.32434 40.6742C5.04081 40.6742 5.62163 40.0934 5.62163 39.3769C5.62163 38.6605 5.04081 38.0797 4.32434 38.0797C3.60786 38.0797 3.02704 38.6605 3.02704 39.3769C3.02704 40.0934 3.60786 40.6742 4.32434 40.6742Z" fill="#F0F0F0"/>
<path d="M96 58.6072H0V58.8494H96V58.6072Z" fill="#3F3D56"/>
<path d="M80.9985 33.9521L80.9897 33.9513C79.35 33.6806 77.5286 33.6807 75.4212 33.9516H75.4204C75.3678 33.9523 75.3157 33.9425 75.2669 33.9228C75.2181 33.9032 75.1737 33.8741 75.1362 33.8372C75.0988 33.8004 75.0689 33.7564 75.0485 33.708C75.0281 33.6595 75.0175 33.6075 75.0172 33.5549V31.6465C75.0174 31.5412 75.0592 31.4403 75.1337 31.3658C75.2081 31.2914 75.3091 31.2495 75.4144 31.2494C77.2701 31.0074 79.1494 31.0075 81.0052 31.2498H81.0059C81.11 31.2513 81.2093 31.2938 81.2822 31.3681C81.3552 31.4424 81.3959 31.5424 81.3956 31.6465V33.5549C81.3955 33.6602 81.3536 33.7612 81.2792 33.8356C81.2047 33.9101 81.1038 33.9519 80.9985 33.9521Z" fill="white"/>
<path d="M80.9985 33.9521L80.9897 33.9513C79.35 33.6806 77.5286 33.6807 75.4212 33.9516H75.4204C75.3678 33.9523 75.3157 33.9425 75.2669 33.9228C75.2181 33.9032 75.1737 33.8741 75.1362 33.8372C75.0988 33.8004 75.0689 33.7564 75.0485 33.708C75.0281 33.6595 75.0175 33.6075 75.0172 33.5549V31.6465C75.0174 31.5412 75.0592 31.4403 75.1337 31.3658C75.2081 31.2914 75.3091 31.2495 75.4144 31.2494C77.2701 31.0074 79.1494 31.0075 81.0052 31.2498H81.0059C81.11 31.2513 81.2093 31.2938 81.2822 31.3681C81.3552 31.4424 81.3959 31.5424 81.3956 31.6465V33.5549C81.3955 33.6602 81.3536 33.7612 81.2792 33.8356C81.2047 33.9101 81.1038 33.9519 80.9985 33.9521ZM78.1355 31.1764C77.2279 31.1747 76.3212 31.2351 75.4217 31.3569C75.3832 31.3563 75.345 31.3634 75.3092 31.3776C75.2734 31.3919 75.2408 31.4131 75.2132 31.44C75.1857 31.4669 75.1637 31.499 75.1486 31.5344C75.1336 31.5699 75.1256 31.608 75.1254 31.6465V33.5549C75.1254 33.6316 75.1559 33.705 75.2101 33.7592C75.2643 33.8134 75.3377 33.8439 75.4144 33.844C77.5235 33.5723 79.3538 33.5723 81.0028 33.8439C81.0786 33.8427 81.151 33.8117 81.2043 33.7577C81.2575 33.7036 81.2874 33.6308 81.2875 33.5549V31.6465C81.2874 31.5699 81.257 31.4964 81.2028 31.4422C81.1486 31.388 81.0751 31.3576 80.9985 31.3575C80.0488 31.2384 79.0927 31.1779 78.1355 31.1764Z" fill="#146BA2"/>
<path d="M78.2064 33.2664C78.6243 33.2664 78.9632 32.9276 78.9632 32.5096C78.9632 32.0917 78.6243 31.7529 78.2064 31.7529C77.7885 31.7529 77.4496 32.0917 77.4496 32.5096C77.4496 32.9276 77.7885 33.2664 78.2064 33.2664Z" fill="#146BA2"/>
<path d="M76.2605 32.1143H75.6118C75.5688 32.1142 75.5276 32.0971 75.4972 32.0667C75.4668 32.0363 75.4497 31.9951 75.4496 31.9521V31.7359C75.4497 31.6929 75.4668 31.6517 75.4972 31.6213C75.5276 31.5909 75.5688 31.5738 75.6118 31.5737H76.2605C76.3035 31.5738 76.3447 31.5909 76.3751 31.6213C76.4055 31.6517 76.4226 31.6929 76.4226 31.7359V31.9521C76.4226 31.9951 76.4055 32.0363 76.3751 32.0667C76.3447 32.0971 76.3035 32.1142 76.2605 32.1143Z" fill="#146BA2"/>
<path d="M80.801 33.6278H80.1524C80.1094 33.6277 80.0682 33.6106 80.0378 33.5802C80.0074 33.5498 79.9903 33.5086 79.9902 33.4656V33.2494C79.9903 33.2064 80.0074 33.1652 80.0378 33.1348C80.0682 33.1044 80.1094 33.0873 80.1524 33.0872H80.801C80.844 33.0873 80.8852 33.1044 80.9156 33.1348C80.946 33.1652 80.9631 33.2064 80.9632 33.2494V33.4656C80.9631 33.5086 80.946 33.5498 80.9156 33.5802C80.8852 33.6106 80.844 33.6277 80.801 33.6278Z" fill="#146BA2"/>
<path d="M79.7831 31.4504C79.772 31.2919 79.7958 31.1328 79.8528 30.9845C79.9098 30.8361 79.9986 30.7021 80.113 30.5918C80.2274 30.4815 80.3646 30.3976 80.515 30.346C80.6653 30.2945 80.8251 30.2765 80.9832 30.2934L82.6305 26.799L83.6751 28.5133L81.9507 31.5688C81.9047 31.8324 81.7636 32.07 81.5542 32.2365C81.3447 32.4031 81.0815 32.487 80.8143 32.4724C80.5471 32.4578 80.2946 32.3457 80.1045 32.1573C79.9145 31.969 79.8001 31.7175 79.7831 31.4504Z" fill="#FFB6B6"/>
<path d="M84.2618 13.1718L84.9403 12.287C84.9403 12.287 86.5933 11.9504 86.874 14.2208L86.6972 24.3143L83.075 30.0156L80.7224 29.4149L83.7982 22.6422L84.2618 13.1718Z" fill="#E4E4E4"/>
</g>
<defs>
<clipPath id="clip0_5_312">
<rect width="96" height="58.8494" fill="white"/>
</clipPath>
</defs>
</svg>
