<svg width="18" height="18" viewBox="0 0 18 18" fill="none" xmlns="http://www.w3.org/2000/svg">
<path d="M3 15C2.5875 15 2.23437 14.8531 1.94062 14.5594C1.64687 14.2656 1.5 13.9125 1.5 13.5V4.5C1.5 4.0875 1.64687 3.73438 1.94062 3.44063C2.23437 3.14687 2.5875 3 3 3H15C15.4125 3 15.7656 3.14687 16.0594 3.44063C16.3531 3.73438 16.5 4.0875 16.5 4.5V13.5C16.5 13.9125 16.3531 14.2656 16.0594 14.5594C15.7656 14.8531 15.4125 15 15 15H3ZM15 6L9.39375 9.50625C9.33125 9.54375 9.26562 9.57188 9.19687 9.59063C9.12812 9.60938 9.0625 9.61875 9 9.61875C8.9375 9.61875 8.87187 9.60938 8.80312 9.59063C8.73437 9.57188 8.66875 9.54375 8.60625 9.50625L3 6V13.5H15V6ZM9 8.25L15 4.5H3L9 8.25ZM3 6.1875V5.08125V5.1V5.09063V6.1875Z" fill="#808080"/>
</svg>
