<svg width="20" height="20" viewBox="0 0 20 20" fill="none" xmlns="http://www.w3.org/2000/svg">
<g opacity="0.8">
<path d="M17.7283 13.5956C16.989 12.9358 16.0517 12.3989 15.3214 12.0336C14.657 11.7029 14.1648 11.5127 14.1552 11.5089C13.021 11.11 12.6163 10.7029 12.4763 10.432L12.4194 10.2689C12.4034 10.2113 12.389 10.1573 12.3757 10.1053L12.2381 9.33067L12.2346 9.29333C12.6097 8.81422 12.9148 8.26378 13.1186 7.70044L13.147 7.65711C13.4699 7.33422 13.6452 6.51644 13.6457 6.50867C13.883 5.84333 13.7952 5.554 13.7212 5.43756L13.6908 5.38978L13.7081 5.33689C13.7323 5.26489 14.2892 3.55933 13.5206 2.26L13.5066 2.22578C13.5043 2.214 13.217 1.01289 11.8077 0.481333C11.2772 0.158667 10.3892 0 9.58589 0C9.56211 0 9.539 0.000444486 9.51566 0.00088893C9.49211 0.000444486 9.46922 0 9.44522 0C8.64189 0 7.75389 0.158667 7.223 0.480889C5.81366 1.01311 5.52633 2.21356 5.52389 2.22533L5.51033 2.25956C4.74189 3.55911 5.29855 5.26444 5.32255 5.33644L5.33989 5.38933L5.30989 5.43711C5.23655 5.55356 5.14766 5.84311 5.38477 6.50822C5.38566 6.51622 5.56077 7.33378 5.88411 7.65667L5.91233 7.7C6.11589 8.26333 6.42144 8.81378 6.79655 9.29289L6.793 9.33022L6.655 10.1049C6.64144 10.1569 6.62766 10.2109 6.61166 10.2684L6.55477 10.4316C6.415 10.7024 6.01011 11.1096 4.87589 11.5084C4.86633 11.5124 4.37411 11.7024 3.70922 12.0331C2.97922 12.3989 2.04211 12.9356 1.30277 13.5951C1.28722 13.6069 -0.112114 14.6653 0.00721946 17.4811C0.0149972 17.6856 0.0305527 17.8962 0.0565527 18.1184C0.0565527 18.3429 0.128331 18.5229 0.561219 18.658C0.597219 18.6718 4.351 20 9.32766 20C9.38922 20 9.45277 19.9982 9.51522 19.9982C9.57722 19.9982 9.64055 20 9.70255 20C14.6792 20 18.4326 18.6718 18.4681 18.6584C18.9012 18.5242 18.9732 18.3433 18.9732 18.1189C18.9992 17.8967 19.015 17.686 19.0226 17.4816C19.143 14.6658 17.7437 13.6071 17.7283 13.5956Z" fill="#146BA2"/>
</g>
</svg>
