<svg width="24" height="25" viewBox="0 0 24 25" fill="none" xmlns="http://www.w3.org/2000/svg">
<rect x="0.5" y="3.5" width="23" height="21" rx="1.5" stroke="black"/>
<path d="M2 3.5H22C22.8284 3.5 23.5 4.17157 23.5 5V23C23.5 23.8284 22.8284 24.5 22 24.5H2C1.17157 24.5 0.5 23.8284 0.5 23V5C0.5 4.17157 1.17157 3.5 2 3.5Z" stroke="black"/>
<rect y="6" width="24" height="1" fill="black"/>
<path d="M1 7H23V23C23 23.5523 22.5523 24 22 24H2C1.44772 24 1 23.5523 1 23V7Z" fill="white"/>
<path d="M2 3H22C22.8284 3 23.5 3.67157 23.5 4.5V6.5H0.5V4.5C0.5 3.67157 1.17157 3 2 3Z" fill="#FF5D5D" stroke="black"/>
<path d="M5 2.5V2.5C5 1.86399 4.75994 1.13953 4.13635 1.01445C4.09008 1.00517 4.04438 1 4 1V1C3.2766 1 3 1.914 3 2.63739V3.33221C3 4.08327 3.28748 5.23751 4 5V5C4.26197 4.91268 4.5 4.5 4.5 4.5" stroke="black" stroke-linecap="round"/>
<path d="M10.5 2.5V2.5C10.5 1.86399 10.2599 1.13953 9.63635 1.01445C9.59008 1.00517 9.54438 1 9.5 1V1C8.7766 1 8.5 1.914 8.5 2.63739V3.33221C8.5 4.08327 8.78748 5.23751 9.5 5V5C9.76197 4.91268 10 4.5 10 4.5" stroke="black" stroke-linecap="round"/>
<path d="M16 2.5V2.5C16 1.86399 15.7599 1.13953 15.1364 1.01445C15.0901 1.00517 15.0444 1 15 1V1C14.2766 1 14 1.914 14 2.63739V3.33221C14 4.08327 14.2875 5.23751 15 5V5C15.262 4.91268 15.5 4.5 15.5 4.5" stroke="black" stroke-linecap="round"/>
<path d="M21.5 2.5V2.5C21.5 1.86399 21.2599 1.13953 20.6364 1.01445C20.5901 1.00517 20.5444 1 20.5 1V1C19.7766 1 19.5 1.914 19.5 2.63739V3.33221C19.5 4.08327 19.7875 5.23751 20.5 5V5C20.762 4.91268 21 4.5 21 4.5" stroke="black" stroke-linecap="round"/>
<path d="M7.93848 14.7568H8.73926C8.94434 14.7568 9.11198 14.721 9.24219 14.6494C9.37565 14.5745 9.47493 14.4704 9.54004 14.3369C9.60514 14.2002 9.6377 14.0391 9.6377 13.8535C9.6377 13.7103 9.60677 13.5785 9.54492 13.458C9.48633 13.3376 9.39518 13.2415 9.27148 13.1699C9.14779 13.0951 8.98991 13.0576 8.79785 13.0576C8.66764 13.0576 8.54069 13.0853 8.41699 13.1406C8.29329 13.1927 8.19076 13.2676 8.10938 13.3652C8.03125 13.4629 7.99219 13.5817 7.99219 13.7217H6.3418C6.3418 13.318 6.45247 12.973 6.67383 12.6865C6.89844 12.3968 7.19303 12.1755 7.55762 12.0225C7.92546 11.8662 8.32096 11.7881 8.74414 11.7881C9.2487 11.7881 9.69141 11.8662 10.0723 12.0225C10.4531 12.1755 10.7493 12.4033 10.9609 12.7061C11.1758 13.0055 11.2832 13.3766 11.2832 13.8193C11.2832 14.0635 11.2262 14.293 11.1123 14.5078C10.9984 14.7227 10.8389 14.9115 10.6338 15.0742C10.4287 15.237 10.1878 15.3656 9.91113 15.46C9.6377 15.5511 9.33822 15.5967 9.0127 15.5967H7.93848V14.7568ZM7.93848 15.9824V15.1621H9.0127C9.36751 15.1621 9.69141 15.2028 9.98438 15.2842C10.2773 15.3623 10.5296 15.4795 10.7412 15.6357C10.9528 15.792 11.1156 15.9857 11.2295 16.2168C11.3434 16.4447 11.4004 16.7067 11.4004 17.0029C11.4004 17.335 11.3337 17.6312 11.2002 17.8916C11.0667 18.152 10.8796 18.3717 10.6387 18.5508C10.3978 18.7298 10.1162 18.8665 9.79395 18.9609C9.47168 19.0521 9.12174 19.0977 8.74414 19.0977C8.44792 19.0977 8.15169 19.0586 7.85547 18.9805C7.55924 18.8991 7.28906 18.7754 7.04492 18.6094C6.80078 18.4401 6.60384 18.2253 6.4541 17.9648C6.30762 17.7012 6.23438 17.387 6.23438 17.0225H7.88477C7.88477 17.1722 7.92546 17.3089 8.00684 17.4326C8.09147 17.5531 8.20378 17.6491 8.34375 17.7207C8.48372 17.7923 8.63509 17.8281 8.79785 17.8281C8.99967 17.8281 9.17057 17.7907 9.31055 17.7158C9.45378 17.6377 9.56283 17.5335 9.6377 17.4033C9.71257 17.2731 9.75 17.1283 9.75 16.9688C9.75 16.7279 9.70931 16.5358 9.62793 16.3926C9.5498 16.2493 9.43424 16.1452 9.28125 16.0801C9.13151 16.015 8.95085 15.9824 8.73926 15.9824H7.93848ZM16.8328 11.8906V19H15.1873V13.7461L13.5662 14.2197V12.9697L16.6814 11.8906H16.8328Z" fill="#146CA3"/>
<path d="M7.93848 14.7568V14.2568H7.43848V14.7568H7.93848ZM9.24219 14.6494L9.48316 15.0875L9.48681 15.0855L9.24219 14.6494ZM9.54004 14.3369L9.98944 14.5561L9.99147 14.5519L9.54004 14.3369ZM9.54492 13.458L9.0952 13.6768L9.10014 13.6864L9.54492 13.458ZM9.27148 13.1699L9.01253 13.5978L9.02097 13.6026L9.27148 13.1699ZM8.41699 13.1406L8.61107 13.6016L8.62118 13.597L8.41699 13.1406ZM8.10938 13.3652L7.72519 13.0451L7.71894 13.0529L8.10938 13.3652ZM7.99219 13.7217V14.2217H8.49219V13.7217H7.99219ZM6.3418 13.7217H5.8418V14.2217H6.3418V13.7217ZM6.67383 12.6865L6.27867 12.3802L6.27819 12.3808L6.67383 12.6865ZM7.55762 12.0225L7.7511 12.4835L7.7531 12.4827L7.55762 12.0225ZM10.0723 12.0225L9.88248 12.4851L9.88589 12.4864L10.0723 12.0225ZM10.9609 12.7061L10.5511 12.9925L10.5547 12.9975L10.9609 12.7061ZM11.1123 14.5078L11.554 14.7421L11.1123 14.5078ZM9.91113 15.46L10.0693 15.9343L10.0726 15.9332L9.91113 15.46ZM7.93848 15.5967H7.43848V16.0967H7.93848V15.5967ZM7.93848 15.9824H7.43848V16.4824H7.93848V15.9824ZM7.93848 15.1621V14.6621H7.43848V15.1621H7.93848ZM9.98438 15.2842L9.85055 15.766L9.85554 15.7673L9.98438 15.2842ZM11.2295 16.2168L10.781 16.4379L10.7823 16.4404L11.2295 16.2168ZM11.2002 17.8916L10.7552 17.6636L11.2002 17.8916ZM9.79395 18.9609L9.93003 19.4421L9.9345 19.4408L9.79395 18.9609ZM7.85547 18.9805L7.72301 19.4626L7.72796 19.4639L7.85547 18.9805ZM7.04492 18.6094L6.76002 19.0203L6.76377 19.0228L7.04492 18.6094ZM6.4541 17.9648L6.01698 18.2077L6.02065 18.2141L6.4541 17.9648ZM6.23438 17.0225V16.5225H5.73438V17.0225H6.23438ZM7.88477 17.0225H8.38477V16.5225H7.88477V17.0225ZM8.00684 17.4326L7.58913 17.7074L7.59334 17.7138L7.59774 17.7201L8.00684 17.4326ZM8.34375 17.7207L8.11601 18.1658L8.34375 17.7207ZM9.31055 17.7158L9.54638 18.1567L9.54997 18.1548L9.31055 17.7158ZM9.62793 16.3926L9.18892 16.632L9.1932 16.6396L9.62793 16.3926ZM9.28125 16.0801L9.08188 16.5386L9.08547 16.5402L9.28125 16.0801ZM7.93848 15.2568H8.73926V14.2568H7.93848V15.2568ZM8.73926 15.2568C8.99813 15.2568 9.25637 15.2122 9.48315 15.0875L9.00123 14.2113C8.96759 14.2298 8.89054 14.2568 8.73926 14.2568V15.2568ZM9.48681 15.0855C9.70612 14.9625 9.87829 14.784 9.98942 14.5561L9.09065 14.1177C9.07158 14.1568 9.04518 14.1866 8.99756 14.2133L9.48681 15.0855ZM9.99147 14.5519C10.0949 14.3346 10.1377 14.097 10.1377 13.8535H9.1377C9.1377 13.9811 9.11536 14.0658 9.08861 14.1219L9.99147 14.5519ZM10.1377 13.8535C10.1377 13.6356 10.0899 13.4248 9.98971 13.2296L9.10014 13.6864C9.1236 13.7321 9.1377 13.785 9.1377 13.8535H10.1377ZM9.99454 13.2393C9.8894 13.0231 9.72581 12.8552 9.522 12.7372L9.02097 13.6026C9.06455 13.6279 9.08326 13.652 9.0953 13.6767L9.99454 13.2393ZM9.53039 12.7422C9.30696 12.6069 9.05206 12.5576 8.79785 12.5576V13.5576C8.92776 13.5576 8.98861 13.5832 9.01258 13.5977L9.53039 12.7422ZM8.79785 12.5576C8.5944 12.5576 8.39806 12.6013 8.21281 12.6842L8.62118 13.597C8.68332 13.5692 8.74089 13.5576 8.79785 13.5576V12.5576ZM8.22296 12.6798C8.0298 12.7611 7.8607 12.8826 7.72526 13.0451L8.49349 13.6853C8.52081 13.6525 8.55679 13.6243 8.61102 13.6014L8.22296 12.6798ZM7.71894 13.0529C7.56143 13.2498 7.49219 13.4825 7.49219 13.7217H8.49219C8.49219 13.6985 8.49536 13.6871 8.49647 13.6837C8.49737 13.681 8.49803 13.6798 8.49981 13.6776L7.71894 13.0529ZM7.99219 13.2217H6.3418V14.2217H7.99219V13.2217ZM6.8418 13.7217C6.8418 13.4153 6.92355 13.1811 7.06947 12.9922L6.27819 12.3808C5.9814 12.7649 5.8418 13.2208 5.8418 13.7217H6.8418ZM7.06898 12.9929C7.2367 12.7766 7.45951 12.6059 7.75109 12.4835L7.36414 11.5614C6.92656 11.745 6.56018 12.0171 6.27867 12.3802L7.06898 12.9929ZM7.7531 12.4827C8.05552 12.3542 8.38412 12.2881 8.74414 12.2881V11.2881C8.25781 11.2881 7.79539 11.3782 7.36213 11.5623L7.7531 12.4827ZM8.74414 12.2881C9.19787 12.2881 9.57378 12.3584 9.88249 12.485L10.262 11.5599C9.80904 11.374 9.29952 11.2881 8.74414 11.2881V12.2881ZM9.88589 12.4864C10.187 12.6074 10.4013 12.7781 10.5511 12.9925L11.3708 12.4196C11.0974 12.0285 10.7193 11.7435 10.2586 11.5585L9.88589 12.4864ZM10.5547 12.9975C10.6971 13.1961 10.7832 13.4597 10.7832 13.8193H11.7832C11.7832 13.2936 11.6544 12.815 11.3672 12.4146L10.5547 12.9975ZM10.7832 13.8193C10.7832 13.9821 10.7461 14.1312 10.6706 14.2736L11.554 14.7421C11.7064 14.4548 11.7832 14.1448 11.7832 13.8193H10.7832ZM10.6706 14.2736C10.5914 14.4229 10.4782 14.5594 10.323 14.6826L10.9446 15.4659C11.1995 15.2636 11.4054 15.0224 11.554 14.7421L10.6706 14.2736ZM10.323 14.6826C10.1676 14.8059 9.97855 14.9087 9.74968 14.9867L10.0726 15.9332C10.3971 15.8225 10.6899 15.668 10.9446 15.4659L10.323 14.6826ZM9.75302 14.9856C9.53669 15.0577 9.29134 15.0967 9.0127 15.0967V16.0967C9.3851 16.0967 9.7387 16.0445 10.0692 15.9343L9.75302 14.9856ZM9.0127 15.0967H7.93848V16.0967H9.0127V15.0967ZM8.43848 15.5967V14.7568H7.43848V15.5967H8.43848ZM8.43848 15.9824V15.1621H7.43848V15.9824H8.43848ZM7.93848 15.6621H9.0127V14.6621H7.93848V15.6621ZM9.0127 15.6621C9.32962 15.6621 9.60771 15.6985 9.85055 15.7659L10.1182 14.8024C9.77511 14.7071 9.4054 14.6621 9.0127 14.6621V15.6621ZM9.85554 15.7673C10.097 15.8317 10.2902 15.9242 10.4442 16.038L11.0382 15.2335C10.7691 15.0348 10.4577 14.8929 10.1132 14.8011L9.85554 15.7673ZM10.4442 16.038C10.5929 16.1478 10.7031 16.2799 10.781 16.4379L11.678 15.9957C11.528 15.6915 11.3127 15.4362 11.0382 15.2335L10.4442 16.038ZM10.7823 16.4404C10.8563 16.5884 10.9004 16.7717 10.9004 17.0029H11.9004C11.9004 16.6417 11.8306 16.301 11.6767 15.9932L10.7823 16.4404ZM10.9004 17.0029C10.9004 17.2664 10.8479 17.4827 10.7552 17.6636L11.6452 18.1196C11.8194 17.7797 11.9004 17.4035 11.9004 17.0029H10.9004ZM10.7552 17.6636C10.6577 17.854 10.5214 18.015 10.3404 18.1495L10.9369 18.9521C11.2377 18.7285 11.4758 18.4501 11.6452 18.1196L10.7552 17.6636ZM10.3404 18.1495C10.1523 18.2893 9.92556 18.4014 9.65339 18.4811L9.9345 19.4408C10.3069 19.3317 10.6432 19.1704 10.9369 18.9521L10.3404 18.1495ZM9.65787 18.4798C9.3851 18.557 9.08149 18.5977 8.74414 18.5977V19.5977C9.16199 19.5977 9.55826 19.5472 9.93002 19.4421L9.65787 18.4798ZM8.74414 18.5977C8.49241 18.5977 8.23902 18.5645 7.98298 18.497L7.72796 19.4639C8.06437 19.5527 8.40343 19.5977 8.74414 19.5977V18.5977ZM7.98792 18.4983C7.74254 18.4309 7.52294 18.3298 7.32608 18.1959L6.76377 19.0228C7.05519 19.221 7.37595 19.3673 7.72301 19.4626L7.98792 18.4983ZM7.32981 18.1985C7.14726 18.0719 7.00079 17.9125 6.88755 17.7156L6.02065 18.2141C6.20689 18.538 6.4543 18.8083 6.76003 19.0203L7.32981 18.1985ZM6.89118 17.722C6.79376 17.5467 6.73438 17.3197 6.73438 17.0225H5.73438C5.73438 17.4544 5.82147 17.8557 6.01702 18.2077L6.89118 17.722ZM6.23438 17.5225H7.88477V16.5225H6.23438V17.5225ZM7.38477 17.0225C7.38477 17.2687 7.45342 17.5012 7.58913 17.7074L8.42454 17.1578C8.39749 17.1167 8.38477 17.0757 8.38477 17.0225H7.38477ZM7.59774 17.7201C7.73228 17.9115 7.90873 18.0598 8.11601 18.1658L8.57149 17.2756C8.49882 17.2384 8.45066 17.1946 8.41593 17.1451L7.59774 17.7201ZM8.11601 18.1658C8.329 18.2748 8.55878 18.3281 8.79785 18.3281V17.3281C8.7114 17.3281 8.63845 17.3098 8.57149 17.2756L8.11601 18.1658ZM8.79785 18.3281C9.06015 18.3281 9.31679 18.2795 9.54637 18.1567L9.07472 17.2749C9.02435 17.3019 8.9392 17.3281 8.79785 17.3281V18.3281ZM9.54997 18.1548C9.7669 18.0364 9.94639 17.8695 10.0711 17.6526L9.20424 17.1541C9.17926 17.1975 9.14065 17.2389 9.07112 17.2769L9.54997 18.1548ZM10.0711 17.6526C10.1923 17.4418 10.25 17.2101 10.25 16.9688H9.25C9.25 17.0464 9.23279 17.1044 9.20424 17.1541L10.0711 17.6526ZM10.25 16.9688C10.25 16.6786 10.2021 16.391 10.0627 16.1456L9.1932 16.6396C9.21651 16.6806 9.25 16.7771 9.25 16.9688H10.25ZM10.0669 16.1532C9.93374 15.9091 9.73146 15.7283 9.47703 15.62L9.08547 16.5402C9.13703 16.5621 9.16587 16.5896 9.18898 16.632L10.0669 16.1532ZM9.48061 15.6215C9.25231 15.5223 9.00002 15.4824 8.73926 15.4824V16.4824C8.90167 16.4824 9.01071 16.5077 9.08189 16.5386L9.48061 15.6215ZM8.73926 15.4824H7.93848V16.4824H8.73926V15.4824ZM16.8328 11.8906H17.3328V11.3906H16.8328V11.8906ZM16.8328 19V19.5H17.3328V19H16.8328ZM15.1873 19H14.6873V19.5H15.1873V19ZM15.1873 13.7461H15.6873V13.0791L15.0471 13.2662L15.1873 13.7461ZM13.5662 14.2197H13.0662V14.8867L13.7064 14.6997L13.5662 14.2197ZM13.5662 12.9697L13.4026 12.4973L13.0662 12.6138V12.9697H13.5662ZM16.6814 11.8906V11.3906H16.5973L16.5178 11.4182L16.6814 11.8906ZM16.3328 11.8906V19H17.3328V11.8906H16.3328ZM16.8328 18.5H15.1873V19.5H16.8328V18.5ZM15.6873 19V13.7461H14.6873V19H15.6873ZM15.0471 13.2662L13.426 13.7398L13.7064 14.6997L15.3275 14.226L15.0471 13.2662ZM14.0662 14.2197V12.9697H13.0662V14.2197H14.0662ZM13.7299 13.4422L16.8451 12.3631L16.5178 11.4182L13.4026 12.4973L13.7299 13.4422ZM16.6814 12.3906H16.8328V11.3906H16.6814V12.3906Z" fill="black"/>
</svg>
