<svg width="81" height="62" viewBox="0 0 81 62" fill="none" xmlns="http://www.w3.org/2000/svg">
<path d="M72.1639 39.5772L73.7931 36.4774C72.3321 34.7195 67.5386 32.5874 67.5386 32.5874L61.0509 26.7036C60.9818 26.4411 60.8445 26.2013 60.6529 26.0085C60.4612 25.8156 60.222 25.6765 59.9592 25.6051C59.6965 25.5336 59.4195 25.5324 59.1561 25.6016C58.8927 25.6707 58.6523 25.8078 58.4589 25.999C58.2656 26.1902 58.1263 26.4287 58.0549 26.6906C57.9835 26.9525 57.9827 27.2285 58.0524 27.4909C58.1221 27.7532 58.26 27.9927 58.4521 28.185C58.6442 28.3774 58.8837 28.516 59.1467 28.5868L66.1556 36.9627L72.1639 39.5772Z" fill="#9E616A"/>
<path d="M71.3748 39.3633L73.6753 40.0932C75.3482 40.6239 77.151 40.5839 78.7985 39.9795C79.2969 39.7946 79.7335 39.4745 80.0588 39.0554C80.3842 38.6363 80.5855 38.1348 80.6399 37.6077C80.7087 36.8927 80.5026 36.1783 80.063 35.6089C79.6235 35.0396 78.9833 34.6578 78.2721 34.5407C76.1147 34.1874 73.3348 34.0132 72.3431 35.1891L72.333 35.2011L71.3748 39.3633Z" fill="#3F3D56"/>
<path d="M54.8274 48.8531C61.2269 48.8531 66.4148 43.6839 66.4148 37.3074C66.4148 30.9308 61.2269 25.7617 54.8274 25.7617C48.4278 25.7617 43.24 30.9308 43.24 37.3074C43.24 43.6839 48.4278 48.8531 54.8274 48.8531Z" fill="white"/>
<path d="M50.0983 32.7912C49.9393 33.6426 49.6785 34.4719 49.3215 35.2615C47.2775 39.57 53.0985 38.1657 55.1787 38.1657C57.4532 38.1657 59.6293 39.3574 59.297 34.0623C59.155 31.8004 57.4532 29.9589 55.1787 29.9589C53.236 29.9589 50.5045 30.8193 50.0983 32.7912Z" fill="#2F2E41"/>
<path d="M54.838 38.1646C56.6862 38.1646 58.1845 36.6717 58.1845 34.8301C58.1845 32.9886 56.6862 31.4957 54.838 31.4957C52.9897 31.4957 51.4915 32.9886 51.4915 34.8301C51.4915 36.6717 52.9897 38.1646 54.838 38.1646Z" fill="#FFB6B6"/>
<path d="M52.5654 31.431C53.1519 31.0748 53.8236 30.8821 54.5103 30.8731C55.197 30.8641 55.8736 31.039 56.4692 31.3797C57.0649 31.7204 57.5577 32.2143 57.8962 32.8097C58.2347 33.4051 58.4065 34.0803 58.3935 34.7645C56.6882 35.191 54.8968 35.5175 53.0783 34.8665L52.6488 33.8192L52.3957 34.8673C51.8419 35.0928 51.2866 35.2836 50.7314 34.8651C50.7087 34.1828 50.8662 33.5066 51.188 32.9039C51.5099 32.3013 51.9848 31.7934 52.5654 31.431Z" fill="#2F2E41"/>
<path d="M63.837 44.9843C61.8295 47.2603 59.0043 48.6584 55.9712 48.8768C52.9382 49.0952 49.9406 48.1164 47.6255 46.1517L48.6194 43.3884C48.844 42.8976 49.1984 42.477 49.6447 42.1717C50.0909 41.8663 50.6122 41.6878 51.1526 41.6552L51.7849 41.6165L53.2925 40.3209C53.2925 40.3209 57.3549 40.1763 57.2946 40.1071L59.7553 41.5819L59.7532 41.5717L60.7206 41.6307C61.261 41.6632 61.7823 41.8417 62.2286 42.1471C62.6749 42.4524 63.0293 42.8731 63.2538 43.364L63.837 44.9843Z" fill="#7D75FF"/>
<path d="M70.9795 30.0428C73.1791 30.0428 74.9623 28.2661 74.9623 26.0743C74.9623 23.8825 73.1791 22.1058 70.9795 22.1058C68.7798 22.1058 66.9966 23.8825 66.9966 26.0743C66.9966 28.2661 68.7798 30.0428 70.9795 30.0428Z" fill="#9E616A"/>
<path d="M79.5115 62C69.4706 62 60.7292 62 60.7292 62L64.9795 49.0965L64.0509 37.2413C63.9375 35.7916 64.7628 34.4326 66.0466 33.951L67.8192 33.2867L69.2844 31.1877L73.4697 31.3251L75.1428 33.5287L76.4631 34.2296L79.3256 35.7487L79.3382 35.755V35.7613L78.4399 44.48L77.8981 49.7369C77.8981 49.7369 79.5435 55.6494 79.2059 56.4335C78.8682 57.2164 79.1618 56.8382 79.2437 57.2567C79.3256 57.6753 79.5763 57.7017 79.6141 58.5262C79.6531 59.3494 79.5115 62 79.5115 62Z" fill="#3F3D56"/>
<path d="M70.7855 29.8523C71.4841 29.8452 72.1808 29.7787 72.8679 29.6534C73.5482 29.4972 75.0492 28.3408 75.4583 27.6576C75.7623 27.1499 75.9447 26.3648 76.0442 25.7955C76.1786 25.0422 76.1527 24.2691 75.9682 23.5264C75.7837 22.7836 75.4446 22.0877 74.9731 21.4838C74.7913 21.2309 74.5442 21.0315 74.2581 20.9069C74.2328 20.8978 74.2068 20.8898 74.1805 20.8831C73.7657 20.7857 73.3897 20.567 73.1005 20.255C73.0444 20.1919 72.9838 20.1328 72.9191 20.0784C72.5948 19.8196 72.2136 19.641 71.8067 19.5572C71.1494 19.3999 70.2091 19.597 69.012 20.1435C68.4106 20.4181 67.7431 20.3415 67.2286 20.2441C67.1997 20.2393 67.1701 20.2421 67.1427 20.2523C67.1153 20.2624 67.0911 20.2796 67.0724 20.302C66.86 20.5112 66.576 20.6325 66.2774 20.6416C66.0947 20.6543 65.9094 20.9116 65.686 21.2465C65.6354 21.3226 65.5762 21.4113 65.5333 21.4655L65.5247 21.3638L65.4242 21.4801C65.2662 21.6628 65.1573 21.8825 65.1074 22.1185C65.0576 22.3545 65.0685 22.5993 65.1391 22.83C65.2098 23.0607 65.3378 23.2698 65.5114 23.4379C65.6851 23.606 65.8985 23.7276 66.132 23.7914C66.3172 23.8354 66.5065 23.8605 66.6968 23.8662C66.8122 23.8736 66.9315 23.8812 67.0462 23.898C67.4143 23.9633 67.7593 24.1226 68.0472 24.3604C68.3352 24.5982 68.5563 24.9063 68.6891 25.2547C68.7204 25.3352 68.7699 25.4074 68.8337 25.4658C68.8975 25.5243 68.974 25.5673 69.0571 25.5916C69.1403 25.6159 69.228 25.6209 69.3133 25.6061C69.3987 25.5913 69.4795 25.5571 69.5496 25.5062C69.6661 25.4109 69.804 25.3451 69.9515 25.3144C70.099 25.2837 70.2518 25.289 70.3969 25.3299C70.523 25.3956 70.6226 25.5025 70.679 25.6326C70.7472 25.7775 70.8572 25.8989 70.9949 25.9813C71.4645 26.2074 71.5238 27.2613 71.3801 28.1449C71.2417 28.9965 70.9404 29.6177 70.6475 29.6556C70.422 29.6847 70.3966 29.7014 70.3813 29.7416L70.3676 29.7777L70.3938 29.8104C70.5198 29.8523 70.6535 29.8666 70.7855 29.8523Z" fill="#2F2E41"/>
<path d="M54.8273 48.9976C52.5068 48.9976 50.2384 48.3119 48.309 47.0274C46.3796 45.7429 44.8758 43.9171 43.9878 41.781C43.0998 39.6448 42.8675 37.2943 43.3202 35.0266C43.7729 32.7589 44.8903 30.6759 46.5311 29.041C48.1719 27.406 50.2625 26.2926 52.5384 25.8416C54.8143 25.3905 57.1733 25.622 59.3171 26.5068C61.461 27.3916 63.2933 28.89 64.5825 30.8125C65.8717 32.7349 66.5598 34.9951 66.5598 37.3073C66.5563 40.4066 65.319 43.3781 63.1195 45.5697C60.92 47.7613 57.9379 48.9941 54.8273 48.9976ZM54.8273 25.9062C52.5642 25.9062 50.352 26.5749 48.4703 27.8276C46.5886 29.0804 45.1221 30.861 44.256 32.9443C43.39 35.0275 43.1634 37.3199 43.6049 39.5315C44.0464 41.7431 45.1362 43.7746 46.7364 45.369C48.3366 46.9635 50.3754 48.0493 52.595 48.4892C54.8146 48.9292 57.1152 48.7034 59.206 47.8405C61.2968 46.9775 63.0839 45.5162 64.3411 43.6413C65.5984 41.7665 66.2695 39.5622 66.2695 37.3073C66.2661 34.2846 65.0594 31.3867 62.9144 29.2493C60.7693 27.1119 57.8609 25.9096 54.8273 25.9062Z" fill="#3F3D56"/>
<path d="M65.5292 43.297L63.7749 40.2657C61.5025 40.5534 57.1279 43.4445 57.1279 43.4445L48.6662 45.7514C48.4067 45.6689 48.13 45.656 47.8639 45.7139C47.5978 45.7719 47.3518 45.8986 47.1505 46.0814C46.9492 46.2643 46.7998 46.4967 46.7173 46.7554C46.6348 47.014 46.6222 47.2897 46.6807 47.5548C46.7391 47.8198 46.8667 48.0649 47.0504 48.2652C47.2341 48.4656 47.4676 48.6142 47.7272 48.696C47.9869 48.7779 48.2637 48.7902 48.5296 48.7316C48.7956 48.673 49.0413 48.5457 49.2422 48.3623L60.095 46.9518L65.5292 43.297Z" fill="#9E616A"/>
<path d="M64.9252 43.8464L68.8527 40.5686L69.4241 37.9302C69.5343 37.4119 69.4969 36.8731 69.316 36.3748C69.1351 35.8765 68.8179 35.4386 68.4004 35.1105C67.8313 34.6695 67.1154 34.4603 66.3974 34.5251C65.6795 34.59 65.013 34.9241 64.5328 35.4598C63.0777 37.0858 61.441 39.3314 61.9064 40.7957L61.9111 40.8106L64.9252 43.8464Z" fill="#3F3D56"/>
<path d="M6.36975 23.1857L6.08183 19.1955C4.19577 18.2561 2.10806 17.7896 0 17.8365C2.96576 20.1207 2.72821 24.686 4.78215 27.8103C5.43025 28.7799 6.28901 29.5917 7.2948 30.1857C8.30059 30.7796 9.42762 31.1404 10.5924 31.2413L13.0606 32.6561C13.3429 30.7967 13.2174 28.8984 12.6925 27.092C12.1677 25.2857 11.256 23.6141 10.0204 22.1926C9.31933 21.4019 8.52109 20.7024 7.64455 20.1105C7.10505 21.6539 6.36975 23.1857 6.36975 23.1857Z" fill="white"/>
<path d="M14.8875 44.4193C21.287 44.4193 26.4749 39.2502 26.4749 32.8736C26.4749 26.4971 21.287 21.3279 14.8875 21.3279C8.48791 21.3279 3.30005 26.4971 3.30005 32.8736C3.30005 39.2502 8.48791 44.4193 14.8875 44.4193Z" fill="white"/>
<path d="M9.51693 29.1178C9.99606 27.5963 11.0856 26.2009 12.5925 25.6865C14.0994 25.1722 16.3059 25.9557 17.4388 27.0807C19.5111 29.1385 20.0168 36.2079 18.5931 38.4419C18.3099 38.4269 17.3327 38.4159 17.0461 38.4052L16.6407 37.0587V38.3919C16.184 38.3778 15.7238 38.3681 15.2601 38.3628C13.7052 38.3436 12.2183 37.7244 11.112 36.6355C10.0058 35.5466 9.36632 34.0727 9.32807 32.5238C9.29097 31.042 9.32811 29.7174 9.51693 29.1178Z" fill="#2F2E41"/>
<path d="M14.7157 34.1603C16.5395 34.1603 18.018 32.6871 18.018 30.8699C18.018 29.0526 16.5395 27.5794 14.7157 27.5794C12.8918 27.5794 11.4133 29.0526 11.4133 30.8699C11.4133 32.6871 12.8918 34.1603 14.7157 34.1603Z" fill="#9E616A"/>
<path d="M11.8657 27.9801L15.668 26.0831C16.4454 26.4321 17.1149 26.982 17.6071 27.6757C18.0993 28.3695 18.3962 29.1818 18.4672 30.0284L18.5619 31.1595L16.9697 30.7557L16.7953 29.3093L16.5249 30.6429L15.7901 30.4566L15.7971 28.2111L15.0618 30.455L12.4374 29.8542L11.8657 27.9801Z" fill="#2F2E41"/>
<path d="M23.4862 40.5141C21.4787 42.7901 18.6535 44.1882 15.6204 44.4066C12.5873 44.625 9.58972 43.6462 7.27466 41.6815L8.26854 38.9182C8.49314 38.4274 8.84757 38.0068 9.29384 37.7015C9.74011 37.3961 10.2614 37.2176 10.8017 37.1849L11.434 37.1463L12.9417 35.8506C12.9417 35.8506 17.004 35.7061 16.9438 35.6369L19.4045 37.1117L19.4024 37.1015L20.3697 37.1605C20.9101 37.193 21.4315 37.3715 21.8778 37.6769C22.3241 37.9822 22.6785 38.4029 22.9029 38.8938L23.4862 40.5141Z" fill="#7D75FF"/>
<path d="M14.8876 44.5639C12.5671 44.5639 10.2987 43.8782 8.36933 42.5937C6.43992 41.3091 4.93613 39.4834 4.04812 37.3472C3.16011 35.2111 2.92777 32.8606 3.38047 30.5929C3.83317 28.3252 4.95059 26.2422 6.59141 24.6072C8.23224 22.9723 10.3228 21.8589 12.5987 21.4079C14.8746 20.9568 17.2336 21.1883 19.3774 22.0731C21.5213 22.9579 23.3536 24.4563 24.6428 26.3788C25.932 28.3012 26.6201 30.5614 26.6201 32.8735C26.6166 35.9729 25.3794 38.9444 23.1798 41.136C20.9803 43.3276 17.9982 44.5603 14.8876 44.5639ZM14.8876 21.4725C12.6245 21.4725 10.4123 22.1412 8.53061 23.3939C6.64895 24.6467 5.18237 26.4273 4.31633 28.5106C3.4503 30.5938 3.2237 32.8862 3.6652 35.0978C4.1067 37.3094 5.19647 39.3408 6.7967 40.9353C8.39692 42.5298 10.4357 43.6156 12.6553 44.0555C14.8749 44.4954 17.1755 44.2697 19.2663 43.4067C21.3571 42.5438 23.1442 41.0825 24.4014 39.2076C25.6587 37.3327 26.3298 35.1285 26.3298 32.8735C26.3264 29.8509 25.1197 26.9529 22.9747 24.8156C20.8296 22.6782 17.9212 21.4759 14.8876 21.4725Z" fill="#3F3D56"/>
<path d="M32.3327 56.585H17.5755C17.18 56.5845 16.8008 56.4278 16.5211 56.1491C16.2415 55.8705 16.0842 55.4927 16.0837 55.0986V46.0423C16.0842 45.6482 16.2415 45.2704 16.5211 44.9917C16.8008 44.7131 17.18 44.5564 17.5755 44.5559H32.3327C32.7281 44.5564 33.1073 44.7131 33.387 44.9917C33.6666 45.2704 33.8239 45.6482 33.8244 46.0423V55.0986C33.8239 55.4927 33.6666 55.8705 33.387 56.1491C33.1073 56.4278 32.7282 56.5845 32.3327 56.585Z" fill="#F8F8F8"/>
<path d="M26.4695 55.4186H18.6129C18.2425 55.4182 17.8874 55.2714 17.6255 55.0104C17.3636 54.7494 17.2162 54.3956 17.2158 54.0265V47.1146C17.2162 46.7455 17.3636 46.3917 17.6255 46.1307C17.8874 45.8697 18.2425 45.7229 18.6129 45.7225H31.2955C31.6659 45.7229 32.021 45.8697 32.2829 46.1307C32.5448 46.3917 32.6921 46.7455 32.6926 47.1146V49.218C32.6907 50.8619 32.0344 52.438 30.8678 53.6004C29.7012 54.7629 28.1194 55.4167 26.4695 55.4186Z" fill="white"/>
<path d="M30.0302 49.5073H19.878C19.7902 49.5073 19.7059 49.4726 19.6439 49.4107C19.5818 49.3489 19.5469 49.2649 19.5469 49.1774C19.5469 49.0899 19.5818 49.006 19.6439 48.9442C19.7059 48.8823 19.7902 48.8475 19.878 48.8475H30.0302C30.118 48.8475 30.2022 48.8823 30.2643 48.9442C30.3264 49.006 30.3613 49.0899 30.3613 49.1774C30.3613 49.2649 30.3264 49.3489 30.2643 49.4107C30.2022 49.4726 30.118 49.5073 30.0302 49.5073Z" fill="#7D75FF"/>
<path d="M21.4661 50.8111H19.878C19.7902 50.8111 19.706 50.7763 19.6439 50.7145C19.5818 50.6526 19.5469 50.5687 19.5469 50.4812C19.5469 50.3937 19.5818 50.3097 19.6439 50.2479C19.706 50.186 19.7902 50.1512 19.878 50.1512H21.4661C21.5539 50.1512 21.6381 50.186 21.7002 50.2479C21.7623 50.3097 21.7972 50.3937 21.7972 50.4812C21.7972 50.5687 21.7623 50.6526 21.7002 50.7145C21.6381 50.7763 21.5539 50.8111 21.4661 50.8111Z" fill="#7D75FF"/>
<path d="M24.2788 52.1144H19.878C19.7903 52.1143 19.7063 52.0794 19.6443 52.0176C19.5824 51.9557 19.5476 51.8719 19.5476 51.7845C19.5476 51.6971 19.5824 51.6133 19.6443 51.5515C19.7063 51.4896 19.7903 51.4548 19.878 51.4546H24.2788C24.3665 51.4548 24.4505 51.4896 24.5125 51.5515C24.5744 51.6133 24.6092 51.6971 24.6092 51.7845C24.6092 51.8719 24.5744 51.9557 24.5125 52.0176C24.4505 52.0794 24.3665 52.1143 24.2788 52.1144Z" fill="#7D75FF"/>
<path d="M15.5688 47.486C17.2928 47.486 18.6905 46.0934 18.6905 44.3755C18.6905 42.6576 17.2928 41.265 15.5688 41.265C13.8447 41.265 12.447 42.6576 12.447 44.3755C12.447 46.0934 13.8447 47.486 15.5688 47.486Z" fill="#3F3D56"/>
<path d="M34.7358 23.5866C41.1354 23.5866 46.3232 18.4174 46.3232 12.0409C46.3232 5.66436 41.1354 0.495178 34.7358 0.495178C28.3363 0.495178 23.1484 5.66436 23.1484 12.0409C23.1484 18.4174 28.3363 23.5866 34.7358 23.5866Z" fill="white"/>
<path d="M35.2723 13.2186C37.3591 13.2186 39.0508 11.533 39.0508 9.45375C39.0508 7.37448 37.3591 5.6889 35.2723 5.6889C33.1856 5.6889 31.4939 7.37448 31.4939 9.45375C31.4939 11.533 33.1856 13.2186 35.2723 13.2186Z" fill="#FFB8B8"/>
<path d="M38.599 6.96671C38.599 6.96671 39.5828 5.0928 37.4185 4.92244C37.4185 4.92244 35.5733 3.25471 33.6927 4.61756C33.6927 4.61756 32.6668 4.61756 32.1059 5.77422C32.1059 5.77422 31.2991 5.46934 31.1218 6.28529C31.1218 6.28529 30.5314 7.98885 31.1218 9.52205C31.7121 11.0553 31.9082 11.2256 31.9082 11.2256C31.9082 11.2256 31.494 9.32299 33.8553 9.15263C36.2166 8.98228 38.3829 7.50835 38.5796 9.38226C38.7764 11.2562 38.9928 10.4097 38.9928 10.4097C38.9928 10.4097 40.8618 7.73332 38.599 6.96671Z" fill="#2F2E41"/>
<path d="M43.4501 19.7181C41.4426 21.9941 38.6174 23.3922 35.5843 23.6106C32.5512 23.829 29.5536 22.8502 27.2385 20.8855L28.2324 18.1222C28.457 17.6314 28.8114 17.2108 29.2577 16.9054C29.704 16.6001 30.2252 16.4215 30.7656 16.3889L31.3979 16.3503L32.9056 15.0546C32.9056 15.0546 36.9679 14.9101 36.9076 14.8409L39.3683 16.3156L39.3663 16.3055L40.3336 16.3645C40.874 16.397 41.3953 16.5755 41.8416 16.8808C42.2879 17.1862 42.6423 17.6069 42.8668 18.0978L43.4501 19.7181Z" fill="#7D75FF"/>
<path d="M34.736 23.7313C32.4155 23.7313 30.1471 23.0457 28.2177 21.7611C26.2883 20.4766 24.7845 18.6508 23.8965 16.5147C23.0085 14.3785 22.7762 12.028 23.2289 9.7603C23.6816 7.4926 24.799 5.40959 26.4398 3.77467C28.0806 2.13975 30.1712 1.02635 32.4471 0.575279C34.7229 0.124205 37.082 0.355711 39.2258 1.24052C41.3697 2.12534 43.202 3.62371 44.4912 5.54617C45.7804 7.46864 46.4685 9.72884 46.4685 12.041C46.465 15.1403 45.2277 18.1118 43.0282 20.3034C40.8287 22.495 37.8465 23.7278 34.736 23.7313ZM34.736 0.639917C32.4729 0.639917 30.2607 1.30858 28.379 2.56134C26.4973 3.8141 25.0308 5.5947 24.1647 7.67797C23.2987 9.76124 23.0721 12.0536 23.5136 14.2652C23.9551 16.4768 25.0449 18.5083 26.6451 20.1027C28.2453 21.6972 30.2841 22.783 32.5037 23.2229C34.7233 23.6629 37.0239 23.4371 39.1147 22.5742C41.2055 21.7112 42.9925 20.2499 44.2498 18.375C45.5071 16.5002 46.1782 14.2959 46.1782 12.041C46.1748 9.01827 44.9681 6.12036 42.823 3.98299C40.678 1.84563 37.7696 0.643346 34.736 0.639917Z" fill="#3F3D56"/>
<path d="M63.4564 12.9003H48.6992C48.3037 12.8998 47.9246 12.7431 47.6449 12.4644C47.3653 12.1858 47.208 11.808 47.2075 11.4139V2.35757C47.208 1.9635 47.3653 1.5857 47.6449 1.30705C47.9246 1.02841 48.3037 0.871663 48.6992 0.871216H63.4564C63.8519 0.871661 64.2311 1.0284 64.5107 1.30705C64.7904 1.5857 64.9477 1.9635 64.9482 2.35757V11.4139C64.9477 11.808 64.7904 12.1858 64.5107 12.4644C64.2311 12.7431 63.8519 12.8998 63.4564 12.9003Z" fill="#F8F8F8"/>
<path d="M57.5931 11.7337H49.7365C49.3661 11.7333 49.011 11.5865 48.749 11.3255C48.4871 11.0646 48.3398 10.7107 48.3394 10.3417V3.42968C48.3398 3.06061 48.4871 2.70678 48.749 2.44582C49.011 2.18485 49.3661 2.03807 49.7365 2.03766H62.419C62.7894 2.03807 63.1445 2.18486 63.4065 2.44582C63.6684 2.70679 63.8157 3.06062 63.8161 3.42968V5.53314C63.8142 7.17706 63.158 8.75313 61.9913 9.91555C60.8247 11.078 59.2429 11.7318 57.5931 11.7337Z" fill="white"/>
<path d="M61.154 5.82259H51.0018C50.9139 5.82259 50.8297 5.78784 50.7676 5.72597C50.7055 5.6641 50.6707 5.58018 50.6707 5.49269C50.6707 5.40519 50.7055 5.32128 50.7676 5.25941C50.8297 5.19754 50.9139 5.16278 51.0018 5.16278H61.154C61.2418 5.16278 61.326 5.19754 61.3881 5.25941C61.4502 5.32128 61.4851 5.40519 61.4851 5.49269C61.4851 5.58018 61.4502 5.6641 61.3881 5.72597C61.326 5.78784 61.2418 5.82259 61.154 5.82259Z" fill="#7D75FF"/>
<path d="M52.5898 7.12621H51.0018C50.9139 7.12621 50.8297 7.09145 50.7676 7.02958C50.7055 6.96771 50.6707 6.88379 50.6707 6.79629C50.6707 6.70879 50.7055 6.62487 50.7676 6.563C50.8297 6.50113 50.9139 6.46637 51.0018 6.46637H52.5898C52.6777 6.46637 52.7619 6.50113 52.824 6.563C52.8861 6.62487 52.9209 6.70879 52.9209 6.79629C52.9209 6.88379 52.8861 6.96771 52.824 7.02958C52.7619 7.09145 52.6777 7.12621 52.5898 7.12621Z" fill="#7D75FF"/>
<path d="M55.4023 8.42986H51.0016C50.9139 8.42968 50.8298 8.39484 50.7679 8.33299C50.7059 8.27113 50.6711 8.18732 50.6711 8.09994C50.6711 8.01256 50.7059 7.92875 50.7679 7.86689C50.8298 7.80504 50.9139 7.7702 51.0016 7.77002H55.4023C55.4901 7.77002 55.5743 7.80478 55.6364 7.86665C55.6985 7.92852 55.7334 8.01244 55.7334 8.09994C55.7334 8.18744 55.6985 8.27136 55.6364 8.33323C55.5743 8.3951 55.4901 8.42986 55.4023 8.42986Z" fill="#7D75FF"/>
<path d="M46.6925 14.6488C48.4166 14.6488 49.8143 13.2562 49.8143 11.5384C49.8143 9.82047 48.4166 8.42786 46.6925 8.42786C44.9685 8.42786 43.5708 9.82047 43.5708 11.5384C43.5708 13.2562 44.9685 14.6488 46.6925 14.6488Z" fill="#3F3D56"/>
</svg>
