<svg width="159" height="115" viewBox="0 0 159 115" fill="none" xmlns="http://www.w3.org/2000/svg">
<g clip-path="url(#clip0_1989_272)">
<path opacity="0.3" d="M21.4547 47.479C21.4547 72.6088 50.5613 92.9807 86.4664 92.9807C122.371 92.9807 151.478 72.6088 151.478 47.479C151.478 22.3492 122.371 1.97733 86.4664 1.97733C50.5613 1.97733 21.4547 22.3492 21.4547 47.479Z" fill="#AFC8FE"/>
<path d="M0 109.621C0 112.096 13.2871 114.103 29.6775 114.103C46.068 114.103 59.355 112.096 59.355 109.621C59.355 107.145 46.068 105.138 29.6775 105.138C13.2871 105.138 0 107.145 0 109.621Z" fill="#D9D8E8"/>
<path d="M24.5706 110.517C24.5706 112.993 48.5743 115 78.1844 115C107.795 115 131.798 112.993 131.798 110.517C131.798 108.041 107.795 106.034 78.1844 106.034C48.5743 106.034 24.5706 108.041 24.5706 110.517Z" fill="#D9D8E8"/>
<path d="M32.4793 103.312L32.9563 106.842C32.9563 106.842 41.9003 110.583 41.0707 110.637C40.2409 110.691 27.388 109.877 27.388 109.877L28.1446 103.468L32.4793 103.312Z" fill="#146BA2"/>
<path d="M29.9875 45.6772C29.9875 45.6772 29.275 52.4127 28.7404 52.7627C28.2058 53.1126 27.4931 53.2876 27.4931 53.2876L28.6513 45.5897L29.9875 45.6772Z" stroke="#333436" stroke-width="1.33333" stroke-miterlimit="10"/>
<path d="M15.8641 41.0474C15.8641 41.0474 12.2389 49.085 13.2913 53.5629L33.3868 50.5533L32.9678 42.2036L15.8641 41.0474Z" fill="#040606"/>
<path d="M33.3868 50.5533C33.3868 50.5533 33.5008 69.837 33.6404 76.5555C33.7801 83.274 34.9767 104.022 34.9767 104.022C34.9767 104.022 31.2241 106.054 27.3156 104.412C27.003 104.281 23.6362 50.3734 23.6362 50.3734L33.3868 50.5533Z" fill="#040606"/>
<path d="M13.6241 51.1761L5.14441 104.199C5.14441 104.199 8.84751 107.605 13.5253 104.505L22.1477 61.1947L26.3349 58.4344L26.9586 50.5341L13.6241 51.1761Z" fill="#040606"/>
<path d="M11.3976 102.886L12.1696 105.932C12.1696 105.932 17.8121 112.595 16.9806 112.595C16.1491 112.595 6.88367 108.47 6.88367 108.47L8.07154 102.124L11.3976 102.886Z" fill="#146BA2"/>
<path d="M16.7217 44.3008C16.7217 44.3008 11.3777 66.3606 7.40521 105.308" stroke="#333436" stroke-width="0.5" stroke-miterlimit="10"/>
<path d="M20.3859 46.6738C20.3859 46.6738 18.5148 51.2664 15.3184 51.3432" stroke="#333436" stroke-width="0.5" stroke-miterlimit="10"/>
<path d="M28.2896 104.73L25.5554 59.0871L28.2262 56.3369" stroke="#333436" stroke-width="0.5" stroke-miterlimit="10"/>
<path d="M28.2538 17.9552C29.6442 17.6758 30.659 17.4753 30.659 17.4753L39.3312 22.1257C39.3457 22.1337 39.3605 22.1416 39.3753 22.1496C42.217 23.6892 43.4731 26.3014 43.3985 29.9623L43.8197 35.2654L39.1203 31.5209L35.1476 39.0426L32.6245 47.9225C19.1604 52.7298 13.9305 44.0987 13.9305 44.0987L18.3916 34.6168L20.1934 25.8601C21.0493 21.3671 23.693 18.872 28.2538 17.9552Z" fill="#146BA2"/>
<path d="M101.055 32.9354C101.055 32.9354 99.6967 38.5155 92.0083 45.3245C92.0083 45.3245 91.2745 44.3054 92.9158 40.3782C94.5573 36.451 100.733 31.5428 101.055 32.9354Z" fill="#3C8E8B"/>
<path d="M101.055 32.9354C101.055 32.9354 94.266 37.0861 92.0083 45.3245C92.0083 45.3245 91.4896 48.166 92.3267 50.7088" stroke="#040606" stroke-width="1.33333" stroke-miterlimit="10" stroke-linecap="round"/>
<path d="M83.3087 36.3953C83.3087 36.3953 85.2184 35.1549 82.306 31.5735C79.5396 28.1712 76.5764 25.0903 70.4862 23.6464C70.4862 23.6464 71.8104 31.9544 75.6963 34.1594C79.5821 36.3646 83.3087 36.3953 83.3087 36.3953Z" fill="#3C8E8B"/>
<path d="M67.966 41.4774C67.966 41.4774 74.3019 43.2581 85.4338 40.373C85.4338 40.373 84.8302 39.2242 79.9846 38.5457C75.1391 37.8672 66.7577 40.4783 67.966 41.4774Z" fill="#3C8E8B"/>
<path d="M67.966 41.4774C67.966 41.4774 75.9374 37.9553 85.4338 40.373C85.4338 40.373 86.4069 40.6783 87.3276 42.0624" stroke="#040606" stroke-width="1.33333" stroke-miterlimit="10" stroke-linecap="round"/>
<path d="M72.9188 47.5289C72.9188 47.5289 79.5053 52.4061 90.6368 49.5211C90.6368 49.5211 88.7632 45.6229 83.9176 44.9444C79.0721 44.2659 71.7104 46.5298 72.9188 47.5289Z" fill="#3C8E8B"/>
<path d="M72.9188 47.5289C72.9188 47.5289 80.5522 44.6 90.6368 49.5211C90.6368 49.5211 91.8208 50.1304 92.7415 51.5146" stroke="#040606" stroke-width="1.33333" stroke-miterlimit="10" stroke-linecap="round"/>
<path d="M97.608 27.3537C97.608 27.3537 99.6528 27.2426 94.4067 31.429C89.4531 35.3822 90.0455 35.4527 90.0455 35.4527C90.0455 35.4527 92.2348 29.2087 97.608 27.3537Z" fill="#040606"/>
<path d="M86.503 37.3903C86.503 37.3903 87.9814 38.0594 90.8762 35.7681C93.7708 33.4765 95.1486 28.0508 97.608 27.3537C97.608 27.3537 91.4516 28.887 86.503 37.3903Z" fill="#3C8E8B"/>
<path d="M95.212 56.8788C92.5267 50.586 88.6975 43.3881 83.3087 36.3953C83.3087 36.3953 81.9984 34.4663 77.3411 29.3864C72.6836 24.3063 70.4862 23.6464 70.4862 23.6464" stroke="#040606" stroke-width="1.33333" stroke-miterlimit="10" stroke-linecap="round"/>
<path d="M96.8764 27.6011C96.8764 27.6011 90.9768 29.6988 86.503 37.3903C85.4195 39.2535 86.4664 40.848 87.3275 42.0624" stroke="#040606" stroke-width="1.33333" stroke-miterlimit="10" stroke-linecap="round"/>
<path d="M156.608 100.08C156.608 100.08 150.886 101.767 141.338 95.6914C141.338 95.6914 141.965 94.0593 146.283 93.7968C150.602 93.5342 157.754 98.7679 156.608 100.08Z" fill="#3C8E8B"/>
<path d="M156.393 99.6677C156.393 99.6677 150.108 94.8115 141.45 95.5304C141.45 95.5304 138.552 96.0186 136.401 97.6566" stroke="#040606" stroke-width="1.33333" stroke-miterlimit="10" stroke-linecap="round"/>
<path d="M144.153 87.5588C144.153 87.5588 145.991 88.8996 148.43 84.9922C150.747 81.2802 152.689 77.4964 152 71.3821C152 71.3821 144.494 75.4316 143.704 79.7697C142.915 84.1077 144.153 87.5588 144.153 87.5588Z" fill="#3C8E8B"/>
<path d="M158.912 94.5384C158.912 94.5384 160.113 96.1672 153.689 94.0996C147.623 92.1475 147.883 92.6749 147.883 92.6749C147.883 92.6749 154.416 91.1048 158.912 94.5384Z" fill="#040606"/>
<path d="M144.307 90.7974C144.307 90.7974 144.533 92.3804 148.062 93.5311C151.591 94.6821 156.984 92.8847 158.912 94.5384C158.912 94.5384 154.268 90.284 144.307 90.7974Z" fill="#3C8E8B"/>
<path d="M128.586 105.519C133.699 100.898 139.29 94.9136 144.153 87.5589C144.153 87.5589 145.555 85.6929 148.835 79.6641C152.115 73.6353 152 71.3821 152 71.3821" stroke="#040606" stroke-width="1.33333" stroke-miterlimit="10" stroke-linecap="round"/>
<path d="M158.304 94.0683C158.304 94.0683 153.315 90.3311 144.307 90.7974C142.125 90.9104 141.136 91.9536 139.5 93.957" stroke="#040606" stroke-width="1.33333" stroke-miterlimit="10" stroke-linecap="round"/>
<path d="M97.1061 44.1675C98.8568 44.1675 100.552 43.5644 101.897 42.463L105.627 39.4068C106.969 38.3071 108.564 37.7178 110.197 37.7178H128.709C130.39 37.7178 131.751 39.055 131.751 40.7043V44.1675V106.508C131.751 109.355 129.401 111.662 126.503 111.662H34.2189C31.9643 111.662 30.1364 109.867 30.1364 107.654V48.1762C30.1364 45.9622 31.9643 44.1675 34.2189 44.1675H97.1061Z" fill="#0F6094"/>
<path d="M30.1367 107.989C30.1367 107.989 36.4171 96.4219 37.0453 95.0937L54.2094 60.7603C54.641 59.8481 55.5725 59.2642 56.597 59.2642H120.381C122.699 59.2642 126.053 58.071 127.833 56.6123L130.407 54.5036C131.749 53.4039 133.344 52.8145 134.978 52.8145H152.595C154.47 52.8145 155.744 54.6849 155.028 56.3866L133.724 106.977C132.53 109.812 129.713 111.662 126.587 111.662H31.2886C30.6674 111.662 30.094 111.139 30.0942 110.529L30.1367 107.989Z" fill="#409BD4"/>
<path d="M56.0808 62.5291L30.8942 110.601" stroke="#040606" stroke-width="0.8" stroke-miterlimit="10" stroke-linejoin="round"/>
<path d="M66.4588 70.813H88.1546C88.7462 70.813 89.2967 70.5207 89.6143 70.038C90.3475 68.9243 89.5199 67.4667 88.1546 67.4667H66.4588C65.8672 67.4667 65.3167 67.759 64.9991 68.2417C64.2659 69.3554 65.0935 70.813 66.4588 70.813Z" stroke="#040606" stroke-width="0.8" stroke-miterlimit="10" stroke-linejoin="round"/>
<path d="M107.043 87.3353L90.1511 97.2167" stroke="#040606" stroke-width="0.8" stroke-miterlimit="10" stroke-linecap="round" stroke-linejoin="round"/>
<path d="M93.2319 86.8592L103.846 97.2762" stroke="#040606" stroke-width="0.8" stroke-miterlimit="10" stroke-linecap="round" stroke-linejoin="round"/>
<path d="M93.3202 84.21C87.1135 87.2218 84.538 93.239 87.568 97.6497C90.598 102.06 98.0861 103.195 104.293 100.183C110.5 97.171 113.075 91.1539 110.045 86.7432C107.015 82.3325 99.5271 81.1982 93.3202 84.21Z" stroke="#040606" stroke-width="0.8" stroke-miterlimit="10" stroke-linecap="round" stroke-linejoin="round"/>
<path d="M34.4468 40.3741L37.5793 43.828C37.5793 43.828 34.6406 47.2325 31.6559 45.2159L31.1771 44.5418L34.4468 40.3741Z" fill="#146BA2"/>
<path d="M34.7096 40.7364C32.3924 38.1801 29.5602 34.9682 27.8871 32.7536" stroke="#040606" stroke-width="0.5" stroke-miterlimit="10" stroke-linecap="round"/>
<path d="M31.6559 45.2159C29.4323 42.9775 26.4269 39.7908 25.1153 38.6099C23.0711 36.7694 20.9499 33.8081 21.6414 30.0037L21.5583 26.9536" stroke="#040606" stroke-width="0.5" stroke-miterlimit="10" stroke-linecap="round"/>
<path d="M45.0055 43.5812C42.2668 42.1282 41.0051 40.3294 39.949 38.996C37.4296 35.8156 36.5369 35.4218 37.2751 31.72L37.3156 27.846L42.7816 33.654C44.8689 36.3729 49.6809 41.2462 51.4587 43.1665C51.4587 43.1665 49.372 45.8975 45.0055 43.5812Z" fill="#146BA2"/>
<path d="M33.8583 42.6002C34.1102 42.5324 34.3717 42.5116 34.6314 42.5385C35.5688 42.6358 38.0807 42.8947 38.3639 42.8983C38.713 42.9027 38.9968 42.3912 39.7462 44.2462C40.4954 46.1012 40.3607 46.274 40.3565 46.5164C40.3521 46.7588 39.8088 50.321 39.2248 49.786C38.641 49.2509 38.7195 48.9394 38.7195 48.9394C38.7195 48.9394 38.4047 50.386 38.2391 50.3301C38.0734 50.2744 37.4598 50.2725 37.5581 49.2512C37.5581 49.2512 37.2235 50.244 36.8785 49.9972C36.5336 49.7503 36.6109 48.6769 36.6109 48.6769C36.6109 48.6769 36.2417 49.4827 35.8199 48.9446C35.3984 48.4065 35.7126 47.1606 35.7126 47.1606L35.359 46.235L34.5948 45.9106C34.5948 45.9106 32.0212 46.5715 31.5788 44.8177C31.2386 43.4701 33.0167 42.8261 33.8583 42.6002Z" fill="#F0896F"/>
<path d="M39.0343 44.8745L39.5178 46.868L38.7195 48.9394" stroke="#040606" stroke-width="0.3" stroke-miterlimit="10" stroke-linecap="round"/>
<path d="M37.7938 44.8007L38.4197 46.8441L37.558 49.2512" stroke="#040606" stroke-width="0.3" stroke-miterlimit="10" stroke-linecap="round"/>
<path d="M36.7059 45.0286L37.0701 46.9933L36.6531 48.4649" stroke="#040606" stroke-width="0.3" stroke-miterlimit="10" stroke-linecap="round"/>
<path d="M47.6472 42.0295C48.5156 41.8235 49.4312 41.9625 50.2261 42.3627C51.2722 42.8889 52.9064 43.704 53.1193 43.7665C53.4357 43.8592 53.6422 43.6911 53.6841 45.5782C53.7008 46.3239 53.6983 46.8387 53.6307 47.0581C53.5628 47.2777 52.0277 49.5298 51.5236 49.2128C51.5099 49.204 51.5004 49.1969 51.4881 49.1887C51.3602 49.3571 51.1889 49.5638 51.0208 49.7048C50.8948 49.8104 50.1937 49.7961 50.5524 48.8919C50.5524 48.8919 50.0664 49.9368 49.6885 49.7978C49.196 49.6162 49.2759 49.1514 49.4555 48.7578C49.2268 49.0614 48.9435 49.3085 48.7421 49.0458C48.3469 48.531 49.2421 46.6991 49.2421 46.6991L49.3466 45.5897L48.6631 44.9891C48.6631 44.9891 46.2213 45.0481 46.2805 43.3401C46.3079 42.5574 46.9545 42.1937 47.6472 42.0295Z" fill="#F0896F"/>
<path d="M53.0064 44.8871L52.9757 46.9108L51.4724 49.0581" stroke="#040606" stroke-width="0.3" stroke-miterlimit="10" stroke-linecap="round"/>
<path d="M51.9392 44.903L51.8219 46.9887L50.5524 48.8919" stroke="#040606" stroke-width="0.3" stroke-miterlimit="10" stroke-linecap="round"/>
<path d="M50.8554 44.9576L50.7032 46.7141L49.62 48.4784" stroke="#040606" stroke-width="0.3" stroke-miterlimit="10" stroke-linecap="round"/>
<path d="M47.7657 44.4894C47.7657 44.4894 48.0106 46.3 47.4157 46.6974C46.8207 47.0948 45.861 43.351 46.521 43.303C47.488 43.2328 47.7657 44.4894 47.7657 44.4894Z" fill="#F0896F"/>
<path d="M48.5767 44.2278C48.5767 44.2278 47.9849 44.3211 47.8156 45.0037" stroke="#040606" stroke-width="0.5" stroke-miterlimit="10" stroke-linecap="round"/>
<path d="M43.8197 35.2654C43.8197 35.2654 42.1249 32.9582 41.7397 33.9795" stroke="#040606" stroke-width="0.5" stroke-miterlimit="10" stroke-linecap="round"/>
<path d="M44.4748 16.0643L43.9868 15.9634" stroke="white" stroke-width="1.33333" stroke-miterlimit="10"/>
<path d="M34.2733 15.6184L30.659 17.4753C30.659 17.4753 30.564 21.6872 34.6233 24.8887L36.4461 23.1497L38.2832 24.954C38.2832 24.954 38.9817 24.4148 39.1896 21.9697L38.8619 19.0004L34.2733 15.6184Z" fill="white"/>
<path d="M38.8619 19.0004L34.2733 15.6184L30.659 17.4753" stroke="#040606" stroke-width="0.3" stroke-miterlimit="10" stroke-linecap="round" stroke-linejoin="round"/>
<path d="M33.2239 16.2568C33.2239 16.2568 34.3418 22.6725 35.9961 23.1272C37.6508 23.5817 38.6829 20.3735 38.6829 20.3735L35.4788 11.6154L33.2239 16.2568Z" fill="#F0896F"/>
<path d="M39.2974 21.145L39.3169 21.9425C39.3323 21.9507 39.284 22.189 38.4784 22.2795C34.9392 22.1759 34.6591 18.2659 34.3711 15.1552C34.3711 15.1552 39.6239 20.5241 39.2974 21.145Z" fill="#040606"/>
<path d="M44.2502 12.4228C44.2502 12.4228 45.1594 20.5548 40.301 21.8764C35.4426 23.1977 34.2787 15.4184 34.4462 12.7284C34.6138 10.0377 35.9819 8.70927 39.387 8.5886C44.4245 8.41034 44.2502 12.4228 44.2502 12.4228Z" fill="#F0896F"/>
<path d="M36.9765 10.2187C36.9765 10.2187 36.8855 11.9278 35.7302 12.2693L34.8995 14.7827C34.8995 14.7827 34.2035 13.6657 33.4387 13.27C33.4387 13.27 32.5941 9.95079 33.6574 8.63193C34.7208 7.31308 36.1989 6.64447 39.775 6.93627C42.4969 7.15868 44.0893 9.05455 44.6094 10.0188C44.7781 10.3317 45.1873 11.2104 44.2306 12.0652C44.2306 12.0652 44.2435 11.4183 43.6848 10.6619C43.6848 10.6619 42.3815 13.278 36.9765 10.2187Z" fill="#040606"/>
<path d="M32.3187 15.2139C32.6184 16.2867 33.4781 16.9962 34.239 16.7982C35.0001 16.6002 35.3741 15.5698 35.0744 14.4967C34.775 13.4236 33.9153 12.7141 33.1541 12.9124C32.3933 13.1104 32.019 14.1407 32.3187 15.2139Z" fill="#F0896F"/>
<path d="M39.3236 15.5723C39.3099 15.8485 39.4434 16.0799 39.6225 16.0887C39.8012 16.0978 39.9576 15.8808 39.9713 15.6047C39.9853 15.3282 39.8515 15.0968 39.6727 15.088C39.4937 15.0789 39.3376 15.2959 39.3236 15.5723Z" fill="#040606"/>
<path d="M43.0709 15.7994C43.0433 16.0585 43.1513 16.2821 43.3122 16.2991C43.4731 16.3158 43.6259 16.1194 43.6536 15.8605C43.6815 15.6014 43.5734 15.3779 43.4125 15.3611C43.2516 15.3441 43.0986 15.5405 43.0709 15.7994Z" fill="#040606"/>
<path d="M38.2542 13.383C38.2542 13.383 39.541 13.6539 39.6267 12.4555" stroke="#040606" stroke-width="0.5" stroke-miterlimit="10" stroke-linecap="round"/>
<path d="M42.6143 13.2848C42.6143 13.2848 42.9422 14.3985 43.9097 13.7538" stroke="#040606" stroke-width="0.5" stroke-miterlimit="10" stroke-linecap="round"/>
<path d="M39.0988 20.0272C39.0988 20.0272 38.6745 18.3298 37.3578 19.3029L39.0988 20.0272Z" fill="#040606"/>
<path d="M33.0823 14.2795C33.0823 14.2795 33.9384 13.5566 34.406 14.8785C34.406 14.8785 33.906 15.3995 34.2217 15.8084C34.2217 15.8084 33.7287 15.9184 33.4854 15.4914" stroke="#040606" stroke-width="0.5" stroke-miterlimit="10" stroke-linecap="round" stroke-linejoin="round"/>
<path d="M33.453 14.7852C33.453 14.7852 33.5008 14.4915 33.8329 14.1564" stroke="#040606" stroke-width="0.5" stroke-miterlimit="10" stroke-linecap="round" stroke-linejoin="round"/>
<path d="M42.3279 15.7574C42.3279 16.5429 42.8198 17.1797 43.4262 17.1797C44.0329 17.1797 44.5245 16.5429 44.5245 15.7574C44.5245 14.972 44.0329 14.3352 43.4262 14.3352C42.8198 14.3352 42.3279 14.972 42.3279 15.7574Z" stroke="white" stroke-width="0.5" stroke-miterlimit="10"/>
<path d="M38.2175 15.563C38.2175 16.3953 38.8435 17.0699 39.6158 17.0699C40.3878 17.0699 41.0138 16.3953 41.0138 15.563C41.0138 14.7306 40.3878 14.0557 39.6158 14.0557C38.8435 14.0557 38.2175 14.7306 38.2175 15.563Z" stroke="white" stroke-width="0.5" stroke-miterlimit="10"/>
<path d="M42.3776 16.1693C42.3776 16.1693 42.0374 14.7526 40.9347 16.0687" stroke="white" stroke-width="0.5" stroke-miterlimit="10"/>
<path d="M38.2471 14.9925L34.9984 14.274" stroke="white" stroke-width="0.5" stroke-miterlimit="10"/>
<path d="M42.5134 16.7957C42.6743 16.9964 42.7078 17.2353 42.6268 17.4937C42.5463 17.7487 42.2818 17.9039 42.0134 17.8984C41.8894 17.896 41.7698 17.8628 41.6525 17.8269C41.6011 17.811 41.4992 17.7569 41.4442 17.7811C41.1763 17.8974 40.864 17.6678 40.9534 17.4884" stroke="#040606" stroke-width="0.5" stroke-miterlimit="10" stroke-linecap="round"/>
</g>
<defs>
<clipPath id="clip0_1989_272">
<rect width="159" height="115" fill="white"/>
</clipPath>
</defs>
</svg>
