<svg width="204" height="178" viewBox="0 0 204 178" fill="none" xmlns="http://www.w3.org/2000/svg">
<path d="M201.482 173.121C201.482 175.816 159.849 178 108.492 178C57.134 178 15.5009 175.816 15.5009 173.121C15.5009 170.426 57.134 168.242 108.492 168.242C159.849 168.242 201.482 170.426 201.482 173.121Z" fill="#EFF4FF"/>
<path d="M90.5885 44.3609C83.6245 19.0981 52.2421 10.9595 34.257 29.8399C33.9987 30.1114 33.7409 30.3871 33.4831 30.6669C7.69892 58.6955 19.8795 127.765 73.69 145.272C127.501 162.778 183.471 130.81 186.616 102.233C189.76 73.6552 164.935 64.6759 126.408 72.667C104.641 77.1816 94.9236 60.0876 90.5885 44.3609Z" fill="#EFF4FF"/>
<path d="M152.224 142.472C145.88 146.072 146.225 152.746 153.009 155.059C155.251 155.823 158.144 156.077 161.865 155.36C176.039 152.628 180.936 144.095 172.746 138.418C167.691 134.915 158.511 138.904 152.224 142.472Z" fill="#C2D3F9"/>
<path d="M173.795 130.356C171.752 133.24 173.34 136.667 176.851 136.797C178.012 136.84 179.35 136.513 180.849 135.549C186.557 131.876 186.897 126.648 182.039 124.986C179.039 123.96 175.82 127.497 173.795 130.356Z" fill="#C2D3F9"/>
<path d="M121.428 19.3727C120.195 20.2011 118.519 19.8718 117.69 18.6391C116.862 17.4059 117.191 15.7295 118.424 14.9011C119.657 14.0732 121.334 14.402 122.162 15.6347C122.99 16.8679 122.661 18.5443 121.428 19.3727ZM128.67 20.5275L129.236 17.644L126.534 17.1138C126.533 16.4036 126.411 15.6919 126.177 15.0032L128.403 13.5077L126.764 11.0679L124.633 12.4998C123.999 11.8555 123.254 11.3601 122.446 11.0281L122.977 8.32589L120.093 7.76036L119.547 10.5454C118.955 10.5784 118.366 10.691 117.792 10.887L116.296 8.66018L113.857 10.299L115.289 12.4297C114.645 13.064 114.149 13.8099 113.817 14.6167L111.455 14.1534L110.889 17.0364L113.334 17.5163C113.376 18.2709 113.545 19.0233 113.853 19.7413L111.722 21.1728L113.361 23.6121L115.588 22.1165C116.226 22.6734 116.956 23.091 117.736 23.3648L117.202 26.083L120.086 26.6485L120.664 23.7018C121.298 23.6318 121.926 23.4692 122.531 23.2091L123.962 25.3407L126.401 23.7018L124.906 21.4759C125.304 21.0184 125.631 20.5156 125.885 19.9803L128.67 20.5275Z" fill="#C2D3F9"/>
<path d="M104.262 6.34581C103.587 6.79824 102.671 6.61873 102.219 5.94514C101.766 5.27108 101.946 4.35523 102.619 3.90235C103.293 3.44947 104.21 3.62945 104.662 4.3035C105.115 4.9771 104.935 5.89339 104.262 6.34581ZM108.219 6.97681L108.528 5.40111L107.052 5.11127C107.051 4.72342 106.984 4.33417 106.857 3.95776L108.073 3.14084L107.177 1.80738L106.013 2.58998C105.666 2.23784 105.259 1.96721 104.818 1.78587L105.108 0.309091L103.532 -3.8147e-06L103.233 1.52165C102.91 1.53997 102.588 1.60133 102.274 1.70849L101.457 0.491788L100.124 1.38703L100.906 2.5515C100.554 2.89814 100.283 3.3057 100.102 3.74713L98.8114 3.49345L98.5018 5.06912L99.838 5.33151C99.8614 5.74409 99.9534 6.1553 100.122 6.54774L98.957 7.32987L99.8527 8.66286L101.069 7.84549C101.419 8.15001 101.818 8.37803 102.243 8.52731L101.952 10.0133L103.527 10.3224L103.844 8.71187C104.191 8.67386 104.534 8.58457 104.864 8.44262L105.646 9.60756L106.979 8.71187L106.161 7.49517C106.379 7.2456 106.558 6.97086 106.697 6.67825L108.219 6.97681Z" fill="#C2D3F9"/>
<path d="M29.0853 148.977C28.0701 150.061 26.3626 150.118 25.2781 149.103C24.194 148.088 24.1373 146.381 25.1524 145.296C26.1675 144.212 27.875 144.155 28.9591 145.17C30.0435 146.185 30.1002 147.893 29.0853 148.977ZM36.4014 148.473L36.3039 145.536L33.5522 145.627C33.3906 144.936 33.1126 144.269 32.7294 143.652L34.5615 141.693L32.4161 139.686L30.662 141.559C29.8993 141.074 29.0613 140.759 28.1998 140.618L28.1092 137.865L25.1722 137.963L25.2661 140.799C24.6969 140.965 24.1485 141.207 23.6334 141.527L21.6754 139.694L19.6674 141.84L21.5414 143.593C21.0565 144.356 20.7415 145.194 20.5997 146.056L18.1942 146.135L18.291 149.072L20.7812 148.989C20.9921 149.715 21.3259 150.41 21.7879 151.041L20.0334 152.914L22.1789 154.923L24.0119 152.965C24.7594 153.364 25.5647 153.606 26.3855 153.697L26.4767 156.466L29.4137 156.368L29.3146 153.368C29.9167 153.157 30.4921 152.857 31.0225 152.467L32.8965 154.222L34.9049 152.076L32.9469 150.244C33.2317 149.709 33.4373 149.146 33.5651 148.566L36.4014 148.473Z" fill="#C2D3F9"/>
<path d="M67.8983 155.287C67.3438 155.879 66.4106 155.91 65.818 155.355C65.2255 154.8 65.1948 153.867 65.7489 153.275C66.3039 152.682 67.2371 152.651 67.8296 153.206C68.4222 153.761 68.4533 154.694 67.8983 155.287ZM71.8969 155.011L71.8437 153.406L70.3399 153.456C70.2516 153.078 70.0995 152.714 69.8898 152.376L70.8913 151.306L69.7185 150.208L68.7606 151.233C68.3434 150.968 67.8855 150.795 67.4148 150.718L67.3653 149.214L65.7599 149.267L65.8116 150.817C65.5002 150.908 65.2007 151.04 64.9191 151.215L63.8494 150.213L62.7518 151.386L63.7757 152.344C63.511 152.761 63.3388 153.219 63.261 153.69L61.9468 153.733L61.9994 155.338L63.3604 155.294C63.4758 155.69 63.658 156.07 63.9103 156.414L62.9519 157.438L64.1242 158.536L65.1261 157.466C65.5346 157.683 65.9746 157.816 66.4234 157.866L66.4728 159.379L68.0783 159.326L68.0238 157.686C68.3526 157.57 68.6672 157.407 68.9575 157.194L69.9814 158.153L71.079 156.98L70.0089 155.979C70.1646 155.686 70.2772 155.379 70.3464 155.062L71.8969 155.011Z" fill="#C2D3F9"/>
<path d="M104.441 39.8303C104.608 39.7877 104.721 39.6265 104.698 39.4516C104.61 38.7638 104.506 38.076 104.389 37.407C104.356 37.2192 104.177 37.0933 103.989 37.1263C103.799 37.1606 103.675 37.3383 103.708 37.526C103.824 38.1845 103.926 38.8618 104.013 39.539C104.037 39.7286 104.211 39.8623 104.4 39.8381L104.441 39.8303Z" fill="#C5E0E3"/>
<path d="M103.053 33.1309C102.87 33.1827 102.762 33.3732 102.814 33.5568C102.898 33.8604 102.98 34.1672 103.056 34.4699C103.145 34.8184 103.23 35.1751 103.31 35.5295C103.352 35.7159 103.537 35.8326 103.723 35.791L103.732 35.7887C103.913 35.7429 104.025 35.5611 103.984 35.3779C103.903 35.0171 103.816 34.6544 103.726 34.3C103.649 33.9923 103.565 33.68 103.479 33.3709C103.429 33.19 103.243 33.0829 103.062 33.1291L103.053 33.1309Z" fill="#C5E0E3"/>
<path d="M143.939 18.0323H138.676C138.484 18.0323 138.329 17.8776 138.329 17.6861C138.329 17.4947 138.484 17.3395 138.676 17.3395H143.939C144.131 17.3395 144.286 17.4947 144.286 17.6861C144.286 17.8776 144.131 18.0323 143.939 18.0323Z" fill="#C2D3F9"/>
<path d="M143.939 21.4322H138.676C138.484 21.4322 138.329 21.277 138.329 21.0856C138.329 20.8942 138.484 20.7389 138.676 20.7389H143.939C144.131 20.7389 144.286 20.8942 144.286 21.0856C144.286 21.277 144.131 21.4322 143.939 21.4322Z" fill="#C2D3F9"/>
<path d="M143.939 24.8311H138.676C138.484 24.8311 138.329 24.6759 138.329 24.4845C138.329 24.2931 138.484 24.1379 138.676 24.1379H143.939C144.131 24.1379 144.286 24.2931 144.286 24.4845C144.286 24.6759 144.131 24.8311 143.939 24.8311Z" fill="#C2D3F9"/>
<path d="M45.3381 56.8054C45.3381 56.8054 45.9179 58.5812 47.7298 58.6173C49.5418 58.6535 47.7298 56.3703 47.7298 56.3703C47.7298 56.3703 49.0564 57.9932 49.8468 57.7478C50.6376 57.5019 48.2193 55.3016 47.0956 55.2654C45.9724 55.2292 45.3381 56.8054 45.3381 56.8054Z" fill="#F03F33"/>
<path d="M176.143 34.3475V130.509C176.143 132.118 174.839 133.422 173.23 133.422H27.2534C25.6445 133.422 24.3406 132.118 24.3406 130.509V34.3475C24.3406 32.7384 25.6445 31.4347 27.2534 31.4347H173.23C174.839 31.4347 176.143 32.7384 176.143 34.3475Z" fill="#2C375C"/>
<path d="M172.117 38.4691V126.389C172.117 128.024 170.794 129.347 169.159 129.347H31.3212C30.9593 129.347 30.6159 129.283 30.2955 129.16C29.1692 128.747 28.3678 127.662 28.3678 126.389V38.4691C28.3678 36.8343 29.691 35.5109 31.3212 35.5109H169.159C169.553 35.5109 169.933 35.5888 170.276 35.7307C171.357 36.1703 172.117 37.2327 172.117 38.4691Z" fill="white"/>
<path d="M172.117 38.4676V42.8443H28.3664V38.4676C28.3664 36.8342 29.6897 35.5113 31.3228 35.5113H169.161C170.794 35.5113 172.117 36.8342 172.117 38.4676Z" fill="#C5E0E3"/>
<path d="M160.839 39.1769C160.839 39.97 160.196 40.6134 159.403 40.6134C158.61 40.6134 157.967 39.97 157.967 39.1769C157.967 38.3838 158.61 37.7413 159.403 37.7413C160.196 37.7413 160.839 38.3838 160.839 39.1769Z" fill="#F68A85"/>
<path d="M155.525 39.1769C155.525 39.97 154.882 40.6134 154.089 40.6134C153.296 40.6134 152.654 39.97 152.654 39.1769C152.654 38.3838 153.296 37.7413 154.089 37.7413C154.882 37.7413 155.525 38.3838 155.525 39.1769Z" fill="#3566BA"/>
<path d="M166.153 39.1769C166.153 39.97 165.51 40.6134 164.716 40.6134C163.923 40.6134 163.281 39.97 163.281 39.1769C163.281 38.3838 163.923 37.7413 164.716 37.7413C165.51 37.7413 166.153 38.3838 166.153 39.1769Z" fill="#F03F33"/>
<path d="M147.664 135.181H141.748C140.873 135.181 140.164 134.471 140.164 133.597V133.423H149.247V133.597C149.247 134.471 148.538 135.181 147.664 135.181Z" fill="#1E1D33"/>
<path d="M161.593 135.181H155.677C154.803 135.181 154.094 134.471 154.094 133.597V133.423H163.176V133.597C163.176 134.471 162.467 135.181 161.593 135.181Z" fill="#1E1D33"/>
<path d="M133.734 135.181H127.819C126.944 135.181 126.235 134.471 126.235 133.597V133.423H135.318V133.597C135.318 134.471 134.609 135.181 133.734 135.181Z" fill="#1E1D33"/>
<path d="M149.692 59.0631C149.692 61.7598 147.506 63.9459 144.809 63.9459H60.1618C57.4651 63.9459 55.2791 61.7598 55.2791 59.0631C55.2791 56.3664 57.4651 54.1808 60.1618 54.1808H144.809C147.506 54.1808 149.692 56.3664 149.692 59.0631Z" fill="#C4D6FE"/>
<path d="M144.809 54.1808H131.392V63.9459H144.809C147.506 63.9459 149.692 61.7598 149.692 59.0631C149.692 56.3664 147.506 54.1808 144.809 54.1808Z" fill="#C4D6FE"/>
<path d="M144.003 57.2052C143.379 56.6291 142.402 56.6685 141.825 57.2927C141.249 57.9173 141.288 58.894 141.913 59.4705C142.537 60.047 143.514 60.0076 144.09 59.383C144.667 58.7589 144.627 57.7817 144.003 57.2052ZM141.399 60.0283C140.466 59.1678 140.408 57.7103 141.268 56.778C142.128 55.8466 143.586 55.7879 144.518 56.6479C145.45 57.5079 145.508 58.9659 144.648 59.8977C143.788 60.8296 142.33 60.8882 141.399 60.0283Z" fill="white"/>
<path d="M138.858 62.781C138.704 62.639 138.694 62.3991 138.836 62.2447L141.377 59.4922C141.519 59.3384 141.759 59.3287 141.913 59.4707C142.067 59.6126 142.076 59.8526 141.934 60.0069L139.394 62.7594C139.251 62.9133 139.012 62.9229 138.858 62.781Z" fill="white"/>
<path d="M55.2791 75.6192C55.2791 76.7534 56.1985 77.6729 57.3333 77.6729H147.638C148.772 77.6729 149.692 76.7534 149.692 75.6192C149.692 74.4849 148.772 73.5654 147.638 73.5654H57.3333C56.1985 73.5654 55.2791 74.4849 55.2791 75.6192Z" fill="#C4D6FE"/>
<path d="M55.2791 84.5171C55.2791 85.6514 56.1985 86.5709 57.3333 86.5709H147.638C148.772 86.5709 149.692 85.6514 149.692 84.5171C149.692 83.3829 148.772 82.4634 147.638 82.4634H57.3333C56.1985 82.4634 55.2791 83.3829 55.2791 84.5171Z" fill="#C4D6FE"/>
<path d="M55.2791 93.4146C55.2791 94.5489 56.1985 95.4684 57.3333 95.4684H147.638C148.772 95.4684 149.692 94.5489 149.692 93.4146C149.692 92.2803 148.772 91.3608 147.638 91.3608H57.3333C56.1985 91.3608 55.2791 92.2803 55.2791 93.4146Z" fill="#C4D6FE"/>
<path d="M146.035 119.514H137.558C135.538 119.514 133.901 117.877 133.901 115.857V107.38C133.901 105.36 135.538 103.723 137.558 103.723H146.035C148.055 103.723 149.692 105.36 149.692 107.38V115.857C149.692 117.877 148.055 119.514 146.035 119.514Z" fill="#C5E0E3"/>
<path d="M127.12 119.514H118.642C116.623 119.514 114.985 117.877 114.985 115.857V107.38C114.985 105.36 116.623 103.723 118.642 103.723H127.12C129.14 103.723 130.777 105.36 130.777 107.38V115.857C130.777 117.877 129.14 119.514 127.12 119.514Z" fill="#C5E0E3"/>
<path d="M86.4348 119.514H77.9573C75.9379 119.514 74.3004 117.877 74.3004 115.857V107.38C74.3004 105.36 75.9379 103.723 77.9573 103.723H86.4348C88.4546 103.723 90.0917 105.36 90.0917 107.38V115.857C90.0917 117.877 88.4546 119.514 86.4348 119.514Z" fill="#C5E0E3"/>
<path d="M67.5196 119.514H59.0422C57.0228 119.514 55.3857 117.877 55.3857 115.857V107.38C55.3857 105.36 57.0228 103.723 59.0422 103.723H67.5196C69.5395 103.723 71.1766 105.36 71.1766 107.38V115.857C71.1766 117.877 69.5395 119.514 67.5196 119.514Z" fill="#C4D6FE"/>
<path d="M169.159 129.347H31.3212C30.9593 129.347 30.6159 129.283 30.2955 129.16L55.3857 112.413V115.857C55.3857 117.877 57.0228 119.514 59.0422 119.514H67.5196C69.5395 119.514 71.1765 117.877 71.1765 115.857V107.381C71.1765 105.623 69.9374 104.156 68.2852 103.804L80.7731 95.4687H147.638C148.772 95.4687 149.692 94.5492 149.692 93.415C149.692 92.2807 148.772 91.3612 147.638 91.3612H86.927L94.104 86.5709H147.638C148.772 86.5709 149.692 85.6514 149.692 84.5172C149.692 83.3829 148.772 82.4634 147.638 82.4634H124.655C125.289 82.0692 125.907 81.6387 126.51 81.1712C127.863 80.123 129.058 78.9466 130.091 77.6732H147.638C148.772 77.6732 149.692 76.7537 149.692 75.6194C149.692 74.4851 148.772 73.5656 147.638 73.5656H132.716C134.188 70.5599 134.941 67.2624 134.938 63.9462H144.809C147.506 63.9462 149.692 61.7601 149.692 59.0634C149.692 56.3667 147.506 54.1811 144.809 54.1811H142.633L159.618 42.8445H172.117L172.117 126.389C172.117 128.024 170.794 129.347 169.159 129.347ZM137.558 103.723C135.538 103.723 133.901 105.361 133.901 107.381V115.857C133.901 117.877 135.538 119.514 137.558 119.514H146.035C148.055 119.514 149.692 117.877 149.692 115.857V107.381C149.692 105.361 148.055 103.723 146.035 103.723H137.558ZM118.642 103.723C116.623 103.723 114.985 105.361 114.985 107.381V115.857C114.985 117.877 116.623 119.514 118.642 119.514H127.12C129.14 119.514 130.777 117.877 130.777 115.857V107.381C130.777 105.361 129.14 103.723 127.12 103.723H118.642ZM77.9574 103.723C75.938 103.723 74.3004 105.361 74.3004 107.381V115.857C74.3004 117.877 75.938 119.514 77.9574 119.514H86.4348C88.4547 119.514 90.0917 117.877 90.0917 115.857V107.381C90.0917 105.361 88.4547 103.723 86.4348 103.723H77.9574Z" fill="white"/>
<path d="M172.117 42.8443H159.618L163.658 40.1481C163.92 40.4343 164.298 40.6138 164.716 40.6138C165.51 40.6138 166.153 39.9704 166.153 39.1773C166.153 38.9612 166.105 38.756 166.019 38.572L170.276 35.7306C171.357 36.1702 172.117 37.2326 172.117 38.4689V42.8443" fill="#D4E9EA"/>
<path d="M164.716 40.6134C164.298 40.6134 163.92 40.4339 163.658 40.1477L166.019 38.5715C166.105 38.7556 166.153 38.9607 166.153 39.1769C166.153 39.97 165.51 40.6134 164.716 40.6134Z" fill="#F46C5C"/>
<path d="M142.957 60.6368C142.519 60.6368 142.08 60.5127 141.699 60.2622L141.934 60.0067C142.076 59.8524 142.067 59.6125 141.913 59.4705C141.84 59.4032 141.748 59.3697 141.655 59.3697C141.553 59.3697 141.452 59.411 141.377 59.492L141.141 59.7475C140.464 58.8761 140.496 57.615 141.268 56.7779C141.72 56.288 142.339 56.0393 142.959 56.0393C143.517 56.0393 144.076 56.2403 144.518 56.6479C145.45 57.5079 145.508 58.9659 144.648 59.8977C144.196 60.3882 143.577 60.6368 142.957 60.6368ZM142.959 56.7976C142.543 56.7976 142.129 56.9643 141.825 57.2926C141.249 57.9172 141.288 58.894 141.913 59.4705C142.209 59.7434 142.584 59.8785 142.957 59.8785C143.373 59.8785 143.787 59.7118 144.09 59.383C144.667 58.7589 144.627 57.7817 144.003 57.2052C143.707 56.9323 143.333 56.7976 142.959 56.7976Z" fill="white"/>
<path d="M101.702 82.463H100.259L100.97 81.9877C101.212 82.1516 101.455 82.3096 101.702 82.463Z" fill="white"/>
<path d="M139.115 62.8819C139.023 62.8819 138.93 62.8485 138.858 62.7812C138.704 62.6392 138.694 62.3993 138.836 62.245L141.141 59.7479L141.377 59.4924C141.452 59.4114 141.553 59.3702 141.655 59.3702C141.748 59.3702 141.84 59.4036 141.913 59.4709C142.067 59.6129 142.076 59.8528 141.934 60.0071L141.699 60.2626L139.394 62.7597C139.319 62.8407 139.217 62.8819 139.115 62.8819Z" fill="white"/>
<path d="M147.638 77.6729H130.091C131.13 76.3921 132.006 75.0124 132.716 73.5654H147.638C148.772 73.5654 149.692 74.4849 149.692 75.6192C149.692 76.7534 148.772 77.6729 147.638 77.6729Z" fill="#AFC8FE"/>
<path d="M147.638 86.5709H94.104L100.259 82.4634H101.702C105.18 84.622 109.176 85.7329 113.198 85.7329C117.146 85.7334 121.12 84.6628 124.655 82.4634H147.638C148.772 82.4634 149.692 83.3829 149.692 84.5171C149.692 85.6514 148.772 86.5709 147.638 86.5709Z" fill="#AFC8FE"/>
<path d="M147.638 95.4684H80.7731L86.9271 91.3608H147.638C148.772 91.3608 149.692 92.2803 149.692 93.4146C149.692 94.5489 148.772 95.4684 147.638 95.4684Z" fill="#AFC8FE"/>
<path d="M146.035 119.514H137.558C135.538 119.514 133.901 117.877 133.901 115.857V107.38C133.901 105.36 135.538 103.723 137.558 103.723H146.035C148.055 103.723 149.692 105.36 149.692 107.38V115.857C149.692 117.877 148.055 119.514 146.035 119.514Z" fill="#AFC8FE"/>
<path d="M127.12 119.514H118.642C116.623 119.514 114.985 117.877 114.985 115.857V107.38C114.985 105.36 116.623 103.723 118.642 103.723H127.12C129.14 103.723 130.777 105.36 130.777 107.38V115.857C130.777 117.877 129.14 119.514 127.12 119.514Z" fill="#AFC8FE"/>
<path d="M86.4348 119.514H77.9573C75.9379 119.514 74.3004 117.877 74.3004 115.857V107.38C74.3004 105.36 75.9379 103.723 77.9573 103.723H86.4348C88.4546 103.723 90.0917 105.36 90.0917 107.38V115.857C90.0917 117.877 88.4546 119.514 86.4348 119.514Z" fill="#AFC8FE"/>
<path d="M67.5196 119.514H59.0422C57.0228 119.514 55.3857 117.877 55.3857 115.857V112.413L68.2853 103.803C69.9374 104.155 71.1766 105.622 71.1766 107.38V115.857C71.1766 117.877 69.5395 119.514 67.5196 119.514Z" fill="#AFC8FE"/>
<path d="M118.044 81.7428C119.177 81.4328 120.256 81.0229 121.274 80.5252C120.228 81.0371 119.145 81.4428 118.044 81.7428ZM107.379 81.452C106.218 81.0687 105.092 80.5687 104.018 79.9546L104.027 79.9487C105.089 80.5581 106.213 81.0628 107.379 81.452ZM124.423 78.5685C124.792 78.2827 125.15 77.9842 125.494 77.6733H125.498C125.167 77.9705 124.823 78.258 124.466 78.5346C124.452 78.546 124.437 78.557 124.423 78.5685ZM128.909 73.5657H128.898C129.62 72.3811 130.209 71.1168 130.651 69.7966C130.218 71.1054 129.636 72.371 128.909 73.5657Z" fill="white"/>
<path d="M125.498 77.6729H125.494C126.827 76.4705 127.972 75.0839 128.898 73.5654H128.909C127.998 75.0642 126.858 76.4517 125.498 77.6729Z" fill="#D4E9EA"/>
<path d="M90.2236 66.188L91.1468 69.0133C88.2335 70.7209 80.8853 74.7373 77.6094 75.9416C76.6368 76.2992 75.2754 76.7434 73.7281 77.2237C73.1378 77.4069 72.5205 77.5965 71.8859 77.7874C71.3396 77.9514 70.7818 78.1167 70.2191 78.2829L70.1435 78.3049C69.3976 78.3919 68.4515 78.4977 67.3777 78.6085L67.3873 74.1062L69.1567 73.6158L70.198 73.3282L71.6674 72.9221L74.8839 72.0323C77.2911 70.5487 87.7701 67.4806 90.2236 66.188Z" fill="#F68A85"/>
<path d="M94.364 64.4717C94.4437 64.4415 95.4063 64.0857 95.6893 64.4864C95.9846 64.9035 95.6453 65.3244 95.6453 65.3244C95.6453 65.3244 96.3523 65.7228 96.3706 66.134C96.388 66.5452 96.0519 66.8268 96.0519 66.8268C96.0519 66.8268 96.5057 67.0498 96.492 67.439C96.4792 67.8283 95.9443 68.3979 95.1517 68.6072C94.4483 68.7917 94.0985 68.6429 94.0302 68.6081L94.0174 68.5999C94.0174 68.5999 93.8869 68.6489 93.6584 68.7249C93.2769 68.8522 92.6221 69.055 91.8565 69.2263C90.6329 69.5001 89.1186 67.8164 89.0073 66.7297C89.0073 66.7297 89.4556 65.2731 89.9699 64.4346C90.4841 63.5971 90.8569 63.3997 91.4796 63.4817C92.1024 63.5637 92.7133 63.7725 92.8474 63.7487C92.9816 63.7253 96.1582 62.0759 96.8867 62.2884C97.5997 62.4963 94.5019 64.3875 94.364 64.4717Z" fill="#F68A85"/>
<path d="M90.9224 65.9347L90.84 65.9141C90.7562 65.8683 90.7246 65.7629 90.7704 65.6791L91.155 64.9666C91.1784 64.9236 91.2182 64.8924 91.2654 64.8805C91.3125 64.8686 91.3624 64.8773 91.4027 64.9043C91.4105 64.9089 92.1981 65.4177 92.9212 65.2373C93.1424 65.1814 93.2912 65.0898 93.3512 64.9712C93.4194 64.8375 93.3626 64.6937 93.3617 64.6923C93.326 64.6044 93.3672 64.5032 93.4551 64.4661C93.5421 64.4295 93.6429 64.4693 93.6809 64.5563C93.6932 64.5852 93.799 64.8471 93.6635 65.1214C93.5568 65.3389 93.3352 65.4905 93.0055 65.5729C92.3438 65.7387 91.6757 65.4483 91.3753 65.2881L91.0749 65.844C91.0437 65.9017 90.9837 65.9347 90.9224 65.9347Z" fill="#F3665C"/>
<path d="M94.0303 68.6079L94.0175 68.5997C94.0175 68.5997 93.887 68.6487 93.6585 68.7247C93.3544 68.3666 93.3324 67.938 93.3127 67.5776C93.2967 67.2644 93.2816 66.9933 93.1168 66.7955C92.946 66.5922 92.8764 66.3669 92.8635 66.1521C92.8489 65.9451 92.8878 65.7469 92.9386 65.5861C92.9569 65.5261 92.9766 65.4707 92.9963 65.4231C93.0472 65.2986 93.0948 65.2189 93.1003 65.2084C93.1502 65.1264 93.2564 65.0985 93.3384 65.1484C93.4204 65.1969 93.4469 65.3031 93.3984 65.3851L93.3787 65.4222C93.3292 65.5165 93.2093 65.7817 93.2093 66.0669C93.2093 66.2391 93.2528 66.4191 93.3823 66.5739C93.6214 66.8591 93.6411 67.215 93.6594 67.5593C93.6805 67.9494 93.7001 68.3213 94.0303 68.6079Z" fill="#F3665C"/>
<path d="M91.6203 67.3224C91.5553 67.3224 91.493 67.2857 91.4637 67.2225C91.4229 67.1364 91.46 67.033 91.5466 66.9927C91.5571 66.9876 92.5847 66.4899 92.6882 65.5108C92.6982 65.4156 92.7843 65.3464 92.8787 65.3565C92.9739 65.3666 93.0426 65.4522 93.0325 65.547C92.9084 66.7229 91.7439 67.2825 91.694 67.3059L91.6203 67.3224Z" fill="#F3665C"/>
<path d="M70.2186 78.2838C71.4357 77.9243 72.6286 77.5658 73.7281 77.2246C73.5142 75.1809 72.5036 73.7651 71.667 72.922L69.1567 73.6162L70.2186 78.2838Z" fill="#F3665C"/>
<path d="M70.8418 79.0831C70.8418 79.0831 67.3071 80.5223 63.9098 80.8424C62.7243 80.956 61.5566 80.9312 60.5606 80.6624L59.9544 79.5479L56.5443 73.2808C56.5443 73.2808 64.5656 74.8867 69.7726 73.0381C69.7726 73.0381 70.9192 76.2728 70.8418 79.0831Z" fill="#146BA2"/>
<path d="M63.9098 80.8424C62.7243 80.956 61.5566 80.9312 60.5606 80.6624L59.9543 79.5479C60.0812 78.9883 60.4049 78.5299 61.0355 78.284C61.0355 78.284 61.8364 79.9124 63.9098 80.8424Z" fill="#3550AA"/>
<path d="M37.3562 159.094L34.6948 162.654C34.6948 162.654 35.1811 164.245 37.1515 165.472L40.3345 161.376L37.3562 159.094Z" fill="#F68A85"/>
<path d="M36.7096 164.369C36.7096 164.369 37.9551 164.101 38.381 164.531C38.8068 164.962 39.8756 170.819 40.8762 172.1C41.8767 173.381 40.8693 174.062 40.2538 174.321C39.6379 174.581 30.8162 165.768 30.8162 165.768C30.8162 165.768 32.9972 162.755 34.0486 162.169C35.1004 161.584 35.5936 163.749 36.7096 164.369Z" fill="#146BA2"/>
<path d="M36.9468 168.011C36.8932 167.986 36.8493 167.941 36.8287 167.881C36.7879 167.764 36.8497 167.637 36.966 167.597C37.0049 167.582 37.9295 167.266 38.6415 167.449C39.589 167.692 39.7763 168.512 39.784 168.547C39.8101 168.667 39.7332 168.786 39.6128 168.812C39.4924 168.839 39.3728 168.762 39.3467 168.641C39.3417 168.619 39.2039 168.056 38.5298 167.883C37.9501 167.733 37.1213 168.016 37.113 168.019C37.0562 168.038 36.9972 168.034 36.9468 168.011Z" fill="white"/>
<path d="M36.8598 167.098C36.8062 167.073 36.7623 167.028 36.7412 166.968C36.7009 166.851 36.7623 166.724 36.879 166.683C36.9179 166.67 37.8425 166.353 38.5541 166.536C39.5024 166.78 39.6893 167.599 39.6966 167.634C39.7231 167.754 39.6467 167.873 39.5258 167.899C39.4049 167.926 39.2858 167.849 39.2597 167.728C39.2547 167.706 39.1169 167.143 38.4428 166.97C37.8603 166.819 37.0343 167.103 37.026 167.105C36.9692 167.125 36.9102 167.121 36.8598 167.098Z" fill="white"/>
<path d="M37.2907 168.991C37.2371 168.966 37.1932 168.92 37.1721 168.861C37.1318 168.744 37.1932 168.616 37.3099 168.576C37.3489 168.562 38.2734 168.246 38.985 168.429C39.9333 168.671 40.1202 169.491 40.1279 169.526C40.154 169.646 40.0771 169.766 39.9567 169.792C39.8363 169.818 39.7167 169.741 39.6906 169.621C39.6856 169.598 39.5478 169.035 38.8737 168.862C38.2912 168.712 37.4652 168.995 37.4569 168.998C37.4001 169.018 37.3411 169.013 37.2907 168.991Z" fill="white"/>
<path d="M53.6804 165.207L54.0843 169.634C54.0843 169.634 55.5103 170.491 57.7953 170.084L57.4207 164.911L53.6804 165.207Z" fill="#F68A85"/>
<path d="M56.9889 169.462C56.9889 169.462 57.7673 168.384 58.3983 168.421C59.0298 168.457 63.9488 172.254 65.6197 172.549C67.2906 172.845 66.9847 174.076 66.6885 174.708C66.3922 175.339 53.4574 174.977 53.4574 174.977C53.4574 174.977 52.9807 170.802 53.3878 169.613C53.7949 168.425 55.6898 169.76 56.9889 169.462Z" fill="#146BA2"/>
<path d="M59.7162 172.121C59.6571 172.14 59.5912 172.135 59.533 172.104C59.4204 172.041 59.3792 171.899 59.4415 171.786C59.4621 171.748 59.958 170.858 60.6385 170.502C61.5428 170.029 62.2609 170.534 62.2911 170.556C62.3955 170.631 62.4193 170.777 62.3437 170.882C62.2686 170.986 62.1226 171.01 62.0177 170.935C61.9985 170.921 61.4989 170.58 60.8541 170.916C60.3005 171.206 59.8545 172.004 59.8504 172.012C59.8202 172.066 59.7712 172.104 59.7162 172.121Z" fill="white"/>
<path d="M59.011 171.475C58.952 171.493 58.8865 171.488 58.8279 171.456C58.7152 171.394 58.674 171.252 58.7358 171.139C58.7569 171.102 59.2528 170.21 59.9328 169.855C60.8386 169.382 61.5557 169.887 61.5859 169.909C61.6903 169.984 61.7141 170.13 61.6386 170.235C61.5635 170.339 61.4174 170.363 61.3125 170.287C61.2928 170.273 60.7932 169.933 60.149 170.269C59.5926 170.559 59.1493 171.357 59.1452 171.364C59.115 171.419 59.066 171.457 59.011 171.475Z" fill="white"/>
<path d="M60.6664 172.641C60.6078 172.659 60.5423 172.655 60.4837 172.623C60.3711 172.561 60.3299 172.419 60.3921 172.306C60.4128 172.268 60.9091 171.377 61.5891 171.022C62.4944 170.548 63.2115 171.054 63.2418 171.075C63.3462 171.151 63.37 171.297 63.2949 171.401C63.2198 171.505 63.0733 171.53 62.9688 171.454C62.9492 171.44 62.4491 171.1 61.8053 171.436C61.2485 171.726 60.8056 172.523 60.8011 172.531C60.7708 172.586 60.7218 172.624 60.6664 172.641Z" fill="white"/>
<path d="M51.1999 117.161L48.5119 139.408C48.5119 139.408 46.1005 142.68 43.8018 146.868C41.8721 150.382 36.7307 159.501 36.7307 159.501L39.8404 161.872L56.8717 144.222L61.406 116.945L51.1999 117.161Z" fill="#333333"/>
<path d="M40.6069 161.815C40.3276 162.516 39.8056 162.993 39.1956 163.395L35.5845 160.345C35.8872 159.705 36.3016 159.151 36.8149 158.674L40.6069 161.815Z" fill="#333333"/>
<path d="M37.4454 118.08C37.4454 118.08 42.2417 129.872 48.4748 139.068C48.4748 139.068 49.4058 148.017 50.9979 152.781C51.6949 154.867 53.0448 164.75 53.0448 164.75L57.7737 164.535L56.5534 137.056L51.5511 117.154L37.4454 118.08Z" fill="#333333"/>
<path d="M58.2133 164.373C58.5137 165.195 58.4308 166.01 58.2133 166.827L52.7408 166.98C52.5081 166.193 52.4394 165.395 52.5145 164.587L58.2133 164.373Z" fill="#333333"/>
<path d="M62.118 116.55C62.118 117.517 62.1157 118.283 62.1088 118.801C59.8179 119.418 57.5288 119.865 55.2392 120.139C55.1787 120.146 55.1178 120.153 55.0565 120.161C54.9539 120.173 54.8531 120.185 54.7515 120.197L54.6755 120.204C54.278 120.247 53.8828 120.285 53.4844 120.318C51.5158 120.48 49.5477 120.515 47.5791 120.424C47.406 120.416 47.2348 120.407 47.0617 120.397C46.9078 120.388 46.7521 120.379 46.596 120.367C46.5268 120.364 46.4563 120.36 46.3858 120.354C46.2544 120.344 46.1248 120.334 45.9934 120.325C43.1007 120.09 40.2085 119.584 37.3168 118.801C37.3016 117.662 37.2879 115.342 37.2833 112.348C37.2833 112.184 37.282 112.018 37.2833 111.85C37.2801 108.548 37.2925 104.496 37.3319 100.323C37.3355 99.9928 37.3387 99.6635 37.3433 99.3325C37.347 98.9501 37.3502 98.5654 37.3552 98.1794C37.3561 98.1144 37.3561 98.0489 37.357 97.9839C37.3593 97.8941 37.3607 97.8039 37.3621 97.7123C37.363 97.5315 37.3653 97.3492 37.369 97.1688C37.3722 96.9041 37.3758 96.6408 37.3804 96.3784C37.3827 96.1788 37.3859 95.9787 37.3882 95.779C37.3941 95.3815 37.401 94.9841 37.407 94.5889C37.5466 86.3056 37.8264 78.6932 38.3585 76.7558C38.4084 76.5767 38.4606 76.4462 38.5124 76.3688C38.5687 76.2823 38.6397 76.1957 38.718 76.1055C38.8174 75.9924 38.9327 75.8756 39.0623 75.758C39.9493 74.941 41.4879 73.9927 43.049 73.0929C43.2303 72.9876 43.4139 72.8836 43.5939 72.7797L47.8612 71.3276L52.2677 71.6363C52.7971 71.9467 56.966 73.3644 57.4775 73.6831C57.629 73.7779 57.7783 73.8727 57.9249 73.9661C59.1237 74.7391 60.1425 75.507 60.5872 76.16C61.2283 77.1024 61.6166 85.5592 61.841 94.7601C61.8465 94.9726 61.851 95.1842 61.857 95.3953C61.8799 96.3693 61.9009 97.3478 61.9206 98.326C61.9403 99.2917 61.9573 100.255 61.9738 101.212C61.9989 102.777 62.0223 104.318 62.0406 105.802C62.0429 105.971 62.0443 106.138 62.0466 106.306C62.064 107.753 62.0777 109.141 62.0878 110.437C62.0891 110.607 62.0905 110.774 62.0914 110.94C62.1065 112.885 62.1157 114.608 62.1166 115.991V115.991C62.118 116.186 62.118 116.37 62.118 116.55Z" fill="#146BA2"/>
<path d="M29.404 123.68C29.296 124.856 30.728 124.218 30.3229 121.835C29.919 119.452 31.0668 117.294 31.5618 117.363C32.058 117.433 31.1516 119.965 31.5925 120.878C32.0324 121.79 32.6011 120.017 33.168 118.942C33.7551 117.825 33.7207 115.388 33.4533 113.649C33.1864 111.909 36.3391 101.343 36.3551 98.2819L36.7393 96.9838L38.1456 92.2315L40.3477 84.789C40.3477 84.789 39.0285 79.1561 36.8044 79.6401C36.8044 79.6401 35.627 83.564 34.3687 87.9889C34.1553 88.7399 33.9401 89.506 33.7267 90.2693C32.8306 93.4775 31.988 96.6449 31.5965 98.5246C30.5618 103.486 30.4817 113.8 30.4817 113.8C30.4817 113.8 28.6567 117.59 28.6136 119.276C28.5681 121.074 29.5115 122.503 29.404 123.68Z" fill="#F68A85"/>
<path d="M33.7267 90.269L36.7393 96.9835L38.1456 92.2312L34.3687 87.9886C34.1553 88.7396 33.9401 89.5057 33.7267 90.269Z" fill="#F3665C"/>
<path d="M33.5775 88.2693C34.899 90.5355 36.2425 92.7889 37.5815 95.046C38.0225 93.5697 38.479 92.1524 38.9076 90.8492L38.9113 90.8396C39.0825 90.3184 39.2501 89.8161 39.4099 89.3358L39.4186 89.311C39.4745 89.1425 39.5285 88.9758 39.5839 88.8133V88.8124C40.2227 86.88 40.7177 85.3446 40.8597 84.4489C41.2411 82.0389 40.2008 77.3173 38.7354 76.3863C38.697 76.471 38.5816 76.2091 38.5124 76.3689C38.2551 76.9638 37.1121 78.4328 36.5466 79.8637C36.4742 80.046 36.4005 80.2356 36.324 80.4293C35.5048 82.5339 34.5038 85.2718 33.5775 88.2693Z" fill="#146BA2"/>
<path d="M30.2077 109.886C30.2077 109.886 33.0664 109.674 34.279 110.54L34.0253 112.213C34.0253 112.213 30.6842 111.839 29.9045 111.883C29.9045 111.883 29.8278 110.23 30.2077 109.886Z" fill="#1E1D33"/>
<path d="M31.6478 111.014C31.6478 111.781 31.1316 112.403 30.4946 112.403C29.8578 112.403 29.3416 111.781 29.3416 111.014C29.3416 110.248 29.8578 109.626 30.4946 109.626C31.1316 109.626 31.6478 110.248 31.6478 111.014Z" fill="#2C375C"/>
<path d="M31.1421 110.966C31.1421 111.526 30.7643 111.982 30.2987 111.982C29.8328 111.982 29.455 111.526 29.455 110.966C29.455 110.404 29.8328 109.95 30.2987 109.95C30.7643 109.95 31.1421 110.404 31.1421 110.966Z" fill="#305D80"/>
<path d="M43.2867 60.0526C43.2867 63.8785 45.6418 66.5147 49.4672 66.5147C53.2931 66.5147 55.9595 63.6802 55.9595 59.8543C55.9595 56.0289 53.6938 53.1307 49.8683 53.1307C45.28 53.1307 43.2867 56.2272 43.2867 60.0526Z" fill="#2C375C"/>
<path d="M43.7212 62.3399C43.7212 62.3399 42.8819 61.3343 42.9908 58.7522C43.0994 56.1704 43.969 55.4364 43.969 55.4364C43.969 55.4364 42.8819 53.5882 43.8874 53.0447C44.8935 52.5011 45.7631 53.0447 45.7631 53.0447C45.7631 53.0447 45.029 51.9031 45.7631 51.7401C46.4967 51.5771 47.5531 52.2566 47.5531 52.2566C47.5531 52.2566 52.7747 50.2995 54.4058 51.4415C56.0364 52.5826 54.948 55.9822 54.518 56.3641L43.7212 62.3399Z" fill="#2C375C"/>
<path d="M44.1462 61.7C44.1462 61.7 43.0829 60.2832 42.2925 61.455C41.5022 62.6268 42.6199 66.0877 44.5546 65.2433L44.1462 61.7Z" fill="#F3665C"/>
<path d="M44.132 64.1734C44.061 64.1734 43.9951 64.1258 43.9749 64.0539C43.675 62.9856 42.5678 62.5519 42.5568 62.5478C42.4725 62.5158 42.4299 62.4214 42.462 62.3372C42.494 62.2525 42.5884 62.2103 42.6726 62.2419C42.7244 62.2616 43.9442 62.7351 44.29 63.9655C44.3142 64.0525 44.2634 64.1427 44.1764 64.167L44.132 64.1734Z" fill="#CE4045"/>
<path d="M43.0147 63.6349L42.9263 63.6088C42.8507 63.5598 42.8288 63.4586 42.8773 63.383C42.8855 63.3702 43.0815 63.0716 43.4914 62.888C43.5733 62.8514 43.6704 62.888 43.707 62.9704C43.7441 63.0533 43.707 63.1495 43.6246 63.1866C43.3077 63.3285 43.1539 63.5579 43.1525 63.5598C43.1209 63.6083 43.0687 63.6349 43.0147 63.6349Z" fill="#CE4045"/>
<path d="M55.1 61.7C55.1 61.7 56.1624 60.2832 56.9528 61.455C57.7436 62.6268 56.6263 66.0877 54.6911 65.2433L55.1 61.7Z" fill="#F3665C"/>
<path d="M55.1133 64.1734C55.1852 64.1734 55.2506 64.1258 55.2708 64.0539C55.5707 62.9856 56.6775 62.5519 56.689 62.5478C56.7732 62.5158 56.8158 62.4214 56.7837 62.3372C56.7517 62.2525 56.6574 62.2103 56.5731 62.2419C56.5214 62.2616 55.3015 62.7351 54.9562 63.9655C54.9315 64.0525 54.9823 64.1427 55.0693 64.167L55.1133 64.1734Z" fill="#CE4045"/>
<path d="M56.2311 63.6349L56.3194 63.6088C56.3955 63.5598 56.4174 63.4586 56.3684 63.383C56.3602 63.3702 56.1642 63.0716 55.7544 62.888C55.6729 62.8514 55.5753 62.888 55.5387 62.9704C55.5016 63.0533 55.5387 63.1495 55.6211 63.1866C55.938 63.3285 56.0919 63.5579 56.0932 63.5598C56.1244 63.6083 56.1775 63.6349 56.2311 63.6349Z" fill="#CE4045"/>
<path d="M52.2394 68.1785V71.6202C52.2394 71.6202 51.2127 73.3736 49.8248 73.4927C48.4378 73.614 47.2055 71.9834 47.2055 71.9834V68.4203L52.2394 68.1785Z" fill="#F68A85"/>
<path d="M52.2394 68.1791V69.7063C51.308 70.7398 49.6535 70.998 47.2055 70.6368V68.4209L52.2394 68.1791Z" fill="#F3665C"/>
<path d="M55.8684 59.339C55.8047 60.6765 55.677 62.3493 55.4219 63.6869C55.3583 64.0207 55.2859 64.3344 55.2062 64.616C54.4814 67.152 52.6698 71.5017 47.5975 69.6897C45.3574 68.8902 44.3188 66.395 43.8559 63.8568C43.5422 62.1336 43.4946 60.3922 43.5174 59.1476C43.5422 57.8768 44.2355 56.716 45.3409 56.0896C48.3347 54.3921 51.4944 55.0254 53.5742 55.8249C55.018 56.379 55.9417 57.7972 55.8684 59.339Z" fill="#F68A85"/>
<path d="M47.7555 61.9021C47.7555 62.2693 47.5659 62.567 47.3324 62.567C47.0984 62.567 46.9092 62.2693 46.9092 61.9021C46.9092 61.5348 47.0984 61.2367 47.3324 61.2367C47.5659 61.2367 47.7555 61.5348 47.7555 61.9021Z" fill="#2C375C"/>
<path d="M52.6621 61.9021C52.6621 62.2693 52.4729 62.567 52.2394 62.567C52.0059 62.567 51.8163 62.2693 51.8163 61.9021C51.8163 61.5348 52.0059 61.2367 52.2394 61.2367C52.4729 61.2367 52.6621 61.5348 52.6621 61.9021Z" fill="#2C375C"/>
<path d="M53.3892 59.8491C53.3892 59.8491 52.0548 59.3216 51.0273 59.7653L51.1299 60.3368C51.1299 60.3368 52.6382 60.2095 53.3979 60.5172C53.4661 60.2974 53.4758 60.0753 53.3892 59.8491Z" fill="#2C375C"/>
<path d="M45.6133 59.8491C45.6133 59.8491 46.9481 59.3216 47.9757 59.7653L47.8727 60.3368C47.8727 60.3368 46.3648 60.2095 45.6051 60.5172C45.5368 60.2974 45.5268 60.0753 45.6133 59.8491Z" fill="#2C375C"/>
<path d="M49.7886 64.7864C49.5148 64.8198 49.2304 64.7465 49.1864 64.7346C49.099 64.7108 49.0477 64.621 49.0715 64.5336C49.0949 64.4466 49.1851 64.3953 49.2721 64.4191C49.4259 64.4603 49.7891 64.5107 49.9306 64.4008C49.958 64.3793 49.9937 64.3399 49.9919 64.2401C49.9814 63.6658 49.594 61.7847 49.5899 61.7659C49.5715 61.6776 49.6288 61.5915 49.7172 61.5732C49.806 61.5544 49.8921 61.6116 49.9104 61.7C49.9264 61.7783 50.3079 63.6297 50.3193 64.2341C50.323 64.4612 50.2195 64.5904 50.1311 64.659C50.0354 64.7337 49.9131 64.7712 49.7886 64.7864Z" fill="#F3665C"/>
<path d="M47.5531 65.7673C47.6868 66.44 48.131 67.6768 49.6275 67.6768C51.1276 67.6768 51.548 66.5463 51.6927 65.7673H47.5531Z" fill="white"/>
<path d="M49.502 68.6905C49.9251 68.6905 50.2836 68.4762 50.2992 68.4671C50.3761 68.4204 50.4008 68.3196 50.3541 68.2427C50.3074 68.1653 50.2071 68.1406 50.1298 68.1873C50.127 68.1891 49.8317 68.3636 49.502 68.3636C49.1993 68.3636 48.9099 68.19 48.9067 68.1882C48.8302 68.141 48.729 68.1644 48.6818 68.2413C48.6342 68.3182 48.658 68.419 48.7349 68.4661C48.7496 68.4758 49.1027 68.6905 49.502 68.6905Z" fill="#F3665C"/>
<path d="M55.6953 61.7291H54.9544C55.0359 60.985 54.7657 60.0861 54.5427 59.4867C54.0362 58.1285 55.1137 57.5291 54.2423 56.8491C53.3709 56.1668 51.2013 56.4594 49.6924 56.4104C48.1749 56.3614 45.7347 56.3829 45.143 56.5198C44.5496 56.6558 44.8747 57.6413 45.0922 58.4051C45.3115 59.1671 44.3646 60.0105 44.2061 60.8009C44.1603 61.0271 44.17 61.3641 44.2061 61.7291H43.5884C43.5151 60.7675 43.5041 59.8727 43.5174 59.1474C43.5421 57.8766 44.2354 56.7158 45.3409 56.0894C48.3347 54.3919 51.4943 55.0252 53.5742 55.8247C55.018 56.3788 55.9416 57.797 55.8684 59.3388C55.8336 60.0714 55.7791 60.9053 55.6953 61.7291Z" fill="#2C375C"/>
<path d="M15.598 61.1943C14.665 61.1943 13.9059 61.953 13.9059 62.8863C13.9059 63.8195 14.665 64.5787 15.598 64.5787C16.5312 64.5787 17.2901 63.8195 17.2901 62.8863C17.2901 61.953 16.5312 61.1943 15.598 61.1943ZM15.598 65.3521C14.2384 65.3521 13.1322 64.2463 13.1322 62.8863C13.1322 61.5267 14.2384 60.4208 15.598 60.4208C16.9574 60.4208 18.0636 61.5267 18.0636 62.8863C18.0636 64.2463 16.9574 65.3521 15.598 65.3521Z" fill="#F03D5F"/>
<path d="M10.8652 48.9814C9.93215 48.9814 9.17302 49.7406 9.17302 50.6734C9.17302 51.6066 9.93215 52.3658 10.8652 52.3658C11.7983 52.3658 12.5575 51.6066 12.5575 50.6734C12.5575 49.7406 11.7983 48.9814 10.8652 48.9814ZM10.8652 53.1393C9.50593 53.1393 8.3996 52.0334 8.3996 50.6734C8.3996 49.3138 9.50593 48.2079 10.8652 48.2079C12.225 48.2079 13.331 49.3138 13.331 50.6734C13.331 52.0334 12.225 53.1393 10.8652 53.1393Z" fill="#146BA2"/>
<path d="M17.4887 77.0987C17.2753 77.0987 17.1022 76.9261 17.1022 76.7122V75.0065C17.1022 74.7926 17.2753 74.6196 17.4887 74.6196C17.7025 74.6196 17.8756 74.7926 17.8756 75.0065V76.7122C17.8756 76.9261 17.7025 77.0987 17.4887 77.0987Z" fill="#146BA2"/>
<path d="M17.4887 80.0836C17.2753 80.0836 17.1022 79.9105 17.1022 79.6966V77.9914C17.1022 77.7775 17.2753 77.6044 17.4887 77.6044C17.7025 77.6044 17.8756 77.7775 17.8756 77.9914V79.6966C17.8756 79.9105 17.7025 80.0836 17.4887 80.0836Z" fill="#146BA2"/>
<path d="M19.8829 77.7384H18.3506C18.1371 77.7384 17.9641 77.5653 17.9641 77.3519C17.9641 77.138 18.1371 76.9649 18.3506 76.9649H19.8829C20.0964 76.9649 20.2698 77.138 20.2698 77.3519C20.2698 77.5653 20.0964 77.7384 19.8829 77.7384Z" fill="#146BA2"/>
<path d="M16.6269 77.7384H15.0948C14.8813 77.7384 14.7079 77.5653 14.7079 77.3519C14.7079 77.138 14.8813 76.9649 15.0948 76.9649H16.6269C16.8406 76.9649 17.0136 77.138 17.0136 77.3519C17.0136 77.5653 16.8406 77.7384 16.6269 77.7384Z" fill="#146BA2"/>
<path d="M2.78098 63.4063C2.56755 63.4063 2.39423 63.2328 2.39423 63.0194V61.3137C2.39423 61.0998 2.56755 60.9267 2.78098 60.9267C2.99455 60.9267 3.16769 61.0998 3.16769 61.3137V63.0194C3.16769 63.2328 2.99455 63.4063 2.78098 63.4063Z" fill="#F03D5F"/>
<path d="M2.78098 66.3912C2.56755 66.3912 2.39423 66.2181 2.39423 66.0043V64.2985C2.39423 64.0851 2.56755 63.912 2.78098 63.912C2.99455 63.912 3.16769 64.0851 3.16769 64.2985V66.0043C3.16769 66.2181 2.99455 66.3912 2.78098 66.3912Z" fill="#F03D5F"/>
<path d="M5.17503 64.0455H3.64298C3.42923 64.0455 3.25623 63.8724 3.25623 63.659C3.25623 63.4452 3.42923 63.2721 3.64298 63.2721H5.17503C5.38861 63.2721 5.56193 63.4452 5.56193 63.659C5.56193 63.8724 5.38861 64.0455 5.17503 64.0455Z" fill="#F03D5F"/>
<path d="M1.91913 64.0455H0.386711C0.173322 64.0455 0 63.8724 0 63.659C0 63.4452 0.173322 63.2721 0.386711 63.2721H1.91913C2.13252 63.2721 2.3057 63.4452 2.3057 63.659C2.3057 63.8724 2.13252 64.0455 1.91913 64.0455Z" fill="#F03D5F"/>
<path d="M174.927 12.6762C173.995 12.6762 173.235 13.4354 173.235 14.3682C173.235 15.3014 173.995 16.0606 174.927 16.0606C175.861 16.0606 176.619 15.3014 176.619 14.3682C176.619 13.4354 175.861 12.6762 174.927 12.6762ZM174.927 16.8341C173.568 16.8341 172.461 15.7277 172.461 14.3682C172.461 13.0086 173.568 11.9028 174.927 11.9028C176.287 11.9028 177.393 13.0086 177.393 14.3682C177.393 15.7277 176.287 16.8341 174.927 16.8341Z" fill="#146BA2"/>
<path d="M179.171 24.5165C178.238 24.5165 177.479 25.2757 177.479 26.209C177.479 27.1418 178.238 27.901 179.171 27.901C180.104 27.901 180.863 27.1418 180.863 26.209C180.863 25.2757 180.104 24.5165 179.171 24.5165ZM179.171 28.6744C177.812 28.6744 176.705 27.5685 176.705 26.209C176.705 24.849 177.812 23.7431 179.171 23.7431C180.531 23.7431 181.637 24.849 181.637 26.209C181.637 27.5685 180.531 28.6744 179.171 28.6744Z" fill="#146BA2"/>
<path d="M180.863 37.9308C180.649 37.9308 180.476 37.7577 180.476 37.5438V35.8381C180.476 35.6247 180.649 35.4516 180.863 35.4516C181.077 35.4516 181.25 35.6247 181.25 35.8381V37.5438C181.25 37.7577 181.077 37.9308 180.863 37.9308Z" fill="#F03D5F"/>
<path d="M180.863 40.9156C180.649 40.9156 180.476 40.7421 180.476 40.5287V38.8229C180.476 38.6091 180.649 38.436 180.863 38.436C181.077 38.436 181.25 38.6091 181.25 38.8229V40.5287C181.25 40.7421 181.077 40.9156 180.863 40.9156Z" fill="#F03D5F"/>
<path d="M183.258 38.5704H181.725C181.512 38.5704 181.339 38.3973 181.339 38.1835C181.339 37.9696 181.512 37.7965 181.725 37.7965H183.258C183.471 37.7965 183.644 37.9696 183.644 38.1835C183.644 38.3973 183.471 38.5704 183.258 38.5704Z" fill="#F03D5F"/>
<path d="M180.001 38.5704H178.469C178.255 38.5704 178.082 38.3973 178.082 38.1835C178.082 37.9696 178.255 37.7965 178.469 37.7965H180.001C180.215 37.7965 180.388 37.9696 180.388 38.1835C180.388 38.3973 180.215 38.5704 180.001 38.5704Z" fill="#F03D5F"/>
<path d="M166.155 24.2379C165.942 24.2379 165.769 24.0653 165.769 23.8514V22.1457C165.769 21.9323 165.942 21.7587 166.155 21.7587C166.369 21.7587 166.542 21.9323 166.542 22.1457V23.8514C166.542 24.0653 166.369 24.2379 166.155 24.2379Z" fill="#F03D5F"/>
<path d="M166.155 27.2232C165.942 27.2232 165.769 27.0501 165.769 26.8363V25.131C165.769 24.9176 165.942 24.7441 166.155 24.7441C166.369 24.7441 166.542 24.9176 166.542 25.131V26.8363C166.542 27.0501 166.369 27.2232 166.155 27.2232Z" fill="#F03D5F"/>
<path d="M168.549 24.878H167.017C166.804 24.878 166.631 24.7049 166.631 24.4911C166.631 24.2772 166.804 24.1046 167.017 24.1046H168.549C168.763 24.1046 168.936 24.2772 168.936 24.4911C168.936 24.7049 168.763 24.878 168.549 24.878Z" fill="#F03D5F"/>
<path d="M165.293 24.878H163.761C163.548 24.878 163.375 24.7049 163.375 24.4911C163.375 24.2772 163.548 24.1046 163.761 24.1046H165.293C165.507 24.1046 165.68 24.2772 165.68 24.4911C165.68 24.7049 165.507 24.878 165.293 24.878Z" fill="#F03D5F"/>
<path d="M193.392 174.209H182.514C181.034 174.209 179.723 173.078 179.266 171.406L174.653 154.536C174.465 153.846 174.87 153.128 175.478 153.072C183.878 152.299 192.195 152.298 200.43 153.07C201.038 153.127 201.442 153.844 201.253 154.533L196.639 171.406C196.182 173.078 194.871 174.209 193.392 174.209Z" fill="#F03D5F"/>
<path d="M200.287 154.297C200.287 154.745 194.798 155.109 188.027 155.109C181.257 155.109 175.767 154.745 175.767 154.297C175.767 153.848 181.257 153.484 188.027 153.484C194.798 153.484 200.287 153.848 200.287 154.297Z" fill="#2C375C"/>
<path d="M201.912 131.497C197.5 130.335 190.759 139.492 188.712 148.42V135.412C189.741 133.587 191.703 130.841 195.265 127.94C200.805 123.429 205.905 117.638 201.485 116.474C197.343 115.383 191.149 123.388 188.712 131.759V115.054C189.425 113.946 190.595 112.492 192.464 110.97C195.955 108.127 199.169 104.477 196.384 103.744C193.967 103.107 190.44 107.386 188.712 112.212V106.798C188.998 105.123 189.402 102.731 190.51 100.285C193.077 94.6192 194.464 88.7808 191.079 89.2149C187.69 89.6499 185.493 99.7415 187.346 107.489V110.275C186.094 104.605 181.799 98.7336 178.996 99.4722C176.211 100.206 179.425 103.855 182.917 106.699C185.574 108.863 186.818 110.889 187.346 111.979V125.138C185.338 116.165 178.549 106.904 174.114 108.072C169.695 109.236 174.794 115.026 180.334 119.538C184.52 122.948 186.497 126.142 187.346 127.88V143.66C185.2 134.852 178.585 125.962 174.234 127.108C169.815 128.272 173.605 132.504 179.831 137.621C184.062 141.1 186.328 144.77 187.346 146.766V154.199C187.84 154.337 188.302 154.337 188.712 154.199V151.241C189.578 149.49 191.557 146.331 195.692 142.963C201.232 138.451 206.331 132.661 201.912 131.497Z" fill="#3C8E8B"/>
<path d="M149.489 166.904V170.195L152.499 170.147L152.695 166.659L149.489 166.904Z" fill="#F68A85"/>
<path d="M150.014 169.89C150.014 169.89 149.259 168.899 148.668 168.948C148.078 168.998 143.56 172.674 142.002 172.991C140.444 173.308 140.76 174.455 141.053 175.039C141.346 175.624 153.423 174.885 153.423 174.885C153.423 174.885 153.802 171.048 153.391 169.945C152.981 168.842 151.238 170.138 150.014 169.89Z" fill="#146BA2"/>
<path d="M147.523 172.448C147.579 172.464 147.64 172.458 147.694 172.426C147.798 172.365 147.833 172.231 147.772 172.127C147.752 172.092 147.265 171.269 146.62 170.953C145.761 170.531 145.1 171.022 145.072 171.043C144.976 171.116 144.958 171.253 145.031 171.35C145.104 171.446 145.241 171.464 145.338 171.391C145.355 171.378 145.816 171.047 146.427 171.346C146.953 171.604 147.39 172.34 147.394 172.348C147.424 172.399 147.471 172.432 147.523 172.448Z" fill="white"/>
<path d="M148.168 171.823C148.223 171.839 148.285 171.834 148.339 171.802C148.443 171.742 148.478 171.607 148.418 171.503C148.397 171.468 147.911 170.645 147.265 170.329C146.405 169.907 145.746 170.397 145.718 170.419C145.622 170.492 145.603 170.629 145.676 170.725C145.749 170.822 145.886 170.84 145.982 170.767C146.001 170.754 146.461 170.423 147.072 170.722C147.601 170.98 148.035 171.716 148.039 171.724C148.069 171.774 148.116 171.809 148.168 171.823Z" fill="white"/>
<path d="M146.645 172.957C146.7 172.973 146.762 172.967 146.816 172.936C146.92 172.875 146.955 172.741 146.895 172.637C146.874 172.601 146.387 171.779 145.742 171.463C144.882 171.04 144.223 171.531 144.195 171.552C144.098 171.626 144.08 171.763 144.152 171.859C144.226 171.955 144.363 171.974 144.459 171.9C144.478 171.887 144.938 171.556 145.549 171.856C146.078 172.114 146.512 172.85 146.516 172.857C146.546 172.908 146.593 172.943 146.645 172.957Z" fill="white"/>
<path d="M146.834 111.778C147.118 121.823 148.1 155.972 148.631 166.954H153.429C153.429 166.954 153.476 153.735 154.377 145.012C154.913 139.82 156.06 121.291 156.633 111.778H146.834Z" fill="#333333"/>
<path d="M148.101 165.221L148.317 167.418H154.073L154.246 165.221H148.101Z" fill="#333333"/>
<path d="M159.865 166.703L159.987 169.991L162.994 169.831L163.06 166.338L159.865 166.703Z" fill="#F68A85"/>
<path d="M161.343 169.104C161.343 169.104 162.946 168.752 163.384 168.78C163.822 168.808 166.611 172.222 167.592 172.459C169.369 172.89 169.246 175.69 168.149 175.78C164.976 176.041 159.637 174.468 159.637 174.468C159.637 174.468 159.3 170.854 159.566 169.736C159.832 168.618 160.446 169.396 161.343 169.104Z" fill="#146BA2"/>
<path d="M163.819 172.287C163.761 172.296 163.701 172.284 163.651 172.247C163.553 172.175 163.533 172.038 163.605 171.941C163.629 171.909 164.2 171.142 164.876 170.897C165.775 170.569 166.379 171.127 166.405 171.151C166.492 171.234 166.497 171.372 166.413 171.46C166.331 171.548 166.192 171.552 166.105 171.469C166.088 171.454 165.666 171.075 165.025 171.308C164.475 171.508 163.962 172.194 163.957 172.201C163.922 172.248 163.872 172.277 163.819 172.287Z" fill="white"/>
<path d="M163.244 171.598C163.187 171.608 163.126 171.595 163.076 171.558C162.979 171.487 162.959 171.35 163.03 171.252C163.054 171.22 163.625 170.453 164.301 170.208C165.201 169.88 165.804 170.438 165.83 170.462C165.918 170.545 165.921 170.684 165.839 170.771C165.756 170.859 165.617 170.863 165.529 170.78C165.513 170.765 165.091 170.387 164.451 170.619C163.897 170.82 163.387 171.505 163.382 171.513C163.347 171.559 163.297 171.589 163.244 171.598Z" fill="white"/>
<path d="M164.637 172.887C164.581 172.897 164.52 172.885 164.47 172.848C164.372 172.775 164.352 172.639 164.424 172.542C164.448 172.509 165.019 171.742 165.695 171.497C166.595 171.17 167.198 171.727 167.224 171.752C167.311 171.834 167.315 171.973 167.232 172.061C167.15 172.148 167.011 172.152 166.923 172.069C166.907 172.054 166.484 171.676 165.844 171.909C165.291 172.109 164.781 172.794 164.776 172.802C164.741 172.848 164.691 172.878 164.637 172.887Z" fill="white"/>
<path d="M156.011 111.778C156.584 121.291 157.731 139.82 158.266 145.012C159.168 153.735 159.214 166.954 159.214 166.954H164.012C164.543 155.972 165.525 121.823 165.81 111.778H156.011Z" fill="#333333"/>
<path d="M164.543 165.221L164.326 167.418H158.571L158.398 165.221H164.543Z" fill="#333333"/>
<path d="M150.619 86.7844C147.641 91.1552 139.591 94.9679 139.591 94.9679C136.632 94.3401 134.756 93.4512 132.893 92.4255C133.445 91.104 133.685 89.7623 133.991 88.0185C136.74 88.7837 139.114 89.1922 139.114 89.1922C144.918 86.5023 151.731 72.9356 151.731 72.9356C153.611 76.8018 150.619 86.7844 150.619 86.7844Z" fill="#146BA2"/>
<path d="M150.619 86.7844C147.641 91.1552 139.591 94.9679 139.591 94.9679C136.632 94.3401 134.756 93.4512 132.893 92.4255C133.445 91.104 133.685 89.7623 133.991 88.0185C136.74 88.7837 139.114 89.1922 139.114 89.1922C144.918 86.5023 151.731 72.9356 151.731 72.9356C153.611 76.8018 150.619 86.7844 150.619 86.7844Z" fill="black" fill-opacity="0.2"/>
<path d="M168.92 79.6708C166.508 81.8134 163.679 80.8527 160.077 79.0211C156.473 77.1899 158.783 80.7918 155.248 81.405C151.713 82.0186 152.127 73.2682 151.887 68.897C151.737 66.1554 150.649 62.7059 150.649 61.3189V61.3001C150.631 61.0698 150.621 60.8399 150.619 60.6133C150.592 57.286 152.643 51.209 159.858 52.1748C159.858 52.1748 165.845 52.858 166.527 58.7088C166.527 58.7088 166.811 61.4077 166.999 63.3626C167.534 68.897 169.575 66.0121 168.92 72.7572C168.704 74.9882 171.742 77.1656 168.92 79.6708Z" fill="#2C375C"/>
<path d="M146.884 112.768C152.772 117.108 166.394 112.997 166.394 112.997C167.928 111.123 165.799 106.84 165.174 101.826C164.647 97.6039 165.254 91.8776 166.032 87.6423C166.177 86.8501 166.329 86.1088 166.481 85.4393C167.438 81.1985 167.534 74.1164 167.534 74.1164C166.794 73.7363 165.603 73.2267 164.395 72.7362C163.644 72.4312 162.885 72.1331 162.225 71.8758C161.051 71.4193 160.177 71.0955 160.177 71.0955L155.319 71.8401L154.362 72.1331L152.782 72.6153L151.731 72.9354C151.731 72.9354 150.985 77.7316 150.274 80.6435C150.079 81.4408 149.886 82.0983 149.713 82.4766C148.901 84.2363 149.103 85.0885 149.954 87.4175C150.155 87.9693 150.289 88.5554 150.358 89.1928C150.377 89.3513 150.39 89.5129 150.401 89.6782C150.525 91.6459 150.138 94.0875 149.5 97.3928C148.753 101.249 146.932 108.689 146.307 111.218C146.161 111.805 146.398 112.409 146.884 112.768Z" fill="#146BA2"/>
<path d="M153.1 61.7029C153.1 61.7029 152.069 60.3974 151.302 61.4772C150.536 62.5569 151.62 65.7459 153.496 64.9674L153.1 61.7029Z" fill="#F3665C"/>
<path d="M152.656 64.7459C152.656 64.9351 152.503 65.0885 152.313 65.0885C152.124 65.0885 151.97 64.9351 151.97 64.7459C151.97 64.5564 152.124 64.403 152.313 64.403C152.503 64.403 152.656 64.5564 152.656 64.7459Z" fill="white"/>
<path d="M153.086 63.982C153.017 63.982 152.954 63.9385 152.934 63.8721C152.643 62.8876 151.569 62.4883 151.559 62.4842C151.477 62.4544 151.436 62.3679 151.467 62.29C151.497 62.2122 151.589 62.1732 151.671 62.2026C151.721 62.2204 152.904 62.6568 153.239 63.7906C153.263 63.8707 153.213 63.9536 153.13 63.9765L153.086 63.982Z" fill="#CE4045"/>
<path d="M152.003 63.4859L151.917 63.4621C151.843 63.4168 151.822 63.3234 151.87 63.2538C151.877 63.2419 152.067 62.9667 152.465 62.7977C152.544 62.7638 152.638 62.7977 152.674 62.8737C152.71 62.9497 152.674 63.0385 152.594 63.0724C152.287 63.2034 152.138 63.415 152.136 63.4168C152.106 63.4617 152.055 63.4859 152.003 63.4859Z" fill="#CE4045"/>
<path d="M161.045 68.3746V71.8918C161.045 71.8918 159.226 73.6896 157.808 73.8114C156.391 73.9351 155.9 72.2628 155.9 72.2628V68.6219L161.045 68.3746Z" fill="#F68A85"/>
<path d="M161.045 68.7577V70.3183C160.093 71.3747 158.403 71.7488 155.901 71.3797L155.9 69.005L161.045 68.7577Z" fill="#F3665C"/>
<path d="M152.48 63.1903C152.525 63.5681 152.579 63.9523 152.647 64.3351C153.096 66.8793 154.705 69.6272 156.737 70.0884C161.125 71.0843 162.947 67.638 163.648 65.0957C163.726 64.8132 163.581 64.4899 163.642 64.1556C163.787 63.3634 164.107 62.4631 164.18 61.5757C164.23 60.9607 164.266 60.354 164.292 59.8058C164.363 58.2594 163.467 56.839 162.068 56.284C160.05 55.4817 156.988 54.8466 154.087 56.5478C153.015 57.1765 152.343 58.34 152.319 59.6135C152.301 60.5861 152.325 61.8582 152.48 63.1903Z" fill="#F68A85"/>
<path d="M157.835 65.1588C157.916 65.1588 157.988 65.1002 158.002 65.0168C158.018 64.9239 157.955 64.8359 157.863 64.8204L157.277 64.7219L158.084 62.5747C158.117 62.4864 158.072 62.3879 157.984 62.3554C157.896 62.3224 157.798 62.3664 157.765 62.4548L156.813 64.9898L157.806 65.1565L157.835 65.1588Z" fill="#F3665C"/>
<path d="M154.17 58.9049C152.454 59.687 152.999 61.7248 152.42 62.7473C152.383 62.8137 152.344 62.8251 152.302 62.7912C152.139 61.4335 152.113 60.1367 152.132 59.1453C152.158 57.8471 152.867 56.6616 153.996 56.0205C157.054 54.2864 160.283 54.9339 162.409 55.7512C163.885 56.3172 164.829 57.7651 164.753 59.3413C164.726 59.9 164.689 60.5186 164.636 61.1455C164.351 61.3149 163.656 61.3923 163.627 61.8498C163.55 63.06 163.491 63.888 163.238 63.8161C162.812 63.6929 162.547 62.2271 163.035 61.2801C163.035 61.2801 162.643 60.6418 161.045 60.0263C158.995 59.2364 157.022 58.0669 157.022 58.0669C157.022 58.0669 156.244 57.598 155.945 57.087C155.945 57.087 155.476 58.3092 154.17 58.9049Z" fill="#2C375C"/>
<path d="M155.839 62.3171C155.839 62.6926 155.645 62.9967 155.406 62.9967C155.167 62.9967 154.974 62.6926 154.974 62.3171C154.974 61.9416 155.167 61.6371 155.406 61.6371C155.645 61.6371 155.839 61.9416 155.839 62.3171Z" fill="#2C375C"/>
<path d="M160.509 62.3171C160.509 62.6926 160.316 62.9967 160.077 62.9967C159.838 62.9967 159.645 62.6926 159.645 62.3171C159.645 61.9416 159.838 61.6371 160.077 61.6371C160.316 61.6371 160.509 61.9416 160.509 62.3171Z" fill="#2C375C"/>
<path d="M154.242 60.5343C154.589 60.4665 155.292 60.3547 156.04 60.3813C156.238 60.3882 156.396 60.5365 156.368 60.6931L156.367 60.6973C156.346 60.8223 156.212 60.9065 156.054 60.8946C155.544 60.8562 154.21 60.8644 153.589 61.0494C153.572 60.9597 153.632 60.8639 153.72 60.7806C153.853 60.6538 154.039 60.5736 154.242 60.5343Z" fill="#2C375C"/>
<path d="M161.191 60.6164C160.844 60.544 160.143 60.4222 159.394 60.4387C159.197 60.4428 159.038 60.5889 159.063 60.746L159.063 60.7501C159.083 60.8756 159.216 60.9616 159.373 60.9516C159.884 60.9204 161.218 60.9465 161.836 61.1402C161.855 61.0505 161.796 60.9543 161.71 60.8691C161.579 60.7409 161.393 60.6585 161.191 60.6164Z" fill="#2C375C"/>
<path d="M155.945 66.1736C156.072 66.7712 156.491 67.8702 157.906 67.8702C159.324 67.8702 159.721 66.8655 159.858 66.1736H155.945Z" fill="white"/>
<path d="M157.885 68.8971C157.477 68.8971 157.117 68.6773 157.102 68.6676C157.023 68.6191 156.999 68.5165 157.047 68.4378C157.096 68.3595 157.198 68.3352 157.277 68.3833C157.28 68.3851 157.574 68.5628 157.885 68.5628C158.222 68.5628 158.524 68.3847 158.527 68.3828C158.607 68.3352 158.709 68.3608 158.756 68.4396C158.804 68.5188 158.779 68.6209 158.7 68.6686C158.685 68.6782 158.318 68.8971 157.885 68.8971Z" fill="#F3665C"/>
<path d="M163.668 61.6922C163.668 61.6922 164.867 60.2378 165.574 61.2865C166.281 62.3351 165.281 65.432 163.55 64.676L163.668 61.6922Z" fill="#F68A85"/>
<path d="M164.638 64.7459C164.638 64.9351 164.485 65.0885 164.295 65.0885C164.106 65.0885 163.952 64.9351 163.952 64.7459C163.952 64.5564 164.106 64.403 164.295 64.403C164.485 64.403 164.638 64.5564 164.638 64.7459Z" fill="white"/>
<path d="M163.928 63.7193C163.992 63.7193 164.05 63.6772 164.069 63.6126C164.337 62.6565 165.327 62.2686 165.338 62.265C165.413 62.2361 165.451 62.1519 165.422 62.0763C165.394 62.0008 165.309 61.9627 165.234 61.9916C165.188 62.009 164.096 62.4326 163.787 63.5334C163.765 63.6113 163.81 63.6923 163.888 63.7138L163.928 63.7193Z" fill="#F3665C"/>
<path d="M164.928 63.2374L165.007 63.2145C165.075 63.1705 165.094 63.0799 165.05 63.0121C165.043 63.0006 164.868 62.7332 164.501 62.5693C164.428 62.5363 164.341 62.5693 164.308 62.643C164.275 62.7167 164.308 62.8033 164.382 62.8363C164.665 62.9631 164.803 63.1682 164.805 63.1705C164.833 63.214 164.88 63.2374 164.928 63.2374Z" fill="#F3665C"/>
<path d="M139.519 93.9534L135.308 97.1831C134.776 97.5911 134.014 97.4903 133.606 96.9578L125.425 86.2924L122.042 81.8822L128.179 77.1735L130.183 79.7864L139.743 92.2509C140.152 92.782 140.051 93.5445 139.519 93.9534Z" fill="#3566BA"/>
<path d="M130.183 79.7865C129.33 81.7958 127.864 84.3208 125.425 86.2926L122.042 81.8824L128.179 77.1736L130.183 79.7865Z" fill="#3550AA"/>
<path d="M152.124 114.356L151.747 114.646C150.799 115.373 149.441 115.194 148.714 114.246L135.508 97.0291L139.319 94.1062L152.524 111.324C153.251 112.271 153.072 113.629 152.124 114.356Z" fill="#2C375C"/>
<path d="M124.466 78.5339C116.439 84.756 104.846 83.287 98.6245 75.2607C92.4023 67.2334 93.87 55.6403 101.897 49.4181C109.925 43.196 121.517 44.665 127.739 52.6922C133.961 60.7186 132.493 72.3112 124.466 78.5339ZM99.8536 46.7814C90.3568 54.1425 88.6268 67.8081 95.9878 77.3048C103.348 86.8002 117.014 88.532 126.51 81.1706C136.007 73.8095 137.737 60.1439 130.376 50.6486C123.015 41.1518 109.35 39.4204 99.8536 46.7814Z" fill="#2C375C"/>
<path d="M104.027 79.9483C103.678 79.7482 103.336 79.5371 103.001 79.315L103.951 77.6729H107.436L104.027 79.9483ZM113.59 73.5654H106.326L111.889 63.946H119.396L113.987 73.3008L113.59 73.5654ZM124.742 66.122L126 63.946H128.002L124.742 66.122ZM125.042 54.1809H117.536L121.398 47.5017C123.355 48.478 125.137 49.8005 126.644 51.4105L125.042 54.1809Z" fill="white"/>
<path d="M128.002 63.9459H126L130.14 56.7859C130.471 57.5671 130.752 58.3799 130.976 59.2216C130.985 59.2536 130.993 59.2861 131.002 59.3186C131.166 59.9519 131.296 60.5907 131.392 61.2337V61.6833L128.002 63.9459ZM119.396 63.9459H111.889L117.536 54.1808H125.042L119.396 63.9459Z" fill="#DEF0F1"/>
<path d="M131.392 61.6827V61.233C131.413 61.37 131.432 61.5078 131.449 61.6447L131.392 61.6827Z" fill="#71ADE0"/>
<path d="M107.436 77.6729H103.951L106.326 73.5654H113.59L107.436 77.6729Z" fill="#DEF0F1"/>
<path d="M115.413 82.2555L118.063 77.6726H125.494C125.15 77.9836 124.792 78.2821 124.423 78.5679C123.423 79.3381 122.368 79.9897 121.275 80.5245C120.256 81.0223 119.177 81.4321 118.044 81.7421C117.177 81.9784 116.297 82.1492 115.413 82.2555ZM109.009 81.9084C108.46 81.7811 107.916 81.6286 107.379 81.4514C106.213 81.0621 105.089 80.5575 104.027 79.948L107.436 77.6726H111.459L109.009 81.9084ZM128.898 73.5651H120.438L124.742 66.1217L128.002 63.9457H131.392H131.594C131.595 65.9307 131.277 67.908 130.651 69.796C130.209 71.1162 129.62 72.3805 128.898 73.5651ZM113.833 73.5651H113.59L113.987 73.3004L113.833 73.5651Z" fill="white"/>
<path d="M131.392 63.9459H128.002L131.392 61.6833V63.9459Z" fill="#E8F2F4"/>
<path d="M131.594 63.9459H131.392V61.6833L131.449 61.6453C131.545 62.41 131.593 63.1784 131.594 63.9459Z" fill="#97C2E8"/>
<path d="M125.494 77.6729H118.063L120.438 73.5654H128.898C127.972 75.0839 126.827 76.4705 125.494 77.6729ZM111.459 77.6729H107.436L113.59 73.5654H113.833L111.459 77.6729Z" fill="#E8F2F4"/>
<path d="M96.3372 71.4308C95.9567 70.5708 95.638 69.6692 95.388 68.7323C95.3802 68.7048 95.3733 68.6778 95.366 68.6503C95.3573 68.6164 95.3486 68.583 95.3399 68.5491C96.0277 68.3064 96.4801 67.7967 96.492 67.4391C96.5057 67.0499 96.0519 66.8269 96.0519 66.8269C96.0519 66.8269 96.3881 66.5452 96.3706 66.134C96.3523 65.7228 95.6453 65.3244 95.6453 65.3244C95.6453 65.3244 95.9846 64.9036 95.6893 64.4864C95.5885 64.3445 95.4026 64.2973 95.2007 64.2973C95.0578 64.2973 94.9072 64.3207 94.7734 64.3509C94.7725 64.3065 94.7721 64.2616 94.7716 64.2172C94.8943 64.1389 95.0372 64.0468 95.1906 63.9456H100.665L96.3372 71.4308ZM106.312 54.1806H97.5937C98.7463 52.3448 100.221 50.7086 101.964 49.3669C102.944 48.6146 103.975 47.9763 105.044 47.4496C106.083 46.9386 107.186 46.5187 108.343 46.2037C109.296 45.9458 110.264 45.7663 111.236 45.6647L106.312 54.1806Z" fill="white"/>
<path d="M100.665 63.9459H95.1906C96.1005 63.3451 97.3703 62.4297 96.8867 62.2887C96.8428 62.2759 96.7896 62.2699 96.7287 62.2699C96.3171 62.2699 95.5496 62.5469 94.8046 62.8615C94.9007 61.2941 95.1956 59.7399 95.6838 58.2421C96.1545 56.8138 96.797 55.4497 97.5937 54.1808H106.312L100.665 63.9459Z" fill="#DEF0F1"/>
<path d="M95.3399 68.5494C94.9882 67.1688 94.8005 65.7589 94.7735 64.3512C94.9072 64.321 95.0578 64.2976 95.2007 64.2976C95.4026 64.2976 95.5886 64.3448 95.6893 64.4868C95.9847 64.9039 95.6453 65.3247 95.6453 65.3247C95.6453 65.3247 96.3524 65.7231 96.3707 66.1344C96.3881 66.5456 96.052 66.8272 96.052 66.8272C96.052 66.8272 96.5058 67.0502 96.492 67.4394C96.4801 67.7971 96.0277 68.3067 95.3399 68.5494ZM94.7716 64.2175C94.7661 63.7646 94.7771 63.3131 94.8046 62.8616C95.5496 62.547 96.3171 62.27 96.7288 62.27C96.7897 62.27 96.8428 62.2759 96.8868 62.2888C97.3703 62.4298 96.1005 63.3452 95.1906 63.946C95.0372 64.0472 94.8944 64.1392 94.7716 64.2175Z" fill="#FAC0B8"/>
<path d="M115.409 82.2613L115.413 82.2554C116.297 82.1491 117.177 81.9783 118.044 81.742C118.009 81.7517 117.973 81.7613 117.937 81.7709C117.096 81.9957 116.252 82.1587 115.409 82.2613ZM109.006 81.9128C108.456 81.7837 107.913 81.6299 107.379 81.4513C107.916 81.6285 108.46 81.781 109.009 81.9083L109.006 81.9128ZM121.274 80.5244C122.368 79.9896 123.423 79.338 124.423 78.5678C123.453 79.3165 122.401 79.974 121.274 80.5244ZM130.651 69.7959C131.277 67.9079 131.595 65.9306 131.594 63.9456C131.593 63.1781 131.545 62.4097 131.449 61.645C131.432 61.5081 131.413 61.3702 131.392 61.2333C131.296 60.5904 131.166 59.9516 131.002 59.3183C131.938 62.9001 131.748 66.5191 130.651 69.7959ZM95.366 68.6502C94.4332 65.0945 94.6104 61.5007 95.6838 58.2417C95.1956 59.7396 94.9007 61.2938 94.8046 62.8612C94.7771 63.3127 94.7661 63.7642 94.7716 64.2171C94.7721 64.2615 94.7725 64.3064 94.7734 64.3508C94.8005 65.7584 94.9882 67.1684 95.3399 68.549C95.3486 68.5829 95.3573 68.6163 95.366 68.6502ZM101.964 49.3668C102.914 48.6351 103.944 47.9913 105.044 47.4496C103.975 47.9762 102.944 48.6145 101.964 49.3668ZM113.177 45.5542C112.535 45.5542 111.889 45.5881 111.24 45.6573L111.236 45.6646C110.264 45.7663 109.296 45.9458 108.343 46.2036C108.371 46.1962 108.398 46.1884 108.426 46.1811C109.364 45.9306 110.303 45.7571 111.24 45.6573C111.889 45.5881 112.535 45.5542 113.177 45.5542Z" fill="#7694A6"/>
<path d="M103.001 79.3145C102.255 78.82 101.544 78.2714 100.875 77.6725H103.951L103.001 79.3145ZM106.326 73.5649H97.4546C97.1194 73.0154 96.8153 72.4531 96.5438 71.8812C96.4728 71.7324 96.4041 71.5822 96.3373 71.4306L100.666 63.9455H111.889L106.326 73.5649ZM117.536 54.1804H106.312L111.236 45.6645C111.877 45.5977 112.519 45.5642 113.161 45.5642C115.164 45.5642 117.159 45.8884 119.062 46.5268C119.863 46.7983 120.644 47.1244 121.398 47.5012L117.536 54.1804Z" fill="white"/>
<path d="M111.889 63.9459H100.665L106.312 54.1808H117.536L111.889 63.9459Z" fill="#EEF7F7"/>
<path d="M103.951 77.6729H100.875C100.09 76.97 99.3623 76.1971 98.7033 75.3614C98.6768 75.328 98.6511 75.295 98.6246 75.2611C98.1987 74.7111 97.809 74.1456 97.4546 73.5654H106.326L103.951 77.6729Z" fill="#EEF7F7"/>
<path d="M98.7033 75.3609C97.8658 74.299 97.1386 73.135 96.5438 71.8812C96.8153 72.4532 97.1194 73.0155 97.4546 73.565C97.809 74.1452 98.1987 74.7107 98.6245 75.2606C98.6511 75.2945 98.6767 75.3275 98.7033 75.3609ZM119.062 46.5268C117.159 45.8885 115.164 45.5643 113.161 45.5643C112.519 45.5643 111.877 45.5977 111.236 45.6646L111.24 45.6572C111.889 45.5881 112.535 45.5542 113.177 45.5542C115.204 45.5542 117.189 45.8921 119.062 46.5268Z" fill="#B7C2CA"/>
<path d="M113.987 73.3004L119.396 63.9456H126L124.742 66.1216L113.987 73.3004ZM128.781 54.1805H125.042L126.644 51.4101C127.134 51.9331 127.595 52.4871 128.024 53.0692C128.292 53.4327 128.544 53.8041 128.781 54.1805Z" fill="white"/>
<path d="M126 63.9459H119.396L125.042 54.1808H128.781C128.92 54.4015 129.053 54.6236 129.182 54.8489C129.536 55.4698 129.856 56.116 130.14 56.7859L126 63.9459Z" fill="#EEF7F7"/>
<path d="M113.203 82.3878C111.791 82.3878 110.383 82.2271 109.009 81.9083L111.459 77.6726H118.063L115.413 82.2554C114.678 82.3438 113.94 82.3878 113.203 82.3878ZM120.438 73.5651H113.833L113.987 73.3004L124.742 66.1217L120.438 73.5651Z" fill="white"/>
<path d="M118.063 77.6729H111.459L113.833 73.5654H120.438L118.063 77.6729Z" fill="#F5F8F9"/>
<path d="M113.186 82.3976C111.764 82.3976 110.363 82.2313 109.006 81.9131L109.009 81.9085C110.383 82.2272 111.791 82.3879 113.203 82.3879C113.94 82.3879 114.678 82.344 115.413 82.2556L115.409 82.2616C114.665 82.3527 113.923 82.3976 113.186 82.3976ZM129.182 54.8488C129.053 54.6235 128.92 54.4014 128.781 54.1807C128.544 53.8043 128.292 53.4329 128.024 53.0693C128.442 53.6362 128.828 54.2297 129.182 54.8488Z" fill="#B7C2CA"/>
<path d="M148.468 103.13H147.727C147.065 103.13 146.562 102.74 146.264 102.148C146.132 101.887 145.954 101.408 145.831 101.243C145.484 100.781 144.539 100.006 144.185 99.9823C143.831 99.9585 143.896 100.617 144.147 100.906C144.397 101.195 144.791 101.563 145.003 101.971C145.215 102.379 143.27 103.207 142.481 103.399C141.692 103.592 140.305 103.169 140.171 103.823C140.036 104.478 141.075 104.574 141.075 104.574C141.075 104.574 140.771 105.164 141.634 105.652C141.634 105.652 141.48 106.23 142.038 106.538C142.038 106.538 141.975 107.27 142.623 107.462C143.27 107.654 145.292 108.241 149.258 105.834L148.468 103.13Z" fill="#F68A85"/>
<path d="M162.46 86.3921C161.757 91.1682 159.524 94.6767 159.524 94.6767C159.524 94.6767 157.432 97.0199 153.979 99.4487C151.581 101.136 147.727 103.13 147.727 103.13C148.392 103.994 148.861 105.703 148.605 106.214C155.947 104.567 163.285 98.3822 163.285 98.3822C169.022 91.7287 168.912 76.8784 168.912 76.8784C168.912 76.8784 168.725 74.6758 167.534 74.1163C167.534 74.1163 165.131 75.0115 164.295 77.8309C163.46 80.6503 162.46 86.3921 162.46 86.3921Z" fill="#146BA2"/>
<path d="M162.46 86.3921C161.757 91.1682 159.524 94.6767 159.524 94.6767C159.524 94.6767 157.432 97.0199 153.979 99.4487C151.581 101.136 147.727 103.13 147.727 103.13C148.392 103.994 148.861 105.703 148.605 106.214C155.947 104.567 163.285 98.3822 163.285 98.3822C169.022 91.7287 168.912 76.8784 168.912 76.8784C168.912 76.8784 168.725 74.6758 167.534 74.1163C167.534 74.1163 165.131 75.0115 164.295 77.8309C163.46 80.6503 162.46 86.3921 162.46 86.3921Z" fill="black" fill-opacity="0.2"/>
<path d="M125.792 87.2371C125.792 87.2371 127.574 86.6075 128.393 86.9482C129.212 87.2888 126.943 88.5184 126.943 88.5184C126.943 88.5184 129.694 87.0539 130.169 87.6442C130.644 88.2345 128.012 89.7332 128.012 89.7332C128.012 89.7332 130.028 89.0248 130.436 89.4406C130.846 89.8569 128.967 91.0314 128.967 91.0314C128.967 91.0314 130.621 90.6321 130.966 90.9128C131.311 91.194 129.845 92.3713 128.915 92.6836C127.984 92.9954 127.834 91.6849 127.834 91.6849C127.834 91.6849 126.959 90.9142 127.075 90.3793C127.075 90.3793 126.167 89.7666 126.103 89.1407C126.103 89.1407 124.821 88.0124 125.792 87.2371Z" fill="#F68A85"/>
</svg>
