<svg width="40" height="40" viewBox="0 0 40 40" fill="none" xmlns="http://www.w3.org/2000/svg">
<circle cx="20" cy="20" r="19.5" fill="white" stroke="#CCEBEA"/>
<path d="M23.2342 28.3779L19.8396 24.9833L20.756 24.0669L23.2342 26.5452L28.164 21.6154L29.0803 22.5318L23.2342 28.3779V28.3779ZM20.0001 19.1304L26.8228 14.7826H13.1774L20.0001 19.1304ZM20.0001 20.4849L13.0436 16.0367V24.9498C13.0436 25.0278 13.0687 25.0919 13.1188 25.1421C13.169 25.1923 13.2331 25.2174 13.3112 25.2174H17.6305L18.9349 26.5217H13.3112C12.8719 26.5217 12.5001 26.3695 12.1958 26.0652C11.8914 25.7608 11.7393 25.389 11.7393 24.9498V15.0502C11.7393 14.6109 11.8914 14.2391 12.1958 13.9348C12.5001 13.6304 12.8719 13.4783 13.3112 13.4783H26.689C27.1283 13.4783 27.5001 13.6304 27.8044 13.9348C28.1088 14.2391 28.261 14.6109 28.261 15.0502V19.0836L26.9566 20.3879V16.0367L20.0001 20.4849Z" fill="#24AF7D"/>
</svg>
