<svg width="48" height="48" viewBox="0 0 48 48" fill="none" xmlns="http://www.w3.org/2000/svg">
<circle cx="24" cy="24" r="24" fill="#146BA2" fill-opacity="0.1"/>
<circle cx="24" cy="24" r="23.5" stroke="#146BA2" stroke-opacity="0.4"/>
<g opacity="0.8">
<path d="M32.0644 27.7519C31.2929 27.0634 30.3148 26.5032 29.5528 26.122C28.8595 25.7769 28.3459 25.5784 28.3359 25.5745C27.1524 25.1583 26.7301 24.7334 26.584 24.4508L26.5247 24.2806C26.508 24.2205 26.4929 24.1642 26.479 24.1099L26.3354 23.3016L26.3317 23.2626C26.7232 22.7627 27.0415 22.1883 27.2542 21.6005L27.2839 21.5552C27.6208 21.2183 27.8037 20.365 27.8042 20.3569C28.0519 19.6626 27.9603 19.3607 27.883 19.2392L27.8513 19.1893L27.8694 19.1341C27.8946 19.059 28.4757 17.2793 27.6736 15.9235L27.659 15.8878C27.6567 15.8755 27.3569 14.6221 25.8863 14.0675C25.3328 13.7308 24.4062 13.5652 23.5679 13.5652C23.5431 13.5652 23.519 13.5657 23.4946 13.5661C23.4701 13.5657 23.4462 13.5652 23.4211 13.5652C22.5829 13.5652 21.6563 13.7308 21.1023 14.067C19.6317 14.6224 19.3319 15.875 19.3293 15.8873L19.3152 15.923C18.5133 17.2791 19.0942 19.0585 19.1192 19.1337L19.1373 19.1889L19.106 19.2387C19.0295 19.3602 18.9367 19.6624 19.1841 20.3564C19.1851 20.3648 19.3678 21.2179 19.7052 21.5548L19.7346 21.6C19.947 22.1878 20.2659 22.7622 20.6573 23.2621L20.6536 23.3011L20.5096 24.1094C20.4954 24.1637 20.4811 24.2201 20.4644 24.2801L20.405 24.4503C20.2592 24.733 19.8367 25.1578 18.6531 25.574C18.6432 25.5782 18.1295 25.7765 17.4357 26.1215C16.674 26.5032 15.6961 27.0632 14.9247 27.7514C14.9084 27.7637 13.4483 28.8682 13.5728 31.8064C13.5809 32.0197 13.5971 32.2395 13.6243 32.4714C13.6243 32.7056 13.6992 32.8934 14.1509 33.0344C14.1884 33.0488 18.1054 34.4348 23.2985 34.4348C23.3627 34.4348 23.429 34.4329 23.4942 34.4329C23.5589 34.4329 23.625 34.4348 23.6896 34.4348C28.8827 34.4348 32.7992 33.0488 32.8363 33.0349C33.2883 32.8948 33.3634 32.7061 33.3634 32.4719C33.3905 32.24 33.407 32.0202 33.4149 31.8068C33.5405 28.8686 32.0804 27.7639 32.0644 27.7519Z" fill="#337AB7"/>
</g>
</svg>
