<svg width="637" height="351" viewBox="0 0 637 351" fill="none" xmlns="http://www.w3.org/2000/svg">
<path d="M521.447 108.235C475.633 -32.5974 229.46 -38.7201 210.553 119.29C210.553 119.29 195.96 122.181 183.085 120.21C112.892 109.471 -9.93406 243.893 84.3323 346.612H610.755C667.71 248.514 626.8 148.139 521.447 108.235Z" fill="#EDF4FB"/>
<path d="M140.643 245.222C127.937 232.605 111.333 228.697 111.166 228.659L111.448 227.426C111.618 227.464 128.565 231.442 141.536 244.322L140.643 245.222Z" fill="#DADADA"/>
<path d="M75.9708 297.839C75.9708 299.414 74.6948 300.69 73.1206 300.69C71.5465 300.69 70.2704 299.414 70.2704 297.839C70.2704 296.265 71.5465 294.989 73.1206 294.989C74.6948 294.989 75.9708 296.265 75.9708 297.839Z" fill="#DADADA"/>
<path d="M164.293 30.9909C163.811 30.9909 163.327 31.0076 162.842 31.0387C150.861 31.8193 141.746 42.1708 142.523 54.1145C143.301 66.0583 153.691 75.1382 165.662 74.36C171.466 73.9841 176.776 71.3741 180.614 67.0161C184.451 62.6581 186.357 57.0693 185.981 51.2842C185.604 45.4991 182.99 40.2073 178.619 36.3833C174.615 32.8777 169.574 30.9909 164.293 30.9909ZM164.228 75.6746C152.202 75.6746 142.05 66.3313 141.26 54.1959C140.437 41.5554 150.082 30.6006 162.759 29.7744C168.901 29.3746 174.829 31.3836 179.453 35.4279C184.079 39.477 186.846 45.0777 187.244 51.2028C187.643 57.328 185.626 63.24 181.564 67.8542C177.504 72.466 171.886 75.2244 165.745 75.6243C165.236 75.6578 164.73 75.6746 164.228 75.6746ZM136.471 79.4483L136.84 79.8147C139.674 82.6282 142.914 84.9796 146.466 86.8066L146.935 87.0485L143.947 96.9689C143.749 97.625 143.82 98.317 144.144 98.918C144.469 99.5238 145.012 99.9644 145.672 100.163L153.551 102.517C154.914 102.922 156.349 102.151 156.756 100.795L159.753 90.8366L160.272 90.8892C162.415 91.1047 164.594 91.1431 166.745 91.0042C168.898 90.8653 171.052 90.5444 173.147 90.0512L173.655 89.9314L177.92 99.4184C178.5 100.707 180.026 101.284 181.322 100.707L188.826 97.352C189.455 97.0718 189.935 96.5642 190.18 95.9201C190.423 95.2831 190.403 94.5863 190.122 93.9638L185.873 84.5127L186.307 84.2134C189.597 81.9386 192.503 79.1849 194.945 76.0314L195.263 75.6195L204.484 80.2289C205.757 80.8635 207.304 80.3486 207.94 79.0844L211.626 71.7548C211.934 71.1442 211.985 70.4498 211.769 69.8009C211.554 69.1496 211.096 68.6228 210.481 68.3163L201.344 63.7476L201.493 63.2376C202.713 59.0903 203.217 54.7706 202.992 50.4031L202.965 49.8834L212.773 47.4411C213.441 47.2734 214.003 46.8568 214.358 46.2678C214.71 45.6811 214.813 44.9939 214.647 44.3306L212.658 36.3761C212.315 35.004 210.917 34.166 209.538 34.5084L199.832 36.9268L199.614 36.4455C197.905 32.6814 195.612 29.2261 192.798 26.1803L192.442 25.7948L198.324 17.8451C198.732 17.2943 198.9 16.6191 198.798 15.9414C198.696 15.2662 198.335 14.6676 197.782 14.2629L191.163 9.39486C190.021 8.55439 188.406 8.79867 187.564 9.93605L181.723 17.8259L181.25 17.596C177.37 15.7092 173.232 14.4904 168.949 13.9732L168.428 13.9109L167.794 4.16531C167.701 2.75495 166.472 1.6846 165.058 1.7732L156.85 2.30714C155.434 2.40053 154.357 3.62413 154.448 5.03449L155.083 14.7801L154.573 14.9094C150.393 15.975 146.447 17.7205 142.843 20.0959L142.403 20.3856L135.59 13.3195C134.607 12.3018 132.973 12.2683 131.949 13.25L126.019 18.9346C125.523 19.4087 125.242 20.048 125.229 20.7328C125.216 21.4177 125.47 22.0666 125.946 22.5598L132.812 29.6787L132.508 30.1073C130.112 33.4907 128.285 37.2118 127.078 41.1699L126.924 41.6727L116.988 40.5353C115.575 40.3605 114.297 41.383 114.135 42.791L113.194 50.937C113.116 51.6171 113.307 52.2851 113.732 52.8191C114.16 53.3579 114.772 53.6979 115.456 53.7769L125.496 54.9263L125.537 55.4459C125.884 59.8039 126.944 64.0206 128.688 67.9811L128.901 68.4648L120.435 74.178C119.865 74.5636 119.48 75.1454 119.35 75.8183C119.221 76.4911 119.361 77.1712 119.746 77.7387L124.353 84.5271C125.149 85.698 126.753 86.0069 127.928 85.2119L136.471 79.4483ZM154.288 103.891C153.924 103.891 153.554 103.839 153.188 103.729L145.308 101.377C144.325 101.083 143.515 100.422 143.029 99.519C142.544 98.6187 142.439 97.5843 142.734 96.6049L145.419 87.6878C142.087 85.9207 139.031 83.6986 136.319 81.0766L128.637 86.2631C126.883 87.446 124.491 86.9862 123.305 85.2382L118.697 78.4498C118.122 77.6022 117.913 76.5821 118.107 75.5788C118.3 74.5731 118.876 73.7015 119.726 73.1293L127.318 68.005C125.709 64.2169 124.702 60.2037 124.32 56.066L115.312 55.0364C114.291 54.9191 113.378 54.4115 112.74 53.6093C112.104 52.8071 111.819 51.8086 111.936 50.7934L112.877 42.6449C113.119 40.5473 115.027 39.034 117.132 39.2758L126.023 40.2959C127.215 36.5629 128.946 33.0381 131.174 29.8056L125.034 23.4386C124.323 22.7011 123.942 21.7313 123.962 20.7089C123.983 19.684 124.401 18.731 125.142 18.0199L131.072 12.3353C132.599 10.8723 135.035 10.9178 136.502 12.4407L142.587 18.7526C146.041 16.5401 149.792 14.8807 153.75 13.8151L153.184 5.11829C153.047 3.00874 154.655 1.18175 156.768 1.04526L164.975 0.511269C167.114 0.369994 168.919 1.97673 169.057 4.08389L169.624 12.7807C173.686 13.3266 177.619 14.4832 181.329 16.2288L186.545 9.18417C187.802 7.48408 190.21 7.12009 191.914 8.37481L198.533 13.2404C199.359 13.8486 199.897 14.7394 200.05 15.7523C200.203 16.7651 199.952 17.7756 199.343 18.5993L194.082 25.7086C196.709 28.6275 198.881 31.8984 200.547 35.4422L209.231 33.28C211.288 32.7724 213.374 34.0199 213.886 36.0672L215.876 44.0241C216.122 45.0154 215.969 46.0451 215.442 46.9215C214.916 47.8002 214.075 48.4204 213.079 48.6695L204.281 50.8604C204.442 55.0149 203.962 59.1214 202.855 63.0867L211.049 67.1813C211.966 67.6411 212.648 68.4288 212.971 69.401C213.295 70.3732 213.218 71.41 212.758 72.3247L209.073 79.6543C208.122 81.5411 205.809 82.3074 203.918 81.3615L195.625 77.2166C193.28 80.1667 190.538 82.7647 187.459 84.9509L191.278 93.4442C191.697 94.3756 191.728 95.4172 191.363 96.3726C190.999 97.3304 190.281 98.0895 189.343 98.5085L181.839 101.863C179.906 102.725 177.631 101.863 176.765 99.938L172.927 91.4017C170.925 91.8446 168.876 92.1344 166.828 92.2685C164.78 92.4026 162.711 92.3786 160.666 92.199L157.969 101.159C157.47 102.819 155.94 103.891 154.288 103.891Z" fill="#146BA2"/>
<path d="M357.963 345.98H169.526C163.006 345.98 157.719 340.693 157.719 334.173V58.7431C157.719 52.2205 163.006 46.9358 169.526 46.9358H357.963C364.483 46.9358 369.77 52.2205 369.77 58.7431V334.173C369.77 340.693 364.483 345.98 357.963 345.98Z" fill="#86A7FF"/>
<path d="M301.115 72.6407H226.376V60.0936H301.115V72.6407Z" fill="#D3DFFF"/>
<path d="M348.617 129.409H178.872V91.7655H348.617V129.409Z" fill="#DADADA"/>
<path d="M341.19 124.261H186.3V96.9138H341.19V124.261Z" fill="white"/>
<path d="M304.348 162.075H292.813C289.353 162.075 286.547 159.269 286.547 155.807V153.141C286.547 149.679 289.353 146.873 292.813 146.873H304.348C307.808 146.873 310.614 149.679 310.614 153.141V155.807C310.614 159.269 307.808 162.075 304.348 162.075Z" fill="#1F3C88"/>
<path d="M342.351 162.075H330.817C327.356 162.075 324.55 159.269 324.55 155.807V153.141C324.55 149.679 327.356 146.873 330.817 146.873H342.351C345.811 146.873 348.617 149.679 348.617 153.141V155.807C348.617 159.269 345.811 162.075 342.351 162.075Z" fill="#1F3C88"/>
<path d="M345.629 200.292H322.465C320.815 200.292 319.479 198.955 319.479 197.308V183.429C319.479 181.78 320.815 180.443 322.465 180.443H345.629C347.276 180.443 348.612 181.78 348.612 183.429V197.308C348.612 198.955 347.276 200.292 345.629 200.292Z" fill="#1F3C88"/>
<path d="M299.147 200.292H275.983C274.335 200.292 272.997 198.955 272.997 197.308V183.429C272.997 181.78 274.335 180.443 275.983 180.443H299.147C300.794 180.443 302.13 181.78 302.13 183.429V197.308C302.13 198.955 300.794 200.292 299.147 200.292Z" fill="#1F3C88"/>
<path d="M252.665 200.292H229.501C227.853 200.292 226.517 198.955 226.517 197.308V183.429C226.517 181.78 227.853 180.443 229.501 180.443H252.665C254.315 180.443 255.651 181.78 255.651 183.429V197.308C255.651 198.955 254.315 200.292 252.665 200.292Z" fill="#1F3C88"/>
<path d="M206.183 200.292H183.02C181.371 200.292 180.035 198.955 180.035 197.308V183.429C180.035 181.78 181.371 180.443 183.02 180.443H206.183C207.833 180.443 209.169 181.78 209.169 183.429V197.308C209.169 198.955 207.833 200.292 206.183 200.292Z" fill="#1F3C88"/>
<path d="M345.629 236.185H322.465C320.815 236.185 319.479 234.849 319.479 233.201V219.323C319.479 217.675 320.815 216.339 322.465 216.339H345.629C347.276 216.339 348.612 217.675 348.612 219.323V233.201C348.612 234.849 347.276 236.185 345.629 236.185Z" fill="#1F3C88"/>
<path d="M299.147 236.185H275.983C274.335 236.185 272.997 234.849 272.997 233.201V219.323C272.997 217.675 274.335 216.339 275.983 216.339H299.147C300.794 216.339 302.13 217.675 302.13 219.323V233.201C302.13 234.849 300.794 236.185 299.147 236.185Z" fill="#D3DFFF"/>
<path d="M252.665 236.185H229.501C227.853 236.185 226.517 234.849 226.517 233.201V219.323C226.517 217.675 227.853 216.339 229.501 216.339H252.665C254.315 216.339 255.651 217.675 255.651 219.323V233.201C255.651 234.849 254.315 236.185 252.665 236.185Z" fill="#D3DFFF"/>
<path d="M206.183 236.185H183.02C181.371 236.185 180.035 234.849 180.035 233.201V219.323C180.035 217.675 181.371 216.339 183.02 216.339H206.183C207.833 216.339 209.169 217.675 209.169 219.323V233.201C209.169 234.849 207.833 236.185 206.183 236.185Z" fill="#D3DFFF"/>
<path d="M345.629 272.081H322.465C320.815 272.081 319.479 270.742 319.479 269.095V255.216C319.479 253.569 320.815 252.233 322.465 252.233H345.629C347.276 252.233 348.612 253.569 348.612 255.216V269.095C348.612 270.742 347.276 272.081 345.629 272.081Z" fill="#1F3C88"/>
<path d="M299.147 272.081H275.983C274.335 272.081 272.997 270.742 272.997 269.095V255.216C272.997 253.569 274.335 252.233 275.983 252.233H299.147C300.794 252.233 302.13 253.569 302.13 255.216V269.095C302.13 270.742 300.794 272.081 299.147 272.081Z" fill="#D3DFFF"/>
<path d="M252.665 272.081H229.501C227.853 272.081 226.517 270.742 226.517 269.095V255.216C226.517 253.569 227.853 252.233 229.501 252.233H252.665C254.315 252.233 255.651 253.569 255.651 255.216V269.095C255.651 270.742 254.315 272.081 252.665 272.081Z" fill="#D3DFFF"/>
<path d="M206.183 272.081H183.02C181.371 272.081 180.035 270.742 180.035 269.095V255.216C180.035 253.569 181.371 252.233 183.02 252.233H206.183C207.833 252.233 209.169 253.569 209.169 255.216V269.095C209.169 270.742 207.833 272.081 206.183 272.081Z" fill="#D3DFFF"/>
<path d="M345.629 309.241H322.465C320.815 309.241 319.479 307.905 319.479 306.255V292.379C319.479 290.729 320.815 289.393 322.465 289.393H345.629C347.276 289.393 348.612 290.729 348.612 292.379V306.255C348.612 307.905 347.276 309.241 345.629 309.241Z" fill="#FBC343"/>
<path d="M299.147 309.241H275.983C274.335 309.241 272.997 307.905 272.997 306.255V292.379C272.997 290.729 274.335 289.393 275.983 289.393H299.147C300.794 289.393 302.13 290.729 302.13 292.379V306.255C302.13 307.905 300.794 309.241 299.147 309.241Z" fill="#D3DFFF"/>
<path d="M252.665 309.241H229.501C227.853 309.241 226.517 307.905 226.517 306.255V292.379C226.517 290.729 227.853 289.393 229.501 289.393H252.665C254.315 289.393 255.651 290.729 255.651 292.379V306.255C255.651 307.905 254.315 309.241 252.665 309.241Z" fill="#D3DFFF"/>
<path d="M206.183 309.241H183.02C181.371 309.241 180.035 307.905 180.035 306.255V292.379C180.035 290.729 181.371 289.393 183.02 289.393H206.183C207.833 289.393 209.169 290.729 209.169 292.379V306.255C209.169 307.905 207.833 309.241 206.183 309.241Z" fill="#D3DFFF"/>
<path d="M308.217 107.981C308.217 109.89 309.371 111.231 311.16 111.231C312.551 111.231 313.634 110.548 314.175 109.629C314.292 109.442 314.362 109.207 314.362 108.877C314.362 106.262 313.397 104.263 311.232 104.263C309.465 104.263 308.217 105.814 308.217 107.981ZM307.463 116.788C307.911 116.836 308.43 116.788 309.137 116.716C310.336 116.553 311.467 116.058 312.338 115.234C313.349 114.317 314.081 112.974 314.362 111.161H314.292C313.444 112.196 312.221 112.808 310.691 112.808C307.935 112.808 306.17 110.737 306.17 108.122C306.17 105.228 308.265 102.682 311.397 102.682C314.527 102.682 316.457 105.227 316.457 109.135C316.457 112.502 315.329 114.858 313.82 116.319C312.645 117.471 311.019 118.177 309.371 118.366C308.617 118.483 307.959 118.507 307.463 118.483V116.788Z" fill="#3A6BEA"/>
<path d="M320.302 107.981C320.302 109.89 321.459 111.231 323.248 111.231C324.636 111.231 325.719 110.548 326.26 109.629C326.38 109.442 326.449 109.207 326.449 108.877C326.449 106.262 325.484 104.263 323.317 104.263C321.552 104.263 320.302 105.814 320.302 107.981ZM319.55 116.788C319.996 116.836 320.515 116.788 321.222 116.716C322.421 116.553 323.554 116.058 324.423 115.234C325.436 114.317 326.166 112.974 326.449 111.161H326.38C325.529 112.196 324.306 112.808 322.776 112.808C320.022 112.808 318.255 110.737 318.255 108.122C318.255 105.228 320.353 102.682 323.482 102.682C326.614 102.682 328.544 105.227 328.544 109.135C328.544 112.502 327.414 114.858 325.908 116.319C324.73 117.471 323.104 118.177 321.459 118.366C320.705 118.483 320.044 118.507 319.55 118.483V116.788Z" fill="#3A6BEA"/>
<path d="M425.49 346.612H541.183V261.746H425.49V346.612Z" fill="#FBC343"/>
<path d="M541.188 282.224H510.363V280.96H541.188V282.224Z" fill="#E49B31"/>
<path d="M541.188 328.677H487.56V327.411H541.188V328.677Z" fill="#E49B31"/>
<path d="M483.164 292.496C483.164 302.264 481.696 312.083 478.706 321.623C474.158 336.115 460.744 345.97 445.568 345.97H425.49V261.751H478.186C481.481 271.657 483.164 282.047 483.164 292.496Z" fill="#E49B31"/>
<path d="M377.354 331.817V340.861C377.354 344.04 374.782 346.612 371.602 346.612H276.227C273.047 346.612 270.478 344.04 270.478 340.861V331.817C270.478 328.637 273.047 326.065 276.227 326.065H371.602C374.782 326.065 377.354 328.637 377.354 331.817Z" fill="#FBC343"/>
<path d="M365.534 311.255V320.313C365.534 323.493 362.951 326.065 359.783 326.065H264.41C261.23 326.065 258.658 323.493 258.658 320.313V311.255C258.658 308.087 261.23 305.503 264.41 305.503H359.783C362.951 305.503 365.534 308.087 365.534 311.255Z" fill="#FBC343"/>
<path d="M377.354 331.817V340.861C377.354 344.04 374.782 346.612 371.602 346.612H303.21C298.484 340.786 295.596 333.272 293.86 326.065C291.86 317.804 291.341 309.962 291.226 305.503H359.783C362.951 305.503 365.534 308.087 365.534 311.255V320.313C365.534 323.493 362.951 326.065 359.783 326.065H371.602C374.782 326.065 377.354 328.637 377.354 331.817Z" fill="#E49B31"/>
<path d="M427.478 163.299L419.777 186.952L419.207 188.7L415.634 199.683L415.608 199.76L404.093 199.506L359.91 198.505L356.68 189.258L356.134 187.711L347.585 163.299C374.109 172.484 395.973 152.404 427.478 163.299Z" fill="#FBC343"/>
<path d="M419.207 188.7L415.634 199.683L404.093 199.506L359.91 198.505L356.68 189.258C371.868 188.992 398.001 188.637 419.207 188.7Z" fill="#E49B31"/>
<path d="M468.572 322.265C466.304 329.511 461.808 335.59 455.994 339.874C450.166 344.155 443.023 346.612 435.435 346.612H335.359C320.894 346.612 308.2 336.948 304.35 322.986C302.133 314.916 300.943 306.732 300.751 298.586C300.739 297.8 300.727 297.015 300.727 296.23C300.727 295.303 300.739 294.374 300.766 293.447C301.582 263.925 316.007 236.427 339.161 218.095L363.102 199.14L417.89 200.406L448.006 229.224C452.242 233.278 456.015 237.809 459.044 242.83C462.672 248.847 465.61 255.2 467.837 261.758C474.412 281.092 474.843 302.273 468.572 322.265Z" fill="#FBC343"/>
<path d="M426.956 209.367H349.455C346.249 209.367 343.627 206.745 343.627 203.538V201.058C343.627 197.851 346.249 195.229 349.455 195.229H426.956C430.16 195.229 432.784 197.851 432.784 201.058V203.538C432.784 206.745 430.16 209.367 426.956 209.367Z" fill="#ED7545"/>
<path d="M435.435 346.612H335.359C320.894 346.612 308.2 336.948 304.35 322.986C302.133 314.916 300.943 306.732 300.751 298.586C317.309 314.373 336.817 335.008 382.42 335.643C383.235 335.653 384.046 335.66 384.848 335.66C439.749 335.66 463.517 309.193 467.837 261.758C471.278 271.877 473.038 282.504 473.031 293.201C473.026 302.939 471.56 312.737 468.572 322.265C466.304 329.511 461.808 335.59 455.994 339.874C451.909 342.874 447.175 344.982 442.096 345.97C439.931 346.394 437.702 346.612 435.435 346.612Z" fill="#F2B33C"/>
<path d="M79.8765 329.089L69.7425 325.287L46.2019 345.98H74.0602L79.8765 329.089Z" fill="#303030"/>
<path d="M79.8764 329.089H102.256L99.7223 345.135L74.0602 345.98L79.8764 329.089Z" fill="#F9B384"/>
<path d="M169.706 239.137L168.883 244.75L168.388 248.131L164.842 272.443L163.486 281.728L162.283 290.013L159.128 311.602L156.937 326.575C155.29 337.839 145.637 346.186 134.249 346.186H84.7317L84.795 345.554L86.4038 329.084L86.632 326.767L121.151 320.115L125.787 286.441C123.507 276.65 124.064 267.223 125.053 260.611C125.889 254.972 127.054 251.388 127.054 251.388L142.458 246.967L169.706 239.137Z" fill="#0E0E0E"/>
<path d="M63.3134 346.315L62.2371 345.645L67.0932 337.834L68.1695 338.502L63.3134 346.315Z" fill="white"/>
<path d="M217.308 317.265C217.308 317.265 205.275 323.441 183.74 319.48L201.633 307.606L217.308 317.265Z" fill="black"/>
<path d="M210.685 325.778L191.443 326.209L191.33 322.052L191.025 310.664L208.127 311.93L208.937 316.327L210.685 325.778Z" fill="#F9B384"/>
<path d="M208.937 316.327L191.33 322.052L191.025 310.664L208.127 311.93L208.937 316.327Z" fill="#E28B6D"/>
<path d="M232.51 346.138L211.293 329.036L210.689 325.782L191.44 326.209L191.974 346.138H232.51Z" fill="#303030"/>
<path d="M211.111 339.654L210.438 338.579L218.038 333.83L218.711 334.905L211.111 339.654Z" fill="white"/>
<path d="M127.052 251.388L195.907 240.452C199.127 239.942 202.427 240.375 205.407 241.699C211.329 244.331 215.22 250.121 215.418 256.598L217.308 317.265C217.308 317.265 197.674 313.147 183.74 319.48L182.473 277.993C174.054 281.824 159.471 282.636 144.692 281.158L127.052 251.388Z" fill="#0E0E0E"/>
<path d="M162.853 246.321C162.853 246.321 157.988 256.67 147.018 263.638C143.294 265.994 139.633 267.072 136.352 267.084C131.399 267.098 127.282 264.689 125.053 260.611C125.889 254.972 127.054 251.388 127.054 251.388L142.458 246.967L158.001 246.472L162.853 246.321Z" fill="#102048"/>
<path d="M150.487 183.942V198.603H164.844V185.922L150.487 183.942Z" fill="#146BA2"/>
<path d="M164.844 176.854H150.487V183.942L164.844 185.922V176.854Z" fill="#F9B384"/>
<path d="M166.533 159.331C166.533 159.331 174.45 180.657 164.21 182.029C153.971 183.401 152.388 178.755 152.388 178.755L149.221 167.458L156.293 157.957L166.533 159.331Z" fill="#F9B384"/>
<path d="M171.389 169.57C171.389 170.796 170.396 171.787 169.172 171.787C167.948 171.787 166.955 170.796 166.955 169.57C166.955 168.346 167.948 167.353 169.172 167.353C170.396 167.353 171.389 168.346 171.389 169.57Z" fill="#F9B384"/>
<path d="M155.766 169.465C155.766 169.465 156.293 158.064 166.533 159.331C166.533 159.331 159.642 150.479 150.562 153.912C145.951 155.656 142.866 160.057 142.414 164.968C141.831 171.311 145.536 178.545 150.709 179.811C150.709 179.811 152.398 175.906 155.238 170.942L155.766 169.465Z" fill="#102048"/>
<path d="M158.214 168.931C159.07 170.753 158.502 172.822 156.946 173.552C155.389 174.285 153.434 173.404 152.578 171.581C151.722 169.762 152.29 167.693 153.846 166.96C155.403 166.23 157.358 167.111 158.214 168.931Z" fill="#F9B384"/>
<path d="M163.06 173.741C161.456 173.741 160.157 172.441 160.157 170.837C160.157 169.235 161.456 167.935 163.06 167.935C164.663 167.935 165.963 169.235 165.963 170.837C165.963 172.441 164.663 173.741 163.06 173.741Z" fill="#F39176"/>
<path d="M156.039 171.471C155.865 171.471 155.724 171.328 155.723 171.155C155.722 171.081 155.686 169.314 153.727 169.041C153.553 169.015 153.432 168.854 153.457 168.682C153.48 168.509 153.642 168.397 153.814 168.411C156.327 168.763 156.356 171.131 156.356 171.153C156.356 171.328 156.215 171.469 156.04 171.471H156.039Z" fill="#102048"/>
<path d="M204.008 163.026C204.008 163.026 215.081 163.869 221.11 170.942L207.397 174.321L204.008 163.026Z" fill="#064D7A"/>
<path d="M223.632 156.956C223.682 157.971 220.895 163.026 218.843 166.61C217.641 168.675 216.702 170.245 216.702 170.245L209.317 172.4L204.048 164.458L203.794 164.065C203.794 164.065 203.87 163.723 204.01 163.115V163.1C204.022 163.088 204.022 163.064 204.035 163.026C204.922 159.262 208.063 146.442 209.875 146.011C211.47 145.644 210.534 152.663 210.534 152.663C210.534 152.663 214.473 141.248 216.805 141.717C218.665 142.084 215.019 153.029 215.019 153.029C215.019 153.029 216.324 151.662 217.641 152.093C219.046 152.562 219.223 153.879 219.223 153.879C219.223 153.879 220.162 153.22 221.098 153.776C222.037 154.348 221.946 156.12 221.946 156.12C221.946 156.12 223.531 155.373 223.632 156.956Z" fill="#F9B384"/>
<path d="M147.132 193.455L142.116 213.066L134.338 243.471C129.056 245.813 123.482 246.675 119.061 245.94C113.931 245.093 110.345 242.102 110.586 236.82C111.22 222.568 147.132 193.455 147.132 193.455Z" fill="#146BA2"/>
<path d="M146.17 199.025L142.116 213.066L134.338 243.471C129.056 245.813 123.482 246.675 119.061 245.94C130.335 213.593 146.17 199.025 146.17 199.025Z" fill="#0B507B"/>
<path d="M177.522 243.395C167.071 244.104 134.135 271.341 126.218 253.77C126.218 253.77 127.32 188.223 161.155 189.44C167.147 189.655 172.404 193.644 174.216 199.358C175.026 201.944 175.837 205.313 176.47 209.644C177.116 214.041 177.598 219.438 177.763 226.013C177.902 231.08 177.838 236.843 177.522 243.395Z" fill="#146BA2"/>
<path d="M177.763 226.013C172.531 222.63 167.071 212.432 167.071 212.432L176.47 209.644C177.116 214.041 177.598 219.438 177.763 226.013Z" fill="#0B507B"/>
<path d="M161.158 189.44C161.158 189.44 177.406 190.579 187.223 192.481L204.008 163.026C209.135 167.128 214.832 169.774 221.11 170.942L206.42 205.557C203.179 212.13 196.587 216.39 189.263 216.639L164.105 217.501L161.158 189.44Z" fill="#146BA2"/>
<path d="M523.454 318.953L525.564 345.98H490.412L508.146 333.735L507.83 316.841L523.454 318.953Z" fill="#303030"/>
<path d="M575.285 307.445L584.784 330.567L560.717 350.836L564.201 328.033L559.451 312.83L575.285 307.445Z" fill="#303030"/>
<path d="M532.747 177.062C532.429 177.948 532.139 179.088 531.859 180.432C531.392 182.776 530.985 185.764 530.642 189.286C529.529 200.79 529.059 217.879 528.933 236.034C528.667 276.915 530.214 323.18 530.214 323.18L523.777 323.079L507.942 322.84L502.344 322.751C493.856 257.989 496.276 203.299 497.555 184.258C497.593 183.599 497.644 182.991 497.67 182.421C497.936 178.923 498.113 177.062 498.113 177.062H532.747Z" fill="#0E0E0E"/>
<path d="M581.3 313.463L578.084 314.262L561.21 318.479L550.9 321.065C550.9 321.065 538.688 275.749 528.933 236.034C524.247 216.878 520.116 199.03 518.217 188.197C517.559 184.37 517.166 181.42 517.113 179.596L531.859 180.431L550.481 181.495C550.481 181.495 550.936 184.169 551.824 188.97C555.37 208.112 565.77 261.117 581.3 313.463Z" fill="#0E0E0E"/>
<path d="M551.824 188.97C544.324 189.59 537.179 189.617 530.642 189.286C526.198 189.059 522.029 188.666 518.217 188.197C508.792 187.019 501.52 185.309 497.555 184.258C495.39 183.676 494.212 183.295 494.212 183.295L497.67 182.421L519.003 177.062H532.747C532.429 177.948 532.139 179.088 531.859 180.432L550.481 181.495C550.481 181.495 550.936 184.169 551.824 188.97Z" fill="#102048"/>
<path d="M512.722 338.035L507.76 334.235L508.531 333.229L513.493 337.032L512.722 338.035Z" fill="white"/>
<path d="M570.719 331.364L563.962 328.62L564.438 327.446L571.195 330.191L570.719 331.364Z" fill="white"/>
<path d="M514.163 107.811C514.163 107.811 492.416 110.555 486.928 135.049L493.472 164.187L490.518 183.611C490.518 183.611 520.075 186.569 550.478 181.499L541.24 131.986L514.163 107.811Z" fill="#146BA2"/>
<path d="M527.675 169.889C527.675 169.889 521.131 165.083 529.682 144.023L535.381 164.767L527.675 169.889Z" fill="#02436C"/>
<path d="M502.172 143.415L500.591 140.429L524.924 127.547C525.604 127.185 526.447 127.446 526.806 128.126L527.084 128.648C527.443 129.328 527.185 130.171 526.504 130.53L502.172 143.415Z" fill="#102048"/>
<path d="M533.164 163.026L532.517 162.671L524.12 158.134L510.045 150.522C509.793 148.824 509.983 147.38 510.995 146.391L510.299 146.114C509.159 145.632 508.323 144.605 508.096 143.377L508.069 143.223C507.703 141.995 507.88 140.855 507.993 140.221L508.323 139.792C509.147 138.715 509.513 138.169 510.579 137.321L508.778 137.422C508.778 137.422 504.346 138.638 506.41 135.788C507.83 133.811 511.007 132.139 512.82 131.304C513.579 130.949 514.506 131.1 515.088 131.708C521.182 138.03 531.897 145.606 531.897 145.606L532.012 147.15L533.051 161.378L533.164 163.026Z" fill="#F9B384"/>
<path d="M516.558 138.818L512.722 136.945C512.324 136.749 511.877 136.686 511.438 136.763L507.356 137.472L507.246 136.849L511.331 136.138C511.901 136.037 512.48 136.121 513.002 136.375L516.836 138.248L516.558 138.818Z" fill="#E28B6D"/>
<path d="M515.844 142.419L511.247 140.656C511.041 140.577 510.825 140.539 510.605 140.539H507.988V139.905H510.605C510.904 139.905 511.194 139.96 511.472 140.065L516.072 141.827L515.844 142.419Z" fill="#E28B6D"/>
<path d="M515.212 146.008L511.036 144.43C510.71 144.306 510.351 144.26 509.999 144.301L508.287 144.495L508.215 143.865L509.927 143.671C510.373 143.621 510.837 143.678 511.261 143.839L515.435 145.414L515.212 146.008Z" fill="#E28B6D"/>
<path d="M527.675 169.889C527.675 169.889 540.239 181.818 550.478 181.499L547.521 167.458L527.675 169.889Z" fill="#075181"/>
<path d="M514.163 107.811C514.163 107.811 515.71 107.651 518.289 107.739C543.647 108.606 563.071 130.427 561.833 155.771C561.321 166.246 558.6 176.646 549.844 176.854L527.675 169.889C529.766 162.047 531.327 153.915 529.682 144.023L539.974 148.932L514.163 107.811Z" fill="#146BA2"/>
<path d="M521.397 168.916L490.412 169.675L489.562 167.053L486.447 157.475L477.427 129.771L508.412 129.01L521.397 168.916Z" fill="#D3DFFF"/>
<path d="M489.562 167.053L486.447 157.475L493.02 154.157C493.02 154.157 492.97 162.722 489.562 167.053Z" fill="#9DAEDB"/>
<path d="M477.992 153.489C478.969 150.337 480.748 147.428 482.702 144.804C483.325 143.968 484.68 141.916 485.978 142.227C488.616 142.862 485.978 147.507 485.978 147.507C485.978 147.507 488.511 143.705 489.462 145.606C490.412 147.507 489.04 149.617 489.04 149.617C489.04 149.617 493.051 146.978 491.574 152.258C491.574 152.258 494.844 151.834 492.84 155.423C491.408 157.985 490.482 160.842 488.688 163.196C486.88 165.566 483.487 166.895 480.667 165.545C477.35 163.955 476.926 159.714 477.336 156.486C477.465 155.464 477.69 154.463 477.992 153.489Z" fill="#F9B384"/>
<path d="M483.681 152.653C483.638 152.653 483.595 152.643 483.554 152.627C483.394 152.555 483.32 152.368 483.392 152.208L486.401 145.4C486.471 145.24 486.658 145.168 486.818 145.237C486.979 145.309 487.05 145.496 486.979 145.656L483.971 152.464C483.918 152.584 483.803 152.653 483.681 152.653Z" fill="#E28B6D"/>
<path d="M486.77 155.186C486.725 155.186 486.679 155.177 486.636 155.158C486.476 155.083 486.409 154.894 486.483 154.736L489.332 148.64C489.409 148.479 489.598 148.415 489.754 148.486C489.912 148.561 489.981 148.75 489.907 148.908L487.055 155.004C487.002 155.119 486.888 155.186 486.77 155.186Z" fill="#E28B6D"/>
<path d="M489.143 157.245C489.095 157.245 489.045 157.234 488.997 157.207C488.844 157.128 488.782 156.937 488.865 156.781L491.32 152.109C491.401 151.954 491.59 151.896 491.746 151.978C491.902 152.057 491.962 152.248 491.88 152.404L489.423 157.075C489.368 157.183 489.258 157.245 489.143 157.245Z" fill="#E28B6D"/>
<path d="M499.384 131.775H488.3L486.399 127.975H497.483L499.384 131.775Z" fill="#102048"/>
<path d="M522.872 96.1523V108.376C522.872 112.322 519.798 115.519 516.002 115.519C512.207 115.519 509.135 112.322 509.135 108.376V96.1523H522.872Z" fill="#F9B384"/>
<path d="M516.381 97.7829C516.381 97.7829 515.667 105.335 509.135 107.521V96.7916L516.381 97.7829Z" fill="#102048"/>
<path d="M503.948 82.2164C503.948 82.2164 501.817 99.3633 508.503 101.399C515.186 103.434 521.289 97.522 521.289 97.522L520.03 83.3777L510.148 77.5638L503.948 82.2164Z" fill="#F9B384"/>
<path d="M541.98 115.543L528.794 116.417C527.125 114.58 526.181 111.999 525.564 109.083C525.008 112.083 525.446 114.576 526.919 116.544L523.346 116.786C520.181 112.047 517.52 101.557 520.662 92.5894L521.028 90.4726C521.028 90.4726 518.773 83.6435 515.507 83.3538C515.507 83.3538 504.296 90.9156 499.303 82.4798C495.58 76.1942 498.721 67.9356 507.677 74.0296C507.677 74.0296 529.198 63.932 529.148 84.6324C529.136 88.3439 530.53 91.9931 533.279 94.4762C533.506 94.7037 533.76 94.9192 534.026 95.1228C538.853 98.9468 544.059 106.573 541.98 115.543Z" fill="#102048"/>
<path d="M524.383 91.5548C523.746 93.5303 521.862 94.6892 520.171 94.1457C518.478 93.5997 517.626 91.5572 518.263 89.5818C518.9 87.6039 520.784 86.445 522.477 86.9885C524.165 87.5345 525.02 89.577 524.383 91.5548Z" fill="#F9B384"/>
<path d="M520.918 91.7656C520.743 91.7656 520.602 91.622 520.602 91.4472C520.602 90.0823 521.682 88.8731 522.961 88.8084H522.977C523.145 88.8084 523.284 88.9401 523.294 89.1101C523.303 89.2849 523.167 89.4334 522.992 89.443C522.144 89.4837 521.237 90.3002 521.237 91.4472C521.237 91.622 521.093 91.7656 520.918 91.7656Z" fill="#102048"/>
<path d="M506.297 88.7556C506.297 89.1938 505.943 89.5482 505.507 89.5482C505.069 89.5482 504.715 89.1938 504.715 88.7556C504.715 88.3175 505.069 87.9631 505.507 87.9631C505.943 87.9631 506.297 88.3175 506.297 88.7556Z" fill="#102048"/>
<path d="M511.074 88.3606C511.074 88.7964 510.72 89.1532 510.284 89.1532C509.846 89.1532 509.492 88.7964 509.492 88.3606C509.492 87.9224 509.846 87.5681 510.284 87.5681C510.72 87.5681 511.074 87.9224 511.074 88.3606Z" fill="#102048"/>
<path d="M507.432 94.0619C507.353 94.0619 507.274 94.0308 507.212 93.9709C506.568 93.3412 506.304 92.7449 506.429 92.1942C506.556 91.6387 507.049 91.313 507.346 91.167L507.274 89.6009C507.267 89.4261 507.404 89.2777 507.578 89.2705C507.751 89.2705 507.899 89.3998 507.909 89.5722L507.997 91.5908L507.775 91.6674C507.6 91.7296 507.128 91.9667 507.047 92.3379C506.958 92.7353 507.327 93.1999 507.655 93.5184C507.78 93.6405 507.782 93.8416 507.66 93.9661C507.598 94.0284 507.516 94.0619 507.432 94.0619Z" fill="#102048"/>
<path d="M508.074 96.3416C507.808 96.3416 507.643 96.3176 507.622 96.3128C507.449 96.2865 507.332 96.1236 507.358 95.9536C507.387 95.7788 507.562 95.6663 507.72 95.6879C507.736 95.6903 509.341 95.9201 510.749 94.6941C510.878 94.5768 511.082 94.5912 511.194 94.7229C511.311 94.857 511.297 95.0557 511.165 95.1707C509.997 96.1883 508.73 96.3416 508.074 96.3416Z" fill="#102048"/>
<path d="M514.223 94.0619C513.074 94.0619 512.145 93.1304 512.145 91.9835C512.145 90.8341 513.074 89.905 514.223 89.905C515.37 89.905 516.299 90.8341 516.299 91.9835C516.299 93.1304 515.37 94.0619 514.223 94.0619Z" fill="#F39176"/>
<path d="M413.083 261.317L410.819 269.671H368.505L370.801 261.317H413.083ZM391.815 310.678L369.494 283.829L369.462 276.75H380.495C383.131 276.75 385.331 276.314 387.096 275.443C388.881 274.55 390.231 273.306 391.145 271.712C392.081 270.096 392.548 268.204 392.548 266.036C392.548 262.784 391.592 260.169 389.678 258.192C387.765 256.215 384.704 255.226 380.495 255.226H368.505L370.993 245.373H380.495C385.852 245.373 390.284 246.202 393.792 247.86C397.321 249.497 399.957 251.814 401.7 254.812C403.464 257.809 404.346 261.317 404.346 265.335C404.346 268.885 403.698 272.052 402.401 274.837C401.105 277.622 399.064 279.907 396.279 281.693C393.494 283.478 389.848 284.669 385.342 285.264L384.959 285.391L405.112 310.104V310.678H391.815ZM413.147 245.373L410.819 253.855L376.509 253.728L378.837 245.373H413.147Z" fill="white"/>
<path d="M66.8668 346.686C51.04 346.686 38.2097 333.939 38.2097 318.214V279.403H95.5242V318.214C95.5242 333.939 82.6939 346.686 66.8668 346.686Z" fill="#254E8F"/>
<path d="M111.196 215.867C114.602 220.759 107.748 224.974 106.681 231.754C105.613 238.531 113.4 242.346 105.142 251.222C100.055 256.688 95.7622 249.428 91.6281 257.806C87.4939 266.184 90.7515 267.597 86.1045 270.61C78.0033 275.866 65.6095 264.251 69.7778 255.882C73.9461 247.513 82.3777 248.263 78.4768 241.376C74.5758 234.49 73.1247 231.524 79.8517 227.986C88.1776 223.607 95.5144 227.629 96.1842 221.222C96.854 214.816 106.692 209.399 111.196 215.867Z" fill="#FFCA59"/>
<path d="M75.3441 279.403L73.9274 279.124C80.563 245.715 102.562 222.32 102.783 222.089L103.831 223.079C103.612 223.309 81.8962 246.417 75.3441 279.403Z" fill="#0E0E0E"/>
<path d="M0.762783 203.158C-2.83427 210.435 7.30268 214.711 10.1427 223.62C12.9827 232.526 2.52476 235.672 15.5215 245.937C23.5262 252.26 25.2016 248.307 28.1444 262.448C30.7354 274.898 40.2649 263.051 47.3913 270.359C56.5864 279.787 70.9548 259.094 63.5936 248.679C56.2322 238.264 47.6417 240.956 51.498 230.892C55.3546 220.827 50.7549 213.244 40.9289 209.853C28.7672 205.657 24.3931 215.79 22.167 207.302C19.941 198.814 5.52022 193.531 0.762783 203.158Z" fill="#ED5A24"/>
<path d="M61.3183 280.234C46.0456 238.219 12.7934 212.227 12.4597 211.97L13.6409 210.46C13.9793 210.721 47.669 237.054 63.129 279.586L61.3183 280.234Z" fill="#0E0E0E"/>
</svg>
