<svg width="104" height="58" viewBox="0 0 104 58" fill="none" xmlns="http://www.w3.org/2000/svg">
<path d="M10.6965 0C10.5664 0.000143044 10.4417 0.0519492 10.3497 0.144044C10.2577 0.236139 10.206 0.361005 10.2058 0.491246V17.2465C10.206 17.3767 10.2577 17.5016 10.3497 17.5937C10.4417 17.6858 10.5664 17.7376 10.6965 17.7377H67.7641C67.8942 17.7376 68.0189 17.6858 68.1109 17.5937C68.2029 17.5016 68.2546 17.3767 68.2547 17.2465V0.491246C68.2546 0.361005 68.2029 0.236139 68.1109 0.144044C68.0189 0.0519492 67.8942 0.000143044 67.7641 0H10.6965Z" fill="#E6E6E6"/>
<path d="M11.4355 16.5067H67.0251V1.23083H11.4355V16.5067Z" fill="white"/>
<path d="M60.0082 13.338C59.7926 13.338 59.5858 13.4237 59.4334 13.5764C59.2809 13.729 59.1953 13.936 59.1953 14.1518C59.1953 14.3676 59.2809 14.5746 59.4334 14.7272C59.5858 14.8798 59.7926 14.9656 60.0082 14.9656H63.2591C63.4746 14.9656 63.6814 14.8798 63.8338 14.7272C63.9863 14.5746 64.0719 14.3676 64.0719 14.1518C64.0719 13.936 63.9863 13.729 63.8338 13.5764C63.6814 13.4237 63.4746 13.338 63.2591 13.338H60.0082Z" fill="#7D75FF"/>
<path d="M64.0723 11.7595H26.54V11.9736H64.0723V11.7595Z" fill="#E6E6E6"/>
<path d="M18.6947 13.6087C21.3094 13.6087 23.429 11.4867 23.429 8.869C23.429 6.25136 21.3094 4.12933 18.6947 4.12933C16.0801 4.12933 13.9604 6.25136 13.9604 8.869C13.9604 11.4867 16.0801 13.6087 18.6947 13.6087Z" fill="#7D75FF"/>
<path d="M26.5995 10.5638L26.4807 10.3857L30.3808 7.78264L33.0553 9.06794L36.9022 6.60741L36.9542 6.62956L44.5544 9.87551L50.6485 6.87852L56.566 9.28015L64.0014 2.68701L64.1432 2.84733L56.6084 9.52802L50.6567 7.11234L44.5607 10.1102L36.9221 6.84807L33.0701 9.31185L30.3988 8.02835L26.5995 10.5638Z" fill="#3F3D56"/>
<path d="M27.2352 13.4499C27.0509 13.4469 26.8729 13.5173 26.7405 13.6457C26.608 13.7741 26.5319 13.9498 26.5289 14.1344C26.5259 14.3189 26.5962 14.4971 26.7245 14.6297C26.8527 14.7623 27.0283 14.8385 27.2126 14.8415C27.2201 14.8416 27.2277 14.8416 27.2352 14.8415H34.5064C34.6888 14.8386 34.8627 14.764 34.9906 14.6338C35.1186 14.5036 35.1903 14.3283 35.1903 14.1457C35.1903 13.9631 35.1186 13.7878 34.9906 13.6576C34.8627 13.5275 34.6888 13.4529 34.5064 13.4499H27.2352Z" fill="#E6E6E6"/>
<path d="M16.7902 8.92792C16.8166 8.95431 16.8479 8.97525 16.8823 8.98954C16.9167 9.00382 16.9537 9.01117 16.9909 9.01117C17.0282 9.01118 17.0652 9.00382 17.0996 8.98954C17.134 8.97526 17.1653 8.95433 17.1917 8.92793L18.4106 7.70768V10.7167C18.4106 10.7921 18.4405 10.8643 18.4937 10.9177C18.547 10.971 18.6192 11.0009 18.6945 11.0009C18.7698 11.0009 18.842 10.971 18.8953 10.9177C18.9485 10.8643 18.9784 10.7921 18.9784 10.7167V7.70768L20.1973 8.92792C20.2237 8.95431 20.255 8.97525 20.2894 8.98954C20.3238 9.00383 20.3608 9.01118 20.3981 9.01119C20.4353 9.01119 20.4723 9.00384 20.5067 8.98955C20.5412 8.97527 20.5725 8.95433 20.5988 8.92793C20.6252 8.90154 20.6461 8.8702 20.6604 8.83571C20.6747 8.80122 20.682 8.76426 20.682 8.72693C20.682 8.6896 20.6747 8.65264 20.6604 8.61815C20.6461 8.58366 20.6252 8.55233 20.5988 8.52593L18.8953 6.82044C18.842 6.76713 18.7698 6.73718 18.6945 6.73718C18.6192 6.73718 18.547 6.76713 18.4937 6.82044L16.7902 8.52593C16.7369 8.57924 16.707 8.65154 16.707 8.72692C16.707 8.80231 16.7369 8.87461 16.7902 8.92792Z" fill="white"/>
<path d="M0.490683 26.3647C0.36059 26.3649 0.235867 26.4167 0.143877 26.5088C0.0518872 26.6009 0.000142881 26.7257 0 26.856V43.6112C0.000142881 43.7414 0.0518872 43.8663 0.143877 43.9584C0.235867 44.0505 0.36059 44.1023 0.490683 44.1024H57.5581C57.6882 44.1023 57.8129 44.0505 57.9049 43.9584C57.9969 43.8663 58.0486 43.7414 58.0488 43.6112V26.856C58.0486 26.7257 57.9969 26.6009 57.9049 26.5088C57.8129 26.4167 57.6882 26.3649 57.5581 26.3647H0.490683Z" fill="#E6E6E6"/>
<path d="M1.22974 42.8715H56.8193V27.5956H1.22974V42.8715Z" fill="white"/>
<path d="M49.8021 39.7025C49.5865 39.7025 49.3798 39.7883 49.2273 39.9409C49.0749 40.0935 48.9893 40.3005 48.9893 40.5163C48.9893 40.7321 49.0749 40.9391 49.2273 41.0917C49.3798 41.2443 49.5865 41.3301 49.8021 41.3301H53.0534C53.2689 41.3301 53.4757 41.2443 53.6281 41.0917C53.7806 40.9391 53.8662 40.7321 53.8662 40.5163C53.8662 40.3005 53.7806 40.0935 53.6281 39.9409C53.4757 39.7883 53.2689 39.7025 53.0534 39.7025H49.8021Z" fill="#7D75FF"/>
<path d="M53.8665 38.1242H16.3342V38.3384H53.8665V38.1242Z" fill="#E6E6E6"/>
<path d="M8.4889 39.9734C11.1036 39.9734 13.2232 37.8513 13.2232 35.2337C13.2232 32.616 11.1036 30.494 8.4889 30.494C5.87424 30.494 3.75464 32.616 3.75464 35.2337C3.75464 37.8513 5.87424 39.9734 8.4889 39.9734Z" fill="#7D75FF"/>
<path d="M16.3935 36.9286L16.2749 36.7504L20.175 34.1472L22.8494 35.4325L26.6964 32.9712L34.3486 36.2392L40.4425 33.2422L46.3593 35.6447L53.7947 32.6544L53.9365 32.8147L46.4026 35.8931L40.4509 33.4774L34.3549 36.4753L26.7163 33.2131L22.8645 35.6771L20.1924 34.3931L16.3935 36.9286Z" fill="#3F3D56"/>
<path d="M17.0291 39.8144C16.8467 39.8174 16.6728 39.892 16.5449 40.0221C16.4169 40.1523 16.3452 40.3276 16.3452 40.5102C16.3452 40.6928 16.4169 40.8681 16.5449 40.9983C16.6728 41.1285 16.8467 41.2031 17.0291 41.206H24.3003C24.3916 41.2075 24.4822 41.191 24.5671 41.1574C24.652 41.1238 24.7295 41.0738 24.795 41.0102C24.8606 40.9467 24.9131 40.8708 24.9494 40.7869C24.9857 40.7031 25.0051 40.6129 25.0066 40.5215C25.0081 40.4302 24.9916 40.3394 24.958 40.2544C24.9245 40.1694 24.8745 40.0919 24.811 40.0262C24.7476 39.9606 24.6718 39.9081 24.588 39.8717C24.5043 39.8354 24.4142 39.8159 24.3229 39.8144C24.3154 39.8143 24.3078 39.8143 24.3003 39.8144H17.0291Z" fill="#E6E6E6"/>
<path d="M6.58438 35.2925C6.61075 35.3189 6.64204 35.3399 6.67649 35.3542C6.71093 35.3684 6.74785 35.3758 6.78514 35.3758C6.82242 35.3758 6.85934 35.3684 6.89379 35.3542C6.92824 35.3399 6.95954 35.3189 6.9859 35.2926L8.20477 34.0723V37.0813C8.20511 37.1563 8.23505 37.2281 8.28807 37.2811C8.34108 37.3341 8.41287 37.364 8.4878 37.3643C8.56272 37.3645 8.63471 37.3351 8.68806 37.2824C8.74141 37.2298 8.77181 37.1581 8.77263 37.0831V34.0723L9.99148 35.2925C10.0446 35.346 10.1167 35.3761 10.192 35.3763C10.2673 35.3765 10.3396 35.3467 10.393 35.2936C10.4464 35.2404 10.4765 35.1682 10.4767 35.0928C10.4769 35.0174 10.4472 34.945 10.394 34.8916L10.393 34.8905L8.68947 33.1851C8.63622 33.1317 8.564 33.1018 8.4887 33.1018C8.4134 33.1018 8.34118 33.1317 8.28793 33.1851L6.58438 34.8905C6.55802 34.9169 6.5371 34.9483 6.52283 34.9828C6.50857 35.0173 6.50122 35.0542 6.50122 35.0915C6.50122 35.1289 6.50857 35.1658 6.52283 35.2003C6.5371 35.2348 6.55802 35.2661 6.58438 35.2925Z" fill="white"/>
<path d="M69.7109 54.0965C69.9899 53.8684 70.2156 53.5818 70.3721 53.2569C70.5285 52.932 70.6119 52.5767 70.6163 52.2161C70.6208 51.8554 70.5462 51.4982 70.3978 51.1695C70.2494 50.8409 70.0309 50.5488 69.7575 50.3139L71.5087 44.9558L68.5159 43.0962L66.149 50.6976C65.7852 51.1835 65.612 51.7861 65.6624 52.3912C65.7127 52.9964 65.983 53.562 66.422 53.981C66.8611 54.3999 67.4384 54.6431 68.0445 54.6644C68.6507 54.6857 69.2436 54.4836 69.7109 54.0965Z" fill="#FFB7B7"/>
<path d="M87.8871 17.72L79.2479 17.9902L73.8484 51.5054C73.8484 51.5054 85.3223 56.7759 90.1819 52.9919C95.0414 49.208 87.8871 17.72 87.8871 17.72Z" fill="#CBCBCB"/>
<path d="M80.4627 24.8825V53.7114H71.8235L71.8235 50.2891L73.4433 35.1533L73.1734 20.0174L78.8428 17.5849L80.4627 15.6929C80.4627 15.6929 83.7024 19.7471 80.4627 24.8825Z" fill="#2F2E41"/>
<path d="M84.2423 23.8599L84.7822 54.7114L95.8512 54.2114L95.0413 25.1528L96.1212 19.4768L90.7217 17.0443L88.5353 15.6929C88.5353 15.6929 83.7023 17.1613 84.2423 23.8599Z" fill="#2F2E41"/>
<path d="M75.6033 20.8281L73.1736 20.0173L69.6639 35.6937L66.6941 48.1268L71.0137 48.9376L75.0634 35.4234L75.6033 20.8281Z" fill="#2F2E41"/>
<path d="M99.9431 56.7275C99.6641 56.4993 99.4384 56.2127 99.2819 55.8879C99.1255 55.563 99.0421 55.2077 99.0377 54.8471C99.0332 54.4864 99.1078 54.1292 99.2562 53.8005C99.4046 53.4719 99.6231 53.1798 99.8964 52.9448L98.1453 47.5867L101.138 45.7272L103.505 53.3286C103.869 53.8145 104.042 54.4171 103.992 55.0222C103.941 55.6273 103.671 56.193 103.232 56.6119C102.793 57.0309 102.216 57.274 101.609 57.2953C101.003 57.3166 100.41 57.1146 99.9431 56.7275Z" fill="#FFB7B7"/>
<path d="M93.7881 20.302L96.2178 19.4912L99.7275 35.1676L102.96 50.7577L98.0982 51.4739L94.328 34.8973L93.7881 20.302Z" fill="#2F2E41"/>
<path d="M87.0388 13.4823C89.9467 11.8908 91.0154 8.24071 89.4258 5.32948C87.8362 2.41826 84.1902 1.34834 81.2823 2.93976C78.3744 4.53119 77.3057 8.18131 78.8953 11.0925C80.4849 14.0038 84.1309 15.0737 87.0388 13.4823Z" fill="#FFB7B7"/>
<path d="M82.0682 0.349933C87.8046 -1.30617 89.4329 3.45373 89.4329 3.45373C92.1979 5.29026 90.4668 7.59281 90.4668 7.59281C91.1644 7.74796 89.7694 11.8355 89.3043 11.732C89.0561 11.6768 88.4178 12.4395 87.8765 13.1629C87.6909 13.1626 87.5057 13.1805 87.3235 13.2161L88.3738 9.32623C88.3738 9.32623 84.8337 8.78325 83.7483 7.07591C82.7098 5.44249 79.2913 4.92678 78.3185 6.01785C78.261 5.70415 78.1431 5.40461 77.9715 5.13589C77.8387 4.93175 77.665 4.75742 77.4614 4.62389C78.3216 0.964351 82.0682 0.349933 82.0682 0.349933Z" fill="#2F2E41"/>
<rect x="73" y="53" width="23" height="5" fill="#1F1E2E"/>
</svg>
