<svg id="Line" height="512" viewBox="0 0 36 36" width="512" xmlns="http://www.w3.org/2000/svg"><path d="m13.411 34.999c6.298-2.859 12.105-1.559 15.14-2.936 3.035-1.378 8.617-6.016 2.28-19.978s-15.841-12.12-19.18-10.605c-15.632 7.095-9.395 38.582 1.76 33.519z" fill="#efefef"/><path d="m4.728.703h1v2h-1z" fill="#a4afc1"/><path d="m1.228 3.953h2v1h-2z" fill="#a4afc1"/><path d="m26.008 14.868-3.14 3.14c-.32.32-.839.323-1.162.006l-4.708-4.613c-.159-.156-.249-.369-.248-.592l.009-3.638c.001-.227.185-.412.412-.412l3.638-.009c.223-.001.436.089.592.248l4.613 4.708c.317.324.314.842-.006 1.162z" fill="#2fdf84"/><g fill="#f3f3f1"><path d="m6.75 18.75v8.5h2.75l2-7.386s-1.458-1.114-4.75-1.114z"/><path d="m11.13 22.696 4.37 1.804s2.75 1 4.75 1 4.5-1.5 6.5-1.5 2.5 1.25 2.5 1.25-7.25 4-10.25 4c-2.39 0-7.31-2.22-9.22-3.12z"/><path d="m11.27 20.71 9.63 1.97c.93.19 1.6 1.01 1.6 1.96v.45s-3.348 2.353-11.57-2.394z"/></g><path d="m8.5 18.86v8.39h-1.75v-8.5c.66 0 1.24.04 1.75.11z" fill="#d5dbe1"/><path d="m29.25 25.25s-7.25 4-10.25 4c-2.39 0-7.31-2.22-9.22-3.12l.58-1.48c2.19 1.01 6.46 2.85 8.64 2.85 2.21 0 6.74-2.18 8.96-3.32 1 .35 1.29 1.07 1.29 1.07z" fill="#d5dbe1"/><path d="m23.29 17.59-.42.42c-.32.32-.84.32-1.16 0l-4.71-4.61c-.16-.15-.25-.37-.25-.59l.01-3.64c0-.23.18-.41.41-.41l3.64-.01c.01 0 .03 0 .04.01h-1.68c-.23 0-.41.18-.41.41l-.01 3.64c0 .22.09.44.25.59z" fill="#00b871"/><path d="m9.5 28h-2.75c-.414 0-.75-.336-.75-.75v-9c0-.414.336-.75.75-.75 3.505 0 5.138 1.216 5.205 1.268.239.183.346.49.272.781l-2 7.886c-.084.332-.384.565-.727.565zm-2-1.5h1.417l1.716-6.768c-.521-.247-1.546-.619-3.133-.711z"/><path d="m18.75 30c-2.345 0-6.181-1.829-8.472-2.922l-.568-.27.64-1.357.574.273c2.034.97 5.82 2.775 7.826 2.775 2.072 0 6.959-2.277 9.413-3.529-.269-.239-.71-.471-1.413-.471-.884 0-2.036.364-3.149.715-1.222.387-2.485.786-3.601.786-2.108 0-4.889-1.002-5.006-1.045l.512-1.41c.026.01 2.652.955 4.494.955.884 0 2.036-.364 3.149-.715 1.222-.386 2.485-.785 3.601-.785 2.512 0 3.184 1.931 3.211 2.013.116.347-.036.727-.358.899-.313.167-7.702 4.088-10.853 4.088z"/><path d="m23.25 24.59h-1.5c0-.572-.399-1.081-.95-1.209l-9.656-2.332.353-1.458 9.65 2.33c1.236.288 2.103 1.386 2.103 2.669z"/><path d="m22.284 18.998c-.399 0-.798-.149-1.103-.448l-4.708-4.614c-.301-.295-.474-.707-.473-1.129l.009-3.639c.001-.638.522-1.159 1.161-1.16l3.637-.008h.003c.421 0 .832.172 1.126.474l4.613 4.708c.602.615.597 1.61-.012 2.218l-3.139 3.139c-.305.305-.71.459-1.114.459zm-4.776-9.488-.008 3.301 4.731 4.667c.029.028.077.028.107-.001l3.139-3.139c.029-.03.03-.078 0-.108l-4.613-4.708z"/><circle cx="19.217" cy="11.217" r=".652"/></svg>