<?xml version="1.0" encoding="UTF-8" standalone="no"?>
<!DOCTYPE svg PUBLIC "-//W3C//DTD SVG 1.1//EN" "http://www.w3.org/Graphics/SVG/1.1/DTD/svg11.dtd">
<svg width="100%" height="100%" viewBox="0 0 1442 369" version="1.1" xmlns="http://www.w3.org/2000/svg" xmlns:xlink="http://www.w3.org/1999/xlink" xml:space="preserve" xmlns:serif="http://www.serif.com/" style="fill-rule:evenodd;clip-rule:evenodd;stroke-miterlimit:2;">
    <g transform="matrix(1,0,0,1,-3435,950.044)">
        <g transform="matrix(2.21935,0,0,1.0351,1934.24,-867.353)">
            <g transform="matrix(1.40776,0,0,3.01837,676.615,-81.2292)">
                <path d="M0,117.579L460.9,117.579" style="fill:none;stroke:rgb(156,156,156);stroke-width:0.26px;"/>
            </g>
            <g transform="matrix(1.40776,0,0,3.01837,676.615,-81.2292)">
                <path d="M62.262,117.66L62.262,96.932L73.305,96.932" style="fill:none;stroke:rgb(156,156,156);stroke-width:0.26px;"/>
            </g>
            <g transform="matrix(1.40776,0,0,3.01837,676.615,-81.2292)">
                <path d="M63.046,95.756L63.046,93.904L54.96,93.904L55.017,107.597" style="fill:none;stroke:rgb(156,156,156);stroke-width:0.26px;"/>
            </g>
            <g transform="matrix(1.40776,0,0,3.01837,676.615,-81.2292)">
                <path d="M64.997,94.939L64.997,88.264L70.097,88.264L70.097,86.314L74.822,86.314L74.822,93.027" style="fill:none;stroke:rgb(156,156,156);stroke-width:0.26px;"/>
            </g>
            <g transform="matrix(1.40776,0,0,3.01837,676.615,-81.2292)">
                <path d="M71.672,117.66L71.672,104.315L75.009,104.315L75.009,94.415L77.484,94.415L77.484,90.458L88.964,90.458" style="fill:none;stroke:rgb(156,156,156);stroke-width:0.26px;"/>
            </g>
            <g transform="matrix(1.40776,0,0,3.01837,676.615,-81.2292)">
                <path d="M87.802,84.758L87.802,86.371L89.114,86.371L89.114,96.496L90.839,96.496L90.839,105.383L93.014,105.383L93.014,117.66" style="fill:none;stroke:rgb(156,156,156);stroke-width:0.26px;"/>
            </g>
            <g transform="matrix(1.40776,0,0,3.01837,676.615,-81.2292)">
                <path d="M89.19,98.333L77.339,98.333L77.339,117.66" style="fill:none;stroke:rgb(156,156,156);stroke-width:0.26px;"/>
            </g>
            <g transform="matrix(1.40776,0,0,3.01837,676.615,-81.2292)">
                <path d="M89.19,101.558L79.852,101.558" style="fill:none;stroke:rgb(156,156,156);stroke-width:0.26px;"/>
            </g>
            <g transform="matrix(1.40776,0,0,3.01837,676.615,-81.2292)">
                <path d="M89.19,103.977L79.852,103.977" style="fill:none;stroke:rgb(156,156,156);stroke-width:0.26px;"/>
            </g>
            <g transform="matrix(1.40776,0,0,3.01837,676.615,-81.2292)">
                <path d="M84.016,90.458L84.016,85.021L85.253,85.021L85.253,82.921L97.741,82.921L97.741,85.958L99.503,85.958L99.503,92.895" style="fill:none;stroke:rgb(156,156,156);stroke-width:0.26px;"/>
            </g>
            <g transform="matrix(1.40776,0,0,3.01837,676.615,-81.2292)">
                <path d="M90.841,106.733L83.828,106.733L83.828,117.66" style="fill:none;stroke:rgb(156,156,156);stroke-width:0.26px;"/>
            </g>
            <g transform="matrix(1.40776,0,0,3.01837,676.615,-81.2292)">
                <path d="M107.941,92.895L98.717,92.895L98.717,104.033" style="fill:none;stroke:rgb(156,156,156);stroke-width:0.26px;"/>
            </g>
            <g transform="matrix(1.40776,0,0,3.01837,676.615,-81.2292)">
                <path d="M98.842,117.66L98.842,105.349L103.92,105.349L103.92,117.66" style="fill:none;stroke:rgb(156,156,156);stroke-width:0.26px;"/>
            </g>
            <g transform="matrix(1.40776,0,0,3.01837,676.615,-81.2292)">
                <path d="M92.819,85.124L95.256,85.124L95.256,103.452L92.678,103.452L92.819,85.124Z" style="fill:none;stroke:rgb(156,156,156);stroke-width:0.26px;"/>
            </g>
            <g transform="matrix(1.40776,0,0,3.01837,676.615,-81.2292)">
                <path d="M101.163,95.624L107.35,95.624" style="fill:none;stroke:rgb(156,156,156);stroke-width:0.26px;"/>
            </g>
            <g transform="matrix(1.40776,0,0,3.01837,676.615,-81.2292)">
                <path d="M101.116,98.108L107.303,98.108" style="fill:none;stroke:rgb(156,156,156);stroke-width:0.26px;"/>
            </g>
            <g transform="matrix(1.40776,0,0,3.01837,676.615,-81.2292)">
                <path d="M101.116,100.687L107.303,100.687" style="fill:none;stroke:rgb(156,156,156);stroke-width:0.26px;"/>
            </g>
            <g transform="matrix(1.40776,0,0,3.01837,676.615,-81.2292)">
                <path d="M101.116,103.124L107.303,103.124" style="fill:none;stroke:rgb(156,156,156);stroke-width:0.26px;"/>
            </g>
            <g transform="matrix(1.40776,0,0,3.01837,676.615,-81.2292)">
                <path d="M104.912,106.546L111.1,106.546" style="fill:none;stroke:rgb(156,156,156);stroke-width:0.26px;"/>
            </g>
            <g transform="matrix(1.40776,0,0,3.01837,676.615,-81.2292)">
                <path d="M104.912,108.984L111.1,108.984" style="fill:none;stroke:rgb(156,156,156);stroke-width:0.26px;"/>
            </g>
            <g transform="matrix(1.40776,0,0,3.01837,676.615,-81.2292)">
                <path d="M115.648,81.654L112.601,81.654L112.601,78.608L103.742,78.608L103.742,80.248L101.632,80.248L101.632,91.17L110.117,91.17L110.117,97.779L112.273,97.779L112.273,105.045L115.742,105.045L115.742,108.936L117.242,108.936L117.242,117.66" style="fill:none;stroke:rgb(156,156,156);stroke-width:0.26px;"/>
            </g>
            <g transform="matrix(1.40776,0,0,3.01837,676.615,-81.2292)">
                <path d="M104.257,83.67L112.695,83.67" style="fill:none;stroke:rgb(156,156,156);stroke-width:0.26px;"/>
            </g>
            <g transform="matrix(1.40776,0,0,3.01837,676.615,-81.2292)">
                <path d="M104.257,87.538L112.695,87.538" style="fill:none;stroke:rgb(156,156,156);stroke-width:0.26px;"/>
            </g>
            <g transform="matrix(1.40776,0,0,3.01837,676.615,-81.2292)">
                <path d="M115.742,105.045L115.742,62.653L128.555,62.653L128.555,91.657" style="fill:none;stroke:rgb(156,156,156);stroke-width:0.26px;"/>
            </g>
            <g transform="matrix(1.40776,0,0,3.01837,676.615,-81.2292)">
                <path d="M125.681,91.461L125.681,62.653" style="fill:none;stroke:rgb(156,156,156);stroke-width:0.26px;"/>
            </g>
            <g transform="matrix(1.40776,0,0,3.01837,676.615,-81.2292)">
                <path d="M139.038,102.366L139.038,91.679L119.663,91.679L119.663,117.66" style="fill:none;stroke:rgb(156,156,156);stroke-width:0.26px;"/>
            </g>
            <g transform="matrix(1.40776,0,0,3.01837,676.615,-81.2292)">
                <path d="M141.539,103.866L136.351,103.866L136.351,111.304L130.664,111.304L130.664,117.66" style="fill:none;stroke:rgb(156,156,156);stroke-width:0.26px;"/>
            </g>
            <g transform="matrix(1.40776,0,0,3.01837,676.615,-81.2292)">
                <path d="M122.351,93.054L122.351,117.66" style="fill:none;stroke:rgb(156,156,156);stroke-width:0.26px;"/>
            </g>
            <g transform="matrix(1.40776,0,0,3.01837,676.615,-81.2292)">
                <path d="M126.101,93.054L126.101,117.66" style="fill:none;stroke:rgb(156,156,156);stroke-width:0.26px;"/>
            </g>
            <g transform="matrix(1.40776,0,0,3.01837,676.615,-81.2292)">
                <path d="M130.039,93.054L130.039,108.919" style="fill:none;stroke:rgb(156,156,156);stroke-width:0.26px;"/>
            </g>
            <g transform="matrix(1.40776,0,0,3.01837,676.615,-81.2292)">
                <path d="M134.101,93.054L134.101,108.919" style="fill:none;stroke:rgb(156,156,156);stroke-width:0.26px;"/>
            </g>
            <g transform="matrix(1.40776,0,0,3.01837,676.615,-81.2292)">
                <path d="M134.351,89.992L134.351,77.742L136.163,77.742L136.163,72.929L151.038,72.929L151.038,76.867L151.913,76.867L151.913,88.805" style="fill:none;stroke:rgb(156,156,156);stroke-width:0.26px;"/>
            </g>
            <g transform="matrix(1.40776,0,0,3.01837,676.615,-81.2292)">
                <path d="M137.038,71.273L149.475,71.273C149.475,71.273 147.726,67.055 143.569,66.898C143.569,66.898 139.194,66.273 137.038,71.273Z" style="fill:none;stroke:rgb(156,156,156);stroke-width:0.26px;"/>
            </g>
            <g transform="matrix(1.40776,0,0,3.01837,676.615,-81.2292)">
                <path d="M139.663,76.961L139.663,74.836L149.538,74.836L149.538,76.931L139.663,76.961Z" style="fill:none;stroke:rgb(156,156,156);stroke-width:0.26px;"/>
            </g>
            <g transform="matrix(1.40776,0,0,3.01837,676.615,-81.2292)">
                <path d="M139.663,80.726L139.663,78.601L149.538,78.601L149.538,80.697L139.663,80.726Z" style="fill:none;stroke:rgb(156,156,156);stroke-width:0.26px;"/>
            </g>
            <g transform="matrix(1.40776,0,0,3.01837,676.615,-81.2292)">
                <path d="M139.663,84.758L139.663,82.633L149.538,82.633L149.538,84.728L139.663,84.758Z" style="fill:none;stroke:rgb(156,156,156);stroke-width:0.26px;"/>
            </g>
            <g transform="matrix(1.40776,0,0,3.01837,676.615,-81.2292)">
                <path d="M139.663,88.851L139.663,86.727L149.538,86.727L149.538,88.822L139.663,88.851Z" style="fill:none;stroke:rgb(156,156,156);stroke-width:0.26px;"/>
            </g>
            <g transform="matrix(1.40776,0,0,3.01837,676.615,-81.2292)">
                <path d="M141.882,117.66L141.882,92.882L144.882,92.882L144.882,90.57L151.757,90.57L151.757,92.507L154.508,92.507" style="fill:none;stroke:rgb(156,156,156);stroke-width:0.26px;"/>
            </g>
            <g transform="matrix(1.40776,0,0,3.01837,676.615,-81.2292)">
                <path d="M148.507,92.695L148.507,117.66" style="fill:none;stroke:rgb(156,156,156);stroke-width:0.26px;"/>
            </g>
            <g transform="matrix(1.40776,0,0,3.01837,676.615,-81.2292)">
                <path d="M151.883,117.66L151.883,94.695L154.508,94.695L154.508,90.445L156.008,90.445L156.008,94.07L157.446,94.07L157.446,97.32L161.883,97.32L161.883,107.695" style="fill:none;stroke:rgb(156,156,156);stroke-width:0.26px;"/>
            </g>
            <g transform="matrix(1.40776,0,0,3.01837,676.615,-81.2292)">
                <rect x="157.602" y="99.32" width="2.125" height="9.625" style="fill:none;stroke:rgb(156,156,156);stroke-width:0.26px;"/>
            </g>
            <g transform="matrix(1.40776,0,0,3.01837,676.615,-81.2292)">
                <rect x="153.727" y="110.383" width="6.125" height="1.938" style="fill:none;stroke:rgb(156,156,156);stroke-width:0.26px;"/>
            </g>
            <g transform="matrix(1.40776,0,0,3.01837,676.615,-81.2292)">
                <rect x="153.727" y="113.352" width="6.125" height="1.938" style="fill:none;stroke:rgb(156,156,156);stroke-width:0.26px;"/>
            </g>
            <g transform="matrix(1.40776,0,0,3.01837,676.615,-81.2292)">
                <path d="M157.478,92.944L157.478,84.663L159.197,84.663L159.197,82.475L161.853,82.475" style="fill:none;stroke:rgb(156,156,156);stroke-width:0.26px;"/>
            </g>
            <g transform="matrix(1.40776,0,0,3.01837,676.615,-81.2292)">
                <path d="M162.04,117.975L162.04,109.35L165.228,109.35L165.228,91.163L166.79,91.163L166.79,77.163L168.915,74.538L179.79,74.538L181.478,77.288L181.478,91.975L183.353,91.975L183.353,98.85" style="fill:none;stroke:rgb(156,156,156);stroke-width:0.26px;"/>
            </g>
            <g transform="matrix(1.40776,0,0,3.01837,676.615,-81.2292)">
                <path d="M167.29,117.66L167.29,109.82L180.04,109.82L180.04,99.007L188.134,99.007L188.134,110.101L195.165,110.101L195.165,117.66" style="fill:none;stroke:rgb(156,156,156);stroke-width:0.26px;"/>
            </g>
            <g transform="matrix(1.40776,0,0,3.01837,676.615,-81.2292)">
                <path d="M182.658,110.147L182.666,100.85L186.853,100.85L186.853,110.147L182.658,110.147Z" style="fill:none;stroke:rgb(156,156,156);stroke-width:0.26px;"/>
            </g>
            <g transform="matrix(1.40776,0,0,3.01837,676.615,-81.2292)">
                <path d="M169.331,111.304L182.589,111.315L182.589,112.417L169.339,112.417L169.331,111.304Z" style="fill:none;stroke:rgb(156,156,156);stroke-width:0.26px;"/>
            </g>
            <g transform="matrix(1.40776,0,0,3.01837,676.615,-81.2292)">
                <path d="M169.331,113.326L182.589,113.337L182.589,114.44L169.339,114.44L169.331,113.326Z" style="fill:none;stroke:rgb(156,156,156);stroke-width:0.26px;"/>
            </g>
            <g transform="matrix(1.40776,0,0,3.01837,676.615,-81.2292)">
                <path d="M169.331,115.348L182.589,115.359L182.589,116.462L169.339,116.462L169.331,115.348Z" style="fill:none;stroke:rgb(156,156,156);stroke-width:0.26px;"/>
            </g>
            <g transform="matrix(1.40776,0,0,3.01837,676.615,-81.2292)">
                <path d="M186.404,111.185L193.501,111.196L193.501,112.299L186.408,112.299L186.404,111.185Z" style="fill:none;stroke:rgb(156,156,156);stroke-width:0.26px;"/>
            </g>
            <g transform="matrix(1.40776,0,0,3.01837,676.615,-81.2292)">
                <path d="M186.404,113.207L193.501,113.219L193.501,114.321L186.408,114.321L186.404,113.207Z" style="fill:none;stroke:rgb(156,156,156);stroke-width:0.26px;"/>
            </g>
            <g transform="matrix(1.40776,0,0,3.01837,676.615,-81.2292)">
                <path d="M186.404,115.229L193.501,115.24L193.501,116.343L186.408,116.343L186.404,115.229Z" style="fill:none;stroke:rgb(156,156,156);stroke-width:0.26px;"/>
            </g>
            <g transform="matrix(1.40776,0,0,3.01837,676.615,-81.2292)">
                <path d="M167.342,108.514L167.342,92.857L174.749,92.857L174.749,108.389" style="fill:none;stroke:rgb(156,156,156);stroke-width:0.26px;"/>
            </g>
            <g transform="matrix(1.40776,0,0,3.01837,676.615,-81.2292)">
                <path d="M169.108,100.64L172.64,100.651L172.64,101.754L169.11,101.754L169.108,100.64Z" style="fill:none;stroke:rgb(156,156,156);stroke-width:0.26px;"/>
            </g>
            <g transform="matrix(1.40776,0,0,3.01837,676.615,-81.2292)">
                <path d="M169.108,103.559L172.64,103.571L172.64,104.673L169.11,104.673L169.108,103.559Z" style="fill:none;stroke:rgb(156,156,156);stroke-width:0.26px;"/>
            </g>
            <g transform="matrix(1.40776,0,0,3.01837,676.615,-81.2292)">
                <path d="M169.108,106.479L172.64,106.49L172.64,107.593L169.11,107.593L169.108,106.479Z" style="fill:none;stroke:rgb(156,156,156);stroke-width:0.26px;"/>
            </g>
            <g transform="matrix(1.40776,0,0,3.01837,676.615,-81.2292)">
                <path d="M169.108,97.72L172.64,97.731L172.64,98.834L169.11,98.834L169.108,97.72Z" style="fill:none;stroke:rgb(156,156,156);stroke-width:0.26px;"/>
            </g>
            <g transform="matrix(1.40776,0,0,3.01837,676.615,-81.2292)">
                <path d="M169.108,94.8L172.64,94.811L172.64,95.914L169.11,95.914L169.108,94.8Z" style="fill:none;stroke:rgb(156,156,156);stroke-width:0.26px;"/>
            </g>
            <g transform="matrix(1.40776,0,0,3.01837,676.615,-81.2292)">
                <path d="M168.976,73.615L179.251,73.615C179.251,73.615 177.805,70.13 174.372,70C174.372,70 170.757,69.484 168.976,73.615Z" style="fill:none;stroke:rgb(156,156,156);stroke-width:0.26px;stroke-linejoin:round;"/>
            </g>
            <g transform="matrix(1.40776,0,0,3.01837,676.615,-81.2292)">
                <path d="M178.721,66.73L188.908,66.73L188.908,97.48" style="fill:none;stroke:rgb(156,156,156);stroke-width:0.26px;"/>
            </g>
            <g transform="matrix(1.40776,0,0,3.01837,676.615,-81.2292)">
                <rect x="184.221" y="88.285" width="3.149" height="2.313" style="fill:none;stroke:rgb(156,156,156);stroke-width:0.26px;"/>
            </g>
            <g transform="matrix(1.40776,0,0,3.01837,676.615,-81.2292)">
                <rect x="184.221" y="84.313" width="3.149" height="2.313" style="fill:none;stroke:rgb(156,156,156);stroke-width:0.26px;"/>
            </g>
            <g transform="matrix(1.40776,0,0,3.01837,676.615,-81.2292)">
                <rect x="184.221" y="80.341" width="3.149" height="2.313" style="fill:none;stroke:rgb(156,156,156);stroke-width:0.26px;"/>
            </g>
            <g transform="matrix(1.40776,0,0,3.01837,676.615,-81.2292)">
                <rect x="184.221" y="76.369" width="3.149" height="2.313" style="fill:none;stroke:rgb(156,156,156);stroke-width:0.26px;"/>
            </g>
            <g transform="matrix(1.40776,0,0,3.01837,676.615,-81.2292)">
                <rect x="184.221" y="72.397" width="3.149" height="2.313" style="fill:none;stroke:rgb(156,156,156);stroke-width:0.26px;"/>
            </g>
            <g transform="matrix(1.40776,0,0,3.01837,676.615,-81.2292)">
                <rect x="184.221" y="68.425" width="3.149" height="2.312" style="fill:none;stroke:rgb(156,156,156);stroke-width:0.26px;"/>
            </g>
            <g transform="matrix(1.40776,0,0,3.01837,676.615,-81.2292)">
                <path d="M178.523,70.173L178.523,33.198L163.335,33.198L163.335,107.736" style="fill:none;stroke:rgb(156,156,156);stroke-width:0.26px;"/>
            </g>
            <g transform="matrix(1.40776,0,0,3.01837,676.615,-81.2292)">
                <path d="M168.897,77.829L171.366,77.829L171.366,90.642L168.982,90.604L168.897,77.829Z" style="fill:none;stroke:rgb(156,156,156);stroke-width:0.26px;"/>
            </g>
            <g transform="matrix(1.40776,0,0,3.01837,676.615,-81.2292)">
                <path d="M176.406,69.303L170.929,33.198L166.806,74.178" style="fill:none;stroke:rgb(156,156,156);stroke-width:0.26px;stroke-linejoin:round;"/>
            </g>
            <g transform="matrix(1.40776,0,0,3.01837,676.615,-81.2292)">
                <path d="M176.023,33.198L165.899,33.198L165.899,31.023L170.248,31.023L170.698,0.873L171.898,31.173L176.098,31.173L176.023,33.198Z" style="fill:none;stroke:rgb(156,156,156);stroke-width:0.26px;stroke-linejoin:round;"/>
            </g>
            <g transform="matrix(1.40776,0,0,3.01837,676.615,-81.2292)">
                <path d="M189.812,100.587L193.168,100.587L193.168,103.643L197.181,103.643" style="fill:none;stroke:rgb(156,156,156);stroke-width:0.26px;"/>
            </g>
            <g transform="matrix(1.40776,0,0,3.01837,676.615,-81.2292)">
                <path d="M199.918,117.66L199.918,113.13L196.993,113.13L196.993,86.692L198.401,85.88L198.401,80.786L204.231,80.786L204.231,85.568L205.446,86.269L205.446,105.93L208.243,105.93L208.243,110.13L211.506,110.13L211.506,117.66" style="fill:none;stroke:rgb(156,156,156);stroke-width:0.26px;"/>
            </g>
            <g transform="matrix(1.40776,0,0,3.01837,676.615,-81.2292)">
                <path d="M198.846,93.376L202.378,93.387L202.378,94.49L198.848,94.49L198.846,93.376Z" style="fill:none;stroke:rgb(156,156,156);stroke-width:0.26px;"/>
            </g>
            <g transform="matrix(1.40776,0,0,3.01837,676.615,-81.2292)">
                <path d="M200.384,96.447L203.915,96.458L203.915,97.561L200.386,97.561L200.384,96.447Z" style="fill:none;stroke:rgb(156,156,156);stroke-width:0.26px;"/>
            </g>
            <g transform="matrix(1.40776,0,0,3.01837,676.615,-81.2292)">
                <path d="M200.384,99.519L203.915,99.53L203.915,100.632L200.386,100.632L200.384,99.519Z" style="fill:none;stroke:rgb(156,156,156);stroke-width:0.26px;"/>
            </g>
            <g transform="matrix(1.40776,0,0,3.01837,676.615,-81.2292)">
                <path d="M198.846,90.305L202.378,90.316L202.378,91.418L198.848,91.418L198.846,90.305Z" style="fill:none;stroke:rgb(156,156,156);stroke-width:0.26px;"/>
            </g>
            <g transform="matrix(1.40776,0,0,3.01837,676.615,-81.2292)">
                <path d="M198.846,87.233L202.378,87.244L202.378,88.347L198.848,88.347L198.846,87.233Z" style="fill:none;stroke:rgb(156,156,156);stroke-width:0.26px;"/>
            </g>
            <g transform="matrix(1.40776,0,0,3.01837,676.615,-81.2292)">
                <path d="M198.846,102.59L202.378,102.601L202.378,103.704L198.848,103.704L198.846,102.59Z" style="fill:none;stroke:rgb(156,156,156);stroke-width:0.26px;"/>
            </g>
            <g transform="matrix(1.40776,0,0,3.01837,676.615,-81.2292)">
                <path d="M198.846,105.661L202.378,105.672L202.378,106.775L198.848,106.775L198.846,105.661Z" style="fill:none;stroke:rgb(156,156,156);stroke-width:0.26px;"/>
            </g>
            <g transform="matrix(1.40776,0,0,3.01837,676.615,-81.2292)">
                <path d="M207.194,86.168L217.356,86.168L217.356,94.343L212.144,94.343L212.144,108.218" style="fill:none;stroke:rgb(156,156,156);stroke-width:0.26px;"/>
            </g>
            <g transform="matrix(1.40776,0,0,3.01837,676.615,-81.2292)">
                <path d="M208.319,87.705L210.719,90.105L210.719,108.256" style="fill:none;stroke:rgb(156,156,156);stroke-width:0.26px;"/>
            </g>
            <g transform="matrix(1.40776,0,0,3.01837,676.615,-81.2292)">
                <rect x="213.832" y="96.181" width="2.138" height="13.125" style="fill:none;stroke:rgb(156,156,156);stroke-width:0.26px;"/>
            </g>
            <g transform="matrix(1.40776,0,0,3.01837,676.615,-81.2292)">
                <path d="M213.12,117.66L213.12,110.956L219.983,110.956L219.983,106.606L225.758,106.606L225.758,117.66" style="fill:none;stroke:rgb(156,156,156);stroke-width:0.26px;"/>
            </g>
            <g transform="matrix(1.40776,0,0,3.01837,676.615,-81.2292)">
                <path d="M215.009,112.605L223.995,112.616L223.995,113.719L215.014,113.719L215.009,112.605Z" style="fill:none;stroke:rgb(156,156,156);stroke-width:0.26px;"/>
            </g>
            <g transform="matrix(1.40776,0,0,3.01837,676.615,-81.2292)">
                <path d="M215.009,115.677L223.995,115.688L223.995,116.79L215.014,116.79L215.009,115.677Z" style="fill:none;stroke:rgb(156,156,156);stroke-width:0.26px;"/>
            </g>
            <g transform="matrix(1.40776,0,0,3.01837,676.615,-81.2292)">
                <path d="M218.483,109.642L218.483,89.167L220.883,89.167L220.883,82.717L228.083,82.717L228.083,87.704L230.258,87.704L230.258,106.529" style="fill:none;stroke:rgb(156,156,156);stroke-width:0.26px;"/>
            </g>
            <g transform="matrix(1.40776,0,0,3.01837,676.615,-81.2292)">
                <path d="M224.497,89.328L228.028,89.339L228.028,90.442L224.499,90.442L224.497,89.328Z" style="fill:none;stroke:rgb(156,156,156);stroke-width:0.26px;"/>
            </g>
            <g transform="matrix(1.40776,0,0,3.01837,676.615,-81.2292)">
                <path d="M224.497,92.014L228.028,92.025L228.028,93.127L224.499,93.127L224.497,92.014Z" style="fill:none;stroke:rgb(156,156,156);stroke-width:0.26px;"/>
            </g>
            <g transform="matrix(1.40776,0,0,3.01837,676.615,-81.2292)">
                <path d="M224.497,94.699L228.028,94.71L228.028,95.812L224.499,95.812L224.497,94.699Z" style="fill:none;stroke:rgb(156,156,156);stroke-width:0.26px;"/>
            </g>
            <g transform="matrix(1.40776,0,0,3.01837,676.615,-81.2292)">
                <path d="M224.497,97.384L228.028,97.395L228.028,98.497L224.499,98.497L224.497,97.384Z" style="fill:none;stroke:rgb(156,156,156);stroke-width:0.26px;"/>
            </g>
            <g transform="matrix(1.40776,0,0,3.01837,676.615,-81.2292)">
                <path d="M224.497,100.069L228.028,100.08L228.028,101.182L224.499,101.182L224.497,100.069Z" style="fill:none;stroke:rgb(156,156,156);stroke-width:0.26px;"/>
            </g>
            <g transform="matrix(1.40776,0,0,3.01837,676.615,-81.2292)">
                <path d="M224.497,102.754L228.028,102.765L228.028,103.867L224.499,103.867L224.497,102.754Z" style="fill:none;stroke:rgb(156,156,156);stroke-width:0.26px;"/>
            </g>
            <g transform="matrix(1.40776,0,0,3.01837,676.615,-81.2292)">
                <path d="M230.258,86.129L230.258,83.692L240.008,83.692L240.008,106.605" style="fill:none;stroke:rgb(156,156,156);stroke-width:0.26px;"/>
            </g>
            <g transform="matrix(1.40776,0,0,3.01837,676.615,-81.2292)">
                <path d="M228.083,117.66L228.083,106.529L242.258,106.529L242.258,117.66" style="fill:none;stroke:rgb(156,156,156);stroke-width:0.26px;"/>
            </g>
            <g transform="matrix(1.40776,0,0,3.01837,676.615,-81.2292)">
                <path d="M231.753,88.653L236.97,88.664L236.97,89.767L231.756,89.767L231.753,88.653Z" style="fill:none;stroke:rgb(156,156,156);stroke-width:0.26px;"/>
            </g>
            <g transform="matrix(1.40776,0,0,3.01837,676.615,-81.2292)">
                <path d="M231.753,94.01L236.97,94.021L236.97,95.124L231.756,95.124L231.753,94.01Z" style="fill:none;stroke:rgb(156,156,156);stroke-width:0.26px;"/>
            </g>
            <g transform="matrix(1.40776,0,0,3.01837,676.615,-81.2292)">
                <path d="M231.753,99.298L236.97,99.309L236.97,100.411L231.756,100.411L231.753,99.298Z" style="fill:none;stroke:rgb(156,156,156);stroke-width:0.26px;"/>
            </g>
            <g transform="matrix(1.40776,0,0,3.01837,676.615,-81.2292)">
                <path d="M229.672,108.593L238.658,108.604L238.658,109.707L229.677,109.707L229.672,108.593Z" style="fill:none;stroke:rgb(156,156,156);stroke-width:0.26px;"/>
            </g>
            <g transform="matrix(1.40776,0,0,3.01837,676.615,-81.2292)">
                <path d="M229.672,111.664L238.658,111.675L238.658,112.778L229.677,112.778L229.672,111.664Z" style="fill:none;stroke:rgb(156,156,156);stroke-width:0.26px;"/>
            </g>
            <g transform="matrix(1.40776,0,0,3.01837,676.615,-81.2292)">
                <path d="M221.421,81.375L221.421,65.521L227.869,65.521" style="fill:none;stroke:rgb(156,156,156);stroke-width:0.26px;"/>
            </g>
            <g transform="matrix(1.40776,0,0,3.01837,676.615,-81.2292)">
                <path d="M227.751,68.124L227.751,45.821L241.298,45.821L241.298,77.352" style="fill:none;stroke:rgb(156,156,156);stroke-width:0.26px;"/>
            </g>
            <g transform="matrix(1.40776,0,0,3.01837,676.615,-81.2292)">
                <path d="M235.323,47.537L235.323,67.473" style="fill:none;stroke:rgb(156,156,156);stroke-width:0.26px;"/>
            </g>
            <g transform="matrix(1.40776,0,0,3.01837,676.615,-81.2292)">
                <path d="M225.093,81.416L225.093,69.103L234.656,69.103L234.656,81.666" style="fill:none;stroke:rgb(156,156,156);stroke-width:0.26px;"/>
            </g>
            <g transform="matrix(1.40776,0,0,3.01837,676.615,-81.2292)">
                <path d="M229.624,73.79L232.686,73.79L232.686,81.329L229.637,81.328L229.624,73.79Z" style="fill:none;stroke:rgb(156,156,156);stroke-width:0.26px;"/>
            </g>
            <g transform="matrix(1.40776,0,0,3.01837,676.615,-81.2292)">
                <path d="M237.318,81.932L237.318,77.245L247.037,77.245L247.037,79.839" style="fill:none;stroke:rgb(156,156,156);stroke-width:0.26px;"/>
            </g>
            <g transform="matrix(1.40776,0,0,3.01837,676.615,-81.2292)">
                <path d="M244.256,75.776L244.256,72.713L245.881,65.745L247.881,72.713L247.881,75.776" style="fill:none;stroke:rgb(156,156,156);stroke-width:0.26px;"/>
            </g>
            <g transform="matrix(1.40776,0,0,3.01837,676.615,-81.2292)">
                <path d="M243.003,106.902L244.398,106.902L244.398,81.347L252.169,81.347L252.169,117.66" style="fill:none;stroke:rgb(156,156,156);stroke-width:0.26px;"/>
            </g>
            <g transform="matrix(1.40776,0,0,3.01837,676.615,-81.2292)">
                <path d="M249.323,79.783L249.323,63.588L267.768,63.588L267.768,82.009" style="fill:none;stroke:rgb(156,156,156);stroke-width:0.26px;"/>
            </g>
            <g transform="matrix(1.40776,0,0,3.01837,676.615,-81.2292)">
                <path d="M251.376,65.04L251.376,79.689" style="fill:none;stroke:rgb(156,156,156);stroke-width:0.26px;"/>
            </g>
            <g transform="matrix(1.40776,0,0,3.01837,676.615,-81.2292)">
                <path d="M257,83.813L257,71.625L261.196,71.625L261.196,75.727L263.493,75.727L263.493,81.985" style="fill:none;stroke:rgb(156,156,156);stroke-width:0.26px;"/>
            </g>
            <g transform="matrix(1.40776,0,0,3.01837,676.615,-81.2292)">
                <path d="M249.173,82.945L249.173,117.66" style="fill:none;stroke:rgb(156,156,156);stroke-width:0.26px;"/>
            </g>
            <g transform="matrix(1.40776,0,0,3.01837,676.615,-81.2292)">
                <path d="M253.251,86.038L259.391,86.038L259.391,117.66" style="fill:none;stroke:rgb(156,156,156);stroke-width:0.26px;"/>
            </g>
            <g transform="matrix(1.40776,0,0,3.01837,676.615,-81.2292)">
                <path d="M255.735,88.007L255.735,117.66" style="fill:none;stroke:rgb(156,156,156);stroke-width:0.26px;"/>
            </g>
            <g transform="matrix(1.40776,0,0,3.01837,676.615,-81.2292)">
                <path d="M259.438,84.726L259.438,83.226L267.501,83.226L267.501,117.66" style="fill:none;stroke:rgb(156,156,156);stroke-width:0.26px;"/>
            </g>
            <g transform="matrix(1.40776,0,0,3.01837,676.615,-81.2292)">
                <path d="M376.658,83.007L380.549,83.007" style="fill:none;stroke:rgb(156,156,156);stroke-width:0.26px;"/>
            </g>
            <g transform="matrix(1.40776,0,0,3.01837,676.615,-81.2292)">
                <path d="M376.658,85.705L380.549,85.705" style="fill:none;stroke:rgb(156,156,156);stroke-width:0.26px;"/>
            </g>
            <g transform="matrix(1.40776,0,0,3.01837,676.615,-81.2292)">
                <path d="M376.658,88.403L380.549,88.403" style="fill:none;stroke:rgb(156,156,156);stroke-width:0.26px;"/>
            </g>
            <g transform="matrix(1.40776,0,0,3.01837,676.615,-81.2292)">
                <path d="M376.658,91.102L380.549,91.102" style="fill:none;stroke:rgb(156,156,156);stroke-width:0.26px;"/>
            </g>
            <g transform="matrix(1.40776,0,0,3.01837,676.615,-81.2292)">
                <path d="M376.658,93.8L380.549,93.8" style="fill:none;stroke:rgb(156,156,156);stroke-width:0.26px;"/>
            </g>
            <g transform="matrix(1.40776,0,0,3.01837,676.615,-81.2292)">
                <path d="M376.658,96.498L380.549,96.498" style="fill:none;stroke:rgb(156,156,156);stroke-width:0.26px;"/>
            </g>
            <g transform="matrix(1.40776,0,0,3.01837,676.615,-81.2292)">
                <path d="M376.658,99.197L380.549,99.197" style="fill:none;stroke:rgb(156,156,156);stroke-width:0.26px;"/>
            </g>
            <g transform="matrix(1.40776,0,0,3.01837,676.615,-81.2292)">
                <path d="M376.658,101.895L380.549,101.895" style="fill:none;stroke:rgb(156,156,156);stroke-width:0.26px;"/>
            </g>
            <g transform="matrix(1.40776,0,0,3.01837,676.615,-81.2292)">
                <path d="M376.658,104.593L380.549,104.593" style="fill:none;stroke:rgb(156,156,156);stroke-width:0.26px;"/>
            </g>
            <g transform="matrix(1.40776,0,0,3.01837,676.615,-81.2292)">
                <path d="M376.658,107.292L380.549,107.292" style="fill:none;stroke:rgb(156,156,156);stroke-width:0.26px;"/>
            </g>
            <g transform="matrix(1.40776,0,0,3.01837,676.615,-81.2292)">
                <path d="M376.658,109.99L380.549,109.99" style="fill:none;stroke:rgb(156,156,156);stroke-width:0.26px;"/>
            </g>
            <g transform="matrix(1.40776,0,0,3.01837,676.615,-81.2292)">
                <path d="M376.658,112.688L380.549,112.688" style="fill:none;stroke:rgb(156,156,156);stroke-width:0.26px;"/>
            </g>
            <g transform="matrix(1.40776,0,0,3.01837,676.615,-81.2292)">
                <path d="M285.697,117.66L285.697,97.09L282.689,97.09L282.689,94.723L278.103,94.723L278.103,93.096L273.369,93.096L273.369,96.301L269.128,96.301L269.128,117.66" style="fill:none;stroke:rgb(156,156,156);stroke-width:0.26px;"/>
            </g>
            <g transform="matrix(1.40776,0,0,3.01837,676.615,-81.2292)">
                <rect x="271.347" y="98.274" width="4.339" height="1.662" style="fill:none;stroke:rgb(156,156,156);stroke-width:0.26px;"/>
            </g>
            <g transform="matrix(1.40776,0,0,3.01837,676.615,-81.2292)">
                <rect x="277.293" y="98.274" width="4.34" height="1.662" style="fill:none;stroke:rgb(156,156,156);stroke-width:0.26px;"/>
            </g>
            <g transform="matrix(1.40776,0,0,3.01837,676.615,-81.2292)">
                <rect x="271.253" y="102.653" width="4.34" height="1.662" style="fill:none;stroke:rgb(156,156,156);stroke-width:0.26px;"/>
            </g>
            <g transform="matrix(1.40776,0,0,3.01837,676.615,-81.2292)">
                <rect x="277.2" y="102.657" width="4.339" height="1.662" style="fill:none;stroke:rgb(156,156,156);stroke-width:0.26px;"/>
            </g>
            <g transform="matrix(1.40776,0,0,3.01837,676.615,-81.2292)">
                <rect x="271.183" y="107.032" width="4.339" height="1.662" style="fill:none;stroke:rgb(156,156,156);stroke-width:0.26px;"/>
            </g>
            <g transform="matrix(1.40776,0,0,3.01837,676.615,-81.2292)">
                <rect x="277.129" y="107.04" width="4.34" height="1.662" style="fill:none;stroke:rgb(156,156,156);stroke-width:0.26px;"/>
            </g>
            <g transform="matrix(1.40776,0,0,3.01837,676.615,-81.2292)">
                <rect x="271.183" y="111.411" width="4.339" height="1.662" style="fill:none;stroke:rgb(156,156,156);stroke-width:0.26px;"/>
            </g>
            <g transform="matrix(1.40776,0,0,3.01837,676.615,-81.2292)">
                <path d="M268.962,93.998L268.962,82.623L275.993,82.623L275.993,90.779" style="fill:none;stroke:rgb(156,156,156);stroke-width:0.26px;"/>
            </g>
            <g transform="matrix(1.40776,0,0,3.01837,676.615,-81.2292)">
                <path d="M277.337,93.096L277.337,82.623L282.962,82.623L282.962,86.123" style="fill:none;stroke:rgb(156,156,156);stroke-width:0.26px;"/>
            </g>
            <g transform="matrix(1.40776,0,0,3.01837,676.615,-81.2292)">
                <path d="M282.775,93.061L282.775,87.685L284.744,87.685L284.744,77.81L289.244,77.81L289.244,80.873L291.181,80.873L291.181,82.779L293.587,82.779L293.587,88.498" style="fill:none;stroke:rgb(156,156,156);stroke-width:0.26px;"/>
            </g>
            <g transform="matrix(1.40776,0,0,3.01837,676.615,-81.2292)">
                <path d="M284.869,95.842L284.869,93.248L286.931,93.248L286.931,89.154L288.087,89.154L288.087,87.279L291.213,87.279L291.213,91.967L303.182,91.967L303.182,100.405" style="fill:none;stroke:rgb(156,156,156);stroke-width:0.26px;"/>
            </g>
            <g transform="matrix(1.40776,0,0,3.01837,676.615,-81.2292)">
                <path d="M288.619,117.66L288.619,113.248L295.181,113.248L295.181,117.66" style="fill:none;stroke:rgb(156,156,156);stroke-width:0.26px;"/>
            </g>
            <g transform="matrix(1.40776,0,0,3.01837,676.615,-81.2292)">
                <path d="M292.462,111.498L292.462,98.967L298.65,98.967L298.65,117.66" style="fill:none;stroke:rgb(156,156,156);stroke-width:0.26px;"/>
            </g>
            <g transform="matrix(1.40776,0,0,3.01837,676.615,-81.2292)">
                <path d="M300.15,117.66L300.15,103.685L303.119,103.685L303.119,100.998L309.275,100.998L309.275,103.654L313.838,103.654L313.838,117.66" style="fill:none;stroke:rgb(156,156,156);stroke-width:0.26px;"/>
            </g>
            <g transform="matrix(1.40776,0,0,3.01837,676.615,-81.2292)">
                <path d="M301.393,105.201L303.131,105.201L303.131,115.981L301.372,115.981L301.393,105.201Z" style="fill:none;stroke:rgb(156,156,156);stroke-width:0.26px;"/>
            </g>
            <g transform="matrix(1.40776,0,0,3.01837,676.615,-81.2292)">
                <path d="M305.552,105.201L310.932,105.201L310.932,106.422L305.531,106.422L305.552,105.201Z" style="fill:none;stroke:rgb(156,156,156);stroke-width:0.26px;"/>
            </g>
            <g transform="matrix(1.40776,0,0,3.01837,676.615,-81.2292)">
                <path d="M305.552,107.498L310.932,107.498L310.932,108.719L305.531,108.719L305.552,107.498Z" style="fill:none;stroke:rgb(156,156,156);stroke-width:0.26px;"/>
            </g>
            <g transform="matrix(1.40776,0,0,3.01837,676.615,-81.2292)">
                <path d="M305.552,109.795L310.932,109.795L310.932,111.016L305.531,111.016L305.552,109.795Z" style="fill:none;stroke:rgb(156,156,156);stroke-width:0.26px;"/>
            </g>
            <g transform="matrix(1.40776,0,0,3.01837,676.615,-81.2292)">
                <path d="M305.552,112.091L310.932,112.091L310.932,113.312L305.531,113.312L305.552,112.091Z" style="fill:none;stroke:rgb(156,156,156);stroke-width:0.26px;"/>
            </g>
            <g transform="matrix(1.40776,0,0,3.01837,676.615,-81.2292)">
                <path d="M305.552,114.388L310.932,114.388L310.932,115.609L305.531,115.609L305.552,114.388Z" style="fill:none;stroke:rgb(156,156,156);stroke-width:0.26px;"/>
            </g>
            <g transform="matrix(1.40776,0,0,3.01837,676.615,-81.2292)">
                <path d="M281.324,81.348L281.324,69.5L290.762,69.5L290.762,78.637L289.244,78.637" style="fill:none;stroke:rgb(156,156,156);stroke-width:0.26px;"/>
            </g>
            <g transform="matrix(1.40776,0,0,3.01837,676.615,-81.2292)">
                <path d="M283.301,81.018L283.301,69.5" style="fill:none;stroke:rgb(156,156,156);stroke-width:0.26px;"/>
            </g>
            <g transform="matrix(1.40776,0,0,3.01837,676.615,-81.2292)">
                <path d="M290.762,69.5L290.762,67.072L296.589,67.072L296.589,87.838L301.042,87.838L301.042,90.369" style="fill:none;stroke:rgb(156,156,156);stroke-width:0.26px;"/>
            </g>
            <g transform="matrix(1.40776,0,0,3.01837,676.615,-81.2292)">
                <path d="M295.299,65.665L295.299,63.603L301.956,63.603L301.956,76.658L305.94,76.658L305.94,79.845" style="fill:none;stroke:rgb(156,156,156);stroke-width:0.26px;"/>
            </g>
            <g transform="matrix(1.40776,0,0,3.01837,676.615,-81.2292)">
                <path d="M299.073,86.032L299.073,84.415L301.862,78.392L303.995,83.9L303.995,90.204" style="fill:none;stroke:rgb(156,156,156);stroke-width:0.26px;stroke-linejoin:round;"/>
            </g>
            <g transform="matrix(1.40776,0,0,3.01837,676.615,-81.2292)">
                <path d="M305.87,74.642L305.87,59.36L322.604,59.36" style="fill:none;stroke:rgb(156,156,156);stroke-width:0.26px;"/>
            </g>
            <g transform="matrix(1.40776,0,0,3.01837,676.615,-81.2292)">
                <path d="M308.542,60.907L308.542,79.798" style="fill:none;stroke:rgb(156,156,156);stroke-width:0.26px;"/>
            </g>
            <g transform="matrix(1.40776,0,0,3.01837,676.615,-81.2292)">
                <path d="M310.979,60.907L310.979,71.735" style="fill:none;stroke:rgb(156,156,156);stroke-width:0.26px;"/>
            </g>
            <g transform="matrix(1.40776,0,0,3.01837,676.615,-81.2292)">
                <path d="M313.276,60.907L313.276,71.735" style="fill:none;stroke:rgb(156,156,156);stroke-width:0.26px;"/>
            </g>
            <g transform="matrix(1.40776,0,0,3.01837,676.615,-81.2292)">
                <path d="M315.573,60.907L315.573,71.735" style="fill:none;stroke:rgb(156,156,156);stroke-width:0.26px;"/>
            </g>
            <g transform="matrix(1.40776,0,0,3.01837,676.615,-81.2292)">
                <path d="M317.87,60.907L317.87,71.735" style="fill:none;stroke:rgb(156,156,156);stroke-width:0.26px;"/>
            </g>
            <g transform="matrix(1.40776,0,0,3.01837,676.615,-81.2292)">
                <path d="M320.12,60.907L320.12,71.735" style="fill:none;stroke:rgb(156,156,156);stroke-width:0.26px;"/>
            </g>
            <g transform="matrix(1.40776,0,0,3.01837,676.615,-81.2292)">
                <path d="M322.041,111.719L322.041,65.312L325.885,52.187L328.884,65.781L328.884,82.797" style="fill:none;stroke:rgb(156,156,156);stroke-width:0.26px;"/>
            </g>
            <g transform="matrix(1.40776,0,0,3.01837,676.615,-81.2292)">
                <path d="M324.994,107.687L324.994,101.312L327.666,101.312L327.666,95.171L328.744,95.171L328.744,84.296L345.385,84.296" style="fill:none;stroke:rgb(156,156,156);stroke-width:0.26px;"/>
            </g>
            <g transform="matrix(1.40776,0,0,3.01837,676.615,-81.2292)">
                <path d="M316.323,117.906L316.323,113.219L323.87,113.219L323.87,109.187L343.417,109.187L343.417,117.66" style="fill:none;stroke:rgb(156,156,156);stroke-width:0.26px;"/>
            </g>
            <g transform="matrix(1.40776,0,0,3.01837,676.615,-81.2292)">
                <path d="M345.385,117.66L345.385,77.171L356.729,77.171L356.729,117.66" style="fill:none;stroke:rgb(156,156,156);stroke-width:0.26px;"/>
            </g>
            <g transform="matrix(1.40776,0,0,3.01837,676.615,-81.2292)">
                <path d="M353.541,79.046L355.229,79.046L355.229,117.66L353.166,117.66L353.541,79.046Z" style="fill:none;stroke:rgb(156,156,156);stroke-width:0.26px;"/>
            </g>
            <g transform="matrix(1.40776,0,0,3.01837,676.615,-81.2292)">
                <path d="M304.978,81.625L309.525,81.625L309.885,82.243L311.025,84.203L311.025,102.25" style="fill:none;stroke:rgb(156,156,156);stroke-width:0.26px;"/>
            </g>
            <g transform="matrix(1.40776,0,0,3.01837,676.615,-81.2292)">
                <path d="M311.025,82.281L311.025,74.265L320.541,74.265L320.541,79.843L314.447,85.187L314.447,92.734L317.119,92.734L317.119,97.609L319.275,97.609L319.275,111.53" style="fill:none;stroke:rgb(156,156,156);stroke-width:0.26px;"/>
            </g>
            <g transform="matrix(1.40776,0,0,3.01837,676.615,-81.2292)">
                <path d="M323.555,66.575L327.384,66.575L327.384,67.796L323.541,67.796L323.555,66.575Z" style="fill:none;stroke:rgb(156,156,156);stroke-width:0.26px;"/>
            </g>
            <g transform="matrix(1.40776,0,0,3.01837,676.615,-81.2292)">
                <path d="M323.555,68.871L327.384,68.871L327.384,70.092L323.541,70.092L323.555,68.871Z" style="fill:none;stroke:rgb(156,156,156);stroke-width:0.26px;"/>
            </g>
            <g transform="matrix(1.40776,0,0,3.01837,676.615,-81.2292)">
                <path d="M323.555,71.168L327.384,71.168L327.384,72.389L323.541,72.389L323.555,71.168Z" style="fill:none;stroke:rgb(156,156,156);stroke-width:0.26px;"/>
            </g>
            <g transform="matrix(1.40776,0,0,3.01837,676.615,-81.2292)">
                <path d="M323.555,73.371L327.384,73.371L327.384,74.592L323.541,74.592L323.555,73.371Z" style="fill:none;stroke:rgb(156,156,156);stroke-width:0.26px;"/>
            </g>
            <g transform="matrix(1.40776,0,0,3.01837,676.615,-81.2292)">
                <path d="M323.555,75.668L327.384,75.668L327.384,76.889L323.541,76.889L323.555,75.668Z" style="fill:none;stroke:rgb(156,156,156);stroke-width:0.26px;"/>
            </g>
            <g transform="matrix(1.40776,0,0,3.01837,676.615,-81.2292)">
                <path d="M323.307,84.718L325.908,84.718" style="fill:none;stroke:rgb(156,156,156);stroke-width:0.26px;"/>
            </g>
            <g transform="matrix(1.40776,0,0,3.01837,676.615,-81.2292)">
                <path d="M323.248,87.132L325.967,87.132" style="fill:none;stroke:rgb(156,156,156);stroke-width:0.26px;"/>
            </g>
            <g transform="matrix(1.40776,0,0,3.01837,676.615,-81.2292)">
                <path d="M323.225,89.382L325.991,89.382" style="fill:none;stroke:rgb(156,156,156);stroke-width:0.26px;"/>
            </g>
            <g transform="matrix(1.40776,0,0,3.01837,676.615,-81.2292)">
                <path d="M323.19,91.538L326.026,91.538" style="fill:none;stroke:rgb(156,156,156);stroke-width:0.26px;"/>
            </g>
            <g transform="matrix(1.40776,0,0,3.01837,676.615,-81.2292)">
                <path d="M323.295,93.952L325.92,93.952" style="fill:none;stroke:rgb(156,156,156);stroke-width:0.26px;"/>
            </g>
            <g transform="matrix(1.40776,0,0,3.01837,676.615,-81.2292)">
                <path d="M330.291,86.218L343.745,86.218" style="fill:none;stroke:rgb(156,156,156);stroke-width:0.26px;"/>
            </g>
            <g transform="matrix(1.40776,0,0,3.01837,676.615,-81.2292)">
                <path d="M330.291,88.468L343.745,88.468" style="fill:none;stroke:rgb(156,156,156);stroke-width:0.26px;"/>
            </g>
            <g transform="matrix(1.40776,0,0,3.01837,676.615,-81.2292)">
                <path d="M330.291,90.718L343.745,90.718" style="fill:none;stroke:rgb(156,156,156);stroke-width:0.26px;"/>
            </g>
            <g transform="matrix(1.40776,0,0,3.01837,676.615,-81.2292)">
                <path d="M330.291,92.968L343.745,92.968" style="fill:none;stroke:rgb(156,156,156);stroke-width:0.26px;"/>
            </g>
            <g transform="matrix(1.40776,0,0,3.01837,676.615,-81.2292)">
                <path d="M330.291,95.218L343.745,95.218" style="fill:none;stroke:rgb(156,156,156);stroke-width:0.26px;"/>
            </g>
            <g transform="matrix(1.40776,0,0,3.01837,676.615,-81.2292)">
                <path d="M326.963,102.764L343.417,102.764" style="fill:none;stroke:rgb(156,156,156);stroke-width:0.26px;"/>
            </g>
            <g transform="matrix(1.40776,0,0,3.01837,676.615,-81.2292)">
                <path d="M326.963,104.651L343.417,104.651" style="fill:none;stroke:rgb(156,156,156);stroke-width:0.26px;"/>
            </g>
            <g transform="matrix(1.40776,0,0,3.01837,676.615,-81.2292)">
                <path d="M326.963,106.538L343.417,106.538" style="fill:none;stroke:rgb(156,156,156);stroke-width:0.26px;"/>
            </g>
            <g transform="matrix(1.40776,0,0,3.01837,676.615,-81.2292)">
                <path d="M330.189,78.777L335.145,78.777L335.145,82.927" style="fill:none;stroke:rgb(156,156,156);stroke-width:0.26px;"/>
            </g>
            <g transform="matrix(1.40776,0,0,3.01837,676.615,-81.2292)">
                <path d="M353.608,65.788L350.858,65.788L346.983,71.538L346.983,75.35" style="fill:none;stroke:rgb(156,156,156);stroke-width:0.26px;"/>
            </g>
            <g transform="matrix(1.40776,0,0,3.01837,676.615,-81.2292)">
                <path d="M355.296,75.413L355.296,60.725L358.796,60.725L361.608,66.6L361.608,72.163" style="fill:none;stroke:rgb(156,156,156);stroke-width:0.26px;"/>
            </g>
            <g transform="matrix(1.40776,0,0,3.01837,676.615,-81.2292)">
                <path d="M356.671,75.975L356.671,73.1L370.671,73.1L370.671,117.66" style="fill:none;stroke:rgb(156,156,156);stroke-width:0.26px;"/>
            </g>
            <g transform="matrix(1.40776,0,0,3.01837,676.615,-81.2292)">
                <path d="M361.545,117.66L361.545,75.539L358.795,75.539L358.795,117.66" style="fill:none;stroke:rgb(156,156,156);stroke-width:0.26px;"/>
            </g>
            <g transform="matrix(1.40776,0,0,3.01837,676.615,-81.2292)">
                <path d="M364.233,117.535L364.233,75.414L362.858,75.414L362.858,117.535" style="fill:none;stroke:rgb(156,156,156);stroke-width:0.26px;"/>
            </g>
            <g transform="matrix(1.40776,0,0,3.01837,676.615,-81.2292)">
                <rect x="363.044" y="69.413" width="4.625" height="2.719" style="fill:none;stroke:rgb(156,156,156);stroke-width:0.26px;"/>
            </g>
            <g transform="matrix(1.40776,0,0,3.01837,676.615,-81.2292)">
                <path d="M370.68,80.549L376.154,80.76L376.154,79.428L380.669,79.428L380.669,81.223L383.795,81.223L383.795,91.005" style="fill:none;stroke:rgb(156,156,156);stroke-width:0.26px;"/>
            </g>
            <g transform="matrix(1.40776,0,0,3.01837,676.615,-81.2292)">
                <path d="M376.658,115.386L380.549,115.386" style="fill:none;stroke:rgb(156,156,156);stroke-width:0.26px;"/>
            </g>
            <g transform="matrix(1.40776,0,0,3.01837,676.615,-81.2292)">
                <path d="M383.791,117.66L383.791,93.074L392.666,93.074L392.666,117.66" style="fill:none;stroke:rgb(156,156,156);stroke-width:0.26px;"/>
            </g>
            <g transform="matrix(1.40776,0,0,3.01837,676.615,-81.2292)">
                <path d="M385.669,95.41L389.374,95.41" style="fill:none;stroke:rgb(156,156,156);stroke-width:0.26px;"/>
            </g>
            <g transform="matrix(1.40776,0,0,3.01837,676.615,-81.2292)">
                <path d="M385.586,97.757L389.457,97.757" style="fill:none;stroke:rgb(156,156,156);stroke-width:0.26px;"/>
            </g>
            <g transform="matrix(1.40776,0,0,3.01837,676.615,-81.2292)">
                <path d="M385.553,100.103L389.491,100.103" style="fill:none;stroke:rgb(156,156,156);stroke-width:0.26px;"/>
            </g>
            <g transform="matrix(1.40776,0,0,3.01837,676.615,-81.2292)">
                <path d="M385.503,102.449L389.541,102.449" style="fill:none;stroke:rgb(156,156,156);stroke-width:0.26px;"/>
            </g>
            <g transform="matrix(1.40776,0,0,3.01837,676.615,-81.2292)">
                <path d="M385.653,104.796L389.391,104.796" style="fill:none;stroke:rgb(156,156,156);stroke-width:0.26px;"/>
            </g>
            <g transform="matrix(1.40776,0,0,3.01837,676.615,-81.2292)">
                <path d="M385.653,107.142L389.691,107.142" style="fill:none;stroke:rgb(156,156,156);stroke-width:0.26px;"/>
            </g>
            <g transform="matrix(1.40776,0,0,3.01837,676.615,-81.2292)">
                <path d="M385.653,109.488L389.391,109.488" style="fill:none;stroke:rgb(156,156,156);stroke-width:0.26px;"/>
            </g>
            <g transform="matrix(1.40776,0,0,3.01837,676.615,-81.2292)">
                <path d="M396.388,117.66L396.388,94.946L392.666,94.946" style="fill:none;stroke:rgb(156,156,156);stroke-width:0.26px;"/>
            </g>
            <g transform="matrix(1.40776,0,0,3.01837,676.615,-81.2292)">
                <path d="M396.463,93.015L396.463,64.842L412.963,64.842L412.963,97.842L418.869,97.842L418.869,117.66" style="fill:none;stroke:rgb(156,156,156);stroke-width:0.26px;"/>
            </g>
            <g transform="matrix(1.40776,0,0,3.01837,676.615,-81.2292)">
                <path d="M398.542,67.279L407.573,67.279" style="fill:none;stroke:rgb(156,156,156);stroke-width:0.26px;"/>
            </g>
            <g transform="matrix(1.40776,0,0,3.01837,676.615,-81.2292)">
                <path d="M398.542,69.998L407.573,69.998" style="fill:none;stroke:rgb(156,156,156);stroke-width:0.26px;"/>
            </g>
            <g transform="matrix(1.40776,0,0,3.01837,676.615,-81.2292)">
                <path d="M398.542,72.717L407.573,72.717" style="fill:none;stroke:rgb(156,156,156);stroke-width:0.26px;"/>
            </g>
            <g transform="matrix(1.40776,0,0,3.01837,676.615,-81.2292)">
                <path d="M398.542,75.436L407.573,75.436" style="fill:none;stroke:rgb(156,156,156);stroke-width:0.26px;"/>
            </g>
            <g transform="matrix(1.40776,0,0,3.01837,676.615,-81.2292)">
                <path d="M398.542,78.155L407.573,78.155" style="fill:none;stroke:rgb(156,156,156);stroke-width:0.26px;"/>
            </g>
            <g transform="matrix(1.40776,0,0,3.01837,676.615,-81.2292)">
                <path d="M398.542,80.873L407.573,80.873" style="fill:none;stroke:rgb(156,156,156);stroke-width:0.26px;"/>
            </g>
            <g transform="matrix(1.40776,0,0,3.01837,676.615,-81.2292)">
                <path d="M398.542,83.592L407.573,83.592" style="fill:none;stroke:rgb(156,156,156);stroke-width:0.26px;"/>
            </g>
            <g transform="matrix(1.40776,0,0,3.01837,676.615,-81.2292)">
                <path d="M398.542,86.311L407.573,86.311" style="fill:none;stroke:rgb(156,156,156);stroke-width:0.26px;"/>
            </g>
            <g transform="matrix(1.40776,0,0,3.01837,676.615,-81.2292)">
                <path d="M398.542,89.029L407.573,89.029" style="fill:none;stroke:rgb(156,156,156);stroke-width:0.26px;"/>
            </g>
            <g transform="matrix(1.40776,0,0,3.01837,676.615,-81.2292)">
                <path d="M398.542,91.748L407.573,91.748" style="fill:none;stroke:rgb(156,156,156);stroke-width:0.26px;"/>
            </g>
            <g transform="matrix(1.40776,0,0,3.01837,676.615,-81.2292)">
                <path d="M398.542,94.467L407.573,94.467" style="fill:none;stroke:rgb(156,156,156);stroke-width:0.26px;"/>
            </g>
            <g transform="matrix(1.40776,0,0,3.01837,676.615,-81.2292)">
                <path d="M398.542,97.186L407.573,97.186" style="fill:none;stroke:rgb(156,156,156);stroke-width:0.26px;"/>
            </g>
            <g transform="matrix(1.40776,0,0,3.01837,676.615,-81.2292)">
                <path d="M396.408,102.039L396.408,98.96" style="fill:none;stroke:rgb(156,156,156);stroke-width:0.26px;"/>
            </g>
            <g transform="matrix(1.40776,0,0,3.01837,676.615,-81.2292)">
                <path d="M398.542,102.11L398.542,98.889" style="fill:none;stroke:rgb(156,156,156);stroke-width:0.26px;"/>
            </g>
            <g transform="matrix(1.40776,0,0,3.01837,676.615,-81.2292)">
                <path d="M401.347,102.165L401.347,98.889" style="fill:none;stroke:rgb(156,156,156);stroke-width:0.26px;"/>
            </g>
            <g transform="matrix(1.40776,0,0,3.01837,676.615,-81.2292)">
                <path d="M403.939,102.249L403.939,98.889" style="fill:none;stroke:rgb(156,156,156);stroke-width:0.26px;"/>
            </g>
            <g transform="matrix(1.40776,0,0,3.01837,676.615,-81.2292)">
                <path d="M406.531,101.999L406.531,98.889" style="fill:none;stroke:rgb(156,156,156);stroke-width:0.26px;"/>
            </g>
            <g transform="matrix(1.40776,0,0,3.01837,676.615,-81.2292)">
                <path d="M409.123,102.249L409.123,98.889" style="fill:none;stroke:rgb(156,156,156);stroke-width:0.26px;"/>
            </g>
            <g transform="matrix(1.40776,0,0,3.01837,676.615,-81.2292)">
                <path d="M411.715,101.999L411.715,98.889" style="fill:none;stroke:rgb(156,156,156);stroke-width:0.26px;"/>
            </g>
            <g transform="matrix(1.40776,0,0,3.01837,676.615,-81.2292)">
                <path d="M414.307,101.999L414.307,98.889" style="fill:none;stroke:rgb(156,156,156);stroke-width:0.26px;"/>
            </g>
            <g transform="matrix(1.40776,0,0,3.01837,676.615,-81.2292)">
                <path d="M416.901,101.999L416.901,98.889" style="fill:none;stroke:rgb(156,156,156);stroke-width:0.26px;"/>
            </g>
            <g transform="matrix(1.40776,0,0,3.01837,676.615,-81.2292)">
                <path d="M398.542,104.475L407.573,104.475" style="fill:none;stroke:rgb(156,156,156);stroke-width:0.26px;"/>
            </g>
            <g transform="matrix(1.40776,0,0,3.01837,676.615,-81.2292)">
                <path d="M398.542,107.194L407.573,107.194" style="fill:none;stroke:rgb(156,156,156);stroke-width:0.26px;"/>
            </g>
            <g transform="matrix(1.40776,0,0,3.01837,676.615,-81.2292)">
                <path d="M398.542,109.912L407.573,109.912" style="fill:none;stroke:rgb(156,156,156);stroke-width:0.26px;"/>
            </g>
            <g transform="matrix(1.40776,0,0,3.01837,676.615,-81.2292)">
                <path d="M398.542,112.631L407.573,112.631" style="fill:none;stroke:rgb(156,156,156);stroke-width:0.26px;"/>
            </g>
            <g transform="matrix(1.40776,0,0,3.01837,676.615,-81.2292)">
                <path d="M398.542,115.35L407.573,115.35" style="fill:none;stroke:rgb(156,156,156);stroke-width:0.26px;"/>
            </g>
            <g transform="matrix(1.40776,0,0,3.01837,676.615,-81.2292)">
                <rect x="402.745" y="61.021" width="5.203" height="2.578" style="fill:none;stroke:rgb(156,156,156);stroke-width:0.26px;"/>
            </g>
            <g transform="matrix(1.40776,0,0,3.01837,676.615,-81.2292)">
                <path d="M410.292,63.88L408.98,63.88L408.98,60.598L421.918,60.598L421.918,65.239L427.73,65.239L427.73,117.66" style="fill:none;stroke:rgb(156,156,156);stroke-width:0.26px;"/>
            </g>
            <g transform="matrix(1.40776,0,0,3.01837,676.615,-81.2292)">
                <path d="M426.207,117.66L426.23,66.551L420.793,66.551L420.793,61.816L410.012,61.816L410.012,63.88" style="fill:none;stroke:rgb(156,156,156);stroke-width:0.26px;"/>
            </g>
            <g transform="matrix(1.40776,0,0,3.01837,676.615,-81.2292)">
                <path d="M416.153,67.427L416.153,75.814" style="fill:none;stroke:rgb(156,156,156);stroke-width:0.26px;"/>
            </g>
            <g transform="matrix(1.40776,0,0,3.01837,676.615,-81.2292)">
                <path d="M418.091,67.427L418.091,75.814" style="fill:none;stroke:rgb(156,156,156);stroke-width:0.26px;"/>
            </g>
            <g transform="matrix(1.40776,0,0,3.01837,676.615,-81.2292)">
                <path d="M420.03,67.427L420.03,75.814" style="fill:none;stroke:rgb(156,156,156);stroke-width:0.26px;"/>
            </g>
            <g transform="matrix(1.40776,0,0,3.01837,676.615,-81.2292)">
                <path d="M421.969,67.427L421.969,75.814" style="fill:none;stroke:rgb(156,156,156);stroke-width:0.26px;"/>
            </g>
            <g transform="matrix(1.40776,0,0,3.01837,676.615,-81.2292)">
                <path d="M423.908,67.427L423.908,75.814" style="fill:none;stroke:rgb(156,156,156);stroke-width:0.26px;"/>
            </g>
            <g transform="matrix(1.40776,0,0,3.01837,676.615,-81.2292)">
                <path d="M414.922,96.133L414.922,77.039L423.193,77.039L423.193,117.66" style="fill:none;stroke:rgb(156,156,156);stroke-width:0.26px;"/>
            </g>
            <g transform="matrix(1.40776,0,0,3.01837,676.615,-81.2292)">
                <path d="M416.824,78.602L416.824,96.133" style="fill:none;stroke:rgb(156,156,156);stroke-width:0.26px;"/>
            </g>
            <g transform="matrix(1.40776,0,0,3.01837,676.615,-81.2292)">
                <path d="M419.98,78.602L419.98,96.133" style="fill:none;stroke:rgb(156,156,156);stroke-width:0.26px;"/>
            </g>
            <g transform="matrix(1.40776,0,0,3.01837,676.615,-81.2292)">
                <path d="M197.277,16.739C205.659,16.739 212.454,23.534 212.454,31.916C212.454,40.298 205.659,47.092 197.277,47.092C188.895,47.092 182.101,40.298 182.101,31.916C182.101,23.534 188.895,16.739 197.277,16.739Z" style="fill:none;stroke:rgb(156,156,156);stroke-width:0.26px;"/>
            </g>
            <g transform="matrix(1.40776,0,0,3.01837,676.615,-81.2292)">
                <path d="M52.812,44.582C52.812,44.582 53.45,41.281 57.931,42.313C57.931,42.313 59.075,37.569 65.15,38.506C65.15,38.506 70.175,31.456 76.175,38.469C76.175,38.469 81.064,37.306 82.238,41.825C82.238,41.825 85.812,41.956 86.562,44.581L70.625,44.506L52.812,44.582Z" style="fill:none;stroke:rgb(156,156,156);stroke-width:0.26px;"/>
            </g>
            <g transform="matrix(1.40776,0,0,3.01837,676.615,-81.2292)">
                <path d="M399.365,16.26C399.365,16.26 400.002,12.96 404.483,13.991C404.483,13.991 405.627,9.248 411.702,10.185C411.702,10.185 416.727,3.135 422.727,10.148C422.727,10.148 427.617,8.985 428.791,13.504C428.791,13.504 432.365,13.635 433.115,16.26L417.177,16.185L399.365,16.26Z" style="fill:none;stroke:rgb(156,156,156);stroke-width:0.26px;"/>
            </g>
            <g transform="matrix(1.40776,0,0,3.01837,676.615,-81.2292)">
                <path d="M348.339,62.872L350.374,65.129L348.116,67.163L346.082,64.906L348.339,62.872Z" style="fill:none;stroke:rgb(156,156,156);stroke-width:0.26px;"/>
            </g>
            <g transform="matrix(1.40776,0,0,3.01837,676.615,-81.2292)">
                <path d="M328.801,8.569L330.836,10.826L328.579,12.86L326.544,10.603L328.801,8.569Z" style="fill:none;stroke:rgb(156,156,156);stroke-width:0.26px;"/>
            </g>
            <g transform="matrix(1.40776,0,0,3.01837,676.615,-81.2292)">
                <path d="M238.746,36.748L240.78,39.005L238.523,41.039L236.489,38.782L238.746,36.748Z" style="fill:none;stroke:rgb(156,156,156);stroke-width:0.26px;"/>
            </g>
            <g transform="matrix(1.40776,0,0,3.01837,676.615,-81.2292)">
                <path d="M126.413,58.991L128.786,61.623L126.154,63.995L123.781,61.364L126.413,58.991Z" style="fill:none;stroke:rgb(156,156,156);stroke-width:0.26px;"/>
            </g>
            <g transform="matrix(1.40776,0,0,3.01837,676.615,-81.2292)">
                <path d="M135.038,0.731L137.41,3.363L134.778,5.735L132.406,3.103L135.038,0.731Z" style="fill:none;stroke:rgb(156,156,156);stroke-width:0.26px;"/>
            </g>
            <g transform="matrix(1.40776,0,0,3.01837,676.615,-81.2292)">
                <path d="M69.593,65.888L71.965,68.52L69.334,70.892L66.961,68.26L69.593,65.888Z" style="fill:none;stroke:rgb(156,156,156);stroke-width:0.26px;"/>
            </g>
            <g transform="matrix(1.40776,0,0,3.01837,676.615,-81.2292)">
                <path d="M7.679,61.794L10.051,64.426L7.419,66.798L5.047,64.166L7.679,61.794Z" style="fill:none;stroke:rgb(156,156,156);stroke-width:0.26px;"/>
            </g>
            <g transform="matrix(1.40776,0,0,3.01837,676.615,-81.2292)">
                <path d="M111.423,29.944C111.423,29.944 112.061,26.644 116.542,27.675C116.542,27.675 117.686,22.931 123.761,23.869C123.761,23.869 128.786,16.818 134.786,23.831C134.786,23.831 139.675,22.669 140.849,27.187C140.849,27.187 144.424,27.318 145.174,29.943L129.236,29.869L111.423,29.944Z" style="fill:none;stroke:rgb(156,156,156);stroke-width:0.26px;"/>
            </g>
            <g transform="matrix(1.40776,0,0,3.01837,676.615,-81.2292)">
                <path d="M64.036,2.911L66.409,5.543L63.777,7.915L61.404,5.283L64.036,2.911Z" style="fill:none;stroke:rgb(156,156,156);stroke-width:0.26px;"/>
            </g>
            <g transform="matrix(1.40776,0,0,3.01837,676.615,-81.2292)">
                <path d="M445.764,22.27L447.798,24.527L445.541,26.561L443.507,24.304L445.764,22.27Z" style="fill:none;stroke:rgb(156,156,156);stroke-width:0.26px;"/>
            </g>
            <g transform="matrix(1.40776,0,0,3.01837,676.615,-81.2292)">
                <path d="M351.936,21L353.971,23.257L351.714,25.292L349.679,23.034L351.936,21Z" style="fill:none;stroke:rgb(156,156,156);stroke-width:0.26px;"/>
            </g>
            <g transform="matrix(1.40776,0,0,3.01837,676.615,-81.2292)">
                <path d="M263.521,33.564L260.334,33.564C260.334,33.564 261.121,32.257 262.733,32.07C264.346,31.883 297.121,31.883 298.434,31.92C299.746,31.957 300.721,32.321 300.721,33.564L294.496,35.781C294.496,35.781 286.696,37.92 283.884,37.17C283.218,36.993 282.223,36.908 281.092,36.881L276.659,35.005L268.695,35.042C268.695,35.042 271.124,36.001 274.325,37.146C273.154,37.239 272.371,37.32 272.371,37.32L267.459,37.357C267.459,37.357 262.035,37.615 259.209,36.457L257.559,35.781C257.451,33.866 258.899,33.564 260.334,33.564L263.521,33.564Z" style="fill:none;stroke:rgb(156,156,156);stroke-width:0.26px;"/>
            </g>
            <g transform="matrix(1.40776,0,0,3.01837,676.615,-81.2292)">
                <path d="M267.908,31.97C267.908,31.97 279.307,26.473 284.032,26.173L276.758,31.921L267.908,31.97Z" style="fill:none;stroke:rgb(156,156,156);stroke-width:0.26px;"/>
            </g>
            <g transform="matrix(1.40776,0,0,3.01837,676.615,-81.2292)">
                <path d="M287.07,31.902C287.07,31.902 289.545,32.19 291.945,30.625C294.345,29.06 295.582,26.436 298.432,26.173L300.12,26.147L297.945,31.914L287.07,31.902Z" style="fill:none;stroke:rgb(156,156,156);stroke-width:0.26px;"/>
            </g>
            <g transform="matrix(1.40776,0,0,3.01837,676.615,-81.2292)">
                <path d="M276.659,35.005L268.695,35.042C268.695,35.042 283.62,40.93 288.232,40.967L289.507,40.442L276.659,35.005Z" style="fill:none;stroke:rgb(156,156,156);stroke-width:0.26px;"/>
            </g>
            <g transform="matrix(1.40776,0,0,3.01837,676.615,-81.2292)">
                <path d="M27.75,14.962L30.122,17.594L27.49,19.966L25.118,17.334L27.75,14.962Z" style="fill:none;stroke:rgb(156,156,156);stroke-width:0.26px;"/>
            </g>
            <g transform="matrix(1.40776,0,0,3.01837,676.615,-81.2292)">
                <path d="M21.612,98.779C24.449,98.779 26.749,101.079 26.749,103.917C26.749,106.754 24.449,109.054 21.612,109.054C18.774,109.054 16.474,106.754 16.474,103.917C16.474,101.079 18.774,98.779 21.612,98.779Z" style="fill:none;stroke:rgb(156,156,156);stroke-width:0.26px;"/>
            </g>
            <g transform="matrix(1.40776,0,0,3.01837,676.615,-81.2292)">
                <path d="M20.112,104.957L21.836,106.586L21.836,103.16L21.836,107.305L21.835,117.645" style="fill:none;stroke:rgb(156,156,156);stroke-width:0.26px;"/>
            </g>
            <g transform="matrix(1.40776,0,0,3.01837,676.615,-81.2292)">
                <path d="M16.908,114.808C18.62,114.808 20.044,116.004 20.335,117.58L6.633,117.58C6.627,117.488 6.623,117.396 6.623,117.303C6.623,114.961 8.586,113.062 11.007,113.062C12.723,113.062 14.208,114.016 14.928,115.406C15.49,115.029 16.173,114.808 16.908,114.808Z" style="fill:none;stroke:rgb(156,156,156);stroke-width:0.26px;"/>
            </g>
            <g transform="matrix(1.40776,0,0,3.01837,676.615,-81.2292)">
                <path d="M450.453,98.779C453.29,98.779 455.59,101.079 455.59,103.917C455.59,106.754 453.29,109.054 450.453,109.054C447.615,109.054 445.315,106.754 445.315,103.917C445.315,101.079 447.615,98.779 450.453,98.779Z" style="fill:none;stroke:rgb(156,156,156);stroke-width:0.26px;"/>
            </g>
            <g transform="matrix(1.40776,0,0,3.01837,676.615,-81.2292)">
                <path d="M448.953,104.957L450.274,106.811L450.677,103.16L450.676,117.645" style="fill:none;stroke:rgb(156,156,156);stroke-width:0.26px;"/>
            </g>
            <g transform="matrix(1.40776,0,0,3.01837,676.615,-81.2292)">
                <path d="M444.215,114.808C445.927,114.808 447.351,116.004 447.642,117.58L433.94,117.58C433.934,117.488 433.93,117.396 433.93,117.303C433.93,114.961 435.893,113.062 438.314,113.062C440.03,113.062 441.515,114.016 442.235,115.406C442.797,115.029 443.48,114.808 444.215,114.808Z" style="fill:none;stroke:rgb(156,156,156);stroke-width:0.26px;"/>
            </g>
            <g transform="matrix(1.40776,0,0,3.01837,676.615,-81.2292)">
                <path d="M307.402,33.603L393.406,33.258" style="fill:none;stroke:rgb(156,156,156);stroke-width:0.26px;"/>
            </g>
            <g transform="matrix(1.40776,0,0,3.01837,676.615,-81.2292)">
                <path d="M307.585,31.198L315.923,31.531" style="fill:none;stroke:rgb(156,156,156);stroke-width:0.26px;"/>
            </g>
            <g transform="matrix(1.40776,0,0,3.01837,676.615,-81.2292)">
                <path d="M38.885,21.942C38.885,21.942 34.422,23.323 37.472,28.46C37.472,28.46 35.289,29.872 35.225,31.06C35.161,32.248 36.67,32.634 36.67,32.634L36.541,35.523C36.541,35.523 36.124,37.321 37.216,38.541C37.216,38.541 35.386,44.256 36.67,49.586C36.67,49.586 33.459,51.416 35.353,56.874C35.353,56.874 34.23,58.607 36.028,60.855C36.028,60.855 34.84,63.166 36.67,66.28L36.798,68.592C36.798,68.592 35.193,70.295 35.225,72.703C35.225,72.703 35.096,73.924 36.188,74.886C36.188,74.886 37.376,75.817 36.67,77.583C36.67,77.583 35.161,79.383 35.514,80.25C35.514,80.25 35.61,81.245 36.348,82.112C36.348,82.112 34.454,86.897 35.963,91.841C35.963,91.841 33.458,98.487 33.811,103.111C33.811,103.111 31.13,104.459 31.532,107.686L54.472,107.686C54.472,107.686 53.412,93.013 54.439,90.413L55.965,89.61C55.965,89.61 53.381,83.301 53.541,77.715L54.344,78.437L56.688,74.055L59.385,71.63C59.385,71.63 60.557,70.587 59.593,69.174L60.589,67.617L54.57,64.663L52.483,67.424C52.483,67.424 51.712,61.115 47.634,58.386L46.31,57.88L46.366,55.464C46.366,55.464 47.442,55.142 47.329,52.59C47.329,52.59 48.886,51.964 48.421,50.487L52.193,50.712L48.212,49.524L48.341,49.187L52.948,47.678L48.325,48.368L48.004,47.935L51.905,44.949L47.377,47.164C47.377,47.164 46.864,46.731 46.511,46.811L47.442,42.541L45.403,46.731C45.403,46.731 44.504,46.634 44.167,46.971L41.373,43.536C41.373,43.536 42.85,46.907 43.123,47.357L42.481,47.967L39.865,47.373L41.791,48.657C41.791,48.657 40.748,49.701 40.812,49.861C40.876,50.022 39.72,48.786 39.72,48.786L39.479,38.817C39.479,38.817 40.346,35.799 39.238,34.065L39.816,32.797C39.816,32.797 41.373,32.525 41.405,31.144C41.405,31.144 41.196,30.181 39.414,29.394L39.35,28.591C39.35,28.591 40.538,26.601 39.446,25.461C39.446,25.461 37.464,23.735 38.885,21.942Z" style="fill:none;stroke:rgb(156,156,156);stroke-width:0.26px;"/>
            </g>
            <g transform="matrix(1.40776,0,0,3.01837,676.615,-81.2292)">
                <path d="M36.749,51.187C36.749,51.187 35.545,53.273 36.235,54.526C36.235,54.526 37.086,56.034 38.868,54.076C38.868,54.076 40.04,52.648 40.281,51.283" style="fill:none;stroke:rgb(156,156,156);stroke-width:0.26px;"/>
            </g>
            <g transform="matrix(1.40776,0,0,3.01837,676.615,-81.2292)">
                <path d="M41.437,50.223L41.453,51.443C41.453,51.443 42.095,49.998 44.037,49.18C44.037,49.18 46.189,48.12 47.409,49.822L47.489,48.489C47.489,48.489 46.189,46.965 44.15,47.912C44.15,47.912 42.625,48.506 41.437,50.223Z" style="fill:none;stroke:rgb(156,156,156);stroke-width:0.26px;"/>
            </g>
            <g transform="matrix(1.40776,0,0,3.01837,676.615,-81.2292)">
                <path d="M40.762,53.129L43.09,56.596L44.695,58.218" style="fill:none;stroke:rgb(156,156,156);stroke-width:0.26px;"/>
            </g>
            <g transform="matrix(1.40776,0,0,3.01837,676.615,-81.2292)">
                <path d="M41.63,56.211L39.399,60.337L35.803,61.991" style="fill:none;stroke:rgb(156,156,156);stroke-width:0.26px;"/>
            </g>
            <g transform="matrix(1.40776,0,0,3.01837,676.615,-81.2292)">
                <path d="M40.651,60.08L37.183,68.171" style="fill:none;stroke:rgb(156,156,156);stroke-width:0.26px;"/>
            </g>
            <g transform="matrix(1.40776,0,0,3.01837,676.615,-81.2292)">
                <path d="M36.99,69.712L43.733,62.648" style="fill:none;stroke:rgb(156,156,156);stroke-width:0.26px;"/>
            </g>
            <g transform="matrix(1.40776,0,0,3.01837,676.615,-81.2292)">
                <path d="M37.455,74.464C37.455,74.464 43.315,67.176 45.691,65.411" style="fill:none;stroke:rgb(156,156,156);stroke-width:0.26px;"/>
            </g>
            <g transform="matrix(1.40776,0,0,3.01837,676.615,-81.2292)">
                <path d="M44.648,69.665C44.648,69.665 44.006,76.632 37.842,83.375" style="fill:none;stroke:rgb(156,156,156);stroke-width:0.26px;"/>
            </g>
            <g transform="matrix(1.40776,0,0,3.01837,676.615,-81.2292)">
                <path d="M52.45,69.504C52.45,69.504 51.84,72.811 52.353,74.031" style="fill:none;stroke:rgb(156,156,156);stroke-width:0.26px;"/>
            </g>
            <g transform="matrix(1.40776,0,0,3.01837,676.615,-81.2292)">
                <path d="M56.334,69.649C56.334,69.649 54.263,71.19 54.745,72.619" style="fill:none;stroke:rgb(156,156,156);stroke-width:0.26px;"/>
            </g>
            <g transform="matrix(1.40776,0,0,3.01837,676.615,-81.2292)">
                <path d="M48.709,80.5C48.709,80.5 47.425,91.93 48.26,94.466C48.26,94.466 52.016,90.806 53.493,90.645" style="fill:none;stroke:rgb(156,156,156);stroke-width:0.26px;"/>
            </g>
            <g transform="matrix(1.40776,0,0,3.01837,676.615,-81.2292)">
                <path d="M44.151,87.531C44.151,87.531 40.105,94.177 38.115,103.199C38.115,103.199 44.632,97.484 47.201,97.098" style="fill:none;stroke:rgb(156,156,156);stroke-width:0.26px;"/>
            </g>
            <g transform="matrix(1.40776,0,0,3.01837,676.615,-81.2292)">
                <path d="M49.801,95.494L48.1,104.259L50.636,106.506" style="fill:none;stroke:rgb(156,156,156);stroke-width:0.26px;"/>
            </g>
            <g transform="matrix(1.40776,0,0,3.01837,676.615,-81.2292)">
                <rect x="27.859" y="113.691" width="31.721" height="3.885" style="fill:none;stroke:rgb(156,156,156);stroke-width:0.26px;"/>
            </g>
            <g transform="matrix(1.40776,0,0,3.01837,676.615,-81.2292)">
                <rect x="30.12" y="109.877" width="27.162" height="3.692" style="fill:none;stroke:rgb(156,156,156);stroke-width:0.26px;"/>
            </g>
            <g transform="matrix(1.40776,0,0,3.01837,676.615,-81.2292)">
                <rect x="30.57" y="107.597" width="26.166" height="2.28" style="fill:none;stroke:rgb(156,156,156);stroke-width:0.26px;"/>
            </g>
        </g>
    </g>
</svg>
