<svg width="20" height="17" viewBox="0 0 20 17" fill="none" xmlns="http://www.w3.org/2000/svg">
<path d="M3.12503 11.2916C2.48455 11.2916 1.94249 11.0698 1.49886 10.6262C1.05522 10.1825 0.833405 9.64047 0.833405 8.99999C0.833405 8.35952 1.05522 7.81745 1.49886 7.3738C1.94249 6.93017 2.48455 6.70835 3.12503 6.70835V4.69874C3.12503 4.24305 3.28728 3.85296 3.6118 3.52846C3.9363 3.20394 4.32639 3.04168 4.78208 3.04168H7.70836C7.70836 2.40121 7.93018 1.85915 8.37381 1.41552C8.81746 0.97188 9.35953 0.750061 10 0.750061C10.6405 0.750061 11.1825 0.97188 11.6262 1.41552C12.0698 1.85915 12.2916 2.40121 12.2916 3.04168H15.2179C15.6736 3.04168 16.0637 3.20394 16.3882 3.52846C16.7127 3.85296 16.875 4.24305 16.875 4.69874V6.70835C17.5155 6.70835 18.0575 6.93017 18.5011 7.3738C18.9448 7.81745 19.1666 8.35952 19.1666 8.99999C19.1666 9.64047 18.9448 10.1825 18.5011 10.6262C18.0575 11.0698 17.5155 11.2916 16.875 11.2916V15.1346C16.875 15.5903 16.7127 15.9804 16.3882 16.3049C16.0637 16.6294 15.6736 16.7916 15.2179 16.7916H4.78208C4.32639 16.7916 3.9363 16.6294 3.6118 16.3049C3.28728 15.9804 3.12503 15.5903 3.12503 15.1346V11.2916ZM7.24897 9.68747C7.56696 9.68747 7.8376 9.57617 8.06089 9.35357C8.28417 9.13098 8.39581 8.86068 8.39581 8.54269C8.39581 8.2247 8.28451 7.95406 8.06192 7.73078C7.83932 7.50749 7.56903 7.39585 7.25103 7.39585C6.93304 7.39585 6.6624 7.50715 6.43912 7.72974C6.21583 7.95234 6.10419 8.22264 6.10419 8.54063C6.10419 8.85862 6.21549 9.12926 6.43809 9.35254C6.66069 9.57583 6.93098 9.68747 7.24897 9.68747ZM12.749 9.68747C13.067 9.68747 13.3376 9.57617 13.5609 9.35357C13.7842 9.13098 13.8958 8.86068 13.8958 8.54269C13.8958 8.2247 13.7845 7.95406 13.5619 7.73078C13.3393 7.50749 13.069 7.39585 12.751 7.39585C12.433 7.39585 12.1624 7.50715 11.9391 7.72974C11.7158 7.95234 11.6042 8.22264 11.6042 8.54063C11.6042 8.85862 11.7155 9.12926 11.9381 9.35254C12.1607 9.57583 12.431 9.68747 12.749 9.68747ZM6.56253 13.3541H13.4375V11.9792H6.56253V13.3541ZM4.78208 15.4167H15.2179C15.3002 15.4167 15.3678 15.3902 15.4207 15.3373C15.4736 15.2844 15.5 15.2168 15.5 15.1346V4.69874C15.5 4.61647 15.4736 4.54889 15.4207 4.496C15.3678 4.4431 15.3002 4.41666 15.2179 4.41666H4.78208C4.69981 4.41666 4.63223 4.4431 4.57934 4.496C4.52645 4.54889 4.5 4.61647 4.5 4.69874V15.1346C4.5 15.2168 4.52645 15.2844 4.57934 15.3373C4.63223 15.3902 4.69981 15.4167 4.78208 15.4167Z" fill="#808080"/>
</svg>
