<svg width="16" height="16" viewBox="0 0 16 16" fill="none" xmlns="http://www.w3.org/2000/svg">
<path d="M6.00001 8.66667C5.81112 8.66667 5.65279 8.60278 5.52501 8.475C5.39723 8.34722 5.33335 8.18889 5.33335 8V3.88334L4.08335 5.13334C3.96112 5.25556 3.80835 5.31667 3.62501 5.31667C3.44168 5.31667 3.28335 5.25556 3.15001 5.13334C3.01668 5 2.95001 4.84167 2.95001 4.65834C2.95001 4.475 3.01668 4.31667 3.15001 4.18334L5.53335 1.8C5.60001 1.73334 5.67223 1.68611 5.75001 1.65834C5.82779 1.63056 5.91112 1.61667 6.00001 1.61667C6.0889 1.61667 6.17223 1.63056 6.25001 1.65834C6.32779 1.68611 6.40001 1.73334 6.46668 1.8L8.86668 4.2C9.00001 4.33334 9.0639 4.48889 9.05835 4.66667C9.05279 4.84445 8.98335 5 8.85001 5.13334C8.71668 5.25556 8.56112 5.31945 8.38335 5.325C8.20557 5.33056 8.05001 5.26667 7.91668 5.13334L6.66668 3.88334V8C6.66668 8.18889 6.60279 8.34722 6.47501 8.475C6.34723 8.60278 6.1889 8.66667 6.00001 8.66667ZM10 14.3833C9.91112 14.3833 9.82779 14.3694 9.75001 14.3417C9.67224 14.3139 9.60001 14.2667 9.53335 14.2L7.13335 11.8C7.00001 11.6667 6.93612 11.5111 6.94168 11.3333C6.94723 11.1556 7.01668 11 7.15001 10.8667C7.28335 10.7444 7.4389 10.6806 7.61668 10.675C7.79446 10.6694 7.95001 10.7333 8.08335 10.8667L9.33335 12.1167V8C9.33335 7.81111 9.39723 7.65278 9.52501 7.525C9.65279 7.39722 9.81112 7.33333 10 7.33333C10.1889 7.33333 10.3472 7.39722 10.475 7.525C10.6028 7.65278 10.6667 7.81111 10.6667 8V12.1167L11.9167 10.8667C12.0389 10.7444 12.1917 10.6833 12.375 10.6833C12.5583 10.6833 12.7167 10.7444 12.85 10.8667C12.9833 11 13.05 11.1583 13.05 11.3417C13.05 11.525 12.9833 11.6833 12.85 11.8167L10.4667 14.2C10.4 14.2667 10.3278 14.3139 10.25 14.3417C10.1722 14.3694 10.0889 14.3833 10 14.3833Z" fill="#808080"/>
</svg>
