<?xml version="1.0" encoding="UTF-8"?>
<svg width="33px" height="44px" viewBox="0 0 33 44" version="1.1" xmlns="http://www.w3.org/2000/svg" xmlns:xlink="http://www.w3.org/1999/xlink">
    <title>import-using-file</title>
    <g id="Final:Migrate-Data" stroke="none" stroke-width="1" fill="none" fill-rule="evenodd" stroke-linecap="round" stroke-linejoin="round">
        <g id="Import-or-Migrate-data-landing-page" transform="translate(-567.000000, -290.000000)" stroke="#1F62FF" stroke-width="2">
            <g id="version-1" transform="translate(350.000000, 133.000000)">
                <g id="import-options" transform="translate(30.000000, 128.000000)">
                    <g id="Group" transform="translate(42.000000, 30.000000)">
                        <g id="import-using-file" transform="translate(146.000000, 0.000000)">
                            <path d="M30.1055957,11.2895984 L30.1055957,39.5135943 C30.1055957,40.5484742 29.2588758,41.395194 28.2239959,41.395194 L1.88159973,41.395194 C0.846719878,41.395194 0,40.5484742 0,39.5135943 L0,1.88159973 C0,0.846719878 0.846719878,0 1.88159973,0 L18.8159973,0" id="Stroke-1"></path>
                            <polygon id="Stroke-3" points="30.1055957 11.2895984 18.8159973 11.2895984 18.8159973 0"></polygon>
                            <line x1="5.64479919" y1="20.697597" x2="16.9343976" y2="20.697597" id="Stroke-5" opacity="0.45"></line>
                            <line x1="22.5791967" y1="20.697597" x2="24.4607965" y2="20.697597" id="Stroke-7" opacity="0.45"></line>
                            <line x1="5.64479919" y1="26.3423962" x2="16.9343976" y2="26.3423962" id="Stroke-9" opacity="0.45"></line>
                            <line x1="22.5791967" y1="26.3423962" x2="24.4607965" y2="26.3423962" id="Stroke-11" opacity="0.45"></line>
                            <line x1="5.64479919" y1="31.9871954" x2="16.9343976" y2="31.9871954" id="Stroke-13" opacity="0.45"></line>
                            <line x1="22.5791967" y1="31.9871954" x2="24.4607965" y2="31.9871954" id="Stroke-15" opacity="0.45"></line>
                        </g>
                    </g>
                </g>
            </g>
        </g>
    </g>
</svg>