<svg width="28" height="28" viewBox="0 0 28 28" fill="none" xmlns="http://www.w3.org/2000/svg">
<path d="M19.766 16.6923C19.0391 16.6923 18.4199 16.4365 17.9083 15.9249C17.3968 15.4134 17.1411 14.7942 17.1411 14.0673C17.1411 13.3403 17.3968 12.7211 17.9083 12.2096C18.4199 11.6981 19.0391 11.4423 19.766 11.4423C20.4929 11.4423 21.1122 11.6981 21.6237 12.2096C22.1352 12.7211 22.391 13.3403 22.391 14.0673C22.391 14.7942 22.1352 15.4134 21.6237 15.9249C21.1122 16.4365 20.4929 16.6923 19.766 16.6923ZM14.2244 22.5256V21.1839C14.2244 20.7696 14.3303 20.3892 14.5422 20.0427C14.7541 19.6963 15.055 19.447 15.4449 19.2949C16.1234 19.0107 16.8256 18.7975 17.5512 18.6554C18.2769 18.5133 19.0152 18.4423 19.766 18.4423C20.5017 18.4423 21.2327 18.5133 21.959 18.6554C22.6852 18.7975 23.3946 19.0107 24.0872 19.2949C24.4771 19.447 24.7779 19.6963 24.9898 20.0427C25.2017 20.3892 25.3077 20.7696 25.3077 21.1839V22.5256H14.2244ZM11.4423 13.641C10.3194 13.641 9.35812 13.2412 8.55847 12.4415C7.75884 11.6419 7.35902 10.6806 7.35902 9.55771C7.35902 8.4348 7.75884 7.47352 8.55847 6.67389C9.35812 5.87423 10.3194 5.47441 11.4423 5.47441C12.5652 5.47441 13.5265 5.87423 14.3261 6.67389C15.1258 7.47352 15.5256 8.4348 15.5256 9.55771C15.5256 10.6806 15.1258 11.6419 14.3261 12.4415C13.5265 13.2412 12.5652 13.641 11.4423 13.641ZM2.69235 22.5256V19.932C2.69235 19.3492 2.84453 18.8134 3.1489 18.3249C3.45328 17.8363 3.87097 17.4686 4.40196 17.2218C5.50131 16.6684 6.64237 16.2474 7.82516 15.9587C9.00795 15.67 10.2137 15.5257 11.4423 15.5257C12.0181 15.5257 12.594 15.5672 13.1698 15.6502C13.7457 15.7332 14.3215 15.8338 14.8974 15.952L14.1525 16.708L13.4077 17.4641C13.0801 17.3856 12.7525 17.3345 12.425 17.311C12.0974 17.2874 11.7699 17.2756 11.4423 17.2756C10.3519 17.2756 9.28023 17.4005 8.22725 17.6503C7.17426 17.9001 6.16688 18.2777 5.20512 18.7833C4.98077 18.903 4.79754 19.0596 4.65544 19.2534C4.51334 19.447 4.44229 19.6733 4.44229 19.932V20.7756H11.4423V22.5256H2.69235ZM11.4423 11.891C12.084 11.891 12.6333 11.6626 13.0902 11.2056C13.5472 10.7487 13.7756 10.1994 13.7756 9.55771C13.7756 8.91605 13.5472 8.36674 13.0902 7.9098C12.6333 7.45285 12.084 7.22438 11.4423 7.22438C10.8006 7.22438 10.2513 7.45285 9.79438 7.9098C9.33743 8.36674 9.10896 8.91605 9.10896 9.55771C9.10896 10.1994 9.33743 10.7487 9.79438 11.2056C10.2513 11.6626 10.8006 11.891 11.4423 11.891Z" fill="#5C88E9"/>
</svg>