<svg id="Capa_1" enable-background="new 0 0 512 512" height="512" viewBox="0 0 512 512" width="512" xmlns="http://www.w3.org/2000/svg" xmlns:xlink="http://www.w3.org/1999/xlink"><linearGradient id="SVGID_1_" gradientTransform="matrix(1 0 0 -1 -561.6 -11906.99)" gradientUnits="userSpaceOnUse" x1="777.335" x2="944.335" y1="-12108.692" y2="-12416.692"><stop offset="0" stop-color="#d2dbfc" stop-opacity="0"/><stop offset="1" stop-color="#b8c1fb"/></linearGradient><g><path d="m364.823 55.215c-69.098-27.035-164.784-16.764-217.662 31.51-37.336 34.085-8.439 43.8 17.016 106.17 18.423 45.14-164.177 38.927-164.177 120.495 0 94.299 132.251 76.424 181.329 87.218 75.036 16.504 140.496 78.242 220.668 70.103 69.795-7.086 96.403-61.855 106.109-124.642 18.082-116.976-26.329-245.094-143.283-290.854z" fill="url(#SVGID_1_)"/><path d="m407.767 153.397h-18.894c.085-.764.154-1.531.204-2.304 1.923-30.002-22.833-54.743-52.855-52.821-24.309 1.556-44.17 20.963-46.232 45.219-.287 3.376-.224 6.686.137 9.905h-222.41c-11.036 0-19.975 8.943-19.975 19.962v30.038h-17c-5.523 0-10 4.477-10 10v78c0 5.523 4.477 10 10 10h17v77c0 11.046 8.954 20 20 20h6.827l-4.276 37.893c-.589 5.21 2.736 10.061 7.81 11.398s10.357-1.258 12.414-6.078l18.392-43.213h257.664l18.392 43.213c2.057 4.821 7.341 7.416 12.414 6.078 5.074-1.337 8.399-6.188 7.81-11.398l-4.276-37.893h6.827c11.046 0 20-8.954 20-20v-205.038c.002-11.019-8.937-19.961-19.973-19.961z" fill="#2b2ab5" opacity=".11"/><path d="m129.41 374.796-20.82 48.95c-2.06 4.83-7.35 7.43-12.43 6.09s-8.41-6.2-7.82-11.42l5.96-52.86z" fill="#fff"/><path d="m415.84 429.835c-5.08 1.34-10.37-1.26-12.43-6.09l-20.82-48.95 35.11-9.24 5.96 52.86c.59 5.22-2.74 10.081-7.82 11.42z" fill="#fff"/><path d="m445.742 155.358v205.038c0 11.046-8.954 20-20 20h-340c-11.046 0-20-8.954-20-20v-205.038c0-11.019 8.939-19.962 19.975-19.962h340.051c11.035.001 19.974 8.943 19.974 19.962z" fill="#fff"/><path d="m65.742 320.397v40c0 11.046 8.954 20 20 20h340c11.046 0 20-8.954 20-20v-40h-85l-37.445 9.901-36.555-9.901z" fill="#6e80f8"/><path d="m286.742 320.397v60h139c11.046 0 20-8.954 20-20v-40z" fill="#fff"/><path d="m360.742 320.397v60h65c11.046 0 20-8.954 20-20v-40z" fill="#6e80f8"/><path d="m423.742 162.397v48c0 2.761-2.239 5-5 5h-244c-2.762 0-5-2.239-5-5v-48c0-2.761 2.238-5 5-5h244c2.761 0 5 2.238 5 5z" fill="#6e80f8"/><path d="m65.742 349.397v11c0 11.046 8.954 20 20 20h340c11.046 0 20-8.954 20-20v-11z" fill="#fff"/><path d="m407.526 132.672c1.925-30.06-22.862-54.848-52.922-52.922-24.34 1.559-44.226 21.004-46.29 45.306-1.001 11.788 2.122 22.803 8.072 31.781l-6.986 15.866c-1.443 3.277 1.896 6.615 5.173 5.173l15.866-6.986c8.978 5.95 19.993 9.073 31.781 8.072 24.302-2.064 43.747-21.95 45.306-46.29z" fill="#fff"/><circle cx="338.861" cy="128.811" fill="#2b2ab5" r="5.59"/><circle cx="358.771" cy="128.811" fill="#2b2ab5" r="5.59"/><circle cx="378.681" cy="128.811" fill="#2b2ab5" r="5.59"/><path d="m126.742 283.397h-78c-5.523 0-10-4.477-10-10v-78c0-5.523 4.477-10 10-10h78c5.523 0 10 4.477 10 10v78c0 5.522-4.477 10-10 10z" fill="#6e80f8"/><g fill="#2b2ab5"><path d="m400.552 219.397h-166.519c-2.403 0-4.612-1.609-5.084-3.965-.644-3.214 1.796-6.035 4.896-6.035h166.519c2.403 0 4.612 1.609 5.084 3.965.644 3.213-1.796 6.035-4.896 6.035z"/><path d="m400.552 240.397h-46.519c-2.403 0-4.612-1.609-5.084-3.965-.644-3.214 1.796-6.035 4.896-6.035h46.519c2.403 0 4.612 1.609 5.084 3.965.644 3.213-1.796 6.035-4.896 6.035z"/><path d="m400.552 261.397h-46.519c-2.403 0-4.612-1.609-5.084-3.965-.644-3.214 1.796-6.035 4.896-6.035h46.519c2.403 0 4.612 1.609 5.084 3.965.644 3.213-1.796 6.035-4.896 6.035z"/><path d="m400.552 282.397h-46.519c-2.403 0-4.612-1.609-5.084-3.965-.644-3.214 1.796-6.035 4.896-6.035h46.519c2.403 0 4.612 1.609 5.084 3.965.644 3.213-1.796 6.035-4.896 6.035z"/><g><circle cx="175.962" cy="256.081" r="5.59"/><circle cx="192.873" cy="256.081" r="5.59"/><circle cx="209.783" cy="256.081" r="5.59"/><circle cx="175.962" cy="273.246" r="5.59"/><circle cx="192.873" cy="273.246" r="5.59"/><circle cx="209.783" cy="273.246" r="5.59"/></g></g><path d="m465.417 406.887c-5.194 0-10.391-2.748-13.192-8.242-.288-.565-.529-1.158-.714-1.765-2.355-7.705 1.389-15.514 9.207-18.529 3.072-1.185 6.508-1.146 9.568.069 6.151 2.442 9.733 7.882 9.733 13.871 0 3.9-1.519 7.567-4.278 10.326v-.001.001c-2.845 2.846-6.585 4.27-10.324 4.27zm.071-19.197c-1.179 0-2.357.449-3.254 1.346-.87.87-1.349 2.025-1.349 3.255s.479 2.385 1.348 3.254c1.795 1.795 4.715 1.794 6.509.001v-.001c.869-.869 1.348-2.024 1.348-3.254s-.479-2.385-1.348-3.254c-.897-.897-2.075-1.347-3.254-1.347z" fill="#6e80f8"/><path d="m285.804 105.523c-3.739 0-7.479-1.424-10.326-4.271-5.693-5.693-5.693-14.957 0-20.65s14.958-5.693 20.651 0c2.758 2.758 4.277 6.425 4.277 10.325s-1.519 7.567-4.278 10.326v-.001.001c-2.845 2.847-6.585 4.27-10.324 4.27zm0-19.196c-1.179 0-2.357.449-3.254 1.346-1.794 1.795-1.794 4.715 0 6.51 1.794 1.793 4.715 1.793 6.509 0v-.001c.869-.869 1.348-2.024 1.348-3.254s-.479-2.385-1.348-3.254c-.898-.898-2.077-1.347-3.255-1.347z" fill="#6e80f8"/><path d="m143.804 64.397h-3.062v-3.062c0-2.403-1.609-4.612-3.965-5.084-3.214-.644-6.035 1.796-6.035 4.896v3.25h-3.062c-2.404 0-4.614 1.61-5.085 3.968-.642 3.214 1.799 6.032 4.897 6.032h3.25v3.062c0 2.403 1.609 4.612 3.965 5.084 3.214.644 6.035-1.796 6.035-4.896v-3.25h3.25c3.098 0 5.539-2.818 4.897-6.032-.472-2.358-2.681-3.968-5.085-3.968z" fill="#6e80f8"/><path d="m157.804 415.397h-3.062v-3.062c0-2.403-1.609-4.612-3.965-5.084-3.214-.644-6.035 1.796-6.035 4.896v3.25h-3.062c-2.404 0-4.613 1.61-5.085 3.968-.643 3.214 1.798 6.032 4.897 6.032h3.25v3.062c0 2.403 1.609 4.612 3.965 5.084 3.214.644 6.035-1.796 6.035-4.896v-3.25h3.25c3.098 0 5.539-2.818 4.897-6.032-.472-2.358-2.681-3.968-5.085-3.968z" fill="#6e80f8"/><path d="m107.804 94.397h-3.062v-3.062c0-2.403-1.609-4.612-3.965-5.084-3.214-.644-6.035 1.796-6.035 4.896v3.25h-3.062c-2.404 0-4.614 1.61-5.085 3.968-.642 3.214 1.799 6.032 4.897 6.032h3.25v3.062c0 2.403 1.609 4.612 3.965 5.084 3.214.644 6.035-1.796 6.035-4.896v-3.25h3.25c3.098 0 5.539-2.818 4.897-6.032-.471-2.358-2.681-3.968-5.085-3.968z" fill="#6e80f8"/><path d="m425.772 130.397h-13.604c.138-14.675-5.604-28.833-16.01-39.233-11.113-11.107-26.52-16.896-42.257-15.892-26.745 1.712-48.623 23.113-50.889 49.782-.152 1.791-.209 3.572-.192 5.342h-221.624c-11.296 0-20.454 9.157-20.454 20.454v29.546h-12c-8.284 0-15 6.716-15 15v78c0 8.284 6.716 15 15 15h78c8.284 0 15-6.716 15-15v-78c0-8.284-6.716-15-15-15h-56v-25.413s-2.742-15.587 15.013-15.587h218.393c1.185 6.644 3.393 12.456 6.594 17.85l-5.79 13.147c-1.468 3.334-.981 7.306 1.505 9.969 2.622 2.81 6.636 3.627 10.13 2.088l13.441-5.919c8.459 5.021 17.945 7.615 27.798 7.615 1.597 0 3.204-.068 4.816-.205 8.126-.69 15.824-3.148 22.885-7.307 2.273-1.339 3.316-4.209 2.168-6.585-1.294-2.68-4.566-3.622-7.067-2.137-5.807 3.456-12.143 5.496-18.831 6.063-10.233.871-20.121-1.64-28.597-7.257-1.419-.94-3.218-1.096-4.777-.408l-13.332 5.871 5.871-13.333c.687-1.561.529-3.361-.412-4.783-5.614-8.475-8.123-18.361-7.254-28.59 1.853-21.824 19.749-39.338 41.628-40.738 12.888-.845 25.504 3.915 34.6 13.011s13.838 21.707 13.013 34.602c-.377 5.882-1.909 11.556-4.555 16.866-1.157 2.321-.521 5.238 1.662 6.638 2.538 1.628 5.853.669 7.175-1.952 2.241-4.447 4.774-13.505 4.774-13.505h14.149c8.284 0 15 6.716 15 15v189h-370v-32.913s-2.226-5-4.987-5-5 2.238-5.013 5v48.964c.013 13.785 11.228 25 25.013 24.949h1.272l-3.659 32.455c-.862 7.633 4.09 14.862 11.519 16.816 1.301.343 2.615.507 3.915.507 6.12 0 11.91-3.646 14.39-9.477l17.121-39.301h251.375l17.121 39.301c2.481 5.832 8.27 9.477 14.39 9.477 1.299 0 2.614-.164 3.914-.506 7.429-1.955 12.381-9.185 11.52-16.817l-3.659-32.455h.241c14.098 0 25.527-11.429 25.527-25.527v-204.519c-.001-13.76-11.202-24.955-24.97-24.954zm-294.03 65v78c0 2.761-2.239 5-5 5h-78c-2.762 0-5-2.239-5-5v-78c0-2.761 2.238-5 5-5h78c2.761 0 5 2.238 5 5zm-27.753 226.336c-1.078 2.532-3.898 3.916-6.558 3.213-2.661-.7-4.436-3.29-4.127-6.024l3.785-33.525h22.356zm314.689-2.963c.236 2.093-.623 4.219-2.374 5.39-3.056 2.043-6.975.67-8.294-2.427l-15.456-36.337h22.355zm7.064-43.373h-340c-8.284 0-15-6.716-15-15v-6h370v6c0 8.284-6.716 15-15 15z" fill="#2b2ab5"/><path d="m100.646 242.127c4.324-3.748 7.076-9.265 7.076-15.423 0-11.261-9.162-20.422-20.422-20.422s-20.422 9.161-20.422 20.422c0 6.158 2.751 11.675 7.076 15.423-4.324 3.747-7.076 9.264-7.076 15.422 0 2.762 2.239 5 5 5s5-2.238 5-5c0-5.747 4.675-10.422 10.422-10.422s10.422 4.675 10.422 10.422c0 2.762 2.239 5 5 5s5-2.238 5-5c-.001-6.158-2.752-11.675-7.076-15.422zm-23.77-15.423c0-5.747 4.675-10.422 10.422-10.422s10.422 4.675 10.422 10.422-4.675 10.423-10.422 10.423-10.422-4.676-10.422-10.423z" fill="#2b2ab5"/></g></svg>