<svg id="bold" enable-background="new 0 0 32 32" height="512" viewBox="0 0 32 32" width="512" xmlns="http://www.w3.org/2000/svg"><path d="m26 32h-20c-3.314 0-6-2.686-6-6v-20c0-3.314 2.686-6 6-6h20c3.314 0 6 2.686 6 6v20c0 3.314-2.686 6-6 6z" fill="#ffe6e2"/><path d="m20.833 8h-9.667c-1.011 0-1.833.822-1.833 1.833v12.333c0 1.011.822 1.833 1.833 1.833h9.667c1.011 0 1.833-.822 1.833-1.833v-12.333c.001-1.011-.822-1.833-1.833-1.833zm-9.5 5.833c0-.276.224-.5.5-.5h3.667c.276 0 .5.224.5.5v.667c0 .276-.224.5-.5.5s-.5-.224-.5-.5v-.167h-.833v2.667c.276 0 .5.224.5.5s-.224.5-.5.5h-1c-.276 0-.5-.224-.5-.5s.224-.5.5-.5v-2.667h-.833v.167c0 .276-.224.5-.5.5s-.5-.224-.5-.5v-.667zm8.834 8.167h-8.333c-.276 0-.5-.224-.5-.5s.224-.5.5-.5h8.333c.276 0 .5.224.5.5s-.224.5-.5.5zm0-2h-8.333c-.276 0-.5-.224-.5-.5s.224-.5.5-.5h8.333c.276 0 .5.224.5.5s-.224.5-.5.5zm0-2h-2.333c-.276 0-.5-.224-.5-.5s.224-.5.5-.5h2.333c.276 0 .5.224.5.5s-.224.5-.5.5zm0-1.833h-2.333c-.276 0-.5-.224-.5-.5s.224-.5.5-.5h2.333c.276 0 .5.224.5.5s-.224.5-.5.5zm0-1.834h-2.333c-.276 0-.5-.224-.5-.5s.224-.5.5-.5h2.333c.276 0 .5.224.5.5s-.224.5-.5.5z" fill="#fc573b"/></svg>