<svg width="101" height="52" viewBox="0 0 101 52" fill="none" xmlns="http://www.w3.org/2000/svg">
<rect x="36" y="11" width="29" height="30" rx="1" fill="white"/>
<rect x="1" y="11" width="29" height="30" rx="1" fill="white"/>
<rect x="71" y="11" width="29" height="30" rx="1" fill="white"/>
<path d="M43.8259 28.4597C42.4541 27.5622 41.7718 25.4761 42.1079 23.5684C42.444 21.6606 43.7099 20.0175 45.2273 19.3088C45.9654 18.9744 46.7746 18.8295 47.5823 18.8872C48.3899 18.945 49.1706 19.2034 49.8542 19.6394C51.2458 20.4947 53.2138 20.9632 53.8746 22.6745C54.3824 23.9895 53.7383 26.6599 53.0549 27.9372C52.4641 29.0412 51.3416 29.5462 50.287 29.7656C49.1202 30.0047 47.916 29.9893 46.7557 29.7202C45.5954 29.4511 44.5061 28.9346 43.5616 28.2057L43.8259 28.4597Z" fill="#2F2E41"/>
<path d="M43.1104 38.5923L42.0136 40.4931L41.8687 40.7438L41.6578 41.1126H38.4243L38.6426 40.7438L39.2075 39.787L40.5243 37.5526L42.0154 38.1517L43.1104 38.5923Z" fill="#FFB8B8"/>
<path d="M38.1822 41.1124L37.5917 40.7437L37.5183 40.6976L41.225 33.9076C41.3844 33.6137 41.6002 33.3545 41.8599 33.145C42.1197 32.9355 42.4181 32.7799 42.7381 32.6871C43.142 32.5662 43.5699 32.5503 43.9816 32.641C44.2218 32.692 44.4531 32.779 44.6676 32.8991C44.7558 32.9478 44.841 33.002 44.9225 33.0614C45.236 33.2823 45.4935 33.574 45.6745 33.9131C45.8899 34.3101 45.9963 34.7575 45.9827 35.2095C45.9692 35.6615 45.8362 36.1017 45.5974 36.4849L44.1687 38.7802L42.9472 40.7437L42.7179 41.1124H38.1822Z" fill="#2F2E41"/>
<path d="M47.7056 30.8697C50.1935 30.8697 52.2103 28.8424 52.2103 26.3416C52.2103 23.8408 50.1935 21.8135 47.7056 21.8135C45.2177 21.8135 43.2009 23.8408 43.2009 26.3416C43.2009 28.8424 45.2177 30.8697 47.7056 30.8697Z" fill="#FFB8B8"/>
<path d="M52.2278 41.1124H42.1019L42.1477 40.9815C42.122 40.9022 42.0982 40.823 42.0762 40.7437C42.0523 40.6607 42.0321 40.5759 42.0138 40.493C41.8493 39.7212 41.8499 38.9231 42.0156 38.1516C42.5751 35.3898 44.8071 33.1462 44.8071 33.1462C44.8456 33.1167 44.8841 33.089 44.9227 33.0614C45.2547 32.817 45.615 32.6139 45.9956 32.4567C47.6536 31.7653 49.3923 32.0437 50.5606 32.4014C50.9674 32.525 51.3652 32.6772 51.7509 32.8567C51.8866 32.9213 51.96 32.9618 51.96 32.9618L52.0756 36.5034L52.2149 40.7437L52.2278 41.1124Z" fill="#7D75FF"/>
<path d="M56.912 40.7437L56.138 36.7873L55.3567 32.7977C55.3242 32.633 55.2428 32.4819 55.1233 32.3645C55.0038 32.247 54.8518 32.1686 54.6872 32.1396L53.0512 31.8556L51.529 31.592C51.3822 31.5654 51.2309 31.5797 51.0916 31.6333C50.9522 31.6869 50.8301 31.7779 50.7385 31.8962C50.6241 32.0395 50.5614 32.2176 50.5605 32.4014C50.5606 32.5149 50.5837 32.6271 50.6284 32.7314C51.4226 34.5934 51.4373 37.5413 51.2355 40.7437C51.2264 40.8654 51.219 40.9889 51.2098 41.1124H56.9854L56.912 40.7437Z" fill="#2F2E41"/>
<path d="M45.9955 32.4567C45.9618 32.3225 45.8955 32.1989 45.8024 32.0969C45.7094 31.9949 45.5926 31.9177 45.4625 31.8724C45.3325 31.827 45.1933 31.8149 45.0574 31.8371C44.9215 31.8593 44.7932 31.9151 44.6841 31.9994L43.9817 32.641L41.1058 35.2737C41.0162 35.3545 40.9459 35.4548 40.9004 35.5668C40.5757 36.3467 39.943 37.8861 39.2075 39.7868C39.0883 40.0966 38.9654 40.4155 38.8389 40.7437C38.7948 40.8654 38.7472 40.9889 38.6995 41.1124H43.4388C43.4773 40.9889 43.5158 40.8654 43.5543 40.7437C43.7652 40.0744 43.9707 39.4181 44.1687 38.7802C44.7483 36.9274 45.271 35.2442 45.6745 33.9131C45.7864 33.5444 45.8885 33.2039 45.9808 32.8917C46.0239 32.7506 46.029 32.6004 45.9955 32.4567Z" fill="#2F2E41"/>
<path d="M57.9758 41.1125H58.2821L58.2399 41.0093L58.128 40.7438L56.4021 36.627L56.138 36.7874L54.0178 38.0761L55.1054 40.7438L55.2558 41.1125H56.9854H57.9758Z" fill="#FFB8B8"/>
<path d="M56.2258 33.3621C55.9923 32.7477 55.5315 32.2478 54.9398 31.9671C54.3481 31.6864 53.6713 31.6465 53.051 31.8558C52.9717 31.8822 52.894 31.913 52.8181 31.948C52.3836 32.1429 52.0133 32.4581 51.7507 32.8569C51.6435 33.0161 51.5554 33.1876 51.4884 33.3676C51.3694 33.6801 51.3131 34.0132 51.3229 34.3477C51.3326 34.6821 51.4082 35.0113 51.5452 35.3163L52.0753 36.5036L53.9717 40.7439L54.1368 41.1126H57.9755L58.2396 41.0094L58.9256 40.7439L59.021 40.707L56.2258 33.3621Z" fill="#2F2E41"/>
<path d="M51.2435 21.141C51.4005 21.1883 51.5687 21.1823 51.7219 21.1238C51.8752 21.0654 52.005 20.9577 52.0912 20.8176C52.1729 20.6748 52.221 20.5151 52.2317 20.3507C52.2425 20.1864 52.2157 20.0217 52.1533 19.8694C52.0254 19.5653 51.824 19.2982 51.5672 19.0924C51.2757 18.8272 50.9207 18.6424 50.5369 18.5562C50.3452 18.5148 50.1469 18.5152 49.9553 18.5575C49.7638 18.5999 49.5836 18.6831 49.4268 18.8015C49.2729 18.9239 49.1588 19.0897 49.0992 19.2776C49.0395 19.4656 49.037 19.6671 49.0919 19.8565C49.2086 20.1966 49.5245 20.4243 49.84 20.594C50.466 20.9299 51.1563 21.1272 51.8645 21.1725L51.2435 21.141Z" fill="#2F2E41"/>
<path d="M52.1198 26.2065C51.3956 26.3068 51.4886 25.9363 51.1986 25.2617C50.9085 24.5872 50.5202 23.7864 49.7923 23.7181C49.1958 23.6621 48.7043 24.1415 48.2211 24.4974C47.3597 25.1319 46.1989 25.4424 45.2005 25.0618C44.202 24.6812 43.5082 23.485 43.887 22.4815C44.005 22.2044 44.1782 21.9545 44.3961 21.7475C44.614 21.5404 44.8719 21.3805 45.1537 21.2777C45.7192 21.0756 46.3198 20.9918 46.9186 21.0313C48.2504 21.0741 49.5567 21.4102 50.7452 22.0159C51.5654 22.4349 52.3639 23.0342 52.6751 23.9045C52.9863 24.7749 53.191 25.9979 52.3013 26.2333L52.1198 26.2065Z" fill="#2F2E41"/>
<path d="M50.8733 18.7472C50.5153 18.1208 50.8108 17.2614 51.3965 16.8429C51.9822 16.4244 52.768 16.3834 53.4669 16.5512C54.1581 16.7263 54.7914 17.0809 55.3032 17.5796C55.8151 18.0783 56.1875 18.7035 56.3831 19.3925C56.6797 20.4878 56.5034 21.6642 56.7546 22.771C56.8885 23.361 57.1411 23.9171 57.4969 24.4053C57.8527 24.8934 58.3041 25.3031 58.8234 25.6093C59.3427 25.9154 59.9188 26.1115 60.5163 26.1853C61.1138 26.2592 61.72 26.2094 62.2976 26.0389C63.0499 25.8168 63.8145 25.2769 63.8885 24.4922C63.9664 25.3933 63.762 26.2963 63.3039 27.0748C62.8459 27.8532 62.1571 28.4683 61.334 28.8337C60.3647 29.2401 59.2834 29.2667 58.2335 29.2396C57.5493 29.2219 56.8495 29.1805 56.2183 28.9144C55.7815 28.7142 55.3889 28.4284 55.0635 28.0737C54.738 27.719 54.4863 27.3026 54.323 26.8489C54.0016 25.9369 53.9149 24.958 54.0707 24.0032C54.174 23.2606 54.3795 22.5327 54.437 21.785C54.4945 21.0374 54.3855 20.239 53.9269 19.6475C53.4684 19.056 52.5925 18.7539 51.9405 19.1184C51.6785 19.2649 51.4671 19.5042 51.1825 19.5988C50.8978 19.6933 50.4943 19.5272 50.5202 19.2269L50.8733 18.7472Z" fill="#2F2E41"/>
<path d="M81.6133 41.1124L81.6481 40.7437L82.6826 29.9254C83.0217 29.6585 83.3859 29.4258 83.7702 29.2304C85.8996 28.1519 87.9538 28.6681 89.0651 29.1142C89.3597 29.2301 89.6443 29.3701 89.9162 29.5327L90.5215 40.7437L90.5416 41.1124H81.6133Z" fill="#7D75FF"/>
<path d="M86.4576 27.0462C88.9454 27.0462 90.9623 25.0189 90.9623 22.5181C90.9623 20.0173 88.9454 17.9901 86.4576 17.9901C83.9697 17.9901 81.9529 20.0173 81.9529 22.5181C81.9529 25.0189 83.9697 27.0462 86.4576 27.0462Z" fill="#FFB8B8"/>
<path d="M90.1128 25.2792C90.4476 24.9244 90.6699 24.4776 90.7514 23.9955C90.8328 23.5134 90.7698 23.0179 90.5703 22.5719C90.3709 22.1259 90.0439 21.7496 89.6311 21.491C89.2183 21.2323 88.7382 21.1029 88.252 21.1192C87.6291 21.1402 87.0422 21.3964 86.4477 21.5844C85.5467 21.8925 84.5855 21.9795 83.6443 21.8382C82.6974 21.6904 81.843 21.1833 81.257 20.4213C80.6996 19.6513 80.5258 18.5833 80.9196 17.7172C81.3741 16.7173 82.4359 16.1664 83.4348 15.7188C83.8376 15.516 84.2678 15.374 84.7117 15.297C84.9341 15.2599 85.1617 15.2693 85.3803 15.3247C85.5989 15.3801 85.8038 15.4803 85.9821 15.6189C86.2628 15.8616 86.4273 16.2263 86.7327 16.4367C87.0766 16.6734 87.5232 16.6672 87.9379 16.7089C88.8719 16.8029 89.7554 17.1805 90.4707 17.7915C91.1861 18.4025 91.6994 19.218 91.9425 20.1294C92.1856 21.0408 92.1468 22.005 91.8314 22.8938C91.516 23.7825 90.9389 24.5537 90.1769 25.1047L90.1128 25.2792Z" fill="#2F2E41"/>
<path d="M84.4415 31.1035L83.7703 29.2304L83.7284 29.1136C83.7085 29.0583 83.6764 29.0082 83.6344 28.9672C83.5924 28.9261 83.5417 28.8953 83.4861 28.8768C83.4305 28.8584 83.3715 28.853 83.3135 28.8609C83.2555 28.8688 83.2 28.8899 83.1513 28.9225L82.3892 29.4332C82.3892 29.4332 77.5014 29.4332 77.1089 32.3811C77.1034 32.4272 77.0961 32.4788 77.0906 32.5341C77.0903 32.5367 77.0897 32.5392 77.0887 32.5415C77.0392 32.7351 76.1167 36.3191 75.3243 40.7437C75.3024 40.8654 75.2803 40.9889 75.2583 41.1125H85.8795C86.2251 36.6677 86.0317 32.5351 84.4415 31.1035Z" fill="#2F2E41"/>
<path d="M97.1113 40.7439C96.5318 36.2049 95.7028 32.5343 95.7028 32.5343C95.6954 32.479 95.6881 32.4274 95.6825 32.3813C95.2919 29.4334 90.4041 29.4334 90.4041 29.4334L89.6424 28.9229C89.5937 28.8903 89.5382 28.8692 89.4802 28.8613C89.4221 28.8534 89.363 28.8589 89.3074 28.8773C89.2518 28.8958 89.2011 28.9267 89.1591 28.9678C89.1171 29.0089 89.085 29.059 89.0652 29.1144L88.3518 31.1037C86.7616 32.5352 86.5682 36.6678 86.9138 41.1125L97.1572 41.1126C97.1425 40.9891 97.126 40.8656 97.1113 40.7439Z" fill="#2F2E41"/>
<path d="M11.0782 30.4085L9.98877 40.7437L9.95025 41.1125H7.00293C7.03777 40.9926 7.0726 40.8691 7.10932 40.7437C7.94567 37.8603 9.08463 33.6514 8.96167 32.536C8.76913 30.7956 10.1172 30.2149 10.1172 30.2149L10.2016 30.2315L11.0782 30.4085Z" fill="#7D75FF"/>
<path d="M15.8316 27.2184C18.3195 27.2184 20.3363 25.1911 20.3363 22.6903C20.3363 20.1895 18.3195 18.1622 15.8316 18.1622C13.3437 18.1622 11.3269 20.1895 11.3269 22.6903C11.3269 25.1911 13.3437 27.2184 15.8316 27.2184Z" fill="#A0616A"/>
<path d="M21.6627 38.9185C21.4355 39.3395 21.2494 39.7815 21.107 40.2385C21.0538 40.4008 21.0025 40.5704 20.9547 40.7437C20.9199 40.8635 20.8887 40.987 20.8576 41.1124H8.97632C8.99289 40.9907 9.00748 40.8672 9.02405 40.7437C9.63114 35.9227 10.1226 31.0297 10.2015 30.2314C10.2089 30.1558 10.2125 30.1171 10.2125 30.1171C17.3324 26.3451 22.5284 31.2786 22.5284 31.2786C22.5284 31.2786 22.5357 31.3136 22.5467 31.3818C22.6605 32.0714 23.24 36.0978 21.6627 38.9185Z" fill="#7D75FF"/>
<path d="M21.107 40.2386L20.3147 38.5314L20.5072 31.7617L22.5468 31.3819L22.6183 31.369C23.6725 31.985 24.4883 32.9415 24.9329 34.0828C25.329 35.0783 26.0828 38.0724 26.7193 40.7438C26.7487 40.8673 26.7779 40.9908 26.8073 41.1125H21.5123L21.3417 40.7438L21.107 40.2386Z" fill="#7D75FF"/>
<path d="M28.3535 10.6929H2.30589C1.74718 10.6936 1.21156 10.917 0.816487 11.3141C0.421418 11.7112 0.199166 12.2496 0.198486 12.8112V38.9941C0.199166 39.5558 0.421418 40.0942 0.816487 40.4913C1.21156 40.8884 1.74718 41.1118 2.30589 41.1124H28.3535C28.9123 41.1121 29.4481 40.8888 29.8432 40.4916C30.2383 40.0944 30.4605 39.5558 30.4608 38.9941V12.8112C30.4605 12.2495 30.2383 11.711 29.8432 11.3138C29.4481 10.9166 28.9123 10.6933 28.3535 10.6929ZM30.094 38.9941C30.0936 39.458 29.9101 39.9028 29.5838 40.2308C29.2575 40.5589 28.815 40.7433 28.3535 40.7437H2.30589C1.84448 40.743 1.40216 40.5585 1.07589 40.2305C0.749622 39.9026 0.56601 39.458 0.565302 38.9941V12.8112C0.56601 12.3474 0.749622 11.9028 1.07589 11.5749C1.40216 11.2469 1.84448 11.0624 2.30589 11.0617H28.3535C28.815 11.0621 29.2575 11.2465 29.5838 11.5745C29.9101 11.9026 30.0936 12.3473 30.094 12.8112V38.9941ZM9.98879 40.7437L9.95027 41.1124H20.8576C20.8888 40.9871 20.9199 40.8636 20.9548 40.7437H9.98879Z" fill="#3F3D56"/>
<path d="M63.313 10.6929H37.2654C36.7067 10.6936 36.171 10.917 35.776 11.3141C35.3809 11.7112 35.1586 12.2496 35.158 12.8112V38.9941C35.1586 39.5558 35.3809 40.0942 35.776 40.4913C36.171 40.8884 36.7067 41.1118 37.2654 41.1124H63.313C63.8718 41.1121 64.4076 40.8888 64.8027 40.4916C65.1978 40.0944 65.4199 39.5558 65.4203 38.9941V12.8112C65.4199 12.2495 65.1978 11.711 64.8027 11.3138C64.4076 10.9166 63.8718 10.6933 63.313 10.6929ZM65.0535 38.9941C65.0531 39.458 64.8696 39.9028 64.5433 40.2308C64.2169 40.5589 63.7745 40.7433 63.313 40.7437H37.2654C36.8039 40.743 36.3616 40.5585 36.0354 40.2305C35.7091 39.9026 35.5255 39.458 35.5248 38.9941V12.8112C35.5255 12.3474 35.7091 11.9028 36.0354 11.5749C36.3616 11.2469 36.8039 11.0624 37.2654 11.0617H63.313C63.7745 11.0621 64.2169 11.2465 64.5433 11.5745C64.8696 11.9026 65.0531 12.3473 65.0535 12.8112V38.9941ZM42.0761 40.7437C42.0982 40.823 42.122 40.9023 42.1477 40.9816L42.1018 41.1124H51.2098C51.219 40.9889 51.2264 40.8654 51.2355 40.7437H42.0761Z" fill="#3F3D56"/>
<path d="M98.2742 10.6929H72.2265C71.6677 10.6933 71.1319 10.9166 70.7368 11.3138C70.3416 11.7109 70.1195 12.2495 70.1191 12.8112V38.9941C70.1195 39.5559 70.3416 40.0944 70.7368 40.4916C71.1319 40.8888 71.6677 41.1121 72.2265 41.1124H98.2742C98.8328 41.1118 99.3685 40.8884 99.7635 40.4913C100.159 40.0941 100.381 39.5557 100.381 38.9941V12.8112C100.381 12.2496 100.159 11.7112 99.7635 11.3141C99.3685 10.917 98.8328 10.6936 98.2742 10.6929ZM100.015 38.9941C100.014 39.4579 99.8304 39.9026 99.5041 40.2305C99.1779 40.5585 98.7356 40.743 98.2742 40.7437H72.2265C71.765 40.7433 71.3225 40.5589 70.9962 40.2309C70.6699 39.9028 70.4863 39.4581 70.486 38.9941V12.8112C70.4863 12.3473 70.6699 11.9025 70.9962 11.5745C71.3225 11.2465 71.765 11.062 72.2265 11.0617H98.2742C98.7356 11.0624 99.1779 11.2469 99.5041 11.5749C99.8304 11.9028 100.014 12.3474 100.015 12.8112V38.9941ZM85.9069 40.7437C85.8978 40.8654 85.8886 40.9889 85.8794 41.1124H93.7824C93.7971 40.9908 93.8136 40.8672 93.8283 40.7437H85.9069Z" fill="#3F3D56"/>
<path d="M80.5522 51.8053H20.0276C19.6384 51.8053 19.2652 51.6499 18.9901 51.3733C18.7149 51.0967 18.5603 50.7216 18.5603 50.3304C18.5603 49.9393 18.7149 49.5641 18.9901 49.2875C19.2652 49.0109 19.6384 48.8555 20.0276 48.8555H80.5522C80.9414 48.8555 81.3146 49.0109 81.5897 49.2875C81.8649 49.5641 82.0195 49.9393 82.0195 50.3304C82.0195 50.7216 81.8649 51.0967 81.5897 51.3733C81.3146 51.6499 80.9414 51.8053 80.5522 51.8053Z" fill="#CCCCCC"/>
<path d="M63.5871 2.94977H36.9929C36.6038 2.94977 36.2306 2.79438 35.9554 2.51779C35.6802 2.24119 35.5256 1.86605 35.5256 1.47489C35.5256 1.08372 35.6802 0.708583 35.9554 0.431988C36.2306 0.155394 36.6038 0 36.9929 0H63.5871C63.9762 0 64.3494 0.155394 64.6246 0.431988C64.8997 0.708583 65.0543 1.08372 65.0543 1.47489C65.0543 1.86605 64.8997 2.24119 64.6246 2.51779C64.3494 2.79438 63.9762 2.94977 63.5871 2.94977Z" fill="#7D75FF"/>
<path d="M17.9863 26.6354C18.1389 26.7866 18.3405 26.8774 18.5543 26.8912C18.7681 26.9049 18.9797 26.8407 19.1502 26.7103C20.2119 25.9192 21.1439 24.9346 21.6955 23.7335C22.3275 22.3572 22.398 20.6684 21.636 19.3604C20.9918 18.2547 19.8543 17.5411 18.7206 16.9552C18.2804 16.7055 17.8062 16.5218 17.3131 16.41C16.8148 16.2994 16.2932 16.384 15.8548 16.6465C15.6402 16.7817 15.4712 16.9788 15.3698 17.2119C15.2683 17.4451 15.2392 17.7037 15.2861 17.9538C14.7415 17.3292 14.044 16.8586 13.2627 16.5885C12.7708 16.395 12.2321 16.3557 11.7175 16.4759C10.998 16.681 10.4728 17.3235 10.1856 18.0175C9.95323 18.5454 9.87301 19.1283 9.95401 19.6998C9.99663 19.9842 10.0982 20.2564 10.2521 20.4989C10.4059 20.7413 10.6087 20.9486 10.8473 21.1073C11.4421 21.4773 12.201 21.4506 12.8841 21.2994C13.5672 21.1483 14.2284 20.8855 14.9248 20.819C15.6211 20.7525 16.3965 20.927 16.8203 21.4864C17.1187 21.8803 17.1953 22.395 17.2623 22.8855L17.6108 25.4369C17.6393 25.806 17.733 26.167 17.8877 26.503C17.9145 26.5514 17.9477 26.5959 17.9863 26.6354Z" fill="#2F2E41"/>
</svg>
